<svg width="16" height="16" viewBox="0 0 16 16" fill="none" xmlns="http://www.w3.org/2000/svg">
<path d="M11.5341 7.00002H15.4661C15.5136 7.00004 15.5601 7.01359 15.6002 7.03909C15.6403 7.06459 15.6722 7.10098 15.6924 7.144C15.7125 7.18702 15.72 7.23489 15.7139 7.282C15.7079 7.32912 15.6885 7.37352 15.6581 7.41002L13.6921 9.77002C13.6686 9.79816 13.6393 9.82079 13.6061 9.83633C13.5729 9.85186 13.5367 9.85991 13.5001 9.85991C13.4635 9.85991 13.4273 9.85186 13.3941 9.83633C13.3609 9.82079 13.3315 9.79816 13.3081 9.77002L11.3421 7.41002C11.3117 7.37352 11.2923 7.32912 11.2862 7.282C11.2802 7.23489 11.2876 7.18702 11.3078 7.144C11.3279 7.10098 11.3599 7.06459 11.4 7.03909C11.4401 7.01359 11.4866 7.00004 11.5341 7.00002ZM0.534086 9.00002H4.46609C4.51359 9.00001 4.56011 8.98645 4.60019 8.96096C4.64027 8.93546 4.67225 8.89907 4.6924 8.85605C4.71254 8.81303 4.72002 8.76516 4.71394 8.71804C4.70786 8.67093 4.68849 8.62652 4.65809 8.59002L2.69209 6.23002C2.66862 6.20189 2.63926 6.17925 2.60609 6.16372C2.57291 6.14819 2.53672 6.14014 2.50009 6.14014C2.46345 6.14014 2.42726 6.14819 2.39409 6.16372C2.36091 6.17925 2.33155 6.20189 2.30809 6.23002L0.342086 8.59002C0.311684 8.62652 0.29231 8.67093 0.286234 8.71804C0.280157 8.76516 0.287629 8.81303 0.307775 8.85605C0.327921 8.89907 0.359907 8.93546 0.399987 8.96096C0.440067 8.98645 0.486583 9.00001 0.534086 9.00002Z" fill="#212529"/>
<path fill-rule="evenodd" clip-rule="evenodd" d="M8.00001 2.99999C6.44801 2.99999 5.06001 3.70699 4.14301 4.81799C4.10206 4.87106 4.05086 4.91536 3.99245 4.94825C3.93404 4.98114 3.86961 5.00194 3.803 5.00943C3.73638 5.01692 3.66895 5.01094 3.60469 4.99184C3.54043 4.97275 3.48068 4.94092 3.42897 4.89827C3.37726 4.85561 3.33465 4.803 3.30368 4.74354C3.27272 4.68409 3.25402 4.61902 3.24871 4.5522C3.24339 4.48538 3.25157 4.41817 3.27275 4.35457C3.29394 4.29097 3.32769 4.23228 3.37201 4.18199C4.1042 3.29552 5.0756 2.638 6.17067 2.28764C7.26575 1.93729 8.43841 1.90884 9.54918 2.20568C10.66 2.50252 11.6621 3.11215 12.4364 3.96208C13.2107 4.812 13.7246 5.86644 13.917 6.99999H12.9C12.6691 5.8708 12.0554 4.85598 11.1625 4.12713C10.2697 3.39829 9.15256 3.00013 8.00001 2.99999ZM3.10001 8.99999C3.28932 9.92461 3.73636 10.7768 4.38949 11.4581C5.04261 12.1394 5.87517 12.6221 6.79097 12.8503C7.70677 13.0785 8.66845 13.0429 9.5649 12.7477C10.4613 12.4525 11.256 11.9097 11.857 11.182C11.898 11.1289 11.9492 11.0846 12.0076 11.0517C12.066 11.0188 12.1304 10.998 12.197 10.9905C12.2636 10.9831 12.3311 10.989 12.3953 11.0081C12.4596 11.0272 12.5193 11.0591 12.5711 11.1017C12.6228 11.1444 12.6654 11.197 12.6963 11.2564C12.7273 11.3159 12.746 11.381 12.7513 11.4478C12.7566 11.5146 12.7484 11.5818 12.7273 11.6454C12.7061 11.709 12.6723 11.7677 12.628 11.818C11.8958 12.7045 10.9244 13.362 9.82934 13.7123C8.73427 14.0627 7.56161 14.0911 6.45083 13.7943C5.34006 13.4975 4.33791 12.8878 3.5636 12.0379C2.78928 11.188 2.27538 10.1335 2.08301 8.99999H3.10001Z" fill="#212529"/>
</svg>
