<svg width="16" height="16" viewBox="0 0 16 16" fill="none" xmlns="http://www.w3.org/2000/svg">
<path fill-rule="evenodd" clip-rule="evenodd" d="M14.0001 13.5C14.0001 13.6326 13.9475 13.7598 13.8537 13.8536C13.7599 13.9473 13.6328 14 13.5001 14H7.50014C7.36753 14 7.24036 13.9473 7.14659 13.8536C7.05282 13.7598 7.00014 13.6326 7.00014 13.5C7.00014 13.3674 7.05282 13.2402 7.14659 13.1465C7.24036 13.0527 7.36753 13 7.50014 13H12.2931L2.14614 2.85402C2.09966 2.80753 2.06278 2.75234 2.03762 2.6916C2.01246 2.63087 1.99951 2.56577 1.99951 2.50002C1.99951 2.43428 2.01246 2.36918 2.03762 2.30844C2.06278 2.2477 2.09966 2.19251 2.14614 2.14602C2.19263 2.09953 2.24782 2.06266 2.30856 2.0375C2.3693 2.01234 2.4344 1.99939 2.50014 1.99939C2.56589 1.99939 2.63099 2.01234 2.69173 2.0375C2.75247 2.06266 2.80766 2.09953 2.85414 2.14602L13.0001 12.293V7.50002C13.0001 7.36741 13.0528 7.24024 13.1466 7.14647C13.2404 7.0527 13.3675 7.00002 13.5001 7.00002C13.6328 7.00002 13.7599 7.0527 13.8537 7.14647C13.9475 7.24024 14.0001 7.36741 14.0001 7.50002V13.5Z" fill="#212529"/>
</svg>
