<svg width="16" height="16" viewBox="0 0 16 16" fill="none" xmlns="http://www.w3.org/2000/svg">
<path fill-rule="evenodd" clip-rule="evenodd" d="M8.00014 15C8.13275 15 8.25993 14.9473 8.3537 14.8535C8.44746 14.7598 8.50014 14.6326 8.50014 14.5V2.70698L11.6461 5.85398C11.74 5.94787 11.8674 6.00061 12.0001 6.00061C12.1329 6.00061 12.2603 5.94787 12.3541 5.85398C12.448 5.76009 12.5008 5.63275 12.5008 5.49998C12.5008 5.3672 12.448 5.23986 12.3541 5.14598L8.35414 1.14598C8.3077 1.09942 8.25252 1.06247 8.19178 1.03727C8.13103 1.01206 8.06591 0.999084 8.00014 0.999084C7.93438 0.999084 7.86926 1.01206 7.80851 1.03727C7.74776 1.06247 7.69259 1.09942 7.64614 1.14598L3.64614 5.14598C3.59966 5.19247 3.56278 5.24765 3.53762 5.30839C3.51246 5.36913 3.49951 5.43423 3.49951 5.49998C3.49951 5.63275 3.55226 5.76009 3.64614 5.85398C3.74003 5.94787 3.86737 6.00061 4.00014 6.00061C4.13292 6.00061 4.26026 5.94787 4.35414 5.85398L7.50014 2.70698V14.5C7.50014 14.6326 7.55282 14.7598 7.64659 14.8535C7.74036 14.9473 7.86753 15 8.00014 15Z" fill="#212529"/>
</svg>
