<svg width="16" height="16" viewBox="0 0 16 16" fill="none" xmlns="http://www.w3.org/2000/svg">
<path fill-rule="evenodd" clip-rule="evenodd" d="M8.00014 12C8.13275 12 8.25993 11.9473 8.3537 11.8535C8.44747 11.7598 8.50014 11.6326 8.50014 11.5V5.70698L10.6461 7.85398C10.6926 7.90047 10.7478 7.93734 10.8086 7.9625C10.8693 7.98766 10.9344 8.00061 11.0001 8.00061C11.0659 8.00061 11.131 7.98766 11.1917 7.9625C11.2525 7.93734 11.3077 7.90047 11.3541 7.85398C11.4006 7.80749 11.4375 7.7523 11.4627 7.69156C11.4878 7.63082 11.5008 7.56572 11.5008 7.49998C11.5008 7.43423 11.4878 7.36913 11.4627 7.30839C11.4375 7.24766 11.4006 7.19247 11.3541 7.14598L8.35414 4.14598C8.3077 4.09941 8.25252 4.06247 8.19178 4.03727C8.13103 4.01206 8.06591 3.99908 8.00014 3.99908C7.93438 3.99908 7.86926 4.01206 7.80851 4.03727C7.74776 4.06247 7.69259 4.09941 7.64614 4.14598L4.64614 7.14598C4.55226 7.23986 4.49951 7.3672 4.49951 7.49998C4.49951 7.63275 4.55226 7.76009 4.64614 7.85398C4.74003 7.94787 4.86737 8.00061 5.00014 8.00061C5.13292 8.00061 5.26026 7.94787 5.35414 7.85398L7.50014 5.70698V11.5C7.50014 11.6326 7.55282 11.7598 7.64659 11.8535C7.74036 11.9473 7.86754 12 8.00014 12Z" fill="#212529"/>
</svg>
