<svg width="16" height="16" viewBox="0 0 16 16" fill="none" xmlns="http://www.w3.org/2000/svg">
<path fill-rule="evenodd" clip-rule="evenodd" d="M8 9.99998C8.13261 9.99998 8.25979 9.9473 8.35355 9.85353C8.44732 9.75976 8.5 9.63259 8.5 9.49998V3.70698L10.646 5.85398C10.6925 5.90047 10.7477 5.93734 10.8084 5.9625C10.8692 5.98766 10.9343 6.00061 11 6.00061C11.0657 6.00061 11.1308 5.98766 11.1916 5.9625C11.2523 5.93734 11.3075 5.90047 11.354 5.85398C11.4005 5.80749 11.4374 5.7523 11.4625 5.69156C11.4877 5.63082 11.5006 5.56572 11.5006 5.49998C11.5006 5.43423 11.4877 5.36913 11.4625 5.30839C11.4374 5.24766 11.4005 5.19247 11.354 5.14598L8.354 2.14598C8.30755 2.09941 8.25238 2.06247 8.19163 2.03727C8.13089 2.01206 8.06577 1.99908 8 1.99908C7.93423 1.99908 7.86911 2.01206 7.80837 2.03727C7.74762 2.06247 7.69245 2.09941 7.646 2.14598L4.646 5.14598C4.55211 5.23986 4.49937 5.3672 4.49937 5.49998C4.49937 5.63275 4.55211 5.76009 4.646 5.85398C4.73989 5.94787 4.86722 6.00061 5 6.00061C5.13278 6.00061 5.26011 5.94787 5.354 5.85398L7.5 3.70698V9.49998C7.5 9.63259 7.55268 9.75976 7.64645 9.85353C7.74021 9.9473 7.86739 9.99998 8 9.99998ZM1 12.5C1 12.3674 1.05268 12.2402 1.14645 12.1464C1.24021 12.0527 1.36739 12 1.5 12H14.5C14.6326 12 14.7598 12.0527 14.8536 12.1464C14.9473 12.2402 15 12.3674 15 12.5C15 12.6326 14.9473 12.7598 14.8536 12.8535C14.7598 12.9473 14.6326 13 14.5 13H1.5C1.36739 13 1.24021 12.9473 1.14645 12.8535C1.05268 12.7598 1 12.6326 1 12.5Z" fill="#212529"/>
</svg>
