<svg width="16" height="16" viewBox="0 0 16 16" fill="none" xmlns="http://www.w3.org/2000/svg">
<path d="M9.66895 0.864L7.99995 0L6.33095 0.864L4.47295 1.146L3.63095 2.826L2.29395 4.146L2.59995 6L2.29395 7.854L3.63095 9.174L4.47295 10.854L6.33095 11.136L7.99995 12L9.66895 11.136L11.5269 10.854L12.3689 9.174L13.7059 7.854L13.3999 6L13.7059 4.146L12.3689 2.826L11.5269 1.146L9.66895 0.864ZM10.8649 2.057L11.5489 3.422L12.6349 4.494L12.3869 6L12.6349 7.506L11.5489 8.578L10.8649 9.943L9.35495 10.172L7.99995 10.874L6.64495 10.172L5.13495 9.943L4.45095 8.578L3.36495 7.506L3.61395 6L3.36395 4.494L4.45095 3.422L5.13495 2.057L6.64495 1.828L7.99995 1.126L9.35595 1.828L10.8649 2.057Z" fill="#212529"/>
<path d="M3.99995 11.794V16L7.99995 15L11.9999 16V11.794L9.98195 12.1L7.99995 13.126L6.01795 12.1L3.99995 11.794Z" fill="#212529"/>
</svg>
