<svg width="16" height="16" viewBox="0 0 16 16" fill="none" xmlns="http://www.w3.org/2000/svg">
<path d="M9.585 2.56802C9.68269 2.62491 9.75822 2.71323 9.79926 2.81857C9.84031 2.9239 9.84445 3.04004 9.811 3.14802L8.677 6.83202H10.667C10.7647 6.83198 10.8602 6.86054 10.9418 6.91418C11.0234 6.96781 11.0875 7.04416 11.1262 7.13382C11.1649 7.22347 11.1766 7.3225 11.1596 7.41868C11.1427 7.51485 11.098 7.60397 11.031 7.67502L5.697 13.342C5.61959 13.4243 5.51659 13.478 5.40477 13.4943C5.29296 13.5106 5.17893 13.4885 5.08127 13.4316C4.98361 13.3748 4.90808 13.2866 4.86699 13.1813C4.8259 13.0761 4.82167 12.96 4.855 12.852L5.99 9.16702H4C3.90234 9.16706 3.80682 9.1385 3.72521 9.08487C3.6436 9.03124 3.57948 8.95489 3.54077 8.86523C3.50205 8.77558 3.49044 8.67655 3.50737 8.58037C3.52429 8.48419 3.56901 8.39508 3.636 8.32402L8.969 2.65702C9.04638 2.57459 9.14941 2.52081 9.26128 2.50446C9.37316 2.48811 9.48727 2.51017 9.585 2.56702V2.56802Z" fill="#212529"/>
<path d="M2 4.00002H6.332L5.392 5.00002H2C1.73478 5.00002 1.48043 5.10538 1.29289 5.29292C1.10536 5.48045 1 5.73481 1 6.00002V10C1 10.2652 1.10536 10.5196 1.29289 10.7071C1.48043 10.8947 1.73478 11 2 11H4.38L4.072 12H2C1.46957 12 0.960859 11.7893 0.585786 11.4142C0.210714 11.0392 0 10.5305 0 10V6.00002C0 5.46959 0.210714 4.96088 0.585786 4.58581C0.960859 4.21074 1.46957 4.00002 2 4.00002Z" fill="#212529"/>
<path d="M2 6.00002H4.45L2.908 7.63902C2.74887 7.80817 2.63119 8.01195 2.56422 8.23432C2.49725 8.45669 2.48283 8.69157 2.5221 8.92046C2.56136 9.14935 2.65323 9.36599 2.79048 9.55333C2.92773 9.74067 3.1066 9.89358 3.313 10H2V6.00002ZM10.595 4.00002L10.287 5.00002H12C12.2652 5.00002 12.5196 5.10538 12.7071 5.29292C12.8946 5.48045 13 5.73481 13 6.00002V10C13 10.2652 12.8946 10.5196 12.7071 10.7071C12.5196 10.8947 12.2652 11 12 11H9.276L8.334 12H12C12.5304 12 13.0391 11.7893 13.4142 11.4142C13.7893 11.0392 14 10.5305 14 10V6.00002C14 5.46959 13.7893 4.96088 13.4142 4.58581C13.0391 4.21074 12.5304 4.00002 12 4.00002H10.595Z" fill="#212529"/>
<path d="M12 10H10.217L11.759 8.36102C11.856 8.25802 11.937 8.14302 12 8.02102V10ZM12 6.64602V6.00002H11.354C11.6313 6.14295 11.8571 6.36876 12 6.64602ZM16 8.00002C16 8.39785 15.842 8.77938 15.5607 9.06068C15.2794 9.34199 14.8978 9.50002 14.5 9.50002V6.50002C14.8978 6.50002 15.2794 6.65806 15.5607 6.93936C15.842 7.22067 16 7.6022 16 8.00002Z" fill="#212529"/>
</svg>
