<svg width="16" height="16" viewBox="0 0 16 16" fill="none" xmlns="http://www.w3.org/2000/svg">
<path d="M3.99997 4.5C3.99997 4.36739 4.05265 4.24021 4.14642 4.14645C4.24019 4.05268 4.36736 4 4.49997 4H5.99997C6.13258 4 6.25976 4.05268 6.35353 4.14645C6.44729 4.24021 6.49997 4.36739 6.49997 4.5C6.49997 4.63261 6.44729 4.75979 6.35353 4.85355C6.25976 4.94732 6.13258 5 5.99997 5V5.5H10.14L10.526 4.342C10.5591 4.24248 10.6227 4.1559 10.7078 4.09452C10.7929 4.03315 10.8951 4.00008 11 4H12C12.1326 4 12.2598 4.05268 12.3535 4.14645C12.4473 4.24021 12.5 4.36739 12.5 4.5C12.5 4.63261 12.4473 4.75979 12.3535 4.85355C12.2598 4.94732 12.1326 5 12 5H11.36L11.049 5.935L11.856 7.225C12.5514 6.93821 13.3291 6.92314 14.0351 7.18276C14.7411 7.44238 15.3238 7.95774 15.6678 8.62673C16.0117 9.29572 16.0918 10.0695 15.8921 10.7947C15.6924 11.52 15.2276 12.1437 14.5897 12.5424C13.9518 12.9411 13.1875 13.0856 12.4481 12.9473C11.7087 12.8089 11.0482 12.3979 10.5976 11.7956C10.147 11.1933 9.93908 10.4437 10.0151 9.69529C10.0911 8.94692 10.4455 8.25441 11.008 7.755L10.5 6.943L8.42397 10.265C8.37903 10.3369 8.31653 10.3962 8.24236 10.4373C8.16819 10.4784 8.08478 10.5 7.99997 10.5H5.95897C5.85527 11.1132 5.56355 11.679 5.12419 12.1192C4.68483 12.5593 4.11954 12.852 3.50653 12.9568C2.89352 13.0616 2.26309 12.9733 1.70246 12.7041C1.14183 12.435 0.678716 11.9982 0.377186 11.4543C0.0756556 10.9104 -0.0493835 10.2862 0.0193673 9.66808C0.0881182 9.04999 0.34726 8.46854 0.760942 8.00417C1.17462 7.53981 1.72239 7.21549 2.32847 7.07608C2.93455 6.93666 3.56897 6.98906 4.14397 7.226L4.99997 5.856V5H4.49997C4.36736 5 4.24019 4.94732 4.14642 4.85355C4.05265 4.75979 3.99997 4.63261 3.99997 4.5ZM5.49997 6.943L4.99197 7.757C5.49197 8.201 5.84197 8.811 5.95897 9.5H7.09797L5.49997 6.943ZM7.99997 9.057L9.59797 6.5H6.40197L7.99997 9.057ZM4.93697 9.5C4.8519 9.17099 4.68428 8.86914 4.44997 8.623L3.90197 9.5H4.93697ZM3.60297 8.092C3.22149 7.97153 2.81263 7.96823 2.42925 8.08254C2.04587 8.19684 1.70558 8.4235 1.45236 8.73321C1.19913 9.04292 1.0446 9.42146 1.00875 9.81991C0.972892 10.2184 1.05735 10.6184 1.25122 10.9683C1.44509 11.3183 1.73944 11.6021 2.09626 11.783C2.45307 11.9639 2.85594 12.0336 3.25281 11.9832C3.64968 11.9328 4.0223 11.7645 4.32253 11.5001C4.62276 11.2357 4.83679 10.8873 4.93697 10.5H2.99997C2.91072 10.5 2.8231 10.4761 2.74619 10.4308C2.66929 10.3855 2.60592 10.3204 2.56265 10.2424C2.51938 10.1643 2.4978 10.0761 2.50014 9.98688C2.50249 9.89765 2.52867 9.81069 2.57597 9.735L3.60297 8.092ZM11.55 8.622C11.2148 8.975 11.0198 9.43813 11.0017 9.92458C10.9836 10.411 11.1434 10.8874 11.4514 11.2644C11.7594 11.6414 12.1942 11.8931 12.6745 11.9724C13.1548 12.0517 13.6475 11.9531 14.0603 11.6951C14.4731 11.4371 14.7776 11.0375 14.9168 10.571C15.056 10.1045 15.0203 9.60331 14.8164 9.16129C14.6124 8.71928 14.2543 8.36682 13.8091 8.16997C13.3639 7.97312 12.8622 7.94539 12.398 8.092L13.424 9.735C13.4588 9.79068 13.4823 9.85267 13.4931 9.91743C13.504 9.98219 13.5019 10.0484 13.4872 10.1124C13.4724 10.1764 13.4452 10.2369 13.4071 10.2903C13.3689 10.3438 13.3207 10.3892 13.265 10.424C13.2093 10.4588 13.1473 10.4823 13.0825 10.4931C13.0178 10.504 12.9515 10.502 12.8875 10.4872C12.8236 10.4724 12.7631 10.4452 12.7097 10.4071C12.6562 10.369 12.6108 10.3207 12.576 10.265L11.55 8.623V8.622Z" fill="#212529"/>
</svg>
