<svg width="16" height="16" viewBox="0 0 16 16" fill="none" xmlns="http://www.w3.org/2000/svg">
<path fill-rule="evenodd" clip-rule="evenodd" d="M14.3536 0.146447C14.4473 0.240215 14.5 0.367392 14.5 0.5V2H15C15.2652 2 15.5196 2.10536 15.7071 2.29289C15.8946 2.48043 16 2.73478 16 3V5H0V3C0 2.73478 0.105357 2.48043 0.292893 2.29289C0.48043 2.10536 0.734784 2 1 2H13.5V0.5C13.5 0.367392 13.5527 0.240215 13.6464 0.146447C13.7402 0.0526784 13.8674 0 14 0C14.1326 0 14.2598 0.0526784 14.3536 0.146447ZM2.14645 3.85355C2.24021 3.94732 2.36739 4 2.5 4C2.63261 4 2.75979 3.94732 2.85355 3.85355C2.94732 3.75979 3 3.63261 3 3.5C3 3.36739 2.94732 3.24021 2.85355 3.14645C2.75979 3.05268 2.63261 3 2.5 3C2.36739 3 2.24021 3.05268 2.14645 3.14645C2.05268 3.24021 2 3.36739 2 3.5C2 3.63261 2.05268 3.75979 2.14645 3.85355ZM4.14645 3.85355C4.24021 3.94732 4.36739 4 4.5 4C4.63261 4 4.75979 3.94732 4.85355 3.85355C4.94732 3.75979 5 3.63261 5 3.5C5 3.36739 4.94732 3.24021 4.85355 3.14645C4.75979 3.05268 4.63261 3 4.5 3C4.36739 3 4.24021 3.05268 4.14645 3.14645C4.05268 3.24021 4 3.36739 4 3.5C4 3.63261 4.05268 3.75979 4.14645 3.85355ZM11.8536 3.85355C11.9473 3.75979 12 3.63261 12 3.5C12 3.36739 11.9473 3.24021 11.8536 3.14645C11.7598 3.05268 11.6326 3 11.5 3C11.3674 3 11.2402 3.05268 11.1464 3.14645C11.0527 3.24021 11 3.36739 11 3.5C11 3.63261 11.0527 3.75979 11.1464 3.85355C11.2402 3.94732 11.3674 4 11.5 4C11.6326 4 11.7598 3.94732 11.8536 3.85355ZM13.1464 3.85355C13.2402 3.94732 13.3674 4 13.5 4C13.6326 4 13.7598 3.94732 13.8536 3.85355C13.9473 3.75979 14 3.63261 14 3.5C14 3.36739 13.9473 3.24021 13.8536 3.14645C13.7598 3.05268 13.6326 3 13.5 3C13.3674 3 13.2402 3.05268 13.1464 3.14645C13.0527 3.24021 13 3.36739 13 3.5C13 3.63261 13.0527 3.75979 13.1464 3.85355ZM9.5 3H6.5C6.36739 3 6.24021 3.05268 6.14645 3.14645C6.05268 3.24021 6 3.36739 6 3.5C6 3.63261 6.05268 3.75979 6.14645 3.85355C6.24021 3.94732 6.36739 4 6.5 4H9.5C9.63261 4 9.75979 3.94732 9.85355 3.85355C9.94732 3.75979 10 3.63261 10 3.5C10 3.36739 9.94732 3.24021 9.85355 3.14645C9.75979 3.05268 9.63261 3 9.5 3ZM5.56066 11.5607C5.27936 11.842 4.89782 12 4.5 12C4.10218 12 3.72064 11.842 3.43934 11.5607C3.15804 11.2794 3 10.8978 3 10.5C3 10.1022 3.15804 9.72064 3.43934 9.43934C3.72064 9.15804 4.10218 9 4.5 9C4.89782 9 5.27936 9.15804 5.56066 9.43934C5.84196 9.72064 6 10.1022 6 10.5C6 10.8978 5.84196 11.2794 5.56066 11.5607ZM4.85355 10.8536C4.94732 10.7598 5 10.6326 5 10.5C5 10.3674 4.94732 10.2402 4.85355 10.1464C4.75979 10.0527 4.63261 10 4.5 10C4.36739 10 4.24021 10.0527 4.14645 10.1464C4.05268 10.2402 4 10.3674 4 10.5C4 10.6326 4.05268 10.7598 4.14645 10.8536C4.24021 10.9473 4.36739 11 4.5 11C4.63261 11 4.75979 10.9473 4.85355 10.8536ZM12.5607 11.5607C12.2794 11.842 11.8978 12 11.5 12C11.1022 12 10.7206 11.842 10.4393 11.5607C10.158 11.2794 10 10.8978 10 10.5C10 10.1022 10.158 9.72064 10.4393 9.43934C10.7206 9.15804 11.1022 9 11.5 9C11.8978 9 12.2794 9.15804 12.5607 9.43934C12.842 9.72064 13 10.1022 13 10.5C13 10.8978 12.842 11.2794 12.5607 11.5607ZM0 6H16V14C16 14.2652 15.8946 14.5196 15.7071 14.7071C15.5196 14.8946 15.2652 15 15 15H1C0.734784 15 0.48043 14.8946 0.292893 14.7071C0.105357 14.5196 0 14.2652 0 14V6ZM2.73223 12.2678C3.20107 12.7366 3.83696 13 4.5 13C5.16304 13 5.79893 12.7366 6.26777 12.2678C6.73661 11.7989 7 11.163 7 10.5C7 9.83696 6.73661 9.20107 6.26777 8.73223C5.79893 8.26339 5.16304 8 4.5 8C3.83696 8 3.20107 8.26339 2.73223 8.73223C2.26339 9.20107 2 9.83696 2 10.5C2 11.163 2.26339 11.7989 2.73223 12.2678ZM9.73223 12.2678C10.2011 12.7366 10.837 13 11.5 13C12.163 13 12.7989 12.7366 13.2678 12.2678C13.7366 11.7989 14 11.163 14 10.5C14 9.83696 13.7366 9.20107 13.2678 8.73223C12.7989 8.26339 12.163 8 11.5 8C10.837 8 10.2011 8.26339 9.73223 8.73223C9.26339 9.20107 9 9.83696 9 10.5C9 11.163 9.26339 11.7989 9.73223 12.2678Z" fill="#212529"/>
</svg>
