<svg width="16" height="16" viewBox="0 0 16 16" fill="none" xmlns="http://www.w3.org/2000/svg">
<g clip-path="url(#clip0_34_2885)">
<path d="M1.16085 8C1.16085 9.35274 1.56196 10.6751 2.31346 11.7999C3.06496 12.9247 4.1331 13.8014 5.38283 14.3191C6.63256 14.8369 8.00776 14.9725 9.33453 14.7087C10.6613 14.445 11.8801 13.7937 12.8368 12.8373C13.7934 11.8809 14.445 10.6623 14.7092 9.33564C14.9733 8.00895 14.8382 6.63371 14.3208 5.38383C13.8034 4.13395 12.927 3.06555 11.8024 2.31372C10.6778 1.56189 9.35559 1.1604 8.00285 1.16C7.84902 1.16 7.7015 1.09889 7.59273 0.990122C7.48396 0.881351 7.42285 0.733826 7.42285 0.58C7.42285 0.426174 7.48396 0.278649 7.59273 0.169878C7.7015 0.061107 7.84902 0 8.00285 0C9.79369 0.000527239 11.5326 0.601917 12.9411 1.70789C14.3496 2.81386 15.3463 4.36045 15.7716 6.10005C16.1969 7.83965 16.0262 9.67164 15.2869 11.3027C14.5476 12.9338 13.2823 14.2697 11.6938 15.0965C10.1052 15.9232 8.28516 16.193 6.52504 15.8628C4.76493 15.5325 3.16653 14.6212 1.98576 13.2747C0.804981 11.9283 0.110116 10.2246 0.0124094 8.43647C-0.0852975 6.6483 0.419804 4.87906 1.44685 3.412L0.783849 2.835C0.704657 2.76615 0.645629 2.6771 0.613055 2.57734C0.58048 2.47759 0.57558 2.37086 0.598877 2.26854C0.622174 2.16622 0.672794 2.07214 0.745344 1.99632C0.817893 1.9205 0.909654 1.86578 1.01085 1.838L3.53085 1.148C3.6229 1.12288 3.71972 1.12087 3.81274 1.14212C3.90575 1.16338 3.99209 1.20726 4.06409 1.26986C4.13609 1.33247 4.19153 1.41187 4.22551 1.50103C4.25948 1.59019 4.27093 1.68635 4.25885 1.781L3.92685 4.373C3.91353 4.47717 3.87217 4.57577 3.80719 4.65827C3.74222 4.74077 3.65606 4.80409 3.55792 4.84146C3.45977 4.87883 3.35333 4.88885 3.24993 4.87045C3.14654 4.85205 3.05008 4.80593 2.97085 4.737L2.32785 4.177C1.56496 5.30585 1.1581 6.63754 1.15985 8H1.16085Z" fill="#212529"/>
<path d="M6.64085 11.671V8.843H8.21085L9.70885 11.671H11.0228L9.37685 8.665C10.2738 8.365 10.8038 7.559 10.8038 6.565C10.8038 5.195 9.86085 4.319 8.34785 4.319H5.49985V11.671H6.64085ZM6.64085 7.921V5.277H8.21085C9.09185 5.277 9.62685 5.776 9.62685 6.597C9.62685 7.437 9.12285 7.921 8.24085 7.921H6.64085Z" fill="#212529"/>
</g>
<defs>
<clipPath id="clip0_34_2885">
<rect width="16" height="16" fill="white"/>
</clipPath>
</defs>
</svg>
