<svg width="16" height="16" viewBox="0 0 16 16" fill="none" xmlns="http://www.w3.org/2000/svg">
<g clip-path="url(#clip0_34_2913)">
<path d="M2 1.00003C1.73478 1.00003 1.48043 1.10539 1.29289 1.29292C1.10536 1.48046 1 1.73481 1 2.00003C1 2.26524 1.10536 2.5196 1.29289 2.70714C1.48043 2.89467 1.73478 3.00003 2 3.00003C2.26522 3.00003 2.51957 2.89467 2.70711 2.70714C2.89464 2.5196 3 2.26524 3 2.00003C3 1.73481 2.89464 1.48046 2.70711 1.29292C2.51957 1.10539 2.26522 1.00003 2 1.00003ZM9.77839e-07 2.00003C-0.000480478 1.5129 0.176843 1.04233 0.498688 0.676665C0.820534 0.310996 1.26477 0.0753613 1.74802 0.0139883C2.23127 -0.0473847 2.72031 0.0697237 3.12335 0.343333C3.52638 0.616942 3.8157 1.02824 3.937 1.50003H12.063C12.1513 1.1587 12.3282 0.846758 12.5758 0.595828C12.8235 0.344897 13.1331 0.16389 13.4732 0.0711494C13.8134 -0.0215914 14.172 -0.0227701 14.5127 0.0677326C14.8535 0.158235 15.1642 0.337203 15.4135 0.5865C15.6628 0.835798 15.8418 1.14656 15.9323 1.48731C16.0228 1.82806 16.0216 2.18667 15.9289 2.52681C15.8361 2.86696 15.6551 3.17654 15.4042 3.42419C15.1533 3.67185 14.8413 3.84877 14.5 3.93703V12.063C14.8413 12.1513 15.1533 12.3282 15.4042 12.5759C15.6551 12.8235 15.8361 13.1331 15.9289 13.4732C16.0216 13.8134 16.0228 14.172 15.9323 14.5127C15.8418 14.8535 15.6628 15.1643 15.4135 15.4136C15.1642 15.6629 14.8535 15.8418 14.5127 15.9323C14.172 16.0228 13.8134 16.0216 13.4732 15.9289C13.1331 15.8362 12.8235 15.6552 12.5758 15.4042C12.3282 15.1533 12.1513 14.8414 12.063 14.5H3.937C3.84874 14.8414 3.67182 15.1533 3.42417 15.4042C3.17651 15.6552 2.86693 15.8362 2.52679 15.9289C2.18664 16.0216 1.82803 16.0228 1.48728 15.9323C1.14654 15.8418 0.83577 15.6629 0.586473 15.4136C0.337176 15.1643 0.158208 14.8535 0.0677051 14.5127C-0.0227976 14.172 -0.0216188 13.8134 0.0711219 13.4732C0.163863 13.1331 0.344869 12.8235 0.5958 12.5759C0.846731 12.3282 1.15867 12.1513 1.5 12.063V3.93703C1.0706 3.82616 0.690236 3.57572 0.418706 3.22508C0.147177 2.87445 -0.000111735 2.44351 9.77839e-07 2.00003ZM2.5 3.93703V12.063C3.203 12.243 3.756 12.797 3.937 13.5H12.063C12.1527 13.1541 12.3332 12.8385 12.5858 12.5859C12.8385 12.3332 13.1541 12.1527 13.5 12.063V3.93703C13.1541 3.84736 12.8385 3.66685 12.5858 3.41419C12.3332 3.16153 12.1527 2.84591 12.063 2.50003H3.937C3.84734 2.84591 3.66682 3.16153 3.41416 3.41419C3.1615 3.66685 2.84588 3.84736 2.5 3.93703ZM14 1.00003C13.7348 1.00003 13.4804 1.10539 13.2929 1.29292C13.1054 1.48046 13 1.73481 13 2.00003C13 2.26524 13.1054 2.5196 13.2929 2.70714C13.4804 2.89467 13.7348 3.00003 14 3.00003C14.2652 3.00003 14.5196 2.89467 14.7071 2.70714C14.8946 2.5196 15 2.26524 15 2.00003C15 1.73481 14.8946 1.48046 14.7071 1.29292C14.5196 1.10539 14.2652 1.00003 14 1.00003ZM2 13C1.73478 13 1.48043 13.1054 1.29289 13.2929C1.10536 13.4805 1 13.7348 1 14C1 14.2652 1.10536 14.5196 1.29289 14.7071C1.48043 14.8947 1.73478 15 2 15C2.26522 15 2.51957 14.8947 2.70711 14.7071C2.89464 14.5196 3 14.2652 3 14C3 13.7348 2.89464 13.4805 2.70711 13.2929C2.51957 13.1054 2.26522 13 2 13ZM14 13C13.7348 13 13.4804 13.1054 13.2929 13.2929C13.1054 13.4805 13 13.7348 13 14C13 14.2652 13.1054 14.5196 13.2929 14.7071C13.4804 14.8947 13.7348 15 14 15C14.2652 15 14.5196 14.8947 14.7071 14.7071C14.8946 14.5196 15 14.2652 15 14C15 13.7348 14.8946 13.4805 14.7071 13.2929C14.5196 13.1054 14.2652 13 14 13Z" fill="#212529"/>
</g>
<defs>
<clipPath id="clip0_34_2913">
<rect width="16" height="16" fill="white"/>
</clipPath>
</defs>
</svg>
