<svg width="16" height="16" viewBox="0 0 16 16" fill="none" xmlns="http://www.w3.org/2000/svg">
<g clip-path="url(#clip0_34_2925)">
<path fill-rule="evenodd" clip-rule="evenodd" d="M3.5 10C3.36739 10 3.24021 9.94732 3.14645 9.85355C3.05268 9.75979 3 9.63261 3 9.5V1.5C3 1.36739 3.05268 1.24021 3.14645 1.14645C3.24021 1.05268 3.36739 1 3.5 1H12.5C12.6326 1 12.7598 1.05268 12.8536 1.14645C12.9473 1.24021 13 1.36739 13 1.5V9.5C13 9.63261 12.9473 9.75979 12.8536 9.85355C12.7598 9.94732 12.6326 10 12.5 10H10.5C10.3674 10 10.2402 10.0527 10.1464 10.1464C10.0527 10.2402 10 10.3674 10 10.5C10 10.6326 10.0527 10.7598 10.1464 10.8536C10.2402 10.9473 10.3674 11 10.5 11H12.5C12.8978 11 13.2794 10.842 13.5607 10.5607C13.842 10.2794 14 9.89782 14 9.5V1.5C14 1.10218 13.842 0.720644 13.5607 0.43934C13.2794 0.158035 12.8978 0 12.5 0H3.5C3.10218 0 2.72064 0.158035 2.43934 0.43934C2.15804 0.720644 2 1.10218 2 1.5V9.5C2 9.89782 2.15804 10.2794 2.43934 10.5607C2.72064 10.842 3.10218 11 3.5 11H5.5C5.63261 11 5.75979 10.9473 5.85355 10.8536C5.94732 10.7598 6 10.6326 6 10.5C6 10.3674 5.94732 10.2402 5.85355 10.1464C5.75979 10.0527 5.63261 10 5.5 10H3.5Z" fill="#212529"/>
<path fill-rule="evenodd" clip-rule="evenodd" d="M7.646 15.854C7.69245 15.9006 7.74762 15.9375 7.80837 15.9627C7.86911 15.9879 7.93423 16.0009 8 16.0009C8.06577 16.0009 8.13089 15.9879 8.19163 15.9627C8.25238 15.9375 8.30755 15.9006 8.354 15.854L11.354 12.854C11.4479 12.7601 11.5006 12.6328 11.5006 12.5C11.5006 12.3672 11.4479 12.2399 11.354 12.146C11.2601 12.0521 11.1328 11.9994 11 11.9994C10.8672 11.9994 10.7399 12.0521 10.646 12.146L8.5 14.293V5.5C8.5 5.36739 8.44732 5.24021 8.35355 5.14645C8.25979 5.05268 8.13261 5 8 5C7.86739 5 7.74021 5.05268 7.64645 5.14645C7.55268 5.24021 7.5 5.36739 7.5 5.5V14.293L5.354 12.146C5.26011 12.0521 5.13278 11.9994 5 11.9994C4.86722 11.9994 4.73989 12.0521 4.646 12.146C4.55211 12.2399 4.49937 12.3672 4.49937 12.5C4.49937 12.6328 4.55211 12.7601 4.646 12.854L7.646 15.854Z" fill="#212529"/>
</g>
<defs>
<clipPath id="clip0_34_2925">
<rect width="16" height="16" fill="white"/>
</clipPath>
</defs>
</svg>
