<svg width="16" height="16" viewBox="0 0 16 16" fill="none" xmlns="http://www.w3.org/2000/svg">
<path d="M6.002 5.5C6.002 5.89782 5.84396 6.27936 5.56266 6.56066C5.28136 6.84196 4.89982 7 4.502 7C4.10418 7 3.72264 6.84196 3.44134 6.56066C3.16004 6.27936 3.002 5.89782 3.002 5.5C3.002 5.10218 3.16004 4.72064 3.44134 4.43934C3.72264 4.15804 4.10418 4 4.502 4C4.89982 4 5.28136 4.15804 5.56266 4.43934C5.84396 4.72064 6.002 5.10218 6.002 5.5Z" fill="#212529"/>
<path d="M1.5 2C1.10218 2 0.720644 2.15804 0.43934 2.43934C0.158035 2.72064 0 3.10218 0 3.5V12.5C0 12.8978 0.158035 13.2794 0.43934 13.5607C0.720644 13.842 1.10218 14 1.5 14H14.5C14.8978 14 15.2794 13.842 15.5607 13.5607C15.842 13.2794 16 12.8978 16 12.5V3.5C16 3.10218 15.842 2.72064 15.5607 2.43934C15.2794 2.15804 14.8978 2 14.5 2H1.5ZM14.5 3C14.6326 3 14.7598 3.05268 14.8536 3.14645C14.9473 3.24021 15 3.36739 15 3.5V9.5L11.225 7.553C11.1312 7.50602 11.025 7.48973 10.9215 7.50642C10.8179 7.52311 10.7223 7.57194 10.648 7.646L6.938 11.356L4.278 9.584C4.18196 9.52006 4.06676 9.4913 3.95194 9.5026C3.83712 9.5139 3.72973 9.56456 3.648 9.646L1.002 12V12.54C1.0008 12.5267 1.00014 12.5134 1 12.5V3.5C1 3.36739 1.05268 3.24021 1.14645 3.14645C1.24021 3.05268 1.36739 3 1.5 3H14.5Z" fill="#212529"/>
</svg>
