<svg width="16" height="16" viewBox="0 0 16 16" fill="none" xmlns="http://www.w3.org/2000/svg">
<path d="M3.20398 11H12.796L7.99998 5.51902L3.20398 11ZM2.45098 10.341L7.24698 4.86102C7.34084 4.75361 7.4566 4.66753 7.58647 4.60854C7.71635 4.54956 7.85734 4.51904 7.99998 4.51904C8.14262 4.51904 8.28362 4.54956 8.41349 4.60854C8.54337 4.66753 8.65912 4.75361 8.75298 4.86102L13.549 10.341C14.115 10.988 13.655 12 12.796 12H3.20398C3.01174 12.0002 2.82352 11.9449 2.66187 11.8409C2.50022 11.7368 2.37199 11.5884 2.29253 11.4133C2.21308 11.2383 2.18577 11.044 2.21387 10.8538C2.24197 10.6637 2.32429 10.4856 2.45098 10.341Z" fill="#212529"/>
</svg>
