<svg width="16" height="16" viewBox="0 0 16 16" fill="none" xmlns="http://www.w3.org/2000/svg">
<path fill-rule="evenodd" clip-rule="evenodd" d="M2.965 12.695C2.97901 12.5486 2.96055 12.4009 2.91094 12.2625C2.86133 12.124 2.7818 11.9982 2.678 11.894C1.618 10.83 1 9.468 1 8C1 4.808 4.004 2 8 2C11.996 2 15 4.808 15 8C15 11.193 11.996 14 8 14C7.2951 14.001 6.59311 13.9096 5.912 13.728C5.67398 13.6642 5.42079 13.6906 5.201 13.802C4.814 13.998 3.961 14.372 2.567 14.695C2.76148 14.0421 2.89472 13.3726 2.965 12.695ZM2.165 15.803L2.185 15.799C4.015 15.436 5.133 14.957 5.653 14.694C6.41859 14.8982 7.20765 15.0011 8 15C12.418 15 16 11.866 16 8C16 4.134 12.418 1 8 1C3.582 1 0 4.134 0 8C0 9.76 0.743 11.37 1.97 12.6C1.88416 13.3901 1.70835 14.1678 1.446 14.918L1.443 14.929C1.36844 15.1439 1.28707 15.3563 1.199 15.566C1.12 15.752 1.273 15.96 1.472 15.928C1.70366 15.8901 1.93469 15.8484 2.165 15.803ZM8 5.993C9.664 4.282 13.825 7.276 8 11.125C2.175 7.275 6.336 4.282 8 5.993Z" fill="black"/>
</svg>
