<svg width="16" height="16" viewBox="0 0 16 16" fill="none" xmlns="http://www.w3.org/2000/svg">
<g clip-path="url(#clip0_34_3327)">
<path d="M14 1C14.2652 1 14.5196 1.10536 14.7071 1.29289C14.8946 1.48043 15 1.73478 15 2V14C15 14.2652 14.8946 14.5196 14.7071 14.7071C14.5196 14.8946 14.2652 15 14 15H2C1.73478 15 1.48043 14.8946 1.29289 14.7071C1.10536 14.5196 1 14.2652 1 14V2C1 1.73478 1.10536 1.48043 1.29289 1.29289C1.48043 1.10536 1.73478 1 2 1H14ZM2 0C1.46957 0 0.960859 0.210714 0.585786 0.585786C0.210714 0.960859 0 1.46957 0 2V14C0 14.5304 0.210714 15.0391 0.585786 15.4142C0.960859 15.7893 1.46957 16 2 16H14C14.5304 16 15.0391 15.7893 15.4142 15.4142C15.7893 15.0391 16 14.5304 16 14V2C16 1.46957 15.7893 0.960859 15.4142 0.585786C15.0391 0.210714 14.5304 0 14 0H2Z" fill="#212529"/>
<path d="M10.97 4.97C11.11 4.83127 11.2989 4.7532 11.4959 4.75265C11.693 4.75211 11.8823 4.82914 12.0231 4.96709C12.1638 5.10505 12.2445 5.29284 12.2479 5.48987C12.2512 5.6869 12.1769 5.87733 12.041 6.02L8.049 11.01C7.98039 11.0839 7.89758 11.1432 7.80553 11.1844C7.71348 11.2255 7.61407 11.2477 7.51325 11.2496C7.41243 11.2514 7.31227 11.233 7.21876 11.1952C7.12524 11.1575 7.0403 11.1013 6.969 11.03L4.324 8.384C4.25031 8.31534 4.19121 8.23254 4.15022 8.14054C4.10923 8.04854 4.08718 7.94923 4.08541 7.84852C4.08363 7.74782 4.10216 7.64779 4.13988 7.5544C4.1776 7.46101 4.23374 7.37618 4.30496 7.30496C4.37618 7.23374 4.46101 7.1776 4.5544 7.13988C4.64779 7.10216 4.74782 7.08363 4.84852 7.08541C4.94923 7.08718 5.04854 7.10923 5.14054 7.15022C5.23254 7.19121 5.31534 7.25031 5.384 7.324L7.478 9.417L10.951 4.992C10.9572 4.98425 10.9629 4.9769 10.97 4.97Z" fill="#212529"/>
</g>
<defs>
<clipPath id="clip0_34_3327">
<rect width="16" height="16" fill="white"/>
</clipPath>
</defs>
</svg>
