<svg width="16" height="16" viewBox="0 0 16 16" fill="none" xmlns="http://www.w3.org/2000/svg">
<path d="M2.50001 7.99999C2.49986 7.03446 2.75388 6.08591 3.23655 5.24969C3.71921 4.41346 4.41351 3.71903 5.24964 3.2362C6.08577 2.75338 7.03427 2.49917 7.99979 2.49913C8.96532 2.49909 9.91384 2.75323 10.75 3.23599C10.8648 3.30125 11.0007 3.31846 11.1281 3.28386C11.2556 3.24927 11.3641 3.16568 11.4301 3.05134C11.4962 2.93699 11.5143 2.80118 11.4805 2.67353C11.4468 2.54588 11.3639 2.43676 11.25 2.36999C10.0109 1.65457 8.57029 1.36801 7.15169 1.55475C5.73309 1.74149 4.41575 2.39109 3.40396 3.40281C2.39218 4.41453 1.74249 5.73184 1.55566 7.15042C1.36883 8.56901 1.6553 10.0096 2.37064 11.2488C3.08597 12.488 4.19021 13.4565 5.51208 14.0042C6.83396 14.5518 8.29961 14.648 9.68173 14.2778C11.0638 13.9076 12.2852 13.0917 13.1564 11.9567C14.0275 10.8216 14.4998 9.43083 14.5 7.99999C14.5 7.86738 14.4473 7.7402 14.3536 7.64644C14.2598 7.55267 14.1326 7.49999 14 7.49999C13.8674 7.49999 13.7402 7.55267 13.6465 7.64644C13.5527 7.7402 13.5 7.86738 13.5 7.99999C13.5 9.45868 12.9205 10.8576 11.8891 11.8891C10.8576 12.9205 9.4587 13.5 8.00001 13.5C6.54132 13.5 5.14237 12.9205 4.11092 11.8891C3.07947 10.8576 2.50001 9.45868 2.50001 7.99999Z" fill="#212529"/>
<path d="M15.354 3.35399C15.4005 3.3075 15.4374 3.25231 15.4625 3.19157C15.4877 3.13083 15.5006 3.06573 15.5006 2.99999C15.5006 2.93425 15.4877 2.86915 15.4625 2.80841C15.4374 2.74767 15.4005 2.69248 15.354 2.64599C15.3075 2.5995 15.2523 2.56263 15.1916 2.53747C15.1309 2.51231 15.0658 2.49936 15 2.49936C14.9343 2.49936 14.8692 2.51231 14.8084 2.53747C14.7477 2.56263 14.6925 2.5995 14.646 2.64599L8.00001 9.29299L5.35401 6.64599C5.30752 6.5995 5.25233 6.56262 5.19159 6.53747C5.13085 6.51231 5.06575 6.49936 5.00001 6.49936C4.93427 6.49936 4.86916 6.51231 4.80843 6.53747C4.74769 6.56262 4.6925 6.5995 4.64601 6.64599C4.59952 6.69248 4.56264 6.74767 4.53749 6.80841C4.51233 6.86915 4.49938 6.93425 4.49938 6.99999C4.49938 7.06573 4.51233 7.13083 4.53749 7.19157C4.56264 7.25231 4.59952 7.3075 4.64601 7.35399L7.64601 10.354C7.69245 10.4006 7.74763 10.4375 7.80838 10.4627C7.86912 10.4879 7.93424 10.5009 8.00001 10.5009C8.06578 10.5009 8.1309 10.4879 8.19164 10.4627C8.25239 10.4375 8.30756 10.4006 8.35401 10.354L15.354 3.35399Z" fill="#212529"/>
</svg>
