<svg width="16" height="16" viewBox="0 0 16 16" fill="none" xmlns="http://www.w3.org/2000/svg">
<path fill-rule="evenodd" clip-rule="evenodd" d="M1.55307 6.77605C1.61248 6.65776 1.71638 6.56786 1.84197 6.52606C1.96757 6.48425 2.10462 6.49396 2.22307 6.55305L8.00007 9.44005L13.7761 6.55205C13.8348 6.52203 13.899 6.50394 13.9647 6.49882C14.0305 6.4937 14.0967 6.50166 14.1594 6.52222C14.2221 6.54279 14.2801 6.57557 14.3301 6.61866C14.38 6.66175 14.421 6.71431 14.4505 6.77331C14.4801 6.8323 14.4977 6.89656 14.5023 6.96239C14.5069 7.02822 14.4985 7.0943 14.4774 7.15684C14.4563 7.21938 14.4231 7.27713 14.3796 7.32677C14.3362 7.3764 14.2833 7.41694 14.2241 7.44605L8.22407 10.446C8.15454 10.4809 8.07784 10.499 8.00007 10.499C7.9223 10.499 7.8456 10.4809 7.77607 10.446L1.77607 7.44605C1.65778 7.38664 1.56788 7.28274 1.52608 7.15714C1.48427 7.03155 1.49398 6.8945 1.55307 6.77605Z" fill="#212529"/>
</svg>
