<svg width="16" height="16" viewBox="0 0 16 16" fill="none" xmlns="http://www.w3.org/2000/svg">
<path fill-rule="evenodd" clip-rule="evenodd" d="M7.64614 2.64604C7.69259 2.59948 7.74776 2.56253 7.80851 2.53733C7.86926 2.51212 7.93438 2.49915 8.00014 2.49915C8.06591 2.49915 8.13103 2.51212 8.19178 2.53733C8.25252 2.56253 8.3077 2.59948 8.35414 2.64604L14.3541 8.64604C14.448 8.73993 14.5008 8.86726 14.5008 9.00004C14.5008 9.13281 14.448 9.26015 14.3541 9.35404C14.2603 9.44793 14.1329 9.50067 14.0001 9.50067C13.8674 9.50067 13.74 9.44793 13.6461 9.35404L8.00014 3.70704L2.35414 9.35404C2.26026 9.44793 2.13292 9.50067 2.00014 9.50067C1.86737 9.50067 1.74003 9.44793 1.64614 9.35404C1.55226 9.26015 1.49951 9.13281 1.49951 9.00004C1.49951 8.86726 1.55226 8.73993 1.64614 8.64604L7.64614 2.64604Z" fill="#212529"/>
<path fill-rule="evenodd" clip-rule="evenodd" d="M7.64614 6.64604C7.69259 6.59948 7.74776 6.56253 7.80851 6.53733C7.86926 6.51212 7.93438 6.49915 8.00014 6.49915C8.06591 6.49915 8.13103 6.51212 8.19178 6.53733C8.25252 6.56253 8.3077 6.59948 8.35414 6.64604L14.3541 12.646C14.448 12.7399 14.5008 12.8673 14.5008 13C14.5008 13.1328 14.448 13.2602 14.3541 13.354C14.2603 13.4479 14.1329 13.5007 14.0001 13.5007C13.8674 13.5007 13.74 13.4479 13.6461 13.354L8.00014 7.70704L2.35414 13.354C2.26026 13.4479 2.13292 13.5007 2.00014 13.5007C1.86737 13.5007 1.74003 13.4479 1.64614 13.354C1.55226 13.2602 1.49951 13.1328 1.49951 13C1.49951 12.8673 1.55226 12.7399 1.64614 12.646L7.64614 6.64604Z" fill="#212529"/>
</svg>
