<svg width="16" height="16" viewBox="0 0 16 16" fill="none" xmlns="http://www.w3.org/2000/svg">
<path fill-rule="evenodd" clip-rule="evenodd" d="M3.64592 13.854C3.69236 13.9006 3.74754 13.9375 3.80828 13.9628C3.86903 13.988 3.93415 14.0009 3.99992 14.0009C4.06568 14.0009 4.13081 13.988 4.19155 13.9628C4.2523 13.9375 4.30747 13.9006 4.35392 13.854L7.99992 10.207L11.6459 13.854C11.7398 13.9479 11.8671 14.0007 11.9999 14.0007C12.1327 14.0007 12.26 13.9479 12.3539 13.854C12.4478 13.7602 12.5005 13.6328 12.5005 13.5C12.5005 13.3673 12.4478 13.2399 12.3539 13.146L8.35392 9.14604C8.30747 9.09948 8.2523 9.06253 8.19155 9.03733C8.13081 9.01212 8.06568 8.99915 7.99992 8.99915C7.93415 8.99915 7.86903 9.01212 7.80828 9.03733C7.74754 9.06253 7.69236 9.09948 7.64592 9.14604L3.64592 13.146C3.59935 13.1925 3.56241 13.2477 3.5372 13.3084C3.512 13.3692 3.49902 13.4343 3.49902 13.5C3.49902 13.5658 3.512 13.6309 3.5372 13.6917C3.56241 13.7524 3.59935 13.8076 3.64592 13.854ZM3.64592 2.14604C3.69236 2.09948 3.74754 2.06253 3.80828 2.03733C3.86903 2.01212 3.93415 1.99915 3.99992 1.99915C4.06568 1.99915 4.13081 2.01212 4.19155 2.03733C4.2523 2.06253 4.30747 2.09948 4.35392 2.14604L7.99992 5.79304L11.6459 2.14604C11.7398 2.05215 11.8671 1.99941 11.9999 1.99941C12.1327 1.99941 12.26 2.05215 12.3539 2.14604C12.4478 2.23993 12.5005 2.36726 12.5005 2.50004C12.5005 2.63282 12.4478 2.76015 12.3539 2.85404L8.35392 6.85404C8.30747 6.9006 8.2523 6.93755 8.19155 6.96275C8.13081 6.98796 8.06568 7.00093 7.99992 7.00093C7.93415 7.00093 7.86903 6.98796 7.80828 6.96275C7.74754 6.93755 7.69236 6.9006 7.64592 6.85404L3.64592 2.85404C3.59935 2.80759 3.56241 2.75242 3.5372 2.69167C3.512 2.63093 3.49902 2.56581 3.49902 2.50004C3.49902 2.43427 3.512 2.36915 3.5372 2.30841C3.56241 2.24766 3.59935 2.19248 3.64592 2.14604Z" fill="#212529"/>
</svg>
