<svg width="16" height="16" viewBox="0 0 16 16" fill="none" xmlns="http://www.w3.org/2000/svg">
<path fill-rule="evenodd" clip-rule="evenodd" d="M3.646 10.146C3.69245 10.0995 3.74762 10.0625 3.80837 10.0373C3.86911 10.0121 3.93423 9.99915 4 9.99915C4.06577 9.99915 4.13089 10.0121 4.19163 10.0373C4.25238 10.0625 4.30755 10.0995 4.354 10.146L8 13.793L11.646 10.146C11.7399 10.0522 11.8672 9.99941 12 9.99941C12.1328 9.99941 12.2601 10.0522 12.354 10.146C12.4479 10.2399 12.5006 10.3673 12.5006 10.5C12.5006 10.6328 12.4479 10.7602 12.354 10.854L8.354 14.854C8.30755 14.9006 8.25238 14.9375 8.19163 14.9628C8.13089 14.988 8.06577 15.0009 8 15.0009C7.93423 15.0009 7.86911 14.988 7.80837 14.9628C7.74762 14.9375 7.69245 14.9006 7.646 14.854L3.646 10.854C3.59944 10.8076 3.56249 10.7524 3.53729 10.6917C3.51208 10.6309 3.49911 10.5658 3.49911 10.5C3.49911 10.4343 3.51208 10.3692 3.53729 10.3084C3.56249 10.2477 3.59944 10.1925 3.646 10.146ZM3.646 5.85404C3.69245 5.9006 3.74762 5.93755 3.80837 5.96275C3.86911 5.98796 3.93423 6.00093 4 6.00093C4.06577 6.00093 4.13089 5.98796 4.19163 5.96275C4.25238 5.93755 4.30755 5.9006 4.354 5.85404L8 2.20704L11.646 5.85404C11.7399 5.94793 11.8672 6.00067 12 6.00067C12.1328 6.00067 12.2601 5.94793 12.354 5.85404C12.4479 5.76015 12.5006 5.63281 12.5006 5.50004C12.5006 5.36726 12.4479 5.23993 12.354 5.14604L8.354 1.14604C8.30755 1.09948 8.25238 1.06253 8.19163 1.03733C8.13089 1.01212 8.06577 0.999146 8 0.999146C7.93423 0.999146 7.86911 1.01212 7.80837 1.03733C7.74762 1.06253 7.69245 1.09948 7.646 1.14604L3.646 5.14604C3.59944 5.19248 3.56249 5.24766 3.53729 5.30841C3.51208 5.36915 3.49911 5.43427 3.49911 5.50004C3.49911 5.56581 3.51208 5.63093 3.53729 5.69167C3.56249 5.75242 3.59944 5.80759 3.646 5.85404ZM1 8.00004C1 7.86743 1.05268 7.74025 1.14645 7.64649C1.24021 7.55272 1.36739 7.50004 1.5 7.50004H14.5C14.6326 7.50004 14.7598 7.55272 14.8536 7.64649C14.9473 7.74025 15 7.86743 15 8.00004C15 8.13265 14.9473 8.25982 14.8536 8.35359C14.7598 8.44736 14.6326 8.50004 14.5 8.50004H1.5C1.36739 8.50004 1.24021 8.44736 1.14645 8.35359C1.05268 8.25982 1 8.13265 1 8.00004Z" fill="#212529"/>
</svg>
