<svg width="16" height="16" viewBox="0 0 16 16" fill="none" xmlns="http://www.w3.org/2000/svg">
<path fill-rule="evenodd" clip-rule="evenodd" d="M1.64592 6.64604C1.69236 6.59948 1.74754 6.56253 1.80828 6.53733C1.86903 6.51212 1.93415 6.49915 1.99992 6.49915C2.06568 6.49915 2.13081 6.51212 2.19155 6.53733C2.2523 6.56253 2.30747 6.59948 2.35392 6.64604L7.99992 12.293L13.6459 6.64604C13.7398 6.55215 13.8671 6.49941 13.9999 6.49941C14.1327 6.49941 14.26 6.55215 14.3539 6.64604C14.4478 6.73993 14.5005 6.86726 14.5005 7.00004C14.5005 7.13281 14.4478 7.26015 14.3539 7.35404L8.35392 13.354C8.30747 13.4006 8.2523 13.4375 8.19155 13.4628C8.13081 13.488 8.06568 13.5009 7.99992 13.5009C7.93415 13.5009 7.86903 13.488 7.80828 13.4628C7.74754 13.4375 7.69236 13.4006 7.64592 13.354L1.64592 7.35404C1.59935 7.30759 1.56241 7.25242 1.5372 7.19167C1.512 7.13093 1.49902 7.06581 1.49902 7.00004C1.49902 6.93427 1.512 6.86915 1.5372 6.80841C1.56241 6.74766 1.59935 6.69248 1.64592 6.64604Z" fill="#212529"/>
<path fill-rule="evenodd" clip-rule="evenodd" d="M1.64592 2.64604C1.69236 2.59948 1.74754 2.56253 1.80828 2.53733C1.86903 2.51212 1.93415 2.49915 1.99992 2.49915C2.06568 2.49915 2.13081 2.51212 2.19155 2.53733C2.2523 2.56253 2.30747 2.59948 2.35392 2.64604L7.99992 8.29304L13.6459 2.64604C13.6924 2.59955 13.7476 2.56268 13.8083 2.53752C13.8691 2.51236 13.9342 2.49941 13.9999 2.49941C14.0657 2.49941 14.1308 2.51236 14.1915 2.53752C14.2522 2.56268 14.3074 2.59955 14.3539 2.64604C14.4004 2.69253 14.4373 2.74772 14.4624 2.80846C14.4876 2.8692 14.5005 2.9343 14.5005 3.00004C14.5005 3.06578 14.4876 3.13088 14.4624 3.19162C14.4373 3.25236 14.4004 3.30755 14.3539 3.35404L8.35392 9.35404C8.30747 9.4006 8.2523 9.43754 8.19155 9.46275C8.13081 9.48796 8.06568 9.50093 7.99992 9.50093C7.93415 9.50093 7.86903 9.48796 7.80828 9.46275C7.74754 9.43754 7.69236 9.4006 7.64592 9.35404L1.64592 3.35404C1.59935 3.30759 1.56241 3.25242 1.5372 3.19167C1.512 3.13093 1.49902 3.06581 1.49902 3.00004C1.49902 2.93427 1.512 2.86915 1.5372 2.80841C1.56241 2.74766 1.59935 2.69248 1.64592 2.64604Z" fill="#212529"/>
</svg>
