<svg width="16" height="16" viewBox="0 0 16 16" fill="none" xmlns="http://www.w3.org/2000/svg">
<path d="M10.058 0.501C10.058 0.3683 10.0053 0.24102 9.91158 0.147093C9.81784 0.0531655 9.69066 0.000264871 9.55796 0H6.57796C6.30196 0 6.07796 0.225 6.07796 0.501C6.07796 0.632825 6.0258 0.759295 5.93287 0.85279C5.83994 0.946285 5.71378 0.999207 5.58196 1C5.45015 1 5.32373 1.05236 5.23053 1.14557C5.13732 1.23877 5.08496 1.36519 5.08496 1.497V2C5.08496 2.13261 5.13764 2.25979 5.23141 2.35355C5.32518 2.44732 5.45235 2.5 5.58496 2.5H10.553C10.6856 2.5 10.8127 2.44732 10.9065 2.35355C11.0003 2.25979 11.053 2.13261 11.053 2V1.497C11.053 1.43165 11.0401 1.36694 11.015 1.30658C10.99 1.24621 10.9533 1.19138 10.907 1.14521C10.8608 1.09905 10.8059 1.06246 10.7455 1.03754C10.685 1.01263 10.6203 0.999869 10.555 1C10.423 0.999471 10.2966 0.946664 10.2034 0.853141C10.1103 0.759618 10.058 0.632997 10.058 0.501Z" fill="black"/>
<path d="M3.60498 2C3.47237 2 3.3452 2.05268 3.25143 2.14645C3.15766 2.24021 3.10498 2.36739 3.10498 2.5V14.5C3.10498 14.6326 3.15766 14.7598 3.25143 14.8536C3.3452 14.9473 3.47237 15 3.60498 15H12.605C12.7376 15 12.8648 14.9473 12.9585 14.8536C13.0523 14.7598 13.105 14.6326 13.105 14.5V2.5C13.105 2.36739 13.0523 2.24021 12.9585 2.14645C12.8648 2.05268 12.7376 2 12.605 2H12.105C11.9724 2 11.8452 1.94732 11.7514 1.85355C11.6577 1.75979 11.605 1.63261 11.605 1.5C11.605 1.36739 11.6577 1.24021 11.7514 1.14645C11.8452 1.05268 11.9724 1 12.105 1H12.605C13.0028 1 13.3843 1.15804 13.6656 1.43934C13.9469 1.72064 14.105 2.10218 14.105 2.5V14.5C14.105 14.8978 13.9469 15.2794 13.6656 15.5607C13.3843 15.842 13.0028 16 12.605 16H3.60498C3.20716 16 2.82562 15.842 2.54432 15.5607C2.26302 15.2794 2.10498 14.8978 2.10498 14.5V2.5C2.10498 2.10218 2.26302 1.72064 2.54432 1.43934C2.82562 1.15804 3.20716 1 3.60498 1H4.10498C4.23759 1 4.36477 1.05268 4.45853 1.14645C4.5523 1.24021 4.60498 1.36739 4.60498 1.5C4.60498 1.63261 4.5523 1.75979 4.45853 1.85355C4.36477 1.94732 4.23759 2 4.10498 2H3.60498Z" fill="black"/>
<path d="M8.06797 6.48196C9.72397 4.80896 13.863 7.73596 8.06797 11.5C2.27297 7.73596 6.41197 4.80996 8.06797 6.48196Z" fill="black"/>
</svg>
