<svg width="16" height="16" viewBox="0 0 16 16" fill="none" xmlns="http://www.w3.org/2000/svg">
<g clip-path="url(#clip0_34_3471)">
<path d="M2.99992 13.5C2.99992 13.3674 3.0526 13.2403 3.14637 13.1465C3.24014 13.0527 3.36731 13 3.49992 13H12.4999C12.6325 13 12.7597 13.0527 12.8535 13.1465C12.9472 13.2403 12.9999 13.3674 12.9999 13.5C12.9999 13.6327 12.9472 13.7598 12.8535 13.8536C12.7597 13.9474 12.6325 14 12.4999 14H3.49992C3.36731 14 3.24014 13.9474 3.14637 13.8536C3.0526 13.7598 2.99992 13.6327 2.99992 13.5ZM2.99992 15.5C2.99992 15.3674 3.0526 15.2403 3.14637 15.1465C3.24014 15.0527 3.36731 15 3.49992 15H12.4999C12.6325 15 12.7597 15.0527 12.8535 15.1465C12.9472 15.2403 12.9999 15.3674 12.9999 15.5C12.9999 15.6327 12.9472 15.7598 12.8535 15.8536C12.7597 15.9474 12.6325 16 12.4999 16H3.49992C3.36731 16 3.24014 15.9474 3.14637 15.8536C3.0526 15.7598 2.99992 15.6327 2.99992 15.5ZM13.4049 6.02704C13.1973 4.98021 12.6601 4.02725 11.8721 3.30752C11.0841 2.58779 10.0865 2.13903 9.02517 2.02685C7.96384 1.91468 6.89446 2.14497 5.97338 2.68405C5.05231 3.22314 4.32785 4.04275 3.90592 5.02304C3.43276 4.96854 2.95345 5.01118 2.49734 5.14835C2.04123 5.28553 1.61792 5.51435 1.25332 5.82082C0.888721 6.12729 0.59051 6.50495 0.376944 6.93067C0.163378 7.3564 0.0389514 7.82124 0.0112822 8.29672C-0.016387 8.77221 0.0532835 9.24834 0.216028 9.69597C0.378773 10.1436 0.631167 10.5533 0.957757 10.9C1.28435 11.2467 1.67826 11.523 2.11538 11.7122C2.5525 11.9014 3.02363 11.9993 3.49992 12H12.9999C13.761 12.0009 14.494 11.7125 15.0504 11.1931C15.6068 10.6738 15.945 9.96236 15.9965 9.203C16.048 8.44363 15.8089 7.69308 15.3277 7.10338C14.8465 6.51368 14.1592 6.12892 13.4049 6.02704ZM8.49992 3.00004C9.48388 2.99984 10.4334 3.36231 11.1669 4.01816C11.9004 4.674 12.3665 5.5772 12.4759 6.55504C12.4895 6.6779 12.5481 6.79137 12.6405 6.87355C12.7328 6.95573 12.8523 7.00079 12.9759 7.00004H12.9999C13.5304 7.00004 14.0391 7.21076 14.4141 7.58583C14.7892 7.9609 14.9999 8.46961 14.9999 9.00004C14.9999 9.53048 14.7892 10.0392 14.4141 10.4143C14.0391 10.7893 13.5304 11 12.9999 11H3.49992C3.146 10.9999 2.79614 10.9245 2.4735 10.7791C2.15086 10.6336 1.86279 10.4212 1.62834 10.1561C1.39389 9.89096 1.21841 9.57907 1.11351 9.24104C1.0086 8.90302 0.976666 8.54658 1.01981 8.19529C1.06295 7.844 1.1802 7.50588 1.36378 7.20329C1.54736 6.9007 1.7931 6.64054 2.08474 6.44001C2.37638 6.23949 2.70727 6.10317 3.05553 6.04008C3.40379 5.97699 3.76147 5.98857 4.10492 6.07404C4.22745 6.10461 4.35701 6.08767 4.46756 6.02664C4.57812 5.96561 4.66149 5.86501 4.70092 5.74504C4.9652 4.94622 5.47454 4.25101 6.15654 3.75822C6.83854 3.26544 7.65852 3.00014 8.49992 3.00004Z" fill="#212529"/>
</g>
<defs>
<clipPath id="clip0_34_3471">
<rect width="16" height="16" fill="white"/>
</clipPath>
</defs>
</svg>
