<svg width="16" height="16" viewBox="0 0 16 16" fill="none" xmlns="http://www.w3.org/2000/svg">
<g clip-path="url(#clip0_34_3475)">
<path d="M8.5001 3C9.65736 3.00005 10.7788 3.40146 11.6732 4.13578C12.5676 4.87011 13.1797 5.8919 13.4051 7.027C14.1594 7.12888 14.8467 7.51364 15.3279 8.10334C15.8091 8.69303 16.0481 9.44359 15.9967 10.203C15.9452 10.9623 15.607 11.6737 15.0506 12.1931C14.4942 12.7124 13.7612 13.0009 13.0001 13H11.5001C11.6327 13 11.7599 12.9473 11.8537 12.8536C11.9474 12.7598 12.0001 12.6326 12.0001 12.5C12.0001 12.3674 11.9474 12.2402 11.8537 12.1464C11.7599 12.0527 11.6327 12 11.5001 12H1.0501C0.755512 11.7112 0.514151 11.3726 0.337102 11H9.5001C9.63271 11 9.75989 10.9473 9.85366 10.8536C9.94742 10.7598 10.0001 10.6326 10.0001 10.5C10.0001 10.3674 9.94742 10.2402 9.85366 10.1464C9.75989 10.0527 9.63271 10 9.5001 10H0.0351019C-0.0123517 9.66836 -0.0123517 9.33164 0.0351019 9H7.5001C7.63271 9 7.75989 8.94732 7.85366 8.85355C7.94742 8.75979 8.0001 8.63261 8.0001 8.5C8.0001 8.36739 7.94742 8.24021 7.85366 8.14645C7.75989 8.05268 7.63271 8 7.5001 8H0.337102C0.65067 7.33852 1.16375 6.792 1.80415 6.43736C2.44456 6.08272 3.18004 5.9378 3.9071 6.023C4.29361 5.12548 4.93459 4.36086 5.75085 3.82362C6.56712 3.28637 7.5229 3.00004 8.5001 3Z" fill="#212529"/>
</g>
<defs>
<clipPath id="clip0_34_3475">
<rect width="16" height="16" fill="white"/>
</clipPath>
</defs>
</svg>
