<svg width="16" height="16" viewBox="0 0 16 16" fill="none" xmlns="http://www.w3.org/2000/svg">
<g clip-path="url(#clip0_34_3467)">
<path d="M4.15792 12.025C4.22026 12.0458 4.27788 12.0787 4.3275 12.1218C4.37713 12.1648 4.41777 12.2173 4.44712 12.276C4.47647 12.3348 4.49394 12.3988 4.49854 12.4644C4.50314 12.5299 4.49477 12.5957 4.47392 12.658L3.97392 14.158C3.9284 14.2791 3.83775 14.3778 3.721 14.4334C3.60426 14.4891 3.4705 14.4973 3.34781 14.4564C3.22512 14.4155 3.12305 14.3286 3.06303 14.2141C3.00301 14.0995 2.98971 13.9662 3.02592 13.842L3.52592 12.342C3.5677 12.2162 3.65776 12.1121 3.77628 12.0527C3.8948 11.9932 4.03208 11.9833 4.15792 12.025ZM10.1579 12.025C10.2203 12.0458 10.2779 12.0787 10.3275 12.1218C10.3771 12.1648 10.4178 12.2173 10.4471 12.276C10.4765 12.3348 10.4939 12.3988 10.4985 12.4644C10.5031 12.5299 10.4948 12.5957 10.4739 12.658L9.97392 14.158C9.9284 14.2791 9.83775 14.3778 9.721 14.4334C9.60426 14.4891 9.4705 14.4973 9.34781 14.4564C9.22512 14.4155 9.12305 14.3286 9.06303 14.2141C9.00301 14.0995 8.98971 13.9662 9.02592 13.842L9.52592 12.342C9.5677 12.2162 9.65776 12.1121 9.77628 12.0527C9.8948 11.9932 10.0321 11.9833 10.1579 12.025ZM6.65792 13.525C6.72026 13.5458 6.77788 13.5787 6.8275 13.6218C6.87713 13.6648 6.91777 13.7173 6.94712 13.776C6.97647 13.8348 6.99394 13.8988 6.99854 13.9644C7.00314 14.0299 6.99477 14.0957 6.97392 14.158L6.47392 15.658C6.4284 15.7791 6.33775 15.8778 6.221 15.9334C6.10426 15.9891 5.9705 15.9973 5.84781 15.9564C5.72512 15.9155 5.62305 15.8286 5.56303 15.7141C5.50301 15.5995 5.48971 15.4662 5.52592 15.342L6.02592 13.842C6.0677 13.7162 6.15776 13.6121 6.27628 13.5527C6.3948 13.4932 6.53208 13.4833 6.65792 13.525ZM12.6579 13.525C12.7203 13.5458 12.7779 13.5787 12.8275 13.6218C12.8771 13.6648 12.9178 13.7173 12.9471 13.776C12.9765 13.8348 12.9939 13.8988 12.9985 13.9644C13.0031 14.0299 12.9948 14.0957 12.9739 14.158L12.4739 15.658C12.4551 15.7226 12.4234 15.7827 12.3808 15.8348C12.3382 15.8868 12.2856 15.9297 12.226 15.9609C12.1664 15.9921 12.1011 16.011 12.0341 16.0164C11.9671 16.0218 11.8996 16.0137 11.8358 15.9924C11.772 15.9711 11.7131 15.9372 11.6628 15.8926C11.6124 15.8481 11.5715 15.7938 11.5425 15.7331C11.5136 15.6724 11.4972 15.6065 11.4944 15.5393C11.4915 15.4721 11.5022 15.405 11.5259 15.342L12.0259 13.842C12.0677 13.7162 12.1578 13.6121 12.2763 13.5527C12.3948 13.4932 12.5321 13.4833 12.6579 13.525ZM13.4049 5.02704C13.1973 3.98021 12.6601 3.02725 11.8721 2.30752C11.0841 1.58779 10.0865 1.13903 9.02517 1.02685C7.96384 0.914676 6.89446 1.14497 5.97338 1.68405C5.05231 2.22314 4.32785 3.04275 3.90592 4.02304C3.43276 3.96854 2.95345 4.01118 2.49734 4.14835C2.04123 4.28553 1.61792 4.51435 1.25332 4.82082C0.888721 5.12729 0.59051 5.50495 0.376944 5.93067C0.163378 6.3564 0.0389514 6.82124 0.0112822 7.29672C-0.016387 7.77221 0.0532835 8.24834 0.216028 8.69597C0.378773 9.14359 0.631167 9.55329 0.957757 9.89998C1.28435 10.2467 1.67826 10.523 2.11538 10.7122C2.5525 10.9014 3.02363 10.9993 3.49992 11H12.9999C13.761 11.0009 14.494 10.7125 15.0504 10.1931C15.6068 9.67377 15.945 8.96236 15.9965 8.203C16.048 7.44363 15.8089 6.69308 15.3277 6.10338C14.8465 5.51368 14.1592 5.12892 13.4049 5.02704Z" fill="#212529"/>
</g>
<defs>
<clipPath id="clip0_34_3467">
<rect width="16" height="16" fill="white"/>
</clipPath>
</defs>
</svg>
