<svg width="16" height="16" viewBox="0 0 16 16" fill="none" xmlns="http://www.w3.org/2000/svg">
<g clip-path="url(#clip0_34_3481)">
<path d="M3.74992 15.25C3.74992 15.449 3.67091 15.6397 3.53025 15.7804C3.3896 15.921 3.19884 16 2.99992 16C2.80101 16 2.61024 15.921 2.46959 15.7804C2.32894 15.6397 2.24992 15.449 2.24992 15.25C2.24992 15.0511 2.32894 14.8604 2.46959 14.7197C2.61024 14.5791 2.80101 14.5 2.99992 14.5C3.19884 14.5 3.3896 14.5791 3.53025 14.7197C3.67091 14.8604 3.74992 15.0511 3.74992 15.25ZM4.15792 11.526C4.28358 11.568 4.38743 11.6582 4.44668 11.7767C4.50593 11.8952 4.51573 12.0323 4.47392 12.158L3.97392 13.658C3.95509 13.7226 3.92342 13.7827 3.88082 13.8348C3.83822 13.8868 3.78555 13.9297 3.72598 13.9609C3.6664 13.9921 3.60114 14.011 3.5341 14.0164C3.46706 14.0218 3.39962 14.0137 3.33581 13.9924C3.272 13.9711 3.21314 13.9372 3.16275 13.8926C3.11236 13.8481 3.07148 13.7938 3.04255 13.7331C3.01361 13.6724 2.99723 13.6065 2.99437 13.5393C2.99152 13.4721 3.00225 13.405 3.02592 13.342L3.52592 11.842C3.56791 11.7164 3.65805 11.6125 3.77654 11.5533C3.89504 11.494 4.03221 11.4842 4.15792 11.526ZM7.74992 15.25C7.74992 15.449 7.67091 15.6397 7.53025 15.7804C7.3896 15.921 7.19883 16 6.99992 16C6.80101 16 6.61024 15.921 6.46959 15.7804C6.32894 15.6397 6.24992 15.449 6.24992 15.25C6.24992 15.0511 6.32894 14.8604 6.46959 14.7197C6.61024 14.5791 6.80101 14.5 6.99992 14.5C7.19883 14.5 7.3896 14.5791 7.53025 14.7197C7.67091 14.8604 7.74992 15.0511 7.74992 15.25ZM8.15792 11.526C8.28358 11.568 8.38743 11.6582 8.44668 11.7767C8.50593 11.8952 8.51573 12.0323 8.47392 12.158L7.97392 13.658C7.95509 13.7226 7.92342 13.7827 7.88082 13.8348C7.83822 13.8868 7.78555 13.9297 7.72598 13.9609C7.6664 13.9921 7.60114 14.011 7.5341 14.0164C7.46706 14.0218 7.39962 14.0137 7.33581 13.9924C7.272 13.9711 7.21314 13.9372 7.16275 13.8926C7.11236 13.8481 7.07148 13.7938 7.04255 13.7331C7.01361 13.6724 6.99723 13.6065 6.99437 13.5393C6.99152 13.4721 7.00225 13.405 7.02592 13.342L7.52592 11.842C7.56791 11.7164 7.65805 11.6125 7.77654 11.5533C7.89504 11.494 8.03221 11.4842 8.15792 11.526ZM11.7499 15.25C11.7499 15.449 11.6709 15.6397 11.5303 15.7804C11.3896 15.921 11.1988 16 10.9999 16C10.801 16 10.6102 15.921 10.4696 15.7804C10.3289 15.6397 10.2499 15.449 10.2499 15.25C10.2499 15.0511 10.3289 14.8604 10.4696 14.7197C10.6102 14.5791 10.801 14.5 10.9999 14.5C11.1988 14.5 11.3896 14.5791 11.5303 14.7197C11.6709 14.8604 11.7499 15.0511 11.7499 15.25ZM12.1579 11.526C12.2836 11.568 12.3874 11.6582 12.4467 11.7767C12.5059 11.8952 12.5157 12.0323 12.4739 12.158L11.9739 13.658C11.9551 13.7226 11.9234 13.7827 11.8808 13.8348C11.8382 13.8868 11.7856 13.9297 11.726 13.9609C11.6664 13.9921 11.6011 14.011 11.5341 14.0164C11.4671 14.0218 11.3996 14.0137 11.3358 13.9924C11.272 13.9711 11.2131 13.9372 11.1628 13.8926C11.1124 13.8481 11.0715 13.7938 11.0425 13.7331C11.0136 13.6724 10.9972 13.6065 10.9944 13.5393C10.9915 13.4721 11.0022 13.405 11.0259 13.342L11.5259 11.842C11.5679 11.7164 11.658 11.6125 11.7765 11.5533C11.895 11.494 12.0322 11.4842 12.1579 11.526ZM13.4049 4.52704C13.1973 3.48021 12.6601 2.52725 11.8721 1.80752C11.0841 1.08779 10.0865 0.639031 9.02517 0.526853C7.96384 0.414676 6.89446 0.644967 5.97338 1.18405C5.05231 1.72314 4.32785 2.54275 3.90592 3.52304C3.43276 3.46854 2.95345 3.51118 2.49734 3.64835C2.04123 3.78553 1.61792 4.01435 1.25332 4.32082C0.888721 4.62729 0.59051 5.00495 0.376944 5.43067C0.163378 5.8564 0.0389514 6.32124 0.0112822 6.79672C-0.016387 7.27221 0.0532835 7.74834 0.216028 8.19597C0.378773 8.64359 0.631167 9.05329 0.957757 9.39998C1.28435 9.74667 1.67826 10.023 2.11538 10.2122C2.5525 10.4014 3.02363 10.4993 3.49992 10.5H12.9999C13.761 10.5009 14.494 10.2125 15.0504 9.69312C15.6068 9.17377 15.945 8.46236 15.9965 7.703C16.048 6.94363 15.8089 6.19308 15.3277 5.60338C14.8465 5.01368 14.1592 4.62892 13.4049 4.52704Z" fill="#212529"/>
</g>
<defs>
<clipPath id="clip0_34_3481">
<rect width="16" height="16" fill="white"/>
</clipPath>
</defs>
</svg>
