<svg width="16" height="16" viewBox="0 0 16 16" fill="none" xmlns="http://www.w3.org/2000/svg">
<g clip-path="url(#clip0_34_3543)">
<path d="M13.4049 8.52692C13.1973 7.48008 12.6601 6.52713 11.8721 5.8074C11.0841 5.08767 10.0865 4.63891 9.02517 4.52673C7.96384 4.41455 6.89446 4.64484 5.97338 5.18393C5.05231 5.72302 4.32785 6.54263 3.90592 7.52292C3.43276 7.46841 2.95345 7.51105 2.49734 7.64823C2.04123 7.78541 1.61792 8.01423 1.25332 8.3207C0.888721 8.62717 0.59051 9.00482 0.376944 9.43055C0.163378 9.85628 0.0389514 10.3211 0.0112822 10.7966C-0.016387 11.2721 0.0532835 11.7482 0.216028 12.1958C0.378773 12.6435 0.631167 13.0532 0.957757 13.3999C1.28435 13.7465 1.67826 14.0229 2.11538 14.2121C2.5525 14.4012 3.02363 14.4992 3.49992 14.4999H12.9999C13.761 14.5008 14.494 14.2123 15.0504 13.693C15.6068 13.1736 15.945 12.4622 15.9965 11.7029C16.048 10.9435 15.8089 10.193 15.3277 9.60326C14.8465 9.01356 14.1592 8.6288 13.4049 8.52692ZM8.49992 5.49992C9.48388 5.49972 10.4334 5.86219 11.1669 6.51804C11.9004 7.17388 12.3665 8.07707 12.4759 9.05492C12.4895 9.17778 12.5481 9.29125 12.6405 9.37343C12.7328 9.45561 12.8523 9.50067 12.9759 9.49992H12.9999C13.5304 9.50006 14.039 9.7109 14.414 10.0861C14.789 10.4612 14.9996 10.97 14.9994 11.5004C14.9993 12.0309 14.7884 12.5395 14.4133 12.9145C14.0381 13.2895 13.5294 13.5001 12.9989 13.4999H3.49992C3.146 13.4997 2.79614 13.4244 2.4735 13.2789C2.15086 13.1334 1.86279 12.9211 1.62834 12.656C1.39389 12.3908 1.21841 12.0789 1.11351 11.7409C1.0086 11.4029 0.976666 11.0465 1.01981 10.6952C1.06295 10.3439 1.1802 10.0058 1.36378 9.70317C1.54736 9.40058 1.7931 9.14041 2.08474 8.93989C2.37638 8.73937 2.70727 8.60305 3.05553 8.53996C3.40379 8.47687 3.76147 8.48845 4.10492 8.57392C4.22745 8.60448 4.35701 8.58755 4.46756 8.52652C4.57812 8.46549 4.66149 8.36489 4.70092 8.24492C4.9652 7.4461 5.47454 6.75089 6.15654 6.2581C6.83854 5.76532 7.65852 5.50002 8.49992 5.49992Z" fill="#212529"/>
</g>
<defs>
<clipPath id="clip0_34_3543">
<rect width="16" height="16" fill="white"/>
</clipPath>
</defs>
</svg>
