<svg width="16" height="16" viewBox="0 0 16 16" fill="none" xmlns="http://www.w3.org/2000/svg">
<g clip-path="url(#clip0_34_3535)">
<path d="M6.99983 8C7.46412 7.99994 7.92378 8.09226 8.35205 8.27158C8.78031 8.4509 9.16862 8.71364 9.49435 9.04449C9.82008 9.37535 10.0767 9.7677 10.2494 10.1987C10.422 10.6297 10.5071 11.0908 10.4998 11.555C10.4987 11.6319 10.5152 11.708 10.5482 11.7774C10.5812 11.8468 10.6298 11.9077 10.6902 11.9553C10.7506 12.0029 10.8211 12.0359 10.8963 12.0518C10.9715 12.0677 11.0494 12.0661 11.1238 12.047C11.3456 11.9902 11.5773 11.9848 11.8015 12.0312C12.0256 12.0776 12.2362 12.1746 12.4172 12.3147C12.5981 12.4549 12.7447 12.6345 12.8457 12.8399C12.9466 13.0453 12.9994 13.2711 12.9998 13.5C12.9998 13.8978 12.8418 14.2794 12.5605 14.5607C12.2792 14.842 11.8977 15 11.4998 15H2.99983C2.73393 14.9985 2.471 14.944 2.22642 14.8397C1.98184 14.7353 1.76052 14.5833 1.5754 14.3924C1.39028 14.2015 1.24509 13.9756 1.1483 13.728C1.05152 13.4803 1.0051 13.2158 1.01175 12.95C1.0184 12.6842 1.07798 12.4224 1.18703 12.1799C1.29607 11.9373 1.45238 11.719 1.6468 11.5376C1.84123 11.3562 2.06988 11.2154 2.31937 11.1235C2.56886 11.0315 2.83419 10.9902 3.09983 11.002C3.21505 11.0079 3.32878 10.9738 3.42173 10.9055C3.51468 10.8371 3.58114 10.7388 3.60983 10.627C3.80379 9.87531 4.24203 9.20938 4.85565 8.73387C5.46928 8.25835 6.22352 8.00021 6.99983 8ZM11.4728 11C11.3603 9.98614 10.9067 9.04059 10.1863 8.31837C9.46589 7.59614 8.52149 7.14011 7.50791 7.02504C6.49434 6.90997 5.47174 7.14268 4.60778 7.68503C3.74382 8.22737 3.08975 9.04716 2.75283 10.01C1.98077 10.0732 1.26308 10.4326 0.74999 11.0129C0.236903 11.5933 -0.0318073 12.3496 0.000108274 13.1236C0.0320238 13.8976 0.362091 14.6292 0.921217 15.1654C1.48034 15.7015 2.22519 16.0006 2.99983 16H11.4998C12.1629 16 12.7988 15.7366 13.2676 15.2678C13.7364 14.7989 13.9998 14.163 13.9998 13.5C13.9998 12.837 13.7364 12.2011 13.2676 11.7322C12.7988 11.2634 12.1629 11 11.4998 11H11.4728Z" fill="#212529"/>
<path d="M10.4998 1.5C10.4998 1.36739 10.4471 1.24021 10.3534 1.14645C10.2596 1.05268 10.1324 1 9.99983 1C9.86722 1 9.74004 1.05268 9.64627 1.14645C9.5525 1.24021 9.49983 1.36739 9.49983 1.5V2.5C9.49983 2.63261 9.5525 2.75979 9.64627 2.85355C9.74004 2.94732 9.86722 3 9.99983 3C10.1324 3 10.2596 2.94732 10.3534 2.85355C10.4471 2.75979 10.4998 2.63261 10.4998 2.5V1.5ZM14.2428 3.464C14.2906 3.41788 14.3287 3.3627 14.3549 3.3017C14.3811 3.2407 14.3949 3.17509 14.3955 3.1087C14.396 3.04231 14.3834 2.97647 14.3582 2.91502C14.3331 2.85357 14.296 2.79775 14.249 2.7508C14.2021 2.70386 14.1463 2.66673 14.0848 2.64159C14.0234 2.61645 13.9575 2.6038 13.8911 2.60437C13.8247 2.60495 13.7591 2.61874 13.6981 2.64495C13.6371 2.67115 13.582 2.70924 13.5358 2.757L12.8278 3.464C12.7339 3.55789 12.6812 3.68522 12.6812 3.818C12.6812 3.95078 12.7339 4.07811 12.8278 4.172C12.9217 4.26589 13.0491 4.31863 13.1818 4.31863C13.3146 4.31863 13.4419 4.26589 13.5358 4.172L14.2428 3.464ZM6.46383 2.757C6.36953 2.66592 6.24322 2.61552 6.11213 2.61666C5.98103 2.6178 5.85562 2.67039 5.76292 2.76309C5.67021 2.85579 5.61763 2.9812 5.61649 3.1123C5.61535 3.2434 5.66575 3.3697 5.75683 3.464L6.46383 4.172C6.51031 4.21849 6.5655 4.25536 6.62624 4.28052C6.68698 4.30568 6.75208 4.31863 6.81783 4.31863C6.88357 4.31863 6.94867 4.30568 7.00941 4.28052C7.07015 4.25536 7.12534 4.21849 7.17183 4.172C7.21831 4.12551 7.25519 4.07032 7.28035 4.00958C7.30551 3.94884 7.31846 3.88374 7.31846 3.818C7.31846 3.75226 7.30551 3.68716 7.28035 3.62642C7.25519 3.56568 7.21831 3.51049 7.17183 3.464L6.46383 2.757ZM8.19783 6.131C8.32211 5.87344 8.50019 5.64553 8.72005 5.46264C8.9399 5.27975 9.19642 5.14614 9.4723 5.07082C9.74818 4.99549 10.037 4.98021 10.3193 5.026C10.6016 5.07179 10.8708 5.17758 11.1087 5.33625C11.3466 5.49492 11.5478 5.70276 11.6985 5.94577C11.8493 6.18878 11.9462 6.46129 11.9827 6.74493C12.0192 7.02858 11.9945 7.31675 11.9101 7.59001C11.8258 7.86327 11.6838 8.11527 11.4938 8.329C11.6928 8.61 11.8658 8.911 12.0098 9.227C12.3487 8.9208 12.6132 8.54126 12.7832 8.11732C12.9531 7.69338 13.024 7.23623 12.9905 6.78073C12.957 6.32523 12.8199 5.88339 12.5896 5.48892C12.3594 5.09444 12.0422 4.75774 11.6621 4.50448C11.282 4.25122 10.8491 4.08809 10.3964 4.02752C9.94371 3.96695 9.48316 4.01055 9.04986 4.15499C8.61656 4.29944 8.22197 4.5409 7.89616 4.86099C7.57035 5.18108 7.32192 5.57133 7.16983 6.002C7.52183 6.013 7.86583 6.057 8.19783 6.131ZM12.6818 10.205C13.2818 10.42 13.8068 10.795 14.2038 11.277C14.2583 11.2329 14.3028 11.1779 14.3346 11.1155C14.3665 11.053 14.3848 10.9846 14.3885 10.9147C14.3921 10.8447 14.3811 10.7748 14.356 10.7094C14.3309 10.644 14.2923 10.5846 14.2428 10.535L13.5358 9.828C13.4645 9.7563 13.3732 9.70789 13.2738 9.68916C13.1745 9.67043 13.0718 9.68226 12.9793 9.72309C12.8868 9.76392 12.8089 9.83184 12.7558 9.91787C12.7027 10.0039 12.6769 10.104 12.6818 10.205ZM14.4998 6.5C14.3672 6.5 14.24 6.55268 14.1463 6.64645C14.0525 6.74021 13.9998 6.86739 13.9998 7C13.9998 7.13261 14.0525 7.25979 14.1463 7.35355C14.24 7.44732 14.3672 7.5 14.4998 7.5H15.4998C15.6324 7.5 15.7596 7.44732 15.8534 7.35355C15.9471 7.25979 15.9998 7.13261 15.9998 7C15.9998 6.86739 15.9471 6.74021 15.8534 6.64645C15.7596 6.55268 15.6324 6.5 15.4998 6.5H14.4998Z" fill="#212529"/>
</g>
<defs>
<clipPath id="clip0_34_3535">
<rect width="16" height="16" fill="white"/>
</clipPath>
</defs>
</svg>
