<svg width="16" height="16" viewBox="0 0 16 16" fill="none" xmlns="http://www.w3.org/2000/svg">
<g clip-path="url(#clip0_34_3517)">
<path d="M4.17592 11.0319C4.2998 11.0786 4.40011 11.1725 4.45485 11.2931C4.50959 11.4136 4.51429 11.5509 4.46792 11.6749L2.96792 15.6749C2.9181 15.7943 2.82395 15.8897 2.70525 15.9412C2.58655 15.9926 2.45253 15.996 2.33136 15.9507C2.21019 15.9054 2.1113 15.8149 2.05546 15.6982C1.99962 15.5815 1.99119 15.4477 2.03192 15.3249L3.53192 11.3249C3.55494 11.2634 3.58986 11.207 3.63469 11.1589C3.67952 11.1109 3.73338 11.0721 3.79319 11.0449C3.853 11.0177 3.91759 11.0026 3.98326 11.0003C4.04893 10.9981 4.1144 11.0088 4.17592 11.0319ZM7.17592 11.0319C7.2998 11.0786 7.40011 11.1725 7.45485 11.2931C7.50959 11.4136 7.51429 11.5509 7.46792 11.6749L5.96792 15.6749C5.91811 15.7943 5.82395 15.8897 5.70525 15.9412C5.58655 15.9926 5.45253 15.996 5.33136 15.9507C5.21019 15.9054 5.1113 15.8149 5.05546 15.6982C4.99962 15.5815 4.99119 15.4477 5.03192 15.3249L6.53192 11.3249C6.55494 11.2634 6.58986 11.207 6.63469 11.1589C6.67952 11.1109 6.73338 11.0721 6.79319 11.0449C6.853 11.0177 6.91759 11.0026 6.98326 11.0003C7.04893 10.9981 7.1144 11.0088 7.17592 11.0319ZM10.1759 11.0319C10.2998 11.0786 10.4001 11.1725 10.4549 11.2931C10.5096 11.4136 10.5143 11.5509 10.4679 11.6749L8.96792 15.6749C8.91811 15.7943 8.82395 15.8897 8.70525 15.9412C8.58655 15.9926 8.45253 15.996 8.33136 15.9507C8.21019 15.9054 8.1113 15.8149 8.05546 15.6982C7.99962 15.5815 7.99119 15.4477 8.03192 15.3249L9.53192 11.3249C9.55494 11.2634 9.58986 11.207 9.63469 11.1589C9.67952 11.1109 9.73338 11.0721 9.79319 11.0449C9.853 11.0177 9.91759 11.0026 9.98326 11.0003C10.0489 10.9981 10.1144 11.0088 10.1759 11.0319ZM13.1759 11.0319C13.2998 11.0786 13.4001 11.1725 13.4549 11.2931C13.5096 11.4136 13.5143 11.5509 13.4679 11.6749L11.9679 15.6749C11.9181 15.7943 11.824 15.8897 11.7053 15.9412C11.5865 15.9926 11.4525 15.996 11.3314 15.9507C11.2102 15.9054 11.1113 15.8149 11.0555 15.6982C10.9996 15.5815 10.9912 15.4477 11.0319 15.3249L12.5319 11.3249C12.5549 11.2634 12.5899 11.207 12.6347 11.1589C12.6795 11.1109 12.7334 11.0721 12.7932 11.0449C12.853 11.0177 12.9176 11.0026 12.9833 11.0003C13.0489 10.9981 13.1144 11.0088 13.1759 11.0319ZM13.4049 4.02692C13.1973 2.98008 12.6601 2.02713 11.8721 1.3074C11.0841 0.58767 10.0865 0.138909 9.02517 0.0267313C7.96384 -0.0854458 6.89446 0.144845 5.97338 0.683932C5.05231 1.22302 4.32785 2.04263 3.90592 3.02292C3.43276 2.96841 2.95345 3.01105 2.49734 3.14823C2.04123 3.28541 1.61792 3.51423 1.25332 3.8207C0.888721 4.12717 0.59051 4.50482 0.376944 4.93055C0.163378 5.35628 0.0389514 5.82111 0.0112822 6.2966C-0.016387 6.77209 0.0532835 7.24822 0.216028 7.69585C0.378773 8.14347 0.631167 8.55317 0.957757 8.89986C1.28435 9.24654 1.67826 9.52293 2.11538 9.71208C2.5525 9.90124 3.02363 9.99918 3.49992 9.99992H12.9999C13.761 10.0008 14.494 9.71234 15.0504 9.19299C15.6068 8.67365 15.945 7.96224 15.9965 7.20287C16.048 6.44351 15.8089 5.69296 15.3277 5.10326C14.8465 4.51356 14.1592 4.1288 13.4049 4.02692Z" fill="#212529"/>
</g>
<defs>
<clipPath id="clip0_34_3517">
<rect width="16" height="16" fill="white"/>
</clipPath>
</defs>
</svg>
