<svg width="16" height="16" viewBox="0 0 16 16" fill="none" xmlns="http://www.w3.org/2000/svg">
<path d="M7.03 1.88006C7.282 0.870059 8.718 0.870059 8.97 1.88006L11.875 13.5001H14C14.1326 13.5001 14.2598 13.5527 14.3536 13.6465C14.4473 13.7403 14.5 13.8674 14.5 14.0001C14.5 14.1327 14.4473 14.2598 14.3536 14.3536C14.2598 14.4474 14.1326 14.5001 14 14.5001H2C1.86739 14.5001 1.74021 14.4474 1.64645 14.3536C1.55268 14.2598 1.5 14.1327 1.5 14.0001C1.5 13.8674 1.55268 13.7403 1.64645 13.6465C1.74021 13.5527 1.86739 13.5001 2 13.5001H4.125L7.03 1.88006Z" fill="#212529"/>
</svg>
