<svg width="16" height="16" viewBox="0 0 16 16" fill="none" xmlns="http://www.w3.org/2000/svg">
<path d="M11.5001 6.02702C11.5001 6.15963 11.4474 6.2868 11.3536 6.38057C11.2599 6.47434 11.1327 6.52702 11.0001 6.52702C10.8675 6.52702 10.7403 6.47434 10.6465 6.38057C10.5528 6.2868 10.5001 6.15963 10.5001 6.02702C10.5001 5.89441 10.5528 5.76723 10.6465 5.67347C10.7403 5.5797 10.8675 5.52702 11.0001 5.52702C11.1327 5.52702 11.2599 5.5797 11.3536 5.67347C11.4474 5.76723 11.5001 5.89441 11.5001 6.02702ZM10.0001 7.52702C10.1327 7.52702 10.2599 7.47434 10.3536 7.38057C10.4474 7.2868 10.5001 7.15963 10.5001 7.02702C10.5001 6.89441 10.4474 6.76723 10.3536 6.67346C10.2599 6.5797 10.1327 6.52702 10.0001 6.52702C9.86749 6.52702 9.74031 6.5797 9.64654 6.67346C9.55277 6.76723 9.50009 6.89441 9.50009 7.02702C9.50009 7.15963 9.55277 7.2868 9.64654 7.38057C9.74031 7.47434 9.86749 7.52702 10.0001 7.52702ZM12.5001 7.02702C12.5001 7.15963 12.4474 7.2868 12.3536 7.38057C12.2599 7.47434 12.1327 7.52702 12.0001 7.52702C11.8675 7.52702 11.7403 7.47434 11.6465 7.38057C11.5528 7.2868 11.5001 7.15963 11.5001 7.02702C11.5001 6.89441 11.5528 6.76723 11.6465 6.67346C11.7403 6.5797 11.8675 6.52702 12.0001 6.52702C12.1327 6.52702 12.2599 6.5797 12.3536 6.67346C12.4474 6.76723 12.5001 6.89441 12.5001 7.02702ZM11.0001 8.52702C11.1327 8.52702 11.2599 8.47434 11.3536 8.38057C11.4474 8.2868 11.5001 8.15963 11.5001 8.02702C11.5001 7.89441 11.4474 7.76723 11.3536 7.67346C11.2599 7.5797 11.1327 7.52702 11.0001 7.52702C10.8675 7.52702 10.7403 7.5797 10.6465 7.67346C10.5528 7.76723 10.5001 7.89441 10.5001 8.02702C10.5001 8.15963 10.5528 8.2868 10.6465 8.38057C10.7403 8.47434 10.8675 8.52702 11.0001 8.52702ZM4.50009 5.52702H5.50009V6.52702H6.50009V7.52702H5.50009V8.52702H4.50009V7.52702H3.50009V6.52702H4.50009V5.52702Z" fill="#212529"/>
<path d="M3.05109 3.26002C3.03401 3.19652 3.02962 3.13028 3.03818 3.06509C3.04673 2.9999 3.06806 2.93703 3.10094 2.88009C3.13382 2.82315 3.17761 2.77326 3.2298 2.73326C3.282 2.69327 3.34156 2.66396 3.40509 2.64702L5.33709 2.12902C5.40351 2.11132 5.47287 2.1075 5.54083 2.11781C5.60878 2.12812 5.67389 2.15233 5.73207 2.18893C5.79025 2.22553 5.84027 2.27373 5.87898 2.33052C5.9177 2.38732 5.94429 2.45149 5.95709 2.51902C6.61209 2.44002 7.30709 2.40202 8.00009 2.40202C8.72009 2.40202 9.44309 2.44302 10.1201 2.52802C10.1318 2.45946 10.1576 2.3941 10.196 2.3361C10.2344 2.27811 10.2845 2.22876 10.343 2.19121C10.4016 2.15366 10.4673 2.12873 10.536 2.11802C10.6047 2.10731 10.6749 2.11106 10.7421 2.12902L12.6741 2.64702C12.7478 2.66675 12.816 2.7031 12.8735 2.75328C12.931 2.80345 12.9763 2.86612 13.0058 2.93649C13.0354 3.00686 13.0484 3.08306 13.0439 3.15924C13.0395 3.23543 13.0176 3.30958 12.9801 3.37602C13.1201 3.46602 13.2461 3.56602 13.3531 3.67302C13.7611 4.08102 14.1331 4.72302 14.4481 5.44502C14.7681 6.17802 15.0471 7.03602 15.2531 7.91102C15.4591 8.78602 15.5931 9.69102 15.6171 10.517C15.6411 11.333 15.5581 12.119 15.2891 12.727C15.1664 13 14.9606 13.2272 14.7011 13.3763C14.4416 13.5253 14.1417 13.5886 13.8441 13.557C13.2081 13.49 12.7291 13.163 12.3311 12.784C12.0861 12.552 11.8351 12.258 11.5921 11.976C11.4661 11.828 11.3421 11.684 11.2241 11.553C10.4961 10.749 9.62709 10.026 8.00009 10.026C6.37309 10.026 5.50409 10.749 4.77609 11.553C4.65709 11.684 4.53409 11.828 4.40809 11.976C4.16509 12.258 3.91409 12.551 3.66909 12.784C3.27109 13.164 2.79209 13.49 2.15609 13.557C1.8585 13.5886 1.55854 13.5253 1.29904 13.3763C1.03954 13.2272 0.833766 13 0.711094 12.727C0.441094 12.119 0.359094 11.332 0.382094 10.517C0.406094 9.69102 0.542094 8.78702 0.747094 7.91102C0.953094 7.03602 1.23309 6.17802 1.55209 5.44502C1.86709 4.72302 2.23909 4.08102 2.64609 3.67302C2.77682 3.54479 2.92215 3.43236 3.07909 3.33802C3.06758 3.31251 3.05822 3.28708 3.05109 3.26002ZM5.08709 3.67202C4.21009 3.85702 3.61809 4.11502 3.35409 4.38002C3.07809 4.65602 2.76709 5.16302 2.46909 5.84502C2.15296 6.58661 1.90266 7.35457 1.72109 8.14002C1.52929 8.92893 1.41574 9.73483 1.38209 10.546C1.36009 11.301 1.44409 11.914 1.62509 12.322C1.66216 12.4015 1.72317 12.4674 1.79957 12.5104C1.87597 12.5534 1.96392 12.5715 2.05109 12.562C2.37809 12.528 2.66109 12.363 2.98009 12.06C3.19209 11.858 3.38009 11.637 3.59509 11.386C3.72809 11.23 3.87109 11.063 4.03509 10.882C4.86109 9.96902 5.97809 9.02702 8.00009 9.02702C10.0221 9.02702 11.1391 9.96902 11.9651 10.882C12.1291 11.063 12.2721 11.23 12.4051 11.386C12.6191 11.637 12.8081 11.858 13.0201 12.06C13.3381 12.363 13.6211 12.528 13.9491 12.563C14.0364 12.5724 14.1244 12.5542 14.2008 12.511C14.2772 12.4678 14.3382 12.4017 14.3751 12.322C14.5551 11.914 14.6401 11.302 14.6181 10.546C14.5844 9.73483 14.4709 8.92893 14.2791 8.14002C14.0975 7.35457 13.8472 6.58662 13.5311 5.84502C13.2331 5.16302 12.9211 4.65502 12.6461 4.38002C12.3821 4.11502 11.7901 3.85702 10.9131 3.67202C10.0631 3.49302 9.03609 3.40202 8.00009 3.40202C6.96409 3.40202 5.93709 3.49302 5.08709 3.67202Z" fill="#212529"/>
</svg>
