<svg width="16" height="16" viewBox="0 0 16 16" fill="none" xmlns="http://www.w3.org/2000/svg">
<path d="M4 9.4201H5.063C5.4 12.3231 7.317 14.0001 10.34 14.0001C10.962 14.0001 11.507 13.9321 11.999 13.8151V12.5151C11.515 12.6341 10.954 12.6851 10.34 12.6851C8.24 12.6851 6.885 11.4871 6.565 9.4211H10.582V8.4931H6.497V7.5571C6.497 7.4471 6.497 7.3381 6.505 7.2281H10.583V6.3011H6.618C7.006 4.4031 8.337 3.3161 10.341 3.3161C10.955 3.3161 11.516 3.3661 12 3.4931V2.1941C11.4574 2.05961 10.9 1.99443 10.341 2.0001C7.413 2.0001 5.521 3.5691 5.097 6.3001H4V7.2281H5.01V8.4931H4V9.4211V9.4201Z" fill="#212529"/>
</svg>
