<svg width="16" height="16" viewBox="0 0 16 16" fill="none" xmlns="http://www.w3.org/2000/svg">
<path fill-rule="evenodd" clip-rule="evenodd" d="M10.4949 8.66048C10.0932 9.26568 9.48567 9.70466 8.78497 9.896L8.78397 9.897L9.40397 8.937C9.54697 8.712 9.28797 8.453 9.06397 8.597C8.50497 8.955 7.77597 9.425 7.10897 9.865C6.4235 9.6521 5.83707 9.2005 5.45614 8.59215C5.07521 7.98381 4.92501 7.25904 5.03282 6.54942C5.14062 5.83979 5.49928 5.19233 6.0437 4.72456C6.58811 4.25679 7.2822 3.99972 7.99997 4C8.72633 4.00134 9.42755 4.26608 9.97356 4.7451C10.5196 5.22413 10.8733 5.88493 10.9692 6.60493C11.065 7.32494 10.8965 8.05528 10.4949 8.66048ZM8.70708 7.70711C8.89461 7.51957 8.99997 7.26522 8.99997 7C8.99997 6.73478 8.89461 6.48043 8.70708 6.29289C8.51954 6.10536 8.26519 6 7.99997 6C7.73475 6 7.4804 6.10536 7.29286 6.29289C7.10533 6.48043 6.99997 6.73478 6.99997 7C6.99997 7.26522 7.10533 7.51957 7.29286 7.70711C7.4804 7.89464 7.73475 8 7.99997 8C8.26519 8 8.51954 7.89464 8.70708 7.70711Z" fill="#212529"/>
<path fill-rule="evenodd" clip-rule="evenodd" d="M2.58579 0.585786C2.96086 0.210714 3.46957 0 4 0H12C12.5304 0 13.0391 0.210714 13.4142 0.585786C13.7893 0.960859 14 1.46957 14 2V14C14 14.5304 13.7893 15.0391 13.4142 15.4142C13.0391 15.7893 12.5304 16 12 16H4C3.46957 16 2.96086 15.7893 2.58579 15.4142C2.21071 15.0391 2 14.5304 2 14V2C2 1.46957 2.21071 0.960859 2.58579 0.585786ZM12.8536 1.85355C12.9473 1.75979 13 1.63261 13 1.5C13 1.36739 12.9473 1.24021 12.8536 1.14645C12.7598 1.05268 12.6326 1 12.5 1C12.3674 1 12.2402 1.05268 12.1464 1.14645C12.0527 1.24021 12 1.36739 12 1.5C12 1.63261 12.0527 1.75979 12.1464 1.85355C12.2402 1.94732 12.3674 2 12.5 2C12.6326 2 12.7598 1.94732 12.8536 1.85355ZM12.8536 14.8536C12.9473 14.7598 13 14.6326 13 14.5C13 14.3674 12.9473 14.2402 12.8536 14.1464C12.7598 14.0527 12.6326 14 12.5 14C12.3674 14 12.2402 14.0527 12.1464 14.1464C12.0527 14.2402 12 14.3674 12 14.5C12 14.6326 12.0527 14.7598 12.1464 14.8536C12.2402 14.9473 12.3674 15 12.5 15C12.6326 15 12.7598 14.9473 12.8536 14.8536ZM3.14645 14.8536C3.24021 14.9473 3.36739 15 3.5 15C3.63261 15 3.75979 14.9473 3.85355 14.8536C3.94732 14.7598 4 14.6326 4 14.5C4 14.3674 3.94732 14.2402 3.85355 14.1464C3.75979 14.0527 3.63261 14 3.5 14C3.36739 14 3.24021 14.0527 3.14645 14.1464C3.05268 14.2402 3 14.3674 3 14.5C3 14.6326 3.05268 14.7598 3.14645 14.8536ZM3.85355 1.85355C3.94732 1.75979 4 1.63261 4 1.5C4 1.36739 3.94732 1.24021 3.85355 1.14645C3.75979 1.05268 3.63261 1 3.5 1C3.36739 1 3.24021 1.05268 3.14645 1.14645C3.05268 1.24021 3 1.36739 3 1.5C3 1.63261 3.05268 1.75979 3.14645 1.85355C3.24021 1.94732 3.36739 2 3.5 2C3.63261 2 3.75979 1.94732 3.85355 1.85355ZM6.10235 13.0002C6.39482 13.0001 6.67526 12.8839 6.882 12.677C7.043 12.515 7.526 11.813 8.063 11C9.03636 10.9845 9.97066 10.6145 10.6908 9.95946C11.4109 9.30441 11.8674 8.40922 11.9748 7.44168C12.0822 6.47413 11.833 5.50063 11.274 4.70364C10.715 3.90664 9.88457 3.34085 8.93829 3.11231C7.99201 2.88376 6.99486 3.00814 6.13373 3.46215C5.27259 3.91615 4.60657 4.66861 4.2605 5.57851C3.91442 6.4884 3.91205 7.49328 4.25381 8.4048C4.59558 9.31632 5.25802 10.0719 6.117 10.53C5.718 10.804 5.422 11.02 5.322 11.118C5.21963 11.2204 5.13845 11.342 5.08307 11.4758C5.0277 11.6096 4.99922 11.753 4.99927 11.8979C4.99936 12.1903 5.11563 12.4708 5.3225 12.6775C5.52937 12.8842 5.80989 13.0003 6.10235 13.0002Z" fill="#212529"/>
</svg>
