<svg width="16" height="16" viewBox="0 0 16 16" fill="none" xmlns="http://www.w3.org/2000/svg">
<g clip-path="url(#clip0_34_3653)">
<path d="M6.95014 0.435C7.53014 -0.145 8.47014 -0.145 9.05014 0.435L15.5651 6.951C16.1451 7.531 16.1451 8.47 15.5651 9.049L9.05014 15.565C8.47014 16.145 7.53114 16.145 6.95214 15.565L0.435137 9.05C0.2972 8.91234 0.187766 8.74884 0.1131 8.56883C0.0384333 8.38883 0 8.19587 0 8.001C0 7.80613 0.0384333 7.61317 0.1131 7.43317C0.187766 7.25316 0.2972 7.08966 0.435137 6.952L6.95014 0.435ZM8.35014 1.135C8.25731 1.04218 8.13141 0.990036 8.00014 0.990036C7.86886 0.990036 7.74297 1.04218 7.65014 1.135L1.13414 7.65C1.04132 7.74283 0.989172 7.86873 0.989172 8C0.989172 8.13127 1.04132 8.25717 1.13414 8.35L7.65014 14.866C7.74297 14.9588 7.86886 15.011 8.00014 15.011C8.13141 15.011 8.25731 14.9588 8.35014 14.866L14.8661 8.35C14.959 8.25717 15.0111 8.13127 15.0111 8C15.0111 7.86873 14.959 7.74283 14.8661 7.65L8.35014 1.134V1.135Z" fill="#212529"/>
</g>
<defs>
<clipPath id="clip0_34_3653">
<rect width="16" height="16" fill="white"/>
</clipPath>
</defs>
</svg>
