<svg width="16" height="16" viewBox="0 0 16 16" fill="none" xmlns="http://www.w3.org/2000/svg">
<g clip-path="url(#clip0_34_3775)">
<path fill-rule="evenodd" clip-rule="evenodd" d="M16 8.00009C16 6.17011 15.3725 4.39545 14.2224 2.9721C13.0722 1.54875 11.4688 0.562753 9.67958 0.178553C7.89039 -0.205648 6.02355 0.0351768 4.39043 0.860861C2.7573 1.68654 1.45663 3.04717 0.705317 4.71582C-0.0459914 6.38446 -0.202509 8.26025 0.261867 10.0303C0.726244 11.8004 1.78344 13.3578 3.25714 14.4427C4.73084 15.5276 6.53195 16.0745 8.36008 15.9921C10.1882 15.9098 11.9328 15.2031 13.303 13.9901C12.331 13.3251 11.671 12.6341 11.313 11.9281C10.925 11.1621 10.894 10.3671 11.238 9.6981C11.734 8.7281 12.968 8.23209 14 8.6481C14.65 8.3861 15.38 8.4861 15.957 8.8381C15.985 8.5631 16 8.28309 16 8.00009ZM7.00001 6.50009C7.00001 7.32809 6.55201 8.00009 6.00001 8.00009C5.44801 8.00009 5.00001 7.32809 5.00001 6.50009C5.00001 5.67209 5.44801 5.00009 6.00001 5.00009C6.55201 5.00009 7.00001 5.67209 7.00001 6.50009ZM8.512 10.1471C8.165 10.2271 7.77501 10.3451 7.40501 10.4661C7.34191 10.4893 7.27478 10.4996 7.20763 10.4963C7.14047 10.493 7.07467 10.4762 7.01417 10.4468C6.95366 10.4175 6.89969 10.3763 6.85549 10.3256C6.81128 10.275 6.77774 10.2159 6.75689 10.152C6.73603 10.0881 6.72828 10.0206 6.7341 9.95364C6.73991 9.88665 6.75918 9.82153 6.79075 9.76216C6.82231 9.7028 6.86552 9.65041 6.9178 9.60813C6.97008 9.56585 7.03035 9.53455 7.09501 9.5161C7.47501 9.3911 7.897 9.2621 8.287 9.1731C8.657 9.0871 9.06701 9.02009 9.39001 9.06509C9.55 9.0871 9.78401 9.15009 9.951 9.3511C10.139 9.5771 10.138 9.84809 10.082 10.0561C10.0147 10.2706 9.90971 10.4714 9.77201 10.6491C9.69501 10.7561 9.604 10.8691 9.497 10.9921C9.604 11.1161 9.696 11.2321 9.773 11.3391C9.915 11.5361 10.029 11.7361 10.083 11.9341C10.138 12.1421 10.139 12.4131 9.951 12.6401C9.783 12.8401 9.547 12.9021 9.388 12.9241C9.065 12.9671 8.65501 12.8971 8.28601 12.8111C7.88438 12.7127 7.48704 12.5976 7.09501 12.4661C7.03035 12.4476 6.97008 12.4163 6.9178 12.3741C6.86552 12.3318 6.82231 12.2794 6.79075 12.22C6.75918 12.1607 6.73991 12.0955 6.7341 12.0286C6.72828 11.9616 6.73603 11.8941 6.75689 11.8302C6.77774 11.7663 6.81128 11.7072 6.85549 11.6565C6.89969 11.6059 6.95366 11.5647 7.01417 11.5353C7.07467 11.506 7.14047 11.4892 7.20763 11.4859C7.27478 11.4826 7.34191 11.4929 7.40501 11.5161C7.77601 11.6361 8.16601 11.7561 8.514 11.8371C8.69 11.8781 8.839 11.9061 8.96 11.9211C8.80625 11.7152 8.63852 11.52 8.458 11.3371C8.36815 11.2436 8.31814 11.1189 8.31851 10.9892C8.31888 10.8595 8.36962 10.7351 8.46 10.6421C8.63979 10.4615 8.80686 10.2687 8.96 10.0651C8.80937 10.0848 8.65985 10.1122 8.512 10.1471ZM9.278 10.0611L9.27201 10.0591C9.276 10.0591 9.278 10.0611 9.278 10.0611ZM9.28 11.9281H9.27901L9.274 11.9291C9.27595 11.9283 9.27795 11.9276 9.28 11.9271V11.9281ZM9.43701 7.24309C9.40509 7.30048 9.36219 7.35102 9.31075 7.39183C9.25931 7.43264 9.20033 7.46291 9.13718 7.48093C9.07404 7.49894 9.00797 7.50434 8.94273 7.49682C8.8775 7.4893 8.81439 7.46901 8.757 7.43709C8.69962 7.40518 8.64908 7.36228 8.60827 7.31084C8.56746 7.25939 8.53719 7.20042 8.51917 7.13727C8.50116 7.07413 8.49576 7.00806 8.50328 6.94282C8.5108 6.87759 8.53109 6.81448 8.563 6.75709C8.72861 6.45385 8.97243 6.20051 9.26911 6.02342C9.56579 5.84633 9.90449 5.75195 10.25 5.75009C10.98 5.75009 11.606 6.1621 11.937 6.75709C11.9689 6.81448 11.9892 6.87759 11.9967 6.94282C12.0043 7.00806 11.9989 7.07413 11.9808 7.13727C11.9628 7.20042 11.9325 7.25939 11.8917 7.31084C11.8509 7.36228 11.8004 7.40518 11.743 7.43709C11.6856 7.46901 11.6225 7.4893 11.5573 7.49682C11.492 7.50434 11.426 7.49894 11.3628 7.48093C11.2997 7.46291 11.2407 7.43264 11.1893 7.39183C11.1378 7.35102 11.0949 7.30048 11.063 7.24309C10.984 7.09566 10.8669 6.97212 10.7239 6.8854C10.5809 6.79868 10.4172 6.75195 10.25 6.75009C10.0828 6.75195 9.91909 6.79868 9.77608 6.8854C9.63307 6.97212 9.51596 7.09566 9.43701 7.24309ZM14 9.8281C15.11 8.6881 17.884 10.6841 14 13.2501C10.116 10.6841 12.89 8.6881 14 9.8291V9.8281Z" fill="black"/>
</g>
<defs>
<clipPath id="clip0_34_3775">
<rect width="16" height="16" fill="white"/>
</clipPath>
</defs>
</svg>
