<svg width="16" height="16" viewBox="0 0 16 16" fill="none" xmlns="http://www.w3.org/2000/svg">
<g clip-path="url(#clip0_34_3753)">
<path d="M8 15C6.14348 15 4.36301 14.2625 3.05025 12.9497C1.7375 11.637 1 9.85652 1 8C1 6.14348 1.7375 4.36301 3.05025 3.05025C4.36301 1.7375 6.14348 1 8 1C9.85652 1 11.637 1.7375 12.9497 3.05025C14.2625 4.36301 15 6.14348 15 8C15 9.85652 14.2625 11.637 12.9497 12.9497C11.637 14.2625 9.85652 15 8 15ZM8 16C10.1217 16 12.1566 15.1571 13.6569 13.6569C15.1571 12.1566 16 10.1217 16 8C16 5.87827 15.1571 3.84344 13.6569 2.34315C12.1566 0.842855 10.1217 0 8 0C5.87827 0 3.84344 0.842855 2.34315 2.34315C0.842855 3.84344 0 5.87827 0 8C0 10.1217 0.842855 12.1566 2.34315 13.6569C3.84344 15.1571 5.87827 16 8 16Z" fill="#212529"/>
<path d="M4.285 12.433C4.39984 12.4993 4.53631 12.5173 4.6644 12.4829C4.79249 12.4486 4.90169 12.3648 4.968 12.25C5.27511 11.7177 5.71705 11.2756 6.24933 10.9684C6.7816 10.6612 7.38543 10.4996 8 10.5C9.295 10.5 10.426 11.203 11.032 12.25C11.0988 12.3639 11.2079 12.4468 11.3355 12.4805C11.4632 12.5143 11.599 12.4962 11.7133 12.4301C11.8277 12.3641 11.9113 12.2556 11.9459 12.1281C11.9805 12.0007 11.9633 11.8648 11.898 11.75C11.5031 11.0656 10.9349 10.4974 10.2507 10.1024C9.56637 9.70741 8.79011 9.49964 8 9.5C7.20993 9.49984 6.43375 9.7077 5.7495 10.1027C5.06524 10.4976 4.49703 11.0658 4.102 11.75C4.0357 11.8648 4.01773 12.0013 4.05205 12.1294C4.08637 12.2575 4.17016 12.3667 4.285 12.433ZM11.276 4.053C11.3348 4.02298 11.3989 4.00489 11.4647 3.99977C11.5305 3.99465 11.5966 4.00261 11.6593 4.02317C11.722 4.04374 11.78 4.07652 11.83 4.11961C11.88 4.1627 11.9209 4.21526 11.9505 4.27426C11.98 4.33325 11.9976 4.39751 12.0022 4.46334C12.0069 4.52917 11.9984 4.59525 11.9773 4.65779C11.9563 4.72033 11.9231 4.77808 11.8796 4.82772C11.8361 4.87736 11.7832 4.91789 11.724 4.947L10.715 5.451C10.891 5.721 11 6.091 11 6.5C11 7.328 10.552 8 10 8C9.448 8 9 7.328 9 6.5C9 6.253 9.04 6.02 9.11 5.814C9.06349 5.75568 9.03056 5.68772 9.01361 5.61507C8.99666 5.54242 8.99611 5.46691 9.01201 5.39402C9.02791 5.32113 9.05985 5.25271 9.10552 5.19372C9.15119 5.13473 9.20942 5.08666 9.276 5.053L11.276 4.053ZM4.724 4.053C4.60559 3.99481 4.46898 3.98577 4.34394 4.02787C4.21889 4.06996 4.11556 4.15977 4.05645 4.27773C3.99734 4.39568 3.98725 4.53222 4.02837 4.65759C4.0695 4.78295 4.15851 4.88698 4.276 4.947L5.285 5.451C5.09198 5.76636 4.99309 6.13032 5 6.5C5 7.328 5.448 8 6 8C6.552 8 7 7.328 7 6.5C7 6.253 6.96 6.02 6.89 5.814C6.93651 5.75568 6.96944 5.68772 6.98639 5.61507C7.00334 5.54242 7.00389 5.46691 6.98799 5.39402C6.97209 5.32113 6.94014 5.25271 6.89448 5.19372C6.84881 5.13473 6.79058 5.08666 6.724 5.053L4.724 4.053Z" fill="#212529"/>
</g>
<defs>
<clipPath id="clip0_34_3753">
<rect width="16" height="16" fill="white"/>
</clipPath>
</defs>
</svg>
