<svg width="16" height="16" viewBox="0 0 16 16" fill="none" xmlns="http://www.w3.org/2000/svg">
<g clip-path="url(#clip0_34_3777)">
<path d="M8 15C6.14348 15 4.36301 14.2625 3.05025 12.9497C1.7375 11.637 1 9.85652 1 8C1 6.14348 1.7375 4.36301 3.05025 3.05025C4.36301 1.7375 6.14348 1 8 1C9.85652 1 11.637 1.7375 12.9497 3.05025C14.2625 4.36301 15 6.14348 15 8C15 9.85652 14.2625 11.637 12.9497 12.9497C11.637 14.2625 9.85652 15 8 15ZM8 16C10.1217 16 12.1566 15.1571 13.6569 13.6569C15.1571 12.1566 16 10.1217 16 8C16 5.87827 15.1571 3.84344 13.6569 2.34315C12.1566 0.842855 10.1217 0 8 0C5.87827 0 3.84344 0.842855 2.34315 2.34315C0.842855 3.84344 0 5.87827 0 8C0 10.1217 0.842855 12.1566 2.34315 13.6569C3.84344 15.1571 5.87827 16 8 16Z" fill="#212529"/>
<path d="M12.331 9.5C12.4188 9.65202 12.465 9.82446 12.465 10C12.465 10.1755 12.4188 10.348 12.331 10.5C11.8922 11.2604 11.2609 11.8917 10.5006 12.3306C9.74035 12.7695 8.87787 13.0004 8 13C7.1223 13.0002 6.26002 12.7692 5.49992 12.3304C4.73981 11.8915 4.10868 11.2602 3.67 10.5C3.58228 10.3481 3.53607 10.1757 3.53603 10.0003C3.53598 9.82481 3.5821 9.65243 3.66974 9.50044C3.75739 9.34845 3.88348 9.2222 4.03536 9.13436C4.18724 9.04652 4.35955 9.00018 4.535 9H11.465C11.6405 9 11.813 9.04621 11.965 9.13398C12.117 9.22175 12.2432 9.34798 12.331 9.5ZM7 6.5C7 7.328 6.552 6.5 6 6.5C5.448 6.5 5 7.328 5 6.5C5 5.672 5.448 5 6 5C6.552 5 7 5.672 7 6.5ZM11 6.5C11 7.328 10.552 6.5 10 6.5C9.448 6.5 9 7.328 9 6.5C9 5.672 9.448 5 10 5C10.552 5 11 5.672 11 6.5Z" fill="#212529"/>
</g>
<defs>
<clipPath id="clip0_34_3777">
<rect width="16" height="16" fill="white"/>
</clipPath>
</defs>
</svg>
