<svg width="16" height="16" viewBox="0 0 16 16" fill="none" xmlns="http://www.w3.org/2000/svg">
<g clip-path="url(#clip0_34_3828)">
<path d="M8 0.199707C8.32821 0.199707 8.65138 0.280482 8.941 0.434907L14.941 3.63491C15.2609 3.80549 15.5285 4.05983 15.715 4.37072C15.9015 4.6816 16 5.03735 16 5.39991V5.71291L11.779 8.18791C11.754 8.13049 11.7273 8.0738 11.699 8.01791C11.033 6.71791 9.336 6.10091 8 6.76791C6.664 6.10091 4.967 6.71791 4.302 8.01791C4.272 8.07391 4.246 8.12991 4.222 8.18791L9.99836e-09 5.71291V5.39991C-3.62367e-05 5.03735 0.0984807 4.6816 0.285014 4.37072C0.471548 4.05983 0.739081 3.80549 1.059 3.63491L7.059 0.434907C7.34862 0.280482 7.67179 0.199707 8 0.199707Z" fill="black"/>
<path d="M4 9.21691L9.99836e-09 6.87291V13.3719L4.42 10.9169L4.416 10.9109C4.124 10.3339 3.988 9.75891 4 9.21691Z" fill="black"/>
<path d="M4.959 11.7609L0.059 14.4839C0.167004 14.9169 0.416741 15.3014 0.768469 15.5761C1.1202 15.8508 1.5537 16 2 15.9999H14C14.4463 16 14.8798 15.8508 15.2315 15.5761C15.5833 15.3014 15.833 14.9169 15.941 14.4839L11.041 11.7609C10.478 12.4919 9.658 13.2289 8.551 13.9589L8 14.3239L7.449 13.9589C6.342 13.2279 5.522 12.4909 4.959 11.7609Z" fill="black"/>
<path d="M11.58 10.9169L16 13.3719V6.87291L11.999 9.21691C12.012 9.75891 11.876 10.3339 11.584 10.9109L11.58 10.9169Z" fill="black"/>
<path d="M8 7.99295C9.664 6.28195 13.825 9.27595 8 13.1249C2.175 9.27495 6.336 6.28195 8 7.99295Z" fill="black"/>
</g>
<defs>
<clipPath id="clip0_34_3828">
<rect width="16" height="16" fill="white"/>
</clipPath>
</defs>
</svg>
