<svg width="16" height="16" viewBox="0 0 16 16" fill="none" xmlns="http://www.w3.org/2000/svg">
<g clip-path="url(#clip0_34_3836)">
<path fill-rule="evenodd" clip-rule="evenodd" d="M3 7.5L6.5 9.5L8 8.75L9.5 9.5L13 7.5V1.5C13 1.10218 12.842 0.720644 12.5607 0.43934C12.2794 0.158035 11.8978 0 11.5 0L4.5 0C4.10218 0 3.72064 0.158035 3.43934 0.43934C3.15804 0.720644 3 1.10218 3 1.5V7.5ZM2 3.133L1.059 3.635C0.739081 3.80558 0.471548 4.05992 0.285014 4.37081C0.0984807 4.6817 -3.62467e-05 5.03744 1.00039e-08 5.4V5.713L2 6.886V3.133ZM14 6.886L16 5.713V5.4C16 5.03744 15.9015 4.6817 15.715 4.37081C15.5285 4.05992 15.2609 3.80558 14.941 3.635L14 3.133V6.886ZM10.307 10.21L16 6.873V13.373L10.307 10.21ZM15.941 14.484L8 10.072L0.059 14.484C0.167004 14.917 0.416741 15.3015 0.768469 15.5762C1.1202 15.8509 1.5537 16.0001 2 16H14C14.4463 16.0001 14.8798 15.8509 15.2315 15.5762C15.5833 15.3015 15.833 14.917 15.941 14.484ZM5.693 10.21L1.00039e-08 13.372V6.872L5.693 10.21ZM8 1.982C9.664 0.309 13.825 3.236 8 7C2.175 3.236 6.336 0.31 8 1.982Z" fill="black"/>
</g>
<defs>
<clipPath id="clip0_34_3836">
<rect width="16" height="16" fill="white"/>
</clipPath>
</defs>
</svg>
