<svg width="16" height="16" viewBox="0 0 16 16" fill="none" xmlns="http://www.w3.org/2000/svg">
<path d="M0.752922 2.43631C0.398655 2.71881 0.150818 3.11324 0.05 3.555L4.251 6.123L4.301 6.018C4.967 4.718 6.664 4.101 8 4.768C9.336 4.101 11.033 4.718 11.699 6.018C11.7167 6.05264 11.7337 6.08765 11.75 6.123L15.95 3.555C15.8492 3.11324 15.6013 2.71881 15.2471 2.43631C14.8928 2.1538 14.4531 1.99997 14 2H2C1.54688 1.99997 1.10719 2.1538 0.752922 2.43631Z" fill="black"/>
<path d="M11.511 9.049C11.5361 9.00308 11.5604 8.95674 11.584 8.91V8.911C11.89 8.307 12.024 7.706 11.997 7.144L16 4.697V11.8L11.511 9.049Z" fill="black"/>
<path d="M5.051 9.878C5.609 10.57 6.401 11.267 7.449 11.96V11.959L8 12.324L8.552 11.959C9.6 11.267 10.391 10.57 10.95 9.878L15.808 12.856C15.6459 13.1983 15.3899 13.4876 15.0698 13.6901C14.7498 13.8926 14.3788 14.0001 14 14H2C1.6209 14.0005 1.24947 13.8932 0.92901 13.6906C0.60855 13.4881 0.352256 13.1986 0.19 12.856L5.051 9.878Z" fill="black"/>
<path d="M4.003 7.144C3.976 7.706 4.11 8.307 4.416 8.91V8.911C4.43991 8.9574 4.46458 9.00341 4.49 9.049L0 11.801V4.697L4.003 7.144Z" fill="black"/>
<path d="M7.99999 5.99295C9.66399 4.28195 13.825 7.27595 7.99999 11.1249C2.17499 7.27495 6.33599 4.28195 7.99999 5.99295Z" fill="black"/>
</svg>
