<svg width="16" height="16" viewBox="0 0 16 16" fill="none" xmlns="http://www.w3.org/2000/svg">
<path d="M8.08618 2.20691C8.46123 1.83197 8.96985 1.62134 9.50018 1.62134C10.0305 1.62134 10.5391 1.83197 10.9142 2.20691L14.7932 6.08591C15.1681 6.46097 15.3788 6.96958 15.3788 7.49991C15.3788 8.03024 15.1681 8.53886 14.7932 8.91391L9.29318 14.4139C8.91819 14.789 8.40957 14.9998 7.87918 14.9999H5.12018C4.58979 14.9998 4.08116 14.789 3.70618 14.4139L1.20618 11.9139C0.831236 11.5389 0.620605 11.0302 0.620605 10.4999C0.620605 9.96958 0.831236 9.46097 1.20618 9.08591L8.08518 2.20691H8.08618ZM8.74618 13.5469L3.45318 8.25391L1.91418 9.79291C1.72671 9.98044 1.62139 10.2347 1.62139 10.4999C1.62139 10.7651 1.72671 11.0194 1.91418 11.2069L4.41418 13.7069C4.60167 13.8945 4.85598 13.9999 5.12118 13.9999H7.88018C8.14537 13.9999 8.39969 13.8945 8.58718 13.7069L8.74718 13.5469H8.74618Z" fill="#212529"/>
</svg>
