<svg width="16" height="16" viewBox="0 0 16 16" fill="none" xmlns="http://www.w3.org/2000/svg">
<g clip-path="url(#clip0_34_3850)">
<path fill-rule="evenodd" clip-rule="evenodd" d="M14 6.5V13.5C14 13.6326 13.9473 13.7598 13.8536 13.8536C13.7598 13.9473 13.6326 14 13.5 14H2.5C2.36739 14 2.24021 13.9473 2.14645 13.8536C2.05268 13.7598 2 13.6326 2 13.5V6.5C2 6.36739 2.05268 6.24021 2.14645 6.14645C2.24021 6.05268 2.36739 6 2.5 6H4V4.5C4 4.36739 4.05268 4.24021 4.14645 4.14645C4.24021 4.05268 4.36739 4 4.5 4H5.5V3.5C5.5 3.36739 5.55268 3.24021 5.64645 3.14645C5.74021 3.05268 5.86739 3 6 3H10C10.1326 3 10.2598 3.05268 10.3536 3.14645C10.4473 3.24021 10.5 3.36739 10.5 3.5V4H11.5C11.6326 4 11.7598 4.05268 11.8536 4.14645C11.9473 4.24021 12 4.36739 12 4.5V6H13.5C13.6326 6 13.7598 6.05268 13.8536 6.14645C13.9473 6.24021 14 6.36739 14 6.5ZM4.42678 11.0732C4.37989 11.0263 4.3163 11 4.25 11H3.75C3.6837 11 3.62011 11.0263 3.57322 11.0732C3.52634 11.1201 3.5 11.1837 3.5 11.25V12.75C3.5 12.8163 3.52634 12.8799 3.57322 12.9268C3.62011 12.9737 3.6837 13 3.75 13H4.25C4.3163 13 4.37989 12.9737 4.42678 12.9268C4.47366 12.8799 4.5 12.8163 4.5 12.75V11.25C4.5 11.1837 4.47366 11.1201 4.42678 11.0732ZM6.42678 11.0732C6.37989 11.0263 6.3163 11 6.25 11H5.75C5.6837 11 5.62011 11.0263 5.57322 11.0732C5.52634 11.1201 5.5 11.1837 5.5 11.25V12.75C5.5 12.8163 5.52634 12.8799 5.57322 12.9268C5.62011 12.9737 5.6837 13 5.75 13H6.25C6.3163 13 6.37989 12.9737 6.42678 12.9268C6.47366 12.8799 6.5 12.8163 6.5 12.75V11.25C6.5 11.1837 6.47366 11.1201 6.42678 11.0732ZM7.57322 11.0732C7.52634 11.1201 7.5 11.1837 7.5 11.25V12.75C7.5 12.8163 7.52634 12.8799 7.57322 12.9268C7.62011 12.9737 7.6837 13 7.75 13H8.25C8.3163 13 8.37989 12.9737 8.42678 12.9268C8.47366 12.8799 8.5 12.8163 8.5 12.75V11.25C8.5 11.1837 8.47366 11.1201 8.42678 11.0732C8.37989 11.0263 8.3163 11 8.25 11H7.75C7.6837 11 7.62011 11.0263 7.57322 11.0732ZM10.4268 11.0732C10.3799 11.0263 10.3163 11 10.25 11H9.75C9.6837 11 9.62011 11.0263 9.57322 11.0732C9.52634 11.1201 9.5 11.1837 9.5 11.25V12.75C9.5 12.8163 9.52634 12.8799 9.57322 12.9268C9.62011 12.9737 9.6837 13 9.75 13H10.25C10.3163 13 10.3799 12.9737 10.4268 12.9268C10.4737 12.8799 10.5 12.8163 10.5 12.75V11.25C10.5 11.1837 10.4737 11.1201 10.4268 11.0732ZM11.5732 11.0732C11.5263 11.1201 11.5 11.1837 11.5 11.25V12.75C11.5 12.8163 11.5263 12.8799 11.5732 12.9268C11.6201 12.9737 11.6837 13 11.75 13H12.25C12.3163 13 12.3799 12.9737 12.4268 12.9268C12.4737 12.8799 12.5 12.8163 12.5 12.75V11.25C12.5 11.1837 12.4737 11.1201 12.4268 11.0732C12.3799 11.0263 12.3163 11 12.25 11H11.75C11.6837 11 11.6201 11.0263 11.5732 11.0732Z" fill="#212529"/>
<path fill-rule="evenodd" clip-rule="evenodd" d="M0.585786 0.585786C0.960859 0.210714 1.46957 0 2 0H14C14.5304 0 15.0391 0.210714 15.4142 0.585786C15.7893 0.960859 16 1.46957 16 2V14C16 14.5304 15.7893 15.0391 15.4142 15.4142C15.0391 15.7893 14.5304 16 14 16H2C1.46957 16 0.960859 15.7893 0.585786 15.4142C0.210714 15.0391 0 14.5304 0 14V2C0 1.46957 0.210714 0.960859 0.585786 0.585786ZM1.29289 1.29289C1.10536 1.48043 1 1.73478 1 2V14C1 14.2652 1.10536 14.5196 1.29289 14.7071C1.48043 14.8946 1.73478 15 2 15H14C14.2652 15 14.5196 14.8946 14.7071 14.7071C14.8946 14.5196 15 14.2652 15 14V2C15 1.73478 14.8946 1.48043 14.7071 1.29289C14.5196 1.10536 14.2652 1 14 1H2C1.73478 1 1.48043 1.10536 1.29289 1.29289Z" fill="#212529"/>
</g>
<defs>
<clipPath id="clip0_34_3850">
<rect width="16" height="16" fill="white"/>
</clipPath>
</defs>
</svg>
