<svg width="16" height="16" viewBox="0 0 16 16" fill="none" xmlns="http://www.w3.org/2000/svg">
<g clip-path="url(#clip0_34_3852)">
<path d="M10.5 10.88H6.826V8.47295H10.283V7.39995H6.826V5.12195H10.5V4.00195H5.5V12H10.5V10.88Z" fill="#212529"/>
<path fill-rule="evenodd" clip-rule="evenodd" d="M0.732233 0.732233C1.20107 0.263392 1.83696 0 2.5 0H13.5C14.163 0 14.7989 0.263392 15.2678 0.732233C15.7366 1.20107 16 1.83696 16 2.5V13.5C16 14.163 15.7366 14.7989 15.2678 15.2678C14.7989 15.7366 14.163 16 13.5 16H2.5C1.83696 16 1.20107 15.7366 0.732233 15.2678C0.263392 14.7989 0 14.163 0 13.5V2.5C0 1.83696 0.263392 1.20107 0.732233 0.732233ZM1.43934 1.43934C1.15804 1.72064 1 2.10218 1 2.5V13.5C1 13.8978 1.15804 14.2794 1.43934 14.5607C1.72064 14.842 2.10218 15 2.5 15H13.5C13.8978 15 14.2794 14.842 14.5607 14.5607C14.842 14.2794 15 13.8978 15 13.5V2.5C15 2.10218 14.842 1.72064 14.5607 1.43934C14.2794 1.15804 13.8978 1 13.5 1H2.5C2.10218 1 1.72064 1.15804 1.43934 1.43934Z" fill="#212529"/>
</g>
<defs>
<clipPath id="clip0_34_3852">
<rect width="16" height="16" fill="white"/>
</clipPath>
</defs>
</svg>
