<svg width="16" height="16" viewBox="0 0 16 16" fill="none" xmlns="http://www.w3.org/2000/svg">
<path d="M4 6.00011C4.53043 6.00011 5.03914 6.21082 5.41421 6.58589C5.78929 6.96097 6 7.46967 6 8.00011C6 8.53054 5.78929 9.03925 5.41421 9.41432C5.03914 9.78939 4.53043 10.0001 4 10.0001C3.46957 10.0001 2.96086 9.78939 2.58579 9.41432C2.21071 9.03925 2 8.53054 2 8.00011C2 7.46967 2.21071 6.96097 2.58579 6.58589C2.96086 6.21082 3.46957 6.00011 4 6.00011ZM6.625 6.54711C6.32392 6.00236 5.86086 5.56474 5.29998 5.2949C4.73911 5.02505 4.10819 4.93634 3.49464 5.04105C2.8811 5.14576 2.31532 5.43871 1.87569 5.87931C1.43606 6.31991 1.14436 6.88634 1.041 7.50011H0.5C0.367392 7.50011 0.240215 7.55279 0.146447 7.64655C0.0526784 7.74032 0 7.8675 0 8.00011C0 8.13272 0.0526784 8.25989 0.146447 8.35366C0.240215 8.44743 0.367392 8.50011 0.5 8.50011H1.041C1.16509 9.24303 1.56411 9.9121 2.15878 10.3744C2.75345 10.8367 3.50026 11.0583 4.25084 10.9953C5.00142 10.9324 5.70085 10.5894 6.21017 10.0344C6.7195 9.47952 7.00144 8.75332 7 8.00011C7 7.73489 7.10536 7.48054 7.29289 7.293C7.48043 7.10546 7.73478 7.00011 8 7.00011C8.26522 7.00011 8.51957 7.10546 8.70711 7.293C8.89464 7.48054 9 7.73489 9 8.00011C8.99856 8.75332 9.2805 9.47952 9.78983 10.0344C10.2991 10.5894 10.9986 10.9324 11.7492 10.9953C12.4997 11.0583 13.2465 10.8367 13.8412 10.3744C14.4359 9.9121 14.8349 9.24303 14.959 8.50011H15.5C15.6326 8.50011 15.7598 8.44743 15.8536 8.35366C15.9473 8.25989 16 8.13272 16 8.00011C16 7.8675 15.9473 7.74032 15.8536 7.64655C15.7598 7.55279 15.6326 7.50011 15.5 7.50011H14.959C14.8556 6.88634 14.5639 6.31991 14.1243 5.87931C13.6847 5.43871 13.1189 5.14576 12.5054 5.04105C11.8918 4.93634 11.2609 5.02505 10.7 5.2949C10.1391 5.56474 9.67608 6.00236 9.375 6.54711C9.00385 6.19507 8.51155 5.99922 8 6.00011C7.468 6.00011 6.984 6.20811 6.625 6.54711ZM14 8.00011C14 8.53054 13.7893 9.03925 13.4142 9.41432C13.0391 9.78939 12.5304 10.0001 12 10.0001C11.4696 10.0001 10.9609 9.78939 10.5858 9.41432C10.2107 9.03925 10 8.53054 10 8.00011C10 7.46967 10.2107 6.96097 10.5858 6.58589C10.9609 6.21082 11.4696 6.00011 12 6.00011C12.5304 6.00011 13.0391 6.21082 13.4142 6.58589C13.7893 6.96097 14 7.46967 14 8.00011Z" fill="#212529"/>
</svg>
