<svg width="16" height="16" viewBox="0 0 16 16" fill="none" xmlns="http://www.w3.org/2000/svg">
<g clip-path="url(#clip0_34_3900)">
<path d="M10 3C10 4.313 9.696 5.508 9.2 6.4C8.98998 6.24181 8.75072 6.12679 8.49601 6.06156C8.2413 5.99634 7.9762 5.98222 7.716 6.02C7.436 5.038 6.806 3.98 5.878 3.051C5.72045 2.89318 5.55665 2.74173 5.387 2.597C6.20156 2.20272 7.09503 1.99858 8 2C8.691 2 9.355 2.117 9.973 2.332C9.991 2.551 10 2.774 10 3ZM10 8C10 8.073 9.996 8.146 9.988 8.217C11.006 8.198 12.188 7.864 13.319 7.211C13.5138 7.09836 13.7039 6.97793 13.889 6.85C13.5845 5.29119 12.6748 3.91654 11.359 3.027C11.3184 3.24202 11.2701 3.4555 11.214 3.667C10.874 4.936 10.27 6.013 9.558 6.746C9.835 7.089 10 7.526 10 8ZM9.863 8.728C9.76651 8.97423 9.62231 9.19897 9.43868 9.38929C9.25505 9.57961 9.03562 9.73176 8.793 9.837C9.318 10.707 10.198 11.562 11.328 12.214C11.528 12.33 11.73 12.436 11.933 12.531C12.5291 12.0148 13.0174 11.3858 13.3697 10.6803C13.722 9.97485 13.9315 9.20669 13.986 8.42C13.778 8.493 13.565 8.56 13.345 8.619C12.081 8.958 10.852 8.975 9.863 8.729V8.728ZM8 10C7.55 10 7.134 9.851 6.8 9.6C6.306 10.49 6.004 11.682 6.004 12.991C6.004 13.221 6.014 13.448 6.031 13.669C6.66419 13.8887 7.32977 14.0006 8 14C8.94 14 9.83 13.784 10.623 13.398C10.4512 13.2521 10.2854 13.0993 10.126 12.94C9.201 12.014 8.571 10.959 8.29 9.98C8.196 9.993 8.099 10 8 10ZM6 8C6 7.92 6.005 7.84 6.014 7.761C4.994 7.778 3.809 8.112 2.674 8.768C2.47994 8.88001 2.29045 8.99977 2.106 9.127C2.25416 9.90136 2.5534 10.639 2.98665 11.2977C3.41989 11.9564 3.97864 12.5233 4.631 12.966C4.6716 12.7464 4.72098 12.5286 4.779 12.313C5.119 11.046 5.719 9.971 6.429 9.238C6.15021 8.88567 5.999 8.44929 6 8ZM2.653 7.368C3.92 7.028 5.151 7.013 6.141 7.261C6.337 6.767 6.724 6.371 7.211 6.161C6.687 5.287 5.805 4.428 4.67 3.773C4.47625 3.6611 4.27809 3.55701 4.076 3.461C3.47922 3.97608 2.99003 4.60394 2.63652 5.30856C2.28301 6.01318 2.07214 6.78068 2.016 7.567C2.222 7.493 2.434 7.427 2.653 7.368ZM8 9C8.26522 9 8.51957 8.89464 8.70711 8.70711C8.89464 8.51957 9 8.26522 9 8C9 7.73478 8.89464 7.48043 8.70711 7.29289C8.51957 7.10536 8.26522 7 8 7C7.73478 7 7.48043 7.10536 7.29289 7.29289C7.10536 7.48043 7 7.73478 7 8C7 8.26522 7.10536 8.51957 7.29289 8.70711C7.48043 8.89464 7.73478 9 8 9Z" fill="#212529"/>
<path d="M8 15C6.14348 15 4.36301 14.2625 3.05025 12.9497C1.7375 11.637 1 9.85652 1 8C1 6.14348 1.7375 4.36301 3.05025 3.05025C4.36301 1.7375 6.14348 1 8 1C9.85652 1 11.637 1.7375 12.9497 3.05025C14.2625 4.36301 15 6.14348 15 8C15 9.85652 14.2625 11.637 12.9497 12.9497C11.637 14.2625 9.85652 15 8 15ZM8 16C10.1217 16 12.1566 15.1571 13.6569 13.6569C15.1571 12.1566 16 10.1217 16 8C16 5.87827 15.1571 3.84344 13.6569 2.34315C12.1566 0.842855 10.1217 0 8 0C5.87827 0 3.84344 0.842855 2.34315 2.34315C0.842855 3.84344 0 5.87827 0 8C0 10.1217 0.842855 12.1566 2.34315 13.6569C3.84344 15.1571 5.87827 16 8 16Z" fill="#212529"/>
</g>
<defs>
<clipPath id="clip0_34_3900">
<rect width="16" height="16" fill="white"/>
</clipPath>
</defs>
</svg>
