<svg width="16" height="16" viewBox="0 0 16 16" fill="none" xmlns="http://www.w3.org/2000/svg">
<path d="M4 0C3.46957 0 2.96086 0.210714 2.58579 0.585786C2.21071 0.960859 2 1.46957 2 2V14C2 14.5304 2.21071 15.0391 2.58579 15.4142C2.96086 15.7893 3.46957 16 4 16H12C12.5304 16 13.0391 15.7893 13.4142 15.4142C13.7893 15.0391 14 14.5304 14 14V2C14 1.46957 13.7893 0.960859 13.4142 0.585786C13.0391 0.210714 12.5304 0 12 0H4ZM4 1H12C12.2652 1 12.5196 1.10536 12.7071 1.29289C12.8946 1.48043 13 1.73478 13 2V14C13 14.2652 12.8946 14.5196 12.7071 14.7071C12.5196 14.8946 12.2652 15 12 15H4C3.73478 15 3.48043 14.8946 3.29289 14.7071C3.10536 14.5196 3 14.2652 3 14V2C3 1.73478 3.10536 1.48043 3.29289 1.29289C3.48043 1.10536 3.73478 1 4 1Z" fill="#212529"/>
<path d="M4.603 12.087C4.40809 12.009 4.25106 11.8585 4.165 11.667C3.97 11.279 4.035 10.891 4.245 10.565C4.443 10.258 4.771 9.997 5.142 9.778C5.61194 9.51147 6.10869 9.29527 6.624 9.133C7.02418 8.41358 7.37888 7.66979 7.686 6.906C7.50238 6.48877 7.35841 6.05519 7.256 5.611C7.17 5.211 7.137 4.815 7.21 4.475C7.285 4.121 7.484 3.803 7.86 3.652C8.052 3.575 8.26 3.532 8.462 3.575C8.56361 3.59663 8.65913 3.64061 8.74164 3.70374C8.82414 3.76687 8.89156 3.84758 8.939 3.94C9.027 4.104 9.059 4.296 9.066 4.478C9.073 4.665 9.054 4.873 9.019 5.092C8.935 5.602 8.749 6.226 8.499 6.886C8.77489 7.47602 9.10286 8.04025 9.479 8.572C9.9241 8.53684 10.3718 8.55362 10.813 8.622C11.177 8.687 11.547 8.817 11.773 9.087C11.893 9.231 11.966 9.407 11.973 9.605C11.98 9.797 11.926 9.987 11.835 10.168C11.7562 10.3357 11.634 10.4794 11.481 10.584C11.3298 10.6826 11.1513 10.7309 10.971 10.722C10.64 10.708 10.317 10.526 10.038 10.305C9.69877 10.0245 9.39307 9.70569 9.127 9.355C8.45075 9.4317 7.78252 9.56755 7.13 9.761C6.83084 10.291 6.4894 10.796 6.109 11.271C5.819 11.621 5.501 11.926 5.183 12.058C5.00029 12.1407 4.79305 12.151 4.603 12.087ZM5.982 10.186C5.816 10.262 5.662 10.342 5.523 10.424C5.195 10.618 4.982 10.807 4.876 10.971C4.782 11.116 4.78 11.221 4.836 11.332C4.846 11.354 4.856 11.368 4.862 11.376C4.87393 11.3728 4.88562 11.3688 4.897 11.364C5.034 11.308 5.252 11.129 5.532 10.792C5.69124 10.597 5.8414 10.3948 5.982 10.186ZM7.622 8.856C7.95591 8.778 8.29286 8.71361 8.632 8.663C8.44984 8.38441 8.27968 8.09814 8.122 7.805C7.96518 8.15961 7.79845 8.50974 7.622 8.855V8.856ZM10.068 9.306C10.218 9.468 10.364 9.606 10.503 9.716C10.743 9.906 10.91 9.969 11.001 9.972C11.0254 9.97519 11.0501 9.96989 11.071 9.957C11.1126 9.92415 11.145 9.88108 11.165 9.832C11.2006 9.77109 11.2208 9.70246 11.224 9.632C11.2234 9.60851 11.2142 9.58606 11.198 9.569C11.146 9.507 10.998 9.417 10.68 9.36C10.4777 9.32619 10.2731 9.30847 10.068 9.307V9.306ZM8.078 5.8C8.16216 5.52852 8.22896 5.25196 8.278 4.972C8.309 4.784 8.321 4.629 8.316 4.507C8.31628 4.43969 8.30547 4.3728 8.284 4.309C8.23398 4.31519 8.18512 4.32867 8.139 4.349C8.052 4.384 7.981 4.455 7.943 4.632C7.903 4.824 7.913 5.101 7.989 5.454C8.013 5.565 8.043 5.681 8.079 5.8H8.078Z" fill="#212529"/>
</svg>
