<svg width="16" height="16" viewBox="0 0 16 16" fill="none" xmlns="http://www.w3.org/2000/svg">
<g clip-path="url(#clip0_34_4182)">
<path fill-rule="evenodd" clip-rule="evenodd" d="M14 4.5V14C14 14.5304 13.7893 15.0391 13.4142 15.4142C13.0391 15.7893 12.5304 16 12 16H11V15H12C12.2652 15 12.5196 14.8946 12.7071 14.7071C12.8946 14.5196 13 14.2652 13 14V4.5H11C10.6022 4.5 10.2206 4.34196 9.93934 4.06066C9.65804 3.77936 9.5 3.39782 9.5 3V1H4C3.73478 1 3.48043 1.10536 3.29289 1.29289C3.10536 1.48043 3 1.73478 3 2V11H2V2C2 1.46957 2.21071 0.960859 2.58579 0.585786C2.96086 0.210714 3.46957 0 4 0L9.5 0L14 4.5ZM3.075 14.841C3.08072 14.9986 3.11936 15.1532 3.18842 15.2949C3.25748 15.4367 3.35544 15.5624 3.476 15.664C3.606 15.772 3.764 15.856 3.954 15.916C4.144 15.977 4.365 16.007 4.619 16.007C4.957 16.007 5.243 15.954 5.477 15.849C5.714 15.744 5.893 15.597 6.017 15.409C6.14311 15.2138 6.20821 14.9854 6.204 14.753C6.204 14.529 6.159 14.343 6.069 14.193C5.97747 14.0432 5.84815 13.9201 5.694 13.836C5.51719 13.7382 5.32675 13.6675 5.129 13.626L4.508 13.482C4.36126 13.4553 4.22267 13.395 4.103 13.306C4.05756 13.2707 4.02097 13.2253 3.99615 13.1734C3.97132 13.1215 3.95895 13.0645 3.96 13.007C3.96 12.851 4.021 12.723 4.144 12.623C4.269 12.522 4.44 12.471 4.657 12.471C4.8 12.471 4.923 12.494 5.027 12.539C5.12236 12.5782 5.20654 12.6404 5.272 12.72C5.33355 12.7942 5.37488 12.8831 5.392 12.978H6.142C6.12981 12.7745 6.06088 12.5784 5.943 12.412C5.81661 12.2325 5.64377 12.0908 5.443 12.002C5.19744 11.8943 4.93104 11.8424 4.663 11.85C4.37 11.85 4.111 11.9 3.887 12C3.662 12.099 3.487 12.24 3.359 12.421C3.232 12.603 3.169 12.816 3.169 13.06C3.169 13.261 3.209 13.436 3.292 13.584C3.374 13.733 3.491 13.854 3.643 13.951C3.796 14.046 3.975 14.118 4.183 14.164L4.801 14.308C5.008 14.357 5.161 14.421 5.263 14.501C5.31302 14.5389 5.35308 14.5883 5.37973 14.6451C5.40638 14.7019 5.41883 14.7643 5.416 14.827C5.41749 14.93 5.38787 15.0311 5.331 15.117C5.26661 15.2048 5.17798 15.2719 5.076 15.31C4.965 15.357 4.827 15.38 4.663 15.38C4.546 15.38 4.439 15.367 4.343 15.34C4.25459 15.3155 4.17081 15.2767 4.095 15.225C4.02843 15.1819 3.97143 15.1256 3.92756 15.0595C3.88369 14.9935 3.85389 14.9191 3.84 14.841H3.075ZM0 14.791C0 14.956 0.027 15.111 0.082 15.257C0.137 15.404 0.218 15.534 0.325 15.647C0.435 15.76 0.57 15.849 0.732 15.914C0.896 15.976 1.086 16.007 1.301 16.007C1.721 16.007 2.049 15.892 2.285 15.661C2.523 15.431 2.643 15.096 2.643 14.657V11.932H1.852V14.677C1.852 14.878 1.806 15.034 1.714 15.143C1.622 15.253 1.481 15.307 1.292 15.307C1.20109 15.3113 1.11073 15.2907 1.03071 15.2473C0.950684 15.2039 0.884044 15.1395 0.838 15.061C0.791853 14.9784 0.766781 14.8856 0.765 14.791H0ZM8.907 11.932H9.8L8.526 13.939L9.78 15.93H8.872L8.022 14.515H7.987L7.134 15.93H6.273L7.513 13.914L6.285 11.931H7.216L8.048 13.369H8.084L8.907 11.931V11.932Z" fill="black"/>
</g>
<defs>
<clipPath id="clip0_34_4182">
<rect width="16" height="16" fill="white"/>
</clipPath>
</defs>
</svg>
