<svg width="16" height="16" viewBox="0 0 16 16" fill="none" xmlns="http://www.w3.org/2000/svg">
<path fill-rule="evenodd" clip-rule="evenodd" d="M14 4.5V14C14 14.5304 13.7893 15.0391 13.4142 15.4142C13.0391 15.7893 12.5304 16 12 16H11V15H12C12.2652 15 12.5196 14.8946 12.7071 14.7071C12.8946 14.5196 13 14.2652 13 14V4.5H11C10.6022 4.5 10.2206 4.34196 9.93934 4.06066C9.65804 3.77936 9.5 3.39782 9.5 3V1H4C3.73478 1 3.48043 1.10536 3.29289 1.29289C3.10536 1.48043 3 1.73478 3 2V11H2V2C2 1.46957 2.21071 0.960859 2.58579 0.585786C2.96086 0.210714 3.46957 0 4 0L9.5 0L14 4.5ZM1.6 11.85H0V15.849H0.791V14.507H1.594C1.881 14.507 2.125 14.45 2.326 14.334C2.529 14.217 2.684 14.059 2.789 13.86C2.89799 13.6512 2.95331 13.4185 2.95 13.183C2.95 12.933 2.897 12.707 2.792 12.506C2.68756 12.3062 2.52789 12.1406 2.332 12.029C2.132 11.909 1.889 11.85 1.6 11.85ZM2.145 13.183C2.1486 13.3148 2.1194 13.4453 2.06 13.563C2.00671 13.6654 1.92377 13.7494 1.822 13.804C1.70559 13.8616 1.57683 13.8897 1.447 13.886H0.788V12.48H1.448C1.666 12.48 1.837 12.54 1.96 12.661C2.083 12.783 2.145 12.956 2.145 13.183ZM6.625 15.849V11.85H5.835V13.476H4.153V11.85H3.363V15.849H4.153V14.135H5.835V15.849H6.625ZM7.328 11.85H8.928C9.216 11.85 9.461 11.91 9.66 12.029C9.86 12.146 10.014 12.305 10.12 12.506C10.225 12.707 10.278 12.933 10.278 13.183C10.278 13.433 10.224 13.659 10.117 13.86C10.011 14.059 9.857 14.217 9.654 14.334C9.42914 14.4551 9.1763 14.5148 8.921 14.507H8.12V15.849H7.329V11.85H7.328ZM9.388 13.564C9.44721 13.4459 9.47608 13.315 9.472 13.183C9.472 12.956 9.411 12.783 9.288 12.662C9.165 12.54 8.994 12.48 8.775 12.48H8.115V13.886H8.775C8.90483 13.8897 9.03359 13.8616 9.15 13.804C9.25125 13.7495 9.33382 13.6659 9.387 13.564H9.388Z" fill="black"/>
</svg>
