<svg width="16" height="16" viewBox="0 0 16 16" fill="none" xmlns="http://www.w3.org/2000/svg">
<path fill-rule="evenodd" clip-rule="evenodd" d="M14 4.5V14C14 14.5304 13.7893 15.0391 13.4142 15.4142C13.0391 15.7893 12.5304 16 12 16H11V15H12C12.2652 15 12.5196 14.8946 12.7071 14.7071C12.8946 14.5196 13 14.2652 13 14V4.5H11C10.6022 4.5 10.2206 4.34196 9.93934 4.06066C9.65804 3.77936 9.5 3.39782 9.5 3V1H4C3.73478 1 3.48043 1.10536 3.29289 1.29289C3.10536 1.48043 3 1.73478 3 2V11H2V2C2 1.46957 2.21071 0.960859 2.58579 0.585786C2.96086 0.210714 3.46957 0 4 0L9.5 0L14 4.5ZM2.575 15.202H0.785V14.129H2.47V13.523H0.785V12.498H2.575V11.85H0V15.849H2.575V15.202ZM6.31 11.85H5.417L4.594 13.289H4.558L3.726 11.85H2.795L4.022 13.833L2.783 15.849H3.644L4.497 14.434H4.532L5.382 15.849H6.29L5.036 13.857L6.31 11.85ZM7.335 15.202H9.125V15.849H6.548V11.85H9.124V12.498H7.334V13.523H9.018V14.129H7.334V15.202H7.335Z" fill="black"/>
</svg>
