<svg width="16" height="16" viewBox="0 0 16 16" fill="none" xmlns="http://www.w3.org/2000/svg">
<path d="M14 14V4.5L9.5 0H4C3.46957 0 2.96086 0.210714 2.58579 0.585786C2.21071 0.960859 2 1.46957 2 2V14C2 14.5304 2.21071 15.0391 2.58579 15.4142C2.96086 15.7893 3.46957 16 4 16H12C12.5304 16 13.0391 15.7893 13.4142 15.4142C13.7893 15.0391 14 14.5304 14 14ZM9.5 3C9.5 3.39782 9.65804 3.77936 9.93934 4.06066C10.2206 4.34196 10.6022 4.5 11 4.5H13V14C13 14.2652 12.8946 14.5196 12.7071 14.7071C12.5196 14.8946 12.2652 15 12 15H4C3.73478 15 3.48043 14.8946 3.29289 14.7071C3.10536 14.5196 3 14.2652 3 14V2C3 1.73478 3.10536 1.48043 3.29289 1.29289C3.48043 1.10536 3.73478 1 4 1H9.5V3Z" fill="#212529"/>
<path d="M4.603 14.087C4.40809 14.009 4.25106 13.8585 4.165 13.667C3.97 13.279 4.035 12.891 4.245 12.565C4.443 12.258 4.771 11.997 5.142 11.778C5.61194 11.5115 6.10869 11.2953 6.624 11.133C7.02419 10.4136 7.37889 9.6698 7.686 8.906C7.50238 8.48877 7.35841 8.05519 7.256 7.611C7.17 7.211 7.137 6.815 7.21 6.475C7.285 6.121 7.484 5.803 7.86 5.652C8.052 5.575 8.26 5.532 8.462 5.575C8.56361 5.59663 8.65913 5.64061 8.74164 5.70374C8.82414 5.76687 8.89156 5.84758 8.939 5.94C9.027 6.104 9.059 6.296 9.066 6.478C9.073 6.666 9.054 6.874 9.019 7.092C8.935 7.602 8.749 8.226 8.499 8.886C8.77489 9.47602 9.10286 10.0403 9.479 10.572C9.9241 10.5368 10.3718 10.5536 10.813 10.622C11.177 10.688 11.547 10.817 11.773 11.087C11.893 11.231 11.966 11.407 11.973 11.605C11.98 11.797 11.926 11.987 11.835 12.168C11.7562 12.3357 11.634 12.4794 11.481 12.584C11.3298 12.6826 11.1513 12.7309 10.971 12.722C10.64 12.708 10.317 12.526 10.038 12.305C9.69874 12.0245 9.39305 11.7057 9.127 11.355C8.45075 11.4317 7.78253 11.5676 7.13 11.761C6.83118 12.291 6.49007 12.7959 6.11 13.271C5.818 13.621 5.501 13.927 5.183 14.058C5.00029 14.1407 4.79305 14.151 4.603 14.087ZM5.982 12.186C5.816 12.262 5.662 12.342 5.523 12.424C5.195 12.618 4.982 12.807 4.876 12.971C4.782 13.116 4.78 13.221 4.836 13.332C4.846 13.354 4.856 13.368 4.862 13.376C4.87393 13.3728 4.88563 13.3688 4.897 13.364C5.034 13.308 5.252 13.129 5.532 12.792C5.69124 12.597 5.8414 12.3948 5.982 12.186ZM7.622 10.856C7.95593 10.7781 8.29287 10.7137 8.632 10.663C8.44992 10.3844 8.27976 10.0981 8.122 9.805C7.96515 10.1596 7.79842 10.5097 7.622 10.855V10.856ZM10.068 11.306C10.218 11.469 10.364 11.606 10.503 11.716C10.743 11.906 10.91 11.969 11.001 11.972C11.0254 11.9752 11.0501 11.9699 11.071 11.957C11.1126 11.9241 11.145 11.8811 11.165 11.832C11.2006 11.7711 11.2208 11.7025 11.224 11.632C11.2234 11.6085 11.2142 11.5861 11.198 11.569C11.146 11.507 10.998 11.417 10.68 11.36C10.4777 11.3262 10.2731 11.3084 10.068 11.307V11.306ZM8.078 7.8C8.16216 7.52852 8.22896 7.25196 8.278 6.972C8.309 6.784 8.321 6.629 8.316 6.507C8.31628 6.43969 8.30547 6.3728 8.284 6.309C8.23398 6.31519 8.18512 6.32867 8.139 6.349C8.052 6.384 7.981 6.455 7.943 6.632C7.903 6.824 7.913 7.101 7.989 7.454C8.013 7.565 8.043 7.681 8.079 7.8H8.078Z" fill="#212529"/>
</svg>
