<svg width="16" height="16" viewBox="0 0 16 16" fill="none" xmlns="http://www.w3.org/2000/svg">
<path fill-rule="evenodd" clip-rule="evenodd" d="M14 4.5V14C14 14.5304 13.7893 15.0391 13.4142 15.4142C13.0391 15.7893 12.5304 16 12 16V15C12.2652 15 12.5196 14.8946 12.7071 14.7071C12.8946 14.5196 13 14.2652 13 14V4.5H11C10.6022 4.5 10.2206 4.34196 9.93934 4.06066C9.65804 3.77936 9.5 3.39782 9.5 3V1H4C3.73478 1 3.48043 1.10536 3.29289 1.29289C3.10536 1.48043 3 1.73478 3 2V11H2V2C2 1.46957 2.21071 0.960859 2.58579 0.585786C2.96086 0.210714 3.46957 0 4 0L9.5 0L14 4.5ZM1.784 15.849L2.525 13.06H2.558L3.298 15.849H4.028L5.083 11.85H4.225L3.63 14.753H3.589L2.883 11.85H2.2L1.494 14.753H1.456L0.856 11.85H0L1.055 15.849H1.785H1.784ZM5.499 15.849L5.813 14.821H7.149L7.462 15.849H8.303L6.967 11.85H6.041L4.7 15.849H5.5H5.499ZM6.501 12.615L6.991 14.232H5.977L6.467 12.615H6.5H6.501ZM10.105 15.849H9.153L7.814 11.85H8.731L9.628 14.988H9.666L10.554 11.85H11.433L10.105 15.849Z" fill="black"/>
</svg>
