<svg width="16" height="16" viewBox="0 0 16 16" fill="none" xmlns="http://www.w3.org/2000/svg">
<path fill-rule="evenodd" clip-rule="evenodd" d="M14 4.5V14C14 14.5304 13.7893 15.0391 13.4142 15.4142C13.0391 15.7893 12.5304 16 12 16H11V15H12C12.2652 15 12.5196 14.8946 12.7071 14.7071C12.8946 14.5196 13 14.2652 13 14V4.5H11C10.6022 4.5 10.2206 4.34196 9.93934 4.06066C9.65804 3.77936 9.5 3.39782 9.5 3V1H4C3.73478 1 3.48043 1.10536 3.29289 1.29289C3.10536 1.48043 3 1.73478 3 2V11H2V2C2 1.46957 2.21071 0.960859 2.58579 0.585786C2.96086 0.210714 3.46957 0 4 0L9.5 0L14 4.5ZM3.21 11.85H2.34L0.83 13.64H0.79V11.85H0V15.849H0.791V14.566L1.201 14.1L2.321 15.849H3.272L1.784 13.573L3.211 11.85H3.21ZM6.113 15.202H4.323V14.129H6.008V13.523H4.323V12.498H6.113V11.85H3.538V15.849H6.113V15.202ZM8.356 14.314V15.849H7.562V14.329L6.223 11.85H7.1L7.953 13.546H7.985L8.84 11.85H9.696L8.357 14.314H8.356Z" fill="black"/>
</svg>
