<svg width="16" height="16" viewBox="0 0 16 16" fill="none" xmlns="http://www.w3.org/2000/svg">
<g clip-path="url(#clip0_34_4236)">
<path fill-rule="evenodd" clip-rule="evenodd" d="M14 4.5V11H13V4.5H11C10.6022 4.5 10.2206 4.34196 9.93934 4.06066C9.65804 3.77936 9.5 3.39782 9.5 3V1H4C3.73478 1 3.48043 1.10536 3.29289 1.29289C3.10536 1.48043 3 1.73478 3 2V11H2V2C2 1.46957 2.21071 0.960859 2.58579 0.585786C2.96086 0.210714 3.46957 0 4 0L9.5 0L14 4.5ZM8.536 14.188V13.666C8.536 13.409 8.496 13.195 8.419 13.025C8.35235 12.8667 8.23986 12.7319 8.096 12.638C7.95558 12.5511 7.79314 12.5063 7.628 12.509C7.46145 12.5061 7.2976 12.5513 7.156 12.639C7.01369 12.7334 6.90237 12.8677 6.836 13.025C6.759 13.195 6.72 13.409 6.72 13.666V14.188C6.72 14.444 6.759 14.658 6.837 14.829C6.90283 14.9866 7.01382 15.1213 7.156 15.216C7.29835 15.3016 7.46195 15.3452 7.628 15.342C7.79274 15.3448 7.95493 15.3011 8.096 15.216C8.23971 15.1224 8.35218 14.988 8.419 14.83C8.50312 14.6267 8.543 14.4079 8.536 14.188ZM9.339 13.672V14.185C9.339 14.56 9.27 14.885 9.134 15.158C8.997 15.429 8.801 15.638 8.544 15.785C8.291 15.929 7.985 16.001 7.628 16.001C7.272 16.001 6.966 15.929 6.708 15.785C6.4529 15.6399 6.24733 15.4214 6.118 15.158C5.97495 14.854 5.90509 14.5208 5.914 14.185V13.672C5.914 13.293 5.982 12.968 6.119 12.697C6.256 12.423 6.452 12.214 6.708 12.07C6.966 11.923 7.272 11.85 7.628 11.85C7.985 11.85 8.291 11.923 8.545 12.07C8.801 12.216 8.997 12.426 9.134 12.7C9.27 12.971 9.339 13.295 9.339 13.672ZM3.275 13.136L2.535 15.926H1.805L0.75 11.926H1.605L2.206 14.829H2.244L2.95 11.926H3.633L4.339 14.829H4.379L4.975 11.926H5.833L4.778 15.926H4.048L3.308 13.136H3.275ZM10.673 15.926V14.334H12.279V13.696H10.673V12.579H12.431V11.926H9.882V15.926H10.673ZM13.661 14.334V15.925H12.87V11.926H15.418V12.579H13.661V13.696H15.266V14.334H13.661Z" fill="black"/>
</g>
<defs>
<clipPath id="clip0_34_4236">
<rect width="16" height="16" fill="white"/>
</clipPath>
</defs>
</svg>
