<svg width="16" height="16" viewBox="0 0 16 16" fill="none" xmlns="http://www.w3.org/2000/svg">
<path fill-rule="evenodd" clip-rule="evenodd" d="M14 4.5V14C14 14.5304 13.7893 15.0391 13.4142 15.4142C13.0391 15.7893 12.5304 16 12 16V15C12.2652 15 12.5196 14.8946 12.7071 14.7071C12.8946 14.5196 13 14.2652 13 14V4.5H11C10.6022 4.5 10.2206 4.34196 9.93934 4.06066C9.65804 3.77936 9.5 3.39782 9.5 3V1H4C3.73478 1 3.48043 1.10536 3.29289 1.29289C3.10536 1.48043 3 1.73478 3 2V11H2V2C2 1.46957 2.21071 0.960859 2.58579 0.585786C2.96086 0.210714 3.46957 0 4 0L9.5 0L14 4.5ZM0 15.849H1.664C1.936 15.849 2.176 15.805 2.384 15.717C2.594 15.627 2.758 15.498 2.877 15.331C2.997 15.163 3.056 14.959 3.056 14.721C3.06181 14.543 3.0193 14.3668 2.933 14.211C2.85728 14.075 2.74551 13.9626 2.61 13.886C2.47359 13.8076 2.32174 13.7598 2.165 13.746V13.71C2.29163 13.6801 2.41119 13.6257 2.517 13.55C2.6208 13.4733 2.70423 13.3724 2.76 13.256C2.8226 13.1243 2.85342 12.9798 2.85 12.834C2.85 12.526 2.743 12.284 2.528 12.111C2.313 11.937 2.028 11.85 1.67 11.85H0V15.849ZM0.785 12.445H1.485C1.671 12.445 1.815 12.492 1.916 12.585C2.02 12.677 2.071 12.805 2.071 12.969C2.07409 13.0737 2.04551 13.1768 1.989 13.265C1.92786 13.3517 1.84061 13.4165 1.74 13.45C1.60069 13.4972 1.45401 13.5189 1.307 13.514H0.785V12.444V12.445ZM0.785 14.065H1.535C1.689 14.065 1.82 14.089 1.928 14.138C2.02854 14.1808 2.11267 14.2548 2.168 14.349C2.22514 14.4476 2.25355 14.5601 2.25 14.674C2.25 14.864 2.182 15.008 2.045 15.108C1.908 15.206 1.685 15.254 1.374 15.254H0.785V14.064V14.065ZM4.259 15.849V13.189H4.297L5.249 15.349H5.764L6.711 13.189H6.749V15.849H7.464V11.85H6.664L5.524 14.446H5.498L4.358 11.85H3.553V15.849H4.259ZM8.177 11.85H9.777C10.066 11.85 10.31 11.91 10.509 12.029C10.71 12.146 10.864 12.305 10.969 12.506C11.075 12.707 11.128 12.933 11.128 13.183C11.128 13.433 11.074 13.659 10.966 13.86C10.861 14.059 10.706 14.217 10.504 14.334C10.2791 14.4551 10.0263 14.5148 9.771 14.507H8.968V15.849H8.178V11.85H8.177ZM10.237 13.564C10.2966 13.4461 10.3258 13.3151 10.322 13.183C10.322 12.957 10.26 12.783 10.137 12.662C10.014 12.54 9.843 12.48 9.625 12.48H8.965V13.886H9.625C9.75483 13.8897 9.88359 13.8616 10 13.804C10.1013 13.7495 10.1838 13.6659 10.237 13.564Z" fill="black"/>
</svg>
