<svg width="16" height="16" viewBox="0 0 16 16" fill="none" xmlns="http://www.w3.org/2000/svg">
<path fill-rule="evenodd" clip-rule="evenodd" d="M14 4.5V14C14 14.5304 13.7893 15.0391 13.4142 15.4142C13.0391 15.7893 12.5304 16 12 16H11V15H12C12.2652 15 12.5196 14.8946 12.7071 14.7071C12.8946 14.5196 13 14.2652 13 14V4.5H11C10.6022 4.5 10.2206 4.34196 9.93934 4.06066C9.65804 3.77936 9.5 3.39782 9.5 3V1H4C3.73478 1 3.48043 1.10536 3.29289 1.29289C3.10536 1.48043 3 1.73478 3 2V11H2V2C2 1.46957 2.21071 0.960859 2.58579 0.585786C2.96086 0.210714 3.46957 0 4 0L9.5 0L14 4.5ZM1.6 11.85H0V15.849H0.791V14.507H1.594C1.881 14.507 2.125 14.45 2.326 14.334C2.529 14.217 2.684 14.059 2.789 13.86C2.89799 13.6512 2.95331 13.4185 2.95 13.183C2.95 12.933 2.897 12.707 2.792 12.506C2.68756 12.3062 2.52789 12.1406 2.332 12.029C2.132 11.909 1.889 11.85 1.6 11.85ZM2.145 13.183C2.1486 13.3148 2.1194 13.4453 2.06 13.563C2.00671 13.6654 1.92377 13.7494 1.822 13.804C1.70559 13.8616 1.57683 13.8897 1.447 13.886H0.788V12.48H1.448C1.666 12.48 1.837 12.54 1.96 12.661C2.083 12.783 2.145 12.957 2.145 13.183ZM4.962 11.85H3.362V15.849H4.153V14.507H4.956C5.243 14.507 5.487 14.45 5.688 14.334C5.891 14.217 6.046 14.059 6.151 13.86C6.259 13.659 6.312 13.433 6.312 13.183C6.312 12.933 6.26 12.707 6.154 12.506C6.04956 12.3062 5.88989 12.1406 5.694 12.029C5.494 11.909 5.251 11.85 4.962 11.85ZM5.507 13.183C5.5106 13.3148 5.4814 13.4453 5.422 13.563C5.36871 13.6654 5.28577 13.7494 5.184 13.804C5.0676 13.8616 4.93883 13.8898 4.809 13.886H4.15V12.48H4.81C5.028 12.48 5.199 12.54 5.322 12.661C5.445 12.783 5.507 12.957 5.507 13.183ZM8.274 12.513V15.849H7.48V12.512H6.346V11.85H9.411V12.512H8.274V12.513Z" fill="black"/>
</svg>
