<svg width="16" height="16" viewBox="0 0 16 16" fill="none" xmlns="http://www.w3.org/2000/svg">
<path d="M5.526 13.09C6.502 13.09 7.05 12.3 7.05 10.885C7.05 9.473 6.502 8.682 5.526 8.682C4.548 8.682 4 9.472 4 10.885C4 12.3 4.548 13.09 5.526 13.09ZM4.694 10.885C4.694 9.835 4.984 9.273 5.526 9.273C5.884 9.273 6.133 9.52 6.259 9.994L4.7 11.137C4.69643 11.053 4.69443 10.969 4.694 10.885ZM5.526 12.499C5.166 12.499 4.92 12.253 4.794 11.781L6.35 10.636C6.353 10.715 6.355 10.8 6.355 10.885C6.355 11.937 6.065 12.499 5.526 12.499ZM10.855 13V12.405H9.73V8.772H9.04L7.85 9.558V10.246L8.986 9.5H9.036V12.406H7.856V13H10.856H10.855Z" fill="#212529"/>
<path d="M4 0C3.46957 0 2.96086 0.210714 2.58579 0.585786C2.21071 0.960859 2 1.46957 2 2V14C2 14.5304 2.21071 15.0391 2.58579 15.4142C2.96086 15.7893 3.46957 16 4 16H12C12.5304 16 13.0391 15.7893 13.4142 15.4142C13.7893 15.0391 14 14.5304 14 14V2C14 1.46957 13.7893 0.960859 13.4142 0.585786C13.0391 0.210714 12.5304 0 12 0H4ZM4 1H12C12.2652 1 12.5196 1.10536 12.7071 1.29289C12.8946 1.48043 13 1.73478 13 2V14C13 14.2652 12.8946 14.5196 12.7071 14.7071C12.5196 14.8946 12.2652 15 12 15H4C3.73478 15 3.48043 14.8946 3.29289 14.7071C3.10536 14.5196 3 14.2652 3 14V2C3 1.73478 3.10536 1.48043 3.29289 1.29289C3.48043 1.10536 3.73478 1 4 1Z" fill="#212529"/>
</svg>
