<svg width="16" height="16" viewBox="0 0 16 16" fill="none" xmlns="http://www.w3.org/2000/svg">
<path d="M11.7979 8.271L8.61591 10.241C8.34591 10.407 7.99991 10.205 7.99991 9.869V9.1C7.99991 9.1 5.42891 8.8 3.99991 11.5C4.57091 6.7 7.14291 6.7 7.99991 6.7V5.931C7.99991 5.595 8.34591 5.393 8.61591 5.56L11.7979 7.529C12.0679 7.695 12.0679 8.105 11.7979 8.271Z" fill="#212529"/>
<path d="M0.499905 3L0.539905 3.87C0.276071 4.25355 0.155053 4.71745 0.197905 5.181L0.834905 12.181C0.880061 12.6779 1.10933 13.14 1.4777 13.4766C1.84607 13.8131 2.32694 13.9998 2.82591 14H13.1739C13.6729 13.9998 14.1537 13.8131 14.5221 13.4766C14.8905 13.14 15.1197 12.6779 15.1649 12.181L15.8019 5.181C15.8271 4.90422 15.7942 4.62524 15.7056 4.36184C15.6169 4.09845 15.4743 3.85643 15.2869 3.65122C15.0994 3.44601 14.8713 3.28212 14.617 3.16999C14.3627 3.05787 14.0878 2.99997 13.8099 3H9.82791C9.29752 2.99989 8.78889 2.7891 8.41391 2.414L7.58591 1.586C7.21092 1.2109 6.70229 1.00011 6.17191 1H2.49991C1.96947 1 1.46076 1.21071 1.08569 1.58579C0.710619 1.96086 0.499905 2.46957 0.499905 3ZM1.19391 5.09C1.1814 4.95165 1.19786 4.81221 1.24224 4.68058C1.28661 4.54894 1.35792 4.42799 1.45163 4.32544C1.54533 4.22289 1.65937 4.14099 1.78649 4.08496C1.9136 4.02893 2.05099 3.99999 2.18991 4H13.8099C13.9488 3.99999 14.0862 4.02893 14.2133 4.08496C14.3404 4.14099 14.4545 4.22289 14.5482 4.32544C14.6419 4.42799 14.7132 4.54894 14.7576 4.68058C14.8019 4.81221 14.8184 4.95165 14.8059 5.09L14.1699 12.09C14.1474 12.3386 14.0328 12.5699 13.8485 12.7383C13.6642 12.9067 13.4236 13 13.1739 13H2.82591C2.57643 12.9998 2.33605 12.9063 2.15196 12.7379C1.96787 12.5696 1.85336 12.3385 1.83091 12.09L1.19391 5.09ZM6.17191 2C6.4371 2.00006 6.69141 2.10545 6.87891 2.293L7.58591 3H2.18991C1.94991 3 1.71991 3.042 1.50691 3.12L1.49991 2.98C1.50514 2.71827 1.6128 2.46902 1.79978 2.28579C1.98675 2.10255 2.23812 1.99995 2.49991 2H6.17191Z" fill="#212529"/>
</svg>
