<svg width="16" height="16" viewBox="0 0 16 16" fill="none" xmlns="http://www.w3.org/2000/svg">
<path fill-rule="evenodd" clip-rule="evenodd" d="M9.49983 2C9.36722 2 9.24004 1.94732 9.14628 1.85355C9.05251 1.75979 8.99983 1.63261 8.99983 1.5C8.99983 1.36739 9.05251 1.24021 9.14628 1.14645C9.24004 1.05268 9.36722 1 9.49983 1H14.4998C14.6324 1 14.7596 1.05268 14.8534 1.14645C14.9472 1.24021 14.9998 1.36739 14.9998 1.5V6.5C14.9998 6.63261 14.9472 6.75979 14.8534 6.85355C14.7596 6.94732 14.6324 7 14.4998 7C14.3672 7 14.24 6.94732 14.1463 6.85355C14.0525 6.75979 13.9998 6.63261 13.9998 6.5V2.707L9.87083 6.836C10.6826 7.82919 11.0817 9.0964 10.9854 10.3755C10.8892 11.6547 10.305 12.8479 9.35364 13.7084C8.40233 14.5689 7.15669 15.0309 5.87434 14.9987C4.59198 14.9666 3.37102 14.4429 2.46398 13.5359C1.55694 12.6288 1.03319 11.4078 1.00108 10.1255C0.968966 8.84314 1.43093 7.5975 2.29144 6.64619C3.15194 5.69488 4.34516 5.11068 5.6243 5.01442C6.90343 4.91815 8.17064 5.31719 9.16383 6.129L13.2928 2H9.49983ZM5.99983 6C4.93896 6 3.92155 6.42143 3.1714 7.17157C2.42126 7.92172 1.99983 8.93913 1.99983 10C1.99983 11.0609 2.42126 12.0783 3.1714 12.8284C3.92155 13.5786 4.93896 14 5.99983 14C7.0607 14 8.07811 13.5786 8.82826 12.8284C9.5784 12.0783 9.99983 11.0609 9.99983 10C9.99983 8.93913 9.5784 7.92172 8.82826 7.17157C8.07811 6.42143 7.0607 6 5.99983 6Z" fill="#212529"/>
</svg>
