<svg width="16" height="16" viewBox="0 0 16 16" fill="none" xmlns="http://www.w3.org/2000/svg">
<path d="M9.97189 2.50803C10.0061 2.4102 10.0091 2.30415 9.98048 2.20454C9.95182 2.10493 9.8929 2.01669 9.81189 1.95203L9.63389 1.82303C9.00913 1.41012 8.29973 1.14256 7.55789 1.04003C6.21489 0.862031 4.50389 1.22903 2.83989 3.13303H1.78589C1.72012 3.13304 1.65499 3.14604 1.59425 3.17126C1.5335 3.19649 1.47833 3.23345 1.43189 3.28003L0.145894 4.56703C0.052464 4.66075 0 4.78769 0 4.92003C0 5.05237 0.052464 5.17931 0.145894 5.27303L2.71689 7.85203C2.76334 7.89859 2.81852 7.93554 2.87926 7.96074C2.94001 7.98595 3.00513 7.99892 3.07089 7.99892C3.13666 7.99892 3.20178 7.98595 3.26253 7.96074C3.32327 7.93554 3.37845 7.89859 3.42489 7.85203L4.71089 6.56203C4.80436 6.46833 4.85687 6.34138 4.85689 6.20903V5.57003L13.2439 14.443C13.2866 14.501 13.3413 14.549 13.4043 14.5839C13.4673 14.6187 13.537 14.6396 13.6088 14.645C13.6806 14.6504 13.7527 14.6403 13.8202 14.6152C13.8877 14.5902 13.949 14.5509 13.9999 14.5L15.4999 13C15.5906 12.9093 15.6429 12.7872 15.6461 12.6589C15.6492 12.5307 15.603 12.4061 15.5169 12.311L6.38789 3.68103C7.13489 3.22503 8.15989 2.84203 9.49989 2.84203C9.60347 2.84211 9.70452 2.81001 9.78907 2.75018C9.87362 2.69035 9.93751 2.60574 9.97189 2.50803Z" fill="#212529"/>
</svg>
