<svg width="16" height="16" viewBox="0 0 16 16" fill="none" xmlns="http://www.w3.org/2000/svg">
<g clip-path="url(#clip0_34_4398)">
<path d="M7.9998 1C8.53023 1 9.03894 1.21071 9.41401 1.58579C9.78908 1.96086 9.9998 2.46957 9.9998 3V5H5.9998V3C5.9998 2.46957 6.21051 1.96086 6.58558 1.58579C6.96066 1.21071 7.46936 1 7.9998 1ZM10.9998 5V3C10.9998 2.20435 10.6837 1.44129 10.1211 0.87868C9.55851 0.31607 8.79545 0 7.9998 0C7.20415 0 6.44109 0.31607 5.87848 0.87868C5.31587 1.44129 4.9998 2.20435 4.9998 3V5H3.3598C3.00067 5.00008 2.65349 5.129 2.38136 5.36334C2.10922 5.59767 1.93019 5.92186 1.8768 6.277L0.849797 13.13C0.796585 13.4856 0.820697 13.8485 0.920488 14.1939C1.02028 14.5393 1.1934 14.8591 1.42804 15.1315C1.66269 15.404 1.95333 15.6226 2.28014 15.7724C2.60696 15.9223 2.96226 15.9999 3.3218 16H12.6768C13.0364 16.0001 13.3918 15.9226 13.7188 15.7728C14.0457 15.6229 14.3365 15.4044 14.5712 15.1319C14.806 14.8595 14.9792 14.5396 15.079 14.1941C15.1789 13.8486 15.203 13.4857 15.1498 13.13L14.1218 6.277C14.0684 5.92204 13.8895 5.59798 13.6176 5.36366C13.3457 5.12935 12.9988 5.00032 12.6398 5H10.9998ZM9.9998 6V7.5C9.9998 7.63261 10.0525 7.75979 10.1462 7.85355C10.24 7.94732 10.3672 8 10.4998 8C10.6324 8 10.7596 7.94732 10.8534 7.85355C10.9471 7.75979 10.9998 7.63261 10.9998 7.5V6H12.6388C12.7585 6.00012 12.8742 6.04318 12.9648 6.12135C13.0555 6.19952 13.1151 6.30762 13.1328 6.426L14.1608 13.277C14.1929 13.4904 14.1785 13.7082 14.1187 13.9156C14.059 14.1229 13.9551 14.315 13.8143 14.4785C13.6736 14.6421 13.4991 14.7733 13.303 14.8633C13.1069 14.9533 12.8936 15 12.6778 15H3.3218C3.10599 15 2.89274 14.9533 2.69659 14.8633C2.50045 14.7733 2.32603 14.6421 2.18525 14.4785C2.04447 14.315 1.94064 14.1229 1.88085 13.9156C1.82106 13.7082 1.80671 13.4904 1.8388 13.277L2.8668 6.426C2.88449 6.30779 2.94394 6.19982 3.03438 6.12167C3.12482 6.04352 3.24027 6.00036 3.3598 6H4.9998V7.5C4.9998 7.63261 5.05248 7.75979 5.14624 7.85355C5.24001 7.94732 5.36719 8 5.4998 8C5.63241 8 5.75958 7.94732 5.85335 7.85355C5.94712 7.75979 5.9998 7.63261 5.9998 7.5V6H9.9998Z" fill="#212529"/>
</g>
<defs>
<clipPath id="clip0_34_4398">
<rect width="16" height="16" fill="white"/>
</clipPath>
</defs>
</svg>
