<svg width="16" height="16" viewBox="0 0 16 16" fill="none" xmlns="http://www.w3.org/2000/svg">
<g clip-path="url(#clip0_34_4460)">
<path fill-rule="evenodd" clip-rule="evenodd" d="M1.47495 9.00006C2.70195 10.8401 4.77895 12.8711 7.99995 15.0001C11.221 12.8711 13.298 10.8401 14.525 9.00006H12C11.9001 9.00004 11.8025 8.97012 11.7198 8.91415C11.6371 8.85819 11.5731 8.77875 11.536 8.68606L10.079 5.04406L8.48095 10.6371C8.45238 10.7374 8.39316 10.8262 8.31157 10.8912C8.22999 10.9562 8.13013 10.994 8.02597 10.9994C7.92181 11.0048 7.81858 10.9775 7.73071 10.9213C7.64284 10.8651 7.57474 10.7829 7.53595 10.6861L5.88895 6.56806L4.41595 8.77806C4.37022 8.84642 4.30833 8.90245 4.23577 8.94118C4.1632 8.9799 4.0822 9.00013 3.99995 9.00006H1.47495ZM0.878952 8.00006C-2.42605 1.68006 4.40995 -1.99994 7.82395 1.14306C7.88395 1.19806 7.94295 1.25506 7.99995 1.31406C8.05637 1.25511 8.11508 1.1984 8.17595 1.14406C11.59 -1.99994 18.426 1.68006 15.12 8.00006H12.337L10.463 3.31406C10.4242 3.21725 10.3561 3.13499 10.2682 3.0788C10.1803 3.02261 10.0771 2.9953 9.97293 3.0007C9.86878 3.0061 9.76892 3.04394 9.68733 3.10892C9.60575 3.17389 9.54652 3.26275 9.51795 3.36306L7.92095 8.95606L6.46395 5.31406C6.43002 5.22957 6.37366 5.15596 6.30096 5.10115C6.22826 5.04634 6.14197 5.01243 6.05141 5.00306C5.96084 4.9937 5.86944 5.00924 5.78706 5.04801C5.70469 5.08678 5.63446 5.1473 5.58395 5.22306L3.73195 8.00006H0.879952H0.878952Z" fill="black"/>
</g>
<defs>
<clipPath id="clip0_34_4460">
<rect width="16" height="16" fill="white"/>
</clipPath>
</defs>
</svg>
