<svg width="16" height="16" viewBox="0 0 16 16" fill="none" xmlns="http://www.w3.org/2000/svg">
<g clip-path="url(#clip0_34_4466)">
<path fill-rule="evenodd" clip-rule="evenodd" d="M7.77892 0.0519808C7.84767 0.0181061 7.92328 0.000488281 7.99992 0.000488281C8.07656 0.000488281 8.15218 0.0181061 8.22092 0.0519808L14.2359 3.02198C14.303 3.05507 14.3619 3.10279 14.4081 3.16163C14.4543 3.22048 14.4867 3.28894 14.5029 3.36198L15.9879 10.038C16.0039 10.1097 16.0038 10.1841 15.9877 10.2559C15.9717 10.3276 15.94 10.3949 15.8949 10.453L11.7329 15.807C11.6861 15.8671 11.6262 15.9158 11.5578 15.9492C11.4893 15.9827 11.4141 16 11.3379 16H4.66192C4.58573 16 4.51053 15.9827 4.44207 15.9492C4.37362 15.9158 4.31371 15.8671 4.26692 15.807L0.104924 10.453C0.059869 10.3949 0.0281755 10.3276 0.0121009 10.2559C-0.00397376 10.1841 -0.00403413 10.1097 0.0119241 10.038L1.49692 3.36198C1.51315 3.28894 1.54557 3.22048 1.59178 3.16163C1.63799 3.10279 1.69682 3.05507 1.76392 3.02198L7.77892 0.0529808V0.0519808Z" fill="#212529"/>
</g>
<defs>
<clipPath id="clip0_34_4466">
<rect width="16" height="16" fill="white"/>
</clipPath>
</defs>
</svg>
