<svg width="16" height="16" viewBox="0 0 16 16" fill="none" xmlns="http://www.w3.org/2000/svg">
<g clip-path="url(#clip0_34_4470)">
<path d="M8.5 6.13418V5.03418H7.5V6.13418L6.547 5.58418L6.047 6.45018L7 7.00018L6.047 7.55018L6.547 8.41618L7.5 7.86618V8.96618H8.5V7.86618L9.453 8.41618L9.953 7.55018L9 7.00018L9.953 6.45118L9.453 5.58418L8.5 6.13418Z" fill="black"/>
<path d="M13.0732 9.0734C13.1201 9.02652 13.1837 9.00018 13.25 9.00018H13.75C13.8163 9.00018 13.8799 9.02652 13.9268 9.0734C13.9737 9.12029 14 9.18388 14 9.25018V9.75018C14 9.81648 13.9737 9.88007 13.9268 9.92696C13.8799 9.97384 13.8163 10.0002 13.75 10.0002H13.25C13.112 10.0002 13 9.88818 13 9.75018V9.25018C13 9.18388 13.0263 9.12029 13.0732 9.0734Z" fill="black"/>
<path d="M13.0732 11.0734C13.0263 11.1203 13 11.1839 13 11.2502V11.7502C13 11.8165 13.0263 11.8801 13.0732 11.927C13.1201 11.9738 13.1837 12.0002 13.25 12.0002H13.75C13.8163 12.0002 13.8799 11.9738 13.9268 11.927C13.9737 11.8801 14 11.8165 14 11.7502V11.2502C14 11.1839 13.9737 11.1203 13.9268 11.0734C13.8799 11.0265 13.8163 11.0002 13.75 11.0002H13.25C13.1837 11.0002 13.1201 11.0265 13.0732 11.0734Z" fill="black"/>
<path d="M13.0732 13.0734C13.1201 13.0265 13.1837 13.0002 13.25 13.0002H13.75C13.8163 13.0002 13.8799 13.0265 13.9268 13.0734C13.9737 13.1203 14 13.1839 14 13.2502V13.7502C14 13.8165 13.9737 13.8801 13.9268 13.927C13.8799 13.9738 13.8163 14.0002 13.75 14.0002H13.25C13.112 14.0002 13 13.8882 13 13.7502V13.2502C13 13.1839 13.0263 13.1203 13.0732 13.0734Z" fill="black"/>
<path d="M2.07322 9.0734C2.12011 9.02652 2.1837 9.00018 2.25 9.00018H2.75C2.8163 9.00018 2.87989 9.02652 2.92678 9.0734C2.97366 9.12029 3 9.18388 3 9.25018V9.75018C3 9.81648 2.97366 9.88007 2.92678 9.92696C2.87989 9.97384 2.8163 10.0002 2.75 10.0002H2.25C2.112 10.0002 2 9.88818 2 9.75018V9.25018C2 9.18388 2.02634 9.12029 2.07322 9.0734Z" fill="black"/>
<path d="M2.07322 11.0734C2.12011 11.0265 2.1837 11.0002 2.25 11.0002H2.75C2.8163 11.0002 2.87989 11.0265 2.92678 11.0734C2.97366 11.1203 3 11.1839 3 11.2502V11.7502C3 11.8165 2.97366 11.8801 2.92678 11.927C2.87989 11.9738 2.8163 12.0002 2.75 12.0002H2.25C2.112 12.0002 2 11.8882 2 11.7502V11.2502C2 11.1839 2.02634 11.1203 2.07322 11.0734Z" fill="black"/>
<path d="M2.07322 13.0734C2.02634 13.1203 2 13.1839 2 13.2502V13.7502C2 13.8165 2.02634 13.8801 2.07322 13.927C2.12011 13.9738 2.1837 14.0002 2.25 14.0002H2.75C2.8163 14.0002 2.87989 13.9738 2.92678 13.927C2.97366 13.8801 3 13.8165 3 13.7502V13.2502C3 13.1839 2.97366 13.1203 2.92678 13.0734C2.87989 13.0265 2.8163 13.0002 2.75 13.0002H2.25C2.1837 13.0002 2.12011 13.0265 2.07322 13.0734Z" fill="black"/>
<path fill-rule="evenodd" clip-rule="evenodd" d="M5.29289 0.292893C5.10536 0.48043 5 0.734784 5 1V2C4.73478 2 4.48043 2.10536 4.29289 2.29289C4.10536 2.48043 4 2.73478 4 3V7H1C0.734784 7 0.48043 7.10536 0.292893 7.29289C0.105357 7.48043 0 7.73478 0 8V15C0 15.2652 0.105357 15.5196 0.292893 15.7071C0.48043 15.8946 0.734784 16 1 16H15C15.2652 16 15.5196 15.8946 15.7071 15.7071C15.8946 15.5196 16 15.2652 16 15V8C16 7.73478 15.8946 7.48043 15.7071 7.29289C15.5196 7.10536 15.2652 7 15 7H12V3C12 2.73478 11.8946 2.48043 11.7071 2.29289C11.5196 2.10536 11.2652 2 11 2V1C11 0.734784 10.8946 0.48043 10.7071 0.292893C10.5196 0.105357 10.2652 0 10 0H6C5.73478 0 5.48043 0.105357 5.29289 0.292893ZM9 15H7V12H9V15ZM11 15H10V12C10 11.7348 9.89464 11.4804 9.70711 11.2929C9.51957 11.1054 9.26522 11 9 11H7C6.73478 11 6.48043 11.1054 6.29289 11.2929C6.10536 11.4804 6 11.7348 6 12V15H5V3H11V15ZM6 1H10V2H6V1ZM12 15V8H15V15H12ZM4 8V15H1V8H4Z" fill="black"/>
</g>
<defs>
<clipPath id="clip0_34_4470">
<rect width="16" height="16" fill="white"/>
</clipPath>
</defs>
</svg>
