<svg width="16" height="16" viewBox="0 0 16 16" fill="none" xmlns="http://www.w3.org/2000/svg">
<path d="M8.354 1.14592C8.30756 1.09935 8.25238 1.06241 8.19163 1.0372C8.13089 1.012 8.06577 0.999023 8 0.999023C7.93423 0.999023 7.86911 1.012 7.80837 1.0372C7.74762 1.06241 7.69245 1.09935 7.646 1.14592L1.646 7.14592C1.5996 7.19244 1.56282 7.24764 1.53777 7.30839C1.51272 7.36913 1.49988 7.43421 1.5 7.49992V14.4999C1.5 14.6325 1.55268 14.7597 1.64645 14.8535C1.74022 14.9472 1.86739 14.9999 2 14.9999H6.5C6.63261 14.9999 6.75979 14.9472 6.85355 14.8535C6.94732 14.7597 7 14.6325 7 14.4999V10.4999H9V14.4999C9 14.6325 9.05268 14.7597 9.14645 14.8535C9.24022 14.9472 9.36739 14.9999 9.5 14.9999H14C14.1326 14.9999 14.2598 14.9472 14.3536 14.8535C14.4473 14.7597 14.5 14.6325 14.5 14.4999V7.49992C14.5001 7.43421 14.4873 7.36913 14.4622 7.30839C14.4372 7.24764 14.4004 7.19244 14.354 7.14592L13 5.79292V2.49992C13 2.36731 12.9473 2.24013 12.8536 2.14636C12.7598 2.0526 12.6326 1.99992 12.5 1.99992H11.5C11.3674 1.99992 11.2402 2.0526 11.1464 2.14636C11.0527 2.24013 11 2.36731 11 2.49992V3.79292L8.354 1.14592ZM2.5 13.9999V7.70692L8 2.20692L13.5 7.70692V13.9999H10V9.99992C10 9.86731 9.94732 9.74013 9.85355 9.64636C9.75979 9.5526 9.63261 9.49992 9.5 9.49992H6.5C6.36739 9.49992 6.24022 9.5526 6.14645 9.64636C6.05268 9.74013 6 9.86731 6 9.99992V13.9999H2.5Z" fill="#212529"/>
</svg>
