<svg width="16" height="16" viewBox="0 0 16 16" fill="none" xmlns="http://www.w3.org/2000/svg">
<path d="M7.99979 1.20703C8.26495 1.20703 8.51926 1.31235 8.70679 1.49982L10.9998 3.79282V2.49982C10.9998 2.36721 11.0525 2.24003 11.1462 2.14626C11.24 2.0525 11.3672 1.99982 11.4998 1.99982H12.4998C12.6324 1.99982 12.7596 2.0525 12.8533 2.14626C12.9471 2.24003 12.9998 2.36721 12.9998 2.49982V5.79282L15.3538 8.14582C15.4475 8.2397 15.5002 8.36699 15.5001 8.49967C15.5 8.63235 15.4472 8.75956 15.3533 8.85332C15.2594 8.94707 15.1321 8.99969 14.9994 8.9996C14.8668 8.9995 14.7395 8.9467 14.6458 8.85282L7.99979 2.20682L1.35379 8.85282C1.26004 8.9467 1.13283 8.9995 1.00014 8.9996C0.867462 8.99969 0.740176 8.94707 0.64629 8.85332C0.552403 8.75956 0.499606 8.63235 0.499512 8.49967C0.499418 8.36699 0.552036 8.2397 0.64579 8.14582L7.29279 1.49982C7.48032 1.31235 7.73463 1.20703 7.99979 1.20703Z" fill="black"/>
<path fill-rule="evenodd" clip-rule="evenodd" d="M13.9998 9.29297L7.99979 3.29297L1.99979 9.29297V13.5C1.99979 13.8978 2.15782 14.2793 2.43913 14.5606C2.72043 14.8419 3.10196 15 3.49979 15H12.4998C12.8976 15 13.2791 14.8419 13.5604 14.5606C13.8418 14.2793 13.9998 13.8978 13.9998 13.5V9.29297ZM7.99979 8.48197C9.66379 6.80897 13.8248 9.73597 7.99979 13.5C2.17479 9.73597 6.33579 6.80897 7.99979 8.48197Z" fill="black"/>
</svg>
