<svg width="16" height="16" viewBox="0 0 16 16" fill="none" xmlns="http://www.w3.org/2000/svg">
<g clip-path="url(#clip0_34_4508)">
<path d="M6.99995 2.5C6.99995 3.16304 6.73656 3.79893 6.26772 4.26777C5.79888 4.73661 5.16299 5 4.49995 5C3.83691 5 3.20103 4.73661 2.73219 4.26777C2.26335 3.79893 1.99995 3.16304 1.99995 2.5C1.99995 1.83696 2.26335 1.20107 2.73219 0.732233C3.20103 0.263392 3.83691 0 4.49995 0C5.16299 0 5.79888 0.263392 6.26772 0.732233C6.73656 1.20107 6.99995 1.83696 6.99995 2.5ZM11.225 6.553C11.1312 6.50602 11.025 6.48973 10.9215 6.50642C10.8179 6.52311 10.7222 6.57194 10.648 6.646L6.93795 11.356L4.27795 8.584C4.18191 8.52006 4.06672 8.4913 3.95189 8.5026C3.83707 8.5139 3.72969 8.56456 3.64795 8.646L0.00195312 13V15C0.00195313 15.2652 0.10731 15.5196 0.294846 15.7071C0.482383 15.8946 0.736737 16 1.00195 16H15.002C15.1333 16 15.2633 15.9741 15.3846 15.9239C15.506 15.8736 15.6162 15.8 15.7091 15.7071C15.8019 15.6142 15.8756 15.504 15.9258 15.3827C15.9761 15.2614 16.002 15.1313 16.002 15V10.5L11.225 6.553Z" fill="#212529"/>
</g>
<defs>
<clipPath id="clip0_34_4508">
<rect width="16" height="16" fill="white"/>
</clipPath>
</defs>
</svg>
