<svg width="16" height="16" viewBox="0 0 16 16" fill="none" xmlns="http://www.w3.org/2000/svg">
<path fill-rule="evenodd" clip-rule="evenodd" d="M6.146 6.146C6.19245 6.09944 6.24762 6.06249 6.30837 6.03729C6.36911 6.01208 6.43423 5.99911 6.5 5.99911C6.56577 5.99911 6.63089 6.01208 6.69163 6.03729C6.75238 6.06249 6.80755 6.09944 6.854 6.146L8 7.293L9.146 6.146C9.19249 6.09951 9.24768 6.06264 9.30842 6.03748C9.36916 6.01232 9.43426 5.99937 9.5 5.99937C9.56574 5.99937 9.63084 6.01232 9.69158 6.03748C9.75232 6.06264 9.80751 6.09951 9.854 6.146C9.90049 6.19249 9.93736 6.24768 9.96252 6.30842C9.98768 6.36916 10.0006 6.43426 10.0006 6.5C10.0006 6.56574 9.98768 6.63084 9.96252 6.69158C9.93736 6.75232 9.90049 6.80751 9.854 6.854L8.707 8L9.854 9.146C9.94789 9.23989 10.0006 9.36722 10.0006 9.5C10.0006 9.63278 9.94789 9.76011 9.854 9.854C9.76011 9.94789 9.63278 10.0006 9.5 10.0006C9.36722 10.0006 9.23989 9.94789 9.146 9.854L8 8.707L6.854 9.854C6.76011 9.94789 6.63278 10.0006 6.5 10.0006C6.36722 10.0006 6.23989 9.94789 6.146 9.854C6.05211 9.76011 5.99937 9.63278 5.99937 9.5C5.99937 9.36722 6.05211 9.23989 6.146 9.146L7.293 8L6.146 6.854C6.09944 6.80755 6.06249 6.75238 6.03729 6.69163C6.01208 6.63089 5.99911 6.56577 5.99911 6.5C5.99911 6.43423 6.01208 6.36911 6.03729 6.30837C6.06249 6.24762 6.09944 6.19245 6.146 6.146Z" fill="#212529"/>
<path d="M3 0H13C13.5304 0 14.0391 0.210714 14.4142 0.585786C14.7893 0.960859 15 1.46957 15 2V14C15 14.5304 14.7893 15.0391 14.4142 15.4142C14.0391 15.7893 13.5304 16 13 16H3C2.46957 16 1.96086 15.7893 1.58579 15.4142C1.21071 15.0391 1 14.5304 1 14V13H2V14C2 14.2652 2.10536 14.5196 2.29289 14.7071C2.48043 14.8946 2.73478 15 3 15H13C13.2652 15 13.5196 14.8946 13.7071 14.7071C13.8946 14.5196 14 14.2652 14 14V2C14 1.73478 13.8946 1.48043 13.7071 1.29289C13.5196 1.10536 13.2652 1 13 1H3C2.73478 1 2.48043 1.10536 2.29289 1.29289C2.10536 1.48043 2 1.73478 2 2V3H1V2C1 1.46957 1.21071 0.960859 1.58579 0.585786C1.96086 0.210714 2.46957 0 3 0Z" fill="#212529"/>
<path d="M1 5V4.5C1 4.36739 1.05268 4.24021 1.14645 4.14645C1.24021 4.05268 1.36739 4 1.5 4C1.63261 4 1.75979 4.05268 1.85355 4.14645C1.94732 4.24021 2 4.36739 2 4.5V5H2.5C2.63261 5 2.75979 5.05268 2.85355 5.14645C2.94732 5.24021 3 5.36739 3 5.5C3 5.63261 2.94732 5.75979 2.85355 5.85355C2.75979 5.94732 2.63261 6 2.5 6H0.5C0.367392 6 0.240215 5.94732 0.146447 5.85355C0.0526784 5.75979 0 5.63261 0 5.5C0 5.36739 0.0526784 5.24021 0.146447 5.14645C0.240215 5.05268 0.367392 5 0.5 5H1ZM1 8V7.5C1 7.36739 1.05268 7.24021 1.14645 7.14645C1.24021 7.05268 1.36739 7 1.5 7C1.63261 7 1.75979 7.05268 1.85355 7.14645C1.94732 7.24021 2 7.36739 2 7.5V8H2.5C2.63261 8 2.75979 8.05268 2.85355 8.14645C2.94732 8.24021 3 8.36739 3 8.5C3 8.63261 2.94732 8.75979 2.85355 8.85355C2.75979 8.94732 2.63261 9 2.5 9H0.5C0.367392 9 0.240215 8.94732 0.146447 8.85355C0.0526784 8.75979 0 8.63261 0 8.5C0 8.36739 0.0526784 8.24021 0.146447 8.14645C0.240215 8.05268 0.367392 8 0.5 8H1ZM1 11V10.5C1 10.3674 1.05268 10.2402 1.14645 10.1464C1.24021 10.0527 1.36739 10 1.5 10C1.63261 10 1.75979 10.0527 1.85355 10.1464C1.94732 10.2402 2 10.3674 2 10.5V11H2.5C2.63261 11 2.75979 11.0527 2.85355 11.1464C2.94732 11.2402 3 11.3674 3 11.5C3 11.6326 2.94732 11.7598 2.85355 11.8536C2.75979 11.9473 2.63261 12 2.5 12H0.5C0.367392 12 0.240215 11.9473 0.146447 11.8536C0.0526784 11.7598 0 11.6326 0 11.5C0 11.3674 0.0526784 11.2402 0.146447 11.1464C0.240215 11.0527 0.367392 11 0.5 11H1Z" fill="#212529"/>
</svg>
