<svg width="16" height="16" viewBox="0 0 16 16" fill="none" xmlns="http://www.w3.org/2000/svg">
<path fill-rule="evenodd" clip-rule="evenodd" d="M5.0402 0.303C5.07878 0.213 5.14294 0.13631 5.22471 0.0824451C5.30649 0.0285805 5.40228 -8.6892e-05 5.5002 1.97841e-07H10.5002C10.7002 1.97841e-07 10.8802 0.12 10.9602 0.303L13.9602 7.303C13.9895 7.37148 14.003 7.44562 14 7.52003C13.9969 7.59443 13.9773 7.66721 13.9425 7.73305C13.9077 7.79889 13.8586 7.85612 13.7989 7.90058C13.7392 7.94503 13.6703 7.97558 13.5972 7.99H13.5952C13.4452 8.02 13.2952 8.046 13.1452 8.071C11.6089 8.32295 10.0567 8.46498 8.5002 8.496V13.5C8.5002 13.6326 8.44752 13.7598 8.35375 13.8536C8.25998 13.9473 8.13281 14 8.0002 14C7.86759 14 7.74041 13.9473 7.64664 13.8536C7.55288 13.7598 7.5002 13.6326 7.5002 13.5V8.495C5.94373 8.4639 4.39146 8.32188 2.8552 8.07C2.7052 8.045 2.5552 8.02 2.4052 7.99H2.4022C2.3291 7.9755 2.26017 7.94484 2.20045 7.90026C2.14073 7.85569 2.09172 7.79833 2.05702 7.73238C2.02232 7.66643 2.0028 7.59356 1.99989 7.5191C1.99698 7.44463 2.01075 7.37046 2.0402 7.302L5.0402 0.302V0.303ZM3.2102 7.116C4.79465 7.36667 6.39604 7.49505 8.0002 7.5C9.60468 7.4951 11.2064 7.36673 12.7912 7.116L10.1712 1H5.8302L3.2102 7.116Z" fill="#212529"/>
<path d="M6.4932 12.574C6.51488 12.7047 6.48377 12.8387 6.40671 12.9466C6.32964 13.0544 6.21292 13.1272 6.0822 13.149C5.3702 13.267 4.8022 13.444 4.4272 13.642C4.28944 13.7082 4.16424 13.7979 4.0572 13.907C4.03615 13.9292 4.01862 13.9545 4.0052 13.982L4.0042 13.986L4.0002 13.996V14L4.0022 14.008C4.00613 14.0196 4.01151 14.0307 4.0182 14.041C4.05771 14.0988 4.10674 14.1495 4.1632 14.191C4.3282 14.321 4.5982 14.461 4.9762 14.586C5.7272 14.836 6.7962 15 8.0002 15C9.2042 15 10.2732 14.837 11.0242 14.586C11.4022 14.46 11.6722 14.321 11.8372 14.191C11.894 14.1496 11.9434 14.0989 11.9832 14.041C11.9895 14.0307 11.9946 14.0196 11.9982 14.008L12.0002 14V13.996C11.9867 13.9629 11.9674 13.9324 11.9432 13.906C11.8361 13.7972 11.7109 13.7079 11.5732 13.642C11.1972 13.444 10.6302 13.267 9.9182 13.149C9.85187 13.14 9.78803 13.1178 9.73045 13.0837C9.67287 13.0496 9.62273 13.0042 9.58299 12.9504C9.54326 12.8965 9.51474 12.8352 9.49913 12.7702C9.48352 12.7051 9.48113 12.6375 9.49211 12.5715C9.50309 12.5055 9.52722 12.4423 9.56306 12.3858C9.59889 12.3293 9.64571 12.2805 9.70074 12.2424C9.75577 12.2043 9.81789 12.1777 9.88342 12.164C9.94894 12.1504 10.0165 12.15 10.0822 12.163C10.8522 12.29 11.5342 12.491 12.0392 12.757C12.5002 13 13.0002 13.4 13.0002 14C13.0002 14.426 12.7402 14.752 12.4562 14.977C12.1662 15.205 11.7762 15.39 11.3402 15.535C10.4622 15.828 9.2812 16 8.0002 16C6.7192 16 5.5382 15.828 4.6602 15.535C4.2242 15.39 3.8342 15.205 3.5442 14.977C3.2602 14.752 3.0002 14.426 3.0002 14C3.0002 13.401 3.5002 13 3.9612 12.757C4.4662 12.491 5.1482 12.29 5.9182 12.163C6.04894 12.1413 6.18295 12.1724 6.29076 12.2495C6.39858 12.3266 6.47139 12.4433 6.4932 12.574Z" fill="#212529"/>
</svg>
