<svg width="16" height="16" viewBox="0 0 16 16" fill="none" xmlns="http://www.w3.org/2000/svg">
<g clip-path="url(#clip0_34_4728)">
<path d="M7.646 0.145917C7.69245 0.099354 7.74762 0.0624111 7.80837 0.0372047C7.86911 0.0119982 7.93423 -0.000976563 8 -0.000976562C8.06577 -0.000976563 8.13089 0.0119982 8.19163 0.0372047C8.25238 0.0624111 8.30755 0.099354 8.354 0.145917L10.207 1.99992H14C14.5304 1.99992 15.0391 2.21063 15.4142 2.5857C15.7893 2.96078 16 3.46948 16 3.99992V12.9999C16 13.5303 15.7893 14.0391 15.4142 14.4141C15.0391 14.7892 14.5304 14.9999 14 14.9999H2C1.46957 14.9999 0.960859 14.7892 0.585786 14.4141C0.210714 14.0391 0 13.5303 0 12.9999V3.99992C0 3.46948 0.210714 2.96078 0.585786 2.5857C0.960859 2.21063 1.46957 1.99992 2 1.99992H5.793L7.646 0.145917ZM1 6.99992V9.99992H15V6.99992H1ZM15 5.99992V3.99992C15 3.7347 14.8946 3.48035 14.7071 3.29281C14.5196 3.10527 14.2652 2.99992 14 2.99992H10.207C9.9418 2.99986 9.68749 2.89447 9.5 2.70692L8 1.20692L6.5 2.70692C6.31251 2.89447 6.0582 2.99986 5.793 2.99992H2C1.73478 2.99992 1.48043 3.10527 1.29289 3.29281C1.10536 3.48035 1 3.7347 1 3.99992V5.99992H15ZM15 10.9999H1V12.9999C1 13.2651 1.10536 13.5195 1.29289 13.707C1.48043 13.8946 1.73478 13.9999 2 13.9999H14C14.2652 13.9999 14.5196 13.8946 14.7071 13.707C14.8946 13.5195 15 13.2651 15 12.9999V10.9999ZM2 4.49992C2 4.36731 2.05268 4.24013 2.14645 4.14636C2.24021 4.0526 2.36739 3.99992 2.5 3.99992H10.5C10.6326 3.99992 10.7598 4.0526 10.8536 4.14636C10.9473 4.24013 11 4.36731 11 4.49992C11 4.63253 10.9473 4.7597 10.8536 4.85347C10.7598 4.94724 10.6326 4.99992 10.5 4.99992H2.5C2.36739 4.99992 2.24021 4.94724 2.14645 4.85347C2.05268 4.7597 2 4.63253 2 4.49992ZM2 8.49992C2 8.36731 2.05268 8.24013 2.14645 8.14636C2.24021 8.0526 2.36739 7.99992 2.5 7.99992H13.5C13.6326 7.99992 13.7598 8.0526 13.8536 8.14636C13.9473 8.24013 14 8.36731 14 8.49992C14 8.63253 13.9473 8.7597 13.8536 8.85347C13.7598 8.94724 13.6326 8.99992 13.5 8.99992H2.5C2.36739 8.99992 2.24021 8.94724 2.14645 8.85347C2.05268 8.7597 2 8.63253 2 8.49992ZM2 12.4999C2 12.3673 2.05268 12.2401 2.14645 12.1464C2.24021 12.0526 2.36739 11.9999 2.5 11.9999H8.5C8.63261 11.9999 8.75979 12.0526 8.85355 12.1464C8.94732 12.2401 9 12.3673 9 12.4999C9 12.6325 8.94732 12.7597 8.85355 12.8535C8.75979 12.9472 8.63261 12.9999 8.5 12.9999H2.5C2.36739 12.9999 2.24021 12.9472 2.14645 12.8535C2.05268 12.7597 2 12.6325 2 12.4999Z" fill="#212529"/>
</g>
<defs>
<clipPath id="clip0_34_4728">
<rect width="16" height="16" fill="white"/>
</clipPath>
</defs>
</svg>
