<svg width="16" height="16" viewBox="0 0 16 16" fill="none" xmlns="http://www.w3.org/2000/svg">
<g clip-path="url(#clip0_34_4760)">
<path d="M6 0.278054C6.09761 0.396667 6.15741 0.541826 6.17168 0.694777C6.18594 0.847728 6.154 1.00144 6.08 1.13605C5.50186 2.19753 5.19993 3.38735 5.202 4.59605C5.202 8.61705 8.48 11.8731 12.52 11.8731C13.047 11.8731 13.56 11.8181 14.053 11.7131C14.2041 11.6803 14.3615 11.6928 14.5056 11.749C14.6497 11.8052 14.774 11.9026 14.863 12.0291C14.957 12.1605 15.0049 12.3193 14.9993 12.4808C14.9937 12.6423 14.9349 12.7974 14.832 12.9221C14.0477 13.8855 13.0582 14.6618 11.9358 15.1942C10.8134 15.7267 9.58632 16.002 8.344 16.0001C3.734 16.0001 0 12.2861 0 7.71005C0 4.26605 2.114 1.31205 5.124 0.0600544C5.27394 -0.00331379 5.44039 -0.0163198 5.59835 0.02299C5.75631 0.0622999 5.89725 0.151803 6 0.278054ZM4.858 1.31105C3.7006 1.93188 2.73304 2.8547 2.05813 3.98142C1.38323 5.10814 1.0262 6.39666 1.025 7.71005C1.025 11.7301 4.304 14.9861 8.344 14.9861C9.31144 14.9877 10.2696 14.7975 11.1631 14.4264C12.0565 14.0553 12.8675 13.5107 13.549 12.8241C13.212 12.8661 12.869 12.8871 12.52 12.8871C7.91 12.8871 4.177 9.17305 4.177 4.59705C4.177 3.43005 4.419 2.31905 4.858 1.31105Z" fill="#212529"/>
<path d="M10.794 3.14805C10.8083 3.10475 10.836 3.06706 10.8729 3.04035C10.9099 3.01364 10.9544 2.99927 11 2.99927C11.0456 2.99927 11.0901 3.01364 11.1271 3.04035C11.164 3.06706 11.1917 3.10475 11.206 3.14805L11.593 4.31005C11.766 4.82805 12.172 5.23405 12.69 5.40705L13.852 5.79405C13.8953 5.80839 13.933 5.83602 13.9597 5.873C13.9864 5.90998 14.0008 5.95444 14.0008 6.00005C14.0008 6.04567 13.9864 6.09013 13.9597 6.12711C13.933 6.16409 13.8953 6.19171 13.852 6.20605L12.69 6.59305C12.4345 6.67817 12.2024 6.82162 12.012 7.01203C11.8216 7.20244 11.6781 7.43458 11.593 7.69005L11.206 8.85205C11.1917 8.89536 11.164 8.93305 11.1271 8.95975C11.0901 8.98646 11.0456 9.00084 11 9.00084C10.9544 9.00084 10.9099 8.98646 10.8729 8.95975C10.836 8.93305 10.8083 8.89536 10.794 8.85205L10.407 7.69005C10.3219 7.43458 10.1784 7.20244 9.98803 7.01203C9.79762 6.82162 9.56548 6.67817 9.31 6.59305L8.148 6.20605C8.10469 6.19171 8.06701 6.16409 8.0403 6.12711C8.01359 6.09013 7.99921 6.04567 7.99921 6.00005C7.99921 5.95444 8.01359 5.90998 8.0403 5.873C8.06701 5.83602 8.10469 5.80839 8.148 5.79405L9.31 5.40705C9.56548 5.32194 9.79762 5.17849 9.98803 4.98808C10.1784 4.79767 10.3219 4.56553 10.407 4.31005L10.794 3.14805ZM13.863 0.0990544C13.8729 0.0705807 13.8914 0.0458903 13.9159 0.028416C13.9405 0.0109416 13.9699 0.00155173 14 0.00155173C14.0301 0.00155173 14.0595 0.0109416 14.0841 0.028416C14.1086 0.0458903 14.1271 0.0705807 14.137 0.0990544L14.395 0.873054C14.51 1.21905 14.781 1.49005 15.127 1.60505L15.901 1.86305C15.9295 1.87293 15.9542 1.89142 15.9716 1.91598C15.9891 1.94053 15.9985 1.96992 15.9985 2.00005C15.9985 2.03019 15.9891 2.05958 15.9716 2.08413C15.9542 2.10868 15.9295 2.12718 15.901 2.13705L15.127 2.39505C14.9565 2.45178 14.8015 2.54747 14.6745 2.67454C14.5474 2.8016 14.4517 2.95654 14.395 3.12705L14.137 3.90105C14.1271 3.92953 14.1086 3.95422 14.0841 3.97169C14.0595 3.98917 14.0301 3.99856 14 3.99856C13.9699 3.99856 13.9405 3.98917 13.9159 3.97169C13.8914 3.95422 13.8729 3.92953 13.863 3.90105L13.605 3.12705C13.5483 2.95654 13.4526 2.8016 13.3255 2.67454C13.1985 2.54747 13.0435 2.45178 12.873 2.39505L12.099 2.13705C12.0705 2.12718 12.0458 2.10868 12.0284 2.08413C12.0109 2.05958 12.0015 2.03019 12.0015 2.00005C12.0015 1.96992 12.0109 1.94053 12.0284 1.91598C12.0458 1.89142 12.0705 1.87293 12.099 1.86305L12.873 1.60505C13.219 1.49005 13.49 1.21905 13.605 0.873054L13.863 0.100054V0.0990544Z" fill="#212529"/>
</g>
<defs>
<clipPath id="clip0_34_4760">
<rect width="16" height="16" fill="white"/>
</clipPath>
</defs>
</svg>
