<svg width="16" height="16" viewBox="0 0 16 16" fill="none" xmlns="http://www.w3.org/2000/svg">
<path fill-rule="evenodd" clip-rule="evenodd" d="M16 8.00014C16.0002 9.283 15.5072 10.5168 14.6232 11.4464C13.7391 12.376 12.5316 12.9303 11.2503 12.9945C9.96906 13.0587 8.71215 12.628 7.73956 11.7915C6.76697 10.9549 6.15313 9.77658 6.025 8.50014H4C4 8.89797 3.84196 9.2795 3.56066 9.5608C3.27936 9.84211 2.89782 10.0001 2.5 10.0001H1.5C1.10218 10.0001 0.720644 9.84211 0.43934 9.5608C0.158035 9.2795 0 8.89797 0 8.50014L0 7.50014C0 7.10232 0.158035 6.72079 0.43934 6.43948C0.720644 6.15818 1.10218 6.00014 1.5 6.00014H2.5C2.89782 6.00014 3.27936 6.15818 3.56066 6.43948C3.84196 6.72079 4 7.10232 4 7.50014H6.025C6.15313 6.2237 6.76697 5.04534 7.73956 4.2088C8.71215 3.37227 9.96906 2.94156 11.2503 3.00579C12.5316 3.07001 13.7391 3.62424 14.6232 4.55384C15.5072 5.48345 16.0002 6.71729 16 8.00014ZM14 8.00014C14 7.86753 13.9473 7.74036 13.8536 7.64659C13.7598 7.55282 13.6326 7.50014 13.5 7.50014H8.5C8.36739 7.50014 8.24021 7.55282 8.14645 7.64659C8.05268 7.74036 8 7.86753 8 8.00014C8 8.13275 8.05268 8.25993 8.14645 8.3537C8.24021 8.44746 8.36739 8.50014 8.5 8.50014H13.5C13.6326 8.50014 13.7598 8.44746 13.8536 8.3537C13.9473 8.25993 14 8.13275 14 8.00014Z" fill="#212529"/>
</svg>
