<svg width="16" height="16" viewBox="0 0 16 16" fill="none" xmlns="http://www.w3.org/2000/svg">
<g clip-path="url(#clip0_34_4854)">
<path d="M5.93317 0.870195C6.20234 0.594736 6.52386 0.375856 6.87882 0.226418C7.23378 0.0769807 7.61503 0 8.00017 0C8.38531 0 8.76656 0.0769807 9.12152 0.226418C9.47649 0.375856 9.798 0.594736 10.0672 0.870195L10.6892 1.5082L11.5792 1.4972C11.9644 1.49264 12.3467 1.56515 12.7035 1.71048C13.0603 1.85581 13.3845 2.07102 13.6569 2.34345C13.9293 2.61589 14.1446 2.94004 14.2899 3.29686C14.4352 3.65367 14.5077 4.03595 14.5032 4.4212L14.4932 5.3112L15.1292 5.9332C15.4046 6.20237 15.6235 6.52388 15.7729 6.87884C15.9224 7.23381 15.9994 7.61506 15.9994 8.0002C15.9994 8.38533 15.9224 8.76659 15.7729 9.12155C15.6235 9.47651 15.4046 9.79803 15.1292 10.0672L14.4922 10.6892L14.5032 11.5792C14.5077 11.9644 14.4352 12.3467 14.2899 12.7035C14.1446 13.0603 13.9293 13.3845 13.6569 13.6569C13.3845 13.9294 13.0603 14.1446 12.7035 14.2899C12.3467 14.4352 11.9644 14.5078 11.5792 14.5032L10.6892 14.4932L10.0672 15.1292C9.798 15.4047 9.47649 15.6235 9.12152 15.773C8.76656 15.9224 8.38531 15.9994 8.00017 15.9994C7.61503 15.9994 7.23378 15.9224 6.87882 15.773C6.52386 15.6235 6.20234 15.4047 5.93317 15.1292L5.31117 14.4922L4.42117 14.5032C4.03592 14.5078 3.65365 14.4352 3.29683 14.2899C2.94002 14.1446 2.61586 13.9294 2.34343 13.6569C2.071 13.3845 1.85579 13.0603 1.71046 12.7035C1.56513 12.3467 1.49261 11.9644 1.49717 11.5792L1.50717 10.6892L0.871172 10.0672C0.595712 9.79803 0.376832 9.47651 0.227395 9.12155C0.0779572 8.76659 0.000976562 8.38533 0.000976562 8.0002C0.000976562 7.61506 0.0779572 7.23381 0.227395 6.87884C0.376832 6.52388 0.595712 6.20237 0.871172 5.9332L1.50817 5.3112L1.49717 4.4212C1.49261 4.03595 1.56513 3.65367 1.71046 3.29686C1.85579 2.94004 2.071 2.61589 2.34343 2.34345C2.61586 2.07102 2.94002 1.85581 3.29683 1.71048C3.65365 1.56515 4.03592 1.49264 4.42117 1.4972L5.31117 1.5072L5.93317 0.871195V0.870195ZM7.00217 11.0002C7.00217 11.1315 7.02804 11.2616 7.07829 11.3829C7.12855 11.5042 7.20221 11.6144 7.29506 11.7073C7.38792 11.8002 7.49816 11.8738 7.61949 11.9241C7.74081 11.9743 7.87085 12.0002 8.00217 12.0002C8.13349 12.0002 8.26353 11.9743 8.38486 11.9241C8.50618 11.8738 8.61642 11.8002 8.70928 11.7073C8.80214 11.6144 8.8758 11.5042 8.92605 11.3829C8.97631 11.2616 9.00217 11.1315 9.00217 11.0002C9.00217 10.735 8.89681 10.4806 8.70928 10.2931C8.52174 10.1056 8.26739 10.0002 8.00217 10.0002C7.73696 10.0002 7.4826 10.1056 7.29506 10.2931C7.10753 10.4806 7.00217 10.735 7.00217 11.0002ZM8.60417 8.9732C8.64417 8.43919 8.80217 8.1582 9.45017 7.7132C10.1242 7.2382 10.5002 6.6232 10.5002 5.7272C10.5002 4.4022 9.58017 3.5002 8.23817 3.5002C7.21817 3.5002 6.44617 3.9922 6.13817 4.7902C6.04484 5.00814 5.99784 5.24312 6.00017 5.4802C6.00017 5.8732 6.20317 6.1202 6.54517 6.1202C6.81717 6.1202 7.00017 5.9732 7.10917 5.6102C7.26717 5.0182 7.63417 4.6952 8.18317 4.6952C8.79317 4.6952 9.21317 5.1412 9.21317 5.7792C9.21317 6.3422 9.00517 6.6642 8.39117 7.1042C7.77217 7.5372 7.46517 8.0182 7.46517 8.7442V8.8552C7.46517 9.2832 7.67317 9.6002 8.05017 9.6002C8.38617 9.6002 8.55417 9.3602 8.60417 8.9732Z" fill="#212529"/>
</g>
<defs>
<clipPath id="clip0_34_4854">
<rect width="16" height="16" fill="white"/>
</clipPath>
</defs>
</svg>
