<svg width="16" height="16" viewBox="0 0 16 16" fill="none" xmlns="http://www.w3.org/2000/svg">
<path d="M1 6C0.734784 6 0.48043 6.10536 0.292893 6.29289C0.105357 6.48043 0 6.73478 0 7L0 10C0 10.2652 0.105357 10.5196 0.292893 10.7071C0.48043 10.8946 0.734784 11 1 11H15C15.2652 11 15.5196 10.8946 15.7071 10.7071C15.8946 10.5196 16 10.2652 16 10V7C16 6.73478 15.8946 6.48043 15.7071 6.29289C15.5196 6.10536 15.2652 6 15 6H1ZM12.5 7C12.6326 7 12.7598 7.05268 12.8536 7.14645C12.9473 7.24021 13 7.36739 13 7.5C13 7.63261 12.9473 7.75979 12.8536 7.85355C12.7598 7.94732 12.6326 8 12.5 8C12.3674 8 12.2402 7.94732 12.1464 7.85355C12.0527 7.75979 12 7.63261 12 7.5C12 7.36739 12.0527 7.24021 12.1464 7.14645C12.2402 7.05268 12.3674 7 12.5 7ZM14.5 7C14.6326 7 14.7598 7.05268 14.8536 7.14645C14.9473 7.24021 15 7.36739 15 7.5C15 7.63261 14.9473 7.75979 14.8536 7.85355C14.7598 7.94732 14.6326 8 14.5 8C14.3674 8 14.2402 7.94732 14.1464 7.85355C14.0527 7.75979 14 7.63261 14 7.5C14 7.36739 14.0527 7.24021 14.1464 7.14645C14.2402 7.05268 14.3674 7 14.5 7ZM1 7.5C1 7.36739 1.05268 7.24021 1.14645 7.14645C1.24021 7.05268 1.36739 7 1.5 7H6.5C6.63261 7 6.75979 7.05268 6.85355 7.14645C6.94732 7.24021 7 7.36739 7 7.5C7 7.63261 6.94732 7.75979 6.85355 7.85355C6.75979 7.94732 6.63261 8 6.5 8H1.5C1.36739 8 1.24021 7.94732 1.14645 7.85355C1.05268 7.75979 1 7.63261 1 7.5ZM1.25 9H6.75C6.8163 9 6.87989 9.02634 6.92678 9.07322C6.97366 9.12011 7 9.1837 7 9.25C7 9.3163 6.97366 9.37989 6.92678 9.42678C6.87989 9.47366 6.8163 9.5 6.75 9.5H1.25C1.1837 9.5 1.12011 9.47366 1.07322 9.42678C1.02634 9.37989 1 9.3163 1 9.25C1 9.1837 1.02634 9.12011 1.07322 9.07322C1.12011 9.02634 1.1837 9 1.25 9Z" fill="#212529"/>
</svg>
