<svg width="16" height="16" viewBox="0 0 16 16" fill="none" xmlns="http://www.w3.org/2000/svg">
<g clip-path="url(#clip0_34_4926)">
<path d="M9 5C9 5.79565 8.68393 6.55871 8.12132 7.12132C7.55871 7.68393 6.79565 8 6 8C5.20435 8 4.44129 7.68393 3.87868 7.12132C3.31607 6.55871 3 5.79565 3 5C3 4.20435 3.31607 3.44129 3.87868 2.87868C4.44129 2.31607 5.20435 2 6 2C6.79565 2 7.55871 2.31607 8.12132 2.87868C8.68393 3.44129 9 4.20435 9 5ZM0 13C0 14 1 14 1 14H11C11 14 12 14 12 13C12 12 11 9 6 9C1 9 0 12 0 13ZM13.5 4.91C14.887 3.485 18.355 5.98 13.5 9.187C8.646 5.98 12.113 3.485 13.5 4.911V4.91Z" fill="black"/>
</g>
<defs>
<clipPath id="clip0_34_4926">
<rect width="16" height="16" fill="white"/>
</clipPath>
</defs>
</svg>
