<svg width="16" height="16" viewBox="0 0 16 16" fill="none" xmlns="http://www.w3.org/2000/svg">
<g clip-path="url(#clip0_34_4928)">
<path fill-rule="evenodd" clip-rule="evenodd" d="M11.5 1.24619C12.332 0.39119 14.413 1.88819 11.5 3.81219C8.587 1.88819 10.668 0.39119 11.5 1.24619ZM9 5.00019C9 5.79584 8.68393 6.5589 8.12132 7.12151C7.55871 7.68412 6.79565 8.00019 6 8.00019C5.20435 8.00019 4.44129 7.68412 3.87868 7.12151C3.31607 6.5589 3 5.79584 3 5.00019C3 4.20454 3.31607 3.44148 3.87868 2.87887C4.44129 2.31626 5.20435 2.00019 6 2.00019C6.79565 2.00019 7.55871 2.31626 8.12132 2.87887C8.68393 3.44148 9 4.20454 9 5.00019ZM0 13.0002C0 14.0002 1 14.0002 1 14.0002H11C11 14.0002 12 14.0002 12 13.0002C12 12.0002 11 9.00019 6 9.00019C1 9.00019 0 12.0002 0 13.0002ZM13.5 4.91019C14.887 3.48519 18.355 5.98019 13.5 9.18719C8.646 5.98019 12.113 3.48519 13.5 4.91119V4.91019ZM15 2.16519C15.555 1.59519 16.942 2.59319 15 3.87619C13.058 2.59319 14.445 1.59519 15 2.16619V2.16519Z" fill="black"/>
</g>
<defs>
<clipPath id="clip0_34_4928">
<rect width="16" height="16" fill="white"/>
</clipPath>
</defs>
</svg>
