<svg width="16" height="16" viewBox="0 0 16 16" fill="none" xmlns="http://www.w3.org/2000/svg">
<g clip-path="url(#clip0_34_4970)">
<path d="M5.00012 6.24986C5.00012 6.44877 4.9211 6.63953 4.78045 6.78019C4.6398 6.92084 4.44903 6.99986 4.25012 6.99986C4.05121 6.99986 3.86044 6.92084 3.71979 6.78019C3.57914 6.63953 3.50012 6.44877 3.50012 6.24986C3.50012 6.05094 3.57914 5.86018 3.71979 5.71953C3.86044 5.57887 4.05121 5.49986 4.25012 5.49986C4.44903 5.49986 4.6398 5.57887 4.78045 5.71953C4.9211 5.86018 5.00012 6.05094 5.00012 6.24986ZM6.13812 4.75386C6.73194 4.58435 7.34658 4.49885 7.96412 4.49986C8.63012 4.49986 9.26712 4.59686 9.85712 4.77286C9.9832 4.80763 10.1179 4.79162 10.2323 4.72826C10.3467 4.66489 10.4318 4.55921 10.4692 4.43389C10.5066 4.30856 10.4934 4.17356 10.4325 4.05784C10.3715 3.94212 10.2676 3.85489 10.1431 3.81486C9.43592 3.60468 8.70189 3.49856 7.96412 3.49986C7.23012 3.49986 6.52312 3.60286 5.86212 3.79186C5.73455 3.82846 5.62674 3.91423 5.56242 4.03032C5.49809 4.1464 5.48252 4.28329 5.51912 4.41086C5.55572 4.53842 5.6415 4.64623 5.75758 4.71055C5.87367 4.77488 6.01055 4.79046 6.13812 4.75386Z" fill="#212529"/>
<path fill-rule="evenodd" clip-rule="evenodd" d="M7.96412 1.52686C4.98712 1.52686 2.39312 3.23086 1.64412 5.65186H1.09412C0.948328 5.65202 0.804336 5.68405 0.67223 5.74572C0.540124 5.80738 0.4231 5.89719 0.329356 6.00885C0.235611 6.1205 0.167415 6.2513 0.129543 6.39209C0.0916719 6.53287 0.085042 6.68024 0.110118 6.82386L0.364118 8.28386C0.424649 8.63192 0.606093 8.94745 0.876476 9.17485C1.14686 9.40224 1.48883 9.5269 1.84212 9.52686H2.10512C2.40512 10.0399 2.79312 10.5049 3.25012 10.9089L2.52112 13.3859C2.4992 13.4604 2.49497 13.5391 2.50876 13.6156C2.52256 13.6921 2.55401 13.7643 2.6006 13.8266C2.6472 13.8888 2.70766 13.9393 2.77718 13.9741C2.84671 14.0088 2.92338 14.0269 3.00112 14.0269H5.00112C5.10429 14.0269 5.20493 13.995 5.28926 13.9355C5.37358 13.8761 5.43745 13.792 5.47212 13.6949L5.95412 12.3439C6.58912 12.5169 7.26412 12.6109 7.96512 12.6109C8.67212 12.6109 9.35312 12.5159 9.99312 12.3389L10.5361 13.7109C10.573 13.8041 10.6371 13.8841 10.72 13.9404C10.8029 13.9968 10.9009 14.0269 11.0011 14.0269H13.0011C13.0791 14.0268 13.1561 14.0084 13.2257 13.9733C13.2954 13.9382 13.3559 13.8872 13.4023 13.8246C13.4488 13.7619 13.4799 13.6892 13.4932 13.6123C13.5066 13.5354 13.5017 13.4565 13.4791 13.3819L12.7181 10.8759C13.8101 9.89486 14.5001 8.55886 14.5001 7.06886C14.5001 6.92386 14.4931 6.77886 14.4801 6.63786C14.7411 6.52786 14.9881 6.37186 15.1851 6.19386C15.5001 6.49986 16.0001 6.49986 16.0001 5.77686C16.0001 5.99986 15.5001 5.99986 15.5391 5.75086C15.5811 5.67058 15.6114 5.58471 15.6291 5.49586C15.6526 5.38003 15.6464 5.26014 15.6111 5.14736C15.5758 5.03458 15.5125 4.93257 15.4271 4.85086C15.3371 4.75804 15.2186 4.69798 15.0905 4.68022C14.9624 4.66247 14.832 4.68803 14.7201 4.75286C14.6172 4.80971 14.5295 4.89042 14.4642 4.98821C14.399 5.086 14.3581 5.19802 14.3451 5.31486C14.3211 5.55786 14.4271 5.79486 14.6651 5.96886C14.5825 6.02595 14.496 6.07708 14.4061 6.12186C13.8721 3.45786 11.1221 1.52686 7.96412 1.52686ZM2.51612 6.25986C2.97112 4.19386 5.18312 2.52686 7.96412 2.52686C11.1101 2.52686 13.5001 4.64086 13.5001 7.06886C13.5001 8.32285 12.8761 9.47886 11.8301 10.3169C11.7524 10.3794 11.6951 10.4638 11.6657 10.5591C11.6363 10.6544 11.6361 10.7564 11.6651 10.8519L12.3251 13.0269H11.3401L10.7501 11.5399C10.7026 11.42 10.6107 11.3232 10.4935 11.2695C10.3763 11.2159 10.2429 11.2095 10.1211 11.2519C9.46012 11.4819 8.73112 11.6109 7.96412 11.6109C7.23009 11.6127 6.50096 11.4914 5.80712 11.2519C5.68258 11.2086 5.54597 11.2162 5.42705 11.2732C5.30812 11.3301 5.21649 11.4317 5.17212 11.5559L4.64712 13.0269H3.66812L4.30112 10.8769C4.32936 10.781 4.32826 10.679 4.29796 10.5838C4.26766 10.4886 4.20955 10.4047 4.13112 10.3429C3.59609 9.92874 3.15789 9.40283 2.84712 8.80186C2.80549 8.71925 2.74176 8.64981 2.66302 8.60126C2.58429 8.55271 2.49362 8.52695 2.40112 8.52686H1.84112C1.72352 8.52673 1.60972 8.48515 1.51974 8.40943C1.42976 8.33371 1.36935 8.2287 1.34912 8.11286L1.09512 6.65286H2.02812C2.14207 6.65276 2.25256 6.61375 2.34131 6.54228C2.43006 6.4708 2.49173 6.37116 2.51612 6.25986ZM15.1371 5.40286C15.1193 5.47887 15.0859 5.55038 15.0391 5.61286C15.0242 5.60505 15.0095 5.59671 14.9951 5.58786C14.8491 5.49786 14.8381 5.41286 14.8431 5.36486C14.848 5.32897 14.8612 5.29471 14.8814 5.26471C14.9017 5.23471 14.9286 5.20978 14.9601 5.19186C15.0091 5.16486 15.0401 5.17086 15.0731 5.20386C15.1009 5.22803 15.1216 5.25936 15.1329 5.29443C15.1441 5.32951 15.1456 5.367 15.1371 5.40286Z" fill="#212529"/>
</g>
<defs>
<clipPath id="clip0_34_4970">
<rect width="16" height="16" fill="white"/>
</clipPath>
</defs>
</svg>
