<svg width="16" height="16" viewBox="0 0 16 16" fill="none" xmlns="http://www.w3.org/2000/svg">
<g clip-path="url(#clip0_34_4982)">
<path fill-rule="evenodd" clip-rule="evenodd" d="M3.1 11.2001C3.14657 11.138 3.20697 11.0876 3.27639 11.0529C3.34582 11.0182 3.42238 11.0001 3.5 11.0001H6C6.13261 11.0001 6.25979 11.0528 6.35355 11.1466C6.44732 11.2403 6.5 11.3675 6.5 11.5001C6.5 11.6327 6.44732 11.7599 6.35355 11.8537C6.25979 11.9474 6.13261 12.0001 6 12.0001H3.75L1.5 15.0001H14.5L12.25 12.0001H10C9.86739 12.0001 9.74021 11.9474 9.64645 11.8537C9.55268 11.7599 9.5 11.6327 9.5 11.5001C9.5 11.3675 9.55268 11.2403 9.64645 11.1466C9.74021 11.0528 9.86739 11.0001 10 11.0001H12.5C12.5776 11.0001 12.6542 11.0182 12.7236 11.0529C12.793 11.0876 12.8534 11.138 12.9 11.2001L15.9 15.2001C15.9557 15.2744 15.9896 15.3627 15.998 15.4552C16.0063 15.5477 15.9887 15.6407 15.9472 15.7237C15.9057 15.8068 15.8419 15.8766 15.7629 15.9254C15.6839 15.9743 15.5929 16.0001 15.5 16.0001H0.5C0.407144 16.0001 0.316123 15.9743 0.237135 15.9254C0.158147 15.8766 0.0943131 15.8068 0.0527866 15.7237C0.0112602 15.6407 -0.00631841 15.5477 0.00202058 15.4552C0.0103596 15.3627 0.0442867 15.2744 0.1 15.2001L3.1 11.2001Z" fill="#212529"/>
<path fill-rule="evenodd" clip-rule="evenodd" d="M8 1.00012C7.60603 1.00012 7.21593 1.07771 6.85195 1.22848C6.48797 1.37924 6.15726 1.60022 5.87868 1.8788C5.6001 2.15737 5.37913 2.48809 5.22836 2.85207C5.0776 3.21604 5 3.60615 5 4.00012C5 4.39408 5.0776 4.78419 5.22836 5.14817C5.37913 5.51215 5.6001 5.84286 5.87868 6.12144C6.15726 6.40001 6.48797 6.62099 6.85195 6.77176C7.21593 6.92252 7.60603 7.00012 8 7.00012C8.79565 7.00012 9.55871 6.68405 10.1213 6.12144C10.6839 5.55883 11 4.79577 11 4.00012C11 3.20447 10.6839 2.44141 10.1213 1.8788C9.55871 1.31619 8.79565 1.00012 8 1.00012ZM4 4.00012C4.00007 3.23034 4.22226 2.47694 4.63989 1.83031C5.05753 1.18368 5.65288 0.671289 6.3545 0.354624C7.05613 0.0379591 7.83422 -0.0695301 8.59542 0.0450543C9.35662 0.159639 10.0686 0.491429 10.6459 1.00061C11.2232 1.5098 11.6413 2.17475 11.8501 2.91567C12.0589 3.6566 12.0494 4.44202 11.8228 5.1777C11.5963 5.91339 11.1623 6.56807 10.5729 7.06321C9.98349 7.55835 9.26374 7.8729 8.5 7.96912V13.5001C8.5 13.6327 8.44732 13.7599 8.35355 13.8537C8.25979 13.9474 8.13261 14.0001 8 14.0001C7.86739 14.0001 7.74021 13.9474 7.64645 13.8537C7.55268 13.7599 7.5 13.6327 7.5 13.5001V7.97012C6.53296 7.84828 5.64369 7.37755 4.99921 6.64635C4.35474 5.91515 3.99942 4.9748 4 4.00012Z" fill="#212529"/>
</g>
<defs>
<clipPath id="clip0_34_4982">
<rect width="16" height="16" fill="white"/>
</clipPath>
</defs>
</svg>
