<svg width="16" height="16" viewBox="0 0 16 16" fill="none" xmlns="http://www.w3.org/2000/svg">
<g clip-path="url(#clip0_34_4986)">
<path d="M8.00021 1.61021e-06C6.1349 -0.00118135 4.32782 0.649478 2.89141 1.83948C1.45501 3.02947 0.479582 4.684 0.133795 6.51697C-0.211993 8.34994 0.0935954 10.2461 0.997723 11.8777C1.90185 13.5092 3.34767 14.7735 5.08521 15.452C5.0152 14.819 4.95121 13.846 5.11221 13.155C5.2582 12.53 6.05021 9.178 6.05021 9.178C6.05021 9.178 5.8112 8.699 5.8112 7.991C5.8112 6.878 6.4562 6.048 7.2592 6.048C7.94121 6.048 8.2712 6.56 8.2712 7.175C8.2712 7.861 7.8342 8.887 7.6082 9.838C7.4202 10.634 8.00821 11.284 8.79321 11.284C10.2152 11.284 11.3082 9.784 11.3082 7.62C11.3082 5.705 9.9312 4.366 7.96621 4.366C5.69021 4.366 4.35421 6.073 4.35421 7.837C4.35421 8.525 4.6192 9.262 4.9492 9.663C4.97762 9.69323 4.99772 9.73031 5.00753 9.77062C5.01735 9.81093 5.01655 9.85309 5.00521 9.893C4.94421 10.145 4.80921 10.689 4.78321 10.8C4.74821 10.946 4.6672 10.977 4.5152 10.907C3.5152 10.442 2.89121 8.981 2.89121 7.807C2.89121 5.284 4.72521 2.967 8.17721 2.967C10.9522 2.967 13.1092 4.944 13.1092 7.587C13.1092 10.344 11.3702 12.563 8.95821 12.563C8.14721 12.563 7.38521 12.142 7.12421 11.644L6.6262 13.546C6.4452 14.241 5.95721 15.112 5.63121 15.643C6.73118 15.9831 7.8916 16.0818 9.0332 15.9323C10.1748 15.7828 11.2707 15.3886 12.246 14.7767C13.2213 14.1648 14.053 13.3496 14.6844 12.3868C15.3157 11.424 15.7318 10.3362 15.9042 9.19787C16.0766 8.0595 16.0012 6.89733 15.6833 5.79075C15.3653 4.68418 14.8123 3.65927 14.0619 2.78604C13.3115 1.91281 12.3814 1.21184 11.3353 0.731016C10.2892 0.250192 9.15156 0.000842303 8.00021 1.61021e-06Z" fill="#212529"/>
</g>
<defs>
<clipPath id="clip0_34_4986">
<rect width="16" height="16" fill="white"/>
</clipPath>
</defs>
</svg>
