<svg width="16" height="16" viewBox="0 0 16 16" fill="none" xmlns="http://www.w3.org/2000/svg">
<g clip-path="url(#clip0_34_4998)">
<path d="M8 15C6.14348 15 4.36301 14.2625 3.05025 12.9497C1.7375 11.637 1 9.85652 1 8C1 6.14348 1.7375 4.36301 3.05025 3.05025C4.36301 1.7375 6.14348 1 8 1C9.85652 1 11.637 1.7375 12.9497 3.05025C14.2625 4.36301 15 6.14348 15 8C15 9.85652 14.2625 11.637 12.9497 12.9497C11.637 14.2625 9.85652 15 8 15ZM8 16C10.1217 16 12.1566 15.1571 13.6569 13.6569C15.1571 12.1566 16 10.1217 16 8C16 5.87827 15.1571 3.84344 13.6569 2.34315C12.1566 0.842855 10.1217 0 8 0C5.87827 0 3.84344 0.842855 2.34315 2.34315C0.842855 3.84344 0 5.87827 0 8C0 10.1217 0.842855 12.1566 2.34315 13.6569C3.84344 15.1571 5.87827 16 8 16Z" fill="#212529"/>
<path d="M6.271 5.055C6.35278 5.01289 6.4446 4.99415 6.53635 5.00086C6.62809 5.00756 6.71621 5.03944 6.791 5.093L10.291 7.593C10.3558 7.63925 10.4086 7.70031 10.4451 7.77111C10.4816 7.8419 10.5006 7.92037 10.5006 8C10.5006 8.07963 10.4816 8.1581 10.4451 8.22889C10.4086 8.29968 10.3558 8.36075 10.291 8.407L6.791 10.907C6.71623 10.9605 6.62816 10.9924 6.53646 10.9991C6.44476 11.0058 6.35299 10.9871 6.27124 10.945C6.18948 10.9029 6.12091 10.8391 6.07306 10.7606C6.0252 10.6821 5.99993 10.5919 6 10.5V5.5C5.9999 5.40808 6.02515 5.31792 6.07296 5.23941C6.12077 5.16091 6.18929 5.0971 6.271 5.055Z" fill="#212529"/>
</g>
<defs>
<clipPath id="clip0_34_4998">
<rect width="16" height="16" fill="white"/>
</clipPath>
</defs>
</svg>
