<svg width="16" height="16" viewBox="0 0 16 16" fill="none" xmlns="http://www.w3.org/2000/svg">
<g clip-path="url(#clip0_34_5016)">
<path d="M7.99988 0C7.82387 0 7.64988 0.006 7.47688 0.017L7.54087 1.015C7.84656 0.995244 8.15319 0.995244 8.45887 1.015L8.52287 0.017C8.34877 0.00571123 8.17435 4.1612e-05 7.99988 0V0ZM6.43988 0.152C6.09387 0.221 5.75588 0.312 5.42788 0.422L5.74888 1.37C6.03588 1.272 6.33087 1.193 6.63287 1.133L6.43988 0.153V0.152ZM10.5719 0.423C10.2412 0.310883 9.90344 0.220688 9.56087 0.153L9.36687 1.133C9.66887 1.193 9.96388 1.273 10.2509 1.37L10.5719 0.423ZM12.4449 1.348C12.1546 1.15374 11.852 0.978703 11.5389 0.824L11.0959 1.72C11.3709 1.856 11.6359 2.01 11.8889 2.179L12.4449 1.348ZM4.45988 0.824C4.14587 0.979 3.84388 1.154 3.55488 1.348L4.11088 2.178C4.36503 2.00836 4.62992 1.85537 4.90387 1.72L4.45988 0.824ZM2.72487 1.985C2.46287 2.215 2.21487 2.463 1.98487 2.725L2.73688 3.385C2.93887 3.155 3.15488 2.939 3.38488 2.737L2.72487 1.985ZM14.0149 2.725C13.7845 2.46256 13.5373 2.21537 13.2749 1.985L12.6149 2.737C12.8449 2.939 13.0619 3.155 13.2629 3.385L14.0149 2.725ZM15.1759 4.46C15.0212 4.1472 14.8461 3.84489 14.6519 3.555L13.8219 4.111C13.9909 4.364 14.1439 4.629 14.2799 4.904L15.1759 4.461V4.46ZM1.34787 3.555C1.15387 3.844 0.977875 4.146 0.823875 4.461L1.71987 4.904C1.85588 4.629 2.00988 4.364 2.17887 4.111L1.34787 3.555ZM0.422875 5.428C0.310756 5.7587 0.22056 6.09643 0.152875 6.439L1.13287 6.633C1.19287 6.331 1.27287 6.036 1.36987 5.749L0.422875 5.428ZM15.8479 6.44C15.7802 6.09709 15.69 5.75903 15.5779 5.428L14.6299 5.749C14.7279 6.036 14.8069 6.331 14.8669 6.633L15.8469 6.439L15.8479 6.44ZM0.016875 7.477C-0.005625 7.8253 -0.005625 8.1747 0.016875 8.523L1.01487 8.459C0.995119 8.15332 0.995119 7.84668 1.01487 7.541L0.016875 7.477ZM15.9999 8C15.9998 7.82553 15.9942 7.6511 15.9829 7.477L14.9849 7.541C15.0047 7.84668 15.0047 8.15332 14.9849 8.459L15.9829 8.523C15.9942 8.3489 15.9998 8.17447 15.9999 8ZM0.151875 9.56C0.220875 9.906 0.311875 10.244 0.421875 10.572L1.36987 10.251C1.27152 9.96187 1.19235 9.66656 1.13287 9.367L0.152875 9.561L0.151875 9.56ZM15.5769 10.572C15.6889 10.244 15.7789 9.906 15.8469 9.561L14.8669 9.367C14.8069 9.669 14.7269 9.964 14.6299 10.251L15.5769 10.572ZM0.823875 11.54C0.978617 11.8528 1.15366 12.1551 1.34787 12.445L2.17788 11.889C2.00806 11.6349 1.85507 11.37 1.71987 11.096L0.823875 11.539V11.54ZM14.6519 12.445C14.8459 12.156 15.0219 11.854 15.1759 11.539L14.2799 11.096C14.1439 11.371 13.9899 11.636 13.8209 11.889L14.6519 12.445ZM1.98487 13.275C2.21487 13.537 2.46287 13.785 2.72487 14.015L3.38488 13.263C3.15504 13.0613 2.93859 12.8448 2.73688 12.615L1.98487 13.275ZM13.2749 14.015C13.5369 13.785 13.7849 13.537 14.0149 13.275L13.2629 12.615C13.0619 12.845 12.8449 13.062 12.6149 13.263L13.2749 14.015ZM11.5399 15.176C11.8539 15.021 12.1559 14.846 12.4449 14.652L11.8889 13.822C11.6347 13.9916 11.3698 14.1446 11.0959 14.28L11.5389 15.176H11.5399ZM3.55488 14.652C3.84388 14.846 4.14587 15.022 4.46088 15.176L4.90387 14.28C4.6298 14.1445 4.3649 13.9912 4.11088 13.821L3.55488 14.652ZM5.42788 15.577C5.75588 15.689 6.09388 15.779 6.43888 15.847L6.63287 14.867C6.33332 14.8075 6.03802 14.7283 5.74888 14.63L5.42788 15.577ZM9.55988 15.848C9.90278 15.7804 10.2408 15.6902 10.5719 15.578L10.2509 14.63C9.96173 14.7283 9.66643 14.8075 9.36687 14.867L9.56087 15.847L9.55988 15.848ZM7.47688 15.983C7.82518 16.0055 8.17457 16.0055 8.52287 15.983L8.45887 14.985C8.15319 15.0048 7.84656 15.0048 7.54087 14.985L7.47688 15.983ZM8.49988 4.5C8.49988 4.36739 8.4472 4.24021 8.35343 4.14645C8.25966 4.05268 8.13248 4 7.99988 4C7.86727 4 7.74009 4.05268 7.64632 4.14645C7.55255 4.24021 7.49988 4.36739 7.49988 4.5V7.5H4.49988C4.36727 7.5 4.24009 7.55268 4.14632 7.64645C4.05255 7.74021 3.99988 7.86739 3.99988 8C3.99988 8.13261 4.05255 8.25979 4.14632 8.35355C4.24009 8.44732 4.36727 8.5 4.49988 8.5H7.49988V11.5C7.49988 11.6326 7.55255 11.7598 7.64632 11.8536C7.74009 11.9473 7.86727 12 7.99988 12C8.13248 12 8.25966 11.9473 8.35343 11.8536C8.4472 11.7598 8.49988 11.6326 8.49988 11.5V8.5H11.4999C11.6325 8.5 11.7597 8.44732 11.8534 8.35355C11.9472 8.25979 11.9999 8.13261 11.9999 8C11.9999 7.86739 11.9472 7.74021 11.8534 7.64645C11.7597 7.55268 11.6325 7.5 11.4999 7.5H8.49988V4.5Z" fill="#212529"/>
</g>
<defs>
<clipPath id="clip0_34_5016">
<rect width="16" height="16" fill="white"/>
</clipPath>
</defs>
</svg>
