<svg width="16" height="16" viewBox="0 0 16 16" fill="none" xmlns="http://www.w3.org/2000/svg">
<path d="M1.85414 14.8541L14.8541 1.85414C14.9006 1.80766 14.9375 1.75247 14.9627 1.69173C14.9878 1.63099 15.0008 1.56589 15.0008 1.50014C15.0008 1.4344 14.9878 1.3693 14.9627 1.30856C14.9375 1.24782 14.9006 1.19263 14.8541 1.14614C14.8077 1.09966 14.7525 1.06278 14.6917 1.03762C14.631 1.01246 14.5659 0.999512 14.5001 0.999512C14.4344 0.999512 14.3693 1.01246 14.3086 1.03762C14.2478 1.06278 14.1926 1.09966 14.1461 1.14614L1.14614 14.1461C1.09966 14.1926 1.06278 14.2478 1.03762 14.3086C1.01246 14.3693 0.999512 14.4344 0.999512 14.5001C0.999512 14.5659 1.01246 14.631 1.03762 14.6917C1.06278 14.7525 1.09966 14.8077 1.14614 14.8541C1.24003 14.948 1.36737 15.0008 1.50014 15.0008C1.56589 15.0008 1.63099 14.9878 1.69173 14.9627C1.75247 14.9375 1.80766 14.9006 1.85414 14.8541ZM4.00014 1.00014C4.13275 1.00014 4.25993 1.05282 4.3537 1.14659C4.44746 1.24036 4.50014 1.36754 4.50014 1.50014V3.50014H6.50014C6.63275 3.50014 6.75993 3.55282 6.8537 3.64659C6.94746 3.74036 7.00014 3.86754 7.00014 4.00014C7.00014 4.13275 6.94746 4.25993 6.8537 4.3537C6.75993 4.44746 6.63275 4.50014 6.50014 4.50014H4.50014V6.50014C4.50014 6.63275 4.44746 6.75993 4.3537 6.8537C4.25993 6.94746 4.13275 7.00014 4.00014 7.00014C3.86754 7.00014 3.74036 6.94746 3.64659 6.8537C3.55282 6.75993 3.50014 6.63275 3.50014 6.50014V4.50014H1.50014C1.36754 4.50014 1.24036 4.44746 1.14659 4.3537C1.05282 4.25993 1.00014 4.13275 1.00014 4.00014C1.00014 3.86754 1.05282 3.74036 1.14659 3.64659C1.24036 3.55282 1.36754 3.50014 1.50014 3.50014H3.50014V1.50014C3.50014 1.36754 3.55282 1.24036 3.64659 1.14659C3.74036 1.05282 3.86754 1.00014 4.00014 1.00014ZM9.00014 12.0001C9.00014 11.8675 9.05282 11.7404 9.14659 11.6466C9.24036 11.5528 9.36753 11.5001 9.50014 11.5001H14.5001C14.6328 11.5001 14.7599 11.5528 14.8537 11.6466C14.9475 11.7404 15.0001 11.8675 15.0001 12.0001C15.0001 12.1328 14.9475 12.2599 14.8537 12.3537C14.7599 12.4475 14.6328 12.5001 14.5001 12.5001H9.50014C9.36753 12.5001 9.24036 12.4475 9.14659 12.3537C9.05282 12.2599 9.00014 12.1328 9.00014 12.0001Z" fill="#212529"/>
</svg>
