<svg width="16" height="16" viewBox="0 0 16 16" fill="none" xmlns="http://www.w3.org/2000/svg">
<path fill-rule="evenodd" clip-rule="evenodd" d="M4.21967 3.21967C4.36032 3.07902 4.55109 3 4.75 3H11.25C11.4489 3 11.6397 3.07902 11.7803 3.21967C11.921 3.36032 12 3.55109 12 3.75V12.25C12 12.4489 11.921 12.6397 11.7803 12.7803C11.6397 12.921 11.4489 13 11.25 13H4.75C4.336 13 4 12.664 4 12.25V3.75C4 3.55109 4.07902 3.36032 4.21967 3.21967ZM5 12H11V4H5V12Z" fill="black"/>
<path fill-rule="evenodd" clip-rule="evenodd" d="M4.20711 0.707107C4.01957 0.894643 3.76522 1 3.5 1C3.23478 1 2.98043 0.894643 2.79289 0.707107C2.60536 0.51957 2.5 0.265216 2.5 0H1V1C1.26522 1 1.51957 1.10536 1.70711 1.29289C1.89464 1.48043 2 1.73478 2 2C2 2.26522 1.89464 2.51957 1.70711 2.70711C1.51957 2.89464 1.26522 3 1 3V4C1.26522 4 1.51957 4.10536 1.70711 4.29289C1.89464 4.48043 2 4.73478 2 5C2 5.26522 1.89464 5.51957 1.70711 5.70711C1.51957 5.89464 1.26522 6 1 6V7C1.26522 7 1.51957 7.10536 1.70711 7.29289C1.89464 7.48043 2 7.73478 2 8C2 8.26522 1.89464 8.51957 1.70711 8.70711C1.51957 8.89464 1.26522 9 1 9V10C1.26522 10 1.51957 10.1054 1.70711 10.2929C1.89464 10.4804 2 10.7348 2 11C2 11.2652 1.89464 11.5196 1.70711 11.7071C1.51957 11.8946 1.26522 12 1 12V13C1.26522 13 1.51957 13.1054 1.70711 13.2929C1.89464 13.4804 2 13.7348 2 14C2 14.2652 1.89464 14.5196 1.70711 14.7071C1.51957 14.8946 1.26522 15 1 15V16H2.5C2.5 15.7348 2.60536 15.4804 2.79289 15.2929C2.98043 15.1054 3.23478 15 3.5 15C3.76522 15 4.01957 15.1054 4.20711 15.2929C4.39464 15.4804 4.5 15.7348 4.5 16H5.5C5.5 15.7348 5.60536 15.4804 5.79289 15.2929C5.98043 15.1054 6.23478 15 6.5 15C6.76522 15 7.01957 15.1054 7.20711 15.2929C7.39464 15.4804 7.5 15.7348 7.5 16H8.5C8.5 15.7348 8.60536 15.4804 8.79289 15.2929C8.98043 15.1054 9.23478 15 9.5 15C9.76522 15 10.0196 15.1054 10.2071 15.2929C10.3946 15.4804 10.5 15.7348 10.5 16H11.5C11.5 15.7348 11.6054 15.4804 11.7929 15.2929C11.9804 15.1054 12.2348 15 12.5 15C12.7652 15 13.0196 15.1054 13.2071 15.2929C13.3946 15.4804 13.5 15.7348 13.5 16H15V15C14.7348 15 14.4804 14.8946 14.2929 14.7071C14.1054 14.5196 14 14.2652 14 14C14 13.7348 14.1054 13.4804 14.2929 13.2929C14.4804 13.1054 14.7348 13 15 13V12C14.7348 12 14.4804 11.8946 14.2929 11.7071C14.1054 11.5196 14 11.2652 14 11C14 10.7348 14.1054 10.4804 14.2929 10.2929C14.4804 10.1054 14.7348 10 15 10V9C14.7348 9 14.4804 8.89464 14.2929 8.70711C14.1054 8.51957 14 8.26522 14 8C14 7.73478 14.1054 7.48043 14.2929 7.29289C14.4804 7.10536 14.7348 7 15 7V6C14.7348 6 14.4804 5.89464 14.2929 5.70711C14.1054 5.51957 14 5.26522 14 5C14 4.73478 14.1054 4.48043 14.2929 4.29289C14.4804 4.10536 14.7348 4 15 4V3C14.7348 3 14.4804 2.89464 14.2929 2.70711C14.1054 2.51957 14 2.26522 14 2C14 1.73478 14.1054 1.48043 14.2929 1.29289C14.4804 1.10536 14.7348 1 15 1V0H13.5C13.5 0.265216 13.3946 0.51957 13.2071 0.707107C13.0196 0.894643 12.7652 1 12.5 1C12.2348 1 11.9804 0.894643 11.7929 0.707107C11.6054 0.51957 11.5 0.265216 11.5 0H10.5C10.5 0.265216 10.3946 0.51957 10.2071 0.707107C10.0196 0.894643 9.76522 1 9.5 1C9.23478 1 8.98043 0.894643 8.79289 0.707107C8.60536 0.51957 8.5 0.265216 8.5 0H7.5C7.5 0.265216 7.39464 0.51957 7.20711 0.707107C7.01957 0.894643 6.76522 1 6.5 1C6.23478 1 5.98043 0.894643 5.79289 0.707107C5.60536 0.51957 5.5 0.265216 5.5 0H4.5C4.5 0.265216 4.39464 0.51957 4.20711 0.707107ZM3.29289 13.7071C3.10536 13.5196 3 13.2652 3 13V3C3 2.73478 3.10536 2.48043 3.29289 2.29289C3.48043 2.10536 3.73478 2 4 2H12C12.2652 2 12.5196 2.10536 12.7071 2.29289C12.8946 2.48043 13 2.73478 13 3V13C13 13.2652 12.8946 13.5196 12.7071 13.7071C12.5196 13.8946 12.2652 14 12 14H4C3.73478 14 3.48043 13.8946 3.29289 13.7071Z" fill="black"/>
</svg>
