<svg width="16" height="16" viewBox="0 0 16 16" fill="none" xmlns="http://www.w3.org/2000/svg">
<path d="M7.49987 1V8H8.49987V1H7.49987Z" fill="#212529"/>
<path d="M2.99987 8.812C2.99963 7.91897 3.23862 7.04217 3.69199 6.27278C4.14536 5.50339 4.79656 4.86949 5.57787 4.437L5.09287 3.563C3.9334 4.20507 3.01915 5.21298 2.49285 6.42938C1.96655 7.64578 1.85782 9.00222 2.18364 10.2869C2.50945 11.5716 3.25148 12.7123 4.29387 13.5309C5.33627 14.3494 6.62036 14.7998 7.94568 14.8117C9.27101 14.8236 10.563 14.3963 11.6199 13.5966C12.6768 12.7969 13.4392 11.6697 13.788 10.391C14.1368 9.11239 14.0524 7.75422 13.548 6.52857C13.0437 5.30292 12.1476 4.27877 10.9999 3.616L10.4989 4.481C11.2591 4.91968 11.8905 5.55076 12.3295 6.3108C12.7685 7.07083 12.9997 7.93304 12.9999 8.81076C13 9.68848 12.7691 10.5508 12.3304 11.311C11.8917 12.0712 11.2606 12.7025 10.5005 13.1415C9.74044 13.5804 8.87821 13.8116 8.00049 13.8117C7.12277 13.8118 6.26049 13.5809 5.50031 13.1421C4.74014 12.7033 4.10887 12.0721 3.66995 11.3121C3.23103 10.552 2.99992 9.68972 2.99987 8.812Z" fill="#212529"/>
</svg>
