<svg width="16" height="16" viewBox="0 0 16 16" fill="none" xmlns="http://www.w3.org/2000/svg">
<g clip-path="url(#clip0_34_5070)">
<path d="M6.95014 0.435C7.53014 -0.145 8.47014 -0.145 9.05014 0.435L15.5651 6.951C16.1451 7.531 16.1451 8.47 15.5651 9.049L9.05014 15.565C8.47014 16.145 7.53114 16.145 6.95214 15.565L0.435137 9.05C0.2972 8.91234 0.187766 8.74884 0.1131 8.56883C0.0384333 8.38883 0 8.19587 0 8.001C0 7.80613 0.0384333 7.61317 0.1131 7.43317C0.187766 7.25316 0.2972 7.08966 0.435137 6.952L6.95014 0.435ZM8.35014 1.135C8.25731 1.04218 8.13141 0.990036 8.00014 0.990036C7.86886 0.990036 7.74297 1.04218 7.65014 1.135L1.13414 7.65C1.04132 7.74283 0.989172 7.86873 0.989172 8C0.989172 8.13127 1.04132 8.25717 1.13414 8.35L7.65014 14.866C7.74297 14.9588 7.86886 15.011 8.00014 15.011C8.13141 15.011 8.25731 14.9588 8.35014 14.866L14.8661 8.35C14.959 8.25717 15.0111 8.13127 15.0111 8C15.0111 7.86873 14.959 7.74283 14.8661 7.65L8.35014 1.134V1.135Z" fill="#212529"/>
<path d="M5.25514 5.786C5.25377 5.81829 5.25902 5.85053 5.27057 5.88072C5.28212 5.91091 5.29972 5.93841 5.32229 5.96155C5.34486 5.98468 5.37193 6.00296 5.40183 6.01524C5.43172 6.02753 5.46382 6.03357 5.49614 6.033H6.32114C6.45914 6.033 6.56914 5.92 6.58714 5.783C6.67714 5.127 7.12714 4.649 7.92914 4.649C8.61514 4.649 9.24314 4.992 9.24314 5.817C9.24314 6.452 8.86914 6.744 8.27814 7.188C7.60514 7.677 7.07214 8.248 7.11014 9.175L7.11314 9.392C7.11419 9.45761 7.14099 9.52017 7.18776 9.5662C7.23453 9.61222 7.29752 9.63801 7.36314 9.638H8.17414C8.24044 9.638 8.30403 9.61166 8.35091 9.56478C8.3978 9.51789 8.42414 9.4543 8.42414 9.388V9.283C8.42414 8.565 8.69714 8.356 9.43414 7.797C10.0431 7.334 10.6781 6.82 10.6781 5.741C10.6781 4.23 9.40214 3.5 8.00514 3.5C6.73814 3.5 5.35014 4.09 5.25514 5.786ZM6.81214 11.549C6.81214 12.082 7.23714 12.476 7.82214 12.476C8.43114 12.476 8.85014 12.082 8.85014 11.549C8.85014 10.997 8.43014 10.609 7.82114 10.609C7.23714 10.609 6.81214 10.997 6.81214 11.549Z" fill="#212529"/>
</g>
<defs>
<clipPath id="clip0_34_5070">
<rect width="16" height="16" fill="white"/>
</clipPath>
</defs>
</svg>
