<svg width="16" height="16" viewBox="0 0 16 16" fill="none" xmlns="http://www.w3.org/2000/svg">
<path d="M1.92 0.505917C1.99826 0.493169 2.07843 0.499216 2.15389 0.523558C2.22935 0.547901 2.29794 0.589841 2.354 0.645917L3 1.29292L3.646 0.645917C3.69245 0.599354 3.74762 0.562411 3.80837 0.537205C3.86911 0.511998 3.93423 0.499023 4 0.499023C4.06577 0.499023 4.13089 0.511998 4.19163 0.537205C4.25238 0.562411 4.30755 0.599354 4.354 0.645917L5 1.29292L5.646 0.645917C5.69245 0.599354 5.74762 0.562411 5.80837 0.537205C5.86911 0.511998 5.93423 0.499023 6 0.499023C6.06577 0.499023 6.13089 0.511998 6.19163 0.537205C6.25238 0.562411 6.30755 0.599354 6.354 0.645917L7 1.29292L7.646 0.645917C7.69245 0.599354 7.74762 0.562411 7.80837 0.537205C7.86911 0.511998 7.93423 0.499023 8 0.499023C8.06577 0.499023 8.13089 0.511998 8.19163 0.537205C8.25238 0.562411 8.30755 0.599354 8.354 0.645917L9 1.29292L9.646 0.645917C9.69245 0.599354 9.74762 0.562411 9.80837 0.537205C9.86911 0.511998 9.93423 0.499023 10 0.499023C10.0658 0.499023 10.1309 0.511998 10.1916 0.537205C10.2524 0.562411 10.3076 0.599354 10.354 0.645917L11 1.29292L11.646 0.645917C11.6924 0.599354 11.7476 0.562411 11.8084 0.537205C11.8691 0.511998 11.9342 0.499023 12 0.499023C12.0658 0.499023 12.1309 0.511998 12.1916 0.537205C12.2524 0.562411 12.3076 0.599354 12.354 0.645917L13 1.29292L13.646 0.645917C13.702 0.58985 13.7706 0.547904 13.846 0.523541C13.9214 0.499177 14.0016 0.493093 14.0798 0.505791C14.158 0.518488 14.2321 0.549604 14.296 0.59657C14.3598 0.643537 14.4116 0.705009 14.447 0.775917L14.947 1.77592C14.9818 1.84545 15 1.92214 15 1.99992V13.9999C15 14.0777 14.9818 14.1544 14.947 14.2239L14.447 15.2239C14.4115 15.2946 14.3598 15.3559 14.296 15.4028C14.2323 15.4496 14.1583 15.4807 14.0802 15.4934C14.0021 15.5061 13.9221 15.5 13.8468 15.4758C13.7715 15.4515 13.703 15.4098 13.647 15.3539L13 14.7069L12.354 15.3539C12.3076 15.4005 12.2524 15.4374 12.1916 15.4626C12.1309 15.4878 12.0658 15.5008 12 15.5008C11.9342 15.5008 11.8691 15.4878 11.8084 15.4626C11.7476 15.4374 11.6924 15.4005 11.646 15.3539L11 14.7069L10.354 15.3539C10.3076 15.4005 10.2524 15.4374 10.1916 15.4626C10.1309 15.4878 10.0658 15.5008 10 15.5008C9.93423 15.5008 9.86911 15.4878 9.80837 15.4626C9.74762 15.4374 9.69245 15.4005 9.646 15.3539L9 14.7069L8.354 15.3539C8.30755 15.4005 8.25238 15.4374 8.19163 15.4626C8.13089 15.4878 8.06577 15.5008 8 15.5008C7.93423 15.5008 7.86911 15.4878 7.80837 15.4626C7.74762 15.4374 7.69245 15.4005 7.646 15.3539L7 14.7069L6.354 15.3539C6.30755 15.4005 6.25238 15.4374 6.19163 15.4626C6.13089 15.4878 6.06577 15.5008 6 15.5008C5.93423 15.5008 5.86911 15.4878 5.80837 15.4626C5.74762 15.4374 5.69245 15.4005 5.646 15.3539L5 14.7069L4.354 15.3539C4.30755 15.4005 4.25238 15.4374 4.19163 15.4626C4.13089 15.4878 4.06577 15.5008 4 15.5008C3.93423 15.5008 3.86911 15.4878 3.80837 15.4626C3.74762 15.4374 3.69245 15.4005 3.646 15.3539L3 14.7069L2.354 15.3539C2.29798 15.41 2.22943 15.4519 2.154 15.4763C2.07858 15.5007 1.99845 15.5067 1.92021 15.494C1.84197 15.4813 1.76787 15.4502 1.70403 15.4033C1.64018 15.3563 1.58842 15.2948 1.553 15.2239L1.053 14.2239C1.01815 14.1544 1.00001 14.0777 1 13.9999V1.99992C1.00001 1.92214 1.01815 1.84545 1.053 1.77592L1.553 0.775917C1.58841 0.705059 1.64015 0.643628 1.70396 0.596685C1.76777 0.549743 1.84181 0.518632 1.92 0.505917ZM2.137 1.84392L2 2.11792V13.8819L2.137 14.1559L2.647 13.6459C2.74076 13.5522 2.86792 13.4995 3.0005 13.4995C3.13308 13.4995 3.26024 13.5522 3.354 13.6459L4 14.2929L4.646 13.6469C4.69245 13.6004 4.74762 13.5634 4.80837 13.5382C4.86911 13.513 4.93423 13.5 5 13.5C5.06577 13.5 5.13089 13.513 5.19163 13.5382C5.25238 13.5634 5.30755 13.6004 5.354 13.6469L6 14.2929L6.646 13.6469C6.69245 13.6004 6.74762 13.5634 6.80837 13.5382C6.86911 13.513 6.93423 13.5 7 13.5C7.06577 13.5 7.13089 13.513 7.19163 13.5382C7.25238 13.5634 7.30755 13.6004 7.354 13.6469L8 14.2929L8.646 13.6469C8.69245 13.6004 8.74762 13.5634 8.80837 13.5382C8.86911 13.513 8.93423 13.5 9 13.5C9.06577 13.5 9.13089 13.513 9.19163 13.5382C9.25238 13.5634 9.30755 13.6004 9.354 13.6469L10 14.2929L10.646 13.6469C10.6924 13.6004 10.7476 13.5634 10.8084 13.5382C10.8691 13.513 10.9342 13.5 11 13.5C11.0658 13.5 11.1309 13.513 11.1916 13.5382C11.2524 13.5634 11.3076 13.6004 11.354 13.6469L12 14.2929L12.646 13.6469C12.6924 13.6004 12.7476 13.5634 12.8084 13.5382C12.8691 13.513 12.9342 13.5 13 13.5C13.0658 13.5 13.1309 13.513 13.1916 13.5382C13.2524 13.5634 13.3076 13.6004 13.354 13.6469L13.863 14.1559L14 13.8819V2.11792L13.863 1.84392L13.353 2.35392C13.2592 2.44765 13.1321 2.50031 12.9995 2.50031C12.8669 2.50031 12.7398 2.44765 12.646 2.35392L12 1.70692L11.354 2.35392C11.3076 2.40048 11.2524 2.43742 11.1916 2.46263C11.1309 2.48784 11.0658 2.50081 11 2.50081C10.9342 2.50081 10.8691 2.48784 10.8084 2.46263C10.7476 2.43742 10.6924 2.40048 10.646 2.35392L10 1.70692L9.354 2.35392C9.30755 2.40048 9.25238 2.43742 9.19163 2.46263C9.13089 2.48784 9.06577 2.50081 9 2.50081C8.93423 2.50081 8.86911 2.48784 8.80837 2.46263C8.74762 2.43742 8.69245 2.40048 8.646 2.35392L8 1.70692L7.354 2.35392C7.30755 2.40048 7.25238 2.43742 7.19163 2.46263C7.13089 2.48784 7.06577 2.50081 7 2.50081C6.93423 2.50081 6.86911 2.48784 6.80837 2.46263C6.74762 2.43742 6.69245 2.40048 6.646 2.35392L6 1.70692L5.354 2.35392C5.30755 2.40048 5.25238 2.43742 5.19163 2.46263C5.13089 2.48784 5.06577 2.50081 5 2.50081C4.93423 2.50081 4.86911 2.48784 4.80837 2.46263C4.74762 2.43742 4.69245 2.40048 4.646 2.35392L4 1.70692L3.354 2.35392C3.30755 2.40048 3.25238 2.43742 3.19163 2.46263C3.13089 2.48784 3.06577 2.50081 3 2.50081C2.93423 2.50081 2.86911 2.48784 2.80837 2.46263C2.74762 2.43742 2.69245 2.40048 2.646 2.35392L2.137 1.84392Z" fill="#212529"/>
<path d="M3 4.49992C3 4.36731 3.05268 4.24013 3.14645 4.14636C3.24021 4.0526 3.36739 3.99992 3.5 3.99992H9.5C9.63261 3.99992 9.75979 4.0526 9.85355 4.14636C9.94732 4.24013 10 4.36731 10 4.49992C10 4.63253 9.94732 4.7597 9.85355 4.85347C9.75979 4.94724 9.63261 4.99992 9.5 4.99992H3.5C3.36739 4.99992 3.24021 4.94724 3.14645 4.85347C3.05268 4.7597 3 4.63253 3 4.49992ZM3 6.49992C3 6.36731 3.05268 6.24013 3.14645 6.14636C3.24021 6.0526 3.36739 5.99992 3.5 5.99992H9.5C9.63261 5.99992 9.75979 6.0526 9.85355 6.14636C9.94732 6.24013 10 6.36731 10 6.49992C10 6.63253 9.94732 6.7597 9.85355 6.85347C9.75979 6.94724 9.63261 6.99992 9.5 6.99992H3.5C3.36739 6.99992 3.24021 6.94724 3.14645 6.85347C3.05268 6.7597 3 6.63253 3 6.49992ZM3 8.49992C3 8.36731 3.05268 8.24013 3.14645 8.14636C3.24021 8.0526 3.36739 7.99992 3.5 7.99992H9.5C9.63261 7.99992 9.75979 8.0526 9.85355 8.14636C9.94732 8.24013 10 8.36731 10 8.49992C10 8.63253 9.94732 8.7597 9.85355 8.85347C9.75979 8.94724 9.63261 8.99992 9.5 8.99992H3.5C3.36739 8.99992 3.24021 8.94724 3.14645 8.85347C3.05268 8.7597 3 8.63253 3 8.49992ZM3 10.4999C3 10.3673 3.05268 10.2401 3.14645 10.1464C3.24021 10.0526 3.36739 9.99992 3.5 9.99992H9.5C9.63261 9.99992 9.75979 10.0526 9.85355 10.1464C9.94732 10.2401 10 10.3673 10 10.4999C10 10.6325 9.94732 10.7597 9.85355 10.8535C9.75979 10.9472 9.63261 10.9999 9.5 10.9999H3.5C3.36739 10.9999 3.24021 10.9472 3.14645 10.8535C3.05268 10.7597 3 10.6325 3 10.4999ZM11 4.49992C11 4.36731 11.0527 4.24013 11.1464 4.14636C11.2402 4.0526 11.3674 3.99992 11.5 3.99992H12.5C12.6326 3.99992 12.7598 4.0526 12.8536 4.14636C12.9473 4.24013 13 4.36731 13 4.49992C13 4.63253 12.9473 4.7597 12.8536 4.85347C12.7598 4.94724 12.6326 4.99992 12.5 4.99992H11.5C11.3674 4.99992 11.2402 4.94724 11.1464 4.85347C11.0527 4.7597 11 4.63253 11 4.49992ZM11 6.49992C11 6.36731 11.0527 6.24013 11.1464 6.14636C11.2402 6.0526 11.3674 5.99992 11.5 5.99992H12.5C12.6326 5.99992 12.7598 6.0526 12.8536 6.14636C12.9473 6.24013 13 6.36731 13 6.49992C13 6.63253 12.9473 6.7597 12.8536 6.85347C12.7598 6.94724 12.6326 6.99992 12.5 6.99992H11.5C11.3674 6.99992 11.2402 6.94724 11.1464 6.85347C11.0527 6.7597 11 6.63253 11 6.49992ZM11 8.49992C11 8.36731 11.0527 8.24013 11.1464 8.14636C11.2402 8.0526 11.3674 7.99992 11.5 7.99992H12.5C12.6326 7.99992 12.7598 8.0526 12.8536 8.14636C12.9473 8.24013 13 8.36731 13 8.49992C13 8.63253 12.9473 8.7597 12.8536 8.85347C12.7598 8.94724 12.6326 8.99992 12.5 8.99992H11.5C11.3674 8.99992 11.2402 8.94724 11.1464 8.85347C11.0527 8.7597 11 8.63253 11 8.49992ZM11 10.4999C11 10.3673 11.0527 10.2401 11.1464 10.1464C11.2402 10.0526 11.3674 9.99992 11.5 9.99992H12.5C12.6326 9.99992 12.7598 10.0526 12.8536 10.1464C12.9473 10.2401 13 10.3673 13 10.4999C13 10.6325 12.9473 10.7597 12.8536 10.8535C12.7598 10.9472 12.6326 10.9999 12.5 10.9999H11.5C11.3674 10.9999 11.2402 10.9472 11.1464 10.8535C11.0527 10.7597 11 10.6325 11 10.4999Z" fill="#212529"/>
</svg>
