<svg width="16" height="16" viewBox="0 0 16 16" fill="none" xmlns="http://www.w3.org/2000/svg">
<g clip-path="url(#clip0_34_5094)">
<path d="M3 4.49992C3 4.36731 3.05268 4.24013 3.14645 4.14636C3.24021 4.0526 3.36739 3.99992 3.5 3.99992H9.5C9.63261 3.99992 9.75979 4.0526 9.85355 4.14636C9.94732 4.24013 10 4.36731 10 4.49992C10 4.63253 9.94732 4.7597 9.85355 4.85347C9.75979 4.94724 9.63261 4.99992 9.5 4.99992H3.5C3.36739 4.99992 3.24021 4.94724 3.14645 4.85347C3.05268 4.7597 3 4.63253 3 4.49992ZM3 6.49992C3 6.36731 3.05268 6.24013 3.14645 6.14636C3.24021 6.0526 3.36739 5.99992 3.5 5.99992H9.5C9.63261 5.99992 9.75979 6.0526 9.85355 6.14636C9.94732 6.24013 10 6.36731 10 6.49992C10 6.63253 9.94732 6.7597 9.85355 6.85347C9.75979 6.94724 9.63261 6.99992 9.5 6.99992H3.5C3.36739 6.99992 3.24021 6.94724 3.14645 6.85347C3.05268 6.7597 3 6.63253 3 6.49992ZM3 8.49992C3 8.36731 3.05268 8.24013 3.14645 8.14636C3.24021 8.0526 3.36739 7.99992 3.5 7.99992H9.5C9.63261 7.99992 9.75979 8.0526 9.85355 8.14636C9.94732 8.24013 10 8.36731 10 8.49992C10 8.63253 9.94732 8.7597 9.85355 8.85347C9.75979 8.94724 9.63261 8.99992 9.5 8.99992H3.5C3.36739 8.99992 3.24021 8.94724 3.14645 8.85347C3.05268 8.7597 3 8.63253 3 8.49992ZM3 10.4999C3 10.3673 3.05268 10.2401 3.14645 10.1464C3.24021 10.0526 3.36739 9.99992 3.5 9.99992H9.5C9.63261 9.99992 9.75979 10.0526 9.85355 10.1464C9.94732 10.2401 10 10.3673 10 10.4999C10 10.6325 9.94732 10.7597 9.85355 10.8535C9.75979 10.9472 9.63261 10.9999 9.5 10.9999H3.5C3.36739 10.9999 3.24021 10.9472 3.14645 10.8535C3.05268 10.7597 3 10.6325 3 10.4999ZM3 12.4999C3 12.3673 3.05268 12.2401 3.14645 12.1464C3.24021 12.0526 3.36739 11.9999 3.5 11.9999H9.5C9.63261 11.9999 9.75979 12.0526 9.85355 12.1464C9.94732 12.2401 10 12.3673 10 12.4999C10 12.6325 9.94732 12.7597 9.85355 12.8535C9.75979 12.9472 9.63261 12.9999 9.5 12.9999H3.5C3.36739 12.9999 3.24021 12.9472 3.14645 12.8535C3.05268 12.7597 3 12.6325 3 12.4999ZM11.5 3.99992C11.3674 3.99992 11.2402 4.0526 11.1464 4.14636C11.0527 4.24013 11 4.36731 11 4.49992C11 4.63253 11.0527 4.7597 11.1464 4.85347C11.2402 4.94724 11.3674 4.99992 11.5 4.99992H12.5C12.6326 4.99992 12.7598 4.94724 12.8536 4.85347C12.9473 4.7597 13 4.63253 13 4.49992C13 4.36731 12.9473 4.24013 12.8536 4.14636C12.7598 4.0526 12.6326 3.99992 12.5 3.99992H11.5ZM11.5 5.99992C11.3674 5.99992 11.2402 6.0526 11.1464 6.14636C11.0527 6.24013 11 6.36731 11 6.49992C11 6.63253 11.0527 6.7597 11.1464 6.85347C11.2402 6.94724 11.3674 6.99992 11.5 6.99992H12.5C12.6326 6.99992 12.7598 6.94724 12.8536 6.85347C12.9473 6.7597 13 6.63253 13 6.49992C13 6.36731 12.9473 6.24013 12.8536 6.14636C12.7598 6.0526 12.6326 5.99992 12.5 5.99992H11.5ZM11.5 7.99992C11.3674 7.99992 11.2402 8.0526 11.1464 8.14636C11.0527 8.24013 11 8.36731 11 8.49992C11 8.63253 11.0527 8.7597 11.1464 8.85347C11.2402 8.94724 11.3674 8.99992 11.5 8.99992H12.5C12.6326 8.99992 12.7598 8.94724 12.8536 8.85347C12.9473 8.7597 13 8.63253 13 8.49992C13 8.36731 12.9473 8.24013 12.8536 8.14636C12.7598 8.0526 12.6326 7.99992 12.5 7.99992H11.5ZM11.5 9.99992C11.3674 9.99992 11.2402 10.0526 11.1464 10.1464C11.0527 10.2401 11 10.3673 11 10.4999C11 10.6325 11.0527 10.7597 11.1464 10.8535C11.2402 10.9472 11.3674 10.9999 11.5 10.9999H12.5C12.6326 10.9999 12.7598 10.9472 12.8536 10.8535C12.9473 10.7597 13 10.6325 13 10.4999C13 10.3673 12.9473 10.2401 12.8536 10.1464C12.7598 10.0526 12.6326 9.99992 12.5 9.99992H11.5ZM11.5 11.9999C11.3674 11.9999 11.2402 12.0526 11.1464 12.1464C11.0527 12.2401 11 12.3673 11 12.4999C11 12.6325 11.0527 12.7597 11.1464 12.8535C11.2402 12.9472 11.3674 12.9999 11.5 12.9999H12.5C12.6326 12.9999 12.7598 12.9472 12.8536 12.8535C12.9473 12.7597 13 12.6325 13 12.4999C13 12.3673 12.9473 12.2401 12.8536 12.1464C12.7598 12.0526 12.6326 11.9999 12.5 11.9999H11.5Z" fill="#212529"/>
<path d="M2.354 0.645917C2.29798 0.58985 2.22943 0.547904 2.154 0.523541C2.07858 0.499177 1.99845 0.493093 1.92021 0.505791C1.84197 0.518488 1.76787 0.549604 1.70403 0.59657C1.64018 0.643537 1.58842 0.705009 1.553 0.775917L1.053 1.77592C1.01815 1.84545 1.00001 1.92214 1 1.99992V14.9999H0.5C0.367392 14.9999 0.240215 15.0526 0.146447 15.1464C0.0526784 15.2401 0 15.3673 0 15.4999C0 15.6325 0.0526784 15.7597 0.146447 15.8535C0.240215 15.9472 0.367392 15.9999 0.5 15.9999H15.5C15.6326 15.9999 15.7598 15.9472 15.8536 15.8535C15.9473 15.7597 16 15.6325 16 15.4999C16 15.3673 15.9473 15.2401 15.8536 15.1464C15.7598 15.0526 15.6326 14.9999 15.5 14.9999H15V1.99992C15 1.92214 14.9818 1.84545 14.947 1.77592L14.447 0.775917C14.4115 0.70519 14.3598 0.643886 14.296 0.597045C14.2323 0.550204 14.1583 0.519163 14.0802 0.506473C14.0021 0.493782 13.9221 0.499806 13.8468 0.524047C13.7715 0.548288 13.703 0.590056 13.647 0.645917L13 1.29292L12.354 0.645917C12.3076 0.599354 12.2524 0.562411 12.1916 0.537205C12.1309 0.511998 12.0658 0.499023 12 0.499023C11.9342 0.499023 11.8691 0.511998 11.8084 0.537205C11.7476 0.562411 11.6924 0.599354 11.646 0.645917L11 1.29292L10.354 0.645917C10.3076 0.599354 10.2524 0.562411 10.1916 0.537205C10.1309 0.511998 10.0658 0.499023 10 0.499023C9.93423 0.499023 9.86911 0.511998 9.80837 0.537205C9.74762 0.562411 9.69245 0.599354 9.646 0.645917L9 1.29292L8.354 0.645917C8.30755 0.599354 8.25238 0.562411 8.19163 0.537205C8.13089 0.511998 8.06577 0.499023 8 0.499023C7.93423 0.499023 7.86911 0.511998 7.80837 0.537205C7.74762 0.562411 7.69245 0.599354 7.646 0.645917L7 1.29292L6.354 0.645917C6.30755 0.599354 6.25238 0.562411 6.19163 0.537205C6.13089 0.511998 6.06577 0.499023 6 0.499023C5.93423 0.499023 5.86911 0.511998 5.80837 0.537205C5.74762 0.562411 5.69245 0.599354 5.646 0.645917L5 1.29292L4.354 0.645917C4.30755 0.599354 4.25238 0.562411 4.19163 0.537205C4.13089 0.511998 4.06577 0.499023 4 0.499023C3.93423 0.499023 3.86911 0.511998 3.80837 0.537205C3.74762 0.562411 3.69245 0.599354 3.646 0.645917L3 1.29292L2.354 0.645917ZM2.137 1.84392L2.647 2.35392C2.74076 2.44765 2.86792 2.50031 3.0005 2.50031C3.13308 2.50031 3.26024 2.44765 3.354 2.35392L4 1.70692L4.646 2.35392C4.69245 2.40048 4.74762 2.43742 4.80837 2.46263C4.86911 2.48784 4.93423 2.50081 5 2.50081C5.06577 2.50081 5.13089 2.48784 5.19163 2.46263C5.25238 2.43742 5.30755 2.40048 5.354 2.35392L6 1.70692L6.646 2.35392C6.69245 2.40048 6.74762 2.43742 6.80837 2.46263C6.86911 2.48784 6.93423 2.50081 7 2.50081C7.06577 2.50081 7.13089 2.48784 7.19163 2.46263C7.25238 2.43742 7.30755 2.40048 7.354 2.35392L8 1.70692L8.646 2.35392C8.69245 2.40048 8.74762 2.43742 8.80837 2.46263C8.86911 2.48784 8.93423 2.50081 9 2.50081C9.06577 2.50081 9.13089 2.48784 9.19163 2.46263C9.25238 2.43742 9.30755 2.40048 9.354 2.35392L10 1.70692L10.646 2.35392C10.6924 2.40048 10.7476 2.43742 10.8084 2.46263C10.8691 2.48784 10.9342 2.50081 11 2.50081C11.0658 2.50081 11.1309 2.48784 11.1916 2.46263C11.2524 2.43742 11.3076 2.40048 11.354 2.35392L12 1.70692L12.646 2.35392C12.6924 2.40048 12.7476 2.43742 12.8084 2.46263C12.8691 2.48784 12.9342 2.50081 13 2.50081C13.0658 2.50081 13.1309 2.48784 13.1916 2.46263C13.2524 2.43742 13.3076 2.40048 13.354 2.35392L13.863 1.84392L14 2.11792V14.9999H2V2.11792L2.137 1.84392Z" fill="#212529"/>
</g>
<defs>
<clipPath id="clip0_34_5094">
<rect width="16" height="16" fill="white"/>
</clipPath>
</defs>
</svg>
