<svg width="16" height="16" viewBox="0 0 16 16" fill="none" xmlns="http://www.w3.org/2000/svg">
<path d="M6.14645 12.1464C6.05268 12.2402 6.00001 12.3673 6.00001 12.4999C6.00001 12.6326 6.05268 12.7597 6.14645 12.8535C6.24022 12.9473 6.3674 12.9999 6.50001 12.9999H9.50001C9.63262 12.9999 9.75979 12.9473 9.85356 12.8535C9.94733 12.7597 10 12.6326 10 12.4999C10 12.3673 9.94733 12.2402 9.85356 12.1464C9.75979 12.0526 9.63262 11.9999 9.50001 11.9999H6.50001C6.3674 11.9999 6.24022 12.0526 6.14645 12.1464Z" fill="#212529"/>
<path fill-rule="evenodd" clip-rule="evenodd" d="M5.53001 5.88595C4.23501 5.76495 3.00001 6.75995 3.00001 8.06195V9.21895C2.99592 9.4402 3.07061 9.65571 3.21075 9.82698C3.35088 9.99825 3.54732 10.1141 3.76501 10.1539C4.61001 10.2999 6.10501 10.4999 8.00001 10.4999C9.89501 10.4999 11.39 10.3009 12.235 10.1539C12.4527 10.1141 12.6491 9.99825 12.7893 9.82698C12.9294 9.65571 13.0041 9.4402 13 9.21895V8.06195C13 6.75995 11.765 5.76495 10.47 5.88595C8.82691 6.0393 7.1731 6.0393 5.53001 5.88595ZM7.42533 7.24285C7.46305 7.23103 7.50304 7.22832 7.54201 7.23495C7.58083 7.24153 7.61755 7.25718 7.64918 7.28064C7.68081 7.3041 7.70645 7.3347 7.72401 7.36995L8.56601 9.06995L9.32001 8.28495C9.36378 8.23959 9.42307 8.21245 9.48601 8.20895C10.259 8.16495 10.928 8.09395 11.466 8.01995C11.5304 8.01355 11.5947 8.03235 11.6455 8.0724C11.6963 8.11244 11.7296 8.17062 11.7384 8.2347C11.7472 8.29878 11.7308 8.36378 11.6927 8.41604C11.6546 8.4683 11.5977 8.50375 11.534 8.51495C10.896 8.60207 10.2548 8.66478 9.61201 8.70295L8.68001 9.67295C8.65223 9.70182 8.61792 9.72359 8.57996 9.73643C8.54201 9.74927 8.50153 9.7528 8.46193 9.74673C8.42233 9.74065 8.38476 9.72514 8.35241 9.70151C8.32005 9.67788 8.29385 9.64682 8.27601 9.61095L7.42901 7.90095L6.67501 8.63695C6.65017 8.66127 6.62054 8.68015 6.58799 8.69238C6.55545 8.7046 6.52071 8.70991 6.48601 8.70795C5.69801 8.66395 5.01601 8.59095 4.46601 8.51495C4.4023 8.50375 4.34541 8.4683 4.3073 8.41604C4.26919 8.36378 4.25281 8.29878 4.26161 8.2347C4.27042 8.17062 4.30371 8.11244 4.35451 8.0724C4.4053 8.03235 4.46964 8.01355 4.53401 8.01995C5.15513 8.10461 5.77925 8.16565 6.40501 8.20295L7.32501 7.30295C7.35322 7.27527 7.38761 7.25467 7.42533 7.24285Z" fill="#212529"/>
<path fill-rule="evenodd" clip-rule="evenodd" d="M8.92388 1.38268C8.83964 1.58606 8.69064 1.75596 8.5 1.86603V3.00003H10.5C11.6935 3.00003 12.8381 3.47413 13.682 4.31804C14.5259 5.16196 15 6.30655 15 7.50003V8.00003C15.2652 8.00003 15.5196 8.10538 15.7071 8.29292C15.8946 8.48046 16 8.73481 16 9.00003V11C16 11.2652 15.8946 11.5196 15.7071 11.7071C15.5196 11.8947 15.2652 12 15 12V13C15 13.5305 14.7893 14.0392 14.4142 14.4142C14.0391 14.7893 13.5304 15 13 15H3C2.46957 15 1.96086 14.7893 1.58579 14.4142C1.21071 14.0392 1 13.5305 1 13V12C0.734784 12 0.48043 11.8947 0.292893 11.7071C0.105357 11.5196 0 11.2652 0 11V9.00003C0 8.73481 0.105357 8.48046 0.292893 8.29292C0.48043 8.10538 0.734784 8.00003 1 8.00003V7.50003C1 6.30655 1.47411 5.16196 2.31802 4.31804C3.16193 3.47413 4.30653 3.00003 5.5 3.00003H7.5V1.86603C7.30936 1.75596 7.16036 1.58606 7.07612 1.38268C6.99188 1.17931 6.9771 0.953814 7.03407 0.741181C7.09105 0.528548 7.21659 0.340656 7.39124 0.206647C7.56588 0.0726374 7.77987 0 8 0C8.22013 0 8.43412 0.0726374 8.60876 0.206647C8.78341 0.340656 8.90895 0.528548 8.96593 0.741181C9.0229 0.953814 9.00812 1.17931 8.92388 1.38268ZM14 13V7.50003C14 6.57177 13.6313 5.68153 12.9749 5.02515C12.3185 4.36877 11.4283 4.00003 10.5 4.00003H5.5C4.57174 4.00003 3.6815 4.36877 3.02513 5.02515C2.36875 5.68153 2 6.57177 2 7.50003V13C2 13.2652 2.10536 13.5196 2.29289 13.7071C2.48043 13.8947 2.73478 14 3 14H13C13.2652 14 13.5196 13.8947 13.7071 13.7071C13.8946 13.5196 14 13.2652 14 13Z" fill="#212529"/>
</svg>
