<svg width="16" height="16" viewBox="0 0 16 16" fill="none" xmlns="http://www.w3.org/2000/svg">
<path d="M6.563 8H5.035C5.11807 7.42083 5.34575 6.87193 5.697 6.404L6.777 7.484C6.683 7.644 6.61 7.816 6.563 8ZM7.484 6.777L6.404 5.697C6.87193 5.34575 7.42083 5.11807 8 5.035V6.563C7.816 6.61 7.643 6.683 7.484 6.777ZM9 6.563V5.035C9.57917 5.11807 10.1281 5.34575 10.596 5.697L9.516 6.777C9.35493 6.68174 9.18122 6.60969 9 6.563ZM10.223 7.484L11.303 6.404C11.646 6.862 11.88 7.407 11.965 8H10.437C10.3903 7.81879 10.3183 7.64508 10.223 7.484ZM10.437 9H11.965C11.8819 9.57916 11.6542 10.128 11.303 10.596L10.223 9.516C10.317 9.356 10.39 9.184 10.437 9ZM9.516 10.223L10.596 11.303C10.128 11.6542 9.57916 11.8819 9 11.965V10.437C9.184 10.39 9.357 10.317 9.516 10.223ZM8 10.437V11.965C7.42084 11.8819 6.87195 11.6542 6.404 11.303L7.484 10.223C7.644 10.317 7.816 10.39 8 10.437ZM6.777 9.516L5.697 10.596C5.34575 10.1281 5.11807 9.57917 5.035 9H6.563C6.61 9.184 6.683 9.357 6.777 9.516ZM7.5 8.5C7.5 8.23478 7.60536 7.98043 7.79289 7.79289C7.98043 7.60536 8.23478 7.5 8.5 7.5C8.76522 7.5 9.01957 7.60536 9.20711 7.79289C9.39464 7.98043 9.5 8.23478 9.5 8.5C9.5 8.76522 9.39464 9.01957 9.20711 9.20711C9.01957 9.39464 8.76522 9.5 8.5 9.5C8.23478 9.5 7.98043 9.39464 7.79289 9.20711C7.60536 9.01957 7.5 8.76522 7.5 8.5Z" fill="#212529"/>
<path d="M2.5 1C2.10218 1 1.72064 1.15804 1.43934 1.43934C1.15804 1.72064 1 2.10218 1 2.5V3H0.5C0.367392 3 0.240215 3.05268 0.146447 3.14645C0.0526784 3.24021 0 3.36739 0 3.5C0 3.63261 0.0526784 3.75979 0.146447 3.85355C0.240215 3.94732 0.367392 4 0.5 4H1V8H0.5C0.367392 8 0.240215 8.05268 0.146447 8.14645C0.0526784 8.24021 0 8.36739 0 8.5C0 8.63261 0.0526784 8.75979 0.146447 8.85355C0.240215 8.94732 0.367392 9 0.5 9H1V13H0.5C0.367392 13 0.240215 13.0527 0.146447 13.1464C0.0526784 13.2402 0 13.3674 0 13.5C0 13.6326 0.0526784 13.7598 0.146447 13.8536C0.240215 13.9473 0.367392 14 0.5 14H1V14.5C1 14.8978 1.15804 15.2794 1.43934 15.5607C1.72064 15.842 2.10218 16 2.5 16H14.5C14.8978 16 15.2794 15.842 15.5607 15.5607C15.842 15.2794 16 14.8978 16 14.5V2.5C16 2.10218 15.842 1.72064 15.5607 1.43934C15.2794 1.15804 14.8978 1 14.5 1H2.5ZM8.5 4C9.69347 4 10.8381 4.47411 11.682 5.31802C12.5259 6.16193 13 7.30653 13 8.5C13 9.69347 12.5259 10.8381 11.682 11.682C10.8381 12.5259 9.69347 13 8.5 13C7.30653 13 6.16193 12.5259 5.31802 11.682C4.47411 10.8381 4 9.69347 4 8.5C4 7.30653 4.47411 6.16193 5.31802 5.31802C6.16193 4.47411 7.30653 4 8.5 4Z" fill="#212529"/>
</svg>
