<svg width="16" height="16" viewBox="0 0 16 16" fill="none" xmlns="http://www.w3.org/2000/svg">
<path d="M3.50019 3.5C2.88619 2.616 3.42619 1.538 4.35819 1L8.00019 7.226L11.6422 1C12.5742 1.538 13.1142 2.616 12.5002 3.5L8.81019 8.61L10.3662 11.271C10.9175 10.9902 11.5534 10.9238 12.1509 11.0847C12.7484 11.2456 13.2649 11.6223 13.6007 12.142C13.9365 12.6617 14.0676 13.2875 13.9687 13.8983C13.8698 14.5091 13.5479 15.0615 13.0653 15.4487C12.5827 15.8359 11.9736 16.0303 11.3559 15.9945C10.7382 15.9586 10.1557 15.6949 9.72117 15.2544C9.28662 14.814 9.03085 14.228 9.00333 13.6099C8.97581 12.9917 9.17849 12.3853 9.57219 11.908L8.00019 9.73L6.42819 11.907C6.82188 12.3843 7.02456 12.9907 6.99705 13.6089C6.96953 14.227 6.71376 14.813 6.27921 15.2534C5.84465 15.6939 5.2622 15.9576 4.64449 15.9935C4.02678 16.0293 3.41771 15.8349 2.93509 15.4477C2.45246 15.0605 2.13057 14.5081 2.03166 13.8973C1.93276 13.2865 2.06388 12.6607 2.39965 12.141C2.73543 11.6213 3.252 11.2446 3.84947 11.0837C4.44694 10.9228 5.08284 10.9892 5.63419 11.27L7.19019 8.61L3.50019 3.5ZM6.00019 13.5C6.00019 13.1022 5.84215 12.7206 5.56085 12.4393C5.27954 12.158 4.89801 12 4.50019 12C4.10236 12 3.72083 12.158 3.43953 12.4393C3.15822 12.7206 3.00019 13.1022 3.00019 13.5C3.00019 13.8978 3.15822 14.2794 3.43953 14.5607C3.72083 14.842 4.10236 15 4.50019 15C4.89801 15 5.27954 14.842 5.56085 14.5607C5.84215 14.2794 6.00019 13.8978 6.00019 13.5ZM13.0002 13.5C13.0002 13.1022 12.8422 12.7206 12.5608 12.4393C12.2795 12.158 11.898 12 11.5002 12C11.1024 12 10.7208 12.158 10.4395 12.4393C10.1582 12.7206 10.0002 13.1022 10.0002 13.5C10.0002 13.8978 10.1582 14.2794 10.4395 14.5607C10.7208 14.842 11.1024 15 11.5002 15C11.898 15 12.2795 14.842 12.5608 14.5607C12.8422 14.2794 13.0002 13.8978 13.0002 13.5Z" fill="#212529"/>
</svg>
