<svg width="16" height="16" viewBox="0 0 16 16" fill="none" xmlns="http://www.w3.org/2000/svg">
<g clip-path="url(#clip0_34_5182)">
<path fill-rule="evenodd" clip-rule="evenodd" d="M15.9894 0.399526C16.009 0.495402 16.0001 0.594942 15.9638 0.685806L13.0258 8.02981C12.3947 7.95553 11.7551 8.01575 11.149 8.20648C10.5429 8.39722 9.98402 8.71415 9.50922 9.13643C9.03442 9.5587 8.65444 10.0767 8.39427 10.6565C8.1341 11.2362 7.99965 11.8644 7.99977 12.4998C7.99977 12.9998 7.99977 13.9998 7.22777 12.8598L5.63777 10.3618L0.642773 7.18381L0.641773 7.18181L0.231773 6.92181C0.153875 6.87254 0.0911093 6.8027 0.0504102 6.72001C0.00971105 6.63731 -0.00733788 6.54497 0.00114666 6.4532C0.0096312 6.36142 0.043319 6.27377 0.0984888 6.19994C0.153659 6.1261 0.228163 6.06895 0.313773 6.03481L0.765773 5.85481H0.766773L15.3138 0.0358061C15.4046 -0.000564594 15.5042 -0.0094681 15.6001 0.0101994C15.6959 0.0298668 15.7839 0.0772403 15.8531 0.146447C15.9223 0.215653 15.9697 0.303649 15.9894 0.399526ZM6.63677 10.0698L14.1308 2.57581H14.1318L14.6018 1.39781L13.4238 1.86881L5.92977 9.36281L6.26777 9.57781C6.3298 9.6172 6.38238 9.66978 6.42177 9.73181L6.63677 10.0698Z" fill="#212529"/>
<path fill-rule="evenodd" clip-rule="evenodd" d="M14.9746 14.9746C15.631 14.3183 15.9998 13.428 15.9998 12.4998C15.9998 11.5715 15.631 10.6813 14.9746 10.0249C14.3183 9.36851 13.428 8.99976 12.4998 8.99976C11.5715 8.99976 10.6813 9.36851 10.0249 10.0249C9.36851 10.6813 8.99976 11.5715 8.99976 12.4998C8.99976 13.428 9.36851 14.3183 10.0249 14.9746C10.6813 15.631 11.5715 15.9998 12.4998 15.9998C13.428 15.9998 14.3183 15.631 14.9746 14.9746ZM13.823 10.755C13.888 10.7647 13.9504 10.787 14.0068 10.8208C14.0631 10.8545 14.1122 10.899 14.1514 10.9517C14.1905 11.0045 14.2189 11.0644 14.2349 11.1281C14.2508 11.1918 14.2541 11.2581 14.2445 11.323C14.2348 11.388 14.2125 11.4504 14.1788 11.5068L12.8438 13.7328C12.7851 13.8306 12.7049 13.9137 12.6093 13.9758C12.5136 14.038 12.4051 14.0775 12.2919 14.0914C12.1787 14.1052 12.0638 14.0931 11.956 14.0559C11.8482 14.0188 11.7503 13.9575 11.6698 13.8768L10.8958 13.1038C10.8019 13.0099 10.7491 12.8825 10.7491 12.7498C10.7491 12.617 10.8019 12.4896 10.8958 12.3958C10.9896 12.3019 11.117 12.2491 11.2498 12.2491C11.3825 12.2491 11.5099 12.3019 11.6038 12.3958L12.1508 12.9428L13.3208 10.9928C13.3545 10.9364 13.399 10.8873 13.4517 10.8481C13.5045 10.809 13.5644 10.7806 13.6281 10.7646C13.6918 10.7487 13.7581 10.7454 13.823 10.755Z" fill="#212529"/>
</g>
<defs>
<clipPath id="clip0_34_5182">
<rect width="16" height="16" fill="white"/>
</clipPath>
</defs>
</svg>
