<svg width="16" height="16" viewBox="0 0 16 16" fill="none" xmlns="http://www.w3.org/2000/svg">
<g clip-path="url(#clip0_34_5190)">
<path fill-rule="evenodd" clip-rule="evenodd" d="M15.9894 0.399526C16.009 0.495402 16.0001 0.594942 15.9638 0.685806L13.0258 8.02981C12.3947 7.95553 11.7551 8.01575 11.149 8.20648C10.5429 8.39722 9.98402 8.71415 9.50922 9.13643C9.03442 9.5587 8.65444 10.0767 8.39427 10.6565C8.1341 11.2362 7.99965 11.8644 7.99977 12.4998C7.99977 12.9998 7.99977 13.9998 7.22777 12.8598L5.63777 10.3618L0.642773 7.18381L0.641773 7.18181L0.231773 6.92181C0.153875 6.87254 0.0911093 6.8027 0.0504102 6.72001C0.00971105 6.63731 -0.00733788 6.54497 0.00114666 6.4532C0.0096312 6.36142 0.043319 6.27377 0.0984888 6.19994C0.153659 6.1261 0.228163 6.06895 0.313773 6.03481L0.765773 5.85481H0.766773L15.3138 0.0358061C15.4046 -0.000564594 15.5042 -0.0094681 15.6001 0.0101994C15.6959 0.0298668 15.7839 0.0772403 15.8531 0.146447C15.9223 0.215653 15.9697 0.303649 15.9894 0.399526ZM6.63677 10.0698L14.1308 2.57581H14.1318L14.6018 1.39781L13.4238 1.86881L5.92977 9.36281L6.26777 9.57781C6.3298 9.6172 6.38238 9.66978 6.42177 9.73181L6.63677 10.0698Z" fill="#212529"/>
<path fill-rule="evenodd" clip-rule="evenodd" d="M14.9747 14.9746C14.3183 15.631 13.428 15.9998 12.4998 15.9998C11.5715 15.9998 10.6813 15.631 10.0249 14.9746C9.36854 14.3183 8.99979 13.428 8.99979 12.4998C8.99979 11.5715 9.36854 10.6813 10.0249 10.0249C10.6813 9.36851 11.5715 8.99976 12.4998 8.99976C13.428 8.99976 14.3183 9.36851 14.9747 10.0249C15.631 10.6813 15.9998 11.5715 15.9998 12.4998C15.9998 13.428 15.631 14.3183 14.9747 14.9746ZM12.9998 12.4998V10.9998C12.9998 10.8671 12.9471 10.74 12.8533 10.6462C12.7596 10.5524 12.6324 10.4998 12.4998 10.4998C12.3672 10.4998 12.24 10.5524 12.1462 10.6462C12.0525 10.74 11.9998 10.8671 11.9998 10.9998V12.4998C11.9998 12.6324 12.0525 12.7595 12.1462 12.8533C12.24 12.9471 12.3672 12.9998 12.4998 12.9998C12.6324 12.9998 12.7596 12.9471 12.8533 12.8533C12.9471 12.7595 12.9998 12.6324 12.9998 12.4998ZM12.8533 14.3533C12.9471 14.2595 12.9998 14.1324 12.9998 13.9998C12.9998 13.8671 12.9471 13.74 12.8533 13.6462C12.7596 13.5524 12.6324 13.4998 12.4998 13.4998C12.3672 13.4998 12.24 13.5524 12.1462 13.6462C12.0525 13.74 11.9998 13.8671 11.9998 13.9998C11.9998 14.1324 12.0525 14.2595 12.1462 14.3533C12.24 14.4471 12.3672 14.4998 12.4998 14.4998C12.6324 14.4998 12.7596 14.4471 12.8533 14.3533Z" fill="#212529"/>
</g>
<defs>
<clipPath id="clip0_34_5190">
<rect width="16" height="16" fill="white"/>
</clipPath>
</defs>
</svg>
