<svg width="16" height="16" viewBox="0 0 16 16" fill="none" xmlns="http://www.w3.org/2000/svg">
<path d="M0.5 3.49986C0.367392 3.49986 0.240215 3.55254 0.146447 3.64631C0.0526784 3.74007 0 3.86725 0 3.99986L0 11.9999C0 12.1325 0.0526784 12.2596 0.146447 12.3534C0.240215 12.4472 0.367392 12.4999 0.5 12.4999C0.632608 12.4999 0.759785 12.4472 0.853553 12.3534C0.947322 12.2596 1 12.1325 1 11.9999V8.75286L7.267 12.3889C7.807 12.7019 8.5 12.3229 8.5 11.6919V8.75186L14.767 12.3879C15.307 12.7019 16 12.3229 16 11.6919V4.30786C16 3.67786 15.307 3.29786 14.767 3.61186L8.5 7.24786V4.30786C8.5 3.67786 7.808 3.29786 7.267 3.61186L1 7.24786V3.99986C1 3.86725 0.947322 3.74007 0.853553 3.64631C0.759785 3.55254 0.632608 3.49986 0.5 3.49986Z" fill="#212529"/>
</svg>
