<svg width="16" height="16" viewBox="0 0 16 16" fill="none" xmlns="http://www.w3.org/2000/svg">
<g clip-path="url(#clip0_34_5328)">
<path d="M8 15C6.14348 15 4.36301 14.2625 3.05025 12.9497C1.7375 11.637 1 9.85652 1 8C1 6.14348 1.7375 4.36301 3.05025 3.05025C4.36301 1.7375 6.14348 1 8 1C9.85652 1 11.637 1.7375 12.9497 3.05025C14.2625 4.36301 15 6.14348 15 8C15 9.85652 14.2625 11.637 12.9497 12.9497C11.637 14.2625 9.85652 15 8 15ZM8 16C10.1217 16 12.1566 15.1571 13.6569 13.6569C15.1571 12.1566 16 10.1217 16 8C16 5.87827 15.1571 3.84344 13.6569 2.34315C12.1566 0.842855 10.1217 0 8 0C5.87827 0 3.84344 0.842855 2.34315 2.34315C0.842855 3.84344 0 5.87827 0 8C0 10.1217 0.842855 12.1566 2.34315 13.6569C3.84344 15.1571 5.87827 16 8 16Z" fill="#212529"/>
<path d="M11.354 4.646C11.3076 4.59944 11.2524 4.56249 11.1916 4.53729C11.1309 4.51208 11.0658 4.49911 11 4.49911C10.9342 4.49911 10.8691 4.51208 10.8084 4.53729C10.7476 4.56249 10.6924 4.59944 10.646 4.646L4.646 10.646C4.59951 10.6925 4.56264 10.7477 4.53748 10.8084C4.51232 10.8692 4.49937 10.9343 4.49937 11C4.49937 11.0657 4.51232 11.1308 4.53748 11.1916C4.56264 11.2523 4.59951 11.3075 4.646 11.354C4.73989 11.4479 4.86722 11.5006 5 11.5006C5.06574 11.5006 5.13084 11.4877 5.19158 11.4625C5.25232 11.4374 5.30751 11.4005 5.354 11.354L11.354 5.354C11.4006 5.30755 11.4375 5.25238 11.4627 5.19163C11.4879 5.13089 11.5009 5.06577 11.5009 5C11.5009 4.93423 11.4879 4.86911 11.4627 4.80837C11.4375 4.74762 11.4006 4.69245 11.354 4.646Z" fill="#212529"/>
</g>
<defs>
<clipPath id="clip0_34_5328">
<rect width="16" height="16" fill="white"/>
</clipPath>
</defs>
</svg>
