<svg width="16" height="16" viewBox="0 0 16 16" fill="none" xmlns="http://www.w3.org/2000/svg">
<path d="M7.99983 16C7.86722 16 7.74004 15.9473 7.64627 15.8536C7.5525 15.7598 7.49983 15.6326 7.49983 15.5V14.207L6.85383 14.854C6.75994 14.9478 6.63265 15.0004 6.49997 15.0003C6.36729 15.0002 6.24008 14.9474 6.14633 14.8535C6.05257 14.7596 5.99995 14.6323 6.00005 14.4996C6.00014 14.367 6.05294 14.2398 6.14683 14.146L7.49983 12.793V11.707L6.85383 12.354C6.80734 12.4004 6.75216 12.4372 6.69145 12.4623C6.63073 12.4874 6.56567 12.5003 6.49997 12.5003C6.36729 12.5002 6.24008 12.4474 6.14633 12.3535C6.05257 12.2596 5.99995 12.1323 6.00005 11.9996C6.00014 11.867 6.05294 11.7398 6.14683 11.646L7.49983 10.293V8.866L6.26383 9.579L5.76883 11.429C5.75175 11.4924 5.72236 11.5519 5.68231 11.6039C5.64227 11.656 5.59236 11.6997 5.53543 11.7325C5.47851 11.7652 5.41569 11.7865 5.35056 11.795C5.28542 11.8035 5.21925 11.7991 5.15583 11.782C5.0924 11.7649 5.03295 11.7355 4.98089 11.6955C4.92882 11.6554 4.88515 11.6055 4.85237 11.5486C4.81959 11.4917 4.79834 11.4289 4.78984 11.3637C4.78134 11.2986 4.78575 11.2324 4.80283 11.169L5.03983 10.287L4.09983 10.829L3.60383 12.679C3.56935 12.8071 3.48539 12.9163 3.37043 12.9825C3.25547 13.0487 3.11893 13.0665 2.99083 13.032C2.86273 12.9975 2.75357 12.9136 2.68737 12.7986C2.62117 12.6836 2.60335 12.5471 2.63783 12.419L2.87483 11.537L1.75483 12.183C1.64005 12.2483 1.50411 12.2655 1.37669 12.2309C1.24927 12.1963 1.14071 12.1127 1.07469 11.9983C1.00867 11.884 0.990559 11.7482 1.02431 11.6205C1.05805 11.4929 1.14092 11.3838 1.25483 11.317L2.37483 10.671L1.49083 10.434C1.4274 10.4169 1.36795 10.3875 1.31589 10.3475C1.26382 10.3074 1.22015 10.2575 1.18737 10.2006C1.15459 10.1437 1.13334 10.0809 1.12484 10.0157C1.11634 9.9506 1.12075 9.88443 1.13783 9.821C1.1549 9.75757 1.1843 9.69813 1.22434 9.64606C1.26439 9.59399 1.31429 9.55032 1.37122 9.51754C1.42814 9.48477 1.49096 9.46352 1.55609 9.45502C1.62123 9.44652 1.6874 9.45093 1.75083 9.468L3.59883 9.963L4.53883 9.421L3.65683 9.184C3.59243 9.16795 3.53187 9.13924 3.47869 9.09955C3.4255 9.05986 3.38075 9.00997 3.34704 8.9528C3.31333 8.89564 3.29134 8.83233 3.28235 8.76658C3.27336 8.70083 3.27755 8.63394 3.29467 8.56982C3.3118 8.50571 3.34152 8.44564 3.38209 8.39312C3.42267 8.34061 3.4733 8.2967 3.53102 8.26395C3.58874 8.2312 3.65241 8.21028 3.7183 8.20239C3.7842 8.1945 3.851 8.19981 3.91483 8.218L5.76483 8.713L6.99983 8L5.76383 7.287L3.91483 7.782C3.851 7.8002 3.7842 7.8055 3.7183 7.79761C3.65241 7.78972 3.58874 7.7688 3.53102 7.73605C3.4733 7.7033 3.42267 7.65939 3.38209 7.60688C3.34152 7.55436 3.3118 7.49429 3.29467 7.43018C3.27755 7.36606 3.27336 7.29917 3.28235 7.23342C3.29134 7.16767 3.31333 7.10436 3.34704 7.0472C3.38075 6.99003 3.4255 6.94014 3.47869 6.90045C3.53187 6.86076 3.59243 6.83205 3.65683 6.816L4.53983 6.579L3.59983 6.037L1.74983 6.532C1.62256 6.56372 1.48793 6.54416 1.37495 6.47754C1.26196 6.41092 1.17968 6.30258 1.14584 6.17586C1.112 6.04914 1.1293 5.9142 1.19402 5.80012C1.25874 5.68604 1.36569 5.60196 1.49183 5.566L2.37483 5.329L1.25483 4.683C1.1975 4.65041 1.14719 4.6068 1.10679 4.55469C1.06639 4.50257 1.0367 4.44298 1.01942 4.37935C1.00214 4.31571 0.997625 4.24928 1.00612 4.18389C1.01462 4.1185 1.03597 4.05544 1.06894 3.99834C1.10191 3.94123 1.14585 3.89121 1.19824 3.85116C1.25062 3.8111 1.3104 3.7818 1.37415 3.76495C1.4379 3.7481 1.50436 3.74402 1.56969 3.75295C1.63502 3.76188 1.69794 3.78365 1.75483 3.817L2.87483 4.463L2.63783 3.58C2.60611 3.45273 2.62566 3.3181 2.69228 3.20512C2.7589 3.09214 2.86725 3.00986 2.99397 2.97602C3.12068 2.94217 3.25563 2.95947 3.36971 3.02419C3.48378 3.08891 3.56787 3.19587 3.60383 3.322L4.09883 5.171L5.03883 5.713L4.80283 4.83C4.77111 4.70273 4.79066 4.5681 4.85728 4.45512C4.9239 4.34214 5.03225 4.25986 5.15897 4.22602C5.28568 4.19217 5.42063 4.20947 5.53471 4.27419C5.64878 4.33891 5.73287 4.44587 5.76883 4.572L6.26383 6.421L7.49983 7.134V5.707L6.14683 4.354C6.05294 4.26025 6.00014 4.13304 6.00005 4.00035C5.99995 3.86767 6.05257 3.74039 6.14633 3.6465C6.24008 3.55261 6.36729 3.49982 6.49997 3.49972C6.63265 3.49963 6.75994 3.55225 6.85383 3.646L7.49983 4.293V3.207L6.14683 1.854C6.10034 1.80758 6.06345 1.75245 6.03826 1.69177C6.01308 1.6311 6.00009 1.56605 6.00005 1.50035C6 1.43466 6.0129 1.36959 6.03799 1.30888C6.06309 1.24816 6.0999 1.19299 6.14633 1.1465C6.19275 1.10001 6.24787 1.06312 6.30855 1.03794C6.36923 1.01275 6.43427 0.999768 6.49997 0.999722C6.56567 0.999676 6.63073 1.01257 6.69145 1.03767C6.75216 1.06277 6.80734 1.09958 6.85383 1.146L7.49983 1.793V0.5C7.49983 0.367392 7.5525 0.240215 7.64627 0.146447C7.74004 0.0526784 7.86722 0 7.99983 0C8.13243 0 8.25961 0.0526784 8.35338 0.146447C8.44715 0.240215 8.49983 0.367392 8.49983 0.5V1.793L9.14683 1.146C9.24071 1.05225 9.368 0.999628 9.50068 0.999722C9.63336 0.999816 9.76057 1.05261 9.85433 1.1465C9.94808 1.24039 10.0007 1.36767 10.0006 1.50035C10.0005 1.63304 9.94771 1.76025 9.85383 1.854L8.49983 3.207V4.293L9.14683 3.646C9.24071 3.55225 9.368 3.49963 9.50068 3.49972C9.63336 3.49982 9.76057 3.55261 9.85433 3.6465C9.94808 3.74039 10.0007 3.86767 10.0006 4.00035C10.0005 4.13304 9.94771 4.26025 9.85383 4.354L8.49983 5.707V7.134L9.73583 6.421L10.2308 4.571C10.2479 4.50757 10.2773 4.44813 10.3173 4.39606C10.3574 4.34399 10.4073 4.30032 10.4642 4.26754C10.5211 4.23476 10.584 4.21352 10.6491 4.20502C10.7142 4.19652 10.7804 4.20093 10.8438 4.218C10.9073 4.23507 10.9667 4.26447 11.0188 4.30451C11.0708 4.34456 11.1145 4.39447 11.1473 4.45139C11.1801 4.50831 11.2013 4.57113 11.2098 4.63627C11.2183 4.7014 11.2139 4.76757 11.1968 4.831L10.9608 5.713L11.9008 5.171L12.3958 3.321C12.4303 3.1929 12.5143 3.08374 12.6292 3.01754C12.7442 2.95134 12.8807 2.93352 13.0088 2.968C13.1369 3.00248 13.2461 3.08643 13.3123 3.20139C13.3785 3.31635 13.3963 3.4529 13.3618 3.581L13.1258 4.463L14.2458 3.817C14.3606 3.75174 14.4965 3.73453 14.624 3.76913C14.7514 3.80372 14.8599 3.88731 14.926 4.00165C14.992 4.116 15.0101 4.25181 14.9763 4.37946C14.9426 4.50711 14.8597 4.61622 14.7458 4.683L13.6258 5.329L14.5088 5.566C14.6369 5.60048 14.7461 5.68443 14.8123 5.79939C14.8785 5.91435 14.8963 6.0509 14.8618 6.179C14.8273 6.3071 14.7434 6.41626 14.6284 6.48246C14.5135 6.54866 14.3769 6.56648 14.2488 6.532L12.4008 6.037L11.4608 6.579L12.3438 6.816C12.4719 6.85048 12.5811 6.93443 12.6473 7.04939C12.7135 7.16435 12.7313 7.3009 12.6968 7.429C12.6623 7.5571 12.5784 7.66626 12.4634 7.73246C12.3485 7.79866 12.2119 7.81648 12.0838 7.782L10.2358 7.287L8.99983 8L10.2358 8.713L12.0848 8.218C12.2129 8.18365 12.3494 8.2016 12.4643 8.2679C12.5792 8.33419 12.663 8.4434 12.6973 8.5715C12.7317 8.6996 12.7137 8.8361 12.6474 8.95096C12.5811 9.06583 12.4719 9.14965 12.3438 9.184L11.4608 9.421L12.4008 9.963L14.2498 9.468C14.3779 9.43365 14.5144 9.4516 14.6293 9.5179C14.7442 9.58419 14.828 9.6934 14.8623 9.8215C14.8967 9.9496 14.8787 10.0861 14.8124 10.201C14.7461 10.3158 14.6369 10.3997 14.5088 10.434L13.6258 10.671L14.7458 11.317C14.8597 11.3838 14.9426 11.4929 14.9763 11.6205C15.0101 11.7482 14.992 11.884 14.926 11.9983C14.8599 12.1127 14.7514 12.1963 14.624 12.2309C14.4965 12.2655 14.3606 12.2483 14.2458 12.183L13.1258 11.537L13.3618 12.42C13.38 12.4838 13.3853 12.5506 13.3774 12.6165C13.3695 12.6824 13.3486 12.7461 13.3159 12.8038C13.2831 12.8615 13.2392 12.9122 13.1867 12.9527C13.1342 12.9933 13.0741 13.023 13.01 13.0402C12.9459 13.0573 12.879 13.0615 12.8132 13.0525C12.7475 13.0435 12.6842 13.0215 12.627 12.9878C12.5699 12.9541 12.52 12.9093 12.4803 12.8561C12.4406 12.803 12.4119 12.7424 12.3958 12.678L11.9008 10.829L10.9608 10.287L11.1968 11.17C11.2285 11.2973 11.209 11.4319 11.1424 11.5449C11.0757 11.6579 10.9674 11.7401 10.8407 11.774C10.714 11.8078 10.579 11.7905 10.4649 11.7258C10.3509 11.6611 10.2668 11.5541 10.2308 11.428L9.73583 9.58L8.49983 8.866V10.293L9.85383 11.646C9.94771 11.7398 10.0005 11.867 10.0006 11.9996C10.0007 12.1323 9.94808 12.2596 9.85433 12.3535C9.76057 12.4474 9.63336 12.5002 9.50068 12.5003C9.368 12.5004 9.24071 12.4478 9.14683 12.354L8.49983 11.707V12.793L9.85383 14.146C9.94771 14.2398 10.0005 14.367 10.0006 14.4996C10.0007 14.6323 9.94808 14.7596 9.85433 14.8535C9.76057 14.9474 9.63336 15.0002 9.50068 15.0003C9.368 15.0004 9.24071 14.9478 9.14683 14.854L8.49983 14.207V15.5C8.49983 15.6326 8.44715 15.7598 8.35338 15.8536C8.25961 15.9473 8.13243 16 7.99983 16Z" fill="#212529"/>
</svg>
