<svg width="16" height="16" viewBox="0 0 16 16" fill="none" xmlns="http://www.w3.org/2000/svg">
<path d="M3.50014 12.4998C3.50014 12.6324 3.44746 12.7596 3.3537 12.8533C3.25993 12.9471 3.13275 12.9998 3.00014 12.9998C2.86754 12.9998 2.74036 12.9471 2.64659 12.8533C2.55282 12.7596 2.50014 12.6324 2.50014 12.4998V3.70678L1.35414 4.85378C1.30766 4.90027 1.25247 4.93715 1.19173 4.96231C1.13099 4.98747 1.06589 5.00042 1.00014 5.00042C0.934399 5.00042 0.869299 4.98747 0.80856 4.96231C0.74782 4.93715 0.692631 4.90027 0.646143 4.85378C0.599655 4.8073 0.562779 4.75211 0.53762 4.69137C0.512461 4.63063 0.499512 4.56553 0.499512 4.49978C0.499512 4.43404 0.512461 4.36894 0.53762 4.3082C0.562779 4.24746 0.599655 4.19227 0.646143 4.14578L2.64614 2.14678L2.65314 2.13978C2.74714 2.04849 2.87334 1.99792 3.00438 1.99904C3.13541 2.00016 3.26072 2.05289 3.35314 2.14578L5.35314 4.14578C5.39963 4.19221 5.43652 4.24733 5.4617 4.30801C5.48689 4.36869 5.49988 4.43373 5.49992 4.49943C5.49997 4.56513 5.48707 4.63019 5.46198 4.69091C5.43688 4.75162 5.40007 4.8068 5.35364 4.85328C5.30722 4.89977 5.2521 4.93666 5.19142 4.96185C5.13074 4.98703 5.06569 5.00002 5 5.00006C4.9343 5.00011 4.86924 4.98721 4.80852 4.96212C4.74781 4.93702 4.69263 4.90021 4.64614 4.85378L3.50014 3.70678V12.4998ZM7.00014 3.49978C7.00014 3.36718 7.05282 3.24 7.14659 3.14623C7.24036 3.05246 7.36754 2.99978 7.50014 2.99978H14.5001C14.6328 2.99978 14.7599 3.05246 14.8537 3.14623C14.9475 3.24 15.0001 3.36718 15.0001 3.49978C15.0001 3.63239 14.9475 3.75957 14.8537 3.85334C14.7599 3.94711 14.6328 3.99978 14.5001 3.99978H7.50014C7.36754 3.99978 7.24036 3.94711 7.14659 3.85334C7.05282 3.75957 7.00014 3.63239 7.00014 3.49978ZM7.50014 5.99978C7.36754 5.99978 7.24036 6.05246 7.14659 6.14623C7.05282 6.24 7.00014 6.36718 7.00014 6.49978C7.00014 6.63239 7.05282 6.75957 7.14659 6.85334C7.24036 6.9471 7.36754 6.99978 7.50014 6.99978H12.5001C12.6328 6.99978 12.7599 6.9471 12.8537 6.85334C12.9475 6.75957 13.0001 6.63239 13.0001 6.49978C13.0001 6.36718 12.9475 6.24 12.8537 6.14623C12.7599 6.05246 12.6328 5.99978 12.5001 5.99978H7.50014ZM7.50014 8.99978C7.36754 8.99978 7.24036 9.05246 7.14659 9.14623C7.05282 9.24 7.00014 9.36718 7.00014 9.49978C7.00014 9.63239 7.05282 9.75957 7.14659 9.85334C7.24036 9.94711 7.36754 9.99978 7.50014 9.99978H10.5001C10.6328 9.99978 10.7599 9.94711 10.8537 9.85334C10.9475 9.75957 11.0001 9.63239 11.0001 9.49978C11.0001 9.36718 10.9475 9.24 10.8537 9.14623C10.7599 9.05246 10.6328 8.99978 10.5001 8.99978H7.50014ZM7.50014 11.9998C7.36754 11.9998 7.24036 12.0525 7.14659 12.1462C7.05282 12.24 7.00014 12.3672 7.00014 12.4998C7.00014 12.6324 7.05282 12.7596 7.14659 12.8533C7.24036 12.9471 7.36754 12.9998 7.50014 12.9998H8.50014C8.63275 12.9998 8.75993 12.9471 8.8537 12.8533C8.94746 12.7596 9.00014 12.6324 9.00014 12.4998C9.00014 12.3672 8.94746 12.24 8.8537 12.1462C8.75993 12.0525 8.63275 11.9998 8.50014 11.9998H7.50014Z" fill="#212529"/>
</svg>
