<svg width="16" height="16" viewBox="0 0 16 16" fill="none" xmlns="http://www.w3.org/2000/svg">
<path d="M8.49989 5.6C8.49989 5.46739 8.44721 5.34021 8.35344 5.24645C8.25967 5.15268 8.13249 5.1 7.99989 5.1C7.86728 5.1 7.7401 5.15268 7.64633 5.24645C7.55256 5.34021 7.49989 5.46739 7.49989 5.6V8.5H4.49989C4.36728 8.5 4.2401 8.55268 4.14633 8.64645C4.05256 8.74021 3.99989 8.86739 3.99989 9C3.99989 9.13261 4.05256 9.25979 4.14633 9.35355C4.2401 9.44732 4.36728 9.5 4.49989 9.5H7.99989C8.13249 9.5 8.25967 9.44732 8.35344 9.35355C8.44721 9.25979 8.49989 9.13261 8.49989 9V5.6Z" fill="#212529"/>
<path d="M6.49989 1C6.49989 0.867392 6.55256 0.740215 6.64633 0.646447C6.7401 0.552678 6.86728 0.5 6.99989 0.5H8.99989C9.13249 0.5 9.25967 0.552678 9.35344 0.646447C9.44721 0.740215 9.49989 0.867392 9.49989 1C9.49989 1.13261 9.44721 1.25979 9.35344 1.35355C9.25967 1.44732 9.13249 1.5 8.99989 1.5V2.07C10.3599 2.266 11.5939 2.85 12.5839 3.71C12.5878 3.70562 12.5918 3.70128 12.5959 3.697L12.9499 3.343L12.5959 2.99C12.502 2.89625 12.4492 2.76904 12.4491 2.63635C12.449 2.50367 12.5016 2.37639 12.5954 2.2825C12.6891 2.18861 12.8163 2.13582 12.949 2.13572C13.0817 2.13563 13.209 2.18825 13.3029 2.282L14.7169 3.697C14.7646 3.74312 14.8027 3.7983 14.8289 3.8593C14.8551 3.9203 14.8689 3.98591 14.8695 4.0523C14.8701 4.11869 14.8574 4.18453 14.8323 4.24598C14.8072 4.30743 14.77 4.36325 14.7231 4.4102C14.6761 4.45714 14.6203 4.49427 14.5589 4.51941C14.4974 4.54455 14.4316 4.5572 14.3652 4.55663C14.2988 4.55605 14.2332 4.54226 14.1722 4.51605C14.1112 4.48985 14.056 4.45175 14.0099 4.404L13.6569 4.05L13.3029 4.404C13.2986 4.40807 13.2943 4.41208 13.2899 4.416C14.3081 5.59135 14.9059 7.07228 14.989 8.62509C15.0722 10.1779 14.6359 11.7142 13.749 12.9915C12.8621 14.2689 11.5752 15.2146 10.0912 15.6793C8.60729 16.1441 7.01082 16.1015 5.55374 15.5583C4.09667 15.0151 2.86196 14.0022 2.04444 12.6794C1.22692 11.3566 0.873143 9.79922 1.03893 8.25305C1.20471 6.70687 1.88062 5.25992 2.96 4.14051C4.03938 3.02109 5.46077 2.29296 6.99989 2.071V1.5C6.86728 1.5 6.7401 1.44732 6.64633 1.35355C6.55256 1.25979 6.49989 1.13261 6.49989 1ZM7.99989 3C7.21195 3.00007 6.43175 3.15533 5.70382 3.45691C4.97589 3.7585 4.3145 4.20051 3.75739 4.75771C2.63227 5.88303 2.00025 7.4092 2.00039 9.0005C2.00052 10.5918 2.63279 12.1179 3.7581 13.243C4.88341 14.3681 6.40959 15.0001 8.00089 15C9.59219 14.9999 11.1183 14.3676 12.2434 13.2423C13.3685 12.117 14.0005 10.5908 14.0004 8.9995C14.0003 7.4082 13.368 5.88213 12.2427 4.75701C11.1174 3.63188 9.59118 2.99987 7.99989 3Z" fill="#212529"/>
</svg>
