<svg width="16" height="16" viewBox="0 0 16 16" fill="none" xmlns="http://www.w3.org/2000/svg">
<g clip-path="url(#clip0_34_5536)">
<path d="M1.29289 3.29289C1.48043 3.10536 1.73478 3 2 3H13C13.2652 3 13.5196 3.10536 13.7071 3.29289C13.8946 3.48043 14 3.73478 14 4V8C14 8.13261 14.0527 8.25979 14.1464 8.35355C14.2402 8.44732 14.3674 8.5 14.5 8.5C14.6326 8.5 14.7598 8.44732 14.8536 8.35355C14.9473 8.25979 15 8.13261 15 8V4C15 3.46957 14.7893 2.96086 14.4142 2.58579C14.0391 2.21071 13.5304 2 13 2H2C1.46957 2 0.960859 2.21071 0.585786 2.58579C0.210714 2.96086 0 3.46957 0 4V12C0 12.5304 0.210714 13.0391 0.585786 13.4142C0.960859 13.7893 1.46957 14 2 14H7.5C7.63261 14 7.75979 13.9473 7.85355 13.8536C7.94732 13.7598 8 13.6326 8 13.5C8 13.3674 7.94732 13.2402 7.85355 13.1464C7.75979 13.0527 7.63261 13 7.5 13H2C1.73478 13 1.48043 12.8946 1.29289 12.7071C1.10536 12.5196 1 12.2652 1 12V4C1 3.73478 1.10536 3.48043 1.29289 3.29289Z" fill="#212529"/>
<path d="M3.30834 5.03733C3.2476 5.06253 3.19242 5.09948 3.14598 5.14604C3.09942 5.19248 3.06247 5.24766 3.03727 5.30841C3.01206 5.36915 2.99908 5.43427 2.99908 5.50004C2.99908 5.56581 3.01206 5.63093 3.03727 5.69167C3.06247 5.75242 3.09942 5.80759 3.14598 5.85404L4.29298 7.00004L3.14598 8.14604C3.05209 8.23993 2.99935 8.36726 2.99935 8.50004C2.99935 8.63281 3.05209 8.76015 3.14598 8.85404C3.23986 8.94793 3.3672 9.00067 3.49998 9.00067C3.63275 9.00067 3.76009 8.94793 3.85398 8.85404L5.17698 7.53004C5.31743 7.38941 5.39632 7.19879 5.39632 7.00004C5.39632 6.80129 5.31743 6.61066 5.17698 6.47004L3.85398 5.14604C3.80753 5.09948 3.75236 5.06253 3.69161 5.03733C3.63087 5.01212 3.56575 4.99915 3.49998 4.99915C3.43421 4.99915 3.36909 5.01212 3.30834 5.03733Z" fill="#212529"/>
<path d="M5.64643 8.64649C5.55266 8.74025 5.49998 8.86743 5.49998 9.00004C5.49998 9.13265 5.55266 9.25982 5.64643 9.35359C5.74019 9.44736 5.86737 9.50004 5.99998 9.50004H7.99998C8.13259 9.50004 8.25976 9.44736 8.35353 9.35359C8.4473 9.25982 8.49998 9.13265 8.49998 9.00004C8.49998 8.86743 8.4473 8.74025 8.35353 8.64649C8.25976 8.55272 8.13259 8.50004 7.99998 8.50004H5.99998C5.86737 8.50004 5.74019 8.55272 5.64643 8.64649Z" fill="#212529"/>
<path fill-rule="evenodd" clip-rule="evenodd" d="M14.9749 14.9749C15.6312 14.3185 16 13.4283 16 12.5C16 11.5718 15.6312 10.6815 14.9749 10.0252C14.3185 9.36879 13.4282 9.00004 12.5 9.00004C11.5717 9.00004 10.6815 9.36879 10.0251 10.0252C9.36873 10.6815 8.99998 11.5718 8.99998 12.5C8.99998 13.4283 9.36873 14.3185 10.0251 14.9749C10.6815 15.6313 11.5717 16 12.5 16C13.4282 16 14.3185 15.6313 14.9749 14.9749ZM11.0373 11.3084C11.0625 11.2477 11.0994 11.1925 11.146 11.146C11.1924 11.0995 11.2476 11.0625 11.3083 11.0373C11.3691 11.0121 11.4342 10.9991 11.5 10.9991C11.5657 10.9991 11.6309 11.0121 11.6916 11.0373C11.7524 11.0625 11.8075 11.0995 11.854 11.146L12.5 11.793L13.146 11.146C13.2399 11.0522 13.3672 10.9994 13.5 10.9994C13.6328 10.9994 13.7601 11.0522 13.854 11.146C13.9479 11.2399 14.0006 11.3673 14.0006 11.5C14.0006 11.6328 13.9479 11.7602 13.854 11.854L13.207 12.5L13.854 13.146C13.9479 13.2399 14.0006 13.3673 14.0006 13.5C14.0006 13.6328 13.9479 13.7602 13.854 13.854C13.7601 13.9479 13.6328 14.0007 13.5 14.0007C13.3672 14.0007 13.2399 13.9479 13.146 13.854L12.5 13.207L11.854 13.854C11.7601 13.9479 11.6328 14.0007 11.5 14.0007C11.3672 14.0007 11.2399 13.9479 11.146 13.854C11.0521 13.7602 10.9993 13.6328 10.9993 13.5C10.9993 13.3673 11.0521 13.2399 11.146 13.146L11.793 12.5L11.146 11.854C11.0994 11.8076 11.0625 11.7524 11.0373 11.6917C11.0121 11.6309 10.9991 11.5658 10.9991 11.5C10.9991 11.4343 11.0121 11.3692 11.0373 11.3084Z" fill="#212529"/>
</g>
<defs>
<clipPath id="clip0_34_5536">
<rect width="16" height="16" fill="white"/>
</clipPath>
</defs>
</svg>
