<svg width="16" height="16" viewBox="0 0 16 16" fill="none" xmlns="http://www.w3.org/2000/svg">
<path d="M0 4.5C0 4.10218 0.158035 3.72064 0.43934 3.43934C0.720644 3.15804 1.10218 3 1.5 3H14.5C14.8978 3 15.2794 3.15804 15.5607 3.43934C15.842 3.72064 16 4.10218 16 4.5V6C16 6.13261 15.9473 6.25979 15.8536 6.35355C15.7598 6.44732 15.6326 6.5 15.5 6.5C15.1022 6.5 14.7206 6.65804 14.4393 6.93934C14.158 7.22064 14 7.60218 14 8C14 8.39782 14.158 8.77936 14.4393 9.06066C14.7206 9.34196 15.1022 9.5 15.5 9.5C15.6326 9.5 15.7598 9.55268 15.8536 9.64645C15.9473 9.74021 16 9.86739 16 10V11.5C16 11.8978 15.842 12.2794 15.5607 12.5607C15.2794 12.842 14.8978 13 14.5 13H1.5C1.10218 13 0.720644 12.842 0.43934 12.5607C0.158035 12.2794 0 11.8978 0 11.5L0 10C0 9.86739 0.0526784 9.74021 0.146447 9.64645C0.240215 9.55268 0.367392 9.5 0.5 9.5C0.897825 9.5 1.27936 9.34196 1.56066 9.06066C1.84196 8.77936 2 8.39782 2 8C2 7.60218 1.84196 7.22064 1.56066 6.93934C1.27936 6.65804 0.897825 6.5 0.5 6.5C0.367392 6.5 0.240215 6.44732 0.146447 6.35355C0.0526784 6.25979 0 6.13261 0 6V4.5ZM4 3.5V4.5H5V3.5H4ZM5 6.5V5.5H4V6.5H5ZM12 6.5V5.5H11V6.5H12ZM11 4.5H12V3.5H11V4.5ZM5 7.5H4V8.5H5V7.5ZM12 8.5V7.5H11V8.5H12ZM5 9.5H4V10.5H5V9.5ZM12 10.5V9.5H11V10.5H12ZM4 11.5V12.5H5V11.5H4ZM11 12.5H12V11.5H11V12.5Z" fill="#212529"/>
</svg>
