<svg width="16" height="16" viewBox="0 0 16 16" fill="none" xmlns="http://www.w3.org/2000/svg">
<path d="M0 4.5C0 4.10218 0.158035 3.72064 0.43934 3.43934C0.720644 3.15804 1.10218 3 1.5 3H14.5C14.8978 3 15.2794 3.15804 15.5607 3.43934C15.842 3.72064 16 4.10218 16 4.5V6C16 6.13261 15.9473 6.25979 15.8536 6.35355C15.7598 6.44732 15.6326 6.5 15.5 6.5C15.1022 6.5 14.7206 6.65804 14.4393 6.93934C14.158 7.22064 14 7.60218 14 8C14 8.39782 14.158 8.77936 14.4393 9.06066C14.7206 9.34196 15.1022 9.5 15.5 9.5C15.6326 9.5 15.7598 9.55268 15.8536 9.64645C15.9473 9.74021 16 9.86739 16 10V11.5C16 11.8978 15.842 12.2794 15.5607 12.5607C15.2794 12.842 14.8978 13 14.5 13H1.5C1.10218 13 0.720644 12.842 0.43934 12.5607C0.158035 12.2794 0 11.8978 0 11.5L0 10C0 9.86739 0.0526784 9.74021 0.146447 9.64645C0.240215 9.55268 0.367392 9.5 0.5 9.5C0.897825 9.5 1.27936 9.34196 1.56066 9.06066C1.84196 8.77936 2 8.39782 2 8C2 7.60218 1.84196 7.22064 1.56066 6.93934C1.27936 6.65804 0.897825 6.5 0.5 6.5C0.367392 6.5 0.240215 6.44732 0.146447 6.35355C0.0526784 6.25979 0 6.13261 0 6V4.5ZM1.5 4C1.36739 4 1.24021 4.05268 1.14645 4.14645C1.05268 4.24021 1 4.36739 1 4.5V5.55C1.56514 5.66476 2.07324 5.97136 2.43819 6.41787C2.80314 6.86438 3.00251 7.42332 3.00251 8C3.00251 8.57668 2.80314 9.13562 2.43819 9.58213C2.07324 10.0286 1.56514 10.3352 1 10.45V11.5C1 11.6326 1.05268 11.7598 1.14645 11.8536C1.24021 11.9473 1.36739 12 1.5 12H14.5C14.6326 12 14.7598 11.9473 14.8536 11.8536C14.9473 11.7598 15 11.6326 15 11.5V10.45C14.4349 10.3352 13.9268 10.0286 13.5618 9.58213C13.1969 9.13562 12.9975 8.57668 12.9975 8C12.9975 7.42332 13.1969 6.86438 13.5618 6.41787C13.9268 5.97136 14.4349 5.66476 15 5.55V4.5C15 4.36739 14.9473 4.24021 14.8536 4.14645C14.7598 4.05268 14.6326 4 14.5 4H1.5Z" fill="#212529"/>
</svg>
