<svg width="16" height="16" viewBox="0 0 16 16" fill="none" xmlns="http://www.w3.org/2000/svg">
<g clip-path="url(#clip0_34_5624)">
<path d="M7.93819 2.01595C7.95779 2.0052 7.97984 1.99969 8.00219 1.99995C8.02421 1.99986 8.04588 2.00537 8.06519 2.01595C8.08806 2.02966 8.10673 2.04938 8.11919 2.07295L14.9762 13.74C15.0122 13.8 15.0112 13.864 14.9782 13.923C14.9655 13.9472 14.9469 13.9678 14.9242 13.983C14.9044 13.9951 14.8814 14.001 14.8582 14H1.14619C1.12298 14.0011 1.09997 13.9952 1.08019 13.983C1.05744 13.9678 1.03887 13.9472 1.02619 13.923C1.00971 13.8952 1.00118 13.8634 1.00153 13.8312C1.00189 13.7989 1.01111 13.7673 1.02819 13.74L7.88419 2.07295C7.89669 2.04941 7.91536 2.0297 7.93819 2.01595ZM8.98219 1.56595C8.8832 1.39352 8.74047 1.25025 8.5684 1.15062C8.39633 1.051 8.20102 0.998535 8.00219 0.998535C7.80336 0.998535 7.60805 1.051 7.43598 1.15062C7.26391 1.25025 7.12118 1.39352 7.02219 1.56595L0.16519 13.233C-0.29181 14.011 0.25619 15 1.14519 15H14.8582C15.7472 15 16.2962 14.01 15.8382 13.233L8.98219 1.56595Z" fill="#212529"/>
</g>
<defs>
<clipPath id="clip0_34_5624">
<rect width="16" height="16" fill="white"/>
</clipPath>
</defs>
</svg>
