<svg width="16" height="16" viewBox="0 0 16 16" fill="none" xmlns="http://www.w3.org/2000/svg">
<g clip-path="url(#clip0_34_5640)">
<path d="M0.0358596 12.314C0.0852132 12.191 0.181411 12.0926 0.303301 12.0404C0.425192 11.9883 0.562797 11.9867 0.68586 12.036L2.44286 12.739C2.80043 12.882 3.19929 12.882 3.55686 12.739L4.57086 12.333C5.1669 12.0946 5.83182 12.0946 6.42786 12.333L7.44286 12.739C7.80043 12.882 8.19929 12.882 8.55686 12.739L9.57086 12.333C10.1669 12.0946 10.8318 12.0946 11.4279 12.333L12.4429 12.739C12.8004 12.882 13.1993 12.882 13.5569 12.739L15.3139 12.036C15.3751 12.01 15.4409 11.9964 15.5074 11.9961C15.574 11.9959 15.6399 12.0089 15.7013 12.0344C15.7628 12.0599 15.8185 12.0975 15.8653 12.1448C15.912 12.1921 15.9488 12.2483 15.9736 12.3101C15.9984 12.3719 16.0105 12.4379 16.0094 12.5045C16.0083 12.571 15.994 12.6366 15.9672 12.6975C15.9404 12.7584 15.9017 12.8134 15.8534 12.8591C15.8051 12.9049 15.7481 12.9405 15.6859 12.964L13.9279 13.667C13.3318 13.9054 12.6669 13.9054 12.0709 13.667L11.0569 13.261C10.6993 13.118 10.3004 13.118 9.94286 13.261L8.92786 13.667C8.33182 13.9054 7.6669 13.9054 7.07086 13.667L6.05686 13.261C5.69929 13.118 5.30043 13.118 4.94286 13.261L3.92786 13.667C3.33182 13.9054 2.6669 13.9054 2.07086 13.667L0.31386 12.964C0.190818 12.9146 0.092413 12.8184 0.0402813 12.6966C-0.0118504 12.5747 -0.0134408 12.4371 0.0358596 12.314ZM0.0358596 14.314C0.0852132 14.191 0.181411 14.0926 0.303301 14.0404C0.425192 13.9883 0.562797 13.9867 0.68586 14.036L2.44286 14.739C2.80043 14.882 3.19929 14.882 3.55686 14.739L4.57086 14.333C5.1669 14.0946 5.83182 14.0946 6.42786 14.333L7.44286 14.739C7.80043 14.882 8.19929 14.882 8.55686 14.739L9.57086 14.333C10.1669 14.0946 10.8318 14.0946 11.4279 14.333L12.4429 14.739C12.8004 14.882 13.1993 14.882 13.5569 14.739L15.3139 14.036C15.3751 14.01 15.4409 13.9964 15.5074 13.9961C15.574 13.9959 15.6399 14.0089 15.7013 14.0344C15.7628 14.0599 15.8185 14.0975 15.8653 14.1448C15.912 14.1921 15.9488 14.2483 15.9736 14.3101C15.9984 14.3719 16.0105 14.4379 16.0094 14.5045C16.0083 14.571 15.994 14.6366 15.9672 14.6975C15.9404 14.7584 15.9017 14.8134 15.8534 14.8591C15.8051 14.9049 15.7481 14.9405 15.6859 14.964L13.9279 15.667C13.3318 15.9054 12.6669 15.9054 12.0709 15.667L11.0569 15.261C10.6993 15.118 10.3004 15.118 9.94286 15.261L8.92786 15.667C8.33182 15.9054 7.6669 15.9054 7.07086 15.667L6.05686 15.261C5.69929 15.118 5.30043 15.118 4.94286 15.261L3.92786 15.667C3.33182 15.9054 2.6669 15.9054 2.07086 15.667L0.31386 14.964C0.190818 14.9146 0.092413 14.8184 0.0402813 14.6966C-0.0118504 14.5747 -0.0134408 14.4371 0.0358596 14.314ZM2.66186 8.08C2.20586 9.143 1.66786 10.178 0.81986 10.884C0.717607 10.9651 0.587681 11.0031 0.457838 10.9897C0.327995 10.9763 0.208531 10.9127 0.124968 10.8124C0.0414042 10.7121 0.000367489 10.5832 0.0106242 10.453C0.020881 10.3229 0.081618 10.2019 0.17986 10.116C0.83186 9.572 1.29386 8.732 1.74386 7.686C1.88386 7.358 2.02486 7.006 2.17086 6.642C2.47286 5.888 2.79486 5.083 3.18086 4.334C3.76286 3.2 4.52786 2.105 5.69986 1.299C6.87686 0.49 8.41786 0 10.4999 0C11.9629 0 13.0109 0.4 13.6789 1.058C14.3489 1.718 14.5719 2.576 14.4979 3.36C14.4239 4.131 14.0569 4.876 13.4779 5.325C13.2143 5.53743 12.8982 5.67467 12.563 5.7222C12.2279 5.76972 11.8861 5.72578 11.5739 5.595C10.9239 6.237 10.6669 7.274 10.8639 8.209C11.0759 9.215 11.7839 10 12.9999 10H15.4999C15.6325 10 15.7596 10.0527 15.8534 10.1464C15.9472 10.2402 15.9999 10.3674 15.9999 10.5C15.9999 10.6326 15.9472 10.7598 15.8534 10.8536C15.7596 10.9473 15.6325 11 15.4999 11H12.9999C11.2159 11 10.1739 9.785 9.88586 8.415C9.65386 7.315 9.89086 6.042 10.6439 5.131L10.4999 5.06L9.72286 5.448C9.65346 5.48268 9.57694 5.50073 9.49936 5.50073C9.42178 5.50073 9.34526 5.48268 9.27586 5.448L8.27586 4.948C8.1615 4.88633 8.07563 4.78256 8.03645 4.65868C7.99727 4.53479 8.00786 4.40052 8.06597 4.2843C8.12407 4.16809 8.22514 4.07906 8.34775 4.03607C8.47037 3.99308 8.6049 3.99951 8.72286 4.054L9.49986 4.442L10.2759 4.054C10.3453 4.01932 10.4218 4.00127 10.4994 4.00127C10.5769 4.00127 10.6535 4.01932 10.7229 4.054L11.7229 4.554C11.7344 4.55956 11.7458 4.56556 11.7569 4.572C12.1969 4.836 12.5669 4.767 12.8649 4.536C13.1929 4.281 13.4509 3.807 13.5019 3.266C13.5519 2.737 13.4019 2.19 12.9769 1.771C12.5509 1.351 11.7869 1.001 10.4999 1.001C8.58186 1.001 7.24786 1.449 6.26786 2.124C5.28286 2.8 4.60986 3.738 4.06986 4.79C3.70486 5.5 3.41486 6.223 3.12486 6.95C2.97486 7.326 2.82386 7.703 2.66186 8.08Z" fill="#212529"/>
</g>
<defs>
<clipPath id="clip0_34_5640">
<rect width="16" height="16" fill="white"/>
</clipPath>
</defs>
</svg>
