<svg width="16" height="16" viewBox="0 0 16 16" fill="none" xmlns="http://www.w3.org/2000/svg">
<path d="M5.026 15.0002C11.064 15.0002 14.367 9.9972 14.367 5.6662C14.367 5.5262 14.367 5.3842 14.361 5.2442C15.0041 4.77869 15.5591 4.20236 16 3.5422C15.3993 3.80706 14.7628 3.98161 14.111 4.0602C14.7975 3.64984 15.3117 3.00417 15.558 2.2432C14.913 2.62533 14.207 2.89358 13.471 3.0362C12.9762 2.50923 12.3214 2.16012 11.6081 2.04296C10.8948 1.9258 10.1627 2.04713 9.52534 2.38814C8.88796 2.72916 8.38081 3.27083 8.08245 3.92927C7.78409 4.5877 7.71118 5.32614 7.875 6.03021C6.56974 5.96476 5.29282 5.62567 4.12704 5.03495C2.96127 4.44422 1.93268 3.61505 1.108 2.6012C0.68934 3.32429 0.561574 4.17961 0.750646 4.99347C0.939718 5.80734 1.43145 6.51873 2.126 6.9832C1.60554 6.96552 1.09652 6.82576 0.64 6.5752V6.6202C0.640897 7.37769 0.903307 8.11163 1.38287 8.69796C1.86244 9.2843 2.52975 9.68708 3.272 9.83821C2.99026 9.91582 2.69923 9.95451 2.407 9.95321C2.20098 9.95383 1.99538 9.93474 1.793 9.8962C2.00279 10.5483 2.41127 11.1184 2.96125 11.5267C3.51122 11.935 4.17513 12.1611 4.86 12.1732C3.69656 13.087 2.2594 13.5826 0.78 13.5802C0.519321 13.5813 0.258823 13.5663 0 13.5352C1.50151 14.4925 3.2453 15.0008 5.026 15.0002Z" fill="#212529"/>
</svg>
