<svg width="16" height="16" viewBox="0 0 16 16" fill="none" xmlns="http://www.w3.org/2000/svg">
<path d="M6.333 5.68617C6.333 5.99617 6.416 6.26717 6.603 6.50017H5.166C5.09802 6.25263 5.0647 5.99686 5.067 5.74017C5.067 4.11317 6.503 2.97217 8.547 2.97217C10.516 2.97217 11.937 4.14717 11.992 5.82217H10.762C10.652 4.74217 9.798 4.07917 8.512 4.07917C7.282 4.07917 6.332 4.68117 6.332 5.68617H6.333ZM8.527 13.1642C6.374 13.1642 4.938 12.0572 4.822 10.3542H6.052C6.196 11.4142 7.181 12.0572 8.596 12.0572C9.936 12.0572 10.906 11.3522 10.906 10.3822C10.906 9.55517 10.359 9.00817 8.992 8.70717L8.046 8.50017H1V7.50017H15V8.50017H11.496C11.964 8.93717 12.171 9.49417 12.171 10.1972C12.171 12.0232 10.735 13.1642 8.527 13.1642Z" fill="#212529"/>
</svg>
