<svg width="16" height="16" viewBox="0 0 16 16" fill="none" xmlns="http://www.w3.org/2000/svg">
<path d="M3.14645 8.14645C3.24021 8.05268 3.36739 8 3.5 8H12.5C12.6326 8 12.7598 8.05268 12.8536 8.14645C12.9473 8.24021 13 8.36739 13 8.5V9.5C13 9.63261 12.9473 9.75979 12.8536 9.85355C12.7598 9.94732 12.6326 10 12.5 10H3.5C3.36739 10 3.24021 9.94732 3.14645 9.85355C3.05268 9.75979 3 9.63261 3 9.5V8.5C3 8.36739 3.05268 8.24021 3.14645 8.14645Z" fill="#212529"/>
<path fill-rule="evenodd" clip-rule="evenodd" d="M2.29289 3.29289C2.48043 3.10536 2.73478 3 3 3H13C13.2652 3 13.5196 3.10536 13.7071 3.29289C13.8946 3.48043 14 3.73478 14 4V5.293L15.707 7C15.8945 7.18749 15.9999 7.4418 16 7.707V12C16 12.2652 15.8946 12.5196 15.7071 12.7071C15.5196 12.8946 15.2652 13 15 13H1C0.734784 13 0.48043 12.8946 0.292893 12.7071C0.105357 12.5196 0 12.2652 0 12V7.707C5.66374e-05 7.4418 0.105451 7.18749 0.293 7L2 5.293V4C2 3.73478 2.10536 3.48043 2.29289 3.29289ZM13 4H3V5.293C2.99994 5.5582 2.89455 5.81251 2.707 6L1 7.707V12H15V7.707L13.293 6C13.1055 5.81251 13.0001 5.5582 13 5.293V4Z" fill="#212529"/>
</svg>
