<svg width="16" height="16" viewBox="0 0 16 16" fill="none" xmlns="http://www.w3.org/2000/svg">
<path d="M2.07322 7.07322C2.12011 7.02634 2.1837 7 2.25 7H13.75C13.8163 7 13.8799 7.02634 13.9268 7.07322C13.9737 7.12011 14 7.1837 14 7.25V8.25C14 8.3163 13.9737 8.37989 13.9268 8.42678C13.8799 8.47366 13.8163 8.5 13.75 8.5H2.25C2.112 8.5 2 8.388 2 8.25V7.25C2 7.1837 2.02634 7.12011 2.07322 7.07322Z" fill="#212529"/>
<path fill-rule="evenodd" clip-rule="evenodd" d="M0.146447 5.14645C0.0526784 5.24021 0 5.36739 0 5.5V10.5C0 10.6326 0.0526784 10.7598 0.146447 10.8536C0.240215 10.9473 0.367392 11 0.5 11H15.5C15.6326 11 15.7598 10.9473 15.8536 10.8536C15.9473 10.7598 16 10.6326 16 10.5V5.5C16 5.36739 15.9473 5.24021 15.8536 5.14645C15.7598 5.05268 15.6326 5 15.5 5H0.5C0.367392 5 0.240215 5.05268 0.146447 5.14645ZM15 10H1V6H15V10Z" fill="#212529"/>
</svg>
