<svg width="16" height="16" viewBox="0 0 16 16" fill="none" xmlns="http://www.w3.org/2000/svg">
<path d="M15.3839 6.11501C15.4342 6.06618 15.4733 6.00703 15.4985 5.94163C15.5238 5.87623 15.5345 5.80614 15.53 5.73618C15.5256 5.66623 15.506 5.59808 15.4727 5.53642C15.4393 5.47476 15.393 5.42106 15.3369 5.37902C13.2049 3.82896 10.6358 2.99593 7.99993 3.00001C5.25893 3.00001 2.72293 3.88202 0.66293 5.37902C0.606774 5.42098 0.560384 5.47462 0.526955 5.53624C0.493526 5.59786 0.473852 5.666 0.46929 5.73595C0.464728 5.80591 0.475385 5.87602 0.500528 5.94146C0.52567 6.0069 0.564701 6.06611 0.61493 6.11501C0.702325 6.2011 0.817433 6.25337 0.93976 6.26252C1.06209 6.27168 1.18369 6.23713 1.28293 6.16501C3.23807 4.754 5.58881 3.99632 7.99993 4.00001C10.5069 4.00001 12.8269 4.80202 14.7159 6.16402C14.9209 6.31202 15.2059 6.29401 15.3839 6.11501Z" fill="#212529"/>
<path d="M13.2289 8.27102C13.2805 8.2213 13.3203 8.16073 13.3454 8.0937C13.3706 8.02668 13.3806 7.95488 13.3745 7.88354C13.3685 7.81219 13.3466 7.74309 13.3106 7.68124C13.2745 7.6194 13.2251 7.56637 13.1659 7.52602C11.6283 6.52721 9.83347 5.99702 7.99993 6.00002C6.09493 6.00002 4.31993 6.56002 2.83393 7.52602C2.77448 7.56614 2.72478 7.61907 2.68848 7.68092C2.65217 7.74277 2.63019 7.81197 2.62415 7.88344C2.61811 7.9549 2.62815 8.02681 2.65355 8.09388C2.67896 8.16096 2.71906 8.22148 2.77093 8.27102C2.85613 8.35417 2.96707 8.4059 3.08554 8.41771C3.20402 8.42952 3.32299 8.40072 3.42293 8.33602C4.78895 7.46107 6.37773 6.99732 7.99993 7.00002C9.62179 6.99751 11.2102 7.46126 12.5759 8.33602C12.7819 8.46802 13.0559 8.44402 13.2289 8.27102ZM11.0459 10.454C11.2719 10.228 11.2309 9.84902 10.9459 9.70402C10.0334 9.23966 9.02379 8.99839 7.99993 9.00002C6.93993 9.00002 5.93793 9.25402 5.05393 9.70402C4.76893 9.84902 4.72793 10.228 4.95393 10.454L4.96893 10.469C5.12893 10.629 5.37593 10.659 5.57993 10.559C6.33316 10.1899 7.1611 9.99861 7.99993 10C8.86793 10 9.68993 10.201 10.4199 10.56C10.6229 10.66 10.8699 10.63 11.0299 10.469L11.0459 10.454ZM9.05993 12.44C9.25593 12.244 9.25793 11.92 9.01993 11.78C8.71141 11.5964 8.35896 11.4996 7.99993 11.5C7.6409 11.4996 7.28845 11.5964 6.97993 11.78C6.74193 11.92 6.74393 12.244 6.93993 12.44L7.64593 13.146C7.73969 13.2398 7.86685 13.2924 7.99943 13.2924C8.13201 13.2924 8.25917 13.2398 8.35293 13.146L9.05993 12.44Z" fill="#212529"/>
</svg>
