<svg width="16" height="16" viewBox="0 0 16 16" fill="none" xmlns="http://www.w3.org/2000/svg">
<path d="M11.0459 10.454C11.2719 10.228 11.2309 9.84901 10.9459 9.70401C10.0334 9.23965 9.02372 8.99838 7.99986 9.00001C6.93986 9.00001 5.93786 9.25401 5.05386 9.70401C4.76886 9.84901 4.72786 10.228 4.95386 10.454L4.96886 10.469C5.12886 10.629 5.37586 10.659 5.57986 10.559C6.33309 10.1898 7.16103 9.9986 7.99986 10C8.86786 10 9.68986 10.201 10.4199 10.56C10.6229 10.66 10.8699 10.63 11.0309 10.469L11.0459 10.454ZM9.05986 12.44C9.25586 12.244 9.25786 11.92 9.01986 11.78C8.71134 11.5964 8.35889 11.4996 7.99986 11.5C7.64083 11.4996 7.28837 11.5964 6.97986 11.78C6.74186 11.92 6.74386 12.244 6.93986 12.44L7.64586 13.146C7.73962 13.2397 7.86678 13.2924 7.99936 13.2924C8.13194 13.2924 8.25909 13.2397 8.35286 13.146L9.06086 12.439L9.05986 12.44Z" fill="#212529"/>
</svg>
