<svg width="16" height="16" viewBox="0 0 16 16" fill="none" xmlns="http://www.w3.org/2000/svg">
<path d="M13.229 8.27101C13.445 8.05501 13.423 7.69301 13.166 7.52601C11.6284 6.52726 9.83357 5.99707 8.00005 6.00001C6.09505 6.00001 4.32005 6.56001 2.83405 7.52601C2.7746 7.56613 2.7249 7.61906 2.68859 7.68092C2.65229 7.74277 2.63031 7.81197 2.62427 7.88344C2.61822 7.9549 2.62827 8.02681 2.65367 8.09388C2.67907 8.16095 2.71918 8.22148 2.77105 8.27101C2.85625 8.35417 2.96719 8.4059 3.08566 8.41771C3.20413 8.42952 3.3231 8.40071 3.42305 8.33601C4.78907 7.46107 6.37784 6.99732 8.00005 7.00001C9.62225 6.99732 11.211 7.46107 12.577 8.33601C12.782 8.46801 13.057 8.44401 13.229 8.27101ZM11.046 10.454C11.272 10.228 11.231 9.84901 10.946 9.70401C10.0335 9.23966 9.0239 8.99839 8.00005 9.00001C6.94005 9.00001 5.93805 9.25401 5.05405 9.70401C4.76905 9.84901 4.72805 10.228 4.95405 10.454L4.96905 10.469C5.12905 10.629 5.37705 10.659 5.58005 10.559C6.33327 10.1899 7.16122 9.9986 8.00005 10C8.86805 10 9.69005 10.201 10.42 10.56C10.623 10.66 10.87 10.63 11.031 10.469L11.046 10.454ZM9.06005 12.44C9.25605 12.244 9.25805 11.92 9.02005 11.78C8.71153 11.5964 8.35908 11.4996 8.00005 11.5C7.64101 11.4996 7.28856 11.5964 6.98005 11.78C6.74205 11.92 6.74405 12.244 6.94005 12.44L7.64605 13.146C7.69249 13.1926 7.74767 13.2295 7.80841 13.2547C7.86916 13.2799 7.93428 13.2929 8.00005 13.2929C8.06581 13.2929 8.13093 13.2799 8.19168 13.2547C8.25242 13.2295 8.3076 13.1926 8.35405 13.146L9.06105 12.439L9.06005 12.44Z" fill="#212529"/>
</svg>
