<svg width="16" height="16" viewBox="0 0 16 16" fill="none" xmlns="http://www.w3.org/2000/svg">
<path fill-rule="evenodd" clip-rule="evenodd" d="M13.8539 2.14592C13.9005 2.19236 13.9374 2.24754 13.9626 2.30828C13.9878 2.36903 14.0008 2.43415 14.0008 2.49992C14.0008 2.56568 13.9878 2.63081 13.9626 2.69155C13.9374 2.7523 13.9005 2.80747 13.8539 2.85392L2.85392 13.8539C2.76003 13.9478 2.63269 14.0005 2.49992 14.0005C2.36714 14.0005 2.2398 13.9478 2.14592 13.8539C2.05203 13.76 1.99929 13.6327 1.99929 13.4999C1.99929 13.3671 2.05203 13.2398 2.14592 13.1459L13.1459 2.14592C13.1924 2.09935 13.2475 2.06241 13.3083 2.0372C13.369 2.012 13.4341 1.99902 13.4999 1.99902C13.5657 1.99902 13.6308 2.012 13.6916 2.0372C13.7523 2.06241 13.8075 2.09935 13.8539 2.14592Z" fill="#212529"/>
<path fill-rule="evenodd" clip-rule="evenodd" d="M2.14592 2.14592C2.09935 2.19236 2.06241 2.24754 2.0372 2.30828C2.012 2.36903 1.99902 2.43415 1.99902 2.49992C1.99902 2.56568 2.012 2.63081 2.0372 2.69155C2.06241 2.7523 2.09935 2.80747 2.14592 2.85392L13.1459 13.8539C13.2398 13.9478 13.3671 14.0005 13.4999 14.0005C13.6327 14.0005 13.76 13.9478 13.8539 13.8539C13.9478 13.76 14.0005 13.6327 14.0005 13.4999C14.0005 13.3671 13.9478 13.2398 13.8539 13.1459L2.85392 2.14592C2.80747 2.09935 2.7523 2.06241 2.69155 2.0372C2.63081 2.012 2.56568 1.99902 2.49992 1.99902C2.43415 1.99902 2.36903 2.012 2.30828 2.0372C2.24754 2.06241 2.19236 2.09935 2.14592 2.14592Z" fill="#212529"/>
</svg>
