<svg width="16" height="16" viewBox="0 0 16 16" xmlns="http://www.w3.org/2000/svg"> <path d="M2.873 11.297V4.142H1.699L0 5.379V6.516L1.64 5.336H1.7V11.297H2.874H2.873ZM6.086 6.207V6.144C6.086 5.526 6.526 4.975 7.282 4.975C7.958 4.975 8.456 5.415 8.456 6.081C8.456 6.705 8.036 7.182 7.649 7.607L4.99 10.553V11.297H9.77V10.307H6.643V10.238L8.41 8.252C9.06 7.528 9.647 6.92 9.647 5.982C9.646 4.849 8.723 4 7.308 4C5.735 4 4.948 5.064 4.948 6.15V6.207H6.086ZM12.645 8.09H13.431C14.254 8.09 14.805 8.571 14.81 9.269C14.82 9.976 14.26 10.485 13.389 10.479C12.619 10.474 12.063 10.06 12.01 9.526H10.915C10.957 10.579 11.853 11.444 13.379 11.444C14.857 11.444 16.021 10.605 15.999 9.3C15.979 8.157 15.077 7.649 14.448 7.586V7.523C14.983 7.433 15.795 6.863 15.774 5.845C15.748 4.792 14.841 3.99 13.415 4C11.915 4.005 11.098 4.88 11.067 5.898H12.183C12.215 5.4 12.681 4.954 13.389 4.954C14.092 4.954 14.595 5.389 14.595 6.024C14.6 6.664 14.091 7.13 13.395 7.13H12.645V8.09Z"/> </svg>