<svg width="16" height="16" viewBox="0 0 16 16" fill="none" xmlns="http://www.w3.org/2000/svg">
<g clip-path="url(#clip0_34_2525)">
<path d="M11.1819 0.00800701C11.1479 -0.029993 9.92293 0.023007 8.85693 1.18001C7.79093 2.33601 7.95493 3.66201 7.97893 3.69601C8.00293 3.73001 9.49893 3.78301 10.4539 2.43801C11.4089 1.09301 11.2159 0.047007 11.1819 0.00800701ZM14.4959 11.741C14.4479 11.645 12.1709 10.507 12.3829 8.31901C12.5949 6.13001 14.0579 5.53001 14.0809 5.46501C14.1039 5.40001 13.4839 4.67501 12.8269 4.30801C12.3445 4.04926 11.8107 3.90102 11.2639 3.87401C11.1559 3.87101 10.7809 3.77901 10.0099 3.99001C9.50193 4.12901 8.35693 4.57901 8.04193 4.59701C7.72593 4.61501 6.78593 4.07501 5.77493 3.93201C5.12793 3.80701 4.44193 4.06301 3.95093 4.26001C3.46093 4.45601 2.52893 5.01401 1.87693 6.49701C1.22493 7.97901 1.56593 10.327 1.80993 11.057C2.05393 11.786 2.43493 12.981 3.08293 13.853C3.65893 14.837 4.42293 15.52 4.74193 15.752C5.06093 15.984 5.96093 16.138 6.58493 15.819C7.08693 15.511 7.99293 15.334 8.35093 15.347C8.70793 15.36 9.41193 15.501 10.1329 15.886C10.7039 16.083 11.2439 16.001 11.7849 15.781C12.3259 15.56 13.1089 14.722 14.0229 13.023C14.3699 12.233 14.5279 11.806 14.4959 11.741Z" fill="#212529"/>
<path d="M11.1819 0.00800701C11.1479 -0.029993 9.92293 0.023007 8.85693 1.18001C7.79093 2.33601 7.95493 3.66201 7.97893 3.69601C8.00293 3.73001 9.49893 3.78301 10.4539 2.43801C11.4089 1.09301 11.2159 0.047007 11.1819 0.00800701ZM14.4959 11.741C14.4479 11.645 12.1709 10.507 12.3829 8.31901C12.5949 6.13001 14.0579 5.53001 14.0809 5.46501C14.1039 5.40001 13.4839 4.67501 12.8269 4.30801C12.3445 4.04926 11.8107 3.90102 11.2639 3.87401C11.1559 3.87101 10.7809 3.77901 10.0099 3.99001C9.50193 4.12901 8.35693 4.57901 8.04193 4.59701C7.72593 4.61501 6.78593 4.07501 5.77493 3.93201C5.12793 3.80701 4.44193 4.06301 3.95093 4.26001C3.46093 4.45601 2.52893 5.01401 1.87693 6.49701C1.22493 7.97901 1.56593 10.327 1.80993 11.057C2.05393 11.786 2.43493 12.981 3.08293 13.853C3.65893 14.837 4.42293 15.52 4.74193 15.752C5.06093 15.984 5.96093 16.138 6.58493 15.819C7.08693 15.511 7.99293 15.334 8.35093 15.347C8.70793 15.36 9.41193 15.501 10.1329 15.886C10.7039 16.083 11.2439 16.001 11.7849 15.781C12.3259 15.56 13.1089 14.722 14.0229 13.023C14.3699 12.233 14.5279 11.806 14.4959 11.741Z" fill="#212529"/>
</g>
<defs>
<clipPath id="clip0_34_2525">
<rect width="16" height="16" fill="white"/>
</clipPath>
</defs>
</svg>
