<svg width="16" height="16" viewBox="0 0 16 16" xmlns="http://www.w3.org/2000/svg"> <g clip-path="url(#clip0_34_2591)"> <path fill-rule="evenodd" clip-rule="evenodd" d="M0.999917 11.5C0.999917 11.6326 1.0526 11.7598 1.14636 11.8536C1.24013 11.9473 1.36731 12 1.49992 12H13.2929L10.1459 15.146C10.052 15.2399 9.99929 15.3672 9.99929 15.5C9.99929 15.6328 10.052 15.7601 10.1459 15.854C10.2398 15.9479 10.3671 16.0007 10.4999 16.0007C10.6327 16.0007 10.76 15.9479 10.8539 15.854L14.8539 11.854C14.9005 11.8076 14.9374 11.7524 14.9626 11.6917C14.9878 11.6309 15.0008 11.5658 15.0008 11.5C15.0008 11.4343 14.9878 11.3691 14.9626 11.3084C14.9374 11.2476 14.9005 11.1925 14.8539 11.146L10.8539 7.14602C10.76 7.05213 10.6327 6.99939 10.4999 6.99939C10.3671 6.99939 10.2398 7.05213 10.1459 7.14602C10.052 7.23991 9.99929 7.36725 9.99929 7.50002C9.99929 7.6328 10.052 7.76013 10.1459 7.85402L13.2929 11H1.49992C1.36731 11 1.24013 11.0527 1.14636 11.1465C1.0526 11.2402 0.999917 11.3674 0.999917 11.5ZM14.9999 4.50002C14.9999 4.63263 14.9472 4.75981 14.8535 4.85357C14.7597 4.94734 14.6325 5.00002 14.4999 5.00002H2.70692L5.85392 8.14602C5.9004 8.19251 5.93728 8.2477 5.96244 8.30844C5.9876 8.36918 6.00055 8.43428 6.00055 8.50002C6.00055 8.56576 5.9876 8.63087 5.96244 8.6916C5.93728 8.75234 5.9004 8.80753 5.85392 8.85402C5.80743 8.90051 5.75224 8.93739 5.6915 8.96254C5.63076 8.9877 5.56566 9.00065 5.49992 9.00065C5.43417 9.00065 5.36907 8.9877 5.30833 8.96254C5.24759 8.93739 5.1924 8.90051 5.14592 8.85402L1.14592 4.85402C1.09935 4.80758 1.06241 4.7524 1.0372 4.69166C1.012 4.63091 0.999023 4.56579 0.999023 4.50002C0.999023 4.43425 1.012 4.36913 1.0372 4.30839C1.06241 4.24764 1.09935 4.19247 1.14592 4.14602L5.14592 0.146021C5.2398 0.0521346 5.36714 -0.000610352 5.49992 -0.000610352C5.63269 -0.000610352 5.76003 0.0521346 5.85392 0.146021C5.9478 0.239908 6.00055 0.367246 6.00055 0.500021C6.00055 0.632797 5.9478 0.760135 5.85392 0.854021L2.70692 4.00002H14.4999C14.6325 4.00002 14.7597 4.0527 14.8535 4.14647C14.9472 4.24024 14.9999 4.36741 14.9999 4.50002Z"/> </g> <defs> <clipPath id="clip0_34_2591"> <rect width="16" height="16"/> </clipPath> </defs> </svg>