<svg width="16" height="16" viewBox="0 0 16 16" fill="none" xmlns="http://www.w3.org/2000/svg">
<g clip-path="url(#clip0_34_2626)">
<path fill-rule="evenodd" clip-rule="evenodd" d="M5.8279 10.172C5.73414 10.0783 5.60698 10.0256 5.4744 10.0256C5.34182 10.0256 5.21467 10.0783 5.1209 10.172L1.0249 14.268V11.5C1.0249 11.3674 0.972224 11.2402 0.878456 11.1465C0.784688 11.0527 0.657511 11 0.524902 11C0.392294 11 0.265117 11.0527 0.171349 11.1465C0.0775808 11.2402 0.0249023 11.3674 0.0249023 11.5V15.475C0.0249023 15.6076 0.0775808 15.7348 0.171349 15.8286C0.265117 15.9223 0.392294 15.975 0.524902 15.975H4.4999C4.63251 15.975 4.75969 15.9223 4.85346 15.8286C4.94722 15.7348 4.9999 15.6076 4.9999 15.475C4.9999 15.3424 4.94722 15.2152 4.85346 15.1215C4.75969 15.0277 4.63251 14.975 4.4999 14.975H1.7319L5.8279 10.879C5.92164 10.7853 5.9743 10.6581 5.9743 10.5255C5.9743 10.3929 5.92164 10.2658 5.8279 10.172ZM10.1719 10.172C10.2657 10.0783 10.3928 10.0256 10.5254 10.0256C10.658 10.0256 10.7851 10.0783 10.8789 10.172L14.9749 14.268V11.5C14.9749 11.3674 15.0276 11.2402 15.1213 11.1465C15.2151 11.0527 15.3423 11 15.4749 11C15.6075 11 15.7347 11.0527 15.8285 11.1465C15.9222 11.2402 15.9749 11.3674 15.9749 11.5V15.475C15.9749 15.6076 15.9222 15.7348 15.8285 15.8286C15.7347 15.9223 15.6075 15.975 15.4749 15.975H11.4999C11.3673 15.975 11.2401 15.9223 11.1463 15.8286C11.0526 15.7348 10.9999 15.6076 10.9999 15.475C10.9999 15.3424 11.0526 15.2152 11.1463 15.1215C11.2401 15.0277 11.3673 14.975 11.4999 14.975H14.2679L10.1719 10.879C10.0782 10.7853 10.0255 10.6581 10.0255 10.5255C10.0255 10.3929 10.0782 10.2658 10.1719 10.172ZM10.1719 5.82802C10.2657 5.92176 10.3928 5.97442 10.5254 5.97442C10.658 5.97442 10.7851 5.92176 10.8789 5.82802L14.9749 1.73202V4.50002C14.9749 4.63263 15.0276 4.75981 15.1213 4.85358C15.2151 4.94735 15.3423 5.00002 15.4749 5.00002C15.6075 5.00002 15.7347 4.94735 15.8285 4.85358C15.9222 4.75981 15.9749 4.63263 15.9749 4.50002V0.525024C15.9749 0.392416 15.9222 0.265239 15.8285 0.171471C15.7347 0.0777028 15.6075 0.0250244 15.4749 0.0250244H11.4999C11.3673 0.0250244 11.2401 0.0777028 11.1463 0.171471C11.0526 0.265239 10.9999 0.392416 10.9999 0.525024C10.9999 0.657633 11.0526 0.78481 11.1463 0.878578C11.2401 0.972346 11.3673 1.02502 11.4999 1.02502H14.2679L10.1719 5.12102C10.0782 5.21479 10.0255 5.34194 10.0255 5.47452C10.0255 5.60711 10.0782 5.73426 10.1719 5.82802ZM5.8279 5.82802C5.73414 5.92176 5.60698 5.97442 5.4744 5.97442C5.34182 5.97442 5.21467 5.92176 5.1209 5.82802L1.0249 1.73202V4.50002C1.0249 4.63263 0.972224 4.75981 0.878456 4.85358C0.784688 4.94735 0.657511 5.00002 0.524902 5.00002C0.392294 5.00002 0.265117 4.94735 0.171349 4.85358C0.0775808 4.75981 0.0249023 4.63263 0.0249023 4.50002V0.525024C0.0249023 0.392416 0.0775808 0.265239 0.171349 0.171471C0.265117 0.0777028 0.392294 0.0250244 0.524902 0.0250244H4.4999C4.63251 0.0250244 4.75969 0.0777028 4.85346 0.171471C4.94722 0.265239 4.9999 0.392416 4.9999 0.525024C4.9999 0.657633 4.94722 0.78481 4.85346 0.878578C4.75969 0.972346 4.63251 1.02502 4.4999 1.02502H1.7319L5.8279 5.12102C5.92164 5.21479 5.9743 5.34194 5.9743 5.47452C5.9743 5.60711 5.92164 5.73426 5.8279 5.82802Z" fill="#212529"/>
</g>
<defs>
<clipPath id="clip0_34_2626">
<rect width="16" height="16" fill="white"/>
</clipPath>
</defs>
</svg>
