<svg width="16" height="16" viewBox="0 0 16 16" fill="none" xmlns="http://www.w3.org/2000/svg">
<path fill-rule="evenodd" clip-rule="evenodd" d="M11.9999 8.00002C11.9999 8.13263 11.9472 8.25981 11.8535 8.35358C11.7597 8.44734 11.6325 8.50002 11.4999 8.50002H5.70692L7.85392 10.646C7.90041 10.6925 7.93728 10.7477 7.96244 10.8084C7.9876 10.8692 8.00055 10.9343 8.00055 11C8.00055 11.0658 7.9876 11.1309 7.96244 11.1916C7.93728 11.2523 7.90041 11.3075 7.85392 11.354C7.80743 11.4005 7.75224 11.4374 7.6915 11.4625C7.63076 11.4877 7.56566 11.5007 7.49992 11.5007C7.43417 11.5007 7.36907 11.4877 7.30833 11.4625C7.24759 11.4374 7.19241 11.4005 7.14592 11.354L4.14592 8.35402C4.09935 8.30758 4.06241 8.2524 4.0372 8.19165C4.012 8.13091 3.99902 8.06579 3.99902 8.00002C3.99902 7.93425 4.012 7.86913 4.0372 7.80839C4.06241 7.74764 4.09935 7.69247 4.14592 7.64602L7.14592 4.64602C7.2398 4.55213 7.36714 4.49939 7.49992 4.49939C7.63269 4.49939 7.76003 4.55213 7.85392 4.64602C7.9478 4.73991 8.00055 4.86725 8.00055 5.00002C8.00055 5.1328 7.9478 5.26013 7.85392 5.35402L5.70692 7.50002H11.4999C11.6325 7.50002 11.7597 7.5527 11.8535 7.64647C11.9472 7.74024 11.9999 7.86741 11.9999 8.00002Z" fill="#212529"/>
</svg>
