<svg width="16" height="16" viewBox="0 0 16 16" xmlns="http://www.w3.org/2000/svg"> <g clip-path="url(#clip0_34_2531)"> <path fill-rule="evenodd" clip-rule="evenodd" d="M4.85414 14.854C4.8077 14.9006 4.75252 14.9375 4.69178 14.9627C4.63103 14.9879 4.56591 15.0009 4.50014 15.0009C4.43438 15.0009 4.36926 14.9879 4.30851 14.9627C4.24776 14.9375 4.19259 14.9006 4.14614 14.854L0.146143 10.854C0.0522567 10.7601 -0.000488284 10.6328 -0.000488281 10.5C-0.000488278 10.3672 0.0522567 10.2399 0.146143 10.146C0.24003 10.0521 0.367368 9.99937 0.500143 9.99937C0.632919 9.99937 0.760257 10.0521 0.854143 10.146L4.00014 13.293V3.5C4.00014 2.83696 4.26354 2.20107 4.73238 1.73223C5.20122 1.26339 5.8371 1 6.50014 1H14.5001C14.6328 1 14.7599 1.05268 14.8537 1.14645C14.9475 1.24021 15.0001 1.36739 15.0001 1.5C15.0001 1.63261 14.9475 1.75979 14.8537 1.85355C14.7599 1.94732 14.6328 2 14.5001 2H6.50014C6.10232 2 5.72079 2.15804 5.43948 2.43934C5.15818 2.72064 5.00014 3.10218 5.00014 3.5V13.293L8.14614 10.146C8.24003 10.0521 8.36737 9.99937 8.50014 9.99937C8.63292 9.99937 8.76026 10.0521 8.85414 10.146C8.94803 10.2399 9.00077 10.3672 9.00077 10.5C9.00077 10.6328 8.94803 10.7601 8.85414 10.854L4.85414 14.854Z"/> </g> <defs> <clipPath id="clip0_34_2531"> <rect width="16" height="16"/> </clipPath> </defs> </svg>