<svg width="16" height="16" viewBox="0 0 16 16" fill="none" xmlns="http://www.w3.org/2000/svg">
<g clip-path="url(#clip0_34_2537)">
<path fill-rule="evenodd" clip-rule="evenodd" d="M4.85414 1.14601C4.8077 1.09945 4.75252 1.0625 4.69178 1.0373C4.63103 1.01209 4.56591 0.999115 4.50014 0.999115C4.43438 0.999115 4.36926 1.01209 4.30851 1.0373C4.24776 1.0625 4.19259 1.09945 4.14614 1.14601L0.146143 5.14601C0.0522567 5.2399 -0.000488281 5.36723 -0.000488281 5.50001C-0.000488281 5.63278 0.0522567 5.76012 0.146143 5.85401C0.24003 5.9479 0.367368 6.00064 0.500143 6.00064C0.632919 6.00064 0.760257 5.9479 0.854143 5.85401L4.00014 2.70701V12.5C4.00014 13.163 4.26354 13.7989 4.73238 14.2678C5.20122 14.7366 5.8371 15 6.50014 15H14.5001C14.6328 15 14.7599 14.9473 14.8537 14.8536C14.9475 14.7598 15.0001 14.6326 15.0001 14.5C15.0001 14.3674 14.9475 14.2402 14.8537 14.1465C14.7599 14.0527 14.6328 14 14.5001 14H6.50014C6.10232 14 5.72079 13.842 5.43948 13.5607C5.15818 13.2794 5.00014 12.8978 5.00014 12.5V2.70701L8.14614 5.85401C8.19263 5.9005 8.24782 5.93737 8.30856 5.96253C8.3693 5.98769 8.4344 6.00064 8.50014 6.00064C8.56589 6.00064 8.63099 5.98769 8.69173 5.96253C8.75247 5.93737 8.80766 5.9005 8.85414 5.85401C8.90063 5.80752 8.93751 5.75233 8.96267 5.69159C8.98783 5.63085 9.00077 5.56575 9.00077 5.50001C9.00077 5.43426 8.98783 5.36916 8.96267 5.30842C8.93751 5.24769 8.90063 5.1925 8.85414 5.14601L4.85414 1.14601Z" fill="#212529"/>
</g>
<defs>
<clipPath id="clip0_34_2537">
<rect width="16" height="16" fill="white"/>
</clipPath>
</defs>
</svg>
