<svg width="16" height="16" viewBox="0 0 16 16" xmlns="http://www.w3.org/2000/svg"> <path fill-rule="evenodd" clip-rule="evenodd" d="M8.00014 1C8.13275 1 8.25993 1.05268 8.3537 1.14645C8.44746 1.24021 8.50014 1.36739 8.50014 1.5V13.293L11.6461 10.146C11.74 10.0521 11.8674 9.99937 12.0001 9.99937C12.1329 9.99937 12.2603 10.0521 12.3541 10.146C12.448 10.2399 12.5008 10.3672 12.5008 10.5C12.5008 10.6328 12.448 10.7601 12.3541 10.854L8.35414 14.854C8.3077 14.9006 8.25252 14.9375 8.19178 14.9627C8.13103 14.9879 8.06591 15.0009 8.00014 15.0009C7.93438 15.0009 7.86926 14.9879 7.80851 14.9627C7.74776 14.9375 7.69259 14.9006 7.64614 14.854L3.64614 10.854C3.55226 10.7601 3.49951 10.6328 3.49951 10.5C3.49951 10.3672 3.55226 10.2399 3.64614 10.146C3.74003 10.0521 3.86737 9.99937 4.00014 9.99937C4.13292 9.99937 4.26026 10.0521 4.35414 10.146L7.50014 13.293V1.5C7.50014 1.36739 7.55282 1.24021 7.64659 1.14645C7.74036 1.05268 7.86753 1 8.00014 1Z"/> </svg>