<svg width="16" height="16" viewBox="0 0 16 16" xmlns="http://www.w3.org/2000/svg"> <path fill-rule="evenodd" clip-rule="evenodd" d="M7.99996 3.00003C6.91931 3.00044 5.86789 3.35095 5.00316 3.99906C4.13844 4.64717 3.50697 5.558 3.20332 6.5951C2.89968 7.63221 2.94021 8.73978 3.31884 9.75192C3.69748 10.7641 4.39384 11.6263 5.30362 12.2095C6.2134 12.7926 7.28763 13.0654 8.36542 12.9868C9.4432 12.9082 10.4665 12.4826 11.2821 11.7736C12.0977 11.0647 12.6616 10.1106 12.8895 9.05422C13.1173 7.99787 12.9968 6.89613 12.546 5.91403C12.4969 5.79462 12.4959 5.66086 12.5432 5.54075C12.5905 5.42063 12.6824 5.32347 12.7998 5.26959C12.9171 5.21571 13.0507 5.2093 13.1726 5.25169C13.2945 5.29408 13.3954 5.38199 13.454 5.49703C13.9949 6.67561 14.1395 7.99776 13.866 9.26541C13.5925 10.5331 12.9157 11.678 11.9369 12.5287C10.9581 13.3794 9.73 13.89 8.4366 13.9842C7.1432 14.0783 5.85411 13.7509 4.76243 13.0509C3.67074 12.351 2.83522 11.3161 2.38102 10.1015C1.92682 8.88679 1.87839 7.55765 2.24299 6.31314C2.60759 5.06863 3.36559 3.97574 4.40344 3.19818C5.44129 2.42062 6.70314 2.00025 7.99996 2.00003V3.00003Z"/> <path d="M7.99996 4.46603V0.534025C7.99997 0.486522 8.01353 0.440006 8.03903 0.399926C8.06452 0.359846 8.10091 0.32786 8.14393 0.307714C8.18695 0.287568 8.23482 0.280096 8.28194 0.286173C8.32905 0.292249 8.37346 0.311623 8.40996 0.342025L10.77 2.30803C10.89 2.40803 10.89 2.59203 10.77 2.69202L8.40996 4.65803C8.37346 4.68843 8.32905 4.7078 8.28194 4.71388C8.23482 4.71995 8.18695 4.71248 8.14393 4.69234C8.10091 4.67219 8.06452 4.6402 8.03903 4.60012C8.01353 4.56004 7.99997 4.51353 7.99996 4.46603Z"/> </svg>