<svg width="16" height="16" viewBox="0 0 16 16" xmlns="http://www.w3.org/2000/svg"> <path fill-rule="evenodd" clip-rule="evenodd" d="M14.0001 2.5C14.0001 2.36739 13.9475 2.24021 13.8537 2.14645C13.7599 2.05268 13.6328 2 13.5001 2H7.50014C7.36753 2 7.24036 2.05268 7.14659 2.14645C7.05282 2.24021 7.00014 2.36739 7.00014 2.5C7.00014 2.63261 7.05282 2.75979 7.14659 2.85355C7.24036 2.94732 7.36753 3 7.50014 3H12.2931L2.14614 13.146C2.09966 13.1925 2.06278 13.2477 2.03762 13.3084C2.01246 13.3692 1.99951 13.4343 1.99951 13.5C1.99951 13.5657 2.01246 13.6308 2.03762 13.6916C2.06278 13.7523 2.09966 13.8075 2.14614 13.854C2.19263 13.9005 2.24782 13.9374 2.30856 13.9625C2.3693 13.9877 2.4344 14.0006 2.50014 14.0006C2.56589 14.0006 2.63099 13.9877 2.69173 13.9625C2.75247 13.9374 2.80766 13.9005 2.85414 13.854L13.0001 3.707V8.5C13.0001 8.63261 13.0528 8.75979 13.1466 8.85355C13.2404 8.94732 13.3675 9 13.5001 9C13.6328 9 13.7599 8.94732 13.8537 8.85355C13.9475 8.75979 14.0001 8.63261 14.0001 8.5V2.5Z"/> </svg>