<svg width="16" height="16" viewBox="0 0 16 16" fill="none" xmlns="http://www.w3.org/2000/svg">
<g clip-path="url(#clip0_34_2535)">
<path fill-rule="evenodd" clip-rule="evenodd" d="M14.854 4.85399C14.9006 4.80755 14.9375 4.75237 14.9627 4.69162C14.9879 4.63088 15.0009 4.56576 15.0009 4.49999C15.0009 4.43422 14.9879 4.3691 14.9627 4.30836C14.9375 4.24761 14.9006 4.19244 14.854 4.14599L10.854 0.145991C10.7601 0.0521041 10.6328 -0.000640872 10.5 -0.000640869C10.3672 -0.000640866 10.2399 0.0521041 10.146 0.145991C10.0521 0.239877 9.99937 0.367215 9.99937 0.499991C9.99937 0.632766 10.0521 0.760104 10.146 0.853991L13.293 3.99999H3.5C2.83696 3.99999 2.20107 4.26338 1.73223 4.73222C1.26339 5.20107 1 5.83695 1 6.49999V14.5C1 14.6326 1.05268 14.7598 1.14645 14.8535C1.24021 14.9473 1.36739 15 1.5 15C1.63261 15 1.75979 14.9473 1.85355 14.8535C1.94732 14.7598 2 14.6326 2 14.5V6.49999C2 6.10217 2.15804 5.72063 2.43934 5.43933C2.72064 5.15803 3.10218 4.99999 3.5 4.99999H13.293L10.146 8.14599C10.0521 8.23988 9.99937 8.36722 9.99937 8.49999C9.99937 8.63277 10.0521 8.7601 10.146 8.85399C10.2399 8.94788 10.3672 9.00062 10.5 9.00062C10.6328 9.00062 10.7601 8.94788 10.854 8.85399L14.854 4.85399Z" fill="#212529"/>
</g>
<defs>
<clipPath id="clip0_34_2535">
<rect width="16" height="16" fill="white"/>
</clipPath>
</defs>
</svg>
