<svg width="16" height="16" viewBox="0 0 16 16" xmlns="http://www.w3.org/2000/svg"> <path fill-rule="evenodd" clip-rule="evenodd" d="M12.4999 15C12.3673 15 12.2401 14.9473 12.1464 14.8536C12.0526 14.7598 11.9999 14.6326 11.9999 14.5V1.5C11.9999 1.36739 12.0526 1.24021 12.1464 1.14645C12.2401 1.05268 12.3673 1 12.4999 1C12.6325 1 12.7597 1.05268 12.8535 1.14645C12.9472 1.24021 12.9999 1.36739 12.9999 1.5V14.5C12.9999 14.6326 12.9472 14.7598 12.8535 14.8536C12.7597 14.9473 12.6325 15 12.4999 15ZM9.99992 8C9.99992 8.13261 9.94724 8.25979 9.85347 8.35355C9.7597 8.44732 9.63253 8.5 9.49992 8.5H3.70692L5.85392 10.646C5.90041 10.6925 5.93728 10.7477 5.96244 10.8084C5.9876 10.8692 6.00055 10.9343 6.00055 11C6.00055 11.0657 5.9876 11.1308 5.96244 11.1916C5.93728 11.2523 5.90041 11.3075 5.85392 11.354C5.80743 11.4005 5.75224 11.4374 5.6915 11.4625C5.63076 11.4877 5.56566 11.5006 5.49992 11.5006C5.43417 11.5006 5.36907 11.4877 5.30833 11.4625C5.24759 11.4374 5.19241 11.4005 5.14592 11.354L2.14592 8.354C2.09935 8.30755 2.06241 8.25238 2.0372 8.19163C2.012 8.13089 1.99902 8.06577 1.99902 8C1.99902 7.93423 2.012 7.86911 2.0372 7.80837C2.06241 7.74762 2.09935 7.69245 2.14592 7.646L5.14592 4.646C5.2398 4.55211 5.36714 4.49937 5.49992 4.49937C5.63269 4.49937 5.76003 4.55211 5.85392 4.646C5.9478 4.73989 6.00055 4.86722 6.00055 5C6.00055 5.13278 5.9478 5.26011 5.85392 5.354L3.70692 7.5H9.49992C9.63253 7.5 9.7597 7.55268 9.85347 7.64645C9.94724 7.74021 9.99992 7.86739 9.99992 8Z"/> </svg>