<svg width="16" height="16" viewBox="0 0 16 16" xmlns="http://www.w3.org/2000/svg"> <g clip-path="url(#clip0_34_2583)"> <path fill-rule="evenodd" clip-rule="evenodd" d="M11.5001 15C11.6328 15 11.7599 14.9473 11.8537 14.8535C11.9475 14.7598 12.0001 14.6326 12.0001 14.5V2.70698L15.1461 5.85398C15.24 5.94787 15.3674 6.00061 15.5001 6.00061C15.6329 6.00061 15.7603 5.94787 15.8541 5.85398C15.948 5.76009 16.0008 5.63275 16.0008 5.49998C16.0008 5.3672 15.948 5.23986 15.8541 5.14598L11.8541 1.14598C11.8077 1.09942 11.7525 1.06247 11.6918 1.03727C11.631 1.01206 11.5659 0.999084 11.5001 0.999084C11.4344 0.999084 11.3693 1.01206 11.3085 1.03727C11.2478 1.06247 11.1926 1.09942 11.1461 1.14598L7.14614 5.14598C7.05226 5.23986 6.99951 5.3672 6.99951 5.49998C6.99951 5.63275 7.05226 5.76009 7.14614 5.85398C7.24003 5.94787 7.36737 6.00061 7.50014 6.00061C7.63292 6.00061 7.76026 5.94787 7.85414 5.85398L11.0001 2.70698V14.5C11.0001 14.6326 11.0528 14.7598 11.1466 14.8535C11.2404 14.9473 11.3675 15 11.5001 15ZM4.50014 0.999978C4.63275 0.999978 4.75993 1.05266 4.8537 1.14642C4.94746 1.24019 5.00014 1.36737 5.00014 1.49998V13.293L8.14614 10.146C8.24003 10.0521 8.36737 9.99935 8.50014 9.99935C8.63292 9.99935 8.76026 10.0521 8.85414 10.146C8.94803 10.2399 9.00077 10.3672 9.00077 10.5C9.00077 10.6328 8.94803 10.7601 8.85414 10.854L4.85414 14.854C4.8077 14.9005 4.75252 14.9375 4.69178 14.9627C4.63103 14.9879 4.56591 15.0009 4.50014 15.0009C4.43438 15.0009 4.36926 14.9879 4.30851 14.9627C4.24776 14.9375 4.19259 14.9005 4.14614 14.854L0.146143 10.854C0.0522567 10.7601 -0.000488284 10.6328 -0.000488281 10.5C-0.000488278 10.3672 0.0522567 10.2399 0.146143 10.146C0.24003 10.0521 0.367368 9.99935 0.500143 9.99935C0.632919 9.99935 0.760257 10.0521 0.854143 10.146L4.00014 13.293V1.49998C4.00014 1.36737 4.05282 1.24019 4.14659 1.14642C4.24036 1.05266 4.36754 0.999978 4.50014 0.999978Z"/> </g> <defs> <clipPath id="clip0_34_2583"> <rect width="16" height="16"/> </clipPath> </defs> </svg>