<svg width="16" height="16" viewBox="0 0 16 16" xmlns="http://www.w3.org/2000/svg"> <path fill-rule="evenodd" clip-rule="evenodd" d="M8.00014 4C8.13275 4 8.25993 4.05268 8.3537 4.14645C8.44747 4.24021 8.50014 4.36739 8.50014 4.5V10.293L10.6461 8.146C10.6926 8.09951 10.7478 8.06264 10.8086 8.03748C10.8693 8.01232 10.9344 7.99937 11.0001 7.99937C11.0659 7.99937 11.131 8.01232 11.1917 8.03748C11.2525 8.06264 11.3077 8.09951 11.3541 8.146C11.4006 8.19249 11.4375 8.24768 11.4627 8.30842C11.4878 8.36916 11.5008 8.43426 11.5008 8.5C11.5008 8.56574 11.4878 8.63084 11.4627 8.69158C11.4375 8.75232 11.4006 8.80751 11.3541 8.854L8.35414 11.854C8.3077 11.9006 8.25252 11.9375 8.19178 11.9627C8.13103 11.9879 8.06591 12.0009 8.00014 12.0009C7.93438 12.0009 7.86926 11.9879 7.80851 11.9627C7.74776 11.9375 7.69259 11.9006 7.64614 11.854L4.64614 8.854C4.59966 8.80751 4.56278 8.75232 4.53762 8.69158C4.51246 8.63084 4.49951 8.56574 4.49951 8.5C4.49951 8.43426 4.51246 8.36916 4.53762 8.30842C4.56278 8.24768 4.59966 8.19249 4.64614 8.146C4.74003 8.05211 4.86737 7.99937 5.00014 7.99937C5.06589 7.99937 5.13099 8.01232 5.19173 8.03748C5.25247 8.06264 5.30766 8.09951 5.35414 8.146L7.50014 10.293V4.5C7.50014 4.36739 7.55282 4.24021 7.64659 4.14645C7.74036 4.05268 7.86754 4 8.00014 4Z"/> </svg>