<svg width="16" height="16" viewBox="0 0 16 16" fill="none" xmlns="http://www.w3.org/2000/svg">
<path fill-rule="evenodd" clip-rule="evenodd" d="M8.00005 3.00003C9.08069 3.00044 10.1321 3.35095 10.9968 3.99906C11.8616 4.64717 12.493 5.558 12.7967 6.5951C13.1003 7.63221 13.0598 8.73978 12.6812 9.75192C12.3025 10.7641 11.6062 11.6263 10.6964 12.2095C9.7866 12.7926 8.71237 13.0654 7.63459 12.9868C6.5568 12.9082 5.53348 12.4826 4.71789 11.7736C3.90231 11.0647 3.33836 10.1106 3.11052 9.05422C2.88268 7.99787 3.0032 6.89613 3.45405 5.91403C3.50312 5.79462 3.50411 5.66086 3.4568 5.54075C3.4095 5.42063 3.31757 5.32347 3.20025 5.26959C3.08294 5.21571 2.94933 5.2093 2.82739 5.25169C2.70546 5.29408 2.60464 5.38199 2.54605 5.49703C2.00506 6.67561 1.86048 7.99776 2.13398 9.26541C2.40747 10.5331 3.08432 11.678 4.06312 12.5287C5.04193 13.3794 6.27001 13.89 7.56341 13.9842C8.8568 14.0783 10.1459 13.7509 11.2376 13.0509C12.3293 12.351 13.1648 11.3161 13.619 10.1015C14.0732 8.88679 14.1216 7.55765 13.757 6.31314C13.3924 5.06863 12.6344 3.97574 11.5966 3.19818C10.5587 2.42062 9.29687 2.00025 8.00005 2.00003V3.00003Z" fill="#212529"/>
<path d="M8.00005 4.46603V0.534025C8.00003 0.486522 7.98648 0.440006 7.96098 0.399926C7.93548 0.359846 7.89909 0.32786 7.85607 0.307714C7.81305 0.287568 7.76518 0.280096 7.71807 0.286173C7.67096 0.292249 7.62655 0.311623 7.59005 0.342025L5.23005 2.30803C5.20191 2.33149 5.17928 2.36085 5.16374 2.39403C5.14821 2.4272 5.14016 2.46339 5.14016 2.50003C5.14016 2.53666 5.14821 2.57285 5.16374 2.60602C5.17928 2.6392 5.20191 2.66856 5.23005 2.69202L7.59005 4.65803C7.62655 4.68843 7.67096 4.7078 7.71807 4.71388C7.76518 4.71995 7.81305 4.71248 7.85607 4.69234C7.89909 4.67219 7.93548 4.6402 7.96098 4.60012C7.98648 4.56004 8.00003 4.51353 8.00005 4.46603Z" fill="#212529"/>
</svg>
