<svg width="16" height="16" viewBox="0 0 16 16" xmlns="http://www.w3.org/2000/svg"> <path fill-rule="evenodd" clip-rule="evenodd" d="M4 8.00002C4 7.86741 4.05268 7.74024 4.14645 7.64647C4.24021 7.5527 4.36739 7.50002 4.5 7.50002H10.293L8.146 5.35402C8.05211 5.26013 7.99937 5.1328 7.99937 5.00002C7.99937 4.86725 8.05211 4.73991 8.146 4.64602C8.23989 4.55213 8.36722 4.49939 8.5 4.49939C8.63278 4.49939 8.76011 4.55213 8.854 4.64602L11.854 7.64602C11.9006 7.69247 11.9375 7.74764 11.9627 7.80839C11.9879 7.86913 12.0009 7.93425 12.0009 8.00002C12.0009 8.06579 11.9879 8.13091 11.9627 8.19165C11.9375 8.2524 11.9006 8.30758 11.854 8.35402L8.854 11.354C8.76011 11.4479 8.63278 11.5007 8.5 11.5007C8.36722 11.5007 8.23989 11.4479 8.146 11.354C8.05211 11.2601 7.99937 11.1328 7.99937 11C7.99937 10.8672 8.05211 10.7399 8.146 10.646L10.293 8.50002H4.5C4.36739 8.50002 4.24021 8.44734 4.14645 8.35358C4.05268 8.25981 4 8.13263 4 8.00002Z"/> </svg>