<svg width="16" height="16" viewBox="0 0 16 16" fill="none" xmlns="http://www.w3.org/2000/svg">
<g clip-path="url(#clip0_34_2618)">
<path fill-rule="evenodd" clip-rule="evenodd" d="M0.171784 15.828C0.265548 15.9218 0.392702 15.9744 0.525284 15.9744C0.657866 15.9744 0.78502 15.9218 0.878784 15.828L4.97478 11.732V14.5C4.97478 14.6326 5.02746 14.7598 5.12123 14.8536C5.215 14.9473 5.34218 15 5.47478 15C5.60739 15 5.73457 14.9473 5.82834 14.8536C5.92211 14.7598 5.97478 14.6326 5.97478 14.5V10.525C5.97478 10.3924 5.92211 10.2652 5.82834 10.1715C5.73457 10.0777 5.60739 10.025 5.47478 10.025H1.49978C1.36718 10.025 1.24 10.0777 1.14623 10.1715C1.05246 10.2652 0.999784 10.3924 0.999784 10.525C0.999784 10.6576 1.05246 10.7848 1.14623 10.8786C1.24 10.9723 1.36718 11.025 1.49978 11.025H4.26778L0.171784 15.121C0.0780483 15.2148 0.0253906 15.3419 0.0253906 15.4745C0.0253906 15.6071 0.0780483 15.7343 0.171784 15.828ZM15.8278 0.172028C15.734 0.0782925 15.6069 0.0256348 15.4743 0.0256348C15.3417 0.0256348 15.2145 0.0782925 15.1208 0.172028L11.0248 4.26803V1.50003C11.0248 1.36742 10.9721 1.24024 10.8783 1.14647C10.7846 1.05271 10.6574 1.00003 10.5248 1.00003C10.3922 1.00003 10.265 1.05271 10.1712 1.14647C10.0775 1.24024 10.0248 1.36742 10.0248 1.50003V5.47503C10.0248 5.60764 10.0775 5.73481 10.1712 5.82858C10.265 5.92235 10.3922 5.97503 10.5248 5.97503H14.4998C14.6324 5.97503 14.7596 5.92235 14.8533 5.82858C14.9471 5.73481 14.9998 5.60764 14.9998 5.47503C14.9998 5.34242 14.9471 5.21524 14.8533 5.12147C14.7596 5.02771 14.6324 4.97503 14.4998 4.97503H11.7318L15.8278 0.879028C15.9215 0.785264 15.9742 0.65811 15.9742 0.525528C15.9742 0.392946 15.9215 0.265792 15.8278 0.172028Z" fill="#212529"/>
</g>
<defs>
<clipPath id="clip0_34_2618">
<rect width="16" height="16" fill="white"/>
</clipPath>
</defs>
</svg>
