<svg width="16" height="16" viewBox="0 0 16 16" xmlns="http://www.w3.org/2000/svg"> <g clip-path="url(#clip0_34_2628)"> <path fill-rule="evenodd" clip-rule="evenodd" d="M7.64592 0.145978C7.69236 0.099415 7.74754 0.0624722 7.80828 0.0372657C7.86903 0.0120593 7.93415 -0.000915527 7.99992 -0.000915527C8.06568 -0.000915527 8.13081 0.0120593 8.19155 0.0372657C8.2523 0.0624722 8.30747 0.099415 8.35392 0.145978L10.3539 2.14598C10.4004 2.19247 10.4373 2.24766 10.4624 2.30839C10.4876 2.36913 10.5005 2.43423 10.5005 2.49998C10.5005 2.56572 10.4876 2.63082 10.4624 2.69156C10.4373 2.7523 10.4004 2.80749 10.3539 2.85398C10.3074 2.90047 10.2522 2.93734 10.1915 2.9625C10.1308 2.98766 10.0657 3.00061 9.99992 3.00061C9.93417 3.00061 9.86907 2.98766 9.80833 2.9625C9.74759 2.93734 9.6924 2.90047 9.64592 2.85398L8.49992 1.70698V5.49998C8.49992 5.63259 8.44724 5.75976 8.35347 5.85353C8.2597 5.9473 8.13253 5.99998 7.99992 5.99998C7.86731 5.99998 7.74013 5.9473 7.64636 5.85353C7.5526 5.75976 7.49992 5.63259 7.49992 5.49998V1.70698L6.35392 2.85398C6.26003 2.94787 6.13269 3.00061 5.99992 3.00061C5.86714 3.00061 5.7398 2.94787 5.64592 2.85398C5.55203 2.76009 5.49929 2.63275 5.49929 2.49998C5.49929 2.3672 5.55203 2.23986 5.64592 2.14598L7.64592 0.145978ZM7.99992 9.99998C8.13253 9.99998 8.2597 10.0527 8.35347 10.1464C8.44724 10.2402 8.49992 10.3674 8.49992 10.5V14.293L9.64592 13.146C9.7398 13.0521 9.86714 12.9993 9.99992 12.9993C10.1327 12.9993 10.26 13.0521 10.3539 13.146C10.4478 13.2399 10.5005 13.3672 10.5005 13.5C10.5005 13.6328 10.4478 13.7601 10.3539 13.854L8.35392 15.854C8.30747 15.9005 8.2523 15.9375 8.19155 15.9627C8.13081 15.9879 8.06568 16.0009 7.99992 16.0009C7.93415 16.0009 7.86903 15.9879 7.80828 15.9627C7.74754 15.9375 7.69236 15.9005 7.64592 15.854L5.64592 13.854C5.59943 13.8075 5.56255 13.7523 5.53739 13.6916C5.51223 13.6308 5.49929 13.5657 5.49929 13.5C5.49929 13.4342 5.51223 13.3691 5.53739 13.3084C5.56255 13.2477 5.59943 13.1925 5.64592 13.146C5.7398 13.0521 5.86714 12.9993 5.99992 12.9993C6.06566 12.9993 6.13076 13.0123 6.1915 13.0375C6.25224 13.0626 6.30743 13.0995 6.35392 13.146L7.49992 14.293V10.5C7.49992 10.3674 7.5526 10.2402 7.64636 10.1464C7.74013 10.0527 7.86731 9.99998 7.99992 9.99998ZM0.145917 8.35398C0.099354 8.30753 0.0624111 8.25236 0.0372047 8.19161C0.0119982 8.13087 -0.000976563 8.06575 -0.000976562 7.99998C-0.000976563 7.93421 0.0119982 7.86909 0.0372047 7.80834C0.0624111 7.7476 0.099354 7.69242 0.145917 7.64598L2.14592 5.64598C2.2398 5.55209 2.36714 5.49935 2.49992 5.49935C2.63269 5.49935 2.76003 5.55209 2.85392 5.64598C2.9478 5.73986 3.00055 5.8672 3.00055 5.99998C3.00055 6.13275 2.9478 6.26009 2.85392 6.35398L1.70692 7.49998H5.49992C5.63253 7.49998 5.7597 7.55266 5.85347 7.64642C5.94724 7.74019 5.99992 7.86737 5.99992 7.99998C5.99992 8.13259 5.94724 8.25976 5.85347 8.35353C5.7597 8.4473 5.63253 8.49998 5.49992 8.49998H1.70692L2.85392 9.64598C2.9478 9.73986 3.00055 9.8672 3.00055 9.99998C3.00055 10.1328 2.9478 10.2601 2.85392 10.354C2.76003 10.4479 2.63269 10.5006 2.49992 10.5006C2.36714 10.5006 2.2398 10.4479 2.14592 10.354L0.145917 8.35398ZM9.99992 7.99998C9.99992 7.86737 10.0526 7.74019 10.1464 7.64642C10.2401 7.55266 10.3673 7.49998 10.4999 7.49998H14.2929L13.1459 6.35398C13.0994 6.30749 13.0626 6.2523 13.0374 6.19156C13.0122 6.13082 12.9993 6.06572 12.9993 5.99998C12.9993 5.93423 13.0122 5.86913 13.0374 5.80839C13.0626 5.74765 13.0994 5.69247 13.1459 5.64598C13.2398 5.55209 13.3671 5.49935 13.4999 5.49935C13.5657 5.49935 13.6308 5.5123 13.6915 5.53745C13.7522 5.56261 13.8074 5.59949 13.8539 5.64598L15.8539 7.64598C15.9005 7.69242 15.9374 7.7476 15.9626 7.80834C15.9878 7.86909 16.0008 7.93421 16.0008 7.99998C16.0008 8.06575 15.9878 8.13087 15.9626 8.19161C15.9374 8.25236 15.9005 8.30753 15.8539 8.35398L13.8539 10.354C13.8074 10.4005 13.7522 10.4373 13.6915 10.4625C13.6308 10.4877 13.5657 10.5006 13.4999 10.5006C13.4342 10.5006 13.3691 10.4877 13.3083 10.4625C13.2476 10.4373 13.1924 10.4005 13.1459 10.354C13.0994 10.3075 13.0626 10.2523 13.0374 10.1916C13.0122 10.1308 12.9993 10.0657 12.9993 9.99998C12.9993 9.93423 13.0122 9.86913 13.0374 9.80839C13.0626 9.74765 13.0994 9.69247 13.1459 9.64598L14.2929 8.49998H10.4999C10.3673 8.49998 10.2401 8.4473 10.1464 8.35353C10.0526 8.25976 9.99992 8.13259 9.99992 7.99998Z"/> </g> <defs> <clipPath id="clip0_34_2628"> <rect width="16" height="16"/> </clipPath> </defs> </svg>