<svg width="16" height="16" viewBox="0 0 16 16" xmlns="http://www.w3.org/2000/svg"> <path fill-rule="evenodd" clip-rule="evenodd" d="M14.9999 8.00002C14.9999 7.86741 14.9472 7.74024 14.8535 7.64647C14.7597 7.5527 14.6325 7.50002 14.4999 7.50002H2.70692L5.85392 4.35402C5.9004 4.30753 5.93728 4.25234 5.96244 4.1916C5.9876 4.13087 6.00055 4.06577 6.00055 4.00002C6.00055 3.93428 5.9876 3.86918 5.96244 3.80844C5.93728 3.7477 5.9004 3.69251 5.85392 3.64602C5.80743 3.59953 5.75224 3.56266 5.6915 3.5375C5.63076 3.51234 5.56566 3.49939 5.49992 3.49939C5.43417 3.49939 5.36907 3.51234 5.30833 3.5375C5.24759 3.56266 5.1924 3.59953 5.14592 3.64602L1.14592 7.64602C1.09935 7.69247 1.06241 7.74764 1.0372 7.80839C1.012 7.86913 0.999023 7.93425 0.999023 8.00002C0.999023 8.06579 1.012 8.13091 1.0372 8.19165C1.06241 8.2524 1.09935 8.30758 1.14592 8.35402L5.14592 12.354C5.1924 12.4005 5.24759 12.4374 5.30833 12.4625C5.36907 12.4877 5.43417 12.5007 5.49992 12.5007C5.56566 12.5007 5.63076 12.4877 5.6915 12.4625C5.75224 12.4374 5.80743 12.4005 5.85392 12.354C5.9004 12.3075 5.93728 12.2523 5.96244 12.1916C5.9876 12.1309 6.00055 12.0658 6.00055 12C6.00055 11.9343 5.9876 11.8692 5.96244 11.8084C5.93728 11.7477 5.9004 11.6925 5.85392 11.646L2.70692 8.50002H14.4999C14.6325 8.50002 14.7597 8.44734 14.8535 8.35357C14.9472 8.25981 14.9999 8.13263 14.9999 8.00002Z"/> </svg>