<svg width="16" height="16" viewBox="0 0 16 16" xmlns="http://www.w3.org/2000/svg"> <g clip-path="url(#clip0_34_2533)"> <path fill-rule="evenodd" clip-rule="evenodd" d="M1.14592 4.85399C1.09935 4.80755 1.06241 4.75237 1.0372 4.69162C1.012 4.63088 0.999023 4.56576 0.999023 4.49999C0.999023 4.43422 1.012 4.3691 1.0372 4.30836C1.06241 4.24761 1.09935 4.19244 1.14592 4.14599L5.14592 0.145991C5.2398 0.0521041 5.36714 -0.000640869 5.49992 -0.000640869C5.63269 -0.000640869 5.76003 0.0521041 5.85392 0.145991C5.9478 0.239877 6.00055 0.367215 6.00055 0.499991C6.00055 0.632766 5.9478 0.760104 5.85392 0.853991L2.70692 3.99999H12.4999C13.163 3.99999 13.7988 4.26338 14.2677 4.73222C14.7365 5.20107 14.9999 5.83695 14.9999 6.49999V14.5C14.9999 14.6326 14.9472 14.7598 14.8535 14.8535C14.7597 14.9473 14.6325 15 14.4999 15C14.3673 15 14.2401 14.9473 14.1464 14.8535C14.0526 14.7598 13.9999 14.6326 13.9999 14.5V6.49999C13.9999 6.10217 13.8419 5.72063 13.5606 5.43933C13.2793 5.15803 12.8977 4.99999 12.4999 4.99999H2.70692L5.85392 8.14599C5.9004 8.19248 5.93728 8.24767 5.96244 8.30841C5.9876 8.36915 6.00055 8.43425 6.00055 8.49999C6.00055 8.56573 5.9876 8.63083 5.96244 8.69157C5.93728 8.75231 5.9004 8.8075 5.85392 8.85399C5.80743 8.90048 5.75224 8.93736 5.6915 8.96251C5.63076 8.98767 5.56566 9.00062 5.49992 9.00062C5.43417 9.00062 5.36907 8.98767 5.30833 8.96251C5.24759 8.93736 5.1924 8.90048 5.14592 8.85399L1.14592 4.85399Z"/> </g> <defs> <clipPath id="clip0_34_2533"> <rect width="16" height="16"/> </clipPath> </defs> </svg>