<svg width="16" height="16" viewBox="0 0 16 16" xmlns="http://www.w3.org/2000/svg"> <g clip-path="url(#clip0_34_2632)"> <path fill-rule="evenodd" clip-rule="evenodd" d="M2.85392 15.854C2.78399 15.9241 2.69482 15.9719 2.59771 15.9912C2.5006 16.0106 2.39993 16.0007 2.30845 15.9628C2.21698 15.9249 2.13883 15.8606 2.0839 15.7783C2.02897 15.6959 1.99974 15.599 1.99992 15.5V14H0.499918C0.400898 14.0002 0.304054 13.9709 0.221665 13.916C0.139276 13.8611 0.0750515 13.7829 0.0371339 13.6915C-0.000783589 13.6 -0.0106867 13.4993 0.00868009 13.4022C0.0280469 13.3051 0.0758114 13.2159 0.145918 13.146L1.64592 11.646C1.69244 11.5996 1.74765 11.5628 1.80839 11.5378C1.86913 11.5127 1.93421 11.4999 1.99992 11.5H3.79292L6.89592 8.396C6.98981 8.30211 7.11714 8.24937 7.24992 8.24937C7.38269 8.24937 7.51003 8.30211 7.60392 8.396C7.69781 8.48989 7.75055 8.61722 7.75055 8.75C7.75055 8.88278 7.69781 9.01011 7.60392 9.104L4.49992 12.207V14C4.50004 14.0657 4.4872 14.1308 4.46215 14.1915C4.4371 14.2523 4.40032 14.3075 4.35392 14.354L2.85392 15.854ZM15.9999 3.5C16.0001 3.59902 15.9709 3.69586 15.9159 3.77825C15.861 3.86064 15.7829 3.92487 15.6914 3.96278C15.5999 4.0007 15.4992 4.0106 15.4021 3.99124C15.305 3.97187 15.2158 3.92411 15.1459 3.854L13.9999 2.707L12.9939 3.713C13.2299 3.961 13.4339 4.244 13.5939 4.558C14.1559 5.654 14.1789 7.075 13.3809 8.65C12.5879 10.213 10.9859 11.938 8.27592 13.73L7.99992 13.912L7.72392 13.73C7.05951 13.2934 6.41738 12.8238 5.79992 12.323L8.30992 9.81C8.59131 9.52861 8.7494 9.14695 8.7494 8.749C8.7494 8.35105 8.59131 7.96939 8.30992 7.688C8.02852 7.40661 7.64687 7.24852 7.24892 7.24852C6.85097 7.24852 6.46931 7.40661 6.18792 7.688L3.65692 10.22C3.25561 9.7352 2.90729 9.20888 2.61792 8.65C1.81992 7.074 1.84292 5.653 2.40492 4.557C3.42592 2.565 6.17992 1.809 7.99992 3.233C9.24992 2.253 10.9439 2.305 12.2119 3.081L13.2919 2L12.1469 0.854C12.0769 0.784131 12.0291 0.695051 12.0097 0.598036C11.9903 0.501021 12.0001 0.400432 12.0379 0.308999C12.0757 0.217567 12.1398 0.139402 12.222 0.0843973C12.3043 0.0293926 12.401 2.10149e-05 12.4999 0L15.4999 0C15.6325 0 15.7597 0.0526784 15.8535 0.146447C15.9472 0.240215 15.9999 0.367392 15.9999 0.5V3.5Z"/> </g> <defs> <clipPath id="clip0_34_2632"> <rect width="16" height="16"/> </clipPath> </defs> </svg>