<svg width="16" height="16" viewBox="0 0 16 16" xmlns="http://www.w3.org/2000/svg"> <g clip-path="url(#clip0_34_2671)"> <path d="M7.99987 0C8.26509 0 8.51944 0.105357 8.70698 0.292893C8.89452 0.48043 8.99987 0.734784 8.99987 1V6.268L13.5619 3.634C13.6756 3.5673 13.8015 3.52377 13.9321 3.5059C14.0628 3.48804 14.1957 3.49619 14.3232 3.5299C14.4507 3.56361 14.5703 3.62221 14.6751 3.70231C14.7798 3.78242 14.8677 3.88246 14.9336 3.99667C14.9996 4.11088 15.0423 4.23701 15.0593 4.36779C15.0763 4.49857 15.0672 4.63142 15.0327 4.75869C14.9981 4.88597 14.9387 5.00515 14.8579 5.10937C14.7771 5.2136 14.6765 5.30082 14.5619 5.366L9.99987 8L14.5619 10.634C14.6765 10.6992 14.7771 10.7864 14.8579 10.8906C14.9387 10.9949 14.9981 11.114 15.0327 11.2413C15.0672 11.3686 15.0763 11.5014 15.0593 11.6322C15.0423 11.763 14.9996 11.8891 14.9336 12.0033C14.8677 12.1175 14.7798 12.2176 14.6751 12.2977C14.5703 12.3778 14.4507 12.4364 14.3232 12.4701C14.1957 12.5038 14.0628 12.512 13.9321 12.4941C13.8015 12.4762 13.6756 12.4327 13.5619 12.366L8.99987 9.732V15C8.99987 15.2652 8.89452 15.5196 8.70698 15.7071C8.51944 15.8946 8.26509 16 7.99987 16C7.73466 16 7.4803 15.8946 7.29277 15.7071C7.10523 15.5196 6.99987 15.2652 6.99987 15V9.732L2.43787 12.366C2.3241 12.4327 2.19826 12.4762 2.0676 12.4941C1.93693 12.512 1.80403 12.5038 1.67653 12.4701C1.54903 12.4364 1.42946 12.3778 1.32469 12.2977C1.21993 12.2176 1.13205 12.1175 1.06611 12.0033C1.00017 11.8891 0.957469 11.763 0.940471 11.6322C0.923472 11.5014 0.93251 11.3686 0.967063 11.2413C1.00162 11.114 1.061 10.9949 1.14181 10.8906C1.22261 10.7864 1.32323 10.6992 1.43787 10.634L5.99987 8L1.43787 5.366C1.21007 5.23245 1.04433 5.01421 0.976836 4.75892C0.90934 4.50362 0.945562 4.23199 1.0776 4.00331C1.20964 3.77462 1.42677 3.60744 1.68161 3.53825C1.93645 3.46906 2.20832 3.50348 2.43787 3.634L6.99987 6.268V1C6.99987 0.734784 7.10523 0.48043 7.29277 0.292893C7.4803 0.105357 7.73466 0 7.99987 0V0Z"/> </g> <defs> <clipPath id="clip0_34_2671"> <rect width="16" height="16"/> </clipPath> </defs> </svg>