<svg width="16" height="16" viewBox="0 0 16 16" xmlns="http://www.w3.org/2000/svg"> <path d="M13.106 7.222C13.106 4.255 10.857 2.19 7.62403 2.19C4.27403 2.19 1.97803 4.508 1.97803 7.892C1.97803 11.385 4.21303 13.6 7.74003 13.6C8.60203 13.6 9.42903 13.477 10.044 13.265V12.403C9.61403 12.602 8.69003 12.731 7.75403 12.731C4.82803 12.731 2.94103 10.851 2.94103 7.933C2.94103 5.089 4.86203 3.052 7.53503 3.052C10.27 3.052 12.143 4.74 12.143 7.208C12.143 8.89 11.589 9.977 10.727 9.977C10.235 9.977 9.95503 9.697 9.95503 9.217V5.206H8.92303V6.04H8.81303C8.54703 5.445 7.93203 5.076 7.21303 5.076C5.81303 5.076 4.83503 6.238 4.83503 7.899C4.83503 9.636 5.79203 10.805 7.21403 10.805C8.01403 10.805 8.62903 10.415 8.92303 9.718H9.03303C9.11403 10.388 9.73603 10.866 10.536 10.866C12.108 10.866 13.106 9.451 13.106 7.223V7.222ZM5.92903 7.926C5.92903 6.729 6.46903 6.019 7.38503 6.019C8.31503 6.019 8.90903 6.757 8.90903 7.926C8.90903 9.095 8.30803 9.84 7.37103 9.84C6.47603 9.84 5.92903 9.115 5.92903 7.926Z"/> </svg>