<svg width="16" height="16" viewBox="0 0 16 16" xmlns="http://www.w3.org/2000/svg"> <path d="M9.854 5.146C9.90056 5.19245 9.93751 5.24762 9.96271 5.30837C9.98792 5.36911 10.0009 5.43423 10.0009 5.5C10.0009 5.56577 9.98792 5.63089 9.96271 5.69163C9.93751 5.75238 9.90056 5.80755 9.854 5.854L7.707 8L9.854 10.146C9.94789 10.2399 10.0006 10.3672 10.0006 10.5C10.0006 10.6328 9.94789 10.7601 9.854 10.854C9.76011 10.9479 9.63278 11.0006 9.5 11.0006C9.36722 11.0006 9.23989 10.9479 9.146 10.854L7 8.707L4.854 10.854C4.76011 10.9479 4.63278 11.0006 4.5 11.0006C4.36722 11.0006 4.23989 10.9479 4.146 10.854C4.05211 10.7601 3.99937 10.6328 3.99937 10.5C3.99937 10.3672 4.05211 10.2399 4.146 10.146L6.293 8L4.146 5.854C4.09951 5.80751 4.06264 5.75232 4.03748 5.69158C4.01232 5.63084 3.99937 5.56574 3.99937 5.5C3.99937 5.43426 4.01232 5.36916 4.03748 5.30842C4.06264 5.24768 4.09951 5.19249 4.146 5.146C4.19249 5.09951 4.24768 5.06264 4.30842 5.03748C4.36916 5.01232 4.43426 4.99937 4.5 4.99937C4.56574 4.99937 4.63084 5.01232 4.69158 5.03748C4.75232 5.06264 4.80751 5.09951 4.854 5.146L7 7.293L9.146 5.146C9.19245 5.09944 9.24762 5.06249 9.30837 5.03729C9.36911 5.01208 9.43423 4.99911 9.5 4.99911C9.56577 4.99911 9.63089 5.01208 9.69163 5.03729C9.75238 5.06249 9.80755 5.09944 9.854 5.146Z"/> <path d="M2 1C1.46957 1 0.960859 1.21071 0.585786 1.58579C0.210714 1.96086 0 2.46957 0 3V13C0 13.5304 0.210714 14.0391 0.585786 14.4142C0.960859 14.7893 1.46957 15 2 15H9.08C9.36856 15.0001 9.65372 14.9378 9.91593 14.8173C10.1781 14.6968 10.4111 14.521 10.599 14.302L15.442 8.651C15.5975 8.46973 15.6829 8.23881 15.6829 8C15.6829 7.76119 15.5975 7.53027 15.442 7.349L10.6 1.7C10.4122 1.48047 10.1791 1.30422 9.91673 1.18338C9.65434 1.06254 9.36888 0.999981 9.08 1H2ZM9.08 2C9.22444 1.99999 9.36717 2.03127 9.49837 2.09169C9.62956 2.15211 9.74611 2.24023 9.84 2.35L14.682 8L9.838 13.65C9.74422 13.7596 9.62783 13.8477 9.49682 13.9081C9.36581 13.9685 9.22327 13.9999 9.079 14H2C1.73478 14 1.48043 13.8946 1.29289 13.7071C1.10536 13.5196 1 13.2652 1 13V3C1 2.73478 1.10536 2.48043 1.29289 2.29289C1.48043 2.10536 1.73478 2 2 2H9.08Z"/> </svg>