<svg width="16" height="16" viewBox="0 0 16 16" xmlns="http://www.w3.org/2000/svg"> <path d="M15.6829 3C15.6829 2.46957 15.4722 1.96086 15.0971 1.58579C14.7221 1.21071 14.2134 1 13.6829 1H6.60292C6.31436 0.999878 6.0292 1.0622 5.767 1.18268C5.5048 1.30317 5.27177 1.47896 5.08392 1.698L0.240922 7.35C0.0854597 7.53127 0 7.76219 0 8.001C0 8.23981 0.0854597 8.47073 0.240922 8.652L5.08392 14.302C5.27177 14.521 5.5048 14.6968 5.767 14.8173C6.0292 14.9378 6.31436 15.0001 6.60292 15H13.6829C14.2134 15 14.7221 14.7893 15.0971 14.4142C15.4722 14.0391 15.6829 13.5304 15.6829 13V3ZM5.82892 5.854C5.78243 5.80758 5.74554 5.75245 5.72036 5.69177C5.69518 5.6311 5.68219 5.56605 5.68214 5.50035C5.6821 5.43466 5.69499 5.36959 5.72009 5.30888C5.74519 5.24816 5.782 5.19299 5.82842 5.1465C5.87484 5.10001 5.92997 5.06312 5.99065 5.03794C6.05133 5.01275 6.11637 4.99977 6.18207 4.99972C6.24777 4.99968 6.31283 5.01257 6.37354 5.03767C6.43426 5.06277 6.48943 5.09958 6.53592 5.146L8.68292 7.293L10.8289 5.146C10.8754 5.09958 10.9306 5.06277 10.9913 5.03767C11.052 5.01257 11.1171 4.99968 11.1828 4.99972C11.2485 4.99977 11.3135 5.01275 11.3742 5.03794C11.4349 5.06312 11.49 5.10001 11.5364 5.1465C11.5828 5.19299 11.6197 5.24816 11.6448 5.30888C11.6699 5.36959 11.6827 5.43466 11.6827 5.50035C11.6827 5.56605 11.6697 5.6311 11.6445 5.69177C11.6193 5.75245 11.5824 5.80758 11.5359 5.854L9.38992 8L11.5359 10.146C11.6298 10.2398 11.6826 10.367 11.6827 10.4996C11.6828 10.6323 11.6302 10.7596 11.5364 10.8535C11.4427 10.9474 11.3155 11.0002 11.1828 11.0003C11.0501 11.0004 10.9228 10.9478 10.8289 10.854L8.68292 8.707L6.53592 10.854C6.48943 10.9004 6.43426 10.9372 6.37354 10.9623C6.31283 10.9874 6.24777 11.0003 6.18207 11.0003C6.11637 11.0002 6.05133 10.9872 5.99065 10.9621C5.92997 10.9369 5.87484 10.9 5.82842 10.8535C5.782 10.807 5.74519 10.7518 5.72009 10.6911C5.69499 10.6304 5.6821 10.5653 5.68214 10.4996C5.68224 10.367 5.73504 10.2398 5.82892 10.146L7.97592 8L5.82892 5.854Z"/> </svg>