<svg width="16" height="16" viewBox="0 0 16 16" xmlns="http://www.w3.org/2000/svg"> <path d="M5.82992 5.146C5.78336 5.19245 5.74642 5.24762 5.72121 5.30837C5.696 5.36911 5.68303 5.43423 5.68303 5.5C5.68303 5.56577 5.696 5.63089 5.72121 5.69163C5.74642 5.75238 5.78336 5.80755 5.82992 5.854L7.97492 8L5.82792 10.146C5.73404 10.2398 5.68124 10.367 5.68114 10.4996C5.6811 10.5653 5.69399 10.6304 5.71909 10.6911C5.74419 10.7518 5.781 10.807 5.82742 10.8535C5.87384 10.9 5.92897 10.9369 5.98965 10.9621C6.05033 10.9872 6.11537 11.0002 6.18107 11.0003C6.31375 11.0004 6.44104 10.9478 6.53492 10.854L8.68192 8.707L10.8279 10.854C10.9218 10.9478 11.0491 11.0004 11.1818 11.0003C11.3145 11.0002 11.4417 10.9474 11.5354 10.8535C11.6292 10.7596 11.6818 10.6323 11.6817 10.4996C11.6816 10.367 11.6288 10.2398 11.5349 10.146L9.38992 8L11.5359 5.854C11.6298 5.76025 11.6826 5.63304 11.6827 5.50035C11.6828 5.36767 11.6302 5.24039 11.5364 5.1465C11.4427 5.05261 11.3155 4.99982 11.1828 4.99972C11.0501 4.99963 10.9228 5.05225 10.8289 5.146L8.68292 7.293L6.53592 5.146C6.44216 5.05226 6.315 4.99961 6.18242 4.99961C6.04984 4.99961 5.92369 5.05226 5.82992 5.146Z"/> <path d="M13.6829 1C14.2134 1 14.7221 1.21071 15.0971 1.58579C15.4722 1.96086 15.6829 2.46957 15.6829 3V13C15.6829 13.5304 15.4722 14.0391 15.0971 14.4142C14.7221 14.7893 14.2134 15 13.6829 15H6.60292C6.31436 15.0001 6.0292 14.9378 5.767 14.8173C5.5048 14.6968 5.27177 14.521 5.08392 14.302L0.240922 8.65C0.0854597 8.46873 0 8.23781 0 7.999C0 7.76019 0.0854597 7.52927 0.240922 7.348L5.08392 1.7C5.27159 1.4806 5.50453 1.30443 5.76674 1.18359C6.02895 1.06276 6.31421 1.00013 6.60292 1H13.6829ZM6.60292 2C6.45848 1.99999 6.31575 2.03127 6.18456 2.09169C6.05336 2.15211 5.93681 2.24023 5.84292 2.35L0.999922 8L5.84392 13.65C5.9377 13.7596 6.05409 13.8477 6.1851 13.9081C6.31612 13.9685 6.45865 13.9999 6.60292 14H13.6829C13.9481 14 14.2025 13.8946 14.39 13.7071C14.5776 13.5196 14.6829 13.2652 14.6829 13V3C14.6829 2.73478 14.5776 2.48043 14.39 2.29289C14.2025 2.10536 13.9481 2 13.6829 2H6.60292Z"/> </svg>