<svg width="16" height="16" viewBox="0 0 16 16" xmlns="http://www.w3.org/2000/svg"> <path fill-rule="evenodd" clip-rule="evenodd" d="M6.146 8.146C6.19245 8.09944 6.24762 8.06249 6.30837 8.03729C6.36911 8.01208 6.43423 7.99911 6.5 7.99911C6.56577 7.99911 6.63089 8.01208 6.69163 8.03729C6.75238 8.06249 6.80755 8.09944 6.854 8.146L8 9.293L9.146 8.146C9.23989 8.05211 9.36722 7.99937 9.5 7.99937C9.63278 7.99937 9.76011 8.05211 9.854 8.146C9.94789 8.23989 10.0006 8.36722 10.0006 8.5C10.0006 8.63278 9.94789 8.76011 9.854 8.854L8.707 10L9.854 11.146C9.94789 11.2399 10.0006 11.3672 10.0006 11.5C10.0006 11.6328 9.94789 11.7601 9.854 11.854C9.76011 11.9479 9.63278 12.0006 9.5 12.0006C9.36722 12.0006 9.23989 11.9479 9.146 11.854L8 10.707L6.854 11.854C6.76011 11.9479 6.63278 12.0006 6.5 12.0006C6.36722 12.0006 6.23989 11.9479 6.146 11.854C6.05211 11.7601 5.99937 11.6328 5.99937 11.5C5.99937 11.3672 6.05211 11.2399 6.146 11.146L7.293 10L6.146 8.854C6.09944 8.80755 6.06249 8.75238 6.03729 8.69163C6.01208 8.63089 5.99911 8.56577 5.99911 8.5C5.99911 8.43423 6.01208 8.36911 6.03729 8.30837C6.06249 8.24762 6.09944 8.19245 6.146 8.146Z"/> <path d="M8 1C8.66304 1 9.29893 1.26339 9.76777 1.73223C10.2366 2.20107 10.5 2.83696 10.5 3.5V4H5.5V3.5C5.5 2.83696 5.76339 2.20107 6.23223 1.73223C6.70107 1.26339 7.33696 1 8 1ZM11.5 4V3.5C11.5 2.57174 11.1313 1.6815 10.4749 1.02513C9.8185 0.368749 8.92826 0 8 0C7.07174 0 6.1815 0.368749 5.52513 1.02513C4.86875 1.6815 4.5 2.57174 4.5 3.5V4H1V14C1 14.5304 1.21071 15.0391 1.58579 15.4142C1.96086 15.7893 2.46957 16 3 16H13C13.5304 16 14.0391 15.7893 14.4142 15.4142C14.7893 15.0391 15 14.5304 15 14V4H11.5ZM2 5H14V14C14 14.2652 13.8946 14.5196 13.7071 14.7071C13.5196 14.8946 13.2652 15 13 15H3C2.73478 15 2.48043 14.8946 2.29289 14.7071C2.10536 14.5196 2 14.2652 2 14V5Z"/> </svg>