<svg width="16" height="16" viewBox="0 0 16 16" xmlns="http://www.w3.org/2000/svg"> <path fill-rule="evenodd" clip-rule="evenodd" d="M10.854 8.146C10.9006 8.19245 10.9375 8.24762 10.9627 8.30837C10.9879 8.36911 11.0009 8.43423 11.0009 8.5C11.0009 8.56577 10.9879 8.63089 10.9627 8.69163C10.9375 8.75238 10.9006 8.80755 10.854 8.854L7.854 11.854C7.80755 11.9006 7.75238 11.9375 7.69163 11.9627C7.63089 11.9879 7.56577 12.0009 7.5 12.0009C7.43423 12.0009 7.36911 11.9879 7.30837 11.9627C7.24762 11.9375 7.19245 11.9006 7.146 11.854L5.646 10.354C5.59951 10.3075 5.56264 10.2523 5.53748 10.1916C5.51232 10.1308 5.49937 10.0657 5.49937 10C5.49937 9.93426 5.51232 9.86916 5.53748 9.80842C5.56264 9.74768 5.59951 9.69249 5.646 9.646C5.73989 9.55211 5.86722 9.49937 6 9.49937C6.06574 9.49937 6.13084 9.51232 6.19158 9.53748C6.25232 9.56264 6.30751 9.59951 6.354 9.646L7.5 10.793L10.146 8.146C10.1924 8.09944 10.2476 8.06249 10.3084 8.03729C10.3691 8.01208 10.4342 7.99911 10.5 7.99911C10.5658 7.99911 10.6309 8.01208 10.6916 8.03729C10.7524 8.06249 10.8076 8.09944 10.854 8.146Z"/> <path d="M8 1C8.66304 1 9.29893 1.26339 9.76777 1.73223C10.2366 2.20107 10.5 2.83696 10.5 3.5V4H5.5V3.5C5.5 2.83696 5.76339 2.20107 6.23223 1.73223C6.70107 1.26339 7.33696 1 8 1ZM11.5 4V3.5C11.5 2.57174 11.1313 1.6815 10.4749 1.02513C9.8185 0.368749 8.92826 0 8 0C7.07174 0 6.1815 0.368749 5.52513 1.02513C4.86875 1.6815 4.5 2.57174 4.5 3.5V4H1V14C1 14.5304 1.21071 15.0391 1.58579 15.4142C1.96086 15.7893 2.46957 16 3 16H13C13.5304 16 14.0391 15.7893 14.4142 15.4142C14.7893 15.0391 15 14.5304 15 14V4H11.5ZM2 5H14V14C14 14.2652 13.8946 14.5196 13.7071 14.7071C13.5196 14.8946 13.2652 15 13 15H3C2.73478 15 2.48043 14.8946 2.29289 14.7071C2.10536 14.5196 2 14.2652 2 14V5Z"/> </svg>