<svg width="16" height="16" viewBox="0 0 16 16" xmlns="http://www.w3.org/2000/svg"> <path fill-rule="evenodd" clip-rule="evenodd" d="M10.5 3.5C10.5 2.83696 10.2366 2.20107 9.76777 1.73223C9.29893 1.26339 8.66304 1 8 1C7.33696 1 6.70107 1.26339 6.23223 1.73223C5.76339 2.20107 5.5 2.83696 5.5 3.5V4H10.5V3.5ZM11.5 3.5V4H15V14C15 14.5304 14.7893 15.0391 14.4142 15.4142C14.0391 15.7893 13.5304 16 13 16H3C2.46957 16 1.96086 15.7893 1.58579 15.4142C1.21071 15.0391 1 14.5304 1 14V4H4.5V3.5C4.5 2.57174 4.86875 1.6815 5.52513 1.02513C6.1815 0.368749 7.07174 0 8 0C8.92826 0 9.8185 0.368749 10.4749 1.02513C11.1313 1.6815 11.5 2.57174 11.5 3.5ZM14 14V5H2V14C2 14.2652 2.10536 14.5196 2.29289 14.7071C2.48043 14.8946 2.73478 15 3 15H13C13.2652 15 13.5196 14.8946 13.7071 14.7071C13.8946 14.5196 14 14.2652 14 14ZM8 7.993C9.664 6.282 13.825 9.276 8 13.125C2.175 9.275 6.336 6.282 8 7.993Z"/> </svg>