<svg width="16" height="16" viewBox="0 0 16 16" fill="none" xmlns="http://www.w3.org/2000/svg">
<path fill-rule="evenodd" clip-rule="evenodd" d="M8.49022 10.92C19.4122 3.382 11.2802 -2.387 8.00022 0.986C4.71922 -2.387 -3.41278 3.382 7.51022 10.92L7.27622 11.388C7.26151 11.4174 7.25274 11.4494 7.25041 11.4822C7.24808 11.5151 7.25223 11.548 7.26263 11.5792C7.28363 11.6422 7.32881 11.6943 7.38822 11.724C7.44763 11.7537 7.5164 11.7586 7.57941 11.7376C7.64243 11.7166 7.69451 11.6714 7.72422 11.612L7.76422 11.532C7.77322 11.702 7.78822 11.847 7.81522 11.982C7.88322 12.326 8.02322 12.604 8.26322 13.084L8.27622 13.112C8.48822 13.534 8.45822 13.962 8.32622 14.358C8.19122 14.76 7.96022 15.109 7.79222 15.361C7.75535 15.4162 7.74191 15.4837 7.75485 15.5488C7.76779 15.6139 7.80605 15.6711 7.86122 15.708C7.91638 15.7449 7.98393 15.7583 8.04901 15.7454C8.11408 15.7324 8.17135 15.6942 8.20822 15.639L8.21222 15.632C8.37822 15.384 8.64322 14.986 8.80022 14.517C8.96022 14.038 9.01222 13.466 8.72422 12.888C8.46622 12.373 8.35922 12.156 8.30522 11.884C8.28698 11.7885 8.27463 11.692 8.26822 11.595L8.27622 11.612C8.30592 11.6714 8.35801 11.7166 8.42102 11.7376C8.48403 11.7586 8.55281 11.7537 8.61222 11.724C8.67163 11.6943 8.7168 11.6422 8.73781 11.5792C8.75881 11.5162 8.75392 11.4474 8.72422 11.388L8.48922 10.92H8.49022ZM6.72622 1.269C5.55922 0.659 3.92622 1.127 3.27222 2.404C3.03522 2.867 2.91222 3.484 3.07022 4.254C3.12522 4.524 3.53722 4.451 3.59722 4.183C3.88222 2.927 4.77422 1.721 6.58622 1.655C6.82022 1.647 6.93422 1.377 6.72622 1.269Z" fill="black"/>
</svg>
