<svg width="16" height="16" viewBox="0 0 16 16" fill="none" xmlns="http://www.w3.org/2000/svg">
<path fill-rule="evenodd" clip-rule="evenodd" d="M8 9.984C10.403 9.506 12 7.48 12 5C12 3.93913 11.5786 2.92172 10.8284 2.17157C10.0783 1.42143 9.06087 1 8 1C6.93913 1 5.92172 1.42143 5.17157 2.17157C4.42143 2.92172 4 3.93913 4 5C4 7.48 5.597 9.506 8 9.984ZM13 5C13 7.837 11.211 10.227 8.48 10.901L8.724 11.388C8.7537 11.4474 8.75859 11.5162 8.73759 11.5792C8.71658 11.6422 8.67141 11.6943 8.612 11.724C8.55259 11.7537 8.48382 11.7586 8.4208 11.7376C8.35779 11.7166 8.3057 11.6714 8.276 11.612L8.268 11.595C8.276 11.705 8.288 11.797 8.305 11.885C8.359 12.155 8.466 12.373 8.724 12.888C9.012 13.466 8.959 14.038 8.8 14.517C8.643 14.986 8.378 15.384 8.212 15.632L8.208 15.639C8.18975 15.6663 8.16629 15.6898 8.13897 15.708C8.11166 15.7263 8.08101 15.739 8.04879 15.7454C8.01657 15.7518 7.9834 15.7518 7.95118 15.7454C7.91896 15.7389 7.88832 15.7263 7.861 15.708C7.83368 15.6897 7.81023 15.6663 7.79198 15.639C7.77373 15.6117 7.76104 15.581 7.75463 15.5488C7.74823 15.5166 7.74823 15.4834 7.75464 15.4512C7.76105 15.419 7.77375 15.3883 7.792 15.361C7.96 15.109 8.192 14.761 8.325 14.358C8.458 13.962 8.488 13.534 8.276 13.112L8.263 13.084C8.023 12.604 7.883 12.326 7.815 11.982C7.78698 11.8334 7.7696 11.683 7.763 11.532L7.723 11.612C7.70845 11.6416 7.68818 11.668 7.66336 11.6898C7.63854 11.7115 7.60966 11.7281 7.5784 11.7387C7.54713 11.7492 7.51408 11.7534 7.48117 11.7511C7.44826 11.7488 7.41613 11.74 7.38663 11.7252C7.35713 11.7105 7.33085 11.69 7.30931 11.665C7.28776 11.64 7.27137 11.611 7.26109 11.5797C7.2508 11.5483 7.24683 11.5152 7.24939 11.4823C7.25195 11.4494 7.26099 11.4174 7.276 11.388L7.52 10.901C4.789 10.227 3 7.837 3 5C3 3.67392 3.52678 2.40215 4.46447 1.46447C5.40215 0.526784 6.67392 0 8 0C9.32608 0 10.5979 0.526784 11.5355 1.46447C12.4732 2.40215 13 3.67392 13 5ZM6.062 4.505C6.15113 4.15723 6.33209 3.83981 6.58595 3.58595C6.83981 3.33209 7.15723 3.15113 7.505 3.062C7.773 2.994 8 2.776 8 2.5C8 2.224 7.774 1.996 7.502 2.041C6.88721 2.14505 6.32004 2.43789 5.87923 2.87889C5.43841 3.31988 5.1458 3.88716 5.042 4.502C4.996 4.774 5.224 5 5.5 5C5.776 5 5.994 4.773 6.062 4.505Z" fill="black"/>
</svg>
