<svg width="16" height="16" viewBox="0 0 16 16" fill="none" xmlns="http://www.w3.org/2000/svg">
<path fill-rule="evenodd" clip-rule="evenodd" d="M8.48 10.901C11.211 10.227 13 7.837 13 5C13 3.67392 12.4732 2.40215 11.5355 1.46447C10.5979 0.526784 9.32608 0 8 0C6.67392 0 5.40215 0.526784 4.46447 1.46447C3.52678 2.40215 3 3.67392 3 5C3 7.837 4.789 10.227 7.52 10.901L7.276 11.388C7.26129 11.4174 7.25252 11.4494 7.25019 11.4822C7.24786 11.5151 7.25201 11.548 7.26241 11.5792C7.28342 11.6422 7.32859 11.6943 7.388 11.724C7.44741 11.7537 7.51618 11.7586 7.5792 11.7376C7.64221 11.7166 7.6943 11.6714 7.724 11.612L7.764 11.532C7.773 11.702 7.788 11.847 7.815 11.982C7.883 12.326 8.023 12.604 8.263 13.084L8.276 13.112C8.488 13.534 8.458 13.962 8.326 14.358C8.191 14.76 7.96 15.109 7.792 15.361C7.75513 15.4162 7.74169 15.4837 7.75463 15.5488C7.76757 15.6139 7.80584 15.6711 7.861 15.708C7.91616 15.7449 7.98372 15.7583 8.04879 15.7454C8.11386 15.7324 8.17113 15.6942 8.208 15.639L8.212 15.632C8.378 15.384 8.643 14.986 8.8 14.517C8.96 14.038 9.012 13.466 8.724 12.888C8.466 12.373 8.359 12.156 8.305 11.884C8.28677 11.7885 8.27441 11.692 8.268 11.595L8.276 11.612C8.3057 11.6714 8.35779 11.7166 8.4208 11.7376C8.48382 11.7586 8.55259 11.7537 8.612 11.724C8.67141 11.6943 8.71658 11.6422 8.73759 11.5792C8.75859 11.5162 8.7537 11.4474 8.724 11.388L8.48 10.901ZM4.352 3.356C4.63411 2.73122 5.0719 2.18934 5.62345 1.78224C6.175 1.37514 6.82183 1.11647 7.502 1.031C7.774 0.997 8 1.224 8 1.5C8 1.776 7.774 1.996 7.502 2.042C6.552 2.204 5.753 2.822 5.329 3.659C5.2822 3.75827 5.20886 3.84266 5.11709 3.90284C5.02532 3.96302 4.91869 3.99664 4.809 4C4.463 4 4.21 3.671 4.352 3.356Z" fill="black"/>
</svg>
