<svg width="16" height="16" viewBox="0 0 16 16" xmlns="http://www.w3.org/2000/svg"> <g clip-path="url(#clip0_34_2769)"> <path d="M5.67238 7.80811C5.6461 7.74714 5.60793 7.69203 5.56011 7.64597C5.46623 7.55221 5.33994 7.4996 5.20726 7.49969C5.07458 7.49978 4.94737 7.55258 4.85361 7.64647C4.75986 7.74036 4.70724 7.86764 4.70734 8.00032C4.70738 8.06602 4.72037 8.13106 4.74555 8.19174C4.77074 8.25242 4.80763 8.30755 4.85411 8.35397C4.90031 8.40165 4.95553 8.43966 5.01657 8.46578C5.07761 8.49189 5.14324 8.50559 5.20962 8.50607C5.27601 8.50655 5.34183 8.49381 5.40324 8.46858C5.46465 8.44335 5.52042 8.40615 5.5673 8.35914C5.61418 8.31213 5.65122 8.25625 5.67628 8.19477C5.70133 8.13329 5.71389 8.06743 5.71322 8.00105C5.71255 7.93466 5.69867 7.86907 5.67238 7.80811Z"/> <path d="M7.08717 6.39427C7.06096 6.33326 7.02287 6.27809 6.97511 6.23197C6.88081 6.14089 6.75451 6.09049 6.62341 6.09163C6.49232 6.09277 6.36691 6.14535 6.27421 6.23806C6.1815 6.33076 6.12892 6.45617 6.12778 6.58727C6.12664 6.71837 6.17704 6.84467 6.26811 6.93897C6.31424 6.98672 6.36941 7.02481 6.43041 7.05102C6.49141 7.07722 6.55702 7.09102 6.62341 7.09159C6.6898 7.09217 6.75564 7.07952 6.81709 7.05438C6.87854 7.02924 6.93437 6.99211 6.98131 6.94517C7.02826 6.89822 7.06538 6.84239 7.09053 6.78094C7.11567 6.7195 7.12832 6.65366 7.12774 6.58727C7.12716 6.52088 7.11337 6.45527 7.08717 6.39427Z"/> <path d="M8.49845 4.98035C8.47335 4.91963 8.43654 4.86446 8.39011 4.81797H8.38911C8.29481 4.72689 8.16851 4.67649 8.03741 4.67763C7.90632 4.67877 7.78091 4.73135 7.68821 4.82406C7.5955 4.91676 7.54292 5.04217 7.54178 5.17327C7.54064 5.30437 7.59104 5.43067 7.68211 5.52497C7.72854 5.57146 7.78366 5.60835 7.84434 5.63353C7.90502 5.65871 7.97006 5.6717 8.03576 5.67175C8.10146 5.67179 8.16652 5.6589 8.22724 5.6338C8.28795 5.6087 8.34313 5.57189 8.38961 5.52547C8.4361 5.47905 8.47299 5.42392 8.49818 5.36324C8.52336 5.30256 8.53635 5.23752 8.53639 5.17182C8.53644 5.10612 8.52355 5.04106 8.49845 4.98035Z"/> <path d="M8.49845 10.6373C8.47335 10.5766 8.43654 10.5215 8.39011 10.475H8.38911C8.29481 10.3839 8.16851 10.3335 8.03741 10.3346C7.90632 10.3358 7.78091 10.3884 7.68821 10.4811C7.5955 10.5738 7.54292 10.6992 7.54178 10.8303C7.54064 10.9614 7.59104 11.0877 7.68211 11.182C7.72854 11.2285 7.78366 11.2653 7.84434 11.2905C7.90502 11.3157 7.97006 11.3287 8.03576 11.3287C8.10146 11.3288 8.16652 11.3159 8.22724 11.2908C8.28795 11.2657 8.34313 11.2289 8.38961 11.1825C8.4361 11.136 8.47299 11.0809 8.49818 11.0202C8.52336 10.9596 8.53635 10.8945 8.53639 10.8288C8.53644 10.7631 8.52355 10.6981 8.49845 10.6373Z"/> <path d="M9.44997 9.91425C9.58265 9.91415 9.70986 9.86135 9.80361 9.76747C9.89737 9.67358 9.94999 9.5463 9.94989 9.41362C9.9498 9.28093 9.897 9.15372 9.80311 9.05997C9.70881 8.96889 9.58251 8.91949 9.45141 8.92063C9.32032 8.92177 9.19491 8.97436 9.10221 9.06706C9.0095 9.15976 8.95692 9.28517 8.95578 9.41627C8.95464 9.54737 9.00504 9.67367 9.09611 9.76797C9.19 9.86172 9.31729 9.91434 9.44997 9.91425Z"/> <path d="M11.3294 7.80811C11.3031 7.74714 11.2649 7.69203 11.2171 7.64597H11.2181C11.1242 7.55221 10.9969 7.4996 10.8643 7.49969C10.7316 7.49978 10.6044 7.55258 10.5106 7.64647C10.4169 7.74036 10.3642 7.86764 10.3643 8.00032C10.3644 8.06602 10.3774 8.13106 10.4026 8.19174C10.4277 8.25242 10.4646 8.30755 10.5111 8.35397C10.5573 8.40165 10.6125 8.43966 10.6736 8.46578C10.7346 8.49189 10.8002 8.50559 10.8666 8.50607C10.933 8.50655 10.9988 8.49381 11.0602 8.46858C11.1217 8.44335 11.1774 8.40615 11.2243 8.35914C11.2712 8.31213 11.3082 8.25625 11.3333 8.19477C11.3583 8.13329 11.3709 8.06743 11.3702 8.00105C11.3696 7.93466 11.3557 7.86907 11.3294 7.80811Z"/> <path d="M7.08368 9.22219C7.05849 9.16152 7.0216 9.10639 6.97511 9.05997C6.88081 8.96889 6.75451 8.91949 6.62341 8.92063C6.49232 8.92177 6.36691 8.97436 6.27421 9.06706C6.1815 9.15976 6.12892 9.28517 6.12778 9.41627C6.12664 9.54737 6.17704 9.67367 6.26811 9.76797C6.3146 9.81439 6.36978 9.8512 6.43049 9.8763C6.49121 9.9014 6.55627 9.91429 6.62197 9.91425C6.68767 9.9142 6.75271 9.90121 6.81339 9.87603C6.87407 9.85085 6.92919 9.81396 6.97561 9.76747C7.02204 9.72098 7.05885 9.6658 7.08395 9.60509C7.10905 9.54438 7.12194 9.47931 7.12189 9.41362C7.12185 9.34792 7.10886 9.28287 7.08368 9.22219Z"/> <path d="M8.49864 7.80838C8.47348 7.74765 8.4366 7.69246 8.39011 7.64597H8.38911C8.29523 7.55221 8.16794 7.4996 8.03526 7.49969C7.90258 7.49978 7.77537 7.55258 7.68161 7.64647C7.58786 7.74036 7.53524 7.86764 7.53534 8.00032C7.53538 8.06602 7.54837 8.13106 7.57355 8.19174C7.59874 8.25242 7.63563 8.30755 7.68211 8.35397C7.7286 8.40046 7.78379 8.43733 7.84453 8.46249C7.90527 8.48765 7.97037 8.5006 8.03611 8.5006C8.10186 8.5006 8.16696 8.48765 8.2277 8.46249C8.28844 8.43733 8.34363 8.40046 8.39011 8.35397C8.4366 8.30748 8.47348 8.25229 8.49864 8.19155C8.5238 8.13081 8.53675 8.06571 8.53675 7.99997C8.53675 7.93422 8.5238 7.86912 8.49864 7.80838Z"/> <path d="M9.91516 6.39427C9.88896 6.33326 9.85087 6.27809 9.80311 6.23197C9.70881 6.14089 9.58251 6.09049 9.45141 6.09163C9.32032 6.09277 9.19491 6.14535 9.10221 6.23806C9.0095 6.33076 8.95692 6.45617 8.95578 6.58727C8.95464 6.71837 9.00504 6.84467 9.09611 6.93897C9.14224 6.98672 9.19741 7.02481 9.25841 7.05102C9.31941 7.07722 9.38502 7.09102 9.45141 7.09159C9.5178 7.09217 9.58364 7.07952 9.64509 7.05438C9.70654 7.02924 9.76237 6.99211 9.80931 6.94517C9.85626 6.89822 9.89338 6.84239 9.91853 6.78094C9.94367 6.7195 9.95632 6.65366 9.95574 6.58727C9.95516 6.52088 9.94137 6.45527 9.91516 6.39427Z"/> <path fill-rule="evenodd" clip-rule="evenodd" d="M9.17115 1.17203L2.67915 7.67603L2.67815 7.67803L1.17315 9.17003L1.17215 9.17203C0.43538 9.92452 0.0250906 10.9372 0.0303229 11.9903C0.0355552 13.0434 0.455887 14.052 1.2001 14.7971C1.94431 15.5422 2.95235 15.9638 4.00545 15.9704C5.05855 15.9769 6.07175 15.5679 6.82515 14.832L8.34815 13.36L13.3541 8.35403L14.8311 6.82503C15.567 6.07163 15.976 5.05843 15.9695 4.00533C15.963 2.95222 15.5414 1.94418 14.7962 1.19997C14.0511 0.455765 13.0425 0.0354331 11.9894 0.0302008C10.9363 0.0249685 9.92364 0.435258 9.17115 1.17203ZM12.0001 1.00067C12.7956 1.00067 13.5586 1.31661 14.1211 1.87903C14.6836 2.44161 14.9995 3.20453 14.9995 4.00003C14.9995 4.79552 14.6836 5.55844 14.1211 6.12103L12.9941 7.28603L8.73315 3.02603L9.87915 1.87903C10.4417 1.31661 11.2047 1.00067 12.0001 1.00067ZM8.02715 3.73403L12.2931 8.00003L8.00015 12.293L3.73815 8.03103L8.02715 3.73403ZM3.03015 8.73703L7.28615 12.993L6.12615 14.114L6.12015 14.12C5.55205 14.6533 4.79878 14.9446 4.01972 14.9323C3.24067 14.92 2.49696 14.6051 1.94595 14.0542C1.39494 13.5033 1.07987 12.7597 1.0674 11.9806C1.05494 11.2016 1.34605 10.4483 1.87915 9.88003L3.03015 8.73703Z"/> </g> <defs> <clipPath id="clip0_34_2769"> <rect width="16" height="16"/> </clipPath> </defs> </svg>