<svg width="16" height="16" viewBox="0 0 16 16" xmlns="http://www.w3.org/2000/svg"> <g clip-path="url(#clip0_34_2771)"> <path d="M2.68017 7.67603L9.17017 1.17203C9.92266 0.435258 10.9353 0.0249685 11.9885 0.0302008C13.0416 0.0354331 14.0501 0.455765 14.7953 1.19997C15.5404 1.94418 15.962 2.95222 15.9685 4.00533C15.975 5.05843 15.566 6.07163 14.8302 6.82503L13.3532 8.35403L8.34717 13.36L6.82417 14.832C6.07077 15.5679 5.05758 15.9769 4.00447 15.9704C2.95137 15.9638 1.94333 15.5422 1.19912 14.7971C0.45491 14.052 0.0345786 13.0434 0.0293463 11.9903C0.024114 10.9372 0.434403 9.92452 1.17117 9.17203L1.17217 9.17003L2.67717 7.67803L2.67817 7.67603H2.68017ZM8.39017 4.81803C8.34375 4.77154 8.28863 4.73465 8.22795 4.70947C8.16727 4.68428 8.10222 4.67129 8.03653 4.67125C7.97083 4.6712 7.90577 4.6841 7.84505 4.70919C7.78434 4.73429 7.72916 4.7711 7.68267 4.81753C7.63618 4.86395 7.5993 4.91907 7.57411 4.97975C7.54893 5.04043 7.53594 5.10548 7.53589 5.17117C7.53585 5.23687 7.54874 5.30193 7.57384 5.36265C7.59894 5.42336 7.63575 5.47854 7.68217 5.52503C7.77647 5.61611 7.90278 5.6665 8.03387 5.66536C8.16497 5.66422 8.29038 5.61164 8.38308 5.51894C8.47579 5.42623 8.52837 5.30083 8.52951 5.16973C8.53065 5.03863 8.48025 4.91233 8.38917 4.81803H8.39017ZM6.97417 6.93903C7.02193 6.8929 7.06002 6.83773 7.08622 6.77673C7.11243 6.71573 7.12622 6.65012 7.1268 6.58373C7.12737 6.51734 7.11472 6.4515 7.08958 6.39005C7.06444 6.3286 7.02732 6.27278 6.98037 6.22583C6.93342 6.17888 6.8776 6.14176 6.81615 6.11662C6.7547 6.09148 6.68886 6.07882 6.62247 6.0794C6.55608 6.07998 6.49047 6.09377 6.42947 6.11998C6.36847 6.14618 6.3133 6.18427 6.26717 6.23203C6.17609 6.32633 6.1257 6.45263 6.12684 6.58373C6.12797 6.71483 6.18056 6.84023 6.27326 6.93294C6.36597 7.02564 6.49137 7.07822 6.62247 7.07936C6.75357 7.0805 6.87987 7.03011 6.97417 6.93903ZM5.56017 8.35403C5.65406 8.26027 5.70686 8.13306 5.70695 8.00038C5.70704 7.8677 5.65443 7.74041 5.56067 7.64653C5.46692 7.55264 5.33971 7.49984 5.20703 7.49975C5.07434 7.49965 4.94706 7.55227 4.85317 7.64603C4.80668 7.69245 4.7698 7.74757 4.74461 7.80825C4.71943 7.86893 4.70644 7.93398 4.70639 7.99967C4.7063 8.13236 4.75892 8.25964 4.85267 8.35353C4.94643 8.44741 5.07364 8.50021 5.20632 8.50031C5.339 8.5004 5.46629 8.44778 5.56017 8.35403ZM8.38817 11.182C8.43593 11.1359 8.47402 11.0807 8.50022 11.0197C8.52643 10.9587 8.54022 10.8931 8.5408 10.8267C8.54138 10.7603 8.52872 10.6945 8.50358 10.633C8.47844 10.5716 8.44132 10.5158 8.39437 10.4688C8.34742 10.4219 8.2916 10.3848 8.23015 10.3596C8.1687 10.3345 8.10286 10.3218 8.03647 10.3224C7.97008 10.323 7.90447 10.3368 7.84347 10.363C7.78247 10.3892 7.7273 10.4273 7.68117 10.475C7.59009 10.5693 7.5397 10.6956 7.54084 10.8267C7.54197 10.9578 7.59456 11.0832 7.68726 11.1759C7.77997 11.2686 7.90537 11.3212 8.03647 11.3224C8.16757 11.3235 8.29387 11.2731 8.38817 11.182ZM9.80217 9.06103C9.75605 9.01327 9.70088 8.97518 9.63987 8.94898C9.57887 8.92277 9.51326 8.90898 9.44687 8.9084C9.38048 8.90782 9.31464 8.92048 9.2532 8.94562C9.19175 8.97076 9.13592 9.00788 9.08897 9.05483C9.04203 9.10178 9.0049 9.1576 8.97976 9.21905C8.95462 9.2805 8.94197 9.34634 8.94255 9.41273C8.94312 9.47912 8.95692 9.54473 8.98312 9.60573C9.00933 9.66673 9.04742 9.7219 9.09517 9.76803C9.18947 9.85911 9.31577 9.9095 9.44687 9.90836C9.57797 9.90722 9.70338 9.85464 9.79608 9.76194C9.88879 9.66923 9.94137 9.54383 9.94251 9.41273C9.94365 9.28163 9.89325 9.15533 9.80217 9.06103ZM11.2162 8.35403C11.264 8.30797 11.3022 8.25285 11.3284 8.19189C11.3547 8.13092 11.3686 8.06534 11.3693 7.99895C11.3699 7.93256 11.3574 7.86671 11.3323 7.80523C11.3073 7.74375 11.2702 7.68787 11.2234 7.64086C11.1765 7.59385 11.1207 7.55664 11.0593 7.53142C10.9979 7.50619 10.9321 7.49344 10.8657 7.49392C10.7993 7.49441 10.7337 7.5081 10.6726 7.53422C10.6116 7.56033 10.5564 7.59834 10.5102 7.64603C10.4163 7.73978 10.3635 7.86699 10.3634 7.99967C10.3633 8.13236 10.4159 8.25964 10.5097 8.35353C10.6034 8.44741 10.7306 8.50021 10.8633 8.50031C10.996 8.5004 11.1233 8.44778 11.2172 8.35403H11.2162ZM6.97417 9.06103C6.92805 9.01327 6.87288 8.97518 6.81187 8.94898C6.75087 8.92277 6.68526 8.90898 6.61887 8.9084C6.55248 8.90782 6.48664 8.92048 6.4252 8.94562C6.36375 8.97076 6.30792 9.00788 6.26097 9.05483C6.21403 9.10178 6.1769 9.1576 6.15176 9.21905C6.12662 9.2805 6.11397 9.34634 6.11455 9.41273C6.11512 9.47912 6.12892 9.54473 6.15512 9.60573C6.18133 9.66673 6.21942 9.7219 6.26717 9.76803C6.36147 9.85911 6.48777 9.9095 6.61887 9.90836C6.74997 9.90722 6.87538 9.85464 6.96808 9.76194C7.06079 9.66923 7.11337 9.54383 7.11451 9.41273C7.11565 9.28163 7.06525 9.15533 6.97417 9.06103ZM8.38817 8.35403C8.43466 8.3076 8.47155 8.25248 8.49673 8.1918C8.52192 8.13112 8.5349 8.06608 8.53495 8.00038C8.535 7.93468 8.5221 7.86962 8.497 7.80891C8.47191 7.74819 8.43509 7.69301 8.38867 7.64653C8.34225 7.60004 8.28713 7.56315 8.22645 7.53797C8.16577 7.51278 8.10072 7.49979 8.03503 7.49975C7.96933 7.4997 7.90427 7.5126 7.84355 7.53769C7.78284 7.56279 7.72766 7.5996 7.68117 7.64603C7.58729 7.73978 7.53449 7.86699 7.53439 7.99967C7.5343 8.13236 7.58692 8.25964 7.68067 8.35353C7.77443 8.44741 7.90164 8.50021 8.03432 8.50031C8.167 8.5004 8.29429 8.44778 8.38817 8.35403ZM9.80217 6.23203C9.75605 6.18427 9.70088 6.14618 9.63987 6.11998C9.57887 6.09377 9.51326 6.07998 9.44687 6.0794C9.38048 6.07882 9.31464 6.09148 9.2532 6.11662C9.19175 6.14176 9.13592 6.17888 9.08897 6.22583C9.04203 6.27278 9.0049 6.3286 8.97976 6.39005C8.95462 6.4515 8.94197 6.51734 8.94255 6.58373C8.94312 6.65012 8.95692 6.71573 8.98312 6.77673C9.00933 6.83773 9.04742 6.8929 9.09517 6.93903C9.18947 7.03011 9.31577 7.0805 9.44687 7.07936C9.57797 7.07822 9.70338 7.02564 9.79608 6.93294C9.88879 6.84023 9.94137 6.71483 9.94251 6.58373C9.94365 6.45263 9.89325 6.32633 9.80217 6.23203ZM8.64617 3.35403L12.6462 7.35403L13.3542 6.64603L9.35417 2.64603L8.64617 3.35403ZM7.35417 12.646L3.35417 8.64603L2.64617 9.35403L6.64617 13.354L7.35417 12.646Z"/> </g> <defs> <clipPath id="clip0_34_2771"> <rect width="16" height="16"/> </clipPath> </defs> </svg>