<svg width="16" height="16" viewBox="0 0 16 16" xmlns="http://www.w3.org/2000/svg"> <g clip-path="url(#clip0_34_2797)"> <path d="M5.071 1.24303C5.13916 1.12925 5.24973 1.04721 5.37838 1.01496C5.50703 0.982699 5.64322 1.00287 5.757 1.07103C5.87078 1.13919 5.95282 1.24976 5.98508 1.37841C6.01733 1.50706 5.99716 1.64325 5.929 1.75703L3.383 6.00003H12.617L10.07 1.75703C10.0018 1.64325 9.98167 1.50706 10.0139 1.37841C10.0462 1.24976 10.1282 1.13919 10.242 1.07103C10.3558 1.00287 10.492 0.982699 10.6206 1.01496C10.7493 1.04721 10.8598 1.12925 10.928 1.24303L13.783 6.00003H15.5C15.6326 6.00003 15.7598 6.05271 15.8536 6.14648C15.9473 6.24025 16 6.36742 16 6.50003V8.50003C16 8.63264 15.9473 8.75982 15.8536 8.85358C15.7598 8.94735 15.6326 9.00003 15.5 9.00003H15V14C15 14.5305 14.7893 15.0392 14.4142 15.4142C14.0391 15.7893 13.5304 16 13 16H3C2.46957 16 1.96086 15.7893 1.58579 15.4142C1.21071 15.0392 1 14.5305 1 14V9.00003H0.5C0.367392 9.00003 0.240215 8.94735 0.146447 8.85358C0.0526784 8.75982 0 8.63264 0 8.50003V6.50003C0 6.36742 0.0526784 6.24025 0.146447 6.14648C0.240215 6.05271 0.367392 6.00003 0.5 6.00003H2.217L5.07 1.24303H5.071ZM3.5 10.5C3.5 10.3674 3.44732 10.2402 3.35355 10.1465C3.25979 10.0527 3.13261 10 3 10C2.86739 10 2.74021 10.0527 2.64645 10.1465C2.55268 10.2402 2.5 10.3674 2.5 10.5V13.5C2.5 13.6326 2.55268 13.7598 2.64645 13.8536C2.74021 13.9474 2.86739 14 3 14C3.13261 14 3.25979 13.9474 3.35355 13.8536C3.44732 13.7598 3.5 13.6326 3.5 13.5V10.5ZM6 10.5C6 10.3674 5.94732 10.2402 5.85355 10.1465C5.75979 10.0527 5.63261 10 5.5 10C5.36739 10 5.24021 10.0527 5.14645 10.1465C5.05268 10.2402 5 10.3674 5 10.5V13.5C5 13.6326 5.05268 13.7598 5.14645 13.8536C5.24021 13.9474 5.36739 14 5.5 14C5.63261 14 5.75979 13.9474 5.85355 13.8536C5.94732 13.7598 6 13.6326 6 13.5V10.5ZM8.5 10.5C8.5 10.3674 8.44732 10.2402 8.35355 10.1465C8.25979 10.0527 8.13261 10 8 10C7.86739 10 7.74021 10.0527 7.64645 10.1465C7.55268 10.2402 7.5 10.3674 7.5 10.5V13.5C7.5 13.6326 7.55268 13.7598 7.64645 13.8536C7.74021 13.9474 7.86739 14 8 14C8.13261 14 8.25979 13.9474 8.35355 13.8536C8.44732 13.7598 8.5 13.6326 8.5 13.5V10.5ZM11 10.5C11 10.3674 10.9473 10.2402 10.8536 10.1465C10.7598 10.0527 10.6326 10 10.5 10C10.3674 10 10.2402 10.0527 10.1464 10.1465C10.0527 10.2402 10 10.3674 10 10.5V13.5C10 13.6326 10.0527 13.7598 10.1464 13.8536C10.2402 13.9474 10.3674 14 10.5 14C10.6326 14 10.7598 13.9474 10.8536 13.8536C10.9473 13.7598 11 13.6326 11 13.5V10.5ZM13.5 10.5C13.5 10.3674 13.4473 10.2402 13.3536 10.1465C13.2598 10.0527 13.1326 10 13 10C12.8674 10 12.7402 10.0527 12.6464 10.1465C12.5527 10.2402 12.5 10.3674 12.5 10.5V13.5C12.5 13.6326 12.5527 13.7598 12.6464 13.8536C12.7402 13.9474 12.8674 14 13 14C13.1326 14 13.2598 13.9474 13.3536 13.8536C13.4473 13.7598 13.5 13.6326 13.5 13.5V10.5Z"/> </g> <defs> <clipPath id="clip0_34_2797"> <rect width="16" height="16"/> </clipPath> </defs> </svg>