<svg width="16" height="16" viewBox="0 0 16 16" xmlns="http://www.w3.org/2000/svg"> <path d="M5.929 1.75703C5.96275 1.70069 5.98507 1.63826 5.99469 1.57329C6.00432 1.50833 6.00105 1.44211 5.98508 1.37841C5.9691 1.31471 5.94074 1.25477 5.90161 1.20203C5.86248 1.14929 5.81334 1.10478 5.757 1.07103C5.70066 1.03728 5.63823 1.01496 5.57327 1.00533C5.5083 0.995714 5.44208 0.998982 5.37838 1.01495C5.31468 1.03093 5.25475 1.05929 5.20201 1.09842C5.14927 1.13755 5.10475 1.18669 5.071 1.24303L2.217 6.00003H0.5C0.367392 6.00003 0.240215 6.05271 0.146447 6.14648C0.0526784 6.24024 0 6.36742 0 6.50003L0 7.50003C0 7.63264 0.0526784 7.75981 0.146447 7.85358C0.240215 7.94735 0.367392 8.00003 0.5 8.00003H1.123L2.967 14.456C3.01185 14.6131 3.10673 14.7511 3.23723 14.8493C3.36772 14.9475 3.52669 15.0004 3.69 15H12.312C12.4751 15.0002 12.6339 14.9472 12.7642 14.849C12.8945 14.7509 12.9892 14.6129 13.034 14.456L14.877 8.00003H15.5C15.6326 8.00003 15.7598 7.94735 15.8536 7.85358C15.9473 7.75981 16 7.63264 16 7.50003V6.50003C16 6.36742 15.9473 6.24024 15.8536 6.14648C15.7598 6.05271 15.6326 6.00003 15.5 6.00003H13.783L10.93 1.24303C10.8963 1.18669 10.8517 1.13755 10.799 1.09842C10.7463 1.05929 10.6863 1.03093 10.6226 1.01495C10.5589 0.998982 10.4927 0.995714 10.4277 1.00533C10.3628 1.01496 10.3003 1.03728 10.244 1.07103C10.1877 1.10478 10.1385 1.14929 10.0994 1.20203C10.0603 1.25477 10.0319 1.31471 10.0159 1.37841C9.99995 1.44211 9.99668 1.50833 10.0063 1.57329C10.0159 1.63826 10.0382 1.70069 10.072 1.75703L12.617 6.00003H3.383L5.93 1.75703H5.929ZM4 10C4 9.73481 4.10536 9.48046 4.29289 9.29292C4.48043 9.10539 4.73478 9.00003 5 9.00003C5.26522 9.00003 5.51957 9.10539 5.70711 9.29292C5.89464 9.48046 6 9.73481 6 10V12C6 12.2652 5.89464 12.5196 5.70711 12.7071C5.51957 12.8947 5.26522 13 5 13C4.73478 13 4.48043 12.8947 4.29289 12.7071C4.10536 12.5196 4 12.2652 4 12V10ZM7 10C7 9.73481 7.10536 9.48046 7.29289 9.29292C7.48043 9.10539 7.73478 9.00003 8 9.00003C8.26522 9.00003 8.51957 9.10539 8.70711 9.29292C8.89464 9.48046 9 9.73481 9 10V12C9 12.2652 8.89464 12.5196 8.70711 12.7071C8.51957 12.8947 8.26522 13 8 13C7.73478 13 7.48043 12.8947 7.29289 12.7071C7.10536 12.5196 7 12.2652 7 12V10ZM11 9.00003C11.2652 9.00003 11.5196 9.10539 11.7071 9.29292C11.8946 9.48046 12 9.73481 12 10V12C12 12.2652 11.8946 12.5196 11.7071 12.7071C11.5196 12.8947 11.2652 13 11 13C10.7348 13 10.4804 12.8947 10.2929 12.7071C10.1054 12.5196 10 12.2652 10 12V10C10 9.73481 10.1054 9.48046 10.2929 9.29292C10.4804 9.10539 10.7348 9.00003 11 9.00003Z"/> </svg>