<svg width="16" height="16" viewBox="0 0 16 16" xmlns="http://www.w3.org/2000/svg"> <g clip-path="url(#clip0_34_2815)"> <path d="M5.16406 14H15.0001C13.5001 13 13.0001 8.098 13.0001 7C13.0001 6.736 12.9801 6.477 12.9401 6.224L5.16406 14ZM11.4521 3.383C10.7707 2.73179 9.91882 2.28695 8.99506 2.1C9.00901 1.96095 8.99367 1.82052 8.95002 1.68777C8.90637 1.55502 8.83538 1.43289 8.74163 1.32925C8.64788 1.22562 8.53345 1.14279 8.40573 1.0861C8.278 1.02941 8.1398 1.00012 8.00006 1.00012C7.86031 1.00012 7.72212 1.02941 7.59439 1.0861C7.46666 1.14279 7.35223 1.22562 7.25848 1.32925C7.16473 1.43289 7.09374 1.55502 7.05009 1.68777C7.00644 1.82052 6.9911 1.96095 7.00506 2.1C5.87494 2.32986 4.85898 2.94317 4.12914 3.83611C3.3993 4.72904 3.00043 5.84674 3.00006 7C3.00006 7.898 2.66506 11.342 1.72206 13.113L11.4521 3.383ZM10.0001 15C10.0001 15.5304 9.78934 16.0391 9.41427 16.4142C9.0392 16.7893 8.53049 17 8.00006 17C7.46962 17 6.96092 16.7893 6.58584 16.4142C6.21077 16.0391 6.00006 15.5304 6.00006 15H10.0001ZM0.625057 15.625C0.5256 15.7245 0.469727 15.8593 0.469727 16C0.469727 16.1406 0.5256 16.2755 0.625057 16.375C0.724513 16.4745 0.859404 16.5303 1.00006 16.5303C1.14071 16.5303 1.2756 16.4745 1.37506 16.375L16.1251 1.625C16.1743 1.57575 16.2134 1.51729 16.24 1.45294C16.2667 1.3886 16.2804 1.31964 16.2804 1.25C16.2804 1.18035 16.2667 1.11139 16.24 1.04705C16.2134 0.982704 16.1743 0.924241 16.1251 0.874996C16.0758 0.82575 16.0173 0.786686 15.953 0.760035C15.8887 0.733383 15.8197 0.719666 15.7501 0.719666C15.6804 0.719666 15.6115 0.733383 15.5471 0.760035C15.4828 0.786686 15.4243 0.82575 15.3751 0.874996L0.625057 15.625Z"/> </g> <defs> <clipPath id="clip0_34_2815"> <rect width="16" height="16"/> </clipPath> </defs> </svg>