<svg width="16" height="16" viewBox="0 0 16 16" fill="none" xmlns="http://www.w3.org/2000/svg">
<g clip-path="url(#clip0_34_2809)">
<path d="M8 16C8.53043 16 9.03914 15.7893 9.41421 15.4142C9.78929 15.0392 10 14.5305 10 14H6C6 14.5305 6.21071 15.0392 6.58579 15.4142C6.96086 15.7893 7.46957 16 8 16ZM8 1.91802L7.203 2.07902C6.29896 2.26322 5.48633 2.75412 4.90265 3.46864C4.31897 4.18316 4.0001 5.07741 4 6.00002C4 6.62802 3.866 8.19702 3.541 9.74202C3.381 10.509 3.165 11.308 2.878 12H13.122C12.835 11.308 12.62 10.51 12.459 9.74202C12.134 8.19702 12 6.62802 12 6.00002C11.9997 5.07758 11.6807 4.18357 11.097 3.46926C10.5134 2.75494 9.70087 2.26419 8.797 2.08002L8 1.91702V1.91802ZM14.22 12C14.443 12.447 14.701 12.801 15 13H1C1.299 12.801 1.557 12.447 1.78 12C2.68 10.2 3 6.88002 3 6.00002C3 3.58002 4.72 1.56002 7.005 1.09902C6.99104 0.959974 7.00638 0.819547 7.05003 0.686794C7.09368 0.554041 7.16467 0.43191 7.25842 0.328279C7.35217 0.224647 7.4666 0.141815 7.59433 0.085125C7.72206 0.028435 7.86026 -0.000854492 8 -0.000854492C8.13974 -0.000854492 8.27794 0.028435 8.40567 0.085125C8.5334 0.141815 8.64783 0.224647 8.74158 0.328279C8.83533 0.43191 8.90632 0.554041 8.94997 0.686794C8.99362 0.819547 9.00896 0.959974 8.995 1.09902C10.1253 1.32892 11.1414 1.94238 11.8712 2.83552C12.6011 3.72866 12.9999 4.84659 13 6.00002C13 6.88002 13.32 10.2 14.22 12Z" fill="#212529"/>
</g>
<defs>
<clipPath id="clip0_34_2809">
<rect width="16" height="16" fill="white"/>
</clipPath>
</defs>
</svg>
