<svg width="16" height="16" viewBox="0 0 16 16" fill="none" xmlns="http://www.w3.org/2000/svg">
<g clip-path="url(#clip0_34_2811)">
<path d="M8 16C8.53043 16 9.03914 15.7893 9.41421 15.4142C9.78929 15.0392 10 14.5305 10 14H6C6 14.5305 6.21071 15.0392 6.58579 15.4142C6.96086 15.7893 7.46957 16 8 16ZM8.995 1.09902C9.00896 0.959974 8.99362 0.819547 8.94997 0.686794C8.90632 0.554041 8.83533 0.43191 8.74158 0.328279C8.64783 0.224647 8.5334 0.141815 8.40567 0.085125C8.27794 0.028435 8.13974 -0.000854492 8 -0.000854492C7.86026 -0.000854492 7.72206 0.028435 7.59433 0.085125C7.4666 0.141815 7.35217 0.224647 7.25842 0.328279C7.16467 0.43191 7.09368 0.554041 7.05003 0.686794C7.00638 0.819547 6.99104 0.959974 7.005 1.09902C5.87472 1.32892 4.85862 1.94238 4.12876 2.83552C3.39891 3.72866 3.00015 4.84659 3 6.00002C3 7.09802 2.5 12 1 13H15C13.5 12 13 7.09802 13 6.00002C13 3.58002 11.28 1.56002 8.995 1.09902Z" fill="#212529"/>
</g>
<defs>
<clipPath id="clip0_34_2811">
<rect width="16" height="16" fill="white"/>
</clipPath>
</defs>
</svg>
