<svg width="16" height="16" viewBox="0 0 16 16" fill="none" xmlns="http://www.w3.org/2000/svg">
<g clip-path="url(#clip0_34_2813)">
<path d="M5.16406 14H15.0001C14.7011 13.801 14.4431 13.447 14.2201 13C13.3201 11.2 13.0001 7.88 13.0001 7C13.0001 6.736 12.9801 6.477 12.9401 6.224L12.0021 7.162C12.0221 7.87 12.1591 9.316 12.4591 10.742C12.6201 11.509 12.8361 12.308 13.1221 13H6.16406L5.16406 14ZM10.7451 4.09C10.203 3.57771 9.52809 3.22779 8.79706 3.08L8.00006 2.917L7.20306 3.078C6.29885 3.26223 5.48609 3.75328 4.90239 4.46801C4.31869 5.18273 3.99992 6.07721 4.00006 7C4.00006 7.628 3.86606 9.19699 3.54106 10.742C3.49106 10.98 3.43606 11.221 3.37506 11.46L1.72206 13.113C1.74206 13.076 1.76206 13.039 1.78106 13C2.67906 11.2 3.00006 7.88 3.00006 7C3.00006 4.58 4.72006 2.56 7.00506 2.099C6.9911 1.95995 7.00644 1.81952 7.05009 1.68677C7.09374 1.55402 7.16473 1.43189 7.25848 1.32825C7.35223 1.22462 7.46666 1.14179 7.59439 1.0851C7.72212 1.02841 7.86031 0.999121 8.00006 0.999121C8.1398 0.999121 8.278 1.02841 8.40573 1.0851C8.53345 1.14179 8.64788 1.22462 8.74163 1.32825C8.83538 1.43189 8.90637 1.55402 8.95002 1.68677C8.99367 1.81952 9.00901 1.95995 8.99506 2.099C9.93706 2.289 10.7831 2.744 11.4521 3.383L10.7451 4.09ZM10.0001 15C10.0001 15.5304 9.78934 16.0391 9.41427 16.4142C9.0392 16.7893 8.53049 17 8.00006 17C7.46962 17 6.96092 16.7893 6.58584 16.4142C6.21077 16.0391 6.00006 15.5304 6.00006 15H10.0001ZM0.625057 15.625C0.5256 15.7245 0.469727 15.8593 0.469727 16C0.469727 16.1406 0.5256 16.2755 0.625057 16.375C0.724513 16.4745 0.859404 16.5303 1.00006 16.5303C1.14071 16.5303 1.2756 16.4745 1.37506 16.375L16.1251 1.625C16.1743 1.57575 16.2134 1.51729 16.24 1.45294C16.2667 1.3886 16.2804 1.31964 16.2804 1.25C16.2804 1.18035 16.2667 1.11139 16.24 1.04705C16.2134 0.982704 16.1743 0.924241 16.1251 0.874996C16.0758 0.82575 16.0173 0.786686 15.953 0.760035C15.8887 0.733383 15.8197 0.719666 15.7501 0.719666C15.6804 0.719666 15.6115 0.733383 15.5471 0.760035C15.4828 0.786686 15.4243 0.82575 15.3751 0.874996L0.625057 15.625Z" fill="#212529"/>
</g>
<defs>
<clipPath id="clip0_34_2813">
<rect width="16" height="16" fill="white"/>
</clipPath>
</defs>
</svg>
