<svg width="16" height="16" viewBox="0 0 16 16" xmlns="http://www.w3.org/2000/svg"> <g clip-path="url(#clip0_34_2817)"> <path fill-rule="evenodd" clip-rule="evenodd" d="M2.54038e-05 10.5C2.54038e-05 10.1022 0.158061 9.72064 0.439365 9.43934C0.72067 9.15804 1.1022 9 1.50003 9H2.50003C2.89785 9 3.27938 9.15804 3.56069 9.43934C3.84199 9.72064 4.00003 10.1022 4.00003 10.5V11.5C4.00003 11.8978 3.84199 12.2794 3.56069 12.5607C3.27938 12.842 2.89785 13 2.50003 13H1.50003C1.1022 13 0.72067 12.842 0.439365 12.5607C0.158061 12.2794 2.54038e-05 11.8978 2.54038e-05 11.5V10.5ZM1.50003 10C1.36742 10 1.24024 10.0527 1.14647 10.1464C1.0527 10.2402 1.00003 10.3674 1.00003 10.5V11.5C1.00003 11.6326 1.0527 11.7598 1.14647 11.8536C1.24024 11.9473 1.36742 12 1.50003 12H2.50003C2.63263 12 2.75981 11.9473 2.85358 11.8536C2.94735 11.7598 3.00003 11.6326 3.00003 11.5V10.5C3.00003 10.3674 2.94735 10.2402 2.85358 10.1464C2.75981 10.0527 2.63263 10 2.50003 10H1.50003ZM12 10.5C12 10.1022 12.1581 9.72064 12.4394 9.43934C12.7207 9.15804 13.1022 9 13.5 9H14.5C14.8979 9 15.2794 9.15804 15.5607 9.43934C15.842 9.72064 16 10.1022 16 10.5V11.5C16 11.8978 15.842 12.2794 15.5607 12.5607C15.2794 12.842 14.8979 13 14.5 13H13.5C13.1022 13 12.7207 12.842 12.4394 12.5607C12.1581 12.2794 12 11.8978 12 11.5V10.5ZM13.5 10C13.3674 10 13.2402 10.0527 13.1465 10.1464C13.0527 10.2402 13 10.3674 13 10.5V11.5C13 11.6326 13.0527 11.7598 13.1465 11.8536C13.2402 11.9473 13.3674 12 13.5 12H14.5C14.6326 12 14.7598 11.9473 14.8536 11.8536C14.9473 11.7598 15 11.6326 15 11.5V10.5C15 10.3674 14.9473 10.2402 14.8536 10.1464C14.7598 10.0527 14.6326 10 14.5 10H13.5ZM6.00003 4.5C6.00003 4.10218 6.15806 3.72064 6.43936 3.43934C6.72067 3.15804 7.1022 3 7.50003 3H8.50003C8.89785 3 9.27938 3.15804 9.56069 3.43934C9.84199 3.72064 10 4.10218 10 4.5V5.5C10 5.89782 9.84199 6.27936 9.56069 6.56066C9.27938 6.84196 8.89785 7 8.50003 7H7.50003C7.1022 7 6.72067 6.84196 6.43936 6.56066C6.15806 6.27936 6.00003 5.89782 6.00003 5.5V4.5ZM7.50003 4C7.36742 4 7.24024 4.05268 7.14647 4.14645C7.0527 4.24021 7.00003 4.36739 7.00003 4.5V5.5C7.00003 5.63261 7.0527 5.75979 7.14647 5.85355C7.24024 5.94732 7.36742 6 7.50003 6H8.50003C8.63263 6 8.75981 5.94732 8.85358 5.85355C8.94735 5.75979 9.00003 5.63261 9.00003 5.5V4.5C9.00003 4.36739 8.94735 4.24021 8.85358 4.14645C8.75981 4.05268 8.63263 4 8.50003 4H7.50003Z"/> <path d="M6.00003 4.5H1.86603C1.75596 4.30936 1.58606 4.16036 1.38268 4.07612C1.17931 3.99188 0.953814 3.9771 0.741181 4.03407C0.528548 4.09105 0.340656 4.21659 0.206647 4.39124C0.0726374 4.56588 0 4.77987 0 5C0 5.22013 0.0726374 5.43412 0.206647 5.60876C0.340656 5.78341 0.528548 5.90895 0.741181 5.96593C0.953814 6.0229 1.17931 6.00812 1.38268 5.92388C1.58606 5.83964 1.75596 5.69064 1.86603 5.5H4.53403C3.24626 6.31301 2.28389 7.55136 1.81403 9H2.50003C2.62303 9 2.74403 9.015 2.85803 9.043C3.135 8.31794 3.56185 7.65948 4.11068 7.11065C4.65951 6.56182 5.31797 6.13498 6.04303 5.858C6.01438 5.74082 5.99994 5.62063 6.00003 5.5V4.5ZM9.95703 5.858C9.9857 5.74083 10.0001 5.62063 10 5.5V4.5H14.134C14.2441 4.30936 14.414 4.16036 14.6174 4.07612C14.8207 3.99188 15.0462 3.9771 15.2589 4.03407C15.4715 4.09105 15.6594 4.21659 15.7934 4.39124C15.9274 4.56588 16 4.77987 16 5C16 5.22013 15.9274 5.43412 15.7934 5.60876C15.6594 5.78341 15.4715 5.90895 15.2589 5.96593C15.0462 6.0229 14.8207 6.00812 14.6174 5.92388C14.414 5.83964 14.2441 5.69064 14.134 5.5H11.466C12.7538 6.31301 13.7162 7.55136 14.186 9H13.5C13.377 9 13.257 9.015 13.142 9.043C12.865 8.31794 12.4382 7.65948 11.8894 7.11065C11.3405 6.56182 10.6821 6.13498 9.95703 5.858Z"/> </g> <defs> <clipPath id="clip0_34_2817"> <rect width="16" height="16"/> </clipPath> </defs> </svg>