<svg width="16" height="16" viewBox="0 0 16 16" fill="none" xmlns="http://www.w3.org/2000/svg">
<path d="M2.85355 4.85355C2.75979 4.94732 2.63261 5 2.5 5C2.36739 5 2.24021 4.94732 2.14645 4.85355C2.05268 4.75979 2 4.63261 2 4.5C2 4.36739 2.05268 4.24021 2.14645 4.14645C2.24021 4.05268 2.36739 4 2.5 4C2.63261 4 2.75979 4.05268 2.85355 4.14645C2.94732 4.24021 3 4.36739 3 4.5C3 4.63261 2.94732 4.75979 2.85355 4.85355Z" fill="#212529"/>
<path d="M4.85355 4.85355C4.75979 4.94732 4.63261 5 4.5 5C4.36739 5 4.24021 4.94732 4.14645 4.85355C4.05268 4.75979 4 4.63261 4 4.5C4 4.36739 4.05268 4.24021 4.14645 4.14645C4.24021 4.05268 4.36739 4 4.5 4C4.63261 4 4.75979 4.05268 4.85355 4.14645C4.94732 4.24021 5 4.36739 5 4.5C5 4.63261 4.94732 4.75979 4.85355 4.85355Z" fill="#212529"/>
<path d="M11.8536 4.85355C11.9473 4.75979 12 4.63261 12 4.5C12 4.36739 11.9473 4.24021 11.8536 4.14645C11.7598 4.05268 11.6326 4 11.5 4C11.3674 4 11.2402 4.05268 11.1464 4.14645C11.0527 4.24021 11 4.36739 11 4.5C11 4.63261 11.0527 4.75979 11.1464 4.85355C11.2402 4.94732 11.3674 5 11.5 5C11.6326 5 11.7598 4.94732 11.8536 4.85355Z" fill="#212529"/>
<path d="M13.8536 4.85355C13.7598 4.94732 13.6326 5 13.5 5C13.3674 5 13.2402 4.94732 13.1464 4.85355C13.0527 4.75979 13 4.63261 13 4.5C13 4.36739 13.0527 4.24021 13.1464 4.14645C13.2402 4.05268 13.3674 4 13.5 4C13.6326 4 13.7598 4.05268 13.8536 4.14645C13.9473 4.24021 14 4.36739 14 4.5C14 4.63261 13.9473 4.75979 13.8536 4.85355Z" fill="#212529"/>
<path d="M6.14645 4.14645C6.24021 4.05268 6.36739 4 6.5 4H9.5C9.63261 4 9.75979 4.05268 9.85355 4.14645C9.94732 4.24021 10 4.36739 10 4.5C10 4.63261 9.94732 4.75979 9.85355 4.85355C9.75979 4.94732 9.63261 5 9.5 5H6.5C6.36739 5 6.24021 4.94732 6.14645 4.85355C6.05268 4.75979 6 4.63261 6 4.5C6 4.36739 6.05268 4.24021 6.14645 4.14645Z" fill="#212529"/>
<path d="M11.8536 10.8536C11.9473 10.7598 12 10.6326 12 10.5C12 10.3674 11.9473 10.2402 11.8536 10.1464C11.7598 10.0527 11.6326 10 11.5 10C11.3674 10 11.2402 10.0527 11.1464 10.1464C11.0527 10.2402 11 10.3674 11 10.5C11 10.6326 11.0527 10.7598 11.1464 10.8536C11.2402 10.9473 11.3674 11 11.5 11C11.6326 11 11.7598 10.9473 11.8536 10.8536Z" fill="#212529"/>
<path fill-rule="evenodd" clip-rule="evenodd" d="M13.2678 12.2678C12.7989 12.7366 12.163 13 11.5 13C10.837 13 10.2011 12.7366 9.73223 12.2678C9.26339 11.7989 9 11.163 9 10.5C9 9.83696 9.26339 9.20107 9.73223 8.73223C10.2011 8.26339 10.837 8 11.5 8C12.163 8 12.7989 8.26339 13.2678 8.73223C13.7366 9.20107 14 9.83696 14 10.5C14 11.163 13.7366 11.7989 13.2678 12.2678ZM10.4393 11.5607C10.7206 11.842 11.1022 12 11.5 12C11.8978 12 12.2794 11.842 12.5607 11.5607C12.842 11.2794 13 10.8978 13 10.5C13 10.1022 12.842 9.72064 12.5607 9.43934C12.2794 9.15804 11.8978 9 11.5 9C11.1022 9 10.7206 9.15804 10.4393 9.43934C10.158 9.72064 10 10.1022 10 10.5C10 10.8978 10.158 11.2794 10.4393 11.5607Z" fill="#212529"/>
<path d="M4.85355 10.8536C4.94732 10.7598 5 10.6326 5 10.5C5 10.3674 4.94732 10.2402 4.85355 10.1464C4.75979 10.0527 4.63261 10 4.5 10C4.36739 10 4.24021 10.0527 4.14645 10.1464C4.05268 10.2402 4 10.3674 4 10.5C4 10.6326 4.05268 10.7598 4.14645 10.8536C4.24021 10.9473 4.36739 11 4.5 11C4.63261 11 4.75979 10.9473 4.85355 10.8536Z" fill="#212529"/>
<path fill-rule="evenodd" clip-rule="evenodd" d="M7 10.5C7 11.163 6.73661 11.7989 6.26777 12.2678C5.79893 12.7366 5.16304 13 4.5 13C3.83696 13 3.20107 12.7366 2.73223 12.2678C2.26339 11.7989 2 11.163 2 10.5C2 9.83696 2.26339 9.20107 2.73223 8.73223C3.20107 8.26339 3.83696 8 4.5 8C5.16304 8 5.79893 8.26339 6.26777 8.73223C6.73661 9.20107 7 9.83696 7 10.5ZM6 10.5C6 10.1022 5.84196 9.72064 5.56066 9.43934C5.27936 9.15804 4.89782 9 4.5 9C4.10218 9 3.72064 9.15804 3.43934 9.43934C3.15804 9.72064 3 10.1022 3 10.5C3 10.8978 3.15804 11.2794 3.43934 11.5607C3.72064 11.842 4.10218 12 4.5 12C4.89782 12 5.27936 11.842 5.56066 11.5607C5.84196 11.2794 6 10.8978 6 10.5Z" fill="#212529"/>
<path fill-rule="evenodd" clip-rule="evenodd" d="M14.3536 0.146447C14.2598 0.0526784 14.1326 0 14 0C13.8674 0 13.7402 0.0526784 13.6464 0.146447C13.5527 0.240215 13.5 0.367392 13.5 0.5V2H1C0.734784 2 0.48043 2.10536 0.292893 2.29289C0.105357 2.48043 0 2.73478 0 3V14C0 14.2652 0.105357 14.5196 0.292893 14.7071C0.48043 14.8946 0.734784 15 1 15H15C15.2652 15 15.5196 14.8946 15.7071 14.7071C15.8946 14.5196 16 14.2652 16 14V3C16 2.73478 15.8946 2.48043 15.7071 2.29289C15.5196 2.10536 15.2652 2 15 2H14.5V0.5C14.5 0.367392 14.4473 0.240215 14.3536 0.146447ZM1 6V3H15V6H1ZM1 7H15V14H1V7Z" fill="#212529"/>
</svg>
