<svg width="16" height="16" viewBox="0 0 16 16" xmlns="http://www.w3.org/2000/svg"> <g clip-path="url(#clip0_34_2901)"> <path d="M7.5 1.906V2.844H8.5V1.906H7.5ZM7.5 3.781V4.719H8.5V3.78L7.5 3.781ZM7.5 5.656V6.594H8.5V5.656H7.5ZM1.906 8.5H2.844V7.5H1.906V8.5ZM3.781 8.5H4.719V7.5H3.78L3.781 8.5ZM5.656 8.5H6.594V7.5H5.656V8.5ZM8.469 8.5V8.469H8.5V7.53H8.469V7.5H7.53V7.531H7.5V8.469H7.531V8.5H8.469ZM9.406 8.5H10.344V7.5H9.406V8.5ZM11.281 8.5H12.219V7.5H11.281V8.5ZM13.156 8.5H14.094V7.5H13.156V8.5ZM7.5 9.406V10.344H8.5V9.406H7.5ZM7.5 11.281V12.219H8.5V11.281H7.5ZM7.5 13.156V14.094H8.5V13.156H7.5Z"/> <path d="M0 0V16H16V0H0ZM1 1H15V15H1V1Z"/> </g> <defs> <clipPath id="clip0_34_2901"> <rect width="16" height="16"/> </clipPath> </defs> </svg>