<svg width="16" height="16" viewBox="0 0 16 16" xmlns="http://www.w3.org/2000/svg"> <path fill-rule="evenodd" clip-rule="evenodd" d="M6.36414 2.50002C6.36414 2.36741 6.41682 2.24024 6.51059 2.14647C6.60436 2.0527 6.73153 2.00002 6.86414 2.00002H13.5001C13.898 2.00002 14.2795 2.15806 14.5608 2.43936C14.8421 2.72067 15.0001 3.1022 15.0001 3.50002V13.5C15.0001 13.8978 14.8421 14.2794 14.5608 14.5607C14.2795 14.842 13.898 15 13.5001 15H3.50014C3.10232 15 2.72079 14.842 2.43948 14.5607C2.15818 14.2794 2.00014 13.8978 2.00014 13.5V6.86402C2.00014 6.73141 2.05282 6.60424 2.14659 6.51047C2.24036 6.4167 2.36754 6.36402 2.50014 6.36402C2.63275 6.36402 2.75993 6.4167 2.8537 6.51047C2.94746 6.60424 3.00014 6.73141 3.00014 6.86402V13.5C3.00014 13.6326 3.05282 13.7598 3.14659 13.8536C3.24036 13.9473 3.36754 14 3.50014 14H13.5001C13.6328 14 13.7599 13.9473 13.8537 13.8536C13.9475 13.7598 14.0001 13.6326 14.0001 13.5V3.50002C14.0001 3.36741 13.9475 3.24024 13.8537 3.14647C13.7599 3.0527 13.6328 3.00002 13.5001 3.00002H6.86414C6.73153 3.00002 6.60436 2.94734 6.51059 2.85357C6.41682 2.75981 6.36414 2.63263 6.36414 2.50002Z"/> <path fill-rule="evenodd" clip-rule="evenodd" d="M11.0001 10.5C11.0001 10.6326 10.9475 10.7598 10.8537 10.8536C10.7599 10.9473 10.6328 11 10.5001 11H5.50014C5.36754 11 5.24036 10.9473 5.14659 10.8536C5.05282 10.7598 5.00014 10.6326 5.00014 10.5C5.00014 10.3674 5.05282 10.2402 5.14659 10.1465C5.24036 10.0527 5.36754 10 5.50014 10H9.29314L1.14614 1.85402C1.09966 1.80753 1.06278 1.75234 1.03762 1.6916C1.01246 1.63087 0.999512 1.56577 0.999512 1.50002C0.999512 1.43428 1.01246 1.36918 1.03762 1.30844C1.06278 1.2477 1.09966 1.19251 1.14614 1.14602C1.19263 1.09953 1.24782 1.06266 1.30856 1.0375C1.3693 1.01234 1.4344 0.99939 1.50014 0.99939C1.56589 0.99939 1.63099 1.01234 1.69173 1.0375C1.75247 1.06266 1.80766 1.09953 1.85414 1.14602L10.0001 9.29302V5.50002C10.0001 5.36741 10.0528 5.24024 10.1466 5.14647C10.2404 5.0527 10.3675 5.00002 10.5001 5.00002C10.6328 5.00002 10.7599 5.0527 10.8537 5.14647C10.9475 5.24024 11.0001 5.36741 11.0001 5.50002V10.5Z"/> </svg>