<svg width="16" height="16" viewBox="0 0 16 16" xmlns="http://www.w3.org/2000/svg"> <path fill-rule="evenodd" clip-rule="evenodd" d="M3.5 10C3.36739 10 3.24021 9.94732 3.14645 9.85355C3.05268 9.75979 3 9.63261 3 9.5V1.5C3 1.36739 3.05268 1.24021 3.14645 1.14645C3.24021 1.05268 3.36739 1 3.5 1H12.5C12.6326 1 12.7598 1.05268 12.8536 1.14645C12.9473 1.24021 13 1.36739 13 1.5V9.5C13 9.63261 12.9473 9.75979 12.8536 9.85355C12.7598 9.94732 12.6326 10 12.5 10H10.5C10.3674 10 10.2402 10.0527 10.1464 10.1464C10.0527 10.2402 10 10.3674 10 10.5C10 10.6326 10.0527 10.7598 10.1464 10.8536C10.2402 10.9473 10.3674 11 10.5 11H12.5C12.8978 11 13.2794 10.842 13.5607 10.5607C13.842 10.2794 14 9.89782 14 9.5V1.5C14 1.10218 13.842 0.720644 13.5607 0.43934C13.2794 0.158035 12.8978 0 12.5 0H3.5C3.10218 0 2.72064 0.158035 2.43934 0.43934C2.15804 0.720644 2 1.10218 2 1.5V9.5C2 9.89782 2.15804 10.2794 2.43934 10.5607C2.72064 10.842 3.10218 11 3.5 11H5.5C5.63261 11 5.75979 10.9473 5.85355 10.8536C5.94732 10.7598 6 10.6326 6 10.5C6 10.3674 5.94732 10.2402 5.85355 10.1464C5.75979 10.0527 5.63261 10 5.5 10H3.5Z"/> <path fill-rule="evenodd" clip-rule="evenodd" d="M7.646 4.146C7.69245 4.09944 7.74762 4.06249 7.80837 4.03729C7.86911 4.01208 7.93423 3.99911 8 3.99911C8.06577 3.99911 8.13089 4.01208 8.19163 4.03729C8.25238 4.06249 8.30755 4.09944 8.354 4.146L11.354 7.146C11.4479 7.23989 11.5006 7.36722 11.5006 7.5C11.5006 7.63278 11.4479 7.76011 11.354 7.854C11.2601 7.94789 11.1328 8.00063 11 8.00063C10.8672 8.00063 10.7399 7.94789 10.646 7.854L8.5 5.707V14.5C8.5 14.6326 8.44732 14.7598 8.35355 14.8536C8.25979 14.9473 8.13261 15 8 15C7.86739 15 7.74021 14.9473 7.64645 14.8536C7.55268 14.7598 7.5 14.6326 7.5 14.5V5.707L5.354 7.854C5.26011 7.94789 5.13278 8.00063 5 8.00063C4.86722 8.00063 4.73989 7.94789 4.646 7.854C4.55211 7.76011 4.49937 7.63278 4.49937 7.5C4.49937 7.36722 4.55211 7.23989 4.646 7.146L7.646 4.146Z"/> </svg>