<svg width="16" height="16" viewBox="0 0 16 16" xmlns="http://www.w3.org/2000/svg"> <g clip-path="url(#clip0_34_2949)"> <path fill-rule="evenodd" clip-rule="evenodd" d="M10 12.5C10 12.6326 9.94732 12.7598 9.85355 12.8536C9.75979 12.9473 9.63261 13 9.5 13H1.5C1.36739 13 1.24021 12.9473 1.14645 12.8536C1.05268 12.7598 1 12.6326 1 12.5V3.5C1 3.36739 1.05268 3.24021 1.14645 3.14645C1.24021 3.05268 1.36739 3 1.5 3H9.5C9.63261 3 9.75979 3.05268 9.85355 3.14645C9.94732 3.24021 10 3.36739 10 3.5V5.5C10 5.63261 10.0527 5.75979 10.1464 5.85355C10.2402 5.94732 10.3674 6 10.5 6C10.6326 6 10.7598 5.94732 10.8536 5.85355C10.9473 5.75979 11 5.63261 11 5.5V3.5C11 3.10218 10.842 2.72064 10.5607 2.43934C10.2794 2.15804 9.89782 2 9.5 2H1.5C1.10218 2 0.720644 2.15804 0.43934 2.43934C0.158035 2.72064 0 3.10218 0 3.5V12.5C0 12.8978 0.158035 13.2794 0.43934 13.5607C0.720644 13.842 1.10218 14 1.5 14H9.5C9.89782 14 10.2794 13.842 10.5607 13.5607C10.842 13.2794 11 12.8978 11 12.5V10.5C11 10.3674 10.9473 10.2402 10.8536 10.1464C10.7598 10.0527 10.6326 10 10.5 10C10.3674 10 10.2402 10.0527 10.1464 10.1464C10.0527 10.2402 10 10.3674 10 10.5V12.5Z"/> <path fill-rule="evenodd" clip-rule="evenodd" d="M15.854 8.354C15.9006 8.30755 15.9375 8.25238 15.9627 8.19163C15.9879 8.13089 16.0009 8.06577 16.0009 8C16.0009 7.93423 15.9879 7.86911 15.9627 7.80837C15.9375 7.74762 15.9006 7.69245 15.854 7.646L12.854 4.646C12.7601 4.55211 12.6328 4.49937 12.5 4.49937C12.3672 4.49937 12.2399 4.55211 12.146 4.646C12.0521 4.73989 11.9994 4.86722 11.9994 5C11.9994 5.13278 12.0521 5.26011 12.146 5.354L14.293 7.5H5.5C5.36739 7.5 5.24021 7.55268 5.14645 7.64645C5.05268 7.74021 5 7.86739 5 8C5 8.13261 5.05268 8.25979 5.14645 8.35355C5.24021 8.44732 5.36739 8.5 5.5 8.5H14.293L12.146 10.646C12.0521 10.7399 11.9994 10.8672 11.9994 11C11.9994 11.1328 12.0521 11.2601 12.146 11.354C12.2399 11.4479 12.3672 11.5006 12.5 11.5006C12.6328 11.5006 12.7601 11.4479 12.854 11.354L15.854 8.354Z"/> </g> <defs> <clipPath id="clip0_34_2949"> <rect width="16" height="16"/> </clipPath> </defs> </svg>