<svg width="16" height="16" viewBox="0 0 16 16" fill="none" xmlns="http://www.w3.org/2000/svg">
<path fill-rule="evenodd" clip-rule="evenodd" d="M6.36414 13.5C6.36414 13.6326 6.41682 13.7598 6.51059 13.8536C6.60436 13.9473 6.73153 14 6.86414 14H13.5001C13.898 14 14.2795 13.842 14.5608 13.5607C14.8421 13.2794 15.0001 12.8978 15.0001 12.5V2.5C15.0001 2.10218 14.8421 1.72064 14.5608 1.43934C14.2795 1.15804 13.898 1 13.5001 1H3.50014C3.10232 1 2.72079 1.15804 2.43948 1.43934C2.15818 1.72064 2.00014 2.10218 2.00014 2.5V9.136C2.00014 9.26861 2.05282 9.39579 2.14659 9.48955C2.24036 9.58332 2.36754 9.636 2.50014 9.636C2.63275 9.636 2.75993 9.58332 2.8537 9.48955C2.94746 9.39579 3.00014 9.26861 3.00014 9.136V2.5C3.00014 2.36739 3.05282 2.24021 3.14659 2.14645C3.24036 2.05268 3.36754 2 3.50014 2H13.5001C13.6328 2 13.7599 2.05268 13.8537 2.14645C13.9475 2.24021 14.0001 2.36739 14.0001 2.5V12.5C14.0001 12.6326 13.9475 12.7598 13.8537 12.8536C13.7599 12.9473 13.6328 13 13.5001 13H6.86414C6.73153 13 6.60436 13.0527 6.51059 13.1464C6.41682 13.2402 6.36414 13.3674 6.36414 13.5Z" fill="#212529"/>
<path fill-rule="evenodd" clip-rule="evenodd" d="M11.0001 5.5C11.0001 5.36739 10.9475 5.24021 10.8537 5.14645C10.7599 5.05268 10.6328 5 10.5001 5H5.50014C5.36754 5 5.24036 5.05268 5.14659 5.14645C5.05282 5.24021 5.00014 5.36739 5.00014 5.5C5.00014 5.63261 5.05282 5.75979 5.14659 5.85355C5.24036 5.94732 5.36754 6 5.50014 6H9.29314L1.14614 14.146C1.05226 14.2399 0.999512 14.3672 0.999512 14.5C0.999512 14.6328 1.05226 14.7601 1.14614 14.854C1.24003 14.9479 1.36737 15.0006 1.50014 15.0006C1.63292 15.0006 1.76026 14.9479 1.85414 14.854L10.0001 6.707V10.5C10.0001 10.6326 10.0528 10.7598 10.1466 10.8536C10.2404 10.9473 10.3675 11 10.5001 11C10.6328 11 10.7599 10.9473 10.8537 10.8536C10.9475 10.7598 11.0001 10.6326 11.0001 10.5V5.5Z" fill="#212529"/>
</svg>
