<svg width="16" height="16" viewBox="0 0 16 16" xmlns="http://www.w3.org/2000/svg"> <path fill-rule="evenodd" clip-rule="evenodd" d="M9.636 2.50002C9.636 2.36741 9.58332 2.24024 9.48955 2.14647C9.39579 2.0527 9.26861 2.00002 9.136 2.00002H2.5C2.10218 2.00002 1.72064 2.15806 1.43934 2.43936C1.15804 2.72067 1 3.1022 1 3.50002V13.5C1 13.8978 1.15804 14.2794 1.43934 14.5607C1.72064 14.842 2.10218 15 2.5 15H12.5C12.8978 15 13.2794 14.842 13.5607 14.5607C13.842 14.2794 14 13.8978 14 13.5V6.86402C14 6.73141 13.9473 6.60424 13.8536 6.51047C13.7598 6.4167 13.6326 6.36402 13.5 6.36402C13.3674 6.36402 13.2402 6.4167 13.1464 6.51047C13.0527 6.60424 13 6.73141 13 6.86402V13.5C13 13.6326 12.9473 13.7598 12.8536 13.8536C12.7598 13.9473 12.6326 14 12.5 14H2.5C2.36739 14 2.24021 13.9473 2.14645 13.8536C2.05268 13.7598 2 13.6326 2 13.5V3.50002C2 3.36741 2.05268 3.24024 2.14645 3.14647C2.24021 3.0527 2.36739 3.00002 2.5 3.00002H9.136C9.26861 3.00002 9.39579 2.94734 9.48955 2.85357C9.58332 2.75981 9.636 2.63263 9.636 2.50002Z"/> <path fill-rule="evenodd" clip-rule="evenodd" d="M5 10.5C5 10.6326 5.05268 10.7598 5.14645 10.8536C5.24021 10.9473 5.36739 11 5.5 11H10.5C10.6326 11 10.7598 10.9473 10.8536 10.8536C10.9473 10.7598 11 10.6326 11 10.5C11 10.3674 10.9473 10.2402 10.8536 10.1465C10.7598 10.0527 10.6326 10 10.5 10H6.707L14.854 1.85402C14.9005 1.80753 14.9374 1.75234 14.9625 1.6916C14.9877 1.63087 15.0006 1.56577 15.0006 1.50002C15.0006 1.43428 14.9877 1.36918 14.9625 1.30844C14.9374 1.2477 14.9005 1.19251 14.854 1.14602C14.8075 1.09953 14.7523 1.06266 14.6916 1.0375C14.6308 1.01234 14.5657 0.99939 14.5 0.99939C14.4343 0.99939 14.3692 1.01234 14.3084 1.0375C14.2477 1.06266 14.1925 1.09953 14.146 1.14602L6 9.29302V5.50002C6 5.36741 5.94732 5.24024 5.85355 5.14647C5.75979 5.0527 5.63261 5.00002 5.5 5.00002C5.36739 5.00002 5.24021 5.0527 5.14645 5.14647C5.05268 5.24024 5 5.36741 5 5.50002V10.5Z"/> </svg>