<svg width="16" height="16" viewBox="0 0 16 16" xmlns="http://www.w3.org/2000/svg"> <g clip-path="url(#clip0_34_2951)"> <path fill-rule="evenodd" clip-rule="evenodd" d="M3.5 6.00004C3.36739 6.00004 3.24021 6.05272 3.14645 6.14649C3.05268 6.24025 3 6.36743 3 6.50004V14.5C3 14.6326 3.05268 14.7598 3.14645 14.8536C3.24021 14.9474 3.36739 15 3.5 15H12.5C12.6326 15 12.7598 14.9474 12.8536 14.8536C12.9473 14.7598 13 14.6326 13 14.5V6.50004C13 6.36743 12.9473 6.24025 12.8536 6.14649C12.7598 6.05272 12.6326 6.00004 12.5 6.00004H10.5C10.3674 6.00004 10.2402 5.94736 10.1464 5.85359C10.0527 5.75982 10 5.63265 10 5.50004C10 5.36743 10.0527 5.24025 10.1464 5.14649C10.2402 5.05272 10.3674 5.00004 10.5 5.00004H12.5C12.8978 5.00004 13.2794 5.15807 13.5607 5.43938C13.842 5.72068 14 6.10221 14 6.50004V14.5C14 14.8979 13.842 15.2794 13.5607 15.5607C13.2794 15.842 12.8978 16 12.5 16H3.5C3.10218 16 2.72064 15.842 2.43934 15.5607C2.15804 15.2794 2 14.8979 2 14.5V6.50004C2 6.10221 2.15804 5.72068 2.43934 5.43938C2.72064 5.15807 3.10218 5.00004 3.5 5.00004H5.5C5.63261 5.00004 5.75979 5.05272 5.85355 5.14649C5.94732 5.24025 6 5.36743 6 5.50004C6 5.63265 5.94732 5.75982 5.85355 5.85359C5.75979 5.94736 5.63261 6.00004 5.5 6.00004H3.5Z"/> <path fill-rule="evenodd" clip-rule="evenodd" d="M7.646 0.146039C7.69245 0.0994761 7.74762 0.0625332 7.80837 0.0373268C7.86911 0.0121203 7.93423 -0.000854492 8 -0.000854492C8.06577 -0.000854492 8.13089 0.0121203 8.19163 0.0373268C8.25238 0.0625332 8.30755 0.0994761 8.354 0.146039L11.354 3.14604C11.4479 3.23993 11.5006 3.36726 11.5006 3.50004C11.5006 3.63282 11.4479 3.76015 11.354 3.85404C11.2601 3.94793 11.1328 4.00067 11 4.00067C10.8672 4.00067 10.7399 3.94793 10.646 3.85404L8.5 1.70704V10.5C8.5 10.6326 8.44732 10.7598 8.35355 10.8536C8.25979 10.9474 8.13261 11 8 11C7.86739 11 7.74021 10.9474 7.64645 10.8536C7.55268 10.7598 7.5 10.6326 7.5 10.5V1.70704L5.354 3.85404C5.30751 3.90053 5.25232 3.9374 5.19158 3.96256C5.13084 3.98772 5.06574 4.00067 5 4.00067C4.86722 4.00067 4.73989 3.94793 4.646 3.85404C4.59951 3.80755 4.56264 3.75236 4.53748 3.69162C4.51232 3.63088 4.49937 3.56578 4.49937 3.50004C4.49937 3.36726 4.55211 3.23993 4.646 3.14604L7.646 0.146039Z"/> </g> <defs> <clipPath id="clip0_34_2951"> <rect width="16" height="16"/> </clipPath> </defs> </svg>