<svg width="16" height="16" viewBox="0 0 16 16" xmlns="http://www.w3.org/2000/svg"> <g clip-path="url(#clip0_34_2947)"> <path fill-rule="evenodd" clip-rule="evenodd" d="M5.99992 12.5C5.99992 12.6326 6.0526 12.7598 6.14636 12.8536C6.24013 12.9473 6.36731 13 6.49992 13H14.4999C14.6325 13 14.7597 12.9473 14.8535 12.8536C14.9472 12.7598 14.9999 12.6326 14.9999 12.5V3.5C14.9999 3.36739 14.9472 3.24021 14.8535 3.14645C14.7597 3.05268 14.6325 3 14.4999 3H6.49992C6.36731 3 6.24013 3.05268 6.14636 3.14645C6.0526 3.24021 5.99992 3.36739 5.99992 3.5V5.5C5.99992 5.63261 5.94724 5.75979 5.85347 5.85355C5.7597 5.94732 5.63253 6 5.49992 6C5.36731 6 5.24013 5.94732 5.14636 5.85355C5.0526 5.75979 4.99992 5.63261 4.99992 5.5V3.5C4.99992 3.10218 5.15795 2.72064 5.43926 2.43934C5.72056 2.15804 6.10209 2 6.49992 2H14.4999C14.8977 2 15.2793 2.15804 15.5606 2.43934C15.8419 2.72064 15.9999 3.10218 15.9999 3.5V12.5C15.9999 12.8978 15.8419 13.2794 15.5606 13.5607C15.2793 13.842 14.8977 14 14.4999 14H6.49992C6.10209 14 5.72056 13.842 5.43926 13.5607C5.15795 13.2794 4.99992 12.8978 4.99992 12.5V10.5C4.99992 10.3674 5.0526 10.2402 5.14636 10.1464C5.24013 10.0527 5.36731 10 5.49992 10C5.63253 10 5.7597 10.0527 5.85347 10.1464C5.94724 10.2402 5.99992 10.3674 5.99992 10.5V12.5Z"/> <path fill-rule="evenodd" clip-rule="evenodd" d="M0.145917 8.354C0.099354 8.30755 0.0624111 8.25238 0.0372047 8.19163C0.0119982 8.13089 -0.000976563 8.06577 -0.000976562 8C-0.000976563 7.93423 0.0119982 7.86911 0.0372047 7.80837C0.0624111 7.74762 0.099354 7.69245 0.145917 7.646L3.14592 4.646C3.19241 4.59951 3.24759 4.56264 3.30833 4.53748C3.36907 4.51232 3.43417 4.49937 3.49992 4.49937C3.56566 4.49937 3.63076 4.51232 3.6915 4.53748C3.75224 4.56264 3.80743 4.59951 3.85392 4.646C3.90041 4.69249 3.93728 4.74768 3.96244 4.80842C3.9876 4.86916 4.00055 4.93426 4.00055 5C4.00055 5.06574 3.9876 5.13084 3.96244 5.19158C3.93728 5.25232 3.90041 5.30751 3.85392 5.354L1.70692 7.5H10.4999C10.6325 7.5 10.7597 7.55268 10.8535 7.64645C10.9472 7.74021 10.9999 7.86739 10.9999 8C10.9999 8.13261 10.9472 8.25979 10.8535 8.35355C10.7597 8.44732 10.6325 8.5 10.4999 8.5H1.70692L3.85392 10.646C3.90041 10.6925 3.93728 10.7477 3.96244 10.8084C3.9876 10.8692 4.00055 10.9343 4.00055 11C4.00055 11.0657 3.9876 11.1308 3.96244 11.1916C3.93728 11.2523 3.90041 11.3075 3.85392 11.354C3.80743 11.4005 3.75224 11.4374 3.6915 11.4625C3.63076 11.4877 3.56566 11.5006 3.49992 11.5006C3.43417 11.5006 3.36907 11.4877 3.30833 11.4625C3.24759 11.4374 3.19241 11.4005 3.14592 11.354L0.145917 8.354Z"/> </g> <defs> <clipPath id="clip0_34_2947"> <rect width="16" height="16"/> </clipPath> </defs> </svg>