<svg width="16" height="16" viewBox="0 0 16 16" fill="none" xmlns="http://www.w3.org/2000/svg">
<g clip-path="url(#clip0_34_2915)">
<path d="M8.186 1.11303C8.06662 1.06519 7.93338 1.06519 7.814 1.11303L1.846 3.50003L8 5.96103L14.154 3.50003L8.186 1.11303ZM15 4.23903L8.5 6.83903V14.761L15 12.161V4.24003V4.23903ZM7.5 14.762V6.83803L1 4.23903V12.162L7.5 14.762ZM7.443 0.184033C7.80057 0.041032 8.19943 0.041032 8.557 0.184033L15.686 3.03603C15.7787 3.07318 15.8581 3.13723 15.9141 3.21992C15.9701 3.30262 16 3.40018 16 3.50003V12.162C15.9999 12.3619 15.9399 12.5571 15.8278 12.7225C15.7157 12.8879 15.5566 13.0159 15.371 13.09L8.186 15.964C8.06662 16.0119 7.93338 16.0119 7.814 15.964L0.63 13.09C0.444251 13.0161 0.284942 12.8881 0.172642 12.7227C0.0603417 12.5573 0.000206329 12.362 0 12.162L0 3.50003C2.32399e-05 3.40018 0.0299437 3.30262 0.085907 3.21992C0.14187 3.13723 0.221313 3.07318 0.314 3.03603L7.443 0.184033Z" fill="#212529"/>
</g>
<defs>
<clipPath id="clip0_34_2915">
<rect width="16" height="16" fill="white"/>
</clipPath>
</defs>
</svg>
