<svg width="16" height="16" viewBox="0 0 16 16" xmlns="http://www.w3.org/2000/svg"> <g clip-path="url(#clip0_34_2919)"> <path d="M3.75 0C3.59475 0 3.44164 0.0361451 3.30279 0.105573C3.16393 0.175001 3.04315 0.275804 2.95 0.4L0.1 4.2C0.0350889 4.28655 0 4.39181 0 4.5L0 15C0 15.2652 0.105357 15.5196 0.292893 15.7071C0.48043 15.8946 0.734784 16 1 16H15C15.2652 16 15.5196 15.8946 15.7071 15.7071C15.8946 15.5196 16 15.2652 16 15V4.5C16 4.39181 15.9649 4.28655 15.9 4.2L13.05 0.4C12.9569 0.275804 12.8361 0.175001 12.6972 0.105573C12.5584 0.0361451 12.4052 0 12.25 0L3.75 0ZM15 4.667V5H1V4.667L1.5 4H7.5V1H8.5V4H14.5L15 4.667Z"/> </g> <defs> <clipPath id="clip0_34_2919"> <rect width="16" height="16"/> </clipPath> </defs> </svg>