<svg width="16" height="16" viewBox="0 0 16 16" fill="none" xmlns="http://www.w3.org/2000/svg">
<g clip-path="url(#clip0_34_2957)">
<path d="M7.752 0.0659608C7.82753 0.0228156 7.91301 0.00012207 8 0.00012207C8.08699 0.00012207 8.17247 0.0228156 8.248 0.0659608L11.998 2.20896C12.0745 2.25267 12.1381 2.31584 12.1824 2.39205C12.2266 2.46827 12.25 2.55483 12.25 2.64296V6.63796L15.748 8.63796C15.8242 8.68151 15.8877 8.74436 15.9319 8.82019C15.9761 8.89602 15.9996 8.98217 16 9.06996V13.356C16 13.4441 15.9766 13.5307 15.9324 13.6069C15.8881 13.6831 15.8245 13.7462 15.748 13.79L11.998 15.933C11.9225 15.9761 11.837 15.9988 11.75 15.9988C11.663 15.9988 11.5775 15.9761 11.502 15.933L8 13.933L4.498 15.934C4.42247 15.9771 4.33699 15.9998 4.25 15.9998C4.16301 15.9998 4.07753 15.9771 4.002 15.934L0.252 13.791C0.175473 13.7472 0.11186 13.6841 0.0676055 13.6079C0.0233513 13.5317 2.8427e-05 13.4451 0 13.357L0 9.07096C2.8427e-05 8.98283 0.0233513 8.89627 0.0676055 8.82005C0.11186 8.74384 0.175473 8.68067 0.252 8.63696L3.75 6.63796V2.64296C3.75003 2.55483 3.77335 2.46827 3.81761 2.39205C3.86186 2.31584 3.92547 2.25267 4.002 2.20896L7.752 0.0659608ZM4.25 7.50396L1.508 9.07096L4.25 10.638L6.992 9.07096L4.25 7.50396ZM7.5 9.93296L4.75 11.504V14.638L7.5 13.067V9.93296ZM8.5 13.067L11.25 14.638V11.504L8.5 9.93296V13.067ZM9.008 9.07096L11.75 10.638L14.492 9.07096L11.75 7.50396L9.008 9.07096ZM11.25 6.63796V3.50396L8.5 5.07596V8.20996L11.25 6.63796ZM7.5 8.20996V5.07596L4.75 3.50396V6.63796L7.5 8.20996ZM5.258 2.64296L8 4.20996L10.742 2.64296L8 1.07596L5.258 2.64296ZM15 9.93296L12.25 11.504V14.638L15 13.067V9.93296ZM3.75 14.638V11.504L1 9.93296V13.067L3.75 14.638Z" fill="#212529"/>
</g>
<defs>
<clipPath id="clip0_34_2957">
<rect width="16" height="16" fill="white"/>
</clipPath>
</defs>
</svg>
