<svg width="16" height="16" viewBox="0 0 16 16" xmlns="http://www.w3.org/2000/svg"> <path fill-rule="evenodd" clip-rule="evenodd" d="M1.114 8.063V7.9C2.119 7.798 2.611 7.285 2.611 6.3V4.503C2.611 3.409 3.001 2.965 3.965 2.965H4.238V2H3.862C2.25 2 1.49 2.759 1.49 4.352V5.876C1.49 6.97 1.114 7.332 0 7.332V8.631C1.114 8.631 1.49 8.993 1.49 10.087V11.611C1.49 13.204 2.249 13.963 3.862 13.963H4.238V12.999H3.965C3.001 12.999 2.611 12.555 2.611 11.461V9.663C2.611 8.679 2.119 8.166 1.114 8.063ZM14.886 7.9V8.064C13.881 8.167 13.389 8.68 13.389 9.664V11.462C13.389 12.556 12.999 13 12.035 13H11.762V13.964H12.138C13.751 13.964 14.51 13.205 14.51 11.612V10.088C14.51 8.994 14.886 8.632 16 8.632V7.332C14.886 7.332 14.51 6.97 14.51 5.876V4.352C14.51 2.759 13.75 2 12.138 2H11.762V2.964H12.035C12.999 2.964 13.389 3.408 13.389 4.502V6.3C13.389 7.284 13.881 7.797 14.886 7.9ZM7.5 11.5V9.207L5.879 10.828L5.172 10.121L6.792 8.5H4.5V7.5H6.793L5.172 5.879L5.879 5.172L7.5 6.792V4.5H8.5V6.793L10.121 5.172L10.828 5.879L9.208 7.5H11.5V8.5H9.207L10.828 10.121L10.121 10.828L8.5 9.208V11.5H7.5Z"/> </svg>