<svg width="16" height="16" viewBox="0 0 16 16" xmlns="http://www.w3.org/2000/svg"> <g clip-path="url(#clip0_34_2989)"> <path d="M3.0498 3.05002C2.39972 3.70004 1.88404 4.47175 1.53221 5.32108C1.18038 6.1704 0.999298 7.08071 0.999298 8.00002C0.999298 8.91934 1.18038 9.82965 1.53221 10.679C1.88404 11.5283 2.39972 12.3 3.0498 12.95C3.14088 13.0443 3.19128 13.1706 3.19014 13.3017C3.189 13.4328 3.13642 13.5582 3.04371 13.6509C2.95101 13.7436 2.8256 13.7962 2.6945 13.7974C2.56341 13.7985 2.4371 13.7481 2.3428 13.657C1.59989 12.9142 1.01058 12.0322 0.608515 11.0616C0.206452 10.091 -0.000488281 9.05063 -0.000488281 8.00002C-0.000488281 6.94942 0.206452 5.90909 0.608515 4.93846C1.01058 3.96783 1.59989 3.0859 2.3428 2.34302C2.4371 2.25195 2.56341 2.20155 2.6945 2.20269C2.8256 2.20383 2.95101 2.25641 3.04371 2.34912C3.13642 2.44182 3.189 2.56723 3.19014 2.69832C3.19128 2.82942 3.14088 2.95572 3.0498 3.05002ZM5.1718 5.17202C4.42192 5.92214 4.00066 6.93937 4.00066 8.00002C4.00066 9.06068 4.42192 10.0779 5.1718 10.828C5.21829 10.8745 5.25517 10.9297 5.28033 10.9904C5.30549 11.0512 5.31843 11.1163 5.31843 11.182C5.31843 11.2478 5.30549 11.3129 5.28033 11.3736C5.25517 11.4343 5.21829 11.4895 5.1718 11.536C5.12532 11.5825 5.07013 11.6194 5.00939 11.6445C4.94865 11.6697 4.88355 11.6827 4.8178 11.6827C4.75206 11.6827 4.68696 11.6697 4.62622 11.6445C4.56548 11.6194 4.51029 11.5825 4.4638 11.536C3.99937 11.0717 3.63096 10.5205 3.3796 9.91375C3.12824 9.30703 2.99887 8.65674 2.99887 8.00002C2.99887 7.3433 3.12824 6.69302 3.3796 6.0863C3.63096 5.47959 3.99937 4.92834 4.4638 4.46403C4.55769 4.37014 4.68503 4.31739 4.8178 4.31739C4.95058 4.31739 5.07792 4.37014 5.1718 4.46403C5.26569 4.55791 5.31843 4.68525 5.31843 4.81802C5.31843 4.9508 5.26569 5.07814 5.1718 5.17202ZM10.8278 4.46403C10.8742 4.41746 10.9294 4.38052 10.9902 4.35531C11.0509 4.33011 11.116 4.31713 11.1818 4.31713C11.2476 4.31713 11.3127 4.33011 11.3734 4.35531C11.4342 4.38052 11.4894 4.41746 11.5358 4.46403C12.0002 4.92834 12.3687 5.47959 12.62 6.0863C12.8714 6.69302 13.0007 7.3433 13.0007 8.00002C13.0007 8.65674 12.8714 9.30703 12.62 9.91375C12.3687 10.5205 12.0002 11.0717 11.5358 11.536C11.4893 11.5825 11.4341 11.6194 11.3734 11.6445C11.3126 11.6697 11.2475 11.6827 11.1818 11.6827C11.1161 11.6827 11.051 11.6697 10.9902 11.6445C10.9295 11.6194 10.8743 11.5825 10.8278 11.536C10.7813 11.4895 10.7444 11.4343 10.7193 11.3736C10.6941 11.3129 10.6812 11.2478 10.6812 11.182C10.6812 11.1163 10.6941 11.0512 10.7193 10.9904C10.7444 10.9297 10.7813 10.8745 10.8278 10.828C11.5777 10.0779 11.9989 9.06068 11.9989 8.00002C11.9989 6.93937 11.5777 5.92214 10.8278 5.17202C10.7812 5.12558 10.7443 5.0704 10.7191 5.00966C10.6939 4.94891 10.6809 4.88379 10.6809 4.81802C10.6809 4.75226 10.6939 4.68714 10.7191 4.62639C10.7443 4.56565 10.7812 4.51047 10.8278 4.46403ZM12.9498 2.34403C13.0436 2.25029 13.1707 2.19763 13.3033 2.19763C13.4359 2.19763 13.563 2.25029 13.6568 2.34403C15.1569 3.84429 15.9996 5.87897 15.9996 8.00052C15.9996 10.1221 15.1569 12.1568 13.6568 13.657C13.5625 13.7481 13.4362 13.7985 13.3051 13.7974C13.174 13.7962 13.0486 13.7436 12.9559 13.6509C12.8632 13.5582 12.8106 13.4328 12.8095 13.3017C12.8083 13.1706 12.8587 13.0443 12.9498 12.95C13.5999 12.3 14.1156 11.5283 14.4674 10.679C14.8192 9.82965 15.0003 8.91934 15.0003 8.00002C15.0003 7.08071 14.8192 6.1704 14.4674 5.32108C14.1156 4.47175 13.5999 3.70004 12.9498 3.05002C12.8561 2.95626 12.8034 2.82911 12.8034 2.69653C12.8034 2.56394 12.8561 2.43679 12.9498 2.34302V2.34403ZM5.9998 8.00002C5.9999 7.62598 6.10488 7.25946 6.30284 6.94209C6.50079 6.62471 6.78378 6.36922 7.11966 6.20461C7.45554 6.04 7.83085 5.97288 8.20296 6.01088C8.57507 6.04887 8.92907 6.19046 9.22475 6.41955C9.52043 6.64864 9.74594 6.95606 9.87567 7.30689C10.0054 7.65772 10.0341 8.0379 9.95863 8.40424C9.88313 8.77059 9.70641 9.10842 9.44853 9.37937C9.19066 9.65031 8.86197 9.84351 8.4998 9.93703V15.5C8.4998 15.6326 8.44713 15.7598 8.35336 15.8536C8.25959 15.9473 8.13241 16 7.9998 16C7.8672 16 7.74002 15.9473 7.64625 15.8536C7.55248 15.7598 7.4998 15.6326 7.4998 15.5V9.93703C7.07041 9.82616 6.69004 9.57571 6.41851 9.22508C6.14698 8.87444 5.99969 8.4435 5.9998 8.00002Z"/> </g> <defs> <clipPath id="clip0_34_2989"> <rect width="16" height="16"/> </clipPath> </defs> </svg>