<svg width="16" height="16" viewBox="0 0 16 16" fill="none" xmlns="http://www.w3.org/2000/svg">
<g clip-path="url(#clip0_34_2991)">
<path d="M15.8248 0.120029C15.9069 0.190091 15.9641 0.284828 15.9879 0.390087C16.0116 0.495346 16.0007 0.605477 15.9568 0.704029C14.4268 4.13403 11.2138 8.87403 8.86178 11.344C8.20254 12.035 7.38948 12.5606 6.48878 12.878C6.47078 13.105 6.42878 13.416 6.32878 13.746C6.12778 14.405 5.66178 15.225 4.62078 15.486C3.61261 15.7261 2.5678 15.7709 1.54278 15.618C1.35218 15.5879 1.16426 15.5428 0.980775 15.483C0.811026 15.4314 0.652812 15.3475 0.514775 15.236C0.423747 15.1586 0.353604 15.0596 0.310775 14.948C0.257694 14.8049 0.259117 14.6472 0.314775 14.505C0.409775 14.26 0.630776 14.125 0.775775 14.053C1.16978 13.856 1.40078 13.6 1.64278 13.227C1.73778 13.083 1.82678 12.93 1.92978 12.755L2.04678 12.557C2.19778 12.302 2.37278 12.017 2.59278 11.709C3.12078 10.97 3.79378 10.784 4.33878 10.813C4.46478 10.82 4.58178 10.838 4.68678 10.861C4.74878 10.689 4.82878 10.481 4.92478 10.253C5.18578 9.63403 5.58278 8.83403 6.11178 8.18403C8.28778 5.51403 12.2918 1.97803 15.2288 0.0800287C15.3192 0.0216683 15.426 -0.0059617 15.5334 0.00124472C15.6408 0.00845115 15.743 0.0501094 15.8248 0.120029ZM4.70478 11.912C4.57208 11.8543 4.43024 11.8205 4.28578 11.812C4.03978 11.799 3.71278 11.862 3.40678 12.291C3.20978 12.566 3.05178 12.823 2.90678 13.068L2.80178 13.245C2.69578 13.426 2.58878 13.607 2.48178 13.773C2.27925 14.1012 2.02223 14.3923 1.72178 14.634C2.41178 14.746 3.45778 14.745 4.37878 14.514C4.93778 14.375 5.22178 13.945 5.37178 13.454C5.44418 13.2101 5.4865 12.9582 5.49778 12.704L4.70478 11.912ZM6.14478 11.938C6.26478 11.898 6.42178 11.838 6.60278 11.755C7.17884 11.4878 7.69954 11.1146 8.13777 10.655C10.0378 8.65903 12.5498 5.08503 14.1898 2.02403C11.5998 3.95103 8.62378 6.68403 6.88778 8.81603C6.44578 9.35903 6.09278 10.059 5.84578 10.642C5.72478 10.93 5.63178 11.182 5.57078 11.362V11.363L6.14578 11.938H6.14478ZM1.17178 14.978L1.17878 14.973C1.17663 14.9747 1.17427 14.976 1.17178 14.977V14.978ZM4.75378 11.935L4.75578 11.936H4.75378V11.935Z" fill="#212529"/>
</g>
<defs>
<clipPath id="clip0_34_2991">
<rect width="16" height="16" fill="white"/>
</clipPath>
</defs>
</svg>
