<svg width="16" height="16" viewBox="0 0 16 16" fill="none" xmlns="http://www.w3.org/2000/svg">
<path d="M4.978 0.854964C4.96128 0.78954 4.93148 0.728181 4.8904 0.674587C4.84932 0.620993 4.79781 0.576275 4.73898 0.543131C4.68015 0.509987 4.61521 0.489104 4.54809 0.481741C4.48096 0.474378 4.41304 0.480688 4.34842 0.50029C4.28381 0.519892 4.22383 0.55238 4.17211 0.595794C4.12039 0.639208 4.078 0.692649 4.04749 0.752893C4.01699 0.813137 3.999 0.878936 3.99462 0.94632C3.99024 1.0137 3.99955 1.08128 4.022 1.14496L4.432 2.49696C3.51277 3.43101 2.99833 4.68946 3 5.99996H13C13.0017 4.68946 12.4872 3.43101 11.568 2.49696L11.978 1.14496C12.0004 1.08128 12.0098 1.0137 12.0054 0.94632C12.001 0.878936 11.983 0.813137 11.9525 0.752893C11.922 0.692649 11.8796 0.639208 11.8279 0.595794C11.7762 0.55238 11.7162 0.519892 11.6516 0.50029C11.587 0.480688 11.519 0.474378 11.4519 0.481741C11.3848 0.489104 11.3199 0.509987 11.261 0.543131C11.2022 0.576275 11.1507 0.620993 11.1096 0.674587C11.0685 0.728181 11.0387 0.78954 11.022 0.854964L10.731 1.81096C9.91911 1.28035 8.9699 0.998474 8 0.999964C7.03011 0.998532 6.08091 1.28041 5.269 1.81096L4.978 0.854964Z" fill="#212529"/>
<path d="M13 5.99996V6.99996H8.5V15.975C9.73332 15.851 10.8766 15.2734 11.7081 14.3541C12.5396 13.4348 13 12.2395 13 11H13.5C13.6326 11 13.7598 11.0526 13.8536 11.1464C13.9473 11.2402 14 11.3674 14 11.5V12C14 12.1326 14.0527 12.2597 14.1464 12.3535C14.2402 12.4473 14.3674 12.5 14.5 12.5C14.6326 12.5 14.7598 12.4473 14.8536 12.3535C14.9473 12.2597 15 12.1326 15 12V11.5C15 11.1021 14.842 10.7206 14.5607 10.4393C14.2794 10.158 13.8978 9.99996 13.5 9.99996H13V8.99996H14.5C14.6326 8.99996 14.7598 8.94729 14.8536 8.85352C14.9473 8.75975 15 8.63257 15 8.49996C15 8.36736 14.9473 8.24018 14.8536 8.14641C14.7598 8.05264 14.6326 7.99996 14.5 7.99996H13V6.99996H13.5C13.8978 6.99996 14.2794 6.84193 14.5607 6.56062C14.842 6.27932 15 5.89779 15 5.49996V4.99996C15 4.86736 14.9473 4.74018 14.8536 4.64641C14.7598 4.55264 14.6326 4.49996 14.5 4.49996C14.3674 4.49996 14.2402 4.55264 14.1464 4.64641C14.0527 4.74018 14 4.86736 14 4.99996V5.49996C14 5.63257 13.9473 5.75975 13.8536 5.85352C13.7598 5.94729 13.6326 5.99996 13.5 5.99996H13ZM7.5 15.975V6.99996H3V5.99996H2.5C2.36739 5.99996 2.24021 5.94729 2.14645 5.85352C2.05268 5.75975 2 5.63257 2 5.49996V4.99996C2 4.86736 1.94732 4.74018 1.85355 4.64641C1.75979 4.55264 1.63261 4.49996 1.5 4.49996C1.36739 4.49996 1.24021 4.55264 1.14645 4.64641C1.05268 4.74018 1 4.86736 1 4.99996V5.49996C1 5.89779 1.15804 6.27932 1.43934 6.56062C1.72064 6.84193 2.10218 6.99996 2.5 6.99996H3V7.99996H1.5C1.36739 7.99996 1.24021 8.05264 1.14645 8.14641C1.05268 8.24018 1 8.36736 1 8.49996C1 8.63257 1.05268 8.75975 1.14645 8.85352C1.24021 8.94729 1.36739 8.99996 1.5 8.99996H3V9.99996H2.5C2.10218 9.99996 1.72064 10.158 1.43934 10.4393C1.15804 10.7206 1 11.1021 1 11.5V12C1 12.1326 1.05268 12.2597 1.14645 12.3535C1.24021 12.4473 1.36739 12.5 1.5 12.5C1.63261 12.5 1.75979 12.4473 1.85355 12.3535C1.94732 12.2597 2 12.1326 2 12V11.5C2 11.3674 2.05268 11.2402 2.14645 11.1464C2.24021 11.0526 2.36739 11 2.5 11H3C2.99998 12.2395 3.46038 13.4348 4.29188 14.3541C5.12337 15.2734 6.26668 15.851 7.5 15.975Z" fill="#212529"/>
</svg>
