<svg width="16" height="16" viewBox="0 0 16 16" xmlns="http://www.w3.org/2000/svg"> <g clip-path="url(#clip0_34_3097)"> <path d="M4.684 11.523V9.223H6.945V8.613H4.684V6.801H7.148V6.191H4V11.523H4.684ZM7.98 11.523H8.656V8.98C8.656 8.426 8.883 7.973 9.609 7.973C9.734 7.973 9.867 7.977 9.938 7.988V7.375C9.85391 7.36236 9.76903 7.35568 9.684 7.355C9.102 7.355 8.793 7.675 8.672 7.922H8.652V7.418H7.98V11.523ZM10.785 6.43C10.785 6.668 10.977 6.855 11.215 6.855C11.2729 6.8578 11.3307 6.84882 11.385 6.8286C11.4393 6.80838 11.489 6.77734 11.5309 6.73737C11.5729 6.69739 11.6063 6.64932 11.6291 6.59606C11.6519 6.54279 11.6637 6.48545 11.6637 6.4275C11.6637 6.36955 11.6519 6.31221 11.6291 6.25894C11.6063 6.20568 11.5729 6.15761 11.5309 6.11763C11.489 6.07766 11.4393 6.04662 11.385 6.0264C11.3307 6.00618 11.2729 5.9972 11.215 6C11.1584 5.99947 11.1022 6.01022 11.0498 6.03164C10.9974 6.05306 10.9498 6.08472 10.9098 6.12475C10.8697 6.16479 10.8381 6.21241 10.8166 6.26482C10.7952 6.31723 10.7845 6.37338 10.785 6.43ZM10.879 11.523H11.551V7.418H10.879V11.523Z"/> <path d="M3.5 0C3.63261 0 3.75979 0.0526784 3.85355 0.146447C3.94732 0.240215 4 0.367392 4 0.5V1H12V0.5C12 0.367392 12.0527 0.240215 12.1464 0.146447C12.2402 0.0526784 12.3674 0 12.5 0C12.6326 0 12.7598 0.0526784 12.8536 0.146447C12.9473 0.240215 13 0.367392 13 0.5V1H14C14.5304 1 15.0391 1.21071 15.4142 1.58579C15.7893 1.96086 16 2.46957 16 3V14C16 14.5304 15.7893 15.0391 15.4142 15.4142C15.0391 15.7893 14.5304 16 14 16H2C1.46957 16 0.960859 15.7893 0.585786 15.4142C0.210714 15.0391 0 14.5304 0 14V3C0 2.46957 0.210714 1.96086 0.585786 1.58579C0.960859 1.21071 1.46957 1 2 1H3V0.5C3 0.367392 3.05268 0.240215 3.14645 0.146447C3.24021 0.0526784 3.36739 0 3.5 0ZM1 4V14C1 14.2652 1.10536 14.5196 1.29289 14.7071C1.48043 14.8946 1.73478 15 2 15H14C14.2652 15 14.5196 14.8946 14.7071 14.7071C14.8946 14.5196 15 14.2652 15 14V4H1Z"/> </g> <defs> <clipPath id="clip0_34_3097"> <rect width="16" height="16"/> </clipPath> </defs> </svg>