<svg width="16" height="16" viewBox="0 0 16 16" fill="none" xmlns="http://www.w3.org/2000/svg">
<g clip-path="url(#clip0_34_3015)">
<path d="M10.854 8.146C10.9006 8.19245 10.9375 8.24762 10.9627 8.30837C10.9879 8.36911 11.0009 8.43423 11.0009 8.5C11.0009 8.56577 10.9879 8.63089 10.9627 8.69163C10.9375 8.75238 10.9006 8.80755 10.854 8.854L7.854 11.854C7.80755 11.9006 7.75238 11.9375 7.69163 11.9627C7.63089 11.9879 7.56577 12.0009 7.5 12.0009C7.43423 12.0009 7.36911 11.9879 7.30837 11.9627C7.24762 11.9375 7.19245 11.9006 7.146 11.854L5.646 10.354C5.59951 10.3075 5.56264 10.2523 5.53748 10.1916C5.51232 10.1308 5.49937 10.0657 5.49937 10C5.49937 9.93426 5.51232 9.86916 5.53748 9.80842C5.56264 9.74768 5.59951 9.69249 5.646 9.646C5.73989 9.55211 5.86722 9.49937 6 9.49937C6.06574 9.49937 6.13084 9.51232 6.19158 9.53748C6.25232 9.56264 6.30751 9.59951 6.354 9.646L7.5 10.793L10.146 8.146C10.1924 8.09944 10.2476 8.06249 10.3084 8.03729C10.3691 8.01208 10.4342 7.99911 10.5 7.99911C10.5658 7.99911 10.6309 8.01208 10.6916 8.03729C10.7524 8.06249 10.8076 8.09944 10.854 8.146Z" fill="#212529"/>
<path d="M3.5 0C3.63261 0 3.75979 0.0526784 3.85355 0.146447C3.94732 0.240215 4 0.367392 4 0.5V1H12V0.5C12 0.367392 12.0527 0.240215 12.1464 0.146447C12.2402 0.0526784 12.3674 0 12.5 0C12.6326 0 12.7598 0.0526784 12.8536 0.146447C12.9473 0.240215 13 0.367392 13 0.5V1H14C14.5304 1 15.0391 1.21071 15.4142 1.58579C15.7893 1.96086 16 2.46957 16 3V14C16 14.5304 15.7893 15.0391 15.4142 15.4142C15.0391 15.7893 14.5304 16 14 16H2C1.46957 16 0.960859 15.7893 0.585786 15.4142C0.210714 15.0391 0 14.5304 0 14V3C0 2.46957 0.210714 1.96086 0.585786 1.58579C0.960859 1.21071 1.46957 1 2 1H3V0.5C3 0.367392 3.05268 0.240215 3.14645 0.146447C3.24021 0.0526784 3.36739 0 3.5 0ZM2 2C1.73478 2 1.48043 2.10536 1.29289 2.29289C1.10536 2.48043 1 2.73478 1 3V14C1 14.2652 1.10536 14.5196 1.29289 14.7071C1.48043 14.8946 1.73478 15 2 15H14C14.2652 15 14.5196 14.8946 14.7071 14.7071C14.8946 14.5196 15 14.2652 15 14V3C15 2.73478 14.8946 2.48043 14.7071 2.29289C14.5196 2.10536 14.2652 2 14 2H2Z" fill="#212529"/>
<path d="M2.5 4C2.5 3.86739 2.55268 3.74021 2.64645 3.64645C2.74021 3.55268 2.86739 3.5 3 3.5H13C13.1326 3.5 13.2598 3.55268 13.3536 3.64645C13.4473 3.74021 13.5 3.86739 13.5 4V5C13.5 5.13261 13.4473 5.25979 13.3536 5.35355C13.2598 5.44732 13.1326 5.5 13 5.5H3C2.86739 5.5 2.74021 5.44732 2.64645 5.35355C2.55268 5.25979 2.5 5.13261 2.5 5V4Z" fill="#212529"/>
</g>
<defs>
<clipPath id="clip0_34_3015">
<rect width="16" height="16" fill="white"/>
</clipPath>
</defs>
</svg>
