<svg width="16" height="16" viewBox="0 0 16 16" fill="none" xmlns="http://www.w3.org/2000/svg">
<g clip-path="url(#clip0_34_3061)">
<path d="M6.146 8.146C6.19245 8.09944 6.24762 8.06249 6.30837 8.03729C6.36911 8.01208 6.43423 7.99911 6.5 7.99911C6.56577 7.99911 6.63089 8.01208 6.69163 8.03729C6.75238 8.06249 6.80755 8.09944 6.854 8.146L8 9.293L9.146 8.146C9.23989 8.05211 9.36722 7.99937 9.5 7.99937C9.63278 7.99937 9.76011 8.05211 9.854 8.146C9.94789 8.23989 10.0006 8.36722 10.0006 8.5C10.0006 8.63278 9.94789 8.76011 9.854 8.854L8.707 10L9.854 11.146C9.94789 11.2399 10.0006 11.3672 10.0006 11.5C10.0006 11.6328 9.94789 11.7601 9.854 11.854C9.76011 11.9479 9.63278 12.0006 9.5 12.0006C9.36722 12.0006 9.23989 11.9479 9.146 11.854L8 10.707L6.854 11.854C6.76011 11.9479 6.63278 12.0006 6.5 12.0006C6.36722 12.0006 6.23989 11.9479 6.146 11.854C6.05211 11.7601 5.99937 11.6328 5.99937 11.5C5.99937 11.3672 6.05211 11.2399 6.146 11.146L7.293 10L6.146 8.854C6.09944 8.80755 6.06249 8.75238 6.03729 8.69163C6.01208 8.63089 5.99911 8.56577 5.99911 8.5C5.99911 8.43423 6.01208 8.36911 6.03729 8.30837C6.06249 8.24762 6.09944 8.19245 6.146 8.146Z" fill="#212529"/>
<path d="M3.5 0C3.63261 0 3.75979 0.0526784 3.85355 0.146447C3.94732 0.240215 4 0.367392 4 0.5V1H12V0.5C12 0.367392 12.0527 0.240215 12.1464 0.146447C12.2402 0.0526784 12.3674 0 12.5 0C12.6326 0 12.7598 0.0526784 12.8536 0.146447C12.9473 0.240215 13 0.367392 13 0.5V1H14C14.5304 1 15.0391 1.21071 15.4142 1.58579C15.7893 1.96086 16 2.46957 16 3V14C16 14.5304 15.7893 15.0391 15.4142 15.4142C15.0391 15.7893 14.5304 16 14 16H2C1.46957 16 0.960859 15.7893 0.585786 15.4142C0.210714 15.0391 0 14.5304 0 14V3C0 2.46957 0.210714 1.96086 0.585786 1.58579C0.960859 1.21071 1.46957 1 2 1H3V0.5C3 0.367392 3.05268 0.240215 3.14645 0.146447C3.24021 0.0526784 3.36739 0 3.5 0ZM2 2C1.73478 2 1.48043 2.10536 1.29289 2.29289C1.10536 2.48043 1 2.73478 1 3V14C1 14.2652 1.10536 14.5196 1.29289 14.7071C1.48043 14.8946 1.73478 15 2 15H14C14.2652 15 14.5196 14.8946 14.7071 14.7071C14.8946 14.5196 15 14.2652 15 14V3C15 2.73478 14.8946 2.48043 14.7071 2.29289C14.5196 2.10536 14.2652 2 14 2H2Z" fill="#212529"/>
<path d="M2.5 4C2.5 3.86739 2.55268 3.74021 2.64645 3.64645C2.74021 3.55268 2.86739 3.5 3 3.5H13C13.1326 3.5 13.2598 3.55268 13.3536 3.64645C13.4473 3.74021 13.5 3.86739 13.5 4V5C13.5 5.13261 13.4473 5.25979 13.3536 5.35355C13.2598 5.44732 13.1326 5.5 13 5.5H3C2.86739 5.5 2.74021 5.44732 2.64645 5.35355C2.55268 5.25979 2.5 5.13261 2.5 5V4Z" fill="#212529"/>
</g>
<defs>
<clipPath id="clip0_34_3061">
<rect width="16" height="16" fill="white"/>
</clipPath>
</defs>
</svg>
