<svg width="16" height="16" viewBox="0 0 16 16" xmlns="http://www.w3.org/2000/svg"> <g clip-path="url(#clip0_34_3127)"> <path d="M6.146 7.146C6.19245 7.09944 6.24762 7.06249 6.30837 7.03729C6.36911 7.01208 6.43423 6.99911 6.5 6.99911C6.56577 6.99911 6.63089 7.01208 6.69163 7.03729C6.75238 7.06249 6.80755 7.09944 6.854 7.146L8 8.293L9.146 7.146C9.23989 7.05211 9.36722 6.99937 9.5 6.99937C9.63278 6.99937 9.76011 7.05211 9.854 7.146C9.94789 7.23989 10.0006 7.36722 10.0006 7.5C10.0006 7.63278 9.94789 7.76011 9.854 7.854L8.707 9L9.854 10.146C9.94789 10.2399 10.0006 10.3672 10.0006 10.5C10.0006 10.6328 9.94789 10.7601 9.854 10.854C9.76011 10.9479 9.63278 11.0006 9.5 11.0006C9.36722 11.0006 9.23989 10.9479 9.146 10.854L8 9.707L6.854 10.854C6.76011 10.9479 6.63278 11.0006 6.5 11.0006C6.36722 11.0006 6.23989 10.9479 6.146 10.854C6.05211 10.7601 5.99937 10.6328 5.99937 10.5C5.99937 10.3672 6.05211 10.2399 6.146 10.146L7.293 9L6.146 7.854C6.09944 7.80755 6.06249 7.75238 6.03729 7.69163C6.01208 7.63089 5.99911 7.56577 5.99911 7.5C5.99911 7.43423 6.01208 7.36911 6.03729 7.30837C6.06249 7.24762 6.09944 7.19245 6.146 7.146Z"/> <path d="M3.5 0C3.63261 0 3.75979 0.0526784 3.85355 0.146447C3.94732 0.240215 4 0.367392 4 0.5V1H12V0.5C12 0.367392 12.0527 0.240215 12.1464 0.146447C12.2402 0.0526784 12.3674 0 12.5 0C12.6326 0 12.7598 0.0526784 12.8536 0.146447C12.9473 0.240215 13 0.367392 13 0.5V1H14C14.5304 1 15.0391 1.21071 15.4142 1.58579C15.7893 1.96086 16 2.46957 16 3V14C16 14.5304 15.7893 15.0391 15.4142 15.4142C15.0391 15.7893 14.5304 16 14 16H2C1.46957 16 0.960859 15.7893 0.585786 15.4142C0.210714 15.0391 0 14.5304 0 14V3C0 2.46957 0.210714 1.96086 0.585786 1.58579C0.960859 1.21071 1.46957 1 2 1H3V0.5C3 0.367392 3.05268 0.240215 3.14645 0.146447C3.24021 0.0526784 3.36739 0 3.5 0ZM1 4V14C1 14.2652 1.10536 14.5196 1.29289 14.7071C1.48043 14.8946 1.73478 15 2 15H14C14.2652 15 14.5196 14.8946 14.7071 14.7071C14.8946 14.5196 15 14.2652 15 14V4H1Z"/> </g> <defs> <clipPath id="clip0_34_3127"> <rect width="16" height="16"/> </clipPath> </defs> </svg>