<svg width="16" height="16" viewBox="0 0 16 16" xmlns="http://www.w3.org/2000/svg"> <g clip-path="url(#clip0_34_3033)"> <path fill-rule="evenodd" clip-rule="evenodd" d="M4 0.5C4 0.367392 3.94732 0.240215 3.85355 0.146447C3.75979 0.0526784 3.63261 0 3.5 0C3.36739 0 3.24021 0.0526784 3.14645 0.146447C3.05268 0.240215 3 0.367392 3 0.5V1H2C1.46957 1 0.960859 1.21071 0.585786 1.58579C0.210714 1.96086 0 2.46957 0 3L0 14C0 14.5304 0.210714 15.0391 0.585786 15.4142C0.960859 15.7893 1.46957 16 2 16H14C14.5304 16 15.0391 15.7893 15.4142 15.4142C15.7893 15.0391 16 14.5304 16 14V3C16 2.46957 15.7893 1.96086 15.4142 1.58579C15.0391 1.21071 14.5304 1 14 1H13V0.5C13 0.367392 12.9473 0.240215 12.8536 0.146447C12.7598 0.0526784 12.6326 0 12.5 0C12.3674 0 12.2402 0.0526784 12.1464 0.146447C12.0527 0.240215 12 0.367392 12 0.5V1H4V0.5ZM1 3C1 2.73478 1.10536 2.48043 1.29289 2.29289C1.48043 2.10536 1.73478 2 2 2H14C14.2652 2 14.5196 2.10536 14.7071 2.29289C14.8946 2.48043 15 2.73478 15 3V14C15 14.2652 14.8946 14.5196 14.7071 14.7071C14.5196 14.8946 14.2652 15 14 15H2C1.73478 15 1.48043 14.8946 1.29289 14.7071C1.10536 14.5196 1 14.2652 1 14V3ZM3 3.5C2.86739 3.5 2.74021 3.55268 2.64645 3.64645C2.55268 3.74021 2.5 3.86739 2.5 4V5C2.5 5.13261 2.55268 5.25979 2.64645 5.35355C2.74021 5.44732 2.86739 5.5 3 5.5H13C13.1326 5.5 13.2598 5.44732 13.3536 5.35355C13.4473 5.25979 13.5 5.13261 13.5 5V4C13.5 3.86739 13.4473 3.74021 13.3536 3.64645C13.2598 3.55268 13.1326 3.5 13 3.5H3ZM8 7.993C9.664 6.282 13.825 9.276 8 13.125C2.175 9.275 6.336 6.282 8 7.993Z"/> </g> <defs> <clipPath id="clip0_34_3033"> <rect width="16" height="16"/> </clipPath> </defs> </svg>