<svg width="16" height="16" viewBox="0 0 16 16" xmlns="http://www.w3.org/2000/svg"> <g clip-path="url(#clip0_34_3147)"> <path fill-rule="evenodd" clip-rule="evenodd" d="M10.961 12.365C11.2462 12.061 11.4288 11.6752 11.483 11.262L14.593 12.644C14.7452 12.7118 14.912 12.7405 15.0781 12.7275C15.2443 12.7145 15.4045 12.6601 15.5443 12.5694C15.6841 12.4787 15.7991 12.3545 15.8786 12.208C15.9582 12.0616 15.9999 11.8976 16 11.731V4.26896C15.9999 4.10244 15.9581 3.93859 15.8786 3.79228C15.7991 3.64597 15.6843 3.52184 15.5446 3.43114C15.4049 3.34045 15.2449 3.28608 15.0788 3.27295C14.9128 3.25982 14.7462 3.28835 14.594 3.35596L11.483 4.73796C11.4195 4.25705 11.1833 3.81562 10.8185 3.49589C10.4537 3.17615 9.98509 2.9999 9.5 2.99996H4.272L10.962 12.365H10.961ZM0.847 3.36496C0.585222 3.54976 0.371653 3.79472 0.224258 4.07925C0.0768632 4.36377 -4.60143e-05 4.67953 2.06539e-08 4.99996V11C2.06539e-08 11.5304 0.210714 12.0391 0.585786 12.4142C0.960859 12.7892 1.46957 13 2 13H7.728L0.847 3.36596V3.36496ZM10.593 15.29L0.593 1.28996L1.407 0.709961L11.407 14.71L10.593 15.29Z"/> </g> <defs> <clipPath id="clip0_34_3147"> <rect width="16" height="16"/> </clipPath> </defs> </svg>