<svg width="16" height="16" viewBox="0 0 16 16" fill="none" xmlns="http://www.w3.org/2000/svg">
<g clip-path="url(#clip0_34_3151)">
<path d="M7.27006 1.04702C7.3636 0.94711 7.47665 0.867464 7.60222 0.813014C7.72778 0.758564 7.86319 0.730469 8.00006 0.730469C8.13692 0.730469 8.27233 0.758564 8.3979 0.813014C8.52346 0.867464 8.63652 0.94711 8.73006 1.04702L15.0751 7.81702C15.6751 8.45502 15.2211 9.50002 14.3451 9.50002H11.5001V10.5C11.5001 10.7652 11.3947 11.0196 11.2072 11.2071C11.0196 11.3947 10.7653 11.5 10.5001 11.5H5.50006C5.23484 11.5 4.98049 11.3947 4.79295 11.2071C4.60541 11.0196 4.50006 10.7652 4.50006 10.5V9.50002H1.65406C0.780057 9.50002 0.326057 8.45502 0.924057 7.81602L7.27006 1.04702ZM4.50006 13.5C4.50006 13.2348 4.60541 12.9805 4.79295 12.7929C4.98049 12.6054 5.23484 12.5 5.50006 12.5H10.5001C10.7653 12.5 11.0196 12.6054 11.2072 12.7929C11.3947 12.9805 11.5001 13.2348 11.5001 13.5V14.5C11.5001 14.7652 11.3947 15.0196 11.2072 15.2071C11.0196 15.3947 10.7653 15.5 10.5001 15.5H5.50006C5.23484 15.5 4.98049 15.3947 4.79295 15.2071C4.60541 15.0196 4.50006 14.7652 4.50006 14.5V13.5Z" fill="#212529"/>
</g>
<defs>
<clipPath id="clip0_34_3151">
<rect width="16" height="16" fill="white"/>
</clipPath>
</defs>
</svg>
