<svg width="16" height="16" viewBox="0 0 16 16" xmlns="http://www.w3.org/2000/svg"> <path d="M14.5 3C14.6326 3 14.7598 3.05268 14.8536 3.14645C14.9473 3.24021 15 3.36739 15 3.5V12.5C15 12.6326 14.9473 12.7598 14.8536 12.8536C14.7598 12.9473 14.6326 13 14.5 13H1.5C1.36739 13 1.24021 12.9473 1.14645 12.8536C1.05268 12.7598 1 12.6326 1 12.5V3.5C1 3.36739 1.05268 3.24021 1.14645 3.14645C1.24021 3.05268 1.36739 3 1.5 3H14.5ZM1.5 2C1.10218 2 0.720644 2.15804 0.43934 2.43934C0.158035 2.72064 0 3.10218 0 3.5V12.5C0 12.8978 0.158035 13.2794 0.43934 13.5607C0.720644 13.842 1.10218 14 1.5 14H14.5C14.8978 14 15.2794 13.842 15.5607 13.5607C15.842 13.2794 16 12.8978 16 12.5V3.5C16 3.10218 15.842 2.72064 15.5607 2.43934C15.2794 2.15804 14.8978 2 14.5 2H1.5Z"/> <path d="M7 5.5C7 5.36739 7.05268 5.24021 7.14645 5.14645C7.24021 5.05268 7.36739 5 7.5 5H12.5C12.6326 5 12.7598 5.05268 12.8536 5.14645C12.9473 5.24021 13 5.36739 13 5.5C13 5.63261 12.9473 5.75979 12.8536 5.85355C12.7598 5.94732 12.6326 6 12.5 6H7.5C7.36739 6 7.24021 5.94732 7.14645 5.85355C7.05268 5.75979 7 5.63261 7 5.5ZM5.504 4.646C5.55056 4.69245 5.58751 4.74762 5.61271 4.80837C5.63792 4.86911 5.65089 4.93423 5.65089 5C5.65089 5.06577 5.63792 5.13089 5.61271 5.19163C5.58751 5.25238 5.55056 5.30755 5.504 5.354L4.004 6.854C3.95755 6.90056 3.90238 6.93751 3.84163 6.96271C3.78089 6.98792 3.71577 7.00089 3.65 7.00089C3.58423 7.00089 3.51911 6.98792 3.45837 6.96271C3.39762 6.93751 3.34245 6.90056 3.296 6.854L2.796 6.354C2.74951 6.30751 2.71264 6.25232 2.68748 6.19158C2.66232 6.13084 2.64937 6.06574 2.64937 6C2.64937 5.86722 2.70211 5.73989 2.796 5.646C2.88989 5.55211 3.01722 5.49937 3.15 5.49937C3.28278 5.49937 3.41011 5.55211 3.504 5.646L3.65 5.793L4.796 4.646C4.84245 4.59944 4.89762 4.56249 4.95837 4.53729C5.01911 4.51208 5.08423 4.49911 5.15 4.49911C5.21577 4.49911 5.28089 4.51208 5.34163 4.53729C5.40238 4.56249 5.45755 4.59944 5.504 4.646ZM7 9.5C7 9.36739 7.05268 9.24021 7.14645 9.14645C7.24021 9.05268 7.36739 9 7.5 9H12.5C12.6326 9 12.7598 9.05268 12.8536 9.14645C12.9473 9.24021 13 9.36739 13 9.5C13 9.63261 12.9473 9.75979 12.8536 9.85355C12.7598 9.94732 12.6326 10 12.5 10H7.5C7.36739 10 7.24021 9.94732 7.14645 9.85355C7.05268 9.75979 7 9.63261 7 9.5ZM5.504 8.646C5.55056 8.69245 5.58751 8.74762 5.61271 8.80837C5.63792 8.86911 5.65089 8.93423 5.65089 9C5.65089 9.06577 5.63792 9.13089 5.61271 9.19163C5.58751 9.25238 5.55056 9.30755 5.504 9.354L4.004 10.854C3.95755 10.9006 3.90238 10.9375 3.84163 10.9627C3.78089 10.9879 3.71577 11.0009 3.65 11.0009C3.58423 11.0009 3.51911 10.9879 3.45837 10.9627C3.39762 10.9375 3.34245 10.9006 3.296 10.854L2.796 10.354C2.74951 10.3075 2.71264 10.2523 2.68748 10.1916C2.66232 10.1308 2.64937 10.0657 2.64937 10C2.64937 9.93426 2.66232 9.86916 2.68748 9.80842C2.71264 9.74768 2.74951 9.69249 2.796 9.646C2.84249 9.59951 2.89768 9.56264 2.95842 9.53748C3.01916 9.51232 3.08426 9.49937 3.15 9.49937C3.21574 9.49937 3.28084 9.51232 3.34158 9.53748C3.40232 9.56264 3.45751 9.59951 3.504 9.646L3.65 9.793L4.796 8.646C4.84245 8.59944 4.89762 8.56249 4.95837 8.53729C5.01911 8.51208 5.08423 8.49911 5.15 8.49911C5.21577 8.49911 5.28089 8.51208 5.34163 8.53729C5.40238 8.56249 5.45755 8.59944 5.504 8.646Z"/> </svg>