<svg width="16" height="16" viewBox="0 0 16 16" fill="none" xmlns="http://www.w3.org/2000/svg">
<g clip-path="url(#clip0_34_3175)">
<path d="M14 1C14.2652 1 14.5196 1.10536 14.7071 1.29289C14.8946 1.48043 15 1.73478 15 2V14C15 14.2652 14.8946 14.5196 14.7071 14.7071C14.5196 14.8946 14.2652 15 14 15H2C1.73478 15 1.48043 14.8946 1.29289 14.7071C1.10536 14.5196 1 14.2652 1 14V2C1 1.73478 1.10536 1.48043 1.29289 1.29289C1.48043 1.10536 1.73478 1 2 1H14ZM2 0C1.46957 0 0.960859 0.210714 0.585786 0.585786C0.210714 0.960859 0 1.46957 0 2V14C0 14.5304 0.210714 15.0391 0.585786 15.4142C0.960859 15.7893 1.46957 16 2 16H14C14.5304 16 15.0391 15.7893 15.4142 15.4142C15.7893 15.0391 16 14.5304 16 14V2C16 1.46957 15.7893 0.960859 15.4142 0.585786C15.0391 0.210714 14.5304 0 14 0H2Z" fill="#212529"/>
<path d="M10.205 12.456C10.2929 12.4165 10.3675 12.3524 10.4198 12.2715C10.4721 12.1906 10.5 12.0964 10.5 12V4C10.5 3.90362 10.4722 3.80928 10.4199 3.72835C10.3675 3.64742 10.2929 3.58334 10.205 3.54382C10.1171 3.50431 10.0196 3.49104 9.92437 3.50562C9.82909 3.5202 9.74007 3.562 9.668 3.626L5.168 7.626C5.11513 7.67291 5.0728 7.7305 5.04382 7.79497C5.01484 7.85944 4.99985 7.92932 4.99985 8C4.99985 8.07068 5.01484 8.14056 5.04382 8.20503C5.0728 8.2695 5.11513 8.32709 5.168 8.374L9.668 12.374C9.74009 12.438 9.82912 12.4797 9.92439 12.4943C10.0197 12.5088 10.1171 12.4955 10.205 12.456Z" fill="#212529"/>
</g>
<defs>
<clipPath id="clip0_34_3175">
<rect width="16" height="16" fill="white"/>
</clipPath>
</defs>
</svg>
