<svg width="16" height="16" viewBox="0 0 16 16" xmlns="http://www.w3.org/2000/svg"> <g clip-path="url(#clip0_34_3183)"> <path d="M14 1C14.2652 1 14.5196 1.10536 14.7071 1.29289C14.8946 1.48043 15 1.73478 15 2V14C15 14.2652 14.8946 14.5196 14.7071 14.7071C14.5196 14.8946 14.2652 15 14 15H2C1.73478 15 1.48043 14.8946 1.29289 14.7071C1.10536 14.5196 1 14.2652 1 14V2C1 1.73478 1.10536 1.48043 1.29289 1.29289C1.48043 1.10536 1.73478 1 2 1H14ZM2 0C1.46957 0 0.960859 0.210714 0.585786 0.585786C0.210714 0.960859 0 1.46957 0 2V14C0 14.5304 0.210714 15.0391 0.585786 15.4142C0.960859 15.7893 1.46957 16 2 16H14C14.5304 16 15.0391 15.7893 15.4142 15.4142C15.7893 15.0391 16 14.5304 16 14V2C16 1.46957 15.7893 0.960859 15.4142 0.585786C15.0391 0.210714 14.5304 0 14 0H2Z"/> <path d="M5.795 12.456C5.70712 12.4165 5.63253 12.3524 5.58019 12.2715C5.52785 12.1906 5.50001 12.0964 5.5 12V4C5.49997 3.90362 5.52781 3.80928 5.58014 3.72835C5.63248 3.64742 5.70709 3.58334 5.795 3.54382C5.88291 3.50431 5.98036 3.49104 6.07563 3.50562C6.17091 3.5202 6.25993 3.562 6.332 3.626L10.832 7.626C10.8849 7.67291 10.9272 7.7305 10.9562 7.79497C10.9852 7.85944 11.0002 7.92932 11.0002 8C11.0002 8.07068 10.9852 8.14056 10.9562 8.20503C10.9272 8.2695 10.8849 8.32709 10.832 8.374L6.332 12.374C6.25991 12.438 6.17088 12.4797 6.07561 12.4943C5.98034 12.5088 5.88289 12.4955 5.795 12.456Z"/> </g> <defs> <clipPath id="clip0_34_3183"> <rect width="16" height="16"/> </clipPath> </defs> </svg>