<svg width="16" height="16" viewBox="0 0 16 16" fill="none" xmlns="http://www.w3.org/2000/svg">
<path d="M3.20398 5H12.796L7.99998 10.481L3.20398 5ZM2.45098 5.659L7.24698 11.139C7.34084 11.2464 7.4566 11.3325 7.58647 11.3915C7.71635 11.4505 7.85734 11.481 7.99998 11.481C8.14262 11.481 8.28362 11.4505 8.41349 11.3915C8.54337 11.3325 8.65912 11.2464 8.75298 11.139L13.549 5.659C14.115 5.012 13.655 4 12.796 4H3.20398C3.01174 3.99984 2.82352 4.05509 2.66187 4.15914C2.50022 4.26319 2.37199 4.41164 2.29253 4.58669C2.21308 4.76175 2.18577 4.956 2.21387 5.14618C2.24197 5.33636 2.32429 5.51441 2.45098 5.659Z" fill="#212529"/>
</svg>
