<svg width="16" height="16" viewBox="0 0 16 16" xmlns="http://www.w3.org/2000/svg"> <path d="M7.646 9.354L3.854 13.146C3.78395 13.2159 3.73621 13.3049 3.71681 13.402C3.69741 13.499 3.70723 13.5996 3.74503 13.691C3.78282 13.7824 3.84689 13.8606 3.92912 13.9156C4.01136 13.9706 4.10806 14 4.207 14H11.793C11.892 14.0002 11.9889 13.9709 12.0713 13.916C12.1536 13.8611 12.2179 13.7829 12.2558 13.6915C12.2937 13.6 12.3036 13.4993 12.2842 13.4022C12.2649 13.3051 12.2171 13.2159 12.147 13.146L8.354 9.354C8.30755 9.30744 8.25238 9.27049 8.19163 9.24529C8.13089 9.22008 8.06577 9.20711 8 9.20711C7.93423 9.20711 7.86911 9.22008 7.80837 9.24529C7.74762 9.27049 7.69245 9.30744 7.646 9.354Z"/> <path d="M11.414 11H14.5C14.6326 11 14.7598 10.9473 14.8536 10.8536C14.9473 10.7598 15 10.6326 15 10.5V3.5C15 3.36739 14.9473 3.24021 14.8536 3.14645C14.7598 3.05268 14.6326 3 14.5 3H1.5C1.36739 3 1.24021 3.05268 1.14645 3.14645C1.05268 3.24021 1 3.36739 1 3.5V10.5C1 10.6326 1.05268 10.7598 1.14645 10.8536C1.24021 10.9473 1.36739 11 1.5 11H4.586L3.586 12H1.5C1.10218 12 0.720644 11.842 0.43934 11.5607C0.158035 11.2794 0 10.8978 0 10.5V3.5C0 3.10218 0.158035 2.72064 0.43934 2.43934C0.720644 2.15804 1.10218 2 1.5 2H14.5C14.8978 2 15.2794 2.15804 15.5607 2.43934C15.842 2.72064 16 3.10218 16 3.5V10.5C16 10.8978 15.842 11.2794 15.5607 11.5607C15.2794 11.842 14.8978 12 14.5 12H12.414L11.414 11Z"/> </svg>