<svg width="16" height="16" viewBox="0 0 16 16" xmlns="http://www.w3.org/2000/svg"> <path d="M2.678 11.894C2.7818 11.9982 2.86133 12.124 2.91094 12.2625C2.96055 12.4009 2.97901 12.5486 2.965 12.695C2.89472 13.3726 2.76148 14.0421 2.567 14.695C3.962 14.372 4.814 13.998 5.201 13.802C5.4205 13.6908 5.67329 13.6645 5.911 13.728C6.59243 13.9097 7.29477 14.0011 8 14C11.996 14 15 11.193 15 8C15 4.808 11.996 2 8 2C4.004 2 1 4.808 1 8C1 9.468 1.617 10.83 2.678 11.894ZM2.185 15.799C1.94807 15.846 1.71037 15.889 1.472 15.928C1.272 15.96 1.12 15.752 1.199 15.566C1.28779 15.3566 1.36918 15.1441 1.443 14.929L1.446 14.919C1.694 14.199 1.896 13.371 1.97 12.6C0.743 11.37 0 9.76 0 8C0 4.134 3.582 1 8 1C12.418 1 16 4.134 16 8C16 11.866 12.418 15 8 15C7.20765 15.0011 6.41859 14.8982 5.653 14.694C5.133 14.957 4.014 15.436 2.185 15.799Z"/> <path d="M7.066 6.76C6.87121 6.45665 6.58322 6.22471 6.24531 6.09906C5.90741 5.9734 5.53785 5.96081 5.19218 6.06319C4.84652 6.16556 4.54341 6.37735 4.32843 6.66675C4.11344 6.95614 3.99819 7.3075 4 7.668C4.00018 7.96653 4.08052 8.25954 4.23264 8.51641C4.38476 8.77329 4.60307 8.9846 4.86476 9.12826C5.12645 9.27193 5.42192 9.34269 5.7203 9.33315C6.01868 9.3236 6.30903 9.2341 6.561 9.074C6.43 9.463 6.186 9.878 5.784 10.294C5.70709 10.3736 5.66493 10.4804 5.66681 10.5911C5.66774 10.6459 5.67945 10.6999 5.70127 10.7502C5.72309 10.8004 5.7546 10.8459 5.794 10.884C5.8334 10.9221 5.87991 10.952 5.93088 10.9721C5.98185 10.9923 6.03628 11.0021 6.09107 11.0012C6.20172 10.9993 6.30709 10.9536 6.384 10.874C7.87 9.334 7.677 7.66 7.066 6.762V6.76ZM11.066 6.76C10.8712 6.45665 10.5832 6.22471 10.2453 6.09906C9.90741 5.9734 9.53785 5.96081 9.19218 6.06319C8.84652 6.16556 8.54341 6.37735 8.32843 6.66675C8.11344 6.95614 7.99819 7.3075 8 7.668C8.00018 7.96653 8.08052 8.25954 8.23264 8.51641C8.38476 8.77329 8.60307 8.9846 8.86476 9.12826C9.12645 9.27193 9.42192 9.34269 9.7203 9.33315C10.0187 9.3236 10.309 9.2341 10.561 9.074C10.43 9.463 10.186 9.878 9.784 10.294C9.74592 10.3334 9.71597 10.3799 9.69586 10.4309C9.67575 10.4819 9.66588 10.5363 9.66681 10.5911C9.66774 10.6459 9.67945 10.6999 9.70127 10.7502C9.72309 10.8004 9.7546 10.8459 9.794 10.884C9.8334 10.9221 9.87991 10.952 9.93088 10.9721C9.98185 10.9923 10.0363 11.0021 10.0911 11.0012C10.1459 11.0003 10.1999 10.9886 10.2502 10.9667C10.3004 10.9449 10.3459 10.9134 10.384 10.874C11.87 9.334 11.677 7.66 11.066 6.762V6.76Z"/> </svg>