<svg width="16" height="16" viewBox="0 0 16 16" xmlns="http://www.w3.org/2000/svg"> <g clip-path="url(#clip0_34_3249)"> <path d="M7.99999 3.99295C9.66399 2.28195 13.825 5.27595 7.99999 9.12495C2.17499 5.27495 6.33599 2.28195 7.99999 3.99295Z"/> <path fill-rule="evenodd" clip-rule="evenodd" d="M0.585786 0.585786C0.960859 0.210714 1.46957 0 2 0H14C14.5304 0 15.0391 0.210714 15.4142 0.585786C15.7893 0.960859 16 1.46957 16 2V10C16 10.5304 15.7893 11.0391 15.4142 11.4142C15.0391 11.7893 14.5304 12 14 12H4.414C4.14881 12.0001 3.89449 12.1055 3.707 12.293L0.854 15.146C0.784131 15.216 0.695051 15.2638 0.598036 15.2832C0.501021 15.3026 0.400432 15.2928 0.308999 15.255C0.217567 15.2172 0.139402 15.1531 0.0843973 15.0709C0.0293926 14.9886 2.10149e-05 14.8919 0 14.793V2C0 1.46957 0.210714 0.960859 0.585786 0.585786ZM14.7071 1.29289C14.5196 1.10536 14.2652 1 14 1H2C1.73478 1 1.48043 1.10536 1.29289 1.29289C1.10536 1.48043 1 1.73478 1 2V13.586L3 11.586C3.37499 11.2109 3.88361 11.0001 4.414 11H14C14.2652 11 14.5196 10.8946 14.7071 10.7071C14.8946 10.5196 15 10.2652 15 10V2C15 1.73478 14.8946 1.48043 14.7071 1.29289Z"/> </g> <defs> <clipPath id="clip0_34_3249"> <rect width="16" height="16"/> </clipPath> </defs> </svg>