<svg width="16" height="16" viewBox="0 0 16 16" xmlns="http://www.w3.org/2000/svg"> <g clip-path="url(#clip0_34_3273)"> <path d="M7.99999 3.99295C9.66399 2.28195 13.825 5.27595 7.99999 9.12495C2.17499 5.27495 6.33599 2.28195 7.99999 3.99295Z"/> <path fill-rule="evenodd" clip-rule="evenodd" d="M15.4142 0.585786C15.0391 0.210714 14.5304 0 14 0H2C1.46957 0 0.960859 0.210714 0.585786 0.585786C0.210714 0.960859 0 1.46957 0 2V10C0 10.5304 0.210714 11.0391 0.585786 11.4142C0.960859 11.7893 1.46957 12 2 12H11.586C11.8512 12.0001 12.1055 12.1055 12.293 12.293L15.146 15.146C15.2159 15.216 15.3049 15.2638 15.402 15.2832C15.499 15.3026 15.5996 15.2928 15.691 15.255C15.7824 15.2172 15.8606 15.1531 15.9156 15.0709C15.9706 14.9886 16 14.8919 16 14.793V2C16 1.46957 15.7893 0.960859 15.4142 0.585786ZM1.29289 1.29289C1.48043 1.10536 1.73478 1 2 1H14C14.2652 1 14.5196 1.10536 14.7071 1.29289C14.8946 1.48043 15 1.73478 15 2V13.586L13 11.586C12.625 11.2109 12.1164 11.0001 11.586 11H2C1.73478 11 1.48043 10.8946 1.29289 10.7071C1.10536 10.5196 1 10.2652 1 10V2C1 1.73478 1.10536 1.48043 1.29289 1.29289Z"/> </g> <defs> <clipPath id="clip0_34_3273"> <rect width="16" height="16"/> </clipPath> </defs> </svg>