<svg width="16" height="16" viewBox="0 0 16 16" xmlns="http://www.w3.org/2000/svg"> <g clip-path="url(#clip0_34_3275)"> <path d="M16 2C16 1.46957 15.7893 0.960859 15.4142 0.585786C15.0391 0.210714 14.5304 0 14 0L2 0C1.46957 0 0.960859 0.210714 0.585786 0.585786C0.210714 0.960859 0 1.46957 0 2L0 10C0 10.5304 0.210714 11.0391 0.585786 11.4142C0.960859 11.7893 1.46957 12 2 12H11.586C11.8512 12.0001 12.1055 12.1055 12.293 12.293L15.146 15.146C15.2159 15.216 15.3049 15.2638 15.402 15.2832C15.499 15.3026 15.5996 15.2928 15.691 15.255C15.7824 15.2172 15.8606 15.1531 15.9156 15.0709C15.9706 14.9886 16 14.8919 16 14.793V2ZM8 3.993C9.664 2.282 13.825 5.276 8 9.125C2.175 5.275 6.336 2.282 8 3.993Z"/> </g> <defs> <clipPath id="clip0_34_3275"> <rect width="16" height="16"/> </clipPath> </defs> </svg>