<svg width="16" height="16" viewBox="0 0 16 16" fill="none" xmlns="http://www.w3.org/2000/svg">
<g clip-path="url(#clip0_34_3293)">
<path d="M7.99999 3.99295C9.66399 2.28195 13.825 5.27595 7.99999 9.12495C2.17499 5.27495 6.33599 2.28195 7.99999 3.99295Z" fill="black"/>
<path fill-rule="evenodd" clip-rule="evenodd" d="M0.585786 0.585786C0.960859 0.210714 1.46957 0 2 0H14C14.5304 0 15.0391 0.210714 15.4142 0.585786C15.7893 0.960859 16 1.46957 16 2V10C16 10.5304 15.7893 11.0391 15.4142 11.4142C15.0391 11.7893 14.5304 12 14 12H11.5C11.3448 12 11.1916 12.0361 11.0528 12.1056C10.9139 12.175 10.7931 12.2758 10.7 12.4L8.8 14.933C8.70685 15.0572 8.58607 15.158 8.44721 15.2274C8.30836 15.2969 8.15524 15.333 8 15.333C7.84475 15.333 7.69164 15.2969 7.55279 15.2274C7.41393 15.158 7.29315 15.0572 7.2 14.933L5.3 12.4C5.20685 12.2758 5.08607 12.175 4.94721 12.1056C4.80836 12.0361 4.65525 12 4.5 12H2C1.46957 12 0.960859 11.7893 0.585786 11.4142C0.210714 11.0391 0 10.5304 0 10V2C0 1.46957 0.210714 0.960859 0.585786 0.585786ZM14.7071 1.29289C14.5196 1.10536 14.2652 1 14 1H2C1.73478 1 1.48043 1.10536 1.29289 1.29289C1.10536 1.48043 1 1.73478 1 2V10C1 10.2652 1.10536 10.5196 1.29289 10.7071C1.48043 10.8946 1.73478 11 2 11H4.5C4.81049 11 5.11672 11.0723 5.39443 11.2111C5.67214 11.35 5.91371 11.5516 6.1 11.8L8 14.333L9.9 11.8C10.0863 11.5516 10.3279 11.35 10.6056 11.2111C10.8833 11.0723 11.1895 11 11.5 11H14C14.2652 11 14.5196 10.8946 14.7071 10.7071C14.8946 10.5196 15 10.2652 15 10V2C15 1.73478 14.8946 1.48043 14.7071 1.29289Z" fill="black"/>
</g>
<defs>
<clipPath id="clip0_34_3293">
<rect width="16" height="16" fill="white"/>
</clipPath>
</defs>
</svg>
