<svg width="16" height="16" viewBox="0 0 16 16" xmlns="http://www.w3.org/2000/svg"> <g clip-path="url(#clip0_34_3253)"> <path d="M14 1C14.2652 1 14.5196 1.10536 14.7071 1.29289C14.8946 1.48043 15 1.73478 15 2V10C15 10.2652 14.8946 10.5196 14.7071 10.7071C14.5196 10.8946 14.2652 11 14 11H4.414C3.88361 11.0001 3.37499 11.2109 3 11.586L1 13.586V2C1 1.73478 1.10536 1.48043 1.29289 1.29289C1.48043 1.10536 1.73478 1 2 1H14ZM2 0C1.46957 0 0.960859 0.210714 0.585786 0.585786C0.210714 0.960859 0 1.46957 0 2V14.793C2.10149e-05 14.8919 0.0293926 14.9886 0.0843973 15.0709C0.139402 15.1531 0.217567 15.2172 0.308999 15.255C0.400432 15.2928 0.501021 15.3026 0.598036 15.2832C0.695051 15.2638 0.784131 15.216 0.854 15.146L3.707 12.293C3.89449 12.1055 4.14881 12.0001 4.414 12H14C14.5304 12 15.0391 11.7893 15.4142 11.4142C15.7893 11.0391 16 10.5304 16 10V2C16 1.46957 15.7893 0.960859 15.4142 0.585786C15.0391 0.210714 14.5304 0 14 0H2Z"/> <path d="M7.066 4.76C6.87121 4.45665 6.58322 4.22471 6.24531 4.09906C5.90741 3.9734 5.53785 3.96081 5.19218 4.06319C4.84652 4.16556 4.54341 4.37735 4.32843 4.66675C4.11344 4.95614 3.99819 5.3075 4 5.668C4.00018 5.96653 4.08052 6.25954 4.23264 6.51642C4.38476 6.77329 4.60307 6.9846 4.86476 7.12826C5.12645 7.27193 5.42192 7.34269 5.7203 7.33315C6.01868 7.3236 6.30903 7.2341 6.561 7.074C6.43 7.463 6.186 7.878 5.784 8.294C5.70709 8.37356 5.66493 8.48042 5.66681 8.59107C5.66868 8.70172 5.71444 8.80709 5.794 8.884C5.87357 8.96091 5.98042 9.00307 6.09107 9.00119C6.20172 8.99932 6.30709 8.95356 6.384 8.874C7.87 7.334 7.677 5.66 7.066 4.762V4.76ZM11.066 4.76C10.8712 4.45665 10.5832 4.22471 10.2453 4.09906C9.90741 3.9734 9.53785 3.96081 9.19218 4.06319C8.84652 4.16556 8.54341 4.37735 8.32843 4.66675C8.11344 4.95614 7.99819 5.3075 8 5.668C8.00018 5.96653 8.08052 6.25954 8.23264 6.51642C8.38476 6.77329 8.60307 6.9846 8.86476 7.12826C9.12645 7.27193 9.42192 7.34269 9.7203 7.33315C10.0187 7.3236 10.309 7.2341 10.561 7.074C10.43 7.463 10.186 7.878 9.784 8.294C9.70709 8.37356 9.66493 8.48042 9.66681 8.59107C9.66868 8.70172 9.71443 8.80709 9.794 8.884C9.87356 8.96091 9.98042 9.00307 10.0911 9.00119C10.2017 8.99932 10.3071 8.95356 10.384 8.874C11.87 7.334 11.677 5.66 11.066 4.762V4.76Z"/> </g> <defs> <clipPath id="clip0_34_3253"> <rect width="16" height="16"/> </clipPath> </defs> </svg>