<svg width="16" height="16" viewBox="0 0 16 16" xmlns="http://www.w3.org/2000/svg"> <g clip-path="url(#clip0_34_3313)"> <path d="M12.3541 4.35402C12.4006 4.30753 12.4375 4.25234 12.4627 4.1916C12.4878 4.13087 12.5008 4.06577 12.5008 4.00002C12.5008 3.93428 12.4878 3.86918 12.4627 3.80844C12.4375 3.7477 12.4006 3.69251 12.3541 3.64602C12.3077 3.59953 12.2525 3.56266 12.1917 3.5375C12.131 3.51234 12.0659 3.49939 12.0001 3.49939C11.9344 3.49939 11.8693 3.51234 11.8086 3.5375C11.7478 3.56266 11.6926 3.59953 11.6461 3.64602L5.00014 10.293L1.85414 7.14602C1.80766 7.09953 1.75247 7.06266 1.69173 7.0375C1.63099 7.01234 1.56589 6.99939 1.50014 6.99939C1.36737 6.99939 1.24003 7.05213 1.14614 7.14602C1.05226 7.23991 0.999512 7.36725 0.999512 7.50002C0.999512 7.6328 1.05226 7.76013 1.14614 7.85402L4.64614 11.354C4.69259 11.4006 4.74776 11.4375 4.80851 11.4627C4.86925 11.4879 4.93438 11.5009 5.00014 11.5009C5.06591 11.5009 5.13103 11.4879 5.19178 11.4627C5.25252 11.4375 5.3077 11.4006 5.35414 11.354L12.3541 4.35402ZM8.14614 11.354L7.25014 10.457L7.95714 9.75002L8.50014 10.293L15.1461 3.64602C15.24 3.55213 15.3674 3.49939 15.5001 3.49939C15.6329 3.49939 15.7603 3.55213 15.8541 3.64602C15.948 3.73991 16.0008 3.86725 16.0008 4.00002C16.0008 4.1328 15.948 4.26013 15.8541 4.35402L8.85414 11.354C8.8077 11.4006 8.75252 11.4375 8.69178 11.4627C8.63103 11.4879 8.56591 11.5009 8.50014 11.5009C8.43438 11.5009 8.36926 11.4879 8.30851 11.4627C8.24777 11.4375 8.19259 11.4006 8.14614 11.354Z"/> <path d="M5.35414 7.14602L6.25014 8.04302L5.54314 8.75002L4.64614 7.85402C4.55226 7.76013 4.49951 7.6328 4.49951 7.50002C4.49951 7.36725 4.55226 7.23991 4.64614 7.14602C4.74003 7.05213 4.86737 6.99939 5.00014 6.99939C5.13292 6.99939 5.26026 7.05213 5.35414 7.14602Z"/> </g> <defs> <clipPath id="clip0_34_3313"> <rect width="16" height="16"/> </clipPath> </defs> </svg>