<svg width="16" height="16" viewBox="0 0 16 16" xmlns="http://www.w3.org/2000/svg"> <path d="M8.97016 4.97004C9.11103 4.83593 9.29848 4.76179 9.49298 4.76326C9.68747 4.76473 9.87378 4.8417 10.0126 4.97793C10.1514 5.11416 10.2319 5.29899 10.237 5.49342C10.2422 5.68785 10.1716 5.87667 10.0402 6.02004L6.05016 11.01C5.98155 11.0839 5.89874 11.1432 5.80669 11.1844C5.71464 11.2256 5.61523 11.2478 5.51441 11.2496C5.41359 11.2515 5.31343 11.233 5.21991 11.1953C5.1264 11.1575 5.04146 11.1013 4.97016 11.03L2.32416 8.38404C2.25047 8.31538 2.19137 8.23258 2.15038 8.14058C2.10938 8.04858 2.08734 7.94927 2.08557 7.84857C2.08379 7.74786 2.10231 7.64783 2.14003 7.55445C2.17776 7.46106 2.2339 7.37622 2.30512 7.305C2.37634 7.23379 2.46117 7.17764 2.55456 7.13992C2.64795 7.1022 2.74798 7.08367 2.84868 7.08545C2.94938 7.08723 3.0487 7.10927 3.1407 7.15026C3.2327 7.19125 3.3155 7.25036 3.38416 7.32404L5.47816 9.41704L8.95016 4.99204C8.95639 4.98432 8.96306 4.97698 8.97016 4.97004ZM8.05016 10.11L8.97016 11.03C9.04144 11.1012 9.12632 11.1573 9.21974 11.1949C9.31316 11.2325 9.4132 11.251 9.5139 11.2491C9.6146 11.2472 9.71389 11.2251 9.80585 11.184C9.89781 11.143 9.98056 11.0838 10.0492 11.01L14.0412 6.02004C14.1129 5.94924 14.1696 5.86472 14.2079 5.77152C14.2462 5.67832 14.2654 5.57835 14.2642 5.47758C14.263 5.37682 14.2415 5.27732 14.2011 5.18504C14.1606 5.09276 14.1019 5.00958 14.0286 4.94047C13.9552 4.87137 13.8687 4.81775 13.7742 4.78282C13.6797 4.74789 13.5791 4.73237 13.4784 4.73718C13.3778 4.742 13.2791 4.76705 13.1883 4.81084C13.0976 4.85462 13.0166 4.91625 12.9502 4.99204L9.47716 9.41704L8.99216 8.93104L8.04916 10.11H8.05016Z"/> </svg>