<svg width="16" height="16" viewBox="0 0 16 16" fill="none" xmlns="http://www.w3.org/2000/svg">
<path d="M3 14.5C2.60218 14.5 2.22064 14.342 1.93934 14.0607C1.65804 13.7794 1.5 13.3978 1.5 13V3C1.5 2.60218 1.65804 2.22064 1.93934 1.93934C2.22064 1.65804 2.60218 1.5 3 1.5H11C11.1326 1.5 11.2598 1.55268 11.3536 1.64645C11.4473 1.74021 11.5 1.86739 11.5 2C11.5 2.13261 11.4473 2.25979 11.3536 2.35355C11.2598 2.44732 11.1326 2.5 11 2.5H3C2.86739 2.5 2.74021 2.55268 2.64645 2.64645C2.55268 2.74021 2.5 2.86739 2.5 3V13C2.5 13.1326 2.55268 13.2598 2.64645 13.3536C2.74021 13.4473 2.86739 13.5 3 13.5H13C13.1326 13.5 13.2598 13.4473 13.3536 13.3536C13.4473 13.2598 13.5 13.1326 13.5 13V8C13.5 7.86739 13.5527 7.74021 13.6464 7.64645C13.7402 7.55268 13.8674 7.5 14 7.5C14.1326 7.5 14.2598 7.55268 14.3536 7.64645C14.4473 7.74021 14.5 7.86739 14.5 8V13C14.5 13.3978 14.342 13.7794 14.0607 14.0607C13.7794 14.342 13.3978 14.5 13 14.5H3Z" fill="#212529"/>
<path d="M8.354 10.354L15.354 3.354C15.4005 3.30751 15.4374 3.25232 15.4625 3.19158C15.4877 3.13084 15.5006 3.06574 15.5006 3C15.5006 2.93426 15.4877 2.86916 15.4625 2.80842C15.4374 2.74768 15.4005 2.69249 15.354 2.646C15.3075 2.59951 15.2523 2.56264 15.1916 2.53748C15.1308 2.51232 15.0657 2.49937 15 2.49937C14.9343 2.49937 14.8692 2.51232 14.8084 2.53748C14.7477 2.56264 14.6925 2.59951 14.646 2.646L8 9.293L5.354 6.646C5.30751 6.59951 5.25232 6.56264 5.19158 6.53748C5.13084 6.51232 5.06574 6.49937 5 6.49937C4.93426 6.49937 4.86916 6.51232 4.80842 6.53748C4.74768 6.56264 4.69249 6.59951 4.646 6.646C4.59951 6.69249 4.56264 6.74768 4.53748 6.80842C4.51232 6.86916 4.49937 6.93426 4.49937 7C4.49937 7.06574 4.51232 7.13084 4.53748 7.19158C4.56264 7.25232 4.59951 7.30751 4.646 7.354L7.646 10.354C7.69245 10.4006 7.74762 10.4375 7.80837 10.4627C7.86911 10.4879 7.93423 10.5009 8 10.5009C8.06577 10.5009 8.13089 10.4879 8.19163 10.4627C8.25238 10.4375 8.30755 10.4006 8.354 10.354Z" fill="#212529"/>
</svg>
