<svg width="16" height="16" viewBox="0 0 16 16" xmlns="http://www.w3.org/2000/svg"> <path fill-rule="evenodd" clip-rule="evenodd" d="M3.6459 11.854C3.69235 11.9006 3.74752 11.9376 3.80827 11.9628C3.86901 11.988 3.93413 12.0009 3.9999 12.0009C4.06567 12.0009 4.13079 11.988 4.19154 11.9628C4.25228 11.9376 4.30746 11.9006 4.3539 11.854L7.9999 8.20705L11.6459 11.854C11.7398 11.9479 11.8671 12.0007 11.9999 12.0007C12.1327 12.0007 12.26 11.9479 12.3539 11.854C12.4478 11.7602 12.5005 11.6328 12.5005 11.5C12.5005 11.3673 12.4478 11.2399 12.3539 11.146L8.3539 7.14605C8.30746 7.09949 8.25228 7.06254 8.19154 7.03734C8.13079 7.01213 8.06567 6.99916 7.9999 6.99916C7.93413 6.99916 7.86901 7.01213 7.80827 7.03734C7.74752 7.06254 7.69235 7.09949 7.6459 7.14605L3.6459 11.146C3.59934 11.1925 3.5624 11.2477 3.53719 11.3084C3.51198 11.3692 3.49901 11.4343 3.49901 11.5C3.49901 11.5658 3.51198 11.6309 3.53719 11.6917C3.5624 11.7524 3.59934 11.8076 3.6459 11.854ZM2.3999 5.20005C2.3999 5.42005 2.5799 5.60005 2.7999 5.60005H13.1999C13.306 5.60005 13.4077 5.55791 13.4827 5.48289C13.5578 5.40788 13.5999 5.30614 13.5999 5.20005C13.5999 5.09396 13.5578 4.99222 13.4827 4.91721C13.4077 4.84219 13.306 4.80005 13.1999 4.80005H2.7999C2.69382 4.80005 2.59207 4.84219 2.51706 4.91721C2.44205 4.99222 2.3999 5.09396 2.3999 5.20005Z"/> </svg>