<svg width="16" height="16" viewBox="0 0 16 16" xmlns="http://www.w3.org/2000/svg"> <path fill-rule="evenodd" clip-rule="evenodd" d="M11.3539 1.64604C11.4005 1.69249 11.4374 1.74766 11.4626 1.80841C11.4878 1.86915 11.5008 1.93427 11.5008 2.00004C11.5008 2.06581 11.4878 2.13093 11.4626 2.19167C11.4374 2.25242 11.4005 2.30759 11.3539 2.35404L5.70692 8.00004L11.3539 13.646C11.4478 13.7399 11.5005 13.8673 11.5005 14C11.5005 14.1328 11.4478 14.2602 11.3539 14.354C11.26 14.4479 11.1327 14.5007 10.9999 14.5007C10.8671 14.5007 10.7398 14.4479 10.6459 14.354L4.64592 8.35404C4.59935 8.30759 4.56241 8.25242 4.5372 8.19167C4.512 8.13093 4.49902 8.06581 4.49902 8.00004C4.49902 7.93427 4.512 7.86915 4.5372 7.80841C4.56241 7.74766 4.59935 7.69248 4.64592 7.64604L10.6459 1.64604C10.6924 1.59948 10.7475 1.56253 10.8083 1.53733C10.869 1.51212 10.9341 1.49915 10.9999 1.49915C11.0657 1.49915 11.1308 1.51212 11.1916 1.53733C11.2523 1.56253 11.3075 1.59948 11.3539 1.64604Z"/> </svg>