<svg width="16" height="16" viewBox="0 0 16 16" xmlns="http://www.w3.org/2000/svg"> <path fill-rule="evenodd" clip-rule="evenodd" d="M7.77604 5.55298C7.84557 5.51814 7.92227 5.5 8.00004 5.5C8.07782 5.5 8.15451 5.51814 8.22404 5.55298L14.224 8.55298C14.2833 8.58209 14.3361 8.62263 14.3796 8.67226C14.4231 8.7219 14.4563 8.77965 14.4774 8.84219C14.4984 8.90473 14.5069 8.97082 14.5023 9.03664C14.4977 9.10247 14.4801 9.16673 14.4505 9.22573C14.421 9.28472 14.38 9.33728 14.33 9.38037C14.2801 9.42347 14.2221 9.45624 14.1594 9.47681C14.0967 9.49738 14.0305 9.50533 13.9647 9.50021C13.8989 9.49509 13.8348 9.477 13.776 9.44698L8.00004 6.55998L2.22404 9.44698C2.16528 9.477 2.10116 9.49509 2.03537 9.50021C1.96958 9.50533 1.90343 9.49738 1.84073 9.47681C1.77803 9.45624 1.72002 9.42347 1.67005 9.38037C1.62008 9.33728 1.57913 9.28472 1.54957 9.22573C1.52001 9.16673 1.50241 9.10247 1.4978 9.03664C1.49319 8.97082 1.50166 8.90473 1.52271 8.84219C1.54377 8.77965 1.57699 8.7219 1.62047 8.67226C1.66395 8.62263 1.71682 8.58209 1.77604 8.55298L7.77604 5.55298Z"/> </svg>