<svg width="16" height="16" viewBox="0 0 16 16" fill="none" xmlns="http://www.w3.org/2000/svg">
<path fill-rule="evenodd" clip-rule="evenodd" d="M7.64614 4.64604C7.69259 4.59948 7.74776 4.56253 7.80851 4.53733C7.86926 4.51212 7.93438 4.49915 8.00014 4.49915C8.06591 4.49915 8.13103 4.51212 8.19178 4.53733C8.25252 4.56253 8.3077 4.59948 8.35414 4.64604L14.3541 10.646C14.448 10.7399 14.5008 10.8673 14.5008 11C14.5008 11.1328 14.448 11.2602 14.3541 11.354C14.2603 11.4479 14.1329 11.5007 14.0001 11.5007C13.8674 11.5007 13.74 11.4479 13.6461 11.354L8.00014 5.70704L2.35414 11.354C2.26026 11.4479 2.13292 11.5007 2.00014 11.5007C1.86737 11.5007 1.74003 11.4479 1.64614 11.354C1.55226 11.2602 1.49951 11.1328 1.49951 11C1.49951 10.8673 1.55226 10.7399 1.64614 10.646L7.64614 4.64604Z" fill="#212529"/>
</svg>
