<svg width="16" height="16" viewBox="0 0 16 16" xmlns="http://www.w3.org/2000/svg"> <path fill-rule="evenodd" clip-rule="evenodd" d="M8.35392 1.64604C8.40048 1.69249 8.43742 1.74766 8.46263 1.80841C8.48784 1.86915 8.50081 1.93427 8.50081 2.00004C8.50081 2.06581 8.48784 2.13093 8.46263 2.19167C8.43742 2.25242 8.40048 2.30759 8.35392 2.35404L2.70692 8.00004L8.35392 13.646C8.4478 13.7399 8.50055 13.8673 8.50055 14C8.50055 14.1328 8.4478 14.2602 8.35392 14.354C8.26003 14.4479 8.13269 14.5007 7.99992 14.5007C7.86714 14.5007 7.7398 14.4479 7.64592 14.354L1.64592 8.35404C1.59935 8.30759 1.56241 8.25242 1.5372 8.19167C1.512 8.13093 1.49902 8.06581 1.49902 8.00004C1.49902 7.93427 1.512 7.86915 1.5372 7.80841C1.56241 7.74766 1.59935 7.69248 1.64592 7.64604L7.64592 1.64604C7.69236 1.59948 7.74754 1.56253 7.80828 1.53733C7.86903 1.51212 7.93415 1.49915 7.99992 1.49915C8.06568 1.49915 8.13081 1.51212 8.19155 1.53733C8.2523 1.56253 8.30747 1.59948 8.35392 1.64604Z"/> <path fill-rule="evenodd" clip-rule="evenodd" d="M12.3539 1.64604C12.4005 1.69249 12.4374 1.74766 12.4626 1.80841C12.4878 1.86915 12.5008 1.93427 12.5008 2.00004C12.5008 2.06581 12.4878 2.13093 12.4626 2.19167C12.4374 2.25242 12.4005 2.30759 12.3539 2.35404L6.70692 8.00004L12.3539 13.646C12.4004 13.6925 12.4373 13.7477 12.4624 13.8085C12.4876 13.8692 12.5005 13.9343 12.5005 14C12.5005 14.0658 12.4876 14.1309 12.4624 14.1916C12.4373 14.2524 12.4004 14.3076 12.3539 14.354C12.3074 14.4005 12.2522 14.4374 12.1915 14.4626C12.1308 14.4877 12.0657 14.5007 11.9999 14.5007C11.9342 14.5007 11.8691 14.4877 11.8083 14.4626C11.7476 14.4374 11.6924 14.4005 11.6459 14.354L5.64592 8.35404C5.59935 8.30759 5.56241 8.25242 5.5372 8.19167C5.512 8.13093 5.49902 8.06581 5.49902 8.00004C5.49902 7.93427 5.512 7.86915 5.5372 7.80841C5.56241 7.74766 5.59935 7.69248 5.64592 7.64604L11.6459 1.64604C11.6924 1.59948 11.7475 1.56253 11.8083 1.53733C11.869 1.51212 11.9341 1.49915 11.9999 1.49915C12.0657 1.49915 12.1308 1.51212 12.1916 1.53733C12.2523 1.56253 12.3075 1.59948 12.3539 1.64604Z"/> </svg>