<svg width="16" height="16" viewBox="0 0 16 16" fill="none" xmlns="http://www.w3.org/2000/svg">
<path fill-rule="evenodd" clip-rule="evenodd" d="M3.64592 9.14604C3.69236 9.09948 3.74754 9.06253 3.80828 9.03733C3.86903 9.01212 3.93415 8.99915 3.99992 8.99915C4.06568 8.99915 4.13081 9.01212 4.19155 9.03733C4.2523 9.06253 4.30747 9.09948 4.35392 9.14604L7.99992 12.793L11.6459 9.14604C11.7398 9.05215 11.8671 8.99941 11.9999 8.99941C12.1327 8.99941 12.26 9.05215 12.3539 9.14604C12.4478 9.23993 12.5005 9.36726 12.5005 9.50004C12.5005 9.63281 12.4478 9.76015 12.3539 9.85404L8.35392 13.854C8.30747 13.9006 8.2523 13.9375 8.19155 13.9628C8.13081 13.988 8.06568 14.0009 7.99992 14.0009C7.93415 14.0009 7.86903 13.988 7.80828 13.9628C7.74754 13.9375 7.69236 13.9006 7.64592 13.854L3.64592 9.85404C3.59935 9.80759 3.56241 9.75242 3.5372 9.69167C3.512 9.63093 3.49902 9.56581 3.49902 9.50004C3.49902 9.43427 3.512 9.36915 3.5372 9.30841C3.56241 9.24766 3.59935 9.19248 3.64592 9.14604ZM3.64592 6.85404C3.69236 6.9006 3.74754 6.93755 3.80828 6.96275C3.86903 6.98796 3.93415 7.00093 3.99992 7.00093C4.06568 7.00093 4.13081 6.98796 4.19155 6.96275C4.2523 6.93755 4.30747 6.9006 4.35392 6.85404L7.99992 3.20704L11.6459 6.85404C11.7398 6.94793 11.8671 7.00067 11.9999 7.00067C12.1327 7.00067 12.26 6.94793 12.3539 6.85404C12.4478 6.76015 12.5005 6.63281 12.5005 6.50004C12.5005 6.36726 12.4478 6.23993 12.3539 6.14604L8.35392 2.14604C8.30747 2.09948 8.2523 2.06253 8.19155 2.03733C8.13081 2.01212 8.06568 1.99915 7.99992 1.99915C7.93415 1.99915 7.86903 2.01212 7.80828 2.03733C7.74754 2.06253 7.69236 2.09948 7.64592 2.14604L3.64592 6.14604C3.59935 6.19248 3.56241 6.24766 3.5372 6.30841C3.512 6.36915 3.49902 6.43427 3.49902 6.50004C3.49902 6.56581 3.512 6.63093 3.5372 6.69167C3.56241 6.75242 3.59935 6.80759 3.64592 6.85404Z" fill="#212529"/>
</svg>
