<svg width="16" height="16" viewBox="0 0 16 16" xmlns="http://www.w3.org/2000/svg"> <path fill-rule="evenodd" clip-rule="evenodd" d="M6.77578 1.55298C6.89433 1.49358 7.03163 1.4837 7.15746 1.52552C7.2833 1.56734 7.38737 1.65743 7.44678 1.77598L10.4468 7.77598C10.4816 7.84551 10.4998 7.92221 10.4998 7.99998C10.4998 8.07775 10.4816 8.15445 10.4468 8.22398L7.44678 14.224C7.41768 14.2832 7.37714 14.3361 7.3275 14.3796C7.27786 14.423 7.22011 14.4563 7.15757 14.4773C7.09503 14.4984 7.02895 14.5068 6.96312 14.5022C6.8973 14.4976 6.83303 14.48 6.77404 14.4505C6.71505 14.4209 6.66249 14.3799 6.61939 14.33C6.5763 14.28 6.54352 14.222 6.52296 14.1593C6.50239 14.0966 6.49443 14.0304 6.49955 13.9647C6.50467 13.8989 6.52276 13.8347 6.55278 13.776L9.43978 7.99998L6.55278 2.22398C6.49338 2.10543 6.4835 1.96813 6.52532 1.8423C6.56714 1.71646 6.65723 1.61239 6.77578 1.55298Z"/> </svg>