<svg width="16" height="16" viewBox="0 0 16 16" xmlns="http://www.w3.org/2000/svg"> <path fill-rule="evenodd" clip-rule="evenodd" d="M3.64592 1.64604C3.69236 1.59948 3.74754 1.56253 3.80828 1.53733C3.86903 1.51212 3.93415 1.49915 3.99992 1.49915C4.06568 1.49915 4.13081 1.51212 4.19155 1.53733C4.2523 1.56253 4.30747 1.59948 4.35392 1.64604L10.3539 7.64604C10.4005 7.69248 10.4374 7.74766 10.4626 7.80841C10.4878 7.86915 10.5008 7.93427 10.5008 8.00004C10.5008 8.06581 10.4878 8.13093 10.4626 8.19167C10.4374 8.25242 10.4005 8.30759 10.3539 8.35404L4.35392 14.354C4.26003 14.4479 4.13269 14.5007 3.99992 14.5007C3.86714 14.5007 3.7398 14.4479 3.64592 14.354C3.55203 14.2602 3.49929 14.1328 3.49929 14C3.49929 13.8673 3.55203 13.7399 3.64592 13.646L9.29292 8.00004L3.64592 2.35404C3.59935 2.30759 3.56241 2.25242 3.5372 2.19167C3.512 2.13093 3.49902 2.06581 3.49902 2.00004C3.49902 1.93427 3.512 1.86915 3.5372 1.80841C3.56241 1.74766 3.59935 1.69249 3.64592 1.64604Z"/> <path fill-rule="evenodd" clip-rule="evenodd" d="M7.64592 1.64604C7.69236 1.59948 7.74754 1.56253 7.80828 1.53733C7.86903 1.51212 7.93415 1.49915 7.99992 1.49915C8.06568 1.49915 8.13081 1.51212 8.19155 1.53733C8.2523 1.56253 8.30747 1.59948 8.35392 1.64604L14.3539 7.64604C14.4005 7.69248 14.4374 7.74766 14.4626 7.80841C14.4878 7.86915 14.5008 7.93427 14.5008 8.00004C14.5008 8.06581 14.4878 8.13093 14.4626 8.19167C14.4374 8.25242 14.4005 8.30759 14.3539 8.35404L8.35392 14.354C8.26003 14.4479 8.13269 14.5007 7.99992 14.5007C7.86714 14.5007 7.7398 14.4479 7.64592 14.354C7.55203 14.2602 7.49929 14.1328 7.49929 14C7.49929 13.8673 7.55203 13.7399 7.64592 13.646L13.2929 8.00004L7.64592 2.35404C7.59935 2.30759 7.56241 2.25242 7.5372 2.19167C7.512 2.13093 7.49902 2.06581 7.49902 2.00004C7.49902 1.93427 7.512 1.86915 7.5372 1.80841C7.56241 1.74766 7.59935 1.69249 7.64592 1.64604Z"/> </svg>