<svg width="16" height="16" viewBox="0 0 16 16" xmlns="http://www.w3.org/2000/svg"> <path fill-rule="evenodd" clip-rule="evenodd" d="M3.646 14.854C3.69245 14.9006 3.74762 14.9375 3.80837 14.9628C3.86911 14.988 3.93423 15.0009 4 15.0009C4.06577 15.0009 4.13089 14.988 4.19163 14.9628C4.25238 14.9375 4.30755 14.9006 4.354 14.854L8 11.207L11.646 14.854C11.7399 14.9479 11.8672 15.0007 12 15.0007C12.1328 15.0007 12.2601 14.9479 12.354 14.854C12.4479 14.7602 12.5006 14.6328 12.5006 14.5C12.5006 14.3673 12.4479 14.2399 12.354 14.146L8.354 10.146C8.30755 10.0995 8.25238 10.0625 8.19163 10.0373C8.13089 10.0121 8.06577 9.99915 8 9.99915C7.93423 9.99915 7.86911 10.0121 7.80837 10.0373C7.74762 10.0625 7.69245 10.0995 7.646 10.146L3.646 14.146C3.59944 14.1925 3.56249 14.2477 3.53729 14.3084C3.51208 14.3692 3.49911 14.4343 3.49911 14.5C3.49911 14.5658 3.51208 14.6309 3.53729 14.6917C3.56249 14.7524 3.59944 14.8076 3.646 14.854ZM3.646 1.14604C3.69245 1.09948 3.74762 1.06253 3.80837 1.03733C3.86911 1.01212 3.93423 0.999146 4 0.999146C4.06577 0.999146 4.13089 1.01212 4.19163 1.03733C4.25238 1.06253 4.30755 1.09948 4.354 1.14604L8 4.79304L11.646 1.14604C11.7399 1.05215 11.8672 0.999408 12 0.999408C12.1328 0.999408 12.2601 1.05215 12.354 1.14604C12.4479 1.23993 12.5006 1.36726 12.5006 1.50004C12.5006 1.63282 12.4479 1.76015 12.354 1.85404L8.354 5.85404C8.30755 5.9006 8.25238 5.93755 8.19163 5.96275C8.13089 5.98796 8.06577 6.00093 8 6.00093C7.93423 6.00093 7.86911 5.98796 7.80837 5.96275C7.74762 5.93755 7.69245 5.9006 7.646 5.85404L3.646 1.85404C3.59944 1.80759 3.56249 1.75242 3.53729 1.69167C3.51208 1.63093 3.49911 1.56581 3.49911 1.50004C3.49911 1.43427 3.51208 1.36915 3.53729 1.30841C3.56249 1.24766 3.59944 1.19248 3.646 1.14604ZM1 8.00004C1 7.86743 1.05268 7.74025 1.14645 7.64649C1.24021 7.55272 1.36739 7.50004 1.5 7.50004H14.5C14.6326 7.50004 14.7598 7.55272 14.8536 7.64649C14.9473 7.74025 15 7.86743 15 8.00004C15 8.13265 14.9473 8.25982 14.8536 8.35359C14.7598 8.44736 14.6326 8.50004 14.5 8.50004H1.5C1.36739 8.50004 1.24021 8.44736 1.14645 8.35359C1.05268 8.25982 1 8.13265 1 8.00004Z"/> </svg>