<svg width="16" height="16" viewBox="0 0 16 16" xmlns="http://www.w3.org/2000/svg"> <path fill-rule="evenodd" clip-rule="evenodd" d="M3.646 4.14604C3.69245 4.09948 3.74762 4.06253 3.80837 4.03733C3.86911 4.01212 3.93423 3.99915 4 3.99915C4.06577 3.99915 4.13089 4.01212 4.19163 4.03733C4.25238 4.06253 4.30755 4.09948 4.354 4.14604L8 7.79304L11.646 4.14604C11.7399 4.05215 11.8672 3.99941 12 3.99941C12.1328 3.99941 12.2601 4.05215 12.354 4.14604C12.4479 4.23993 12.5006 4.36726 12.5006 4.50004C12.5006 4.63282 12.4479 4.76015 12.354 4.85404L8.354 8.85404C8.30755 8.9006 8.25238 8.93754 8.19163 8.96275C8.13089 8.98796 8.06577 9.00093 8 9.00093C7.93423 9.00093 7.86911 8.98796 7.80837 8.96275C7.74762 8.93754 7.69245 8.9006 7.646 8.85404L3.646 4.85404C3.59944 4.80759 3.56249 4.75242 3.53729 4.69167C3.51208 4.63093 3.49911 4.56581 3.49911 4.50004C3.49911 4.43427 3.51208 4.36915 3.53729 4.30841C3.56249 4.24766 3.59944 4.19248 3.646 4.14604ZM1 11.5C1 11.3674 1.05268 11.2403 1.14645 11.1465C1.24021 11.0527 1.36739 11 1.5 11H14.5C14.6326 11 14.7598 11.0527 14.8536 11.1465C14.9473 11.2403 15 11.3674 15 11.5C15 11.6326 14.9473 11.7598 14.8536 11.8536C14.7598 11.9474 14.6326 12 14.5 12H1.5C1.36739 12 1.24021 11.9474 1.14645 11.8536C1.05268 11.7598 1 11.6326 1 11.5Z"/> </svg>