<svg width="16" height="16" viewBox="0 0 16 16" fill="none" xmlns="http://www.w3.org/2000/svg">
<path fill-rule="evenodd" clip-rule="evenodd" d="M4.14592 3.646C4.09935 3.69245 4.06241 3.74762 4.0372 3.80837C4.012 3.86911 3.99902 3.93423 3.99902 4C3.99902 4.06577 4.012 4.13089 4.0372 4.19163C4.06241 4.25238 4.09935 4.30755 4.14592 4.354L7.79292 8L4.14592 11.646C4.05203 11.7399 3.99929 11.8672 3.99929 12C3.99929 12.1328 4.05203 12.2601 4.14592 12.354C4.2398 12.4479 4.36714 12.5006 4.49992 12.5006C4.63269 12.5006 4.76003 12.4479 4.85392 12.354L8.85392 8.354C8.90048 8.30755 8.93742 8.25238 8.96263 8.19163C8.98784 8.13089 9.00081 8.06577 9.00081 8C9.00081 7.93423 8.98784 7.86911 8.96263 7.80837C8.93742 7.74762 8.90048 7.69245 8.85392 7.646L4.85392 3.646C4.80747 3.59944 4.7523 3.56249 4.69155 3.53729C4.63081 3.51208 4.56568 3.49911 4.49992 3.49911C4.43415 3.49911 4.36903 3.51208 4.30828 3.53729C4.24754 3.56249 4.19236 3.59944 4.14592 3.646ZM11.4999 1C11.6325 1 11.7597 1.05268 11.8535 1.14645C11.9472 1.24021 11.9999 1.36739 11.9999 1.5V14.5C11.9999 14.6326 11.9472 14.7598 11.8535 14.8536C11.7597 14.9473 11.6325 15 11.4999 15C11.3673 15 11.2401 14.9473 11.1464 14.8536C11.0526 14.7598 10.9999 14.6326 10.9999 14.5V1.5C10.9999 1.36739 11.0526 1.24021 11.1464 1.14645C11.2401 1.05268 11.3673 1 11.4999 1Z" fill="#212529"/>
</svg>
