<svg width="16" height="16" viewBox="0 0 16 16" xmlns="http://www.w3.org/2000/svg"> <path d="M9.5 0C9.63261 0 9.75979 0.0526784 9.85355 0.146447C9.94732 0.240215 10 0.367392 10 0.5C10 0.632608 10.0527 0.759785 10.1464 0.853553C10.2402 0.947322 10.3674 1 10.5 1C10.6326 1 10.7598 1.05268 10.8536 1.14645C10.9473 1.24021 11 1.36739 11 1.5V2C11 2.13261 10.9473 2.25979 10.8536 2.35355C10.7598 2.44732 10.6326 2.5 10.5 2.5H5.5C5.36739 2.5 5.24021 2.44732 5.14645 2.35355C5.05268 2.25979 5 2.13261 5 2V1.5C5 1.36739 5.05268 1.24021 5.14645 1.14645C5.24021 1.05268 5.36739 1 5.5 1C5.63261 1 5.75979 0.947322 5.85355 0.853553C5.94732 0.759785 6 0.632608 6 0.5C6 0.367392 6.05268 0.240215 6.14645 0.146447C6.24021 0.0526784 6.36739 0 6.5 0H9.5Z"/> <path d="M3 2.5C3 2.36739 3.05268 2.24021 3.14645 2.14645C3.24021 2.05268 3.36739 2 3.5 2H4C4.13261 2 4.25979 1.94732 4.35355 1.85355C4.44732 1.75979 4.5 1.63261 4.5 1.5C4.5 1.36739 4.44732 1.24021 4.35355 1.14645C4.25979 1.05268 4.13261 1 4 1H3.5C3.10218 1 2.72064 1.15804 2.43934 1.43934C2.15804 1.72064 2 2.10218 2 2.5V14.5C2 14.8978 2.15804 15.2794 2.43934 15.5607C2.72064 15.842 3.10218 16 3.5 16H12.5C12.8978 16 13.2794 15.842 13.5607 15.5607C13.842 15.2794 14 14.8978 14 14.5V2.5C14 2.10218 13.842 1.72064 13.5607 1.43934C13.2794 1.15804 12.8978 1 12.5 1H12C11.8674 1 11.7402 1.05268 11.6464 1.14645C11.5527 1.24021 11.5 1.36739 11.5 1.5C11.5 1.63261 11.5527 1.75979 11.6464 1.85355C11.7402 1.94732 11.8674 2 12 2H12.5C12.6326 2 12.7598 2.05268 12.8536 2.14645C12.9473 2.24021 13 2.36739 13 2.5V14.5C13 14.6326 12.9473 14.7598 12.8536 14.8536C12.7598 14.9473 12.6326 15 12.5 15H3.5C3.36739 15 3.24021 14.9473 3.14645 14.8536C3.05268 14.7598 3 14.6326 3 14.5V2.5Z"/> <path d="M9.79019 5.09275C9.88064 5.15717 9.94707 5.24988 9.979 5.35624L11.372 10.0002H11.5C11.6326 10.0002 11.7598 10.0529 11.8536 10.1467C11.9473 10.2404 12 10.3676 12 10.5002C12 10.6328 11.9473 10.76 11.8536 10.8538C11.7598 10.9476 11.6326 11.0002 11.5 11.0002H11C10.8925 11.0006 10.7877 10.9662 10.7012 10.9022C10.6147 10.8383 10.5512 10.7482 10.52 10.6452L9.58 7.51023L8.489 12.6042C8.46595 12.7129 8.4074 12.8107 8.32258 12.8824C8.23775 12.9541 8.13148 12.9955 8.02053 13C7.90958 13.0046 7.80025 12.9721 7.70981 12.9077C7.61936 12.8433 7.55293 12.7506 7.521 12.6442L6.383 8.85123L5.447 10.7242C5.40544 10.8072 5.34161 10.8769 5.26267 10.9257C5.18373 10.9744 5.09278 11.0002 5 11.0002H4.5C4.36739 11.0002 4.24021 10.9476 4.14645 10.8538C4.05268 10.76 4 10.6328 4 10.5002C4 10.3676 4.05268 10.2404 4.14645 10.1467C4.24021 10.0529 4.36739 10.0002 4.5 10.0002H4.69L6.054 7.27524C6.09883 7.18567 6.16952 7.11164 6.25691 7.06272C6.34431 7.0138 6.44438 6.99226 6.54416 7.00088C6.64394 7.0095 6.73883 7.04789 6.81654 7.11107C6.89425 7.17425 6.9512 7.25931 6.98 7.35524L7.92 10.4902L9.011 5.39623C9.03405 5.2876 9.0926 5.18974 9.17742 5.11807C9.26225 5.0464 9.36852 5.00501 9.47947 5.00043C9.59042 4.99584 9.69975 5.02832 9.79019 5.09275Z"/> </svg>