<svg width="16" height="16" viewBox="0 0 16 16" xmlns="http://www.w3.org/2000/svg"> <path d="M9.85355 0.146447C9.94732 0.240215 10 0.367392 10 0.5C10 0.632608 10.0527 0.759785 10.1464 0.853553C10.2402 0.947322 10.3674 1 10.5 1C10.6326 1 10.7598 1.05268 10.8536 1.14645C10.9473 1.24021 11 1.36739 11 1.5V2C11 2.13261 10.9473 2.25979 10.8536 2.35355C10.7598 2.44732 10.6326 2.5 10.5 2.5H5.5C5.36739 2.5 5.24021 2.44732 5.14645 2.35355C5.05268 2.25979 5 2.13261 5 2V1.5C5 1.36739 5.05268 1.24021 5.14645 1.14645C5.24021 1.05268 5.36739 1 5.5 1C5.63261 1 5.75979 0.947322 5.85355 0.853553C5.94732 0.759785 6 0.632608 6 0.5C6 0.367392 6.05268 0.240215 6.14645 0.146447C6.24021 0.0526784 6.36739 0 6.5 0H9.5C9.63261 0 9.75979 0.0526784 9.85355 0.146447Z"/> <path fill-rule="evenodd" clip-rule="evenodd" d="M3.5 1H4.085C4.03 1.156 4 1.325 4 1.5V2C4 2.39782 4.15804 2.77936 4.43934 3.06066C4.72064 3.34196 5.10218 3.5 5.5 3.5H10.5C10.8978 3.5 11.2794 3.34196 11.5607 3.06066C11.842 2.77936 12 2.39782 12 2V1.5C12 1.325 11.97 1.156 11.915 1H12.5C12.8978 1 13.2794 1.15804 13.5607 1.43934C13.842 1.72064 14 2.10218 14 2.5V14.5C14 14.8978 13.842 15.2794 13.5607 15.5607C13.2794 15.842 12.8978 16 12.5 16H3.5C3.10218 16 2.72064 15.842 2.43934 15.5607C2.15804 15.2794 2 14.8978 2 14.5V2.5C2 2.10218 2.15804 1.72064 2.43934 1.43934C2.72064 1.15804 3.10218 1 3.5 1ZM10 8H6C5.86739 8 5.74021 8.05268 5.64645 8.14645C5.55268 8.24021 5.5 8.36739 5.5 8.5C5.5 8.63261 5.55268 8.75979 5.64645 8.85355C5.74021 8.94732 5.86739 9 6 9H10C10.1326 9 10.2598 8.94732 10.3536 8.85355C10.4473 8.75979 10.5 8.63261 10.5 8.5C10.5 8.36739 10.4473 8.24021 10.3536 8.14645C10.2598 8.05268 10.1326 8 10 8Z"/> </svg>