<svg width="16" height="16" viewBox="0 0 16 16" xmlns="http://www.w3.org/2000/svg"> <path fill-rule="evenodd" clip-rule="evenodd" d="M10 1.5C10 1.36739 9.94732 1.24021 9.85355 1.14645C9.75979 1.05268 9.63261 1 9.5 1H6.5C6.36739 1 6.24021 1.05268 6.14645 1.14645C6.05268 1.24021 6 1.36739 6 1.5V2.5C6 2.63261 6.05268 2.75979 6.14645 2.85355C6.24021 2.94732 6.36739 3 6.5 3H9.5C9.63261 3 9.75979 2.94732 9.85355 2.85355C9.94732 2.75979 10 2.63261 10 2.5V1.5ZM5 1.5C5 1.10218 5.15804 0.720644 5.43934 0.43934C5.72064 0.158035 6.10218 0 6.5 0L9.5 0C9.89782 0 10.2794 0.158035 10.5607 0.43934C10.842 0.720644 11 1.10218 11 1.5V2.5C11 2.89782 10.842 3.27936 10.5607 3.56066C10.2794 3.84196 9.89782 4 9.5 4H6.5C6.10218 4 5.72064 3.84196 5.43934 3.56066C5.15804 3.27936 5 2.89782 5 2.5V1.5ZM3 1.5H4V2.5H3C2.73478 2.5 2.48043 2.60536 2.29289 2.79289C2.10536 2.98043 2 3.23478 2 3.5V14C2 14.2652 2.10536 14.5196 2.29289 14.7071C2.48043 14.8946 2.73478 15 3 15H13C13.2652 15 13.5196 14.8946 13.7071 14.7071C13.8946 14.5196 14 14.2652 14 14V3.5C14 3.23478 13.8946 2.98043 13.7071 2.79289C13.5196 2.60536 13.2652 2.5 13 2.5H12V1.5H13C13.5304 1.5 14.0391 1.71071 14.4142 2.08579C14.7893 2.46086 15 2.96957 15 3.5V14C15 14.5304 14.7893 15.0391 14.4142 15.4142C14.0391 15.7893 13.5304 16 13 16H3C2.46957 16 1.96086 15.7893 1.58579 15.4142C1.21071 15.0391 1 14.5304 1 14V3.5C1 2.96957 1.21071 2.46086 1.58579 2.08579C1.96086 1.71071 2.46957 1.5 3 1.5ZM9.979 5.356C9.94707 5.24964 9.88064 5.15694 9.79019 5.09251C9.69975 5.02809 9.59042 4.99561 9.47947 5.00019C9.36852 5.00478 9.26225 5.04617 9.17742 5.11784C9.0926 5.1895 9.03405 5.28737 9.011 5.396L7.92 10.49L6.98 7.355C6.95266 7.26414 6.90003 7.18294 6.82827 7.12088C6.7565 7.05882 6.66855 7.01845 6.5747 7.00451C6.48085 6.99056 6.38497 7.00361 6.29826 7.04212C6.21154 7.08063 6.13758 7.14302 6.085 7.222L4.232 10H3.5C3.36739 10 3.24021 10.0527 3.14645 10.1464C3.05268 10.2402 3 10.3674 3 10.5C3 10.6326 3.05268 10.7598 3.14645 10.8536C3.24021 10.9473 3.36739 11 3.5 11H4.5C4.58234 11 4.6634 10.9796 4.73597 10.9407C4.80854 10.9018 4.87038 10.8456 4.916 10.777L6.326 8.662L7.521 12.644C7.55293 12.7504 7.61936 12.8431 7.70981 12.9075C7.80025 12.9719 7.90958 13.0044 8.02053 12.9998C8.13148 12.9952 8.23775 12.9538 8.32258 12.8822C8.4074 12.8105 8.46595 12.7126 8.489 12.604L9.58 7.51L10.52 10.645C10.5512 10.7479 10.6147 10.8381 10.7012 10.902C10.7877 10.966 10.8925 11.0003 11 11H12.5C12.6326 11 12.7598 10.9473 12.8536 10.8536C12.9473 10.7598 13 10.6326 13 10.5C13 10.3674 12.9473 10.2402 12.8536 10.1464C12.7598 10.0527 12.6326 10 12.5 10H11.372L9.979 5.356Z"/> </svg>