<svg width="16" height="16" viewBox="0 0 16 16" xmlns="http://www.w3.org/2000/svg"> <path d="M9.85355 0.146447C9.75979 0.0526784 9.63261 0 9.5 0H6.5C6.36739 0 6.24021 0.0526784 6.14645 0.146447C6.05268 0.240215 6 0.367392 6 0.5C6 0.632608 5.94732 0.759785 5.85355 0.853553C5.75979 0.947322 5.63261 1 5.5 1C5.36739 1 5.24021 1.05268 5.14645 1.14645C5.05268 1.24021 5 1.36739 5 1.5V2C5 2.13261 5.05268 2.25979 5.14645 2.35355C5.24021 2.44732 5.36739 2.5 5.5 2.5H10.5C10.6326 2.5 10.7598 2.44732 10.8536 2.35355C10.9473 2.25979 11 2.13261 11 2V1.5C11 1.36739 10.9473 1.24021 10.8536 1.14645C10.7598 1.05268 10.6326 1 10.5 1C10.3674 1 10.2402 0.947322 10.1464 0.853553C10.0527 0.759785 10 0.632608 10 0.5C10 0.367392 9.94732 0.240215 9.85355 0.146447Z"/> <path d="M4.085 1H3.5C3.10218 1 2.72064 1.15804 2.43934 1.43934C2.15804 1.72064 2 2.10218 2 2.5V14.5C2 14.8978 2.15804 15.2794 2.43934 15.5607C2.72064 15.842 3.10218 16 3.5 16H12.5C12.8978 16 13.2794 15.842 13.5607 15.5607C13.842 15.2794 14 14.8978 14 14.5V2.5C14 2.10218 13.842 1.72064 13.5607 1.43934C13.2794 1.15804 12.8978 1 12.5 1H11.915C11.97 1.156 12 1.325 12 1.5V2C12 2.39782 11.842 2.77936 11.5607 3.06066C11.2794 3.34196 10.8978 3.5 10.5 3.5H5.5C5.10218 3.5 4.72064 3.34196 4.43934 3.06066C4.15804 2.77936 4 2.39782 4 2V1.5C3.99971 1.32971 4.02845 1.16062 4.085 1Z"/> </svg>