<svg width="16" height="16" viewBox="0 0 16 16" fill="none" xmlns="http://www.w3.org/2000/svg">
<path d="M9.85355 0.146447C9.94732 0.240215 10 0.367392 10 0.5C10 0.632608 10.0527 0.759785 10.1464 0.853553C10.2402 0.947322 10.3674 1 10.5 1C10.6326 1 10.7598 1.05268 10.8536 1.14645C10.9473 1.24021 11 1.36739 11 1.5V2C11 2.13261 10.9473 2.25979 10.8536 2.35355C10.7598 2.44732 10.6326 2.5 10.5 2.5H5.5C5.36739 2.5 5.24021 2.44732 5.14645 2.35355C5.05268 2.25979 5 2.13261 5 2V1.5C5 1.36739 5.05268 1.24021 5.14645 1.14645C5.24021 1.05268 5.36739 1 5.5 1C5.63261 1 5.75979 0.947322 5.85355 0.853553C5.94732 0.759785 6 0.632608 6 0.5C6 0.367392 6.05268 0.240215 6.14645 0.146447C6.24021 0.0526784 6.36739 0 6.5 0H9.5C9.63261 0 9.75979 0.0526784 9.85355 0.146447Z" fill="black"/>
<path fill-rule="evenodd" clip-rule="evenodd" d="M3.5 1H4.085C4.03 1.156 4 1.325 4 1.5V2C4 2.39782 4.15804 2.77936 4.43934 3.06066C4.72064 3.34196 5.10218 3.5 5.5 3.5H10.5C10.8978 3.5 11.2794 3.34196 11.5607 3.06066C11.842 2.77936 12 2.39782 12 2V1.5C12 1.325 11.97 1.156 11.915 1H12.5C12.8978 1 13.2794 1.15804 13.5607 1.43934C13.842 1.72064 14 2.10218 14 2.5V14.5C14 14.8978 13.842 15.2794 13.5607 15.5607C13.2794 15.842 12.8978 16 12.5 16H3.5C3.10218 16 2.72064 15.842 2.43934 15.5607C2.15804 15.2794 2 14.8978 2 14.5V2.5C2 2.10218 2.15804 1.72064 2.43934 1.43934C2.72064 1.15804 3.10218 1 3.5 1ZM7.854 10.854L10.854 7.854C10.9479 7.76011 11.0006 7.63278 11.0006 7.5C11.0006 7.36722 10.9479 7.23989 10.854 7.146C10.7601 7.05211 10.6328 6.99937 10.5 6.99937C10.3672 6.99937 10.2399 7.05211 10.146 7.146L7.5 9.793L6.354 8.646C6.30751 8.59951 6.25232 8.56264 6.19158 8.53748C6.13084 8.51232 6.06574 8.49937 6 8.49937C5.86722 8.49937 5.73989 8.55211 5.646 8.646C5.59951 8.69249 5.56264 8.74768 5.53748 8.80842C5.51232 8.86916 5.49937 8.93426 5.49937 9C5.49937 9.06574 5.51232 9.13084 5.53748 9.19158C5.56264 9.25232 5.59951 9.30751 5.646 9.354L7.146 10.854C7.19245 10.9006 7.24762 10.9375 7.30837 10.9627C7.36911 10.9879 7.43423 11.0009 7.5 11.0009C7.56577 11.0009 7.63089 10.9879 7.69163 10.9627C7.75238 10.9375 7.80755 10.9006 7.854 10.854Z" fill="black"/>
</svg>
