<svg width="16" height="16" viewBox="0 0 16 16" xmlns="http://www.w3.org/2000/svg"> <path d="M9.91161 0.147093C10.0053 0.24102 10.058 0.3683 10.058 0.501C10.058 0.632997 10.1103 0.759618 10.2034 0.853141C10.2966 0.946664 10.423 0.999471 10.555 1C10.6203 0.999869 10.6851 1.01263 10.7455 1.03754C10.8059 1.06246 10.8608 1.09905 10.9071 1.14521C10.9533 1.19138 10.99 1.24621 11.0151 1.30658C11.0401 1.36694 11.053 1.43165 11.053 1.497V2C11.053 2.13261 11.0003 2.25979 10.9065 2.35355C10.8128 2.44732 10.6856 2.5 10.553 2.5H5.58499C5.45238 2.5 5.32521 2.44732 5.23144 2.35355C5.13767 2.25979 5.08499 2.13261 5.08499 2V1.497C5.08499 1.36519 5.13735 1.23877 5.23056 1.14557C5.32376 1.05236 5.45018 1 5.58199 1C5.71381 0.999207 5.83997 0.946285 5.9329 0.85279C6.02583 0.759295 6.07799 0.632825 6.07799 0.501C6.07799 0.225 6.30199 0 6.57799 0H9.55799C9.69069 0.000264871 9.81787 0.0531655 9.91161 0.147093Z"/> <path fill-rule="evenodd" clip-rule="evenodd" d="M3.604 1H4.175C4.12 1.156 4.09 1.325 4.09 1.5V2C4.08894 2.39659 4.2454 2.77738 4.52499 3.05865C4.80458 3.33993 5.18441 3.49868 5.581 3.5H10.555C11.379 3.5 12.047 2.828 12.047 2V1.5C12.047 1.325 12.017 1.156 11.962 1H12.604C13.0018 1 13.3834 1.15804 13.6647 1.43934C13.946 1.72064 14.104 2.10218 14.104 2.5V14.5C14.104 14.8978 13.946 15.2794 13.6647 15.5607C13.3834 15.842 13.0018 16 12.604 16H3.604C3.20618 16 2.82465 15.842 2.54334 15.5607C2.26204 15.2794 2.104 14.8978 2.104 14.5V2.5C2.104 2.10218 2.26204 1.72064 2.54334 1.43934C2.82465 1.15804 3.20618 1 3.604 1ZM8.068 6.482C9.724 4.809 13.863 7.736 8.068 11.5C2.273 7.736 6.412 4.81 8.068 6.482Z"/> </svg>