<svg width="16" height="16" viewBox="0 0 16 16" xmlns="http://www.w3.org/2000/svg"> <path d="M9.85355 0.146447C9.94732 0.240215 10 0.367392 10 0.5C10 0.632608 10.0527 0.759785 10.1464 0.853553C10.2402 0.947322 10.3674 1 10.5 1C10.6326 1 10.7598 1.05268 10.8536 1.14645C10.9473 1.24021 11 1.36739 11 1.5V2C11 2.13261 10.9473 2.25979 10.8536 2.35355C10.7598 2.44732 10.6326 2.5 10.5 2.5H5.5C5.36739 2.5 5.24021 2.44732 5.14645 2.35355C5.05268 2.25979 5 2.13261 5 2V1.5C5 1.36739 5.05268 1.24021 5.14645 1.14645C5.24021 1.05268 5.36739 1 5.5 1C5.63261 1 5.75979 0.947322 5.85355 0.853553C5.94732 0.759785 6 0.632608 6 0.5C6 0.367392 6.05268 0.240215 6.14645 0.146447C6.24021 0.0526784 6.36739 0 6.5 0H9.5C9.63261 0 9.75979 0.0526784 9.85355 0.146447Z"/> <path fill-rule="evenodd" clip-rule="evenodd" d="M3.5 1H4.085C4.03 1.156 4 1.325 4 1.5V2C4 2.39782 4.15804 2.77936 4.43934 3.06066C4.72064 3.34196 5.10218 3.5 5.5 3.5H10.5C10.8978 3.5 11.2794 3.34196 11.5607 3.06066C11.842 2.77936 12 2.39782 12 2V1.5C12 1.325 11.97 1.156 11.915 1H12.5C12.8978 1 13.2794 1.15804 13.5607 1.43934C13.842 1.72064 14 2.10218 14 2.5V14.5C14 14.8978 13.842 15.2794 13.5607 15.5607C13.2794 15.842 12.8978 16 12.5 16H3.5C3.10218 16 2.72064 15.842 2.43934 15.5607C2.15804 15.2794 2 14.8978 2 14.5V2.5C2 2.10218 2.15804 1.72064 2.43934 1.43934C2.72064 1.15804 3.10218 1 3.5 1ZM9.146 7.146L8 8.293L6.854 7.146C6.80751 7.09951 6.75232 7.06264 6.69158 7.03748C6.63084 7.01232 6.56574 6.99937 6.5 6.99937C6.43426 6.99937 6.36916 7.01232 6.30842 7.03748C6.24768 7.06264 6.19249 7.09951 6.146 7.146C6.09951 7.19249 6.06264 7.24768 6.03748 7.30842C6.01232 7.36916 5.99937 7.43426 5.99937 7.5C5.99937 7.56574 6.01232 7.63084 6.03748 7.69158C6.06264 7.75232 6.09951 7.80751 6.146 7.854L7.293 9L6.146 10.146C6.05211 10.2399 5.99937 10.3672 5.99937 10.5C5.99937 10.6328 6.05211 10.7601 6.146 10.854C6.23989 10.9479 6.36722 11.0006 6.5 11.0006C6.63278 11.0006 6.76011 10.9479 6.854 10.854L8 9.707L9.146 10.854C9.23989 10.9479 9.36722 11.0006 9.5 11.0006C9.63278 11.0006 9.76011 10.9479 9.854 10.854C9.94789 10.7601 10.0006 10.6328 10.0006 10.5C10.0006 10.3672 9.94789 10.2399 9.854 10.146L8.707 9L9.854 7.854C9.94789 7.76011 10.0006 7.63278 10.0006 7.5C10.0006 7.36722 9.94789 7.23989 9.854 7.146C9.76011 7.05211 9.63278 6.99937 9.5 6.99937C9.36722 6.99937 9.23989 7.05211 9.146 7.146Z"/> </svg>