<svg width="16" height="16" viewBox="0 0 16 16" xmlns="http://www.w3.org/2000/svg"> <path fill-rule="evenodd" clip-rule="evenodd" d="M5.43934 0.43934C5.72064 0.158035 6.10218 0 6.5 0H9.5C9.89782 0 10.2794 0.158035 10.5607 0.43934C10.842 0.720644 11 1.10218 11 1.5V2.5C11 2.89782 10.842 3.27936 10.5607 3.56066C10.2794 3.84196 9.89782 4 9.5 4H6.5C6.10218 4 5.72064 3.84196 5.43934 3.56066C5.15804 3.27936 5 2.89782 5 2.5V1.5C5 1.10218 5.15804 0.720644 5.43934 0.43934ZM9.85355 1.14645C9.75979 1.05268 9.63261 1 9.5 1H6.5C6.36739 1 6.24021 1.05268 6.14645 1.14645C6.05268 1.24021 6 1.36739 6 1.5V2.5C6 2.63261 6.05268 2.75979 6.14645 2.85355C6.24021 2.94732 6.36739 3 6.5 3H9.5C9.63261 3 9.75979 2.94732 9.85355 2.85355C9.94732 2.75979 10 2.63261 10 2.5V1.5C10 1.36739 9.94732 1.24021 9.85355 1.14645Z"/> <path fill-rule="evenodd" clip-rule="evenodd" d="M3 1.5H4V2.5C4 3.16304 4.26339 3.79893 4.73223 4.26777C5.20107 4.73661 5.83696 5 6.5 5H9.5C9.8283 5 10.1534 4.93534 10.4567 4.8097C10.76 4.68406 11.0356 4.49991 11.2678 4.26777C11.4999 4.03562 11.6841 3.76002 11.8097 3.45671C11.9353 3.15339 12 2.8283 12 2.5V1.5H13C13.5304 1.5 14.0391 1.71071 14.4142 2.08579C14.7893 2.46086 15 2.96957 15 3.5V14C15 14.5304 14.7893 15.0391 14.4142 15.4142C14.0391 15.7893 13.5304 16 13 16H3C2.46957 16 1.96086 15.7893 1.58579 15.4142C1.21071 15.0391 1 14.5304 1 14V3.5C1 2.96957 1.21071 2.46086 1.58579 2.08579C1.96086 1.71071 2.46957 1.5 3 1.5ZM8.5 9V7.5C8.5 7.36739 8.44732 7.24021 8.35355 7.14645C8.25979 7.05268 8.13261 7 8 7C7.86739 7 7.74021 7.05268 7.64645 7.14645C7.55268 7.24021 7.5 7.36739 7.5 7.5V9H6C5.86739 9 5.74021 9.05268 5.64645 9.14645C5.55268 9.24021 5.5 9.36739 5.5 9.5C5.5 9.63261 5.55268 9.75979 5.64645 9.85355C5.74021 9.94732 5.86739 10 6 10H7.5V11.5C7.5 11.6326 7.55268 11.7598 7.64645 11.8536C7.74021 11.9473 7.86739 12 8 12C8.13261 12 8.25979 11.9473 8.35355 11.8536C8.44732 11.7598 8.5 11.6326 8.5 11.5V10H10C10.1326 10 10.2598 9.94732 10.3536 9.85355C10.4473 9.75979 10.5 9.63261 10.5 9.5C10.5 9.36739 10.4473 9.24021 10.3536 9.14645C10.2598 9.05268 10.1326 9 10 9H8.5Z"/> </svg>