<svg width="16" height="16" viewBox="0 0 16 16" xmlns="http://www.w3.org/2000/svg"> <path d="M9.85355 0.146447C9.94732 0.240215 10 0.367392 10 0.5C10 0.632608 10.0527 0.759785 10.1464 0.853553C10.2402 0.947322 10.3674 1 10.5 1C10.6326 1 10.7598 1.05268 10.8536 1.14645C10.9473 1.24021 11 1.36739 11 1.5V2C11 2.13261 10.9473 2.25979 10.8536 2.35355C10.7598 2.44732 10.6326 2.5 10.5 2.5H5.5C5.36739 2.5 5.24021 2.44732 5.14645 2.35355C5.05268 2.25979 5 2.13261 5 2V1.5C5 1.36739 5.05268 1.24021 5.14645 1.14645C5.24021 1.05268 5.36739 1 5.5 1C5.63261 1 5.75979 0.947322 5.85355 0.853553C5.94732 0.759785 6 0.632608 6 0.5C6 0.367392 6.05268 0.240215 6.14645 0.146447C6.24021 0.0526784 6.36739 0 6.5 0H9.5C9.63261 0 9.75979 0.0526784 9.85355 0.146447Z"/> <path d="M3.14645 2.14645C3.24021 2.05268 3.36739 2 3.5 2H4C4.13261 2 4.25979 1.94732 4.35355 1.85355C4.44732 1.75979 4.5 1.63261 4.5 1.5C4.5 1.36739 4.44732 1.24021 4.35355 1.14645C4.25979 1.05268 4.13261 1 4 1H3.5C3.10218 1 2.72064 1.15804 2.43934 1.43934C2.15804 1.72064 2 2.10218 2 2.5V14.5C2 14.8978 2.15804 15.2794 2.43934 15.5607C2.72064 15.842 3.10218 16 3.5 16H12.5C12.8978 16 13.2794 15.842 13.5607 15.5607C13.842 15.2794 14 14.8978 14 14.5V2.5C14 2.10218 13.842 1.72064 13.5607 1.43934C13.2794 1.15804 12.8978 1 12.5 1H12C11.8674 1 11.7402 1.05268 11.6464 1.14645C11.5527 1.24021 11.5 1.36739 11.5 1.5C11.5 1.63261 11.5527 1.75979 11.6464 1.85355C11.7402 1.94732 11.8674 2 12 2H12.5C12.6326 2 12.7598 2.05268 12.8536 2.14645C12.9473 2.24021 13 2.36739 13 2.5V14.5C13 14.6326 12.9473 14.7598 12.8536 14.8536C12.7598 14.9473 12.6326 15 12.5 15H3.5C3.36739 15 3.24021 14.9473 3.14645 14.8536C3.05268 14.7598 3 14.6326 3 14.5V2.5C3 2.36739 3.05268 2.24021 3.14645 2.14645Z"/> </svg>