<svg width="16" height="16" viewBox="0 0 16 16" fill="none" xmlns="http://www.w3.org/2000/svg">
<g clip-path="url(#clip0_34_3445)">
<path d="M8.51519 1.019C8.34382 1.00635 8.17204 1.00001 8.00019 1V2.81458e-07C8.19673 9.6109e-05 8.3932 0.00743442 8.58919 0.0220003L8.51519 1.019ZM10.5192 1.469C10.1986 1.3453 9.86942 1.24537 9.53419 1.17L9.75319 0.194C10.1362 0.28 10.5132 0.394 10.8792 0.536L10.5192 1.469ZM11.8892 2.179C11.7462 2.08365 11.5998 1.99359 11.4502 1.909L11.9432 1.039C12.2851 1.23274 12.6123 1.45132 12.9222 1.693L12.3072 2.482C12.1716 2.37623 12.0322 2.2755 11.8892 2.18V2.179ZM13.7232 3.969C13.5254 3.68798 13.3071 3.42192 13.0702 3.173L13.7942 2.483C14.0642 2.768 14.3142 3.073 14.5412 3.393L13.7232 3.969ZM14.4672 5.321C14.4016 5.16246 14.3302 5.00636 14.2532 4.853L15.1462 4.403C15.3228 4.75409 15.4732 5.11774 15.5962 5.491L14.6462 5.804C14.5925 5.64087 14.5327 5.47976 14.4672 5.321ZM14.9972 7.828C14.9891 7.48434 14.9557 7.14174 14.8972 6.803L15.8822 6.633C15.9492 7.019 15.9882 7.411 15.9982 7.803L14.9982 7.828H14.9972ZM14.8662 9.366C14.8992 9.196 14.9262 9.027 14.9472 8.856L15.9402 8.979C15.8922 9.36915 15.8153 9.75521 15.7102 10.134L14.7462 9.867C14.7922 9.702 14.8322 9.535 14.8662 9.366ZM13.9142 11.745C14.0982 11.455 14.2602 11.151 14.4002 10.837L15.3142 11.242C15.1542 11.602 14.9692 11.948 14.7592 12.28L13.9142 11.745ZM12.9502 12.95C13.0722 12.828 13.1892 12.702 13.3002 12.572L14.0582 13.225C13.9298 13.3738 13.7961 13.5179 13.6572 13.657L12.9502 12.95Z" fill="#212529"/>
<path d="M8.00019 1C6.84907 1.00008 5.71574 1.28405 4.70057 1.82674C3.68541 2.36943 2.81974 3.1541 2.18025 4.11125C1.54076 5.0684 1.14719 6.16848 1.03439 7.31406C0.921589 8.45964 1.09304 9.61536 1.53357 10.6789C1.9741 11.7423 2.6701 12.6808 3.55992 13.4111C4.44974 14.1413 5.50593 14.6409 6.63493 14.8655C7.76393 15.0901 8.93089 15.0328 10.0325 14.6987C11.134 14.3645 12.1362 13.7639 12.9502 12.95L13.6572 13.657C12.7269 14.5878 11.5814 15.2747 10.3222 15.657C9.06302 16.0393 7.72896 16.105 6.43826 15.8485C5.14755 15.5919 3.94005 15.021 2.92274 14.1862C1.90543 13.3515 1.10973 12.2787 0.606129 11.0629C0.102528 9.84711 -0.0934196 8.52588 0.0356482 7.21627C0.164716 5.90666 0.614814 4.6491 1.34606 3.55502C2.07731 2.46094 3.06713 1.56411 4.22782 0.944003C5.38851 0.323895 6.68424 -0.000348732 8.00019 2.81458e-07V1Z" fill="#212529"/>
<path d="M7.50019 3C7.6328 3 7.75998 3.05268 7.85375 3.14645C7.94752 3.24022 8.00019 3.36739 8.00019 3.5V8.71L11.2482 10.566C11.36 10.6334 11.441 10.7419 11.4738 10.8683C11.5067 10.9946 11.4888 11.1288 11.424 11.2422C11.3593 11.3556 11.2527 11.4391 11.1272 11.4749C11.0016 11.5108 10.8671 11.4961 10.7522 11.434L7.25219 9.434C7.17567 9.39029 7.11205 9.32712 7.0678 9.25091C7.02355 9.17469 7.00022 9.08813 7.00019 9V3.5C7.00019 3.36739 7.05287 3.24022 7.14664 3.14645C7.24041 3.05268 7.36759 3 7.50019 3Z" fill="#212529"/>
</g>
<defs>
<clipPath id="clip0_34_3445">
<rect width="16" height="16" fill="white"/>
</clipPath>
</defs>
</svg>
