<svg width="16" height="16" viewBox="0 0 16 16" xmlns="http://www.w3.org/2000/svg"> <g clip-path="url(#clip0_34_3473)"> <path d="M8.5 4.00004C7.65842 3.99992 6.83823 4.26512 6.15602 4.75792C5.47382 5.25072 4.96433 5.94605 4.7 6.74504C4.68137 6.80965 4.64989 6.86985 4.60745 6.92202C4.565 6.97419 4.51248 7.01726 4.453 7.04866C4.39353 7.08006 4.32833 7.09913 4.26131 7.10475C4.1943 7.11036 4.12683 7.1024 4.06297 7.08133C3.9991 7.06027 3.94013 7.02653 3.88961 6.98215C3.83908 6.93777 3.79802 6.88365 3.7689 6.82303C3.73977 6.76241 3.72318 6.69654 3.7201 6.62936C3.71703 6.56217 3.72753 6.49506 3.751 6.43204C4.0981 5.38384 4.78228 4.47995 5.69687 3.86129C6.61146 3.24264 7.70504 2.94399 8.80713 3.01192C9.90921 3.07984 10.9578 3.51052 11.7895 4.2368C12.6212 4.96308 13.1892 5.94415 13.405 7.02704C14.1593 7.12892 14.8466 7.51367 15.3278 8.10337C15.809 8.69307 16.048 9.44362 15.9966 10.203C15.9451 10.9624 15.6069 11.6738 15.0505 12.1931C14.4941 12.7125 13.7611 13.0009 13 13H0.5C0.367392 13 0.240215 12.9474 0.146447 12.8536C0.0526784 12.7598 0 12.6326 0 12.5C0 12.3674 0.0526784 12.2402 0.146447 12.1465C0.240215 12.0527 0.367392 12 0.5 12H13C13.5304 12.0002 14.0392 11.7896 14.4144 11.4146C14.7895 11.0396 15.0004 10.531 15.0005 10.0005C15.0006 9.4701 14.79 8.96134 14.4151 8.58618C14.0401 8.21101 13.5314 8.00017 13.001 8.00004H12.975C12.8514 8.00079 12.7319 7.95572 12.6396 7.87354C12.5472 7.79136 12.4886 7.6779 12.475 7.55504C12.3656 6.57736 11.8997 5.6743 11.1664 5.01848C10.4331 4.36266 9.48378 4.00008 8.5 4.00004ZM0 8.50004C0 8.36743 0.0526784 8.24025 0.146447 8.14648C0.240215 8.05271 0.367392 8.00004 0.5 8.00004H7.5C7.63261 8.00004 7.75979 8.05271 7.85355 8.14648C7.94732 8.24025 8 8.36743 8 8.50004C8 8.63264 7.94732 8.75982 7.85355 8.85359C7.75979 8.94736 7.63261 9.00004 7.5 9.00004H0.5C0.367392 9.00004 0.240215 8.94736 0.146447 8.85359C0.0526784 8.75982 0 8.63264 0 8.50004ZM0 10.5C0 10.3674 0.0526784 10.2403 0.146447 10.1465C0.240215 10.0527 0.367392 10 0.5 10H9.5C9.63261 10 9.75979 10.0527 9.85355 10.1465C9.94732 10.2403 10 10.3674 10 10.5C10 10.6326 9.94732 10.7598 9.85355 10.8536C9.75979 10.9474 9.63261 11 9.5 11H0.5C0.367392 11 0.240215 10.9474 0.146447 10.8536C0.0526784 10.7598 0 10.6326 0 10.5Z"/> </g> <defs> <clipPath id="clip0_34_3473"> <rect width="16" height="16"/> </clipPath> </defs> </svg>