<svg width="16" height="16" viewBox="0 0 16 16" xmlns="http://www.w3.org/2000/svg"> <g clip-path="url(#clip0_34_3485)"> <path d="M8.5 3.00004C7.65842 2.99992 6.83823 3.26512 6.15602 3.75792C5.47382 4.25072 4.96433 4.94605 4.7 5.74504C4.68137 5.80965 4.64989 5.86985 4.60745 5.92202C4.565 5.97419 4.51248 6.01726 4.453 6.04866C4.39353 6.08006 4.32833 6.09913 4.26131 6.10475C4.1943 6.11036 4.12683 6.1024 4.06297 6.08133C3.9991 6.06027 3.94013 6.02653 3.88961 5.98215C3.83908 5.93777 3.79802 5.88365 3.7689 5.82303C3.73977 5.76241 3.72318 5.69654 3.7201 5.62936C3.71703 5.56217 3.72753 5.49506 3.751 5.43204C4.0981 4.38384 4.78228 3.47995 5.69687 2.86129C6.61146 2.24264 7.70504 1.94399 8.80713 2.01192C9.90921 2.07984 10.9578 2.51052 11.7895 3.2368C12.6212 3.96308 13.1892 4.94415 13.405 6.02704C14.1593 6.12892 14.8466 6.51367 15.3278 7.10337C15.809 7.69307 16.048 8.44362 15.9966 9.20299C15.9451 9.96235 15.6069 10.6738 15.0505 11.1931C14.4941 11.7125 13.7611 12.0009 13 12H4.5C4.36739 12 4.24021 11.9474 4.14645 11.8536C4.05268 11.7598 4 11.6326 4 11.5C4 11.3674 4.05268 11.2402 4.14645 11.1465C4.24021 11.0527 4.36739 11 4.5 11H13C13.5304 11.0002 14.0392 10.7896 14.4144 10.4146C14.7895 10.0396 15.0004 9.53097 15.0005 9.00054C15.0006 8.4701 14.79 7.96134 14.4151 7.58618C14.0401 7.21101 13.5314 7.00017 13.001 7.00004H12.975C12.8514 7.00079 12.7319 6.95572 12.6396 6.87354C12.5472 6.79136 12.4886 6.6779 12.475 6.55504C12.3656 5.57736 11.8997 4.6743 11.1664 4.01848C10.4331 3.36266 9.48378 3.00008 8.5 3.00004ZM0 7.50004C0 7.36743 0.0526784 7.24025 0.146447 7.14648C0.240215 7.05271 0.367392 7.00004 0.5 7.00004H5.5C5.63261 7.00004 5.75979 7.05271 5.85355 7.14648C5.94732 7.24025 6 7.36743 6 7.50004C6 7.63264 5.94732 7.75982 5.85355 7.85359C5.75979 7.94736 5.63261 8.00004 5.5 8.00004H0.5C0.367392 8.00004 0.240215 7.94736 0.146447 7.85359C0.0526784 7.75982 0 7.63264 0 7.50004ZM2 9.50004C2 9.36743 2.05268 9.24025 2.14645 9.14648C2.24021 9.05271 2.36739 9.00004 2.5 9.00004H11.5C11.6326 9.00004 11.7598 9.05271 11.8536 9.14648C11.9473 9.24025 12 9.36743 12 9.50004C12 9.63264 11.9473 9.75982 11.8536 9.85359C11.7598 9.94736 11.6326 10 11.5 10H2.5C2.36739 10 2.24021 9.94736 2.14645 9.85359C2.05268 9.75982 2 9.63264 2 9.50004ZM0 13.5C0 13.3674 0.0526784 13.2402 0.146447 13.1465C0.240215 13.0527 0.367392 13 0.5 13H9.5C9.63261 13 9.75979 13.0527 9.85355 13.1465C9.94732 13.2402 10 13.3674 10 13.5C10 13.6326 9.94732 13.7598 9.85355 13.8536C9.75979 13.9474 9.63261 14 9.5 14H0.5C0.367392 14 0.240215 13.9474 0.146447 13.8536C0.0526784 13.7598 0 13.6326 0 13.5Z"/> </g> <defs> <clipPath id="clip0_34_3485"> <rect width="16" height="16"/> </clipPath> </defs> </svg>