<svg width="16" height="16" viewBox="0 0 16 16" xmlns="http://www.w3.org/2000/svg"> <g clip-path="url(#clip0_34_3489)"> <path d="M3.99992 11.5C3.99992 11.3674 4.0526 11.2403 4.14637 11.1465C4.24014 11.0527 4.36731 11 4.49992 11H13.4999C13.6325 11 13.7597 11.0527 13.8535 11.1465C13.9472 11.2403 13.9999 11.3674 13.9999 11.5C13.9999 11.6327 13.9472 11.7598 13.8535 11.8536C13.7597 11.9474 13.6325 12 13.4999 12H4.49992C4.36731 12 4.24014 11.9474 4.14637 11.8536C4.0526 11.7598 3.99992 11.6327 3.99992 11.5ZM0.999923 13.5C0.999923 13.3674 1.0526 13.2403 1.14637 13.1465C1.24014 13.0527 1.36731 13 1.49992 13H10.4999C10.6325 13 10.7597 13.0527 10.8535 13.1465C10.9472 13.2403 10.9999 13.3674 10.9999 13.5C10.9999 13.6327 10.9472 13.7598 10.8535 13.8536C10.7597 13.9474 10.6325 14 10.4999 14H1.49992C1.36731 14 1.24014 13.9474 1.14637 13.8536C1.0526 13.7598 0.999923 13.6327 0.999923 13.5ZM2.99992 15.5C2.99992 15.3674 3.0526 15.2403 3.14637 15.1465C3.24014 15.0527 3.36731 15 3.49992 15H12.4999C12.6325 15 12.7597 15.0527 12.8535 15.1465C12.9472 15.2403 12.9999 15.3674 12.9999 15.5C12.9999 15.6327 12.9472 15.7598 12.8535 15.8536C12.7597 15.9474 12.6325 16 12.4999 16H3.49992C3.36731 16 3.24014 15.9474 3.14637 15.8536C3.0526 15.7598 2.99992 15.6327 2.99992 15.5ZM13.4049 4.02704C13.1973 2.98021 12.6601 2.02725 11.8721 1.30752C11.0841 0.587792 10.0865 0.139031 9.02517 0.0268534C7.96384 -0.0853238 6.89446 0.144967 5.97338 0.684054C5.05231 1.22314 4.32785 2.04275 3.90592 3.02304C3.43276 2.96854 2.95345 3.01118 2.49734 3.14835C2.04123 3.28553 1.61792 3.51435 1.25332 3.82082C0.888721 4.12729 0.59051 4.50495 0.376944 4.93067C0.163378 5.3564 0.0389514 5.82124 0.0112822 6.29672C-0.016387 6.77221 0.0532835 7.24834 0.216028 7.69597C0.378773 8.14359 0.631167 8.55329 0.957757 8.89998C1.28435 9.24667 1.67826 9.52305 2.11538 9.7122C2.5525 9.90136 3.02363 9.9993 3.49992 10H12.9999C13.761 10.0009 14.494 9.71246 15.0504 9.19312C15.6068 8.67377 15.945 7.96236 15.9965 7.203C16.048 6.44363 15.8089 5.69308 15.3277 5.10338C14.8465 4.51368 14.1592 4.12892 13.4049 4.02704Z"/> </g> <defs> <clipPath id="clip0_34_3489"> <rect width="16" height="16"/> </clipPath> </defs> </svg>