<svg width="16" height="16" viewBox="0 0 16 16" xmlns="http://www.w3.org/2000/svg"> <g clip-path="url(#clip0_34_3511)"> <path d="M4.15792 12.0249C4.22026 12.0457 4.27788 12.0786 4.3275 12.1216C4.37713 12.1647 4.41777 12.2171 4.44712 12.2759C4.47647 12.3347 4.49394 12.3987 4.49854 12.4643C4.50314 12.5298 4.49477 12.5956 4.47392 12.6579L3.97392 14.1579C3.9284 14.279 3.83775 14.3777 3.721 14.4333C3.60426 14.4889 3.4705 14.4972 3.34781 14.4563C3.22512 14.4154 3.12305 14.3285 3.06303 14.214C3.00301 14.0994 2.98971 13.9661 3.02592 13.8419L3.52592 12.3419C3.5677 12.2161 3.65776 12.112 3.77628 12.0525C3.8948 11.9931 4.03208 11.9832 4.15792 12.0249ZM7.15792 12.0249C7.22026 12.0457 7.27788 12.0786 7.3275 12.1216C7.37713 12.1647 7.41777 12.2171 7.44712 12.2759C7.47647 12.3347 7.49394 12.3987 7.49854 12.4643C7.50314 12.5298 7.49477 12.5956 7.47392 12.6579L6.47392 15.6579C6.4284 15.779 6.33775 15.8777 6.221 15.9333C6.10426 15.9889 5.9705 15.9972 5.84781 15.9563C5.72512 15.9154 5.62305 15.8285 5.56303 15.714C5.50301 15.5994 5.48971 15.4661 5.52592 15.3419L6.52592 12.3419C6.5677 12.2161 6.65776 12.112 6.77628 12.0525C6.8948 11.9931 7.03208 11.9832 7.15792 12.0249ZM10.1579 12.0249C10.2203 12.0457 10.2779 12.0786 10.3275 12.1216C10.3771 12.1647 10.4178 12.2171 10.4471 12.2759C10.4765 12.3347 10.4939 12.3987 10.4985 12.4643C10.5031 12.5298 10.4948 12.5956 10.4739 12.6579L9.97392 14.1579C9.9284 14.279 9.83775 14.3777 9.721 14.4333C9.60426 14.4889 9.4705 14.4972 9.34781 14.4563C9.22512 14.4154 9.12305 14.3285 9.06303 14.214C9.00301 14.0994 8.98971 13.9661 9.02592 13.8419L9.52592 12.3419C9.5677 12.2161 9.65776 12.112 9.77628 12.0525C9.8948 11.9931 10.0321 11.9832 10.1579 12.0249ZM13.1579 12.0249C13.2203 12.0457 13.2779 12.0786 13.3275 12.1216C13.3771 12.1647 13.4178 12.2171 13.4471 12.2759C13.4765 12.3347 13.4939 12.3987 13.4985 12.4643C13.5031 12.5298 13.4948 12.5956 13.4739 12.6579L12.4739 15.6579C12.4551 15.7225 12.4234 15.7826 12.3808 15.8346C12.3382 15.8867 12.2856 15.9296 12.226 15.9608C12.1664 15.992 12.1011 16.0109 12.0341 16.0163C11.9671 16.0217 11.8996 16.0135 11.8358 15.9923C11.772 15.971 11.7131 15.9371 11.6628 15.8925C11.6124 15.848 11.5715 15.7937 11.5425 15.733C11.5136 15.6723 11.4972 15.6064 11.4944 15.5392C11.4915 15.472 11.5022 15.4049 11.5259 15.3419L12.5259 12.3419C12.5677 12.2161 12.6578 12.112 12.7763 12.0525C12.8948 11.9931 13.0321 11.9832 13.1579 12.0249ZM13.4049 5.02692C13.1973 3.98008 12.6601 3.02713 11.8721 2.3074C11.0841 1.58767 10.0865 1.13891 9.02517 1.02673C7.96384 0.914554 6.89446 1.14484 5.97338 1.68393C5.05231 2.22302 4.32785 3.04263 3.90592 4.02292C3.43276 3.96841 2.95345 4.01105 2.49734 4.14823C2.04123 4.28541 1.61792 4.51423 1.25332 4.8207C0.888721 5.12717 0.59051 5.50482 0.376944 5.93055C0.163378 6.35628 0.0389514 6.82111 0.0112822 7.2966C-0.016387 7.77209 0.0532835 8.24822 0.216028 8.69585C0.378773 9.14347 0.631167 9.55317 0.957757 9.89986C1.28435 10.2465 1.67826 10.5229 2.11538 10.7121C2.5525 10.9012 3.02363 10.9992 3.49992 10.9999H12.9999C13.761 11.0008 14.494 10.7123 15.0504 10.193C15.6068 9.67365 15.945 8.96224 15.9965 8.20287C16.048 7.44351 15.8089 6.69296 15.3277 6.10326C14.8465 5.51356 14.1592 5.1288 13.4049 5.02692ZM8.49992 1.99992C9.48388 1.99972 10.4334 2.36219 11.1669 3.01804C11.9004 3.67388 12.3665 4.57707 12.4759 5.55492C12.4895 5.67778 12.5481 5.79125 12.6405 5.87343C12.7328 5.95561 12.8523 6.00067 12.9759 5.99992H12.9999C13.5304 5.99992 14.0391 6.21064 14.4141 6.58571C14.7892 6.96078 14.9999 7.46949 14.9999 7.99992C14.9999 8.53036 14.7892 9.03906 14.4141 9.41414C14.0391 9.78921 13.5304 9.99992 12.9999 9.99992H3.49992C3.146 9.99975 2.79614 9.92442 2.4735 9.77894C2.15086 9.63345 1.86279 9.42111 1.62834 9.15598C1.39389 8.89084 1.21841 8.57894 1.11351 8.24092C1.0086 7.9029 0.976666 7.54646 1.01981 7.19517C1.06295 6.84388 1.1802 6.50576 1.36378 6.20317C1.54736 5.90058 1.7931 5.64041 2.08474 5.43989C2.37638 5.23937 2.70727 5.10305 3.05553 5.03996C3.40379 4.97687 3.76147 4.98845 4.10492 5.07392C4.22745 5.10448 4.35701 5.08755 4.46756 5.02652C4.57812 4.96549 4.66149 4.86489 4.70092 4.74492C4.9652 3.9461 5.47454 3.25089 6.15654 2.7581C6.83854 2.26532 7.65852 2.00002 8.49992 1.99992Z"/> </g> <defs> <clipPath id="clip0_34_3511"> <rect width="16" height="16"/> </clipPath> </defs> </svg>