<svg width="16" height="16" viewBox="0 0 16 16" xmlns="http://www.w3.org/2000/svg"> <g clip-path="url(#clip0_34_3521)"> <path d="M11.4728 8.9999C11.3603 7.98604 10.9067 7.04048 10.1863 6.31826C9.46589 5.59604 8.52149 5.14001 7.50791 5.02494C6.49434 4.90986 5.47174 5.14258 4.60778 5.68492C3.74382 6.22727 3.08975 7.04706 2.75283 8.0099C1.98077 8.07309 1.26308 8.43248 0.74999 9.01283C0.236903 9.59319 -0.0318073 10.3495 0.000108274 11.1235C0.0320238 11.8975 0.362091 12.6291 0.921217 13.1653C1.48034 13.7014 2.22519 14.0005 2.99983 13.9999H11.4998C12.1629 13.9963 12.7973 13.7295 13.2636 13.2581C13.7299 12.7867 13.9899 12.1494 13.9863 11.4864C13.9827 10.8234 13.7159 10.1889 13.2445 9.72258C12.7732 9.25627 12.1359 8.99632 11.4728 8.9999Z"/> <path d="M14.5438 9.7719C14.3072 9.35533 13.9876 8.9917 13.6049 8.70344C13.2222 8.41518 12.7845 8.20841 12.3188 8.0959C11.9637 6.75153 11.1128 5.59148 9.93713 4.84902C8.76148 4.10656 7.34831 3.83677 5.98183 4.0939C6.36531 3.38771 6.95252 2.81333 7.667 2.44552C8.38148 2.07771 9.19014 1.93351 9.98771 2.0317C10.7853 2.12988 11.5348 2.4659 12.1388 2.99602C12.7427 3.52613 13.1731 4.22578 13.3738 5.0039C13.9544 4.97426 14.5271 5.14785 14.9935 5.49481C15.4599 5.84177 15.7908 6.34042 15.9293 6.90497C16.0678 7.46953 16.0052 8.0647 15.7524 8.58812C15.4995 9.11154 15.0722 9.52949 14.5438 9.7719Z"/> </g> <defs> <clipPath id="clip0_34_3521"> <rect width="16" height="16"/> </clipPath> </defs> </svg>