<svg width="16" height="16" viewBox="0 0 16 16" xmlns="http://www.w3.org/2000/svg"> <g clip-path="url(#clip0_34_3515)"> <path d="M4.17592 11.0319C4.2998 11.0786 4.40011 11.1725 4.45485 11.2931C4.50959 11.4136 4.51429 11.5509 4.46792 11.6749L2.96792 15.6749C2.94675 15.7387 2.91292 15.7976 2.86846 15.8481C2.82401 15.8985 2.76983 15.9395 2.70918 15.9685C2.64853 15.9975 2.58264 16.014 2.51547 16.017C2.4483 16.02 2.38122 16.0093 2.31824 15.9858C2.25526 15.9622 2.19768 15.9262 2.14894 15.8799C2.10019 15.8336 2.0613 15.7779 2.03457 15.7162C2.00784 15.6545 1.99383 15.5881 1.99337 15.5208C1.99292 15.4536 2.00603 15.387 2.03192 15.3249L3.53192 11.3249C3.55494 11.2634 3.58986 11.207 3.63469 11.1589C3.67952 11.1109 3.73338 11.0721 3.79319 11.0449C3.853 11.0177 3.91759 11.0026 3.98326 11.0003C4.04893 10.9981 4.1144 11.0088 4.17592 11.0319ZM7.17592 11.0319C7.2998 11.0786 7.40011 11.1725 7.45485 11.2931C7.50959 11.4136 7.51429 11.5509 7.46792 11.6749L5.96792 15.6749C5.94675 15.7387 5.91292 15.7976 5.86846 15.8481C5.82401 15.8985 5.76983 15.9395 5.70918 15.9685C5.64853 15.9975 5.58264 16.014 5.51547 16.017C5.4483 16.02 5.38122 16.0093 5.31824 15.9858C5.25526 15.9622 5.19768 15.9262 5.14894 15.8799C5.10019 15.8336 5.0613 15.7779 5.03457 15.7162C5.00784 15.6545 4.99383 15.5881 4.99337 15.5208C4.99292 15.4536 5.00603 15.387 5.03192 15.3249L6.53192 11.3249C6.55494 11.2634 6.58986 11.207 6.63469 11.1589C6.67952 11.1109 6.73338 11.0721 6.79319 11.0449C6.853 11.0177 6.91759 11.0026 6.98326 11.0003C7.04893 10.9981 7.1144 11.0088 7.17592 11.0319ZM10.1759 11.0319C10.2998 11.0786 10.4001 11.1725 10.4549 11.2931C10.5096 11.4136 10.5143 11.5509 10.4679 11.6749L8.96792 15.6749C8.94675 15.7387 8.91292 15.7976 8.86846 15.8481C8.82401 15.8985 8.76983 15.9395 8.70918 15.9685C8.64853 15.9975 8.58264 16.014 8.51547 16.017C8.4483 16.02 8.38122 16.0093 8.31824 15.9858C8.25526 15.9622 8.19768 15.9262 8.14894 15.8799C8.10019 15.8336 8.0613 15.7779 8.03457 15.7162C8.00784 15.6545 7.99383 15.5881 7.99337 15.5208C7.99292 15.4536 8.00603 15.387 8.03192 15.3249L9.53192 11.3249C9.55494 11.2634 9.58986 11.207 9.63469 11.1589C9.67952 11.1109 9.73338 11.0721 9.79319 11.0449C9.853 11.0177 9.91759 11.0026 9.98326 11.0003C10.0489 10.9981 10.1144 11.0088 10.1759 11.0319ZM13.1759 11.0319C13.2998 11.0786 13.4001 11.1725 13.4549 11.2931C13.5096 11.4136 13.5143 11.5509 13.4679 11.6749L11.9679 15.6749C11.9181 15.7943 11.824 15.8897 11.7053 15.9412C11.5865 15.9926 11.4525 15.996 11.3314 15.9507C11.2102 15.9054 11.1113 15.8149 11.0555 15.6982C10.9996 15.5815 10.9912 15.4477 11.0319 15.3249L12.5319 11.3249C12.5549 11.2634 12.5899 11.207 12.6347 11.1589C12.6795 11.1109 12.7334 11.0721 12.7932 11.0449C12.853 11.0177 12.9176 11.0026 12.9833 11.0003C13.0489 10.9981 13.1144 11.0088 13.1759 11.0319ZM13.4049 4.02692C13.1973 2.98008 12.6601 2.02713 11.8721 1.3074C11.0841 0.58767 10.0865 0.138909 9.02517 0.0267313C7.96384 -0.0854458 6.89446 0.144845 5.97338 0.683932C5.05231 1.22302 4.32785 2.04263 3.90592 3.02292C3.43276 2.96841 2.95345 3.01105 2.49734 3.14823C2.04123 3.28541 1.61792 3.51423 1.25332 3.8207C0.888721 4.12717 0.59051 4.50482 0.376944 4.93055C0.163378 5.35628 0.0389514 5.82111 0.0112822 6.2966C-0.016387 6.77209 0.0532835 7.24822 0.216028 7.69585C0.378773 8.14347 0.631167 8.55317 0.957757 8.89986C1.28435 9.24654 1.67826 9.52293 2.11538 9.71208C2.5525 9.90124 3.02363 9.99918 3.49992 9.99992H12.9999C13.761 10.0008 14.494 9.71234 15.0504 9.19299C15.6068 8.67365 15.945 7.96224 15.9965 7.20287C16.048 6.44351 15.8089 5.69296 15.3277 5.10326C14.8465 4.51356 14.1592 4.1288 13.4049 4.02692ZM8.49992 0.999923C9.48388 0.999719 10.4334 1.36219 11.1669 2.01804C11.9004 2.67388 12.3665 3.57707 12.4759 4.55492C12.4895 4.67778 12.5481 4.79125 12.6405 4.87343C12.7328 4.95561 12.8523 5.00067 12.9759 4.99992H12.9999C13.5304 4.99992 14.0391 5.21064 14.4141 5.58571C14.7892 5.96078 14.9999 6.46949 14.9999 6.99992C14.9999 7.53036 14.7892 8.03906 14.4141 8.41414C14.0391 8.78921 13.5304 8.99992 12.9999 8.99992H3.49992C3.146 8.99975 2.79614 8.92442 2.4735 8.77894C2.15086 8.63345 1.86279 8.42111 1.62834 8.15598C1.39389 7.89084 1.21841 7.57894 1.11351 7.24092C1.0086 6.9029 0.976666 6.54646 1.01981 6.19517C1.06295 5.84388 1.1802 5.50576 1.36378 5.20317C1.54736 4.90058 1.7931 4.64041 2.08474 4.43989C2.37638 4.23937 2.70727 4.10305 3.05553 4.03996C3.40379 3.97687 3.76147 3.98845 4.10492 4.07392C4.22745 4.10448 4.35701 4.08755 4.46756 4.02652C4.57812 3.96549 4.66149 3.86489 4.70092 3.74492C4.9652 2.9461 5.47454 2.25089 6.15654 1.7581C6.83854 1.26532 7.65852 1.00002 8.49992 0.999923Z"/> </g> <defs> <clipPath id="clip0_34_3515"> <rect width="16" height="16"/> </clipPath> </defs> </svg>