<svg width="16" height="16" viewBox="0 0 16 16" xmlns="http://www.w3.org/2000/svg"> <g clip-path="url(#clip0_34_3531)"> <path d="M13.4049 4.27692C13.1973 3.23008 12.6601 2.27713 11.8721 1.5574C11.0841 0.83767 10.0865 0.388909 9.02517 0.276731C7.96384 0.164554 6.89446 0.394845 5.97338 0.933932C5.05231 1.47302 4.32785 2.29263 3.90592 3.27292C3.43276 3.21841 2.95345 3.26105 2.49734 3.39823C2.04123 3.53541 1.61792 3.76423 1.25332 4.0707C0.888721 4.37717 0.59051 4.75482 0.376944 5.18055C0.163378 5.60628 0.0389514 6.07111 0.0112822 6.5466C-0.016387 7.02209 0.0532835 7.49822 0.216028 7.94585C0.378773 8.39347 0.631167 8.80317 0.957757 9.14986C1.28435 9.49654 1.67826 9.77293 2.11538 9.96208C2.5525 10.1512 3.02363 10.2492 3.49992 10.2499H12.9999C13.761 10.2508 14.494 9.96234 15.0504 9.44299C15.6068 8.92365 15.945 8.21224 15.9965 7.45287C16.048 6.69351 15.8089 5.94296 15.3277 5.35326C14.8465 4.76356 14.1592 4.3788 13.4049 4.27692ZM8.49992 1.24992C9.48388 1.24972 10.4334 1.61219 11.1669 2.26804C11.9004 2.92388 12.3665 3.82707 12.4759 4.80492C12.4895 4.92778 12.5481 5.04125 12.6405 5.12343C12.7328 5.20561 12.8523 5.25067 12.9759 5.24992H12.9999C13.5304 5.25006 14.039 5.4609 14.414 5.83606C14.789 6.21123 14.9996 6.71999 14.9994 7.25042C14.9993 7.78086 14.7884 8.28951 14.4133 8.66449C14.0381 9.03947 13.5294 9.25006 12.9989 9.24992H3.49992C3.146 9.24975 2.79614 9.17442 2.4735 9.02894C2.15086 8.88345 1.86279 8.67111 1.62834 8.40598C1.39389 8.14084 1.21841 7.82894 1.11351 7.49092C1.0086 7.1529 0.976666 6.79646 1.01981 6.44517C1.06295 6.09388 1.1802 5.75576 1.36378 5.45317C1.54736 5.15058 1.7931 4.89041 2.08474 4.68989C2.37638 4.48937 2.70727 4.35305 3.05553 4.28996C3.40379 4.22687 3.76147 4.23845 4.10492 4.32392C4.22745 4.35448 4.35701 4.33755 4.46756 4.27652C4.57812 4.21549 4.66149 4.11489 4.70092 3.99492C4.9652 3.1961 5.47454 2.50089 6.15654 2.0081C6.83854 1.51532 7.65852 1.25002 8.49992 1.24992ZM2.62492 11.4999C2.69123 11.4999 2.75482 11.5263 2.8017 11.5731C2.84858 11.62 2.87492 11.6836 2.87492 11.7499V12.3199L3.37592 12.0329C3.43335 12.0019 3.50064 11.9945 3.56341 12.0125C3.62619 12.0304 3.67946 12.0721 3.71185 12.1288C3.74423 12.1855 3.75317 12.2526 3.73674 12.3158C3.72031 12.379 3.67982 12.4332 3.62392 12.4669L3.12892 12.7499L3.62392 13.0329C3.67982 13.0666 3.72031 13.1209 3.73674 13.1841C3.75317 13.2472 3.74423 13.3143 3.71185 13.371C3.67946 13.4277 3.62619 13.4695 3.56341 13.4874C3.50064 13.5053 3.43335 13.498 3.37592 13.4669L2.87492 13.1809V13.7499C2.87492 13.8162 2.84858 13.8798 2.8017 13.9267C2.75482 13.9736 2.69123 13.9999 2.62492 13.9999C2.55862 13.9999 2.49503 13.9736 2.44815 13.9267C2.40126 13.8798 2.37492 13.8162 2.37492 13.7499V13.1799L1.87392 13.4669C1.81649 13.498 1.7492 13.5053 1.68643 13.4874C1.62366 13.4695 1.57039 13.4277 1.538 13.371C1.50561 13.3143 1.49668 13.2472 1.51311 13.1841C1.52954 13.1209 1.57003 13.0666 1.62592 13.0329L2.12092 12.7499L1.62592 12.4669C1.57003 12.4332 1.52954 12.379 1.51311 12.3158C1.49668 12.2526 1.50561 12.1855 1.538 12.1288C1.57039 12.0721 1.62366 12.0304 1.68643 12.0125C1.7492 11.9945 1.81649 12.0019 1.87392 12.0329L2.37492 12.3189V11.7499C2.37492 11.6836 2.40126 11.62 2.44815 11.5731C2.49503 11.5263 2.55862 11.4999 2.62492 11.4999ZM5.37492 13.4999C5.44123 13.4999 5.50482 13.5263 5.5517 13.5731C5.59858 13.62 5.62492 13.6836 5.62492 13.7499V14.3199L6.12592 14.0329C6.18335 14.0019 6.25064 13.9945 6.31342 14.0125C6.37619 14.0304 6.42946 14.0721 6.46185 14.1288C6.49423 14.1855 6.50317 14.2526 6.48674 14.3158C6.47031 14.379 6.42982 14.4332 6.37392 14.4669L5.87892 14.7499L6.37392 15.0329C6.42982 15.0666 6.47031 15.1209 6.48674 15.1841C6.50317 15.2472 6.49423 15.3143 6.46185 15.371C6.42946 15.4277 6.37619 15.4695 6.31342 15.4874C6.25064 15.5053 6.18335 15.498 6.12592 15.4669L5.62492 15.1809V15.7499C5.62492 15.8162 5.59858 15.8798 5.5517 15.9267C5.50482 15.9736 5.44123 15.9999 5.37492 15.9999C5.30862 15.9999 5.24503 15.9736 5.19815 15.9267C5.15126 15.8798 5.12492 15.8162 5.12492 15.7499V15.1799L4.62392 15.4669C4.56649 15.498 4.4992 15.5053 4.43643 15.4874C4.37366 15.4695 4.32039 15.4277 4.288 15.371C4.25561 15.3143 4.24668 15.2472 4.26311 15.1841C4.27954 15.1209 4.32003 15.0666 4.37592 15.0329L4.87092 14.7499L4.37592 14.4669C4.32003 14.4332 4.27954 14.379 4.26311 14.3158C4.24668 14.2526 4.25561 14.1855 4.288 14.1288C4.32039 14.0721 4.37366 14.0304 4.43643 14.0125C4.4992 13.9945 4.56649 14.0019 4.62392 14.0329L5.12492 14.3189V13.7499C5.12492 13.6836 5.15126 13.62 5.19815 13.5731C5.24503 13.5263 5.30862 13.4999 5.37492 13.4999ZM10.8749 13.4999C10.9412 13.4999 11.0048 13.5263 11.0517 13.5731C11.0986 13.62 11.1249 13.6836 11.1249 13.7499V14.3199L11.6259 14.0329C11.6834 14.0019 11.7506 13.9945 11.8134 14.0125C11.8762 14.0304 11.9295 14.0721 11.9618 14.1288C11.9942 14.1855 12.0032 14.2526 11.9867 14.3158C11.9703 14.379 11.9298 14.4332 11.8739 14.4669L11.3789 14.7499L11.8739 15.0329C11.9298 15.0666 11.9703 15.1209 11.9867 15.1841C12.0032 15.2472 11.9942 15.3143 11.9618 15.371C11.9295 15.4277 11.8762 15.4695 11.8134 15.4874C11.7506 15.5053 11.6834 15.498 11.6259 15.4669L11.1249 15.1809V15.7499C11.1249 15.8162 11.0986 15.8798 11.0517 15.9267C11.0048 15.9736 10.9412 15.9999 10.8749 15.9999C10.8086 15.9999 10.745 15.9736 10.6981 15.9267C10.6513 15.8798 10.6249 15.8162 10.6249 15.7499V15.1799L10.1239 15.4669C10.0665 15.498 9.9992 15.5053 9.93643 15.4874C9.87366 15.4695 9.82039 15.4277 9.788 15.371C9.75561 15.3143 9.74668 15.2472 9.76311 15.1841C9.77954 15.1209 9.82003 15.0666 9.87592 15.0329L10.3709 14.7499L9.87592 14.4669C9.82003 14.4332 9.77954 14.379 9.76311 14.3158C9.74668 14.2526 9.75561 14.1855 9.788 14.1288C9.82039 14.0721 9.87366 14.0304 9.93643 14.0125C9.9992 13.9945 10.0665 14.0019 10.1239 14.0329L10.6249 14.3189V13.7499C10.6249 13.6836 10.6513 13.62 10.6981 13.5731C10.745 13.5263 10.8086 13.4999 10.8749 13.4999ZM8.12492 11.4999C8.19123 11.4999 8.25482 11.5263 8.3017 11.5731C8.34858 11.62 8.37492 11.6836 8.37492 11.7499V12.3199L8.87592 12.0329C8.93335 12.0019 9.00064 11.9945 9.06341 12.0125C9.12619 12.0304 9.17946 12.0721 9.21185 12.1288C9.24424 12.1855 9.25317 12.2526 9.23674 12.3158C9.22031 12.379 9.17982 12.4332 9.12392 12.4669L8.62892 12.7499L9.12392 13.0329C9.17982 13.0666 9.22031 13.1209 9.23674 13.1841C9.25317 13.2472 9.24424 13.3143 9.21185 13.371C9.17946 13.4277 9.12619 13.4695 9.06341 13.4874C9.00064 13.5053 8.93335 13.498 8.87592 13.4669L8.37492 13.1809V13.7499C8.37492 13.8162 8.34858 13.8798 8.3017 13.9267C8.25482 13.9736 8.19123 13.9999 8.12492 13.9999C8.05862 13.9999 7.99503 13.9736 7.94815 13.9267C7.90126 13.8798 7.87492 13.8162 7.87492 13.7499V13.1799L7.37392 13.4669C7.31649 13.498 7.2492 13.5053 7.18643 13.4874C7.12366 13.4695 7.07039 13.4277 7.038 13.371C7.00561 13.3143 6.99668 13.2472 7.01311 13.1841C7.02954 13.1209 7.07003 13.0666 7.12592 13.0329L7.62092 12.7499L7.12592 12.4669C7.07003 12.4332 7.02954 12.379 7.01311 12.3158C6.99668 12.2526 7.00561 12.1855 7.038 12.1288C7.07039 12.0721 7.12366 12.0304 7.18643 12.0125C7.2492 11.9945 7.31649 12.0019 7.37392 12.0329L7.87492 12.3189V11.7499C7.87492 11.6836 7.90126 11.62 7.94815 11.5731C7.99503 11.5263 8.05862 11.4999 8.12492 11.4999ZM13.6249 11.4999C13.6912 11.4999 13.7548 11.5263 13.8017 11.5731C13.8486 11.62 13.8749 11.6836 13.8749 11.7499V12.3199L14.3759 12.0329C14.4334 12.0019 14.5006 11.9945 14.5634 12.0125C14.6262 12.0304 14.6795 12.0721 14.7118 12.1288C14.7442 12.1855 14.7532 12.2526 14.7367 12.3158C14.7203 12.379 14.6798 12.4332 14.6239 12.4669L14.1289 12.7499L14.6239 13.0329C14.6798 13.0666 14.7203 13.1209 14.7367 13.1841C14.7532 13.2472 14.7442 13.3143 14.7118 13.371C14.6795 13.4277 14.6262 13.4695 14.5634 13.4874C14.5006 13.5053 14.4334 13.498 14.3759 13.4669L13.8749 13.1809V13.7499C13.8749 13.8162 13.8486 13.8798 13.8017 13.9267C13.7548 13.9736 13.6912 13.9999 13.6249 13.9999C13.5586 13.9999 13.495 13.9736 13.4481 13.9267C13.4013 13.8798 13.3749 13.8162 13.3749 13.7499V13.1799L12.8739 13.4669C12.8165 13.498 12.7492 13.5053 12.6864 13.4874C12.6237 13.4695 12.5704 13.4277 12.538 13.371C12.5056 13.3143 12.4967 13.2472 12.5131 13.1841C12.5295 13.1209 12.57 13.0666 12.6259 13.0329L13.1209 12.7499L12.6259 12.4669C12.57 12.4332 12.5295 12.379 12.5131 12.3158C12.4967 12.2526 12.5056 12.1855 12.538 12.1288C12.5704 12.0721 12.6237 12.0304 12.6864 12.0125C12.7492 11.9945 12.8165 12.0019 12.8739 12.0329L13.3749 12.3189V11.7499C13.3749 11.6836 13.4013 11.62 13.4481 11.5731C13.495 11.5263 13.5586 11.4999 13.6249 11.4999Z"/> </g> <defs> <clipPath id="clip0_34_3531"> <rect width="16" height="16"/> </clipPath> </defs> </svg>