<svg width="16" height="16" viewBox="0 0 16 16" fill="none" xmlns="http://www.w3.org/2000/svg">
<g clip-path="url(#clip0_34_3545)">
<path d="M13.4049 7.02692C13.1973 5.98008 12.6601 5.02713 11.8721 4.3074C11.0841 3.58767 10.0865 3.13891 9.02517 3.02673C7.96384 2.91455 6.89446 3.14484 5.97338 3.68393C5.05231 4.22302 4.32785 5.04263 3.90592 6.02292C3.43276 5.96841 2.95345 6.01105 2.49734 6.14823C2.04123 6.28541 1.61792 6.51423 1.25332 6.8207C0.888721 7.12717 0.59051 7.50482 0.376944 7.93055C0.163378 8.35628 0.0389514 8.82111 0.0112822 9.2966C-0.016387 9.77209 0.0532835 10.2482 0.216028 10.6958C0.378773 11.1435 0.631167 11.5532 0.957757 11.8999C1.28435 12.2465 1.67826 12.5229 2.11538 12.7121C2.5525 12.9012 3.02363 12.9992 3.49992 12.9999H12.9999C13.761 13.0008 14.494 12.7123 15.0504 12.193C15.6068 11.6736 15.945 10.9622 15.9965 10.2029C16.048 9.44351 15.8089 8.69296 15.3277 8.10326C14.8465 7.51356 14.1592 7.1288 13.4049 7.02692Z" fill="#212529"/>
</g>
<defs>
<clipPath id="clip0_34_3545">
<rect width="16" height="16" fill="white"/>
</clipPath>
</defs>
</svg>
