<svg width="16" height="16" viewBox="0 0 16 16" fill="none" xmlns="http://www.w3.org/2000/svg">
<g clip-path="url(#clip0_34_3497)">
<path d="M2.65792 11.026C2.78358 11.068 2.88743 11.1582 2.94668 11.2767C3.00593 11.3952 3.01573 11.5323 2.97392 11.658L2.47392 13.158C2.45509 13.2226 2.42342 13.2827 2.38082 13.3348C2.33822 13.3868 2.28555 13.4297 2.22598 13.4609C2.1664 13.4921 2.10114 13.511 2.0341 13.5164C1.96706 13.5218 1.89962 13.5137 1.83581 13.4924C1.772 13.4711 1.71314 13.4372 1.66275 13.3926C1.61236 13.3481 1.57148 13.2938 1.54255 13.2331C1.51361 13.1724 1.49723 13.1065 1.49437 13.0393C1.49152 12.9721 1.50225 12.905 1.52592 12.842L2.02592 11.342C2.06791 11.2164 2.15805 11.1125 2.27654 11.0533C2.39504 10.994 2.53221 10.9842 2.65792 11.026ZM12.1579 11.026C12.2836 11.068 12.3874 11.1582 12.4467 11.2767C12.5059 11.3952 12.5157 11.5323 12.4739 11.658L11.9739 13.158C11.9284 13.2791 11.8377 13.3778 11.721 13.4334C11.6043 13.4891 11.4705 13.4973 11.3478 13.4564C11.2251 13.4155 11.1231 13.3286 11.063 13.2141C11.003 13.0995 10.9897 12.9662 11.0259 12.842L11.5259 11.342C11.5679 11.2164 11.658 11.1125 11.7765 11.0533C11.895 10.994 12.0322 10.9842 12.1579 11.026ZM4.65792 12.526C4.78358 12.568 4.88743 12.6582 4.94668 12.7767C5.00593 12.8952 5.01573 13.0323 4.97392 13.158L4.47392 14.658C4.45509 14.7226 4.42342 14.7827 4.38082 14.8348C4.33822 14.8868 4.28555 14.9297 4.22598 14.9609C4.1664 14.9921 4.10114 15.011 4.0341 15.0164C3.96706 15.0218 3.89962 15.0137 3.83581 14.9924C3.772 14.9711 3.71314 14.9372 3.66275 14.8926C3.61236 14.8481 3.57148 14.7938 3.54255 14.7331C3.51361 14.6724 3.49723 14.6065 3.49437 14.5393C3.49152 14.4721 3.50225 14.405 3.52592 14.342L4.02592 12.842C4.06791 12.7164 4.15805 12.6125 4.27654 12.5533C4.39504 12.494 4.53221 12.4842 4.65792 12.526ZM14.1579 12.526C14.2836 12.568 14.3874 12.6582 14.4467 12.7767C14.5059 12.8952 14.5157 13.0323 14.4739 13.158L13.9739 14.658C13.9284 14.7791 13.8377 14.8778 13.721 14.9334C13.6043 14.9891 13.4705 14.9973 13.3478 14.9564C13.2251 14.9155 13.1231 14.8286 13.063 14.7141C13.003 14.5995 12.9897 14.4662 13.0259 14.342L13.5259 12.842C13.5679 12.7164 13.658 12.6125 13.7765 12.5533C13.895 12.494 14.0322 12.4842 14.1579 12.526ZM7.05292 11.276C7.09449 11.1931 7.15831 11.1234 7.23725 11.0746C7.3162 11.0259 7.40714 11 7.49992 11H8.49992C8.57911 11.0001 8.65714 11.019 8.72761 11.0551C8.79808 11.0912 8.85896 11.1435 8.90524 11.2078C8.95152 11.272 8.98188 11.3464 8.99383 11.4246C9.00577 11.5029 8.99895 11.5829 8.97392 11.658L8.69392 12.5H9.49992C9.59401 12.5002 9.68615 12.5269 9.76575 12.577C9.84535 12.6272 9.90919 12.6988 9.94992 12.7836C9.99065 12.8684 10.0066 12.963 9.99602 13.0564C9.98541 13.1499 9.94863 13.2385 9.88992 13.312L7.88992 15.812C7.81856 15.9007 7.7191 15.9623 7.60797 15.9868C7.49683 16.0113 7.38067 15.9971 7.27868 15.9466C7.17669 15.8962 7.09496 15.8124 7.04701 15.7092C6.99905 15.606 6.98773 15.4895 7.01492 15.379L7.35992 14H6.49992C6.41466 14 6.33081 13.9782 6.25635 13.9367C6.18189 13.8952 6.11929 13.8353 6.07449 13.7627C6.0297 13.6902 6.00421 13.6074 6.00043 13.5222C5.99665 13.437 6.01472 13.3523 6.05292 13.276L7.05292 11.276ZM13.4049 4.02704C13.1973 2.98021 12.6601 2.02725 11.8721 1.30752C11.0841 0.587792 10.0865 0.139031 9.02517 0.0268534C7.96384 -0.0853238 6.89446 0.144967 5.97338 0.684054C5.05231 1.22314 4.32785 2.04275 3.90592 3.02304C3.43276 2.96854 2.95345 3.01118 2.49734 3.14835C2.04123 3.28553 1.61792 3.51435 1.25332 3.82082C0.888721 4.12729 0.59051 4.50495 0.376944 4.93067C0.163378 5.3564 0.0389514 5.82124 0.0112822 6.29672C-0.016387 6.77221 0.0532835 7.24834 0.216028 7.69597C0.378773 8.14359 0.631167 8.55329 0.957757 8.89998C1.28435 9.24667 1.67826 9.52305 2.11538 9.7122C2.5525 9.90136 3.02363 9.9993 3.49992 10H12.9999C13.761 10.0009 14.494 9.71246 15.0504 9.19312C15.6068 8.67377 15.945 7.96236 15.9965 7.203C16.048 6.44363 15.8089 5.69308 15.3277 5.10338C14.8465 4.51368 14.1592 4.12892 13.4049 4.02704Z" fill="#212529"/>
</g>
<defs>
<clipPath id="clip0_34_3497">
<rect width="16" height="16" fill="white"/>
</clipPath>
</defs>
</svg>
