<svg width="16" height="16" viewBox="0 0 16 16" xmlns="http://www.w3.org/2000/svg"> <g clip-path="url(#clip0_34_3529)"> <path d="M2.37492 13.4999C2.44123 13.4999 2.50482 13.5263 2.5517 13.5731C2.59858 13.62 2.62492 13.6836 2.62492 13.7499V14.3199L3.12592 14.0329C3.18335 14.0019 3.25064 13.9945 3.31341 14.0125C3.37619 14.0304 3.42946 14.0721 3.46185 14.1288C3.49423 14.1855 3.50317 14.2526 3.48674 14.3158C3.47031 14.379 3.42982 14.4332 3.37392 14.4669L2.87892 14.7499L3.37392 15.0329C3.40324 15.0488 3.4291 15.0703 3.44997 15.0963C3.47084 15.1223 3.48631 15.1522 3.49546 15.1842C3.5046 15.2163 3.50725 15.2498 3.50325 15.2829C3.49924 15.316 3.48866 15.348 3.47212 15.3769C3.45558 15.4058 3.43343 15.4312 3.40696 15.4514C3.38049 15.4717 3.35024 15.4864 3.31798 15.4948C3.28572 15.5032 3.25212 15.5051 3.21913 15.5003C3.18615 15.4955 3.15446 15.4841 3.12592 15.4669L2.62492 15.1809V15.7499C2.62492 15.8162 2.59858 15.8798 2.5517 15.9267C2.50482 15.9736 2.44123 15.9999 2.37492 15.9999C2.30862 15.9999 2.24503 15.9736 2.19815 15.9267C2.15126 15.8798 2.12492 15.8162 2.12492 15.7499V15.1799L1.62392 15.4669C1.59539 15.4841 1.56369 15.4955 1.53071 15.5003C1.49773 15.5051 1.46412 15.5032 1.43187 15.4948C1.39961 15.4864 1.36936 15.4717 1.34289 15.4514C1.31642 15.4312 1.29426 15.4058 1.27773 15.3769C1.26119 15.348 1.25061 15.316 1.2466 15.2829C1.24259 15.2498 1.24524 15.2163 1.25439 15.1842C1.26354 15.1522 1.279 15.1223 1.29988 15.0963C1.32075 15.0703 1.3466 15.0488 1.37592 15.0329L1.87092 14.7499L1.37592 14.4669C1.3466 14.4511 1.32075 14.4295 1.29988 14.4035C1.279 14.3776 1.26354 14.3477 1.25439 14.3156C1.24524 14.2836 1.24259 14.25 1.2466 14.2169C1.25061 14.1838 1.26119 14.1519 1.27773 14.123C1.29426 14.094 1.31642 14.0687 1.34289 14.0484C1.36936 14.0282 1.39961 14.0134 1.43187 14.005C1.46412 13.9966 1.49773 13.9948 1.53071 13.9996C1.56369 14.0044 1.59539 14.0157 1.62392 14.0329L2.12492 14.3189V13.7499C2.12492 13.6836 2.15126 13.62 2.19815 13.5731C2.24503 13.5263 2.30862 13.4999 2.37492 13.4999ZM4.22392 11.0529C4.34221 11.1123 4.43211 11.2162 4.47392 11.3418C4.51572 11.4674 4.50601 11.6045 4.44692 11.7229L3.94692 12.7229C3.88525 12.8373 3.78148 12.9232 3.6576 12.9623C3.53371 13.0015 3.39944 12.9909 3.28323 12.9328C3.16701 12.8747 3.07798 12.7736 3.03499 12.651C2.992 12.5284 2.99843 12.3939 3.05292 12.2759L3.55292 11.2759C3.61234 11.1576 3.71623 11.0677 3.84183 11.0259C3.96742 10.9841 4.10447 10.9938 4.22292 11.0529H4.22392ZM6.37492 13.4999C6.44123 13.4999 6.50482 13.5263 6.5517 13.5731C6.59858 13.62 6.62492 13.6836 6.62492 13.7499V14.3199L7.12492 14.0329C7.18247 13.9999 7.25079 13.9911 7.31483 14.0084C7.37887 14.0258 7.4334 14.0679 7.46642 14.1254C7.49944 14.183 7.50825 14.2513 7.4909 14.3153C7.47355 14.3794 7.43147 14.4339 7.37392 14.4669L6.87892 14.7499L7.37392 15.0329C7.40324 15.0488 7.4291 15.0703 7.44997 15.0963C7.47084 15.1223 7.48631 15.1522 7.49546 15.1842C7.5046 15.2163 7.50725 15.2498 7.50325 15.2829C7.49924 15.316 7.48866 15.348 7.47212 15.3769C7.45559 15.4058 7.43343 15.4312 7.40696 15.4514C7.38049 15.4717 7.35024 15.4864 7.31798 15.4948C7.28572 15.5032 7.25212 15.5051 7.21913 15.5003C7.18615 15.4955 7.15446 15.4841 7.12592 15.4669L6.62492 15.1809V15.7499C6.62492 15.8162 6.59858 15.8798 6.5517 15.9267C6.50482 15.9736 6.44123 15.9999 6.37492 15.9999C6.30862 15.9999 6.24503 15.9736 6.19815 15.9267C6.15126 15.8798 6.12492 15.8162 6.12492 15.7499V15.1799L5.62392 15.4669C5.59539 15.4841 5.56369 15.4955 5.53071 15.5003C5.49773 15.5051 5.46412 15.5032 5.43187 15.4948C5.39961 15.4864 5.36936 15.4717 5.34289 15.4514C5.31642 15.4312 5.29426 15.4058 5.27773 15.3769C5.26119 15.348 5.25061 15.316 5.2466 15.2829C5.24259 15.2498 5.24524 15.2163 5.25439 15.1842C5.26354 15.1522 5.279 15.1223 5.29988 15.0963C5.32075 15.0703 5.3466 15.0488 5.37592 15.0329L5.87092 14.7499L5.37592 14.4669C5.3466 14.4511 5.32075 14.4295 5.29988 14.4035C5.279 14.3776 5.26354 14.3477 5.25439 14.3156C5.24524 14.2836 5.24259 14.25 5.2466 14.2169C5.25061 14.1838 5.26119 14.1519 5.27773 14.123C5.29426 14.094 5.31642 14.0687 5.34289 14.0484C5.36936 14.0282 5.39961 14.0134 5.43187 14.005C5.46412 13.9966 5.49773 13.9948 5.53071 13.9996C5.56369 14.0044 5.59539 14.0157 5.62392 14.0329L6.12492 14.3189V13.7499C6.12492 13.6836 6.15126 13.62 6.19815 13.5731C6.24503 13.5263 6.30862 13.4999 6.37492 13.4999ZM8.22392 11.0529C8.34221 11.1123 8.43211 11.2162 8.47392 11.3418C8.51572 11.4674 8.50601 11.6045 8.44692 11.7229L7.94692 12.7229C7.88525 12.8373 7.78148 12.9232 7.6576 12.9623C7.53371 13.0015 7.39944 12.9909 7.28323 12.9328C7.16701 12.8747 7.07798 12.7736 7.03499 12.651C6.992 12.5284 6.99843 12.3939 7.05292 12.2759L7.55292 11.2759C7.61234 11.1576 7.71623 11.0677 7.84183 11.0259C7.96742 10.9841 8.10447 10.9938 8.22292 11.0529H8.22392ZM10.3749 13.4999C10.4412 13.4999 10.5048 13.5263 10.5517 13.5731C10.5986 13.62 10.6249 13.6836 10.6249 13.7499V14.3199L11.1249 14.0329C11.1534 14.0166 11.1849 14.006 11.2174 14.0018C11.25 13.9976 11.2831 13.9999 11.3148 14.0084C11.3465 14.017 11.3763 14.0318 11.4023 14.0519C11.4283 14.0719 11.4501 14.0969 11.4664 14.1254C11.4828 14.1539 11.4933 14.1854 11.4975 14.2179C11.5017 14.2505 11.4995 14.2836 11.4909 14.3153C11.4823 14.347 11.4676 14.3767 11.4475 14.4028C11.4274 14.4288 11.4024 14.4506 11.3739 14.4669L10.8789 14.7499L11.3739 15.0329C11.4032 15.0488 11.4291 15.0703 11.45 15.0963C11.4708 15.1223 11.4863 15.1522 11.4955 15.1842C11.5046 15.2163 11.5073 15.2498 11.5032 15.2829C11.4992 15.316 11.4887 15.348 11.4721 15.3769C11.4556 15.4058 11.4334 15.4312 11.407 15.4514C11.3805 15.4717 11.3502 15.4864 11.318 15.4948C11.2857 15.5032 11.2521 15.5051 11.2191 15.5003C11.1862 15.4955 11.1545 15.4841 11.1259 15.4669L10.6249 15.1809V15.7499C10.6249 15.8162 10.5986 15.8798 10.5517 15.9267C10.5048 15.9736 10.4412 15.9999 10.3749 15.9999C10.3086 15.9999 10.245 15.9736 10.1981 15.9267C10.1513 15.8798 10.1249 15.8162 10.1249 15.7499V15.1799L9.62392 15.4669C9.59538 15.4841 9.56369 15.4955 9.53071 15.5003C9.49773 15.5051 9.46412 15.5032 9.43187 15.4948C9.39961 15.4864 9.36936 15.4717 9.34289 15.4514C9.31641 15.4312 9.29426 15.4058 9.27773 15.3769C9.26119 15.348 9.25061 15.316 9.2466 15.2829C9.24259 15.2498 9.24524 15.2163 9.25439 15.1842C9.26354 15.1522 9.279 15.1223 9.29988 15.0963C9.32075 15.0703 9.3466 15.0488 9.37592 15.0329L9.87092 14.7499L9.37592 14.4669C9.3466 14.4511 9.32075 14.4295 9.29988 14.4035C9.279 14.3776 9.26354 14.3477 9.25439 14.3156C9.24524 14.2836 9.24259 14.25 9.2466 14.2169C9.25061 14.1838 9.26119 14.1519 9.27773 14.123C9.29426 14.094 9.31641 14.0687 9.34289 14.0484C9.36936 14.0282 9.39961 14.0134 9.43187 14.005C9.46412 13.9966 9.49773 13.9948 9.53071 13.9996C9.56369 14.0044 9.59538 14.0157 9.62392 14.0329L10.1249 14.3189V13.7499C10.1249 13.6836 10.1513 13.62 10.1981 13.5731C10.245 13.5263 10.3086 13.4999 10.3749 13.4999ZM12.2239 11.0529C12.3422 11.1123 12.4321 11.2162 12.4739 11.3418C12.5157 11.4674 12.506 11.6045 12.4469 11.7229L11.9469 12.7229C11.9188 12.7837 11.8788 12.8382 11.8293 12.8833C11.7797 12.9283 11.7216 12.9629 11.6584 12.9851C11.5952 13.0072 11.5283 13.0165 11.4614 13.0122C11.3946 13.008 11.3293 12.9904 11.2694 12.9605C11.2095 12.9305 11.1562 12.8888 11.1128 12.8379C11.0693 12.787 11.0365 12.7279 11.0163 12.664C10.9961 12.6002 10.9889 12.5329 10.9952 12.4662C11.0015 12.3996 11.0211 12.3349 11.0529 12.2759L11.5529 11.2759C11.6123 11.1576 11.7162 11.0677 11.8418 11.0259C11.9674 10.9841 12.1045 10.9938 12.2229 11.0529H12.2239ZM13.4049 4.02692C13.1973 2.98008 12.6601 2.02713 11.8721 1.3074C11.0841 0.58767 10.0865 0.138909 9.02517 0.0267313C7.96384 -0.0854458 6.89446 0.144845 5.97338 0.683932C5.05231 1.22302 4.32785 2.04263 3.90592 3.02292C3.43276 2.96841 2.95345 3.01105 2.49734 3.14823C2.04123 3.28541 1.61792 3.51423 1.25332 3.8207C0.888721 4.12717 0.59051 4.50482 0.376944 4.93055C0.163378 5.35628 0.0389514 5.82111 0.0112822 6.2966C-0.016387 6.77209 0.0532835 7.24822 0.216028 7.69585C0.378773 8.14347 0.631167 8.55317 0.957757 8.89986C1.28435 9.24654 1.67826 9.52293 2.11538 9.71208C2.5525 9.90124 3.02363 9.99918 3.49992 9.99992H12.9999C13.761 10.0008 14.494 9.71234 15.0504 9.19299C15.6068 8.67365 15.945 7.96224 15.9965 7.20287C16.048 6.44351 15.8089 5.69296 15.3277 5.10326C14.8465 4.51356 14.1592 4.1288 13.4049 4.02692Z"/> </g> <defs> <clipPath id="clip0_34_3529"> <rect width="16" height="16"/> </clipPath> </defs> </svg>