<svg width="16" height="16" viewBox="0 0 16 16" xmlns="http://www.w3.org/2000/svg"> <g clip-path="url(#clip0_34_3527)"> <path d="M13.4049 4.02692C13.1973 2.98008 12.6601 2.02713 11.8721 1.3074C11.0841 0.58767 10.0865 0.138909 9.02517 0.0267313C7.96384 -0.0854458 6.89446 0.144845 5.97338 0.683932C5.05231 1.22302 4.32785 2.04263 3.90592 3.02292C3.43276 2.96841 2.95345 3.01105 2.49734 3.14823C2.04123 3.28541 1.61792 3.51423 1.25332 3.8207C0.888721 4.12717 0.59051 4.50482 0.376944 4.93055C0.163378 5.35628 0.0389514 5.82111 0.0112822 6.2966C-0.016387 6.77209 0.0532835 7.24822 0.216028 7.69585C0.378773 8.14347 0.631167 8.55317 0.957757 8.89986C1.28435 9.24654 1.67826 9.52293 2.11538 9.71208C2.5525 9.90124 3.02363 9.99918 3.49992 9.99992H12.9999C13.761 10.0008 14.494 9.71234 15.0504 9.19299C15.6068 8.67365 15.945 7.96224 15.9965 7.20287C16.048 6.44351 15.8089 5.69296 15.3277 5.10326C14.8465 4.51356 14.1592 4.1288 13.4049 4.02692ZM8.49992 0.999923C9.48388 0.999719 10.4334 1.36219 11.1669 2.01804C11.9004 2.67388 12.3665 3.57707 12.4759 4.55492C12.4895 4.67778 12.5481 4.79125 12.6405 4.87343C12.7328 4.95561 12.8523 5.00067 12.9759 4.99992H12.9999C13.5304 4.99992 14.0391 5.21064 14.4141 5.58571C14.7892 5.96078 14.9999 6.46949 14.9999 6.99992C14.9999 7.53036 14.7892 8.03906 14.4141 8.41414C14.0391 8.78921 13.5304 8.99992 12.9999 8.99992H3.49992C3.146 8.99975 2.79614 8.92442 2.4735 8.77894C2.15086 8.63345 1.86279 8.42111 1.62834 8.15598C1.39389 7.89084 1.21841 7.57894 1.11351 7.24092C1.0086 6.9029 0.976666 6.54646 1.01981 6.19517C1.06295 5.84388 1.1802 5.50576 1.36378 5.20317C1.54736 4.90058 1.7931 4.64041 2.08474 4.43989C2.37638 4.23937 2.70727 4.10305 3.05553 4.03996C3.40379 3.97687 3.76147 3.98845 4.10492 4.07392C4.22745 4.10448 4.35701 4.08755 4.46756 4.02652C4.57812 3.96549 4.66149 3.86489 4.70092 3.74492C4.9652 2.9461 5.47454 2.25089 6.15654 1.7581C6.83854 1.26532 7.65852 1.00002 8.49992 0.999923ZM2.37492 13.4999C2.44123 13.4999 2.50482 13.5263 2.5517 13.5731C2.59858 13.62 2.62492 13.6836 2.62492 13.7499V14.3199L3.12592 14.0329C3.18335 14.0019 3.25064 13.9945 3.31341 14.0125C3.37619 14.0304 3.42946 14.0721 3.46185 14.1288C3.49423 14.1855 3.50317 14.2526 3.48674 14.3158C3.47031 14.379 3.42982 14.4332 3.37392 14.4669L2.87892 14.7499L3.37392 15.0329C3.42982 15.0666 3.47031 15.1209 3.48674 15.1841C3.50317 15.2472 3.49423 15.3143 3.46185 15.371C3.42946 15.4277 3.37619 15.4695 3.31341 15.4874C3.25064 15.5053 3.18335 15.498 3.12592 15.4669L2.62492 15.1809V15.7499C2.62492 15.8162 2.59858 15.8798 2.5517 15.9267C2.50482 15.9736 2.44123 15.9999 2.37492 15.9999C2.30862 15.9999 2.24503 15.9736 2.19815 15.9267C2.15126 15.8798 2.12492 15.8162 2.12492 15.7499V15.1799L1.62392 15.4669C1.56649 15.498 1.4992 15.5053 1.43643 15.4874C1.37366 15.4695 1.32039 15.4277 1.288 15.371C1.25561 15.3143 1.24668 15.2472 1.26311 15.1841C1.27954 15.1209 1.32003 15.0666 1.37592 15.0329L1.87092 14.7499L1.37592 14.4669C1.32003 14.4332 1.27954 14.379 1.26311 14.3158C1.24668 14.2526 1.25561 14.1855 1.288 14.1288C1.32039 14.0721 1.37366 14.0304 1.43643 14.0125C1.4992 13.9945 1.56649 14.0019 1.62392 14.0329L2.12492 14.3189V13.7499C2.12492 13.6836 2.15126 13.62 2.19815 13.5731C2.24503 13.5263 2.30862 13.4999 2.37492 13.4999ZM4.22392 11.0529C4.34221 11.1123 4.43211 11.2162 4.47392 11.3418C4.51572 11.4674 4.50601 11.6045 4.44692 11.7229L3.94692 12.7229C3.91884 12.7837 3.87884 12.8382 3.82928 12.8833C3.77973 12.9283 3.72163 12.9629 3.65844 12.9851C3.59525 13.0072 3.52825 13.0165 3.46142 13.0122C3.3946 13.008 3.3293 12.9904 3.26941 12.9605C3.20951 12.9305 3.15625 12.8888 3.11277 12.8379C3.06928 12.787 3.03648 12.7279 3.01628 12.664C2.99609 12.6002 2.98893 12.5329 2.99523 12.4662C3.00152 12.3996 3.02114 12.3349 3.05292 12.2759L3.55292 11.2759C3.61234 11.1576 3.71623 11.0677 3.84183 11.0259C3.96742 10.9841 4.10447 10.9938 4.22292 11.0529H4.22392ZM6.37492 13.4999C6.44123 13.4999 6.50482 13.5263 6.5517 13.5731C6.59858 13.62 6.62492 13.6836 6.62492 13.7499V14.3199L7.12592 14.0329C7.18335 14.0019 7.25064 13.9945 7.31342 14.0125C7.37619 14.0304 7.42946 14.0721 7.46185 14.1288C7.49423 14.1855 7.50317 14.2526 7.48674 14.3158C7.47031 14.379 7.42982 14.4332 7.37392 14.4669L6.87892 14.7499L7.37392 15.0329C7.42982 15.0666 7.47031 15.1209 7.48674 15.1841C7.50317 15.2472 7.49423 15.3143 7.46185 15.371C7.42946 15.4277 7.37619 15.4695 7.31342 15.4874C7.25064 15.5053 7.18335 15.498 7.12592 15.4669L6.62492 15.1809V15.7499C6.62492 15.8162 6.59858 15.8798 6.5517 15.9267C6.50482 15.9736 6.44123 15.9999 6.37492 15.9999C6.30862 15.9999 6.24503 15.9736 6.19815 15.9267C6.15126 15.8798 6.12492 15.8162 6.12492 15.7499V15.1799L5.62392 15.4669C5.56649 15.498 5.4992 15.5053 5.43643 15.4874C5.37366 15.4695 5.32039 15.4277 5.288 15.371C5.25561 15.3143 5.24668 15.2472 5.26311 15.1841C5.27954 15.1209 5.32003 15.0666 5.37592 15.0329L5.87092 14.7499L5.37592 14.4669C5.32003 14.4332 5.27954 14.379 5.26311 14.3158C5.24668 14.2526 5.25561 14.1855 5.288 14.1288C5.32039 14.0721 5.37366 14.0304 5.43643 14.0125C5.4992 13.9945 5.56649 14.0019 5.62392 14.0329L6.12492 14.3189V13.7499C6.12492 13.6836 6.15126 13.62 6.19815 13.5731C6.24503 13.5263 6.30862 13.4999 6.37492 13.4999ZM8.22392 11.0529C8.34221 11.1123 8.43211 11.2162 8.47392 11.3418C8.51572 11.4674 8.50601 11.6045 8.44692 11.7229L7.94692 12.7229C7.91884 12.7837 7.87884 12.8382 7.82928 12.8833C7.77973 12.9283 7.72163 12.9629 7.65844 12.9851C7.59525 13.0072 7.52825 13.0165 7.46142 13.0122C7.3946 13.008 7.3293 12.9904 7.26941 12.9605C7.20951 12.9305 7.15625 12.8888 7.11277 12.8379C7.06928 12.787 7.03647 12.7279 7.01628 12.664C6.99609 12.6002 6.98893 12.5329 6.99523 12.4662C7.00152 12.3996 7.02114 12.3349 7.05292 12.2759L7.55292 11.2759C7.61234 11.1576 7.71623 11.0677 7.84183 11.0259C7.96742 10.9841 8.10447 10.9938 8.22292 11.0529H8.22392ZM10.3749 13.4999C10.4412 13.4999 10.5048 13.5263 10.5517 13.5731C10.5986 13.62 10.6249 13.6836 10.6249 13.7499V14.3199L11.1259 14.0329C11.1834 14.0019 11.2506 13.9945 11.3134 14.0125C11.3762 14.0304 11.4295 14.0721 11.4618 14.1288C11.4942 14.1855 11.5032 14.2526 11.4867 14.3158C11.4703 14.379 11.4298 14.4332 11.3739 14.4669L10.8789 14.7499L11.3739 15.0329C11.4298 15.0666 11.4703 15.1209 11.4867 15.1841C11.5032 15.2472 11.4942 15.3143 11.4618 15.371C11.4295 15.4277 11.3762 15.4695 11.3134 15.4874C11.2506 15.5053 11.1834 15.498 11.1259 15.4669L10.6249 15.1809V15.7499C10.6249 15.8162 10.5986 15.8798 10.5517 15.9267C10.5048 15.9736 10.4412 15.9999 10.3749 15.9999C10.3086 15.9999 10.245 15.9736 10.1981 15.9267C10.1513 15.8798 10.1249 15.8162 10.1249 15.7499V15.1799L9.62392 15.4669C9.56649 15.498 9.4992 15.5053 9.43643 15.4874C9.37366 15.4695 9.32039 15.4277 9.288 15.371C9.25561 15.3143 9.24668 15.2472 9.26311 15.1841C9.27954 15.1209 9.32003 15.0666 9.37592 15.0329L9.87092 14.7499L9.37592 14.4669C9.32003 14.4332 9.27954 14.379 9.26311 14.3158C9.24668 14.2526 9.25561 14.1855 9.288 14.1288C9.32039 14.0721 9.37366 14.0304 9.43643 14.0125C9.4992 13.9945 9.56649 14.0019 9.62392 14.0329L10.1249 14.3189V13.7499C10.1249 13.6836 10.1513 13.62 10.1981 13.5731C10.245 13.5263 10.3086 13.4999 10.3749 13.4999ZM12.2239 11.0529C12.3422 11.1123 12.4321 11.2162 12.4739 11.3418C12.5157 11.4674 12.506 11.6045 12.4469 11.7229L11.9469 12.7229C11.9188 12.7837 11.8788 12.8382 11.8293 12.8833C11.7797 12.9283 11.7216 12.9629 11.6584 12.9851C11.5952 13.0072 11.5283 13.0165 11.4614 13.0122C11.3946 13.008 11.3293 12.9904 11.2694 12.9605C11.2095 12.9305 11.1562 12.8888 11.1128 12.8379C11.0693 12.787 11.0365 12.7279 11.0163 12.664C10.9961 12.6002 10.9889 12.5329 10.9952 12.4662C11.0015 12.3996 11.0211 12.3349 11.0529 12.2759L11.5529 11.2759C11.6123 11.1576 11.7162 11.0677 11.8418 11.0259C11.9674 10.9841 12.1045 10.9938 12.2229 11.0529H12.2239Z"/> </g> <defs> <clipPath id="clip0_34_3527"> <rect width="16" height="16"/> </clipPath> </defs> </svg>