<svg width="16" height="16" viewBox="0 0 16 16" fill="none" xmlns="http://www.w3.org/2000/svg">
<g clip-path="url(#clip0_34_3519)">
<path d="M15.9998 7.4999C15.9999 7.97821 15.8628 8.4465 15.6047 8.84922C15.3466 9.25193 14.9784 9.57215 14.5438 9.7719C14.3696 9.46623 14.1505 9.18847 13.8938 8.9479C14.2779 8.84327 14.6046 8.59037 14.8022 8.24483C14.9997 7.8993 15.052 7.48943 14.9473 7.1054C14.8427 6.72136 14.5898 6.39462 14.2443 6.19705C13.8987 5.99948 13.4889 5.94727 13.1048 6.0519C13.0357 6.07063 12.9634 6.0743 12.8927 6.06266C12.8221 6.05102 12.7547 6.02433 12.6953 5.98442C12.6358 5.9445 12.5857 5.89228 12.5481 5.83129C12.5106 5.7703 12.4866 5.70196 12.4778 5.6309C12.4071 5.05822 12.1727 4.51809 11.8028 4.07525C11.4329 3.63241 10.9431 3.30565 10.3921 3.13414C9.8412 2.96263 9.25248 2.95365 8.69655 3.10827C8.14063 3.26289 7.6411 3.57455 7.25783 4.0059C6.83053 3.98629 6.40239 4.01581 5.98183 4.0939C6.36531 3.38771 6.95252 2.81333 7.667 2.44552C8.38148 2.07771 9.19014 1.93351 9.98771 2.0317C10.7853 2.12988 11.5348 2.4659 12.1388 2.99602C12.7427 3.52613 13.1731 4.22578 13.3738 5.0039C13.7122 4.98682 14.0506 5.03871 14.3683 5.15643C14.6861 5.27415 14.9766 5.45523 15.2222 5.68867C15.4678 5.92211 15.6634 6.20305 15.797 6.51441C15.9307 6.82577 15.9997 7.16105 15.9998 7.4999Z" fill="#212529"/>
<path d="M6.99983 4.9999C8.10687 4.99968 9.17515 5.40755 10.0004 6.14551C10.8256 6.88346 11.3498 7.8997 11.4728 8.9999H11.4998C12.1629 8.9999 12.7988 9.26329 13.2676 9.73213C13.7364 10.201 13.9998 10.8369 13.9998 11.4999C13.9998 12.1629 13.7364 12.7988 13.2676 13.2677C12.7988 13.7365 12.1629 13.9999 11.4998 13.9999H2.99983C2.22519 14.0005 1.48034 13.7014 0.921217 13.1653C0.362091 12.6291 0.0320238 11.8975 0.000108274 11.1235C-0.0318073 10.3495 0.236903 9.59319 0.74999 9.01283C1.26308 8.43248 1.98077 8.07309 2.75283 8.0099C3.06185 7.13013 3.63643 6.36803 4.39719 5.82885C5.15795 5.28967 6.06737 5.00002 6.99983 4.9999ZM10.4998 9.4999C10.5004 8.64742 10.1899 7.82403 9.62645 7.18427C9.06303 6.54452 8.2855 6.13239 7.43978 6.02523C6.59406 5.91807 5.73831 6.12326 5.03314 6.60228C4.32797 7.0813 3.82187 7.80121 3.60983 8.6269C3.58114 8.73865 3.51468 8.83704 3.42173 8.90538C3.32878 8.97373 3.21505 9.00783 3.09983 9.0019C2.83419 8.9901 2.56886 9.0314 2.31937 9.12337C2.06988 9.21534 1.84123 9.35613 1.6468 9.53752C1.45238 9.71891 1.29607 9.93725 1.18703 10.1798C1.07798 10.4223 1.0184 10.6841 1.01175 10.9499C1.0051 11.2157 1.05152 11.4802 1.1483 11.7279C1.24509 11.9755 1.39028 12.2014 1.5754 12.3923C1.76052 12.5832 1.98184 12.7352 2.22642 12.8396C2.471 12.9439 2.73393 12.9984 2.99983 12.9999H11.4998C11.7125 12.9994 11.9227 12.9537 12.1163 12.8658C12.31 12.7779 12.4828 12.6498 12.6232 12.49C12.7635 12.3302 12.8684 12.1424 12.9306 11.9391C12.9929 11.7357 13.0112 11.5214 12.9843 11.3104C12.9575 11.0995 12.8861 10.8966 12.7748 10.7153C12.6636 10.534 12.515 10.3785 12.3391 10.259C12.1631 10.1395 11.9638 10.0588 11.7543 10.0222C11.5448 9.98567 11.3299 9.99408 11.1238 10.0469C11.0494 10.066 10.9715 10.0676 10.8963 10.0517C10.8211 10.0358 10.7506 10.0028 10.6902 9.95517C10.6298 9.90757 10.5812 9.8467 10.5482 9.77728C10.5152 9.70786 10.4987 9.63176 10.4998 9.5549V9.4999Z" fill="#212529"/>
</g>
<defs>
<clipPath id="clip0_34_3519">
<rect width="16" height="16" fill="white"/>
</clipPath>
</defs>
</svg>
