<svg width="16" height="16" viewBox="0 0 16 16" xmlns="http://www.w3.org/2000/svg"> <g clip-path="url(#clip0_34_3513)"> <path d="M4.15792 12.0249C4.22026 12.0457 4.27788 12.0786 4.3275 12.1216C4.37713 12.1647 4.41777 12.2171 4.44712 12.2759C4.47647 12.3347 4.49394 12.3987 4.49854 12.4643C4.50314 12.5298 4.49477 12.5956 4.47392 12.6579L3.97392 14.1579C3.95509 14.2225 3.92342 14.2826 3.88082 14.3346C3.83822 14.3867 3.78555 14.4296 3.72598 14.4608C3.6664 14.492 3.60114 14.5109 3.5341 14.5163C3.46706 14.5217 3.39962 14.5135 3.33581 14.4923C3.272 14.471 3.21314 14.4371 3.16275 14.3925C3.11236 14.348 3.07148 14.2937 3.04255 14.233C3.01361 14.1723 2.99723 14.1064 2.99437 14.0392C2.99152 13.972 3.00225 13.9049 3.02592 13.8419L3.52592 12.3419C3.5677 12.2161 3.65776 12.112 3.77628 12.0525C3.8948 11.9931 4.03208 11.9832 4.15792 12.0249ZM7.15792 12.0249C7.22026 12.0457 7.27788 12.0786 7.3275 12.1216C7.37713 12.1647 7.41777 12.2171 7.44712 12.2759C7.47647 12.3347 7.49394 12.3987 7.49854 12.4643C7.50314 12.5298 7.49477 12.5956 7.47392 12.6579L6.47392 15.6579C6.45509 15.7225 6.42342 15.7826 6.38082 15.8346C6.33822 15.8867 6.28555 15.9296 6.22598 15.9608C6.1664 15.992 6.10114 16.0109 6.0341 16.0163C5.96706 16.0217 5.89962 16.0135 5.83581 15.9923C5.772 15.971 5.71314 15.9371 5.66275 15.8925C5.61236 15.848 5.57148 15.7937 5.54255 15.733C5.51361 15.6723 5.49723 15.6064 5.49437 15.5392C5.49152 15.472 5.50225 15.4049 5.52592 15.3419L6.52592 12.3419C6.5677 12.2161 6.65776 12.112 6.77628 12.0525C6.8948 11.9931 7.03208 11.9832 7.15792 12.0249ZM10.1579 12.0249C10.2203 12.0457 10.2779 12.0786 10.3275 12.1216C10.3771 12.1647 10.4178 12.2171 10.4471 12.2759C10.4765 12.3347 10.4939 12.3987 10.4985 12.4643C10.5031 12.5298 10.4948 12.5956 10.4739 12.6579L9.97392 14.1579C9.95509 14.2225 9.92342 14.2826 9.88082 14.3346C9.83822 14.3867 9.78555 14.4296 9.72598 14.4608C9.6664 14.492 9.60114 14.5109 9.5341 14.5163C9.46706 14.5217 9.39962 14.5135 9.33581 14.4923C9.272 14.471 9.21314 14.4371 9.16275 14.3925C9.11236 14.348 9.07148 14.2937 9.04255 14.233C9.01361 14.1723 8.99723 14.1064 8.99437 14.0392C8.99152 13.972 9.00225 13.9049 9.02592 13.8419L9.52592 12.3419C9.5677 12.2161 9.65776 12.112 9.77628 12.0525C9.8948 11.9931 10.0321 11.9832 10.1579 12.0249ZM13.1579 12.0249C13.2203 12.0457 13.2779 12.0786 13.3275 12.1216C13.3771 12.1647 13.4178 12.2171 13.4471 12.2759C13.4765 12.3347 13.4939 12.3987 13.4985 12.4643C13.5031 12.5298 13.4948 12.5956 13.4739 12.6579L12.4739 15.6579C12.4551 15.7225 12.4234 15.7826 12.3808 15.8346C12.3382 15.8867 12.2856 15.9296 12.226 15.9608C12.1664 15.992 12.1011 16.0109 12.0341 16.0163C11.9671 16.0217 11.8996 16.0135 11.8358 15.9923C11.772 15.971 11.7131 15.9371 11.6628 15.8925C11.6124 15.848 11.5715 15.7937 11.5425 15.733C11.5136 15.6723 11.4972 15.6064 11.4944 15.5392C11.4915 15.472 11.5022 15.4049 11.5259 15.3419L12.5259 12.3419C12.5677 12.2161 12.6578 12.112 12.7763 12.0525C12.8948 11.9931 13.0321 11.9832 13.1579 12.0249ZM13.4049 5.02692C13.1973 3.98008 12.6601 3.02713 11.8721 2.3074C11.0841 1.58767 10.0865 1.13891 9.02517 1.02673C7.96384 0.914554 6.89446 1.14484 5.97338 1.68393C5.05231 2.22302 4.32785 3.04263 3.90592 4.02292C3.43276 3.96841 2.95345 4.01105 2.49734 4.14823C2.04123 4.28541 1.61792 4.51423 1.25332 4.8207C0.888721 5.12717 0.59051 5.50482 0.376944 5.93055C0.163378 6.35628 0.0389514 6.82111 0.0112822 7.2966C-0.016387 7.77209 0.0532835 8.24822 0.216028 8.69585C0.378773 9.14347 0.631167 9.55317 0.957757 9.89986C1.28435 10.2465 1.67826 10.5229 2.11538 10.7121C2.5525 10.9012 3.02363 10.9992 3.49992 10.9999H12.9999C13.761 11.0008 14.494 10.7123 15.0504 10.193C15.6068 9.67365 15.945 8.96224 15.9965 8.20287C16.048 7.44351 15.8089 6.69296 15.3277 6.10326C14.8465 5.51356 14.1592 5.1288 13.4049 5.02692Z"/> </g> <defs> <clipPath id="clip0_34_3513"> <rect width="16" height="16"/> </clipPath> </defs> </svg>