<svg width="16" height="16" viewBox="0 0 16 16" xmlns="http://www.w3.org/2000/svg"> <g clip-path="url(#clip0_34_3505)"> <path d="M11.4728 11C11.3603 9.98619 10.9067 9.04063 10.1863 8.31841C9.46589 7.59619 8.52149 7.14016 7.50791 7.02509C6.49434 6.91002 5.47174 7.14273 4.60778 7.68507C3.74382 8.22742 3.08975 9.04721 2.75283 10.01C1.98077 10.0732 1.26308 10.4326 0.74999 11.013C0.236903 11.5933 -0.0318073 12.3497 0.000108274 13.1236C0.0320238 13.8976 0.362091 14.6293 0.921217 15.1654C1.48034 15.7016 2.22519 16.0006 2.99983 16H11.4998C12.1629 16 12.7988 15.7367 13.2676 15.2678C13.7364 14.799 13.9998 14.1631 13.9998 13.5C13.9998 12.837 13.7364 12.2011 13.2676 11.7323C12.7988 11.2634 12.1629 11 11.4998 11H11.4728Z"/> <path d="M11.2858 1.77805C11.3433 1.69204 11.3727 1.59032 11.3699 1.48691C11.3672 1.3835 11.3324 1.28349 11.2704 1.20067C11.2084 1.11785 11.1223 1.05629 11.0239 1.02447C10.9254 0.992662 10.8196 0.992164 10.7208 1.02305C9.68542 1.34731 8.79816 2.02749 8.21615 2.94316C7.63413 3.85883 7.3949 4.95092 7.54083 6.02605C7.89851 6.06083 8.2519 6.13083 8.59583 6.23505C8.44141 5.57695 8.47524 4.88869 8.69345 4.2489C8.91167 3.60912 9.30546 3.04363 9.82983 2.61705C9.65663 3.28487 9.63611 3.98313 9.76978 4.65997C9.90346 5.33681 10.1879 5.97484 10.602 6.52668C11.016 7.07852 11.5491 7.52998 12.1616 7.84755C12.7741 8.16512 13.4502 8.34063 14.1398 8.36105C13.4845 8.81653 12.6956 9.0397 11.8988 8.99505C12.0608 9.31205 12.1938 9.64705 12.2928 9.99505C13.0148 9.9643 13.7194 9.76352 14.3491 9.40903C14.9789 9.05454 15.516 8.55636 15.9168 7.95505C15.9743 7.86904 16.0037 7.76732 16.0009 7.66391C15.9982 7.5605 15.9634 7.46049 15.9014 7.37767C15.8394 7.29485 15.7533 7.23329 15.6549 7.20147C15.5564 7.16966 15.4506 7.16916 15.3518 7.20005C14.6425 7.42268 13.8816 7.41982 13.174 7.19186C12.4664 6.9639 11.847 6.52206 11.401 5.92725C10.9551 5.33243 10.7046 4.61394 10.6842 3.8708C10.6637 3.12767 10.8733 2.39649 11.2858 1.77805Z"/> </g> <defs> <clipPath id="clip0_34_3505"> <rect width="16" height="16"/> </clipPath> </defs> </svg>