<svg width="16" height="16" viewBox="0 0 16 16" fill="none" xmlns="http://www.w3.org/2000/svg">
<path fill-rule="evenodd" clip-rule="evenodd" d="M10.354 6.146C10.4006 6.19245 10.4375 6.24762 10.4627 6.30837C10.4879 6.36911 10.5009 6.43423 10.5009 6.5C10.5009 6.56577 10.4879 6.63089 10.4627 6.69163C10.4375 6.75238 10.4006 6.80755 10.354 6.854L7.354 9.854C7.30755 9.90056 7.25238 9.93751 7.19163 9.96271C7.13089 9.98792 7.06577 10.0009 7 10.0009C6.93423 10.0009 6.86911 9.98792 6.80837 9.96271C6.74762 9.93751 6.69245 9.90056 6.646 9.854L5.146 8.354C5.09951 8.30751 5.06264 8.25232 5.03748 8.19158C5.01232 8.13084 4.99937 8.06574 4.99937 8C4.99937 7.93426 5.01232 7.86916 5.03748 7.80842C5.06264 7.74768 5.09951 7.69249 5.146 7.646C5.19249 7.59951 5.24768 7.56264 5.30842 7.53748C5.36916 7.51232 5.43426 7.49937 5.5 7.49937C5.56574 7.49937 5.63084 7.51232 5.69158 7.53748C5.75232 7.56264 5.80751 7.59951 5.854 7.646L7 8.793L9.646 6.146C9.69245 6.09944 9.74762 6.06249 9.80837 6.03729C9.86911 6.01208 9.93423 5.99911 10 5.99911C10.0658 5.99911 10.1309 6.01208 10.1916 6.03729C10.2524 6.06249 10.3076 6.09944 10.354 6.146Z" fill="#212529"/>
<path d="M4.406 3.342C5.40548 2.48014 6.68024 2.00414 8 2C10.69 2 12.923 4 13.166 6.579C14.758 6.804 16 8.137 16 9.773C16 11.569 14.502 13 12.687 13H3.781C1.708 13 0 11.366 0 9.318C0 7.555 1.266 6.095 2.942 5.725C3.085 4.862 3.64 4.002 4.406 3.342ZM5.059 4.099C4.302 4.752 3.906 5.539 3.906 6.155V6.603L3.461 6.652C2.064 6.805 1 7.952 1 9.318C1 10.785 2.23 12 3.781 12H12.687C13.98 12 15 10.988 15 9.773C15 8.557 13.98 7.545 12.687 7.545H12.187V7.045C12.188 4.825 10.328 3 8 3C6.91988 3.00431 5.87684 3.39343 5.059 4.099Z" fill="#212529"/>
</svg>
