<svg width="16" height="16" viewBox="0 0 16 16" xmlns="http://www.w3.org/2000/svg"> <g clip-path="url(#clip0_34_3491)"> <path d="M13.4049 4.02704C13.1973 2.98021 12.6601 2.02725 11.8721 1.30752C11.0841 0.587792 10.0865 0.139031 9.02517 0.0268534C7.96384 -0.0853238 6.89446 0.144967 5.97338 0.684054C5.05231 1.22314 4.32785 2.04275 3.90592 3.02304C3.43276 2.96854 2.95345 3.01118 2.49734 3.14835C2.04123 3.28553 1.61792 3.51435 1.25332 3.82082C0.888721 4.12729 0.59051 4.50495 0.376944 4.93067C0.163378 5.3564 0.0389514 5.82124 0.0112822 6.29672C-0.016387 6.77221 0.0532835 7.24834 0.216028 7.69597C0.378773 8.14359 0.631167 8.55329 0.957757 8.89998C1.28435 9.24667 1.67826 9.52305 2.11538 9.7122C2.5525 9.90136 3.02363 9.9993 3.49992 10H12.9999C13.761 10.0009 14.494 9.71246 15.0504 9.19312C15.6068 8.67377 15.945 7.96236 15.9965 7.203C16.048 6.44363 15.8089 5.69308 15.3277 5.10338C14.8465 4.51368 14.1592 4.12892 13.4049 4.02704ZM8.49992 1.00004C9.48388 0.999841 10.4334 1.36231 11.1669 2.01816C11.9004 2.674 12.3665 3.5772 12.4759 4.55504C12.4895 4.6779 12.5481 4.79137 12.6405 4.87355C12.7328 4.95573 12.8523 5.00079 12.9759 5.00004H12.9999C13.5304 5.00004 14.0391 5.21076 14.4141 5.58583C14.7892 5.9609 14.9999 6.46961 14.9999 7.00004C14.9999 7.53048 14.7892 8.03919 14.4141 8.41426C14.0391 8.78933 13.5304 9.00004 12.9999 9.00004H3.49992C3.146 8.99987 2.79614 8.92455 2.4735 8.77906C2.15086 8.63357 1.86279 8.42124 1.62834 8.1561C1.39389 7.89096 1.21841 7.57907 1.11351 7.24104C1.0086 6.90302 0.976666 6.54658 1.01981 6.19529C1.06295 5.844 1.1802 5.50588 1.36378 5.20329C1.54736 4.9007 1.7931 4.64054 2.08474 4.44001C2.37638 4.23949 2.70727 4.10317 3.05553 4.04008C3.40379 3.97699 3.76147 3.98857 4.10492 4.07404C4.22745 4.10461 4.35701 4.08767 4.46756 4.02664C4.57812 3.96561 4.66149 3.86501 4.70092 3.74504C4.9652 2.94622 5.47454 2.25101 6.15654 1.75822C6.83854 1.26544 7.65852 1.00014 8.49992 1.00004ZM7.05292 11.276C7.09449 11.1931 7.15831 11.1234 7.23725 11.0746C7.3162 11.0259 7.40714 11 7.49992 11H8.49992C8.57911 11.0001 8.65714 11.019 8.72761 11.0551C8.79808 11.0912 8.85896 11.1435 8.90524 11.2078C8.95152 11.272 8.98188 11.3464 8.99383 11.4246C9.00577 11.5029 8.99895 11.5829 8.97392 11.658L8.69392 12.5H9.49992C9.59401 12.5002 9.68615 12.5269 9.76575 12.577C9.84535 12.6272 9.90919 12.6988 9.94992 12.7836C9.99065 12.8684 10.0066 12.963 9.99602 13.0564C9.98541 13.1499 9.94863 13.2385 9.88992 13.312L7.88992 15.812C7.81856 15.9007 7.7191 15.9623 7.60797 15.9868C7.49683 16.0113 7.38067 15.9971 7.27868 15.9466C7.17669 15.8962 7.09496 15.8124 7.04701 15.7092C6.99905 15.606 6.98773 15.4895 7.01492 15.379L7.35992 14H6.49992C6.41466 14 6.33081 13.9782 6.25635 13.9367C6.18189 13.8952 6.11929 13.8353 6.07449 13.7627C6.0297 13.6902 6.00421 13.6074 6.00043 13.5222C5.99665 13.437 6.01472 13.3523 6.05292 13.276L7.05292 11.276Z"/> </g> <defs> <clipPath id="clip0_34_3491"> <rect width="16" height="16"/> </clipPath> </defs> </svg>