<svg width="16" height="16" viewBox="0 0 16 16" xmlns="http://www.w3.org/2000/svg"> <path d="M10.4779 1.64709C10.4972 1.58432 10.504 1.51836 10.4978 1.45298C10.4916 1.3876 10.4726 1.32408 10.4419 1.26604C10.4111 1.208 10.3693 1.15659 10.3187 1.11473C10.268 1.07288 10.2097 1.0414 10.1469 1.02209C10.0841 1.00279 10.0182 0.996037 9.9528 1.00222C9.88742 1.00841 9.8239 1.02742 9.76586 1.05815C9.70783 1.08889 9.65641 1.13075 9.61456 1.18136C9.5727 1.23197 9.54122 1.29032 9.52192 1.35309L5.52192 14.3531C5.48293 14.4799 5.4959 14.6169 5.55798 14.7341C5.62005 14.8514 5.72614 14.9391 5.85292 14.9781C5.97969 15.0171 6.11676 15.0041 6.23397 14.942C6.35118 14.88 6.43893 14.7739 6.47792 14.6471L10.4779 1.64709ZM4.85392 4.14609C4.90048 4.19254 4.93742 4.24771 4.96263 4.30846C4.98784 4.3692 5.00081 4.43433 5.00081 4.50009C5.00081 4.56586 4.98784 4.63098 4.96263 4.69173C4.93742 4.75247 4.90048 4.80765 4.85392 4.85409L1.70692 8.00009L4.85392 11.1461C4.9478 11.24 5.00055 11.3673 5.00055 11.5001C5.00055 11.6329 4.9478 11.7602 4.85392 11.8541C4.76003 11.948 4.63269 12.0007 4.49992 12.0007C4.36714 12.0007 4.2398 11.948 4.14592 11.8541L0.645917 8.35409C0.599354 8.30765 0.562411 8.25247 0.537205 8.19173C0.511998 8.13098 0.499023 8.06586 0.499023 8.00009C0.499023 7.93433 0.511998 7.8692 0.537205 7.80846C0.562411 7.74771 0.599354 7.69254 0.645917 7.64609L4.14592 4.14609C4.19236 4.09953 4.24754 4.06259 4.30828 4.03738C4.36903 4.01217 4.43415 3.9992 4.49992 3.9992C4.56568 3.9992 4.63081 4.01217 4.69155 4.03738C4.7523 4.06259 4.80747 4.09953 4.85392 4.14609ZM11.1459 4.14609C11.0994 4.19254 11.0624 4.24771 11.0372 4.30846C11.012 4.3692 10.999 4.43433 10.999 4.50009C10.999 4.56586 11.012 4.63098 11.0372 4.69173C11.0624 4.75247 11.0994 4.80765 11.1459 4.85409L14.2929 8.00009L11.1459 11.1461C11.0994 11.1926 11.0626 11.2478 11.0374 11.3085C11.0122 11.3692 10.9993 11.4344 10.9993 11.5001C10.9993 11.5658 11.0122 11.6309 11.0374 11.6917C11.0626 11.7524 11.0994 11.8076 11.1459 11.8541C11.1924 11.9006 11.2476 11.9375 11.3083 11.9626C11.3691 11.9878 11.4342 12.0007 11.4999 12.0007C11.5657 12.0007 11.6308 11.9878 11.6915 11.9626C11.7522 11.9375 11.8074 11.9006 11.8539 11.8541L15.3539 8.35409C15.4005 8.30765 15.4374 8.25247 15.4626 8.19173C15.4878 8.13098 15.5008 8.06586 15.5008 8.00009C15.5008 7.93433 15.4878 7.8692 15.4626 7.80846C15.4374 7.74771 15.4005 7.69254 15.3539 7.64609L11.8539 4.14609C11.8075 4.09953 11.7523 4.06259 11.6916 4.03738C11.6308 4.01217 11.5657 3.9992 11.4999 3.9992C11.4341 3.9992 11.369 4.01217 11.3083 4.03738C11.2475 4.06259 11.1924 4.09953 11.1459 4.14609Z"/> </svg>