<svg width="16" height="16" viewBox="0 0 16 16" xmlns="http://www.w3.org/2000/svg"> <path d="M5.85392 4.8539C5.9004 4.80741 5.93728 4.75222 5.96244 4.69148C5.9876 4.63074 6.00055 4.56564 6.00055 4.4999C6.00055 4.43416 5.9876 4.36905 5.96244 4.30832C5.93728 4.24758 5.9004 4.19239 5.85392 4.1459C5.80743 4.09941 5.75224 4.06253 5.6915 4.03738C5.63076 4.01222 5.56566 3.99927 5.49992 3.99927C5.43417 3.99927 5.36907 4.01222 5.30833 4.03738C5.24759 4.06253 5.19241 4.09941 5.14592 4.1459L1.64592 7.6459C1.59935 7.69234 1.56241 7.74752 1.5372 7.80827C1.512 7.86901 1.49902 7.93413 1.49902 7.9999C1.49902 8.06567 1.512 8.13079 1.5372 8.19153C1.56241 8.25228 1.59935 8.30745 1.64592 8.3539L5.14592 11.8539C5.2398 11.9478 5.36714 12.0005 5.49992 12.0005C5.63269 12.0005 5.76003 11.9478 5.85392 11.8539C5.9478 11.76 6.00055 11.6327 6.00055 11.4999C6.00055 11.3671 5.9478 11.2398 5.85392 11.1459L2.70692 7.9999L5.85392 4.8539ZM10.1459 4.8539C10.052 4.76001 9.99929 4.63267 9.99929 4.4999C9.99929 4.36712 10.052 4.23979 10.1459 4.1459C10.2398 4.05201 10.3671 3.99927 10.4999 3.99927C10.6327 3.99927 10.76 4.05201 10.8539 4.1459L14.3539 7.6459C14.4005 7.69234 14.4374 7.74752 14.4626 7.80827C14.4878 7.86901 14.5008 7.93413 14.5008 7.9999C14.5008 8.06567 14.4878 8.13079 14.4626 8.19153C14.4374 8.25228 14.4005 8.30745 14.3539 8.3539L10.8539 11.8539C10.76 11.9478 10.6327 12.0005 10.4999 12.0005C10.3671 12.0005 10.2398 11.9478 10.1459 11.8539C10.052 11.76 9.99929 11.6327 9.99929 11.4999C9.99929 11.3671 10.052 11.2398 10.1459 11.1459L13.2929 7.9999L10.1459 4.8539Z"/> </svg>