<svg width="16" height="16" viewBox="0 0 16 16" fill="none" xmlns="http://www.w3.org/2000/svg">
<g clip-path="url(#clip0_34_3551)">
<path d="M14 1C14.2652 1 14.5196 1.10536 14.7071 1.29289C14.8946 1.48043 15 1.73478 15 2V14C15 14.2652 14.8946 14.5196 14.7071 14.7071C14.5196 14.8946 14.2652 15 14 15H2C1.73478 15 1.48043 14.8946 1.29289 14.7071C1.10536 14.5196 1 14.2652 1 14V2C1 1.73478 1.10536 1.48043 1.29289 1.29289C1.48043 1.10536 1.73478 1 2 1H14ZM2 0C1.46957 0 0.960859 0.210714 0.585786 0.585786C0.210714 0.960859 0 1.46957 0 2V14C0 14.5304 0.210714 15.0391 0.585786 15.4142C0.960859 15.7893 1.46957 16 2 16H14C14.5304 16 15.0391 15.7893 15.4142 15.4142C15.7893 15.0391 16 14.5304 16 14V2C16 1.46957 15.7893 0.960859 15.4142 0.585786C15.0391 0.210714 14.5304 0 14 0H2Z" fill="#212529"/>
<path d="M6.854 4.646C6.90056 4.69245 6.93751 4.74762 6.96271 4.80837C6.98792 4.86911 7.00089 4.93423 7.00089 5C7.00089 5.06577 6.98792 5.13089 6.96271 5.19163C6.93751 5.25238 6.90056 5.30755 6.854 5.354L4.207 8L6.854 10.646C6.94789 10.7399 7.00063 10.8672 7.00063 11C7.00063 11.1328 6.94789 11.2601 6.854 11.354C6.76011 11.4479 6.63278 11.5006 6.5 11.5006C6.36722 11.5006 6.23989 11.4479 6.146 11.354L3.146 8.354C3.09944 8.30755 3.06249 8.25238 3.03729 8.19163C3.01208 8.13089 2.99911 8.06577 2.99911 8C2.99911 7.93423 3.01208 7.86911 3.03729 7.80837C3.06249 7.74762 3.09944 7.69245 3.146 7.646L6.146 4.646C6.19245 4.59944 6.24762 4.56249 6.30837 4.53729C6.36911 4.51208 6.43423 4.49911 6.5 4.49911C6.56577 4.49911 6.63089 4.51208 6.69163 4.53729C6.75238 4.56249 6.80755 4.59944 6.854 4.646ZM9.146 4.646C9.09944 4.69245 9.06249 4.74762 9.03729 4.80837C9.01208 4.86911 8.99911 4.93423 8.99911 5C8.99911 5.06577 9.01208 5.13089 9.03729 5.19163C9.06249 5.25238 9.09944 5.30755 9.146 5.354L11.793 8L9.146 10.646C9.05211 10.7399 8.99937 10.8672 8.99937 11C8.99937 11.1328 9.05211 11.2601 9.146 11.354C9.23989 11.4479 9.36722 11.5006 9.5 11.5006C9.63278 11.5006 9.76011 11.4479 9.854 11.354L12.854 8.354C12.9006 8.30755 12.9375 8.25238 12.9627 8.19163C12.9879 8.13089 13.0009 8.06577 13.0009 8C13.0009 7.93423 12.9879 7.86911 12.9627 7.80837C12.9375 7.74762 12.9006 7.69245 12.854 7.646L9.854 4.646C9.80755 4.59944 9.75238 4.56249 9.69163 4.53729C9.63089 4.51208 9.56577 4.49911 9.5 4.49911C9.43423 4.49911 9.36911 4.51208 9.30837 4.53729C9.24762 4.56249 9.19245 4.59944 9.146 4.646Z" fill="#212529"/>
</g>
<defs>
<clipPath id="clip0_34_3551">
<rect width="16" height="16" fill="white"/>
</clipPath>
</defs>
</svg>
