<svg width="16" height="16" viewBox="0 0 16 16" fill="none" xmlns="http://www.w3.org/2000/svg">
<path d="M9.96985 4.88006L10.9229 8.69106C10.1589 8.87806 9.13985 9.00006 7.99985 9.00006C6.85985 9.00006 5.84185 8.87806 5.07685 8.69106L6.02985 4.88006C6.63485 4.95706 7.29985 5.00006 7.99985 5.00006C8.69985 5.00006 9.36485 4.95706 9.96985 4.88006ZM9.72485 3.90206L8.96985 0.880059C8.71785 -0.129941 7.28185 -0.129941 7.02985 0.880059L6.27485 3.90006C6.79985 3.96506 7.38185 4.00006 7.99985 4.00006C8.61785 4.00006 9.19985 3.96406 9.72485 3.90206ZM14.1209 12.5151C14.2261 12.5411 14.32 12.6007 14.3884 12.6847C14.4569 12.7688 14.4961 12.8728 14.5003 12.9811C14.5045 13.0895 14.4733 13.1962 14.4116 13.2853C14.3498 13.3744 14.2608 13.441 14.1579 13.4751L8.15785 15.4751C8.05529 15.5092 7.94442 15.5092 7.84185 15.4751L1.84185 13.4751C1.73895 13.441 1.6499 13.3744 1.58813 13.2853C1.52636 13.1962 1.49522 13.0895 1.49939 12.9811C1.50357 12.8728 1.54284 12.7688 1.61128 12.6847C1.67972 12.6007 1.77363 12.5411 1.87885 12.5151L4.26985 11.9171L4.83485 9.66006C5.69685 9.87206 6.79885 9.99906 7.99985 9.99906C9.20085 9.99906 10.3029 9.87206 11.1649 9.66006L11.7299 11.9171L14.1209 12.5151Z" fill="#212529"/>
</svg>
