<svg width="16" height="16" viewBox="0 0 16 16" xmlns="http://www.w3.org/2000/svg"> <path d="M13.902 0.333879C13.9264 0.394937 13.9385 0.460199 13.9376 0.52593C13.9367 0.59166 13.9228 0.656569 13.8968 0.716943C13.8708 0.777316 13.8332 0.831969 13.786 0.877773C13.7389 0.923577 13.6831 0.959633 13.622 0.983879L11.368 1.88588L10.968 3.81288C11.344 3.90788 11.683 4.02788 11.94 4.17988C12.168 4.31488 12.5 4.57588 12.5 4.99988C12.5 5.04588 12.496 5.08988 12.489 5.13188L11.527 14.1999C11.5118 14.3835 11.457 14.5616 11.3666 14.7221C11.2762 14.8826 11.1522 15.0217 11.003 15.1299C10.515 15.4699 9.50903 15.9999 7.99303 15.9999C6.47703 15.9999 5.47103 15.4699 4.98303 15.1299C4.83391 15.0217 4.7099 14.8826 4.61946 14.7221C4.52903 14.5616 4.47431 14.3835 4.45903 14.1999L3.51003 5.13188C3.50297 5.08824 3.49962 5.04408 3.50003 4.99988C3.50003 4.57588 3.83203 4.31488 4.06003 4.17988C4.32203 4.02588 4.66703 3.90388 5.05003 3.80788C5.82403 3.61388 6.86703 3.49988 8.00003 3.49988C8.71203 3.49988 9.38903 3.54488 9.98503 3.62688L10.449 1.41188C10.4667 1.33234 10.5036 1.25833 10.5564 1.19629C10.6092 1.13424 10.6763 1.08604 10.752 1.05588L13.252 0.0558791C13.3751 0.00657869 13.5127 0.00816916 13.6346 0.0603008C13.7565 0.112432 13.8527 0.210837 13.902 0.333879ZM9.76803 4.60688C9.18155 4.53391 8.59104 4.49817 8.00003 4.49988C6.92403 4.49988 5.96703 4.60988 5.29303 4.77788C5.06989 4.82909 4.85271 4.90349 4.64503 4.99988C4.79103 5.07288 5.00703 5.14988 5.29303 5.22188C5.96703 5.38988 6.92403 5.49988 8.00003 5.49988C8.57103 5.49988 9.10903 5.46988 9.58803 5.41488L9.76803 4.60688ZM10.06 6.36288C9.44503 6.44988 8.74203 6.49988 8.00003 6.49988C6.86703 6.49988 5.82403 6.38588 5.05003 6.19188C4.90336 6.15552 4.75823 6.11316 4.61503 6.06488L5.45303 14.0949C5.46603 14.2159 5.51303 14.2809 5.55503 14.3099C5.91203 14.5589 6.72303 14.9999 7.99303 14.9999C9.26303 14.9999 10.074 14.5589 10.431 14.3099C10.473 14.2809 10.521 14.2159 10.533 14.0949L11.385 6.06488C11.2418 6.11315 11.0967 6.15552 10.95 6.19188C10.6565 6.26365 10.3594 6.32039 10.06 6.36188V6.36288ZM4.46703 4.88388C4.46703 4.88388 4.47003 4.88588 4.47203 4.88988L4.46703 4.88388ZM11.533 4.88388L11.528 4.88988C11.53 4.88588 11.533 4.88388 11.533 4.88388ZM11.354 4.99988C11.1603 4.90972 10.9579 4.83937 10.75 4.78988L10.651 5.23488L10.706 5.22188C10.992 5.14988 11.208 5.07288 11.354 4.99988Z"/> </svg>