<svg width="16" height="16" viewBox="0 0 16 16" xmlns="http://www.w3.org/2000/svg"> <path d="M5.49995 13V14.25C5.49995 14.388 5.61195 14.5 5.74995 14.5H6.74995C6.81626 14.5 6.87985 14.4737 6.92673 14.4268C6.97361 14.3799 6.99995 14.3163 6.99995 14.25V13H7.49995V14.25C7.49995 14.388 7.61195 14.5 7.74995 14.5H8.74995C8.81626 14.5 8.87985 14.4737 8.92673 14.4268C8.97361 14.3799 8.99995 14.3163 8.99995 14.25V13H9.08395C11.076 13 12.5 11.967 12.5 10.18C12.5 8.678 11.493 7.857 10.314 7.74V7.652C11.284 7.41 11.997 6.678 11.997 5.462C11.997 3.93 10.847 3 9.09195 3H8.99995V1.75C8.99995 1.6837 8.97361 1.62011 8.92673 1.57322C8.87985 1.52634 8.81626 1.5 8.74995 1.5H7.74995C7.68365 1.5 7.62006 1.52634 7.57318 1.57322C7.52629 1.62011 7.49995 1.6837 7.49995 1.75V3H6.92695V1.75C6.92695 1.6837 6.90061 1.62011 6.85373 1.57322C6.80685 1.52634 6.74326 1.5 6.67695 1.5H5.74995C5.68365 1.5 5.62006 1.52634 5.57318 1.57322C5.52629 1.62011 5.49995 1.6837 5.49995 1.75V3L3.50195 3.011C3.43565 3.011 3.37206 3.03734 3.32518 3.08422C3.27829 3.13111 3.25195 3.1947 3.25195 3.261V4.25C3.25195 4.387 3.36195 4.5 3.49995 4.5L4.25495 4.495C4.453 4.49632 4.64248 4.57592 4.78205 4.71643C4.92163 4.85694 4.99996 5.04695 4.99995 5.245V10.75C4.99995 10.9489 4.92094 11.1397 4.78028 11.2803C4.63963 11.421 4.44887 11.5 4.24995 11.5L3.50195 11.511C3.43565 11.511 3.37206 11.5373 3.32518 11.5842C3.27829 11.6311 3.25195 11.6947 3.25195 11.761V12.761C3.25195 12.899 3.36395 13.011 3.50195 13.011L5.49995 13ZM6.92695 4.487H8.64595C9.55195 4.487 10.084 4.985 10.084 5.799C10.084 6.67 9.50895 7.161 8.20695 7.161H6.92695V4.487ZM6.92695 8.538H8.76695C9.90395 8.538 10.523 9.118 10.523 10.062C10.523 11.015 9.89695 11.512 8.36495 11.512H6.92695V8.539V8.538Z"/> </svg>