<svg width="16" height="16" viewBox="0 0 16 16" fill="none" xmlns="http://www.w3.org/2000/svg">
<g clip-path="url(#clip0_34_3609)">
<path d="M0 5.00004C0.000244156 6.15725 0.401714 7.27857 1.13601 8.17296C1.8703 9.06735 2.89199 9.67948 4.027 9.90504C4.09164 9.18857 4.27551 8.48793 4.571 7.83204C3.695 7.53604 3.132 6.86404 3 5.91004H2.5V5.48404H2.966V5.05004C2.966 5.00404 2.966 4.95704 2.97 4.91504H2.5V4.48804H3.011C3.236 3.24004 4.213 2.50004 5.681 2.50004C5.997 2.50004 6.271 2.53104 6.5 2.58504V3.31804C6.23254 3.25854 5.95896 3.23101 5.685 3.23604C4.766 3.23604 4.147 3.70204 3.951 4.48804H5.868V4.91504H3.888C3.885 4.96104 3.885 5.01204 3.885 5.06204V5.48404H5.868V5.91104H3.93C4.048 6.51304 4.398 6.94104 4.935 7.14004C5.46154 6.268 6.18567 5.53193 7.04897 4.99119C7.91228 4.45045 8.89059 4.12019 9.905 4.02704C9.65975 2.81255 8.97248 1.73231 7.97633 0.995555C6.98017 0.258802 5.74603 -0.0820198 4.51296 0.0391085C3.27989 0.160237 2.13566 0.734694 1.30191 1.6512C0.468163 2.56772 0.00423697 3.76105 0 5.00004H0ZM16 10.5C16 11.9587 15.4205 13.3577 14.3891 14.3891C13.3576 15.4206 11.9587 16 10.5 16C9.04131 16 7.64236 15.4206 6.61091 14.3891C5.57946 13.3577 5 11.9587 5 10.5C5 9.04135 5.57946 7.64241 6.61091 6.61096C7.64236 5.5795 9.04131 5.00004 10.5 5.00004C11.9587 5.00004 13.3576 5.5795 14.3891 6.61096C15.4205 7.64241 16 9.04135 16 10.5ZM8.25 11.822C8.319 12.657 8.996 13.307 10.214 13.384V14H10.754V13.38C12.013 13.294 12.75 12.64 12.75 11.69C12.75 10.825 12.187 10.38 11.18 10.15L10.754 10.05V8.37404C11.294 8.43404 11.638 8.72104 11.72 9.11904H12.668C12.598 8.31504 11.889 7.68604 10.754 7.61704V7.00004H10.214V7.62904C9.138 7.73204 8.406 8.36104 8.406 9.25104C8.406 10.038 8.95 10.539 9.856 10.744L10.214 10.829V12.609C9.66 12.529 9.294 12.233 9.211 11.822H8.25ZM10.21 9.92704C9.678 9.80704 9.39 9.56304 9.39 9.19504C9.39 8.78504 9.701 8.47604 10.214 8.38604V9.92604H10.209L10.21 9.92704ZM10.832 10.971C11.477 11.116 11.775 11.351 11.775 11.767C11.775 12.241 11.405 12.567 10.755 12.627V10.953L10.832 10.971Z" fill="#212529"/>
</g>
<defs>
<clipPath id="clip0_34_3609">
<rect width="16" height="16" fill="white"/>
</clipPath>
</defs>
</svg>
