<svg width="16" height="16" viewBox="0 0 16 16" xmlns="http://www.w3.org/2000/svg"> <path d="M12 2.5C12 2.63261 11.9473 2.75979 11.8536 2.85355C11.7598 2.94732 11.6326 3 11.5 3C11.3674 3 11.2402 2.94732 11.1464 2.85355C11.0527 2.75979 11 2.63261 11 2.5C11 2.36739 11.0527 2.24021 11.1464 2.14645C11.2402 2.05268 11.3674 2 11.5 2C11.6326 2 11.7598 2.05268 11.8536 2.14645C11.9473 2.24021 12 2.36739 12 2.5Z"/> <path d="M12 13.5C12 13.6326 11.9473 13.7598 11.8536 13.8536C11.7598 13.9473 11.6326 14 11.5 14C11.3674 14 11.2402 13.9473 11.1464 13.8536C11.0527 13.7598 11 13.6326 11 13.5C11 13.3674 11.0527 13.2402 11.1464 13.1464C11.2402 13.0527 11.3674 13 11.5 13C11.6326 13 11.7598 13.0527 11.8536 13.1464C11.9473 13.2402 12 13.3674 12 13.5Z"/> <path d="M4.5 14C4.63261 14 4.75979 13.9473 4.85355 13.8536C4.94732 13.7598 5 13.6326 5 13.5C5 13.3674 4.94732 13.2402 4.85355 13.1464C4.75979 13.0527 4.63261 13 4.5 13C4.36739 13 4.24021 13.0527 4.14645 13.1464C4.05268 13.2402 4 13.3674 4 13.5C4 13.6326 4.05268 13.7598 4.14645 13.8536C4.24021 13.9473 4.36739 14 4.5 14Z"/> <path d="M5 2.5C5 2.63261 4.94732 2.75979 4.85355 2.85355C4.75979 2.94732 4.63261 3 4.5 3C4.36739 3 4.24021 2.94732 4.14645 2.85355C4.05268 2.75979 4 2.63261 4 2.5C4 2.36739 4.05268 2.24021 4.14645 2.14645C4.24021 2.05268 4.36739 2 4.5 2C4.63261 2 4.75979 2.05268 4.85355 2.14645C4.94732 2.24021 5 2.36739 5 2.5Z"/> <path d="M8 8C8.26522 8 8.51957 7.89464 8.70711 7.70711C8.89464 7.51957 9 7.26522 9 7C9 6.73478 8.89464 6.48043 8.70711 6.29289C8.51957 6.10536 8.26522 6 8 6C7.73478 6 7.48043 6.10536 7.29289 6.29289C7.10536 6.48043 7 6.73478 7 7C7 7.26522 7.10536 7.51957 7.29289 7.70711C7.48043 7.89464 7.73478 8 8 8Z"/> <path fill-rule="evenodd" clip-rule="evenodd" d="M12 7C12.0001 8.05004 11.5873 9.05802 10.8508 9.80639C10.1142 10.5547 9.11289 10.9835 8.06298 11C7.52598 11.813 7.04298 12.515 6.88198 12.677C6.67525 12.8839 6.3948 13.0001 6.10234 13.0002C5.80987 13.0003 5.52935 12.8842 5.32248 12.6775C5.11561 12.4708 4.99934 12.1903 4.99925 11.8979C4.99916 11.6054 5.11525 11.3249 5.32198 11.118C5.42198 11.02 5.71798 10.804 6.11698 10.53C5.32951 10.1103 4.70498 9.43941 4.34271 8.62394C3.98044 7.80847 3.90125 6.89528 4.11772 6.02961C4.3342 5.16395 4.83391 4.39553 5.53737 3.84656C6.24084 3.2976 7.10767 2.99961 7.99998 3C9.06085 3 10.0783 3.42143 10.8284 4.17157C11.5786 4.92172 12 5.93913 12 7ZM11 7C10.9999 6.44514 10.846 5.90117 10.5553 5.42857C10.2646 4.95596 9.84847 4.57324 9.35328 4.32294C8.85808 4.07265 8.30317 3.96459 7.75024 4.01078C7.19731 4.05697 6.66802 4.2556 6.22121 4.58459C5.77441 4.91358 5.4276 5.36004 5.21933 5.87432C5.01107 6.38861 4.94951 6.95059 5.0415 7.49776C5.1335 8.04494 5.37544 8.55589 5.74043 8.9738C6.10542 9.39171 6.57916 9.70021 7.10898 9.865C7.77598 9.425 8.50498 8.955 9.06398 8.597C9.28798 8.453 9.54698 8.712 9.40398 8.937L8.78398 9.897C9.42027 9.72456 9.98207 9.3474 10.3826 8.82378C10.7831 8.30017 11.0001 7.65924 11 7Z"/> <path fill-rule="evenodd" clip-rule="evenodd" d="M2.58579 0.585786C2.21071 0.960859 2 1.46957 2 2V14C2 14.5304 2.21071 15.0391 2.58579 15.4142C2.96086 15.7893 3.46957 16 4 16H12C12.5304 16 13.0391 15.7893 13.4142 15.4142C13.7893 15.0391 14 14.5304 14 14V2C14 1.46957 13.7893 0.960859 13.4142 0.585786C13.0391 0.210714 12.5304 0 12 0H4C3.46957 0 2.96086 0.210714 2.58579 0.585786ZM3.29289 1.29289C3.48043 1.10536 3.73478 1 4 1H12C12.2652 1 12.5196 1.10536 12.7071 1.29289C12.8946 1.48043 13 1.73478 13 2V14C13 14.2652 12.8946 14.5196 12.7071 14.7071C12.5196 14.8946 12.2652 15 12 15H4C3.73478 15 3.48043 14.8946 3.29289 14.7071C3.10536 14.5196 3 14.2652 3 14V2C3 1.73478 3.10536 1.48043 3.29289 1.29289Z"/> </svg>