<svg width="16" height="16" viewBox="0 0 16 16" fill="none" xmlns="http://www.w3.org/2000/svg">
<path d="M5 4V8H11V4H5Z" fill="#212529"/>
<path fill-rule="evenodd" clip-rule="evenodd" d="M2.58579 0.585786C2.96086 0.210714 3.46957 0 4 0H12C12.5304 0 13.0391 0.210714 13.4142 0.585786C13.7893 0.960859 14 1.46957 14 2V14C14 14.5304 13.7893 15.0391 13.4142 15.4142C13.0391 15.7893 12.5304 16 12 16H4C3.46957 16 2.96086 15.7893 2.58579 15.4142C2.21071 15.0391 2 14.5304 2 14V2C2 1.46957 2.21071 0.960859 2.58579 0.585786ZM3.85355 1.85355C3.94732 1.75979 4 1.63261 4 1.5C4 1.36739 3.94732 1.24021 3.85355 1.14645C3.75979 1.05268 3.63261 1 3.5 1C3.36739 1 3.24021 1.05268 3.14645 1.14645C3.05268 1.24021 3 1.36739 3 1.5C3 1.63261 3.05268 1.75979 3.14645 1.85355C3.24021 1.94732 3.36739 2 3.5 2C3.63261 2 3.75979 1.94732 3.85355 1.85355ZM12.8536 1.85355C12.9473 1.75979 13 1.63261 13 1.5C13 1.36739 12.9473 1.24021 12.8536 1.14645C12.7598 1.05268 12.6326 1 12.5 1C12.3674 1 12.2402 1.05268 12.1464 1.14645C12.0527 1.24021 12 1.36739 12 1.5C12 1.63261 12.0527 1.75979 12.1464 1.85355C12.2402 1.94732 12.3674 2 12.5 2C12.6326 2 12.7598 1.94732 12.8536 1.85355ZM12.8536 10.8536C12.9473 10.7598 13 10.6326 13 10.5C13 10.3674 12.9473 10.2402 12.8536 10.1464C12.7598 10.0527 12.6326 10 12.5 10C12.3674 10 12.2402 10.0527 12.1464 10.1464C12.0527 10.2402 12 10.3674 12 10.5C12 10.6326 12.0527 10.7598 12.1464 10.8536C12.2402 10.9473 12.3674 11 12.5 11C12.6326 11 12.7598 10.9473 12.8536 10.8536ZM11.25 3H4.75C4.55109 3 4.36032 3.07902 4.21967 3.21967C4.07902 3.36032 4 3.55109 4 3.75V8.25C4 8.44891 4.07902 8.63968 4.21967 8.78033C4.36032 8.92098 4.55109 9 4.75 9H11.25C11.4489 9 11.6397 8.92098 11.7803 8.78033C11.921 8.63968 12 8.44891 12 8.25V3.75C12 3.55109 11.921 3.36032 11.7803 3.21967C11.6397 3.07902 11.4489 3 11.25 3ZM11 12H5C4.73478 12 4.48043 12.1054 4.29289 12.2929C4.10536 12.4804 4 12.7348 4 13V15H5V13H5.75V15H6.75V13H7.5V15H8.5V13H9.25V15H10.25V13H11V15H12V13C12 12.7348 11.8946 12.4804 11.7071 12.2929C11.5196 12.1054 11.2652 12 11 12Z" fill="#212529"/>
</svg>
