<svg width="16" height="16" viewBox="0 0 16 16" xmlns="http://www.w3.org/2000/svg"> <g clip-path="url(#clip0_34_3657)"> <path d="M9.04998 0.435C8.46998 -0.145 7.52998 -0.145 6.94998 0.435L0.435977 6.95C-0.144023 7.53 -0.144023 8.469 0.435977 9.048L6.95198 15.564C7.53198 16.144 8.47098 16.144 9.04998 15.564L15.566 9.048C16.146 8.468 16.146 7.529 15.566 6.95L9.04998 0.435ZM7.99998 0.989C8.12698 0.989 8.25298 1.038 8.34998 1.134L14.866 7.65C14.9588 7.74283 15.0109 7.86873 15.0109 8C15.0109 8.13127 14.9588 8.25717 14.866 8.35L8.34998 14.866C8.30408 14.9121 8.24953 14.9486 8.18946 14.9735C8.12939 14.9983 8.065 15.0111 7.99998 15.011V0.989Z"/> </g> <defs> <clipPath id="clip0_34_3657"> <rect width="16" height="16"/> </clipPath> </defs> </svg>