<svg width="16" height="16" viewBox="0 0 16 16" fill="none" xmlns="http://www.w3.org/2000/svg">
<g clip-path="url(#clip0_34_3687)">
<path d="M13.5452 2.90696C12.5077 2.43083 11.4129 2.091 10.2882 1.89596C10.278 1.89424 10.2675 1.89572 10.2582 1.9002C10.2489 1.90468 10.2412 1.91193 10.2362 1.92096C10.0952 2.17096 9.93917 2.49796 9.83017 2.75396C8.61778 2.56997 7.38456 2.56997 6.17217 2.75396C6.05058 2.46878 5.91303 2.19067 5.76017 1.92096C5.75504 1.91203 5.74733 1.90486 5.73804 1.9004C5.72876 1.89594 5.71835 1.89439 5.70817 1.89596C4.58317 2.08996 3.48817 2.42996 2.45117 2.90696C2.4423 2.91034 2.43487 2.91671 2.43017 2.92496C0.356169 6.02396 -0.212831 9.04696 0.0661689 12.032C0.0671689 12.046 0.0761689 12.06 0.0871689 12.069C1.29489 12.9636 2.64576 13.6466 4.08217 14.089C4.09231 14.0922 4.10321 14.092 4.11328 14.0886C4.12335 14.0852 4.13207 14.0787 4.13817 14.07C4.44617 13.65 4.72017 13.207 4.95617 12.741C4.96109 12.7314 4.96277 12.7204 4.96097 12.7098C4.95917 12.6992 4.95398 12.6894 4.94617 12.682C4.941 12.6771 4.93487 12.6733 4.92817 12.671C4.49733 12.5054 4.08006 12.3064 3.68017 12.076C3.669 12.0696 3.66069 12.0592 3.65697 12.047C3.65325 12.0347 3.65439 12.0214 3.66017 12.01C3.66357 12.0025 3.66872 11.996 3.67517 11.991C3.75917 11.928 3.84317 11.862 3.92317 11.796C3.93024 11.7903 3.93872 11.7866 3.9477 11.7854C3.95668 11.7842 3.96583 11.7854 3.97417 11.789C6.59317 12.985 9.42817 12.985 12.0152 11.789C12.0238 11.7852 12.0333 11.7839 12.0426 11.7851C12.052 11.7864 12.0608 11.7901 12.0682 11.796C12.1482 11.862 12.2322 11.928 12.3162 11.991C12.323 11.9959 12.3284 12.0025 12.3321 12.0101C12.3357 12.0177 12.3374 12.0261 12.337 12.0345C12.3366 12.043 12.3341 12.0511 12.3298 12.0584C12.3255 12.0656 12.3194 12.0716 12.3122 12.076C11.9132 12.3086 11.4954 12.5072 11.0632 12.67C11.0563 12.6725 11.05 12.6764 11.0448 12.6816C11.0396 12.6868 11.0357 12.6931 11.0332 12.7C11.0309 12.7066 11.0299 12.7137 11.0304 12.7208C11.031 12.7278 11.0329 12.7347 11.0362 12.741C11.2762 13.206 11.5512 13.65 11.8532 14.07C11.8593 14.0787 11.868 14.0852 11.8781 14.0886C11.8881 14.092 11.899 14.0922 11.9092 14.089C13.348 13.648 14.701 12.9649 15.9102 12.069C15.9162 12.0648 15.9213 12.0593 15.9249 12.0529C15.9285 12.0465 15.9307 12.0393 15.9312 12.032C16.2652 8.58096 15.3722 5.58296 13.5652 2.92596C13.5633 2.92157 13.5606 2.91761 13.5572 2.91434C13.5537 2.91107 13.5496 2.90855 13.5452 2.90696ZM5.34717 10.214C4.55817 10.214 3.90917 9.48996 3.90917 8.60196C3.90917 7.71296 4.54617 6.98896 5.34717 6.98896C6.15417 6.98896 6.79717 7.71896 6.78517 8.60196C6.78517 9.48996 6.14817 10.214 5.34717 10.214ZM10.6632 10.214C9.87517 10.214 9.22517 9.48996 9.22517 8.60196C9.22517 7.71296 9.86217 6.98896 10.6632 6.98896C11.4702 6.98896 12.1142 7.71896 12.1012 8.60196C12.1012 9.48996 11.4702 10.214 10.6632 10.214Z" fill="#212529"/>
</g>
<defs>
<clipPath id="clip0_34_3687">
<rect width="16" height="16" fill="white"/>
</clipPath>
</defs>
</svg>
