<svg width="16" height="16" viewBox="0 0 16 16" xmlns="http://www.w3.org/2000/svg"> <path d="M2.14645 7.14645C2.24021 7.05268 2.36739 7 2.5 7H13.5C13.6326 7 13.7598 7.05268 13.8536 7.14645C13.9473 7.24021 14 7.36739 14 7.5V8.5C14 8.63261 13.9473 8.75979 13.8536 8.85355C13.7598 8.94732 13.6326 9 13.5 9C13.3674 9 13.2402 8.94732 13.1464 8.85355C13.0527 8.75979 13 8.63261 13 8.5V8H3V8.5C3 8.63261 2.94732 8.75979 2.85355 8.85355C2.75979 8.94732 2.63261 9 2.5 9C2.36739 9 2.24021 8.94732 2.14645 8.85355C2.05268 8.75979 2 8.63261 2 8.5V7.5C2 7.36739 2.05268 7.24021 2.14645 7.14645Z"/> <path fill-rule="evenodd" clip-rule="evenodd" d="M0.292893 5.29289C0.48043 5.10536 0.734784 5 1 5H15C15.2652 5 15.5196 5.10536 15.7071 5.29289C15.8946 5.48043 16 5.73478 16 6V10C16 10.2652 15.8946 10.5196 15.7071 10.7071C15.5196 10.8946 15.2652 11 15 11H2.618C2.46287 11.0001 2.30984 10.9642 2.171 10.895L0.553 10.085C0.386919 10.002 0.247222 9.87442 0.149552 9.71653C0.0518831 9.55863 9.91486e-05 9.37666 0 9.191V6C0 5.73478 0.105357 5.48043 0.292893 5.29289ZM15 6H1V9.191L2.618 10H15V6Z"/> </svg>