<svg width="16" height="16" viewBox="0 0 16 16" fill="none" xmlns="http://www.w3.org/2000/svg">
<path d="M1.5 14.9999C1.36739 14.9999 1.24021 15.0526 1.14645 15.1464C1.05268 15.2401 1 15.3673 1 15.4999C1 15.6325 1.05268 15.7597 1.14645 15.8535C1.24021 15.9472 1.36739 15.9999 1.5 15.9999H14.5C14.6326 15.9999 14.7598 15.9472 14.8536 15.8535C14.9473 15.7597 15 15.6325 15 15.4999C15 15.3673 14.9473 15.2401 14.8536 15.1464C14.7598 15.0526 14.6326 14.9999 14.5 14.9999H13V2.49992C13 2.1021 12.842 1.72057 12.5607 1.43926C12.2794 1.15796 11.8978 0.999924 11.5 0.999924H11V0.499924C11 0.428355 10.9846 0.357622 10.9549 0.292507C10.9252 0.227391 10.8819 0.16941 10.8278 0.122483C10.7738 0.0755565 10.7103 0.0407771 10.6417 0.020496C10.5731 0.000214798 10.5009 -0.0050954 10.43 0.00492428L3.43 1.00492C3.31072 1.02179 3.20154 1.08115 3.12253 1.1721C3.04353 1.26304 3.00002 1.37946 3 1.49992V14.9999H1.5ZM11 1.99992H11.5C11.6326 1.99992 11.7598 2.0526 11.8536 2.14637C11.9473 2.24014 12 2.36732 12 2.49992V14.9999H11V1.99992ZM8.5 9.99992C8.224 9.99992 8 9.55192 8 8.99992C8 8.44792 8.224 7.99992 8.5 7.99992C8.776 7.99992 9 8.44792 9 8.99992C9 9.55192 8.776 9.99992 8.5 9.99992Z" fill="#212529"/>
</svg>
