<svg width="16" height="16" viewBox="0 0 16 16" xmlns="http://www.w3.org/2000/svg"> <g clip-path="url(#clip0_34_3713)"> <path d="M6.98897 3.61806L7.78797 2.34006C7.81045 2.3041 7.8417 2.27345 7.87878 2.2529C7.91587 2.23234 7.95757 2.22156 7.99997 2.22156C8.04238 2.22156 8.08408 2.23234 8.12117 2.2529C8.15825 2.27345 8.1895 2.3031 8.21197 2.33906L9.01097 3.61806C9.0345 3.65589 9.04748 3.69932 9.04859 3.74386C9.04969 3.7884 9.03887 3.83242 9.01726 3.87137C8.99564 3.91033 8.964 3.94279 8.92563 3.96542C8.88725 3.98804 8.84352 4 8.79897 4.00006H7.20097C7.15642 4 7.1127 3.98804 7.07432 3.96542C7.03594 3.94279 7.00431 3.91033 6.98269 3.87137C6.96107 3.83242 6.95026 3.7884 6.95136 3.74386C6.95247 3.69932 6.96545 3.65589 6.98897 3.61806Z"/> <path d="M6.98897 12.3831L7.78797 13.6601C7.81045 13.696 7.8417 13.7267 7.87878 13.7472C7.91587 13.7678 7.95757 13.7786 7.99997 13.7786C8.04238 13.7786 8.08408 13.7678 8.12117 13.7472C8.15825 13.7267 8.1895 13.697 8.21197 13.6611L9.01097 12.3831C9.03476 12.3452 9.04795 12.3017 9.04919 12.257C9.05043 12.2123 9.03967 12.1681 9.01802 12.129C8.99637 12.0899 8.96463 12.0573 8.9261 12.0346C8.88758 12.0119 8.84368 12 8.79897 12.0001H7.20097C7.15627 12 7.11237 12.0119 7.07385 12.0346C7.03532 12.0573 7.00358 12.0899 6.98193 12.129C6.96028 12.1681 6.94952 12.2123 6.95076 12.257C6.95199 12.3017 6.96519 12.3452 6.98897 12.3831Z"/> <path d="M2.33997 8.21306L3.61697 9.01006V9.01206C3.65483 9.03584 3.69836 9.04904 3.74305 9.05028C3.78773 9.05151 3.83193 9.04075 3.87105 9.0191C3.91016 8.99745 3.94275 8.96571 3.96542 8.92719C3.9881 8.88866 4.00003 8.84476 3.99997 8.80006V7.20106C3.99974 7.15659 3.98765 7.113 3.96496 7.07476C3.94226 7.03652 3.90978 7.00503 3.87085 6.98353C3.83193 6.96203 3.78798 6.9513 3.74353 6.95245C3.69908 6.9536 3.65574 6.96658 3.61797 6.99006L2.33997 7.78906C2.30402 7.81153 2.27437 7.84278 2.25381 7.87987C2.23326 7.91695 2.22247 7.95866 2.22247 8.00106C2.22247 8.04346 2.23326 8.08517 2.25381 8.12225C2.27437 8.15934 2.30402 8.19059 2.33997 8.21306Z"/> <path d="M12.383 9.01106L13.66 8.21206L13.661 8.21106C13.6969 8.18859 13.7266 8.15734 13.7471 8.12025C13.7677 8.08317 13.7785 8.04146 13.7785 7.99906C13.7785 7.95666 13.7677 7.91495 13.7471 7.87787C13.7266 7.84078 13.6969 7.80953 13.661 7.78706L12.383 6.98806C12.3451 6.96428 12.3016 6.95108 12.2569 6.94984C12.2122 6.9486 12.168 6.95937 12.1289 6.98102C12.0898 7.00267 12.0572 7.03441 12.0345 7.07293C12.0118 7.11146 11.9999 7.15536 12 7.20006V8.79906C11.9999 8.84376 12.0118 8.88766 12.0345 8.92619C12.0572 8.96471 12.0898 8.99645 12.1289 9.0181C12.168 9.03975 12.2122 9.05052 12.2569 9.04928C12.3016 9.04804 12.3451 9.03484 12.383 9.01106Z"/> <path fill-rule="evenodd" clip-rule="evenodd" d="M5.43934 0.43934C5.72064 0.158035 6.10218 0 6.5 0H9.5C9.89782 0 10.2794 0.158035 10.5607 0.43934C10.842 0.720644 11 1.10218 11 1.5V4.5C11 4.63261 11.0527 4.75979 11.1464 4.85355C11.2402 4.94732 11.3674 5 11.5 5H14.5C14.8978 5 15.2794 5.15804 15.5607 5.43934C15.842 5.72064 16 6.10218 16 6.5V9.5C16 9.89782 15.842 10.2794 15.5607 10.5607C15.2794 10.842 14.8978 11 14.5 11H11.5C11.3674 11 11.2402 11.0527 11.1464 11.1464C11.0527 11.2402 11 11.3674 11 11.5V14.5C11 14.8978 10.842 15.2794 10.5607 15.5607C10.2794 15.842 9.89782 16 9.5 16H6.5C6.10218 16 5.72064 15.842 5.43934 15.5607C5.15804 15.2794 5 14.8978 5 14.5V11.5C5 11.3674 4.94732 11.2402 4.85355 11.1464C4.75979 11.0527 4.63261 11 4.5 11H1.5C1.10218 11 0.720644 10.842 0.43934 10.5607C0.158035 10.2794 0 9.89782 0 9.5V6.5C0 6.10218 0.158035 5.72064 0.43934 5.43934C0.720644 5.15804 1.10218 5 1.5 5H4.5C4.63261 5 4.75979 4.94732 4.85355 4.85355C4.94732 4.75979 5 4.63261 5 4.5V1.5C5 1.10218 5.15804 0.720644 5.43934 0.43934ZM6.14645 1.14645C6.05268 1.24021 6 1.36739 6 1.5V4.5C6 4.89782 5.84196 5.27936 5.56066 5.56066C5.27936 5.84196 4.89782 6 4.5 6H1.5C1.36739 6 1.24021 6.05268 1.14645 6.14645C1.05268 6.24021 1 6.36739 1 6.5V9.5C1 9.63261 1.05268 9.75979 1.14645 9.85355C1.24021 9.94732 1.36739 10 1.5 10H4.5C4.89782 10 5.27936 10.158 5.56066 10.4393C5.84196 10.7206 6 11.1022 6 11.5V14.5C6 14.6326 6.05268 14.7598 6.14645 14.8536C6.24021 14.9473 6.36739 15 6.5 15H9.5C9.63261 15 9.75979 14.9473 9.85355 14.8536C9.94732 14.7598 10 14.6326 10 14.5V11.5C10 11.1022 10.158 10.7206 10.4393 10.4393C10.7206 10.158 11.1022 10 11.5 10H14.5C14.6326 10 14.7598 9.94732 14.8536 9.85355C14.9473 9.75979 15 9.63261 15 9.5V6.5C15 6.36739 14.9473 6.24021 14.8536 6.14645C14.7598 6.05268 14.6326 6 14.5 6H11.5C11.1022 6 10.7206 5.84196 10.4393 5.56066C10.158 5.27936 10 4.89782 10 4.5V1.5C10 1.36739 9.94732 1.24021 9.85355 1.14645C9.75979 1.05268 9.63261 1 9.5 1H6.5C6.36739 1 6.24021 1.05268 6.14645 1.14645Z"/> </g> <defs> <clipPath id="clip0_34_3713"> <rect width="16" height="16"/> </clipPath> </defs> </svg>