<svg width="16" height="16" viewBox="0 0 16 16" xmlns="http://www.w3.org/2000/svg"> <g clip-path="url(#clip0_34_3715)"> <path d="M6.5 0C6.10218 0 5.72064 0.158035 5.43934 0.43934C5.15804 0.720644 5 1.10218 5 1.5V4.5C5 4.63261 4.94732 4.75979 4.85355 4.85355C4.75979 4.94732 4.63261 5 4.5 5H1.5C1.10218 5 0.720644 5.15804 0.43934 5.43934C0.158035 5.72064 0 6.10218 0 6.5L0 9.5C0 9.89782 0.158035 10.2794 0.43934 10.5607C0.720644 10.842 1.10218 11 1.5 11H4.5C4.63261 11 4.75979 11.0527 4.85355 11.1464C4.94732 11.2402 5 11.3674 5 11.5V14.5C5 14.8978 5.15804 15.2794 5.43934 15.5607C5.72064 15.842 6.10218 16 6.5 16H9.5C9.89782 16 10.2794 15.842 10.5607 15.5607C10.842 15.2794 11 14.8978 11 14.5V11.5C11 11.3674 11.0527 11.2402 11.1464 11.1464C11.2402 11.0527 11.3674 11 11.5 11H14.5C14.8978 11 15.2794 10.842 15.5607 10.5607C15.842 10.2794 16 9.89782 16 9.5V6.5C16 6.10218 15.842 5.72064 15.5607 5.43934C15.2794 5.15804 14.8978 5 14.5 5H11.5C11.3674 5 11.2402 4.94732 11.1464 4.85355C11.0527 4.75979 11 4.63261 11 4.5V1.5C11 1.10218 10.842 0.720644 10.5607 0.43934C10.2794 0.158035 9.89782 0 9.5 0L6.5 0ZM7.788 2.34C7.81047 2.30404 7.84172 2.27439 7.87881 2.25384C7.91589 2.23328 7.9576 2.2225 8 2.2225C8.0424 2.2225 8.08411 2.23328 8.12119 2.25384C8.15828 2.27439 8.18953 2.30404 8.212 2.34L9.011 3.618C9.03452 3.65583 9.04751 3.69927 9.04861 3.7438C9.04972 3.78834 9.0389 3.83236 9.01728 3.87131C8.99566 3.91027 8.96403 3.94274 8.92565 3.96536C8.88728 3.98799 8.84355 3.99994 8.799 4H7.201C7.15645 3.99994 7.11272 3.98799 7.07435 3.96536C7.03597 3.94274 7.00434 3.91027 6.98272 3.87131C6.9611 3.83236 6.95028 3.78834 6.95139 3.7438C6.95249 3.69927 6.96548 3.65583 6.989 3.618L7.788 2.339V2.34ZM7.788 13.66L6.989 12.383C6.96522 12.3451 6.95202 12.3016 6.95078 12.2569C6.94954 12.2122 6.96031 12.168 6.98196 12.1289C7.00361 12.0898 7.03535 12.0572 7.07387 12.0346C7.1124 12.0119 7.1563 11.9999 7.201 12H8.8C8.8447 11.9999 8.8886 12.0119 8.92713 12.0346C8.96565 12.0572 8.99739 12.0898 9.01904 12.1289C9.04069 12.168 9.05146 12.2122 9.05022 12.2569C9.04898 12.3016 9.03578 12.3451 9.012 12.383L8.213 13.661C8.19053 13.697 8.15928 13.7266 8.12219 13.7472C8.08511 13.7677 8.0434 13.7785 8.001 13.7785C7.9586 13.7785 7.91689 13.7677 7.87981 13.7472C7.84272 13.7266 7.81147 13.697 7.789 13.661L7.788 13.66ZM3.618 9.01L2.339 8.212C2.30304 8.18953 2.27339 8.15828 2.25284 8.12119C2.23228 8.08411 2.2215 8.0424 2.2215 8C2.2215 7.9576 2.23228 7.91589 2.25284 7.87881C2.27339 7.84172 2.30304 7.81047 2.339 7.788L3.618 6.989C3.65583 6.96548 3.69927 6.95249 3.7438 6.95139C3.78834 6.95028 3.83236 6.9611 3.87131 6.98272C3.91027 7.00434 3.94274 7.03597 3.96536 7.07435C3.98799 7.11272 3.99994 7.15645 4 7.201V8.8C3.99994 8.84455 3.98799 8.88828 3.96536 8.92665C3.94274 8.96503 3.91027 8.99666 3.87131 9.01828C3.83236 9.0399 3.78834 9.05072 3.7438 9.04961C3.69927 9.04851 3.65583 9.03552 3.618 9.012V9.01ZM13.661 8.212L12.383 9.011C12.3451 9.03478 12.3016 9.04798 12.2569 9.04922C12.2122 9.05046 12.168 9.03969 12.1289 9.01804C12.0898 8.99639 12.0572 8.96465 12.0346 8.92613C12.0119 8.8876 11.9999 8.8437 12 8.799V7.2C11.9999 7.1553 12.0119 7.1114 12.0346 7.07287C12.0572 7.03435 12.0898 7.00261 12.1289 6.98096C12.168 6.95931 12.2122 6.94854 12.2569 6.94978C12.3016 6.95102 12.3451 6.96422 12.383 6.988L13.661 7.787C13.697 7.80947 13.7266 7.84072 13.7472 7.87781C13.7677 7.91489 13.7785 7.9566 13.7785 7.999C13.7785 8.0414 13.7677 8.08311 13.7472 8.12019C13.7266 8.15728 13.697 8.18853 13.661 8.211V8.212Z"/> </g> <defs> <clipPath id="clip0_34_3715"> <rect width="16" height="16"/> </clipPath> </defs> </svg>