<svg width="16" height="16" viewBox="0 0 16 16" xmlns="http://www.w3.org/2000/svg"> <g clip-path="url(#clip0_34_3729)"> <path d="M8.5 0C7.04131 0 5.64236 0.579463 4.61091 1.61091C3.57946 2.64236 3 4.04131 3 5.5V12.547C2.99957 13.3563 3.28341 14.14 3.80197 14.7614C4.32053 15.3827 5.04086 15.8022 5.83719 15.9465C6.63351 16.0908 7.45523 15.9509 8.15888 15.5511C8.86252 15.1512 9.40337 14.517 9.687 13.759L10.197 12.396C10.3591 11.9657 10.585 11.5622 10.867 11.199L12.875 8.618C13.4886 7.82892 13.8684 6.88346 13.9712 5.88919C14.074 4.89492 13.8957 3.89176 13.4565 2.99383C13.0173 2.0959 12.335 1.33926 11.487 0.809999C10.6391 0.280733 9.65957 9.0831e-05 8.66 0L8.5 0ZM7 5.5V8.195C7.112 8.135 7.223 8.072 7.332 8.003C7.659 7.795 7.909 7.563 8.052 7.276C8.11141 7.15732 8.21553 7.06709 8.34146 7.02518C8.46739 6.98326 8.60482 6.99309 8.7235 7.0525C8.84219 7.11191 8.93241 7.21603 8.97432 7.34196C9.01624 7.46789 9.00641 7.60532 8.947 7.724C8.691 8.237 8.274 8.589 7.868 8.847C7.58788 9.01891 7.29806 9.1745 7 9.313V11.5C7 11.6326 6.94732 11.7598 6.85355 11.8536C6.75979 11.9473 6.63261 12 6.5 12C6.36739 12 6.24022 11.9473 6.14645 11.8536C6.05268 11.7598 6 11.6326 6 11.5V5.5C6 4.83696 6.26339 4.20107 6.73223 3.73223C7.20107 3.26339 7.83696 3 8.5 3C9.16304 3 9.79893 3.26339 10.2678 3.73223C10.7366 4.20107 11 4.83696 11 5.5V6C11 6.13261 10.9473 6.25979 10.8536 6.35355C10.7598 6.44732 10.6326 6.5 10.5 6.5C10.3674 6.5 10.2402 6.44732 10.1464 6.35355C10.0527 6.25979 10 6.13261 10 6V5.5C10 5.10218 9.84197 4.72064 9.56066 4.43934C9.27936 4.15804 8.89783 4 8.5 4C8.10218 4 7.72064 4.15804 7.43934 4.43934C7.15804 4.72064 7 5.10218 7 5.5Z"/> </g> <defs> <clipPath id="clip0_34_3729"> <rect width="16" height="16"/> </clipPath> </defs> </svg>