<svg width="16" height="16" viewBox="0 0 16 16" fill="none" xmlns="http://www.w3.org/2000/svg">
<g clip-path="url(#clip0_34_3725)">
<path d="M8.5 1C7.30653 1 6.16193 1.47411 5.31802 2.31802C4.47411 3.16193 4 4.30653 4 5.5V12.547C3.99996 13.1217 4.20171 13.6782 4.57007 14.1194C4.93842 14.5605 5.44998 14.8583 6.01549 14.9609C6.581 15.0634 7.16455 14.964 7.66431 14.6802C8.16407 14.3964 8.54832 13.9462 8.75 13.408L9.262 12.045C9.45873 11.5199 9.73385 11.0277 10.078 10.585L12.086 8.004C12.5847 7.36267 12.8933 6.59424 12.9768 5.78616C13.0603 4.97807 12.9154 4.16277 12.5584 3.43301C12.2014 2.70325 11.6468 2.08833 10.9576 1.6582C10.2685 1.22808 9.47239 1.00003 8.66 1H8.5ZM3 5.5C3 4.04131 3.57946 2.64236 4.61091 1.61091C5.64236 0.579463 7.04131 0 8.5 0L8.66 0C9.65957 9.0831e-05 10.6391 0.280733 11.487 0.809999C12.335 1.33926 13.0173 2.0959 13.4565 2.99383C13.8957 3.89176 14.074 4.89492 13.9712 5.88919C13.8684 6.88346 13.4886 7.82892 12.875 8.618L10.867 11.199C10.5845 11.5619 10.3586 11.9655 10.197 12.396L9.687 13.759C9.40337 14.517 8.86252 15.1512 8.15888 15.5511C7.45523 15.9509 6.63351 16.0908 5.83719 15.9465C5.04086 15.8022 4.32053 15.3827 3.80197 14.7614C3.28341 14.14 2.99957 13.3563 3 12.547V5.5ZM8.5 4C8.10218 4 7.72064 4.15804 7.43934 4.43934C7.15804 4.72064 7 5.10218 7 5.5V8.195C7.112 8.135 7.223 8.072 7.332 8.003C7.659 7.795 7.909 7.563 8.052 7.276C8.11141 7.15732 8.21553 7.06709 8.34146 7.02518C8.46739 6.98326 8.60482 6.99309 8.7235 7.0525C8.84219 7.11191 8.93241 7.21603 8.97432 7.34196C9.01624 7.46789 9.00641 7.60532 8.947 7.724C8.691 8.237 8.274 8.589 7.868 8.847C7.58788 9.01891 7.29806 9.1745 7 9.313V11.5C7 11.6326 6.94732 11.7598 6.85355 11.8536C6.75979 11.9473 6.63261 12 6.5 12C6.36739 12 6.24022 11.9473 6.14645 11.8536C6.05268 11.7598 6 11.6326 6 11.5V5.5C6 4.83696 6.26339 4.20107 6.73223 3.73223C7.20107 3.26339 7.83696 3 8.5 3C9.16304 3 9.79893 3.26339 10.2678 3.73223C10.7366 4.20107 11 4.83696 11 5.5V6C11 6.13261 10.9473 6.25979 10.8536 6.35355C10.7598 6.44732 10.6326 6.5 10.5 6.5C10.3674 6.5 10.2402 6.44732 10.1464 6.35355C10.0527 6.25979 10 6.13261 10 6V5.5C10 5.10218 9.84197 4.72064 9.56066 4.43934C9.27936 4.15804 8.89783 4 8.5 4Z" fill="#212529"/>
</g>
<defs>
<clipPath id="clip0_34_3725">
<rect width="16" height="16" fill="white"/>
</clipPath>
</defs>
</svg>
