<svg width="16" height="16" viewBox="0 0 16 16" xmlns="http://www.w3.org/2000/svg"> <g clip-path="url(#clip0_34_3727)"> <path fill-rule="evenodd" clip-rule="evenodd" d="M6.82503 4.13808C7.42103 6.27908 6.46503 7.73108 4.43603 8.25508C3.77648 8.42808 3.0859 8.44656 2.41803 8.30908C2.37003 8.29908 3.31803 11.0871 3.94003 12.9191L4.35003 14.1241C4.37146 14.19 4.37948 14.2596 4.37362 14.3287C4.36775 14.3978 4.34812 14.4651 4.31588 14.5265C4.28364 14.5879 4.23944 14.6422 4.18588 14.6863C4.13233 14.7304 4.0705 14.7633 4.00403 14.7831L3.41103 14.9731C3.27442 15.0184 3.12546 15.0081 2.99635 14.9445C2.86725 14.8809 2.76835 14.769 2.72103 14.6331L0.184034 6.99008C-0.511966 4.85308 0.846034 2.68108 2.74803 2.19008C4.77703 1.66708 6.15003 2.19008 6.82403 4.13808H6.82503ZM5.95703 6.35908C6.38703 6.24708 6.51803 5.36608 6.24903 4.39008C5.98003 3.41508 5.41303 2.71508 4.98303 2.82708C4.55303 2.93908 4.42203 3.82108 4.69103 4.79608C4.96003 5.77108 5.52703 6.47108 5.95703 6.35908ZM9.17503 4.13808C8.57903 6.27908 9.53503 7.73108 11.564 8.25508C12.2236 8.42801 12.9142 8.44649 13.582 8.30908C13.63 8.29908 12.682 11.0871 12.06 12.9191L11.65 14.1241C11.6286 14.19 11.6206 14.2596 11.6265 14.3287C11.6323 14.3978 11.6519 14.4651 11.6842 14.5265C11.7164 14.5879 11.7606 14.6422 11.8142 14.6863C11.8677 14.7304 11.9296 14.7633 11.996 14.7831L12.589 14.9731C12.878 15.0651 13.189 14.9131 13.279 14.6331L15.815 6.99008C16.511 4.85308 15.153 2.68108 13.251 2.19008C11.222 1.66708 9.84903 2.19008 9.17503 4.13808ZM10.043 6.35908C9.61303 6.24708 9.48203 5.36608 9.75103 4.39008C10.02 3.41508 10.587 2.71508 11.017 2.82708C11.447 2.93908 11.578 3.82108 11.309 4.79608C11.04 5.77108 10.473 6.47108 10.043 6.35908Z"/> </g> <defs> <clipPath id="clip0_34_3727"> <rect width="16" height="16"/> </clipPath> </defs> </svg>