<svg width="16" height="16" viewBox="0 0 16 16" xmlns="http://www.w3.org/2000/svg"> <g clip-path="url(#clip0_34_3741)"> <path d="M8.473 0.33694C8.43921 0.238343 8.37546 0.152768 8.29065 0.0921809C8.20585 0.0315939 8.10423 -0.000976563 8 -0.000976562C7.89577 -0.000976563 7.79415 0.0315939 7.70935 0.0921809C7.62454 0.152768 7.56079 0.238343 7.527 0.33694L6.954 1.99994H2C1.73478 1.99994 1.48043 2.1053 1.29289 2.29283C1.10536 2.48037 1 2.73472 1 2.99994V9.99994C1 10.2652 1.10536 10.5195 1.29289 10.707C1.48043 10.8946 1.73478 10.9999 2 10.9999H3.85L2.527 14.8369C2.48377 14.9624 2.49214 15.0999 2.55028 15.2191C2.60842 15.3384 2.71155 15.4297 2.837 15.4729C2.96245 15.5162 3.09993 15.5078 3.2192 15.4497C3.33848 15.3915 3.42977 15.2884 3.473 15.1629L4.908 10.9999H7.5V13.4999C7.5 13.6325 7.55268 13.7597 7.64645 13.8535C7.74021 13.9473 7.86739 13.9999 8 13.9999C8.13261 13.9999 8.25979 13.9473 8.35355 13.8535C8.44732 13.7597 8.5 13.6325 8.5 13.4999V10.9999H11.092L12.527 15.1629C12.5702 15.2884 12.6615 15.3915 12.7808 15.4497C12.9001 15.5078 13.0376 15.5162 13.163 15.4729C13.2884 15.4297 13.3916 15.3384 13.4497 15.2191C13.5079 15.0999 13.5162 14.9624 13.473 14.8369L12.15 10.9999H14C14.2652 10.9999 14.5196 10.8946 14.7071 10.707C14.8946 10.5195 15 10.2652 15 9.99994V2.99994C15 2.73472 14.8946 2.48037 14.7071 2.29283C14.5196 2.1053 14.2652 1.99994 14 1.99994H9.046L8.473 0.33694Z"/> </g> <defs> <clipPath id="clip0_34_3741"> <rect width="16" height="16"/> </clipPath> </defs> </svg>