<svg width="16" height="16" viewBox="0 0 16 16" fill="none" xmlns="http://www.w3.org/2000/svg">
<g clip-path="url(#clip0_34_3735)">
<path d="M8.447 0.275967C8.40543 0.193026 8.34161 0.123286 8.26266 0.0745492C8.18372 0.0258122 8.09278 0 8 0C7.90723 0 7.81628 0.0258122 7.73734 0.0745492C7.6584 0.123286 7.59457 0.193026 7.553 0.275967L7.19 0.999967H2.5C2.10218 0.999967 1.72064 1.158 1.43934 1.43931C1.15804 1.72061 1 2.10214 1 2.49997V9.99997H15V2.49997C15 2.10214 14.842 1.72061 14.5607 1.43931C14.2794 1.158 13.8978 0.999967 13.5 0.999967H8.809L8.447 0.275967Z" fill="#212529"/>
<path fill-rule="evenodd" clip-rule="evenodd" d="M0.5 11C0.367392 11 0.240215 11.0526 0.146447 11.1464C0.0526784 11.2402 0 11.3674 0 11.5C0 11.6326 0.0526784 11.7598 0.146447 11.8535C0.240215 11.9473 0.367392 12 0.5 12H3.36L2.515 15.379C2.48633 15.5064 2.50865 15.64 2.57719 15.7511C2.64573 15.8623 2.75505 15.9423 2.88177 15.9739C3.00849 16.0055 3.14255 15.9863 3.25528 15.9203C3.36801 15.8544 3.45046 15.7469 3.485 15.621L3.89 14H12.11L12.515 15.621C12.5495 15.7469 12.632 15.8544 12.7447 15.9203C12.8575 15.9863 12.9915 16.0055 13.1182 15.9739C13.2449 15.9423 13.3543 15.8623 13.4228 15.7511C13.4914 15.64 13.5137 15.5064 13.485 15.379L12.64 12H15.5C15.6326 12 15.7598 11.9473 15.8536 11.8535C15.9473 11.7598 16 11.6326 16 11.5C16 11.3674 15.9473 11.2402 15.8536 11.1464C15.7598 11.0526 15.6326 11 15.5 11H0.5ZM4.14 13L4.39 12H11.61L11.86 13H4.14Z" fill="#212529"/>
</g>
<defs>
<clipPath id="clip0_34_3735">
<rect width="16" height="16" fill="white"/>
</clipPath>
</defs>
</svg>
