<svg width="16" height="16" viewBox="0 0 16 16" xmlns="http://www.w3.org/2000/svg"> <g clip-path="url(#clip0_34_3747)"> <path d="M8.00024 11.0001C8.79589 11.0001 9.55895 10.684 10.1216 10.1214C10.6842 9.55878 11.0002 8.79572 11.0002 8.00007C11.0002 7.20442 10.6842 6.44136 10.1216 5.87875C9.55895 5.31614 8.79589 5.00007 8.00024 5.00007C7.20459 5.00007 6.44153 5.31614 5.87892 5.87875C5.31631 6.44136 5.00024 7.20442 5.00024 8.00007C5.00024 8.79572 5.31631 9.55878 5.87892 10.1214C6.44153 10.684 7.20459 11.0001 8.00024 11.0001Z"/> <path d="M13.9972 5.17007C14.0297 4.21646 13.7886 3.27347 13.3025 2.45244C12.8163 1.63142 12.1054 0.966642 11.2536 0.536606C10.4018 0.106571 9.44481 -0.0707666 8.49551 0.0255329C7.54622 0.121832 6.6443 0.487747 5.89624 1.08007C4.86989 0.892653 3.81062 1.03099 2.86682 1.4757C1.92302 1.92041 1.14198 2.64922 0.63311 3.56003C0.124238 4.47084 -0.086969 5.51802 0.0290766 6.55487C0.145122 7.59172 0.582607 8.5663 1.28024 9.34207C0.900677 10.421 0.902473 11.5974 1.28533 12.6751C1.66819 13.7529 2.40897 14.6668 3.38412 15.2645C4.35927 15.8621 5.50985 16.1074 6.64396 15.9594C7.77807 15.8113 8.82715 15.279 9.61624 14.4511C10.2266 14.8407 10.9428 15.0315 11.6662 14.997C12.3895 14.9625 13.0843 14.7045 13.6549 14.2586C14.2254 13.8127 14.6436 13.2007 14.8518 12.5072C15.06 11.8136 15.0479 11.0725 14.8172 10.3861C15.2475 10.0578 15.5809 9.6194 15.7823 9.11715C15.9837 8.6149 16.0456 8.06753 15.9614 7.533C15.8771 6.99846 15.6499 6.49665 15.3038 6.08069C14.9577 5.66472 14.5056 5.35008 13.9952 5.17007H13.9972ZM12.9972 5.13607C12.9901 5.34882 13.051 5.55829 13.1712 5.73401C13.2913 5.90973 13.4644 6.04252 13.6652 6.11307C14.0055 6.23321 14.3068 6.4431 14.5375 6.72053C14.7682 6.99795 14.9196 7.33258 14.9756 7.689C15.0317 8.04541 14.9903 8.41036 14.856 8.74519C14.7216 9.08003 14.4992 9.3723 14.2122 9.59107C14.0463 9.71779 13.9243 9.89324 13.8631 10.0928C13.802 10.2924 13.8048 10.5062 13.8712 10.7041C14.0365 11.1945 14.0454 11.724 13.8969 12.2198C13.7484 12.7155 13.4497 13.1529 13.0421 13.4716C12.6344 13.7904 12.1379 13.9748 11.621 13.9994C11.1041 14.024 10.5923 13.8876 10.1562 13.6091C9.96089 13.4842 9.7282 13.431 9.49798 13.4588C9.26777 13.4865 9.05435 13.5934 8.89424 13.7611C8.26314 14.4241 7.42373 14.8506 6.51611 14.9694C5.6085 15.0882 4.68759 14.8921 3.9071 14.4139C3.12661 13.9356 2.53376 13.2042 2.22749 12.3416C1.92123 11.479 1.92008 10.5374 2.22424 9.67407C2.28369 9.50478 2.29649 9.32261 2.2613 9.14666C2.22611 8.97072 2.14423 8.80748 2.02424 8.67407C1.46595 8.05346 1.1158 7.27373 1.02288 6.44414C0.929956 5.61455 1.09891 4.77668 1.50606 4.04793C1.91321 3.31918 2.53816 2.73607 3.29334 2.38031C4.04851 2.02455 4.89607 1.91398 5.71724 2.06407C5.85714 2.08953 6.00087 2.08486 6.13882 2.05037C6.27677 2.01589 6.40578 1.95237 6.51724 1.86407C7.11576 1.3904 7.83731 1.09785 8.59671 1.02098C9.35611 0.944105 10.1217 1.08611 10.803 1.43023C11.4843 1.77436 12.0529 2.30623 12.4417 2.96305C12.8305 3.61988 13.0233 4.37324 12.9972 5.13607Z"/> </g> <defs> <clipPath id="clip0_34_3747"> <rect width="16" height="16"/> </clipPath> </defs> </svg>