<svg width="16" height="16" viewBox="0 0 16 16" xmlns="http://www.w3.org/2000/svg"> <g clip-path="url(#clip0_34_3773)"> <path fill-rule="evenodd" clip-rule="evenodd" d="M12.4929 13.3681C11.2545 14.4044 9.69592 14.9807 8.08124 14.9993C6.46656 15.0179 4.89509 14.4777 3.63314 13.4703C2.37119 12.4628 1.49637 11.05 1.15692 9.47126C0.817477 7.89255 1.03428 6.24503 1.77061 4.80789C2.50693 3.37075 3.71747 2.23237 5.19711 1.58567C6.67675 0.938969 8.33447 0.823716 9.88936 1.25944C11.4443 1.69517 12.8007 2.65508 13.7288 3.9765C14.6569 5.29792 15.0996 6.89959 14.9819 8.51008C15.3259 8.54308 15.6619 8.65708 15.9569 8.83808C16.1525 6.98237 15.6933 5.11665 14.6588 3.56373C13.6242 2.01081 12.0793 0.868393 10.2914 0.334155C8.50352 -0.200083 6.58513 -0.0925334 4.86817 0.638195C3.1512 1.36892 1.74369 2.67686 0.889157 4.33568C0.0346285 5.99451 -0.21315 7.89987 0.188695 9.72208C0.59054 11.5443 1.61673 13.1687 3.08969 14.3143C4.56266 15.4598 6.38974 16.0544 8.2548 15.9952C10.1198 15.936 11.9055 15.2267 13.3029 13.9901C13.0208 13.799 12.7503 13.5913 12.4929 13.3681ZM8.76189 10.1481C8.38837 10.2377 8.01901 10.3438 7.65489 10.4661C7.5918 10.4893 7.52467 10.4996 7.45751 10.4963C7.39036 10.493 7.32456 10.4762 7.26405 10.4468C7.20355 10.4175 7.14958 10.3763 7.10537 10.3256C7.06117 10.275 7.02763 10.2159 7.00677 10.152C6.98591 10.0881 6.97816 10.0206 6.98398 9.95362C6.9898 9.88664 7.00907 9.82152 7.04063 9.76215C7.0722 9.70278 7.11541 9.6504 7.16769 9.60812C7.21997 9.56583 7.28024 9.53453 7.34489 9.51608C7.72489 9.39108 8.14689 9.26208 8.53689 9.17308C8.90689 9.08708 9.31689 9.02008 9.63989 9.06508C9.79989 9.08708 10.0339 9.15008 10.2009 9.35108C10.3889 9.57708 10.3879 9.84808 10.3319 10.0561C10.2646 10.2706 10.1596 10.4714 10.0219 10.6491C9.94489 10.7561 9.85389 10.8691 9.74689 10.9921C9.85389 11.1161 9.94589 11.2321 10.0229 11.3391C10.1649 11.5361 10.2789 11.7361 10.3329 11.9341C10.3879 12.1421 10.3889 12.4131 10.2009 12.6401C10.0329 12.8401 9.79689 12.9021 9.63789 12.9241C9.31489 12.9671 8.90489 12.8971 8.53589 12.8111C8.13427 12.7127 7.73692 12.5976 7.34489 12.4661C7.28024 12.4476 7.21997 12.4163 7.16769 12.374C7.11541 12.3318 7.0722 12.2794 7.04063 12.22C7.00907 12.1606 6.9898 12.0955 6.98398 12.0285C6.97816 11.9616 6.98591 11.8941 7.00677 11.8302C7.02763 11.7663 7.06117 11.7072 7.10537 11.6565C7.14958 11.6059 7.20355 11.5647 7.26405 11.5353C7.32456 11.506 7.39036 11.4892 7.45751 11.4859C7.52467 11.4826 7.5918 11.4928 7.65489 11.5161C8.02589 11.6361 8.41589 11.7561 8.76389 11.8371C8.93989 11.8781 9.08889 11.9061 9.20989 11.9211C9.05614 11.7151 8.88841 11.52 8.70789 11.3371C8.61804 11.2436 8.56802 11.1188 8.5684 10.9892C8.56877 10.8595 8.6195 10.7351 8.70989 10.6421C8.88968 10.4615 9.05674 10.2687 9.20989 10.0651C9.05926 10.0848 8.90973 10.1121 8.76189 10.1471V10.1481ZM9.52789 10.0611L9.52489 10.0601L9.52189 10.0591C9.52589 10.0591 9.52789 10.0611 9.52789 10.0611ZM9.52989 11.9281L9.52389 11.9291C9.52583 11.9282 9.52784 11.9276 9.52989 11.9271V11.9281ZM5.99989 8.00008C6.55189 8.00008 6.99989 7.32808 6.99989 6.50008C6.99989 5.67208 6.55189 5.00008 5.99989 5.00008C5.44789 5.00008 4.99989 5.67208 4.99989 6.50008C4.99989 7.32808 5.44789 8.00008 5.99989 8.00008ZM8.75689 7.43708C8.81428 7.469 8.87739 7.48929 8.94262 7.49682C9.00785 7.50434 9.07393 7.49894 9.13707 7.48092C9.20022 7.46291 9.25919 7.43263 9.31064 7.39182C9.36208 7.35101 9.40498 7.30047 9.43689 7.24308C9.51585 7.09564 9.63295 6.97211 9.77596 6.88539C9.91898 6.79867 10.0827 6.75194 10.2499 6.75008C10.5889 6.75008 10.8949 6.94008 11.0629 7.24308C11.1273 7.35898 11.2352 7.44453 11.3627 7.48091C11.4902 7.5173 11.627 7.50153 11.7429 7.43708C11.8588 7.37263 11.9443 7.26479 11.9807 7.13726C12.0171 7.00974 12.0013 6.87298 11.9369 6.75708C11.7713 6.45384 11.5275 6.2005 11.2308 6.02341C10.9341 5.84632 10.5954 5.75194 10.2499 5.75008C9.51989 5.75008 8.89389 6.16208 8.56289 6.75708C8.53098 6.81447 8.51068 6.87758 8.50316 6.94281C8.49564 7.00804 8.50104 7.07412 8.51905 7.13726C8.53707 7.20041 8.56734 7.25939 8.60815 7.31083C8.64896 7.36227 8.6995 7.40517 8.75689 7.43708ZM13.9999 9.82808C15.1099 8.68808 17.8839 10.6841 13.9999 13.2501C10.1159 10.6841 12.8899 8.68808 13.9999 9.82908V9.82808Z"/> </g> <defs> <clipPath id="clip0_34_3773"> <rect width="16" height="16"/> </clipPath> </defs> </svg>