<svg width="16" height="16" viewBox="0 0 16 16" xmlns="http://www.w3.org/2000/svg"> <g clip-path="url(#clip0_34_3797)"> <path d="M8 15C6.14348 15 4.36301 14.2625 3.05025 12.9497C1.7375 11.637 1 9.85652 1 8C1 6.14348 1.7375 4.36301 3.05025 3.05025C4.36301 1.7375 6.14348 1 8 1C9.85652 1 11.637 1.7375 12.9497 3.05025C14.2625 4.36301 15 6.14348 15 8C15 9.85652 14.2625 11.637 12.9497 12.9497C11.637 14.2625 9.85652 15 8 15ZM8 16C10.1217 16 12.1566 15.1571 13.6569 13.6569C15.1571 12.1566 16 10.1217 16 8C16 5.87827 15.1571 3.84344 13.6569 2.34315C12.1566 0.842855 10.1217 0 8 0C5.87827 0 3.84344 0.842855 2.34315 2.34315C0.842855 3.84344 0 5.87827 0 8C0 10.1217 0.842855 12.1566 2.34315 13.6569C3.84344 15.1571 5.87827 16 8 16Z"/> <path d="M4.285 9.567C4.39984 9.5007 4.53631 9.48273 4.6644 9.51705C4.79249 9.55137 4.90169 9.63516 4.968 9.75C5.27511 10.2823 5.71705 10.7244 6.24933 11.0316C6.7816 11.3388 7.38543 11.5004 8 11.5C8.61457 11.5004 9.2184 11.3388 9.75067 11.0316C10.2829 10.7244 10.7249 10.2823 11.032 9.75C11.0646 9.69268 11.1082 9.64237 11.1603 9.60197C11.2124 9.56157 11.272 9.53187 11.3357 9.5146C11.3993 9.49732 11.4657 9.4928 11.5311 9.5013C11.5965 9.5098 11.6596 9.53115 11.7167 9.56412C11.7738 9.59709 11.8238 9.64103 11.8638 9.69341C11.9039 9.74579 11.9332 9.80558 11.95 9.86933C11.9669 9.93308 11.971 9.99953 11.962 10.0649C11.9531 10.1302 11.9313 10.1931 11.898 10.25C11.5031 10.9344 10.9349 11.5026 10.2507 11.8976C9.56637 12.2926 8.79011 12.5004 8 12.5C7.20989 12.5004 6.43363 12.2926 5.74934 11.8976C5.06505 11.5026 4.49688 10.9344 4.102 10.25C4.0357 10.1352 4.01773 9.99869 4.05205 9.8706C4.08637 9.74251 4.17016 9.63331 4.285 9.567ZM7 6.5C7 7.328 6.552 8 6 8C5.448 8 5 7.328 5 6.5C5 5.672 5.448 5 6 5C6.552 5 7 5.672 7 6.5ZM8.757 6.063C8.81439 6.03109 8.8775 6.01079 8.94273 6.00327C9.00796 5.99574 9.07404 6.00115 9.13718 6.01916C9.20033 6.03718 9.2593 6.06745 9.31075 6.10826C9.36219 6.14907 9.40509 6.19961 9.437 6.257C9.51596 6.40444 9.63306 6.52797 9.77607 6.61469C9.91908 6.70142 10.0828 6.74814 10.25 6.75C10.589 6.75 10.895 6.56 11.063 6.257C11.1274 6.1411 11.2353 6.05555 11.3628 6.01917C11.4903 5.98279 11.6271 5.99855 11.743 6.063C11.8589 6.12745 11.9445 6.2353 11.9808 6.36282C12.0172 6.49035 12.0014 6.6271 11.937 6.743C11.7714 7.04624 11.5276 7.29958 11.2309 7.47667C10.9342 7.65377 10.5955 7.74815 10.25 7.75C9.52 7.75 8.894 7.338 8.563 6.743C8.53109 6.68561 8.51079 6.6225 8.50327 6.55727C8.49574 6.49204 8.50115 6.42596 8.51916 6.36282C8.53718 6.29967 8.56745 6.2407 8.60826 6.18925C8.64907 6.13781 8.69961 6.09491 8.757 6.063Z"/> </g> <defs> <clipPath id="clip0_34_3797"> <rect width="16" height="16"/> </clipPath> </defs> </svg>