<svg width="16" height="16" viewBox="0 0 16 16" fill="none" xmlns="http://www.w3.org/2000/svg">
<g clip-path="url(#clip0_34_3830)">
<path d="M4 0C3.46957 0 2.96086 0.210714 2.58579 0.585786C2.21071 0.960859 2 1.46957 2 2V3.133L1.059 3.635C0.739081 3.80558 0.471548 4.05992 0.285014 4.37081C0.0984807 4.6817 -3.62467e-05 5.03744 1.00039e-08 5.4V14C1.00039e-08 14.5304 0.210714 15.0391 0.585786 15.4142C0.960859 15.7893 1.46957 16 2 16H14C14.5304 16 15.0391 15.7893 15.4142 15.4142C15.7893 15.0391 16 14.5304 16 14V5.4C16 5.03744 15.9015 4.6817 15.715 4.37081C15.5285 4.05992 15.2609 3.80558 14.941 3.635L14 3.133V2C14 1.46957 13.7893 0.960859 13.4142 0.585786C13.0391 0.210714 12.5304 0 12 0L4 0ZM14 4.267L14.47 4.517C14.6301 4.60226 14.764 4.72948 14.8574 4.88503C14.9508 5.04057 15.0001 5.21859 15 5.4V6.217L14 6.817V4.267ZM13 7.417L9.25 9.667L8 8.917L6.75 9.667L3 7.417V2C3 1.73478 3.10536 1.48043 3.29289 1.29289C3.48043 1.10536 3.73478 1 4 1H12C12.2652 1 12.5196 1.10536 12.7071 1.29289C12.8946 1.48043 13 1.73478 13 2V7.417ZM2 6.817L1 6.217V5.4C1.00012 5.21876 1.0495 5.04095 1.14285 4.8856C1.2362 4.73025 1.37002 4.60318 1.53 4.518L2 4.267V6.817ZM15 7.383V13.117L10.222 10.25L15 7.383ZM14.965 14.263C14.9073 14.4747 14.7816 14.6615 14.6072 14.7947C14.4328 14.9279 14.2194 15 14 15H2C1.78044 15 1.56699 14.9277 1.39259 14.7943C1.21818 14.661 1.09252 14.4739 1.035 14.262L8 10.083L14.965 14.263ZM1 13.116V7.383L5.778 10.25L1 13.117V13.116Z" fill="black"/>
</g>
<defs>
<clipPath id="clip0_34_3830">
<rect width="16" height="16" fill="white"/>
</clipPath>
</defs>
</svg>
