<svg width="16" height="16" viewBox="0 0 16 16" xmlns="http://www.w3.org/2000/svg"> <g clip-path="url(#clip0_34_3822)"> <path d="M8.47 1.31791C8.32532 1.24087 8.16392 1.20057 8 1.20057C7.83608 1.20057 7.67468 1.24087 7.53 1.31791L1.53 4.51791C1.37002 4.60309 1.2362 4.73015 1.14285 4.88551C1.0495 5.04086 1.00012 5.21866 1 5.39991V6.21691L6.75 9.66691L8 8.91691L9.25 9.66691L15 6.21691V5.39991C14.9999 5.21866 14.9505 5.04086 14.8572 4.88551C14.7638 4.73015 14.63 4.60309 14.47 4.51791L8.47 1.31791ZM15 7.38291L10.222 10.2499L15 13.1169V7.38291ZM14.965 14.2629L8 10.0819L1.035 14.2619C1.09252 14.4738 1.21818 14.6609 1.39259 14.7942C1.56699 14.9276 1.78044 14.9999 2 14.9999H14C14.2196 14.9999 14.433 14.9276 14.6074 14.7942C14.7818 14.6609 14.9075 14.4738 14.965 14.2619V14.2629ZM1 13.1159L5.778 10.2489L1 7.38291V13.1169V13.1159ZM7.059 0.434907C7.34862 0.280482 7.67179 0.199707 8 0.199707C8.32821 0.199707 8.65138 0.280482 8.941 0.434907L14.941 3.63491C15.2609 3.80549 15.5285 4.05983 15.715 4.37072C15.9015 4.6816 16 5.03735 16 5.39991V13.9999C16 14.5303 15.7893 15.039 15.4142 15.4141C15.0391 15.7892 14.5304 15.9999 14 15.9999H2C1.46957 15.9999 0.960859 15.7892 0.585786 15.4141C0.210714 15.039 1.00039e-08 14.5303 1.00039e-08 13.9999V5.39991C-3.62467e-05 5.03735 0.0984807 4.6816 0.285014 4.37072C0.471548 4.05983 0.739081 3.80549 1.059 3.63491L7.059 0.434907Z"/> </g> <defs> <clipPath id="clip0_34_3822"> <rect width="16" height="16"/> </clipPath> </defs> </svg>