<svg width="16" height="16" viewBox="0 0 16 16" fill="none" xmlns="http://www.w3.org/2000/svg">
<path d="M0.752922 2.43631C0.398655 2.71881 0.150818 3.11324 0.05 3.555L8 8.414L15.95 3.555C15.8492 3.11324 15.6013 2.71881 15.2471 2.43631C14.8928 2.1538 14.4531 1.99997 14 2H2C1.54688 1.99997 1.10719 2.1538 0.752922 2.43631Z" fill="#212529"/>
<path d="M0 11.801V4.697L5.803 8.243L0 11.801Z" fill="#212529"/>
<path d="M0.191 12.856L6.761 8.83L8 9.586L9.239 8.829L9.606 9.054C9.10252 9.47594 8.69776 10.0032 8.42027 10.5986C8.14278 11.194 7.99931 11.8431 8 12.5C7.99943 13.0109 8.086 13.5182 8.256 14H2C1.62107 14.0003 1.24985 13.8929 0.929588 13.6904C0.609322 13.4878 0.353183 13.1985 0.191 12.856Z" fill="#212529"/>
<path d="M16 9.671V4.697L10.197 8.243L10.535 8.45C11.1474 8.153 11.8194 7.99912 12.5 8C13.1712 7.99929 13.834 8.14903 14.4397 8.4382C15.0454 8.72738 15.5785 9.14863 16 9.671Z" fill="#212529"/>
<path fill-rule="evenodd" clip-rule="evenodd" d="M14.9749 14.9749C15.6313 14.3185 16 13.4283 16 12.5C16 11.5717 15.6313 10.6815 14.9749 10.0251C14.3185 9.36875 13.4283 9 12.5 9C11.5717 9 10.6815 9.36875 10.0251 10.0251C9.36875 10.6815 9 11.5717 9 12.5C9 13.4283 9.36875 14.3185 10.0251 14.9749C10.6815 15.6313 11.5717 16 12.5 16C13.4283 16 14.3185 15.6313 14.9749 14.9749ZM13.8233 10.7553C13.8882 10.7649 13.9507 10.7872 14.007 10.821C14.0633 10.8547 14.1125 10.8993 14.1516 10.952C14.1908 11.0047 14.2191 11.0647 14.2351 11.1284C14.2511 11.1921 14.2543 11.2583 14.2447 11.3233C14.2351 11.3882 14.2128 11.4507 14.179 11.507L12.844 13.733C12.7853 13.8308 12.7051 13.9139 12.6095 13.9761C12.5139 14.0382 12.4053 14.0777 12.2922 14.0916C12.179 14.1055 12.0641 14.0934 11.9563 14.0562C11.8485 14.019 11.7506 13.9577 11.67 13.877L10.896 13.104C10.8021 13.0101 10.7494 12.8828 10.7494 12.75C10.7494 12.6172 10.8021 12.4899 10.896 12.396C10.9899 12.3021 11.1172 12.2494 11.25 12.2494C11.3828 12.2494 11.5101 12.3021 11.604 12.396L12.151 12.943L13.321 10.993C13.3547 10.9367 13.3993 10.8875 13.452 10.8484C13.5047 10.8092 13.5647 10.7809 13.6284 10.7649C13.6921 10.7489 13.7583 10.7457 13.8233 10.7553Z" fill="#212529"/>
</svg>
