<svg width="16" height="16" viewBox="0 0 16 16" xmlns="http://www.w3.org/2000/svg"> <path fill-rule="evenodd" clip-rule="evenodd" d="M0.585786 2.58579C0.960859 2.21071 1.46957 2 2 2H14C14.5304 2 15.0391 2.21071 15.4142 2.58579C15.7893 2.96086 16 3.46957 16 4V8.5C16 8.63261 15.9473 8.75979 15.8536 8.85355C15.7598 8.94732 15.6326 9 15.5 9C15.3674 9 15.2402 8.94732 15.1464 8.85355C15.0527 8.75979 15 8.63261 15 8.5V5.383L8 9.583L6.674 8.788L1.034 12.259C1.09101 12.4716 1.21658 12.6595 1.39124 12.7934C1.5659 12.9274 1.77988 13 2 13H7.5C7.63261 13 7.75979 13.0527 7.85355 13.1464C7.94732 13.2402 8 13.3674 8 13.5C8 13.6326 7.94732 13.7598 7.85355 13.8536C7.75979 13.9473 7.63261 14 7.5 14H2C1.4713 14 0.964097 13.7907 0.58931 13.4178C0.214524 13.0448 0.00264352 12.5387 0 12.01V4C0 3.46957 0.210714 2.96086 0.585786 2.58579ZM1 11.105L5.708 8.208L1 5.383V11.105ZM1 4V4.217L8 8.417L15 4.217V4C15 3.73478 14.8946 3.48043 14.7071 3.29289C14.5196 3.10536 14.2652 3 14 3H2C1.73478 3 1.48043 3.10536 1.29289 3.29289C1.10536 3.48043 1 3.73478 1 4Z"/> <path fill-rule="evenodd" clip-rule="evenodd" d="M14.9749 14.9749C15.6313 14.3185 16 13.4283 16 12.5C16 11.5717 15.6313 10.6815 14.9749 10.0251C14.3185 9.36875 13.4283 9 12.5 9C11.5717 9 10.6815 9.36875 10.0251 10.0251C9.36875 10.6815 9 11.5717 9 12.5C9 13.4283 9.36875 14.3185 10.0251 14.9749C10.6815 15.6313 11.5717 16 12.5 16C13.4283 16 14.3185 15.6313 14.9749 14.9749ZM10.6464 12.8536C10.5527 12.7598 10.5 12.6326 10.5 12.5C10.5 12.3674 10.5527 12.2402 10.6464 12.1464C10.7402 12.0527 10.8674 12 11 12H14C14.1326 12 14.2598 12.0527 14.3536 12.1464C14.4473 12.2402 14.5 12.3674 14.5 12.5C14.5 12.6326 14.4473 12.7598 14.3536 12.8536C14.2598 12.9473 14.1326 13 14 13H11C10.8674 13 10.7402 12.9473 10.6464 12.8536Z"/> </svg>