<svg width="16" height="16" viewBox="0 0 16 16" xmlns="http://www.w3.org/2000/svg"> <path d="M0.752922 2.43631C0.398655 2.71881 0.150818 3.11324 0.05 3.555L8 8.414L15.95 3.555C15.8492 3.11324 15.6013 2.71881 15.2471 2.43631C14.8928 2.1538 14.4531 1.99997 14 2H2C1.54688 1.99997 1.10719 2.1538 0.752922 2.43631Z"/> <path d="M0 11.801V4.697L5.803 8.243L0 11.801Z"/> <path d="M0.191 12.856L6.761 8.83L8 9.586L9.239 8.829L9.606 9.054C9.10252 9.47594 8.69776 10.0032 8.42027 10.5986C8.14278 11.194 7.99931 11.8431 8 12.5C7.99943 13.0109 8.086 13.5182 8.256 14H2C1.62107 14.0003 1.24985 13.8929 0.929588 13.6904C0.609322 13.4878 0.353183 13.1985 0.191 12.856Z"/> <path d="M16 9.671V4.697L10.197 8.243L10.535 8.45C11.1474 8.153 11.8194 7.99912 12.5 8C13.1712 7.99929 13.834 8.14903 14.4397 8.4382C15.0454 8.72738 15.5785 9.14863 16 9.671Z"/> <path fill-rule="evenodd" clip-rule="evenodd" d="M14.9749 14.9749C15.6313 14.3185 16 13.4283 16 12.5C16 11.5717 15.6313 10.6815 14.9749 10.0251C14.3185 9.36875 13.4283 9 12.5 9C11.5717 9 10.6815 9.36875 10.0251 10.0251C9.36875 10.6815 9 11.5717 9 12.5C9 13.4283 9.36875 14.3185 10.0251 14.9749C10.6815 15.6313 11.5717 16 12.5 16C13.4283 16 14.3185 15.6313 14.9749 14.9749ZM11.0373 11.3084C11.0625 11.2476 11.0994 11.1924 11.146 11.146C11.1924 11.0994 11.2476 11.0625 11.3084 11.0373C11.3691 11.0121 11.4342 10.9991 11.5 10.9991C11.5658 10.9991 11.6309 11.0121 11.6916 11.0373C11.7524 11.0625 11.8076 11.0994 11.854 11.146L12.5 11.793L13.146 11.146C13.2399 11.0521 13.3672 10.9994 13.5 10.9994C13.6328 10.9994 13.7601 11.0521 13.854 11.146C13.9479 11.2399 14.0006 11.3672 14.0006 11.5C14.0006 11.6328 13.9479 11.7601 13.854 11.854L13.207 12.5L13.854 13.146C13.9479 13.2399 14.0006 13.3672 14.0006 13.5C14.0006 13.6328 13.9479 13.7601 13.854 13.854C13.7601 13.9479 13.6328 14.0006 13.5 14.0006C13.3672 14.0006 13.2399 13.9479 13.146 13.854L12.5 13.207L11.854 13.854C11.7601 13.9479 11.6328 14.0006 11.5 14.0006C11.3672 14.0006 11.2399 13.9479 11.146 13.854C11.0521 13.7601 10.9994 13.6328 10.9994 13.5C10.9994 13.3672 11.0521 13.2399 11.146 13.146L11.793 12.5L11.146 11.854C11.0994 11.8076 11.0625 11.7524 11.0373 11.6916C11.0121 11.6309 10.9991 11.5658 10.9991 11.5C10.9991 11.4342 11.0121 11.3691 11.0373 11.3084Z"/> </svg>