<svg width="16" height="16" viewBox="0 0 16 16" fill="none" xmlns="http://www.w3.org/2000/svg">
<path fill-rule="evenodd" clip-rule="evenodd" d="M0 4C0 3.46957 0.210714 2.96086 0.585786 2.58579C0.960859 2.21071 1.46957 2 2 2H14C14.5304 2 15.0391 2.21071 15.4142 2.58579C15.7893 2.96086 16 3.46957 16 4V12C16 12.5304 15.7893 13.0391 15.4142 13.4142C15.0391 13.7893 14.5304 14 14 14H2C1.46957 14 0.960859 13.7893 0.585786 13.4142C0.210714 13.0391 0 12.5304 0 12V4ZM2 3C1.73478 3 1.48043 3.10536 1.29289 3.29289C1.10536 3.48043 1 3.73478 1 4V4.217L4.235 6.157C4.09214 6.48121 4.01303 6.82989 4.002 7.184L1 5.384V11.105L4.453 8.981C4.599 9.258 4.782 9.537 5.003 9.816L1.033 12.259C1.09006 12.4718 1.21578 12.6598 1.39064 12.7938C1.56549 12.9277 1.77971 13.0002 2 13H14C14.2201 13 14.4341 12.9274 14.6088 12.7934C14.7834 12.6595 14.909 12.4716 14.966 12.259L10.998 9.817C11.218 9.537 11.401 9.257 11.548 8.981L15 11.105V5.383L11.998 7.184C11.9868 6.83022 11.9077 6.4819 11.765 6.158L15 4.217V4C15 3.73478 14.8946 3.48043 14.7071 3.29289C14.5196 3.10536 14.2652 3 14 3H2ZM8 5.993C9.664 4.282 13.825 7.276 8 11.125C2.175 7.275 6.336 4.282 8 5.993Z" fill="black"/>
</svg>
