<svg width="16" height="16" viewBox="0 0 16 16" xmlns="http://www.w3.org/2000/svg"> <g clip-path="url(#clip0_34_3844)"> <path d="M0.752922 2.43631C0.398655 2.71881 0.150818 3.11324 0.05 3.555L8 8.414L15.95 3.555C15.8492 3.11324 15.6013 2.71881 15.2471 2.43631C14.8928 2.1538 14.4531 1.99997 14 2H2C1.54688 1.99997 1.10719 2.1538 0.752922 2.43631Z"/> <path d="M0 11.801V4.697L5.803 8.243L0 11.801Z"/> <path d="M0.191 12.856L6.761 8.83L8 9.586L9.239 8.829L9.606 9.054C9.10252 9.47594 8.69776 10.0032 8.42027 10.5986C8.14278 11.194 7.99931 11.8431 8 12.5C7.99943 13.0109 8.086 13.5182 8.256 14H2C1.62107 14.0003 1.24985 13.8929 0.929588 13.6904C0.609322 13.4878 0.353183 13.1985 0.191 12.856Z"/> <path d="M16 9.671V4.697L10.197 8.243L10.535 8.45C11.1474 8.153 11.8194 7.99912 12.5 8C13.1712 7.99929 13.834 8.14903 14.4397 8.4382C15.0454 8.72738 15.5785 9.14863 16 9.671Z"/> <path fill-rule="evenodd" clip-rule="evenodd" d="M13.8395 9.26631C14.2641 9.44221 14.65 9.70003 14.975 10.0251C15.6314 10.6815 16.0002 11.5718 16.0002 12.5001C16.0002 13.4284 15.6314 14.3186 14.975 14.9751C14.3186 15.6315 13.4283 16.0002 12.5 16.0002C11.5717 16.0002 10.6814 15.6315 10.025 14.9751C9.69997 14.65 9.44215 14.2642 9.26625 13.8395C9.09035 13.4149 8.99982 12.9597 8.99982 12.5001C8.99982 12.0404 9.09035 11.5853 9.26625 11.1606C9.44215 10.7359 9.69997 10.3501 10.025 10.0251C10.35 9.70003 10.7359 9.44221 11.1605 9.26631C11.5852 9.09041 12.0403 8.99988 12.5 8.99988C12.9596 8.99988 13.4148 9.09041 13.8395 9.26631ZM12.2488 10.0124C11.6754 10.0703 11.1396 10.3246 10.732 10.7321C10.3245 11.1396 10.0703 11.6755 10.0123 12.2489C9.95438 12.8223 10.0963 13.3982 10.414 13.8791L13.879 10.4141C13.3981 10.0963 12.8223 9.95444 12.2488 10.0124ZM14.586 11.1211L11.122 14.5861C11.6029 14.9034 12.1776 15.045 12.7508 14.9869C13.3241 14.9288 13.8597 14.6746 14.2671 14.2671C14.6745 13.8597 14.9288 13.3241 14.9869 12.7509C15.045 12.1777 14.9034 11.6019 14.586 11.1211Z"/> </g> <defs> <clipPath id="clip0_34_3844"> <rect width="16" height="16"/> </clipPath> </defs> </svg>