<svg width="16" height="16" viewBox="0 0 16 16" fill="none" xmlns="http://www.w3.org/2000/svg">
<g clip-path="url(#clip0_34_3824)">
<path d="M8.941 0.434907C8.65138 0.280482 8.32821 0.199707 8 0.199707C7.67179 0.199707 7.34862 0.280482 7.059 0.434907L1.059 3.63491C0.739081 3.80549 0.471548 4.05983 0.285014 4.37072C0.0984807 4.6816 -3.62467e-05 5.03735 1.00039e-08 5.39991V5.71391L6.709 9.64591L8 8.92791L9.291 9.64591L16 5.71391V5.39991C16 5.03735 15.9015 4.6816 15.715 4.37072C15.5285 4.05983 15.2609 3.80549 14.941 3.63491L8.941 0.434907ZM16 6.87291L10.307 10.2099L16 13.3719V6.87191V6.87291ZM15.941 14.4839L8 10.0719L0.059 14.4839C0.167004 14.9169 0.416741 15.3014 0.768469 15.5761C1.1202 15.8508 1.5537 16 2 15.9999H14C14.4463 16 14.8798 15.8508 15.2315 15.5761C15.5833 15.3014 15.833 14.9169 15.941 14.4839ZM1.00039e-08 13.3729L5.693 10.2099L1.00039e-08 6.87291V13.3729Z" fill="#212529"/>
</g>
<defs>
<clipPath id="clip0_34_3824">
<rect width="16" height="16" fill="white"/>
</clipPath>
</defs>
</svg>
