<svg width="16" height="16" viewBox="0 0 16 16" xmlns="http://www.w3.org/2000/svg"> <g clip-path="url(#clip0_34_3832)"> <path fill-rule="evenodd" clip-rule="evenodd" d="M6.5 9.5L3 7.5V1.5C3 1.10218 3.15804 0.720644 3.43934 0.43934C3.72064 0.158035 4.10218 0 4.5 0L11.5 0C11.8978 0 12.2794 0.158035 12.5607 0.43934C12.842 0.720644 13 1.10218 13 1.5V7.5L9.5 9.5L8 8.75L6.5 9.5ZM1.059 3.635L2 3.133V6.886L1.00039e-08 5.713V5.4C-3.62467e-05 5.03744 0.0984807 4.6817 0.285014 4.37081C0.471548 4.05992 0.739081 3.80558 1.059 3.635ZM16 5.713L14 6.886V3.133L14.941 3.635C15.2609 3.80558 15.5285 4.05992 15.715 4.37081C15.9015 4.6817 16 5.03744 16 5.4V5.713ZM16 6.873L10.307 10.21L16 13.372V6.872V6.873ZM8 10.072L15.941 14.484C15.833 14.917 15.5833 15.3015 15.2315 15.5762C14.8798 15.8509 14.4463 16.0001 14 16H2C1.5537 16.0001 1.1202 15.8509 0.768469 15.5762C0.416741 15.3015 0.167004 14.917 0.059 14.484L8 10.072ZM1.00039e-08 13.372L5.693 10.21L1.00039e-08 6.873V13.373V13.372Z"/> </g> <defs> <clipPath id="clip0_34_3832"> <rect width="16" height="16"/> </clipPath> </defs> </svg>