<svg width="16" height="16" viewBox="0 0 16 16" xmlns="http://www.w3.org/2000/svg"> <path fill-rule="evenodd" clip-rule="evenodd" d="M0.585786 2.58579C0.960859 2.21071 1.46957 2 2 2H14C14.5304 2 15.0391 2.21071 15.4142 2.58579C15.7893 2.96086 16 3.46957 16 4V8.5C16 8.63261 15.9473 8.75979 15.8536 8.85355C15.7598 8.94732 15.6326 9 15.5 9C15.3674 9 15.2402 8.94732 15.1464 8.85355C15.0527 8.75979 15 8.63261 15 8.5V5.383L8 9.583L6.674 8.788L1.034 12.259C1.09101 12.4716 1.21658 12.6595 1.39124 12.7934C1.5659 12.9274 1.77988 13 2 13H7.5C7.63261 13 7.75979 13.0527 7.85355 13.1464C7.94732 13.2402 8 13.3674 8 13.5C8 13.6326 7.94732 13.7598 7.85355 13.8536C7.75979 13.9473 7.63261 14 7.5 14H2C1.4713 14 0.964097 13.7907 0.58931 13.4178C0.214524 13.0448 0.00264352 12.5387 0 12.01V4C0 3.46957 0.210714 2.96086 0.585786 2.58579ZM1 11.105L5.708 8.208L1 5.383V11.105ZM1 4V4.217L8 8.417L15 4.217V4C15 3.73478 14.8946 3.48043 14.7071 3.29289C14.5196 3.10536 14.2652 3 14 3H2C1.73478 3 1.48043 3.10536 1.29289 3.29289C1.10536 3.48043 1 3.73478 1 4Z"/> <path fill-rule="evenodd" clip-rule="evenodd" d="M14.9749 14.9749C15.6313 14.3185 16 13.4283 16 12.5C16 11.5717 15.6313 10.6815 14.9749 10.0251C14.3185 9.36875 13.4283 9 12.5 9C11.5717 9 10.6815 9.36875 10.0251 10.0251C9.36875 10.6815 9 11.5717 9 12.5C9 13.4283 9.36875 14.3185 10.0251 14.9749C10.6815 15.6313 11.5717 16 12.5 16C13.4283 16 14.3185 15.6313 14.9749 14.9749ZM13.8233 10.7553C13.8882 10.7649 13.9507 10.7872 14.007 10.821C14.0633 10.8547 14.1125 10.8993 14.1516 10.952C14.1908 11.0047 14.2191 11.0647 14.2351 11.1284C14.2511 11.1921 14.2543 11.2583 14.2447 11.3233C14.2351 11.3882 14.2128 11.4507 14.179 11.507L12.844 13.733C12.7853 13.8308 12.7051 13.9139 12.6095 13.9761C12.5139 14.0382 12.4053 14.0777 12.2922 14.0916C12.179 14.1055 12.0641 14.0934 11.9563 14.0562C11.8485 14.019 11.7506 13.9577 11.67 13.877L10.896 13.104C10.8021 13.0101 10.7494 12.8828 10.7494 12.75C10.7494 12.6172 10.8021 12.4899 10.896 12.396C10.9899 12.3021 11.1172 12.2494 11.25 12.2494C11.3828 12.2494 11.5101 12.3021 11.604 12.396L12.151 12.943L13.321 10.993C13.3547 10.9367 13.3993 10.8875 13.452 10.8484C13.5047 10.8092 13.5647 10.7809 13.6284 10.7649C13.6921 10.7489 13.7583 10.7457 13.8233 10.7553Z"/> </svg>