<svg width="16" height="16" viewBox="0 0 16 16" fill="none" xmlns="http://www.w3.org/2000/svg">
<path d="M0.05 3.555C0.150818 3.11324 0.398655 2.71881 0.752922 2.43631C1.10719 2.1538 1.54688 1.99997 2 2H14C14.4531 1.99997 14.8928 2.1538 15.2471 2.43631C15.6013 2.71881 15.8492 3.11324 15.95 3.555L8 8.414L0.05 3.555ZM0 4.697V11.801L5.803 8.243L0 4.697ZM6.761 8.83L0.191 12.856C0.353183 13.1985 0.609322 13.4878 0.929588 13.6904C1.24985 13.8929 1.62107 14.0003 2 14H8.256C8.086 13.5182 7.99943 13.0109 8 12.5C7.99931 11.8431 8.14278 11.194 8.42027 10.5986C8.69776 10.0032 9.10252 9.47594 9.606 9.054L9.239 8.829L8 9.586L6.761 8.829V8.83ZM16 4.697V9.671C15.5785 9.14863 15.0454 8.72738 14.4397 8.4382C13.834 8.14903 13.1712 7.99929 12.5 8C11.8194 7.99912 11.1474 8.153 10.535 8.45L10.197 8.243L16 4.697Z" fill="#212529"/>
<path d="M12.5 16C13.4283 16 14.3185 15.6313 14.9749 14.9749C15.6313 14.3185 16 13.4283 16 12.5C16 11.5717 15.6313 10.6815 14.9749 10.0251C14.3185 9.36875 13.4283 9 12.5 9C11.5717 9 10.6815 9.36875 10.0251 10.0251C9.36875 10.6815 9 11.5717 9 12.5C9 13.4283 9.36875 14.3185 10.0251 14.9749C10.6815 15.6313 11.5717 16 12.5 16ZM13 11V12.5C13 12.6326 12.9473 12.7598 12.8536 12.8536C12.7598 12.9473 12.6326 13 12.5 13C12.3674 13 12.2402 12.9473 12.1464 12.8536C12.0527 12.7598 12 12.6326 12 12.5V11C12 10.8674 12.0527 10.7402 12.1464 10.6464C12.2402 10.5527 12.3674 10.5 12.5 10.5C12.6326 10.5 12.7598 10.5527 12.8536 10.6464C12.9473 10.7402 13 10.8674 13 11ZM13 14C13 14.1326 12.9473 14.2598 12.8536 14.3536C12.7598 14.4473 12.6326 14.5 12.5 14.5C12.3674 14.5 12.2402 14.4473 12.1464 14.3536C12.0527 14.2598 12 14.1326 12 14C12 13.8674 12.0527 13.7402 12.1464 13.6464C12.2402 13.5527 12.3674 13.5 12.5 13.5C12.6326 13.5 12.7598 13.5527 12.8536 13.6464C12.9473 13.7402 13 13.8674 13 14Z" fill="#212529"/>
</svg>
