<svg width="16" height="16" viewBox="0 0 16 16" xmlns="http://www.w3.org/2000/svg"> <g clip-path="url(#clip0_34_3826)"> <path fill-rule="evenodd" clip-rule="evenodd" d="M8.47 1.31791C8.32532 1.24087 8.16392 1.20057 8 1.20057C7.83608 1.20057 7.67468 1.24087 7.53 1.31791L1.53 4.51791C1.37002 4.60309 1.2362 4.73015 1.14285 4.88551C1.0495 5.04086 1.00012 5.21866 1 5.39991V6.21691L4.235 8.15691C4.09214 8.48111 4.01303 8.82979 4.002 9.18391L1 7.38391V13.1169L4.479 11.0299C4.629 11.3049 4.814 11.5829 5.037 11.8599L1.035 14.2619C1.09252 14.4738 1.21818 14.6609 1.39259 14.7942C1.56699 14.9276 1.78044 14.9999 2 14.9999H14C14.2196 14.9999 14.433 14.9276 14.6074 14.7942C14.7818 14.6609 14.9075 14.4738 14.965 14.2619L10.963 11.8609C11.186 11.5829 11.371 11.3049 11.521 11.0299L15 13.1169V7.38291L11.998 9.18391C11.9868 8.83013 11.9077 8.4818 11.765 8.15791L15 6.21691V5.39991C14.9999 5.21866 14.9505 5.04086 14.8572 4.88551C14.7638 4.73015 14.63 4.60309 14.47 4.51791L8.47 1.31791ZM7.06 0.434907C7.34962 0.280482 7.67279 0.199707 8.001 0.199707C8.32921 0.199707 8.65238 0.280482 8.942 0.434907L14.942 3.63491C15.2617 3.80562 15.5291 4.06002 15.7154 4.3709C15.9018 4.68178 16.0001 5.03745 16 5.39991V13.9999C16 14.5303 15.7893 15.039 15.4142 15.4141C15.0391 15.7892 14.5304 15.9999 14 15.9999H2C1.46957 15.9999 0.960859 15.7892 0.585786 15.4141C0.210714 15.039 1.00039e-08 14.5303 1.00039e-08 13.9999V5.39991C-3.62467e-05 5.03735 0.0984807 4.6816 0.285014 4.37072C0.471548 4.05983 0.739081 3.80549 1.059 3.63491L7.059 0.434907H7.06ZM8 7.99291C9.664 6.28191 13.825 9.27591 8 13.1249C2.175 9.27491 6.336 6.28191 8 7.99291Z"/> </g> <defs> <clipPath id="clip0_34_3826"> <rect width="16" height="16"/> </clipPath> </defs> </svg>