<svg width="16" height="16" viewBox="0 0 16 16" xmlns="http://www.w3.org/2000/svg"> <g clip-path="url(#clip0_34_3842)"> <path fill-rule="evenodd" clip-rule="evenodd" d="M0.585786 2.58579C0.960859 2.21071 1.46957 2 2 2H14C14.5304 2 15.0391 2.21071 15.4142 2.58579C15.7893 2.96086 16 3.46957 16 4V8.5C16 8.63261 15.9473 8.75979 15.8536 8.85355C15.7598 8.94732 15.6326 9 15.5 9C15.3674 9 15.2402 8.94732 15.1464 8.85355C15.0527 8.75979 15 8.63261 15 8.5V5.383L8 9.583L6.674 8.788L1.034 12.259C1.09101 12.4716 1.21658 12.6595 1.39124 12.7934C1.5659 12.9274 1.77988 13 2 13H7.5C7.63261 13 7.75979 13.0527 7.85355 13.1464C7.94732 13.2402 8 13.3674 8 13.5C8 13.6326 7.94732 13.7598 7.85355 13.8536C7.75979 13.9473 7.63261 14 7.5 14H2C1.4713 14 0.964097 13.7907 0.58931 13.4178C0.214524 13.0448 0.00264352 12.5387 0 12.01V4C0 3.46957 0.210714 2.96086 0.585786 2.58579ZM1 11.105L5.708 8.208L1 5.383V11.105ZM1 4V4.217L8 8.417L15 4.217V4C15 3.73478 14.8946 3.48043 14.7071 3.29289C14.5196 3.10536 14.2652 3 14 3H2C1.73478 3 1.48043 3.10536 1.29289 3.29289C1.10536 3.48043 1 3.73478 1 4Z"/> <path fill-rule="evenodd" clip-rule="evenodd" d="M13.8395 9.26631C14.2641 9.44221 14.65 9.70003 14.975 10.0251C15.6314 10.6815 16.0002 11.5718 16.0002 12.5001C16.0002 13.4284 15.6314 14.3186 14.975 14.9751C14.3186 15.6315 13.4283 16.0002 12.5 16.0002C11.5717 16.0002 10.6814 15.6315 10.025 14.9751C9.69997 14.65 9.44215 14.2642 9.26625 13.8395C9.09035 13.4149 8.99982 12.9597 8.99982 12.5001C8.99982 12.0404 9.09035 11.5853 9.26625 11.1606C9.44215 10.7359 9.69997 10.3501 10.025 10.0251C10.35 9.70003 10.7359 9.44221 11.1605 9.26631C11.5852 9.09041 12.0403 8.99988 12.5 8.99988C12.9596 8.99988 13.4148 9.09041 13.8395 9.26631ZM12.2488 10.0124C11.6754 10.0703 11.1396 10.3246 10.732 10.7321C10.3245 11.1396 10.0703 11.6755 10.0123 12.2489C9.95438 12.8223 10.0963 13.3982 10.414 13.8791L13.879 10.4141C13.3981 10.0963 12.8223 9.95444 12.2488 10.0124ZM14.586 11.1211L11.122 14.5861C11.6029 14.9034 12.1776 15.045 12.7508 14.9869C13.3241 14.9288 13.8597 14.6746 14.2671 14.2671C14.6745 13.8597 14.9288 13.3241 14.9869 12.7509C15.045 12.1777 14.9034 11.6019 14.586 11.1211Z"/> </g> <defs> <clipPath id="clip0_34_3842"> <rect width="16" height="16"/> </clipPath> </defs> </svg>