<svg width="16" height="16" viewBox="0 0 16 16" xmlns="http://www.w3.org/2000/svg"> <path d="M7.00195 11.0001C7.00195 10.8688 7.02782 10.7388 7.07807 10.6174C7.12833 10.4961 7.20199 10.3859 7.29485 10.293C7.38771 10.2002 7.49794 10.1265 7.61927 10.0762C7.7406 10.026 7.87063 10.0001 8.00195 10.0001C8.13328 10.0001 8.26331 10.026 8.38464 10.0762C8.50596 10.1265 8.6162 10.2002 8.70906 10.293C8.80192 10.3859 8.87558 10.4961 8.92583 10.6174C8.97609 10.7388 9.00195 10.8688 9.00195 11.0001C9.00195 11.2653 8.8966 11.5197 8.70906 11.7072C8.52152 11.8948 8.26717 12.0001 8.00195 12.0001C7.73674 12.0001 7.48238 11.8948 7.29485 11.7072C7.10731 11.5197 7.00195 11.2653 7.00195 11.0001ZM7.09995 4.99512C7.08664 4.86896 7.09999 4.74141 7.13915 4.62075C7.17831 4.50008 7.24241 4.389 7.32727 4.2947C7.41214 4.20041 7.51588 4.12501 7.63176 4.0734C7.74765 4.02179 7.87309 3.99512 7.99995 3.99512C8.12681 3.99512 8.25226 4.02179 8.36814 4.0734C8.48403 4.12501 8.58777 4.20041 8.67263 4.2947C8.7575 4.389 8.82159 4.50008 8.86075 4.62075C8.89991 4.74141 8.91327 4.86896 8.89995 4.99512L8.54995 8.50212C8.53573 8.63808 8.47166 8.76396 8.37009 8.85546C8.26852 8.94696 8.13666 8.99759 7.99995 8.99759C7.86325 8.99759 7.73139 8.94696 7.62982 8.85546C7.52825 8.76396 7.46417 8.63808 7.44995 8.50212L7.09995 4.99512Z"/> </svg>