<svg width="16" height="16" viewBox="0 0 16 16" xmlns="http://www.w3.org/2000/svg"> <g clip-path="url(#clip0_34_3866)"> <path d="M6.95014 0.435C7.53014 -0.145 8.47014 -0.145 9.05014 0.435L15.5651 6.951C16.1451 7.531 16.1451 8.47 15.5651 9.049L9.05014 15.565C8.47014 16.145 7.53114 16.145 6.95214 15.565L0.435137 9.05C0.2972 8.91234 0.187766 8.74884 0.1131 8.56883C0.0384333 8.38883 0 8.19587 0 8.001C0 7.80613 0.0384333 7.61317 0.1131 7.43317C0.187766 7.25316 0.2972 7.08966 0.435137 6.952L6.95014 0.435ZM8.35014 1.135C8.25731 1.04218 8.13141 0.990036 8.00014 0.990036C7.86886 0.990036 7.74297 1.04218 7.65014 1.135L1.13414 7.65C1.04132 7.74283 0.989172 7.86873 0.989172 8C0.989172 8.13127 1.04132 8.25717 1.13414 8.35L7.65014 14.866C7.74297 14.9588 7.86886 15.011 8.00014 15.011C8.13141 15.011 8.25731 14.9588 8.35014 14.866L14.8661 8.35C14.959 8.25717 15.0111 8.13127 15.0111 8C15.0111 7.86873 14.959 7.74283 14.8661 7.65L8.35014 1.134V1.135Z"/> <path d="M7.00214 11C7.00214 10.8687 7.028 10.7386 7.07826 10.6173C7.12851 10.496 7.20217 10.3858 7.29503 10.2929C7.38789 10.2 7.49813 10.1264 7.61945 10.0761C7.74078 10.0259 7.87081 10 8.00214 10C8.13346 10 8.26349 10.0259 8.38482 10.0761C8.50615 10.1264 8.61638 10.2 8.70924 10.2929C8.8021 10.3858 8.87576 10.496 8.92602 10.6173C8.97627 10.7386 9.00214 10.8687 9.00214 11C9.00214 11.2652 8.89678 11.5196 8.70924 11.7071C8.52171 11.8946 8.26735 12 8.00214 12C7.73692 12 7.48257 11.8946 7.29503 11.7071C7.10749 11.5196 7.00214 11.2652 7.00214 11ZM7.10014 4.995C7.08682 4.86884 7.10017 4.74129 7.13934 4.62063C7.1785 4.49996 7.24259 4.38888 7.32746 4.29459C7.41232 4.20029 7.51606 4.12489 7.63195 4.07328C7.74783 4.02167 7.87328 3.995 8.00014 3.995C8.127 3.995 8.25244 4.02167 8.36833 4.07328C8.48421 4.12489 8.58795 4.20029 8.67282 4.29459C8.75768 4.38888 8.82177 4.49996 8.86094 4.62063C8.9001 4.74129 8.91345 4.86884 8.90014 4.995L8.55014 8.502C8.53838 8.63977 8.47534 8.76811 8.37349 8.86164C8.27165 8.95516 8.13841 9.00705 8.00014 9.00705C7.86186 9.00705 7.72863 8.95516 7.62678 8.86164C7.52493 8.76811 7.4619 8.63977 7.45014 8.502L7.10014 4.995Z"/> </g> <defs> <clipPath id="clip0_34_3866"> <rect width="16" height="16"/> </clipPath> </defs> </svg>