<svg width="16" height="16" viewBox="0 0 16 16" fill="none" xmlns="http://www.w3.org/2000/svg">
<g clip-path="url(#clip0_34_3882)">
<path d="M8.98219 1.56595C8.8832 1.39352 8.74047 1.25025 8.5684 1.15062C8.39633 1.051 8.20102 0.998535 8.00219 0.998535C7.80336 0.998535 7.60805 1.051 7.43598 1.15062C7.26391 1.25025 7.12118 1.39352 7.02219 1.56595L0.16519 13.233C-0.29181 14.011 0.25619 15 1.14519 15H14.8582C15.7472 15 16.2962 14.01 15.8382 13.233L8.98219 1.56595ZM8.00019 4.99995C8.53519 4.99995 8.95419 5.46195 8.90019 5.99495L8.55019 9.50195C8.53843 9.63972 8.47539 9.76806 8.37355 9.86159C8.2717 9.95511 8.13846 10.007 8.00019 10.007C7.86192 10.007 7.72868 9.95511 7.62683 9.86159C7.52499 9.76806 7.46195 9.63972 7.45019 9.50195L7.10019 5.99495C7.08762 5.86919 7.10153 5.74218 7.14104 5.62212C7.18054 5.50206 7.24475 5.3916 7.32953 5.29786C7.41432 5.20413 7.5178 5.12919 7.63331 5.07788C7.74882 5.02657 7.8738 5.00002 8.00019 4.99995ZM8.00219 11C8.26741 11 8.52176 11.1053 8.7093 11.2928C8.89683 11.4804 9.00219 11.7347 9.00219 12C9.00219 12.2652 8.89683 12.5195 8.7093 12.7071C8.52176 12.8946 8.26741 13 8.00219 13C7.73697 13 7.48262 12.8946 7.29508 12.7071C7.10755 12.5195 7.00219 12.2652 7.00219 12C7.00219 11.7347 7.10755 11.4804 7.29508 11.2928C7.48262 11.1053 7.73697 11 8.00219 11Z" fill="#212529"/>
</g>
<defs>
<clipPath id="clip0_34_3882">
<rect width="16" height="16" fill="white"/>
</clipPath>
</defs>
</svg>
