<svg width="16" height="16" viewBox="0 0 16 16" xmlns="http://www.w3.org/2000/svg"> <g clip-path="url(#clip0_34_3872)"> <path d="M4.54 0.146C4.63371 0.052531 4.76065 2.8119e-05 4.893 0H11.107C11.2394 2.8119e-05 11.3663 0.052531 11.46 0.146L15.854 4.54C15.9475 4.63371 16 4.76065 16 4.893V11.107C16 11.2394 15.9475 11.3663 15.854 11.46L11.46 15.854C11.3663 15.9475 11.2394 16 11.107 16H4.893C4.76065 16 4.63371 15.9475 4.54 15.854L0.146 11.46C0.052531 11.3663 2.8119e-05 11.2394 0 11.107V4.893C2.8119e-05 4.76065 0.052531 4.63371 0.146 4.54L4.54 0.146ZM5.1 1L1 5.1V10.9L5.1 15H10.9L15 10.9V5.1L10.9 1H5.1Z"/> <path d="M7.002 11C7.002 10.8687 7.02787 10.7386 7.07812 10.6173C7.12838 10.496 7.20203 10.3858 7.29489 10.2929C7.38775 10.2 7.49799 10.1264 7.61932 10.0761C7.74064 10.0259 7.87068 10 8.002 10C8.13332 10 8.26336 10.0259 8.38468 10.0761C8.50601 10.1264 8.61625 10.2 8.70911 10.2929C8.80196 10.3858 8.87562 10.496 8.92588 10.6173C8.97613 10.7386 9.002 10.8687 9.002 11C9.002 11.2652 8.89664 11.5196 8.70911 11.7071C8.52157 11.8946 8.26722 12 8.002 12C7.73678 12 7.48243 11.8946 7.29489 11.7071C7.10736 11.5196 7.002 11.2652 7.002 11ZM7.1 4.995C7.08668 4.86884 7.10004 4.74129 7.1392 4.62063C7.17836 4.49996 7.24245 4.38888 7.32732 4.29459C7.41218 4.20029 7.51592 4.12489 7.63181 4.07328C7.7477 4.02167 7.87314 3.995 8 3.995C8.12686 3.995 8.2523 4.02167 8.36819 4.07328C8.48408 4.12489 8.58782 4.20029 8.67268 4.29459C8.75755 4.38888 8.82164 4.49996 8.8608 4.62063C8.89996 4.74129 8.91332 4.86884 8.9 4.995L8.55 8.502C8.53824 8.63977 8.4752 8.76811 8.37336 8.86164C8.27151 8.95516 8.13827 9.00705 8 9.00705C7.86173 9.00705 7.72849 8.95516 7.62664 8.86164C7.5248 8.76811 7.46176 8.63977 7.45 8.502L7.1 4.995Z"/> </g> <defs> <clipPath id="clip0_34_3872"> <rect width="16" height="16"/> </clipPath> </defs> </svg>