<svg width="16" height="16" viewBox="0 0 16 16" xmlns="http://www.w3.org/2000/svg"> <g clip-path="url(#clip0_34_3880)"> <path d="M7.93819 2.01595C7.95779 2.0052 7.97984 1.99969 8.00219 1.99995C8.02421 1.99986 8.04588 2.00537 8.06519 2.01595C8.08806 2.02966 8.10673 2.04938 8.11919 2.07295L14.9762 13.74C15.0122 13.8 15.0112 13.864 14.9782 13.923C14.9655 13.9472 14.9469 13.9678 14.9242 13.983C14.9044 13.9951 14.8814 14.001 14.8582 14H1.14619C1.12298 14.0011 1.09997 13.9952 1.08019 13.983C1.05744 13.9678 1.03887 13.9472 1.02619 13.923C1.00971 13.8952 1.00118 13.8634 1.00153 13.8312C1.00189 13.7989 1.01111 13.7673 1.02819 13.74L7.88419 2.07295C7.89669 2.04941 7.91536 2.0297 7.93819 2.01595ZM8.98219 1.56595C8.8832 1.39352 8.74047 1.25025 8.5684 1.15062C8.39633 1.051 8.20102 0.998535 8.00219 0.998535C7.80336 0.998535 7.60805 1.051 7.43598 1.15062C7.26391 1.25025 7.12118 1.39352 7.02219 1.56595L0.16519 13.233C-0.29181 14.011 0.25619 15 1.14519 15H14.8582C15.7472 15 16.2962 14.01 15.8382 13.233L8.98219 1.56595Z"/> <path d="M7.00219 12C7.00219 11.8686 7.02806 11.7386 7.07831 11.6173C7.12857 11.4959 7.20222 11.3857 7.29508 11.2928C7.38794 11.2 7.49818 11.1263 7.61951 11.0761C7.74083 11.0258 7.87087 11 8.00219 11C8.13351 11 8.26355 11.0258 8.38487 11.0761C8.5062 11.1263 8.61644 11.2 8.7093 11.2928C8.80215 11.3857 8.87581 11.4959 8.92607 11.6173C8.97632 11.7386 9.00219 11.8686 9.00219 12C9.00219 12.2652 8.89683 12.5195 8.7093 12.7071C8.52176 12.8946 8.26741 13 8.00219 13C7.73697 13 7.48262 12.8946 7.29508 12.7071C7.10755 12.5195 7.00219 12.2652 7.00219 12ZM7.10019 5.99495C7.08687 5.86879 7.10023 5.74124 7.13939 5.62058C7.17855 5.49992 7.24264 5.38883 7.32751 5.29454C7.41237 5.20024 7.51612 5.12485 7.632 5.07323C7.74789 5.02162 7.87333 4.99495 8.00019 4.99495C8.12705 4.99495 8.25249 5.02162 8.36838 5.07323C8.48427 5.12485 8.58801 5.20024 8.67287 5.29454C8.75774 5.38883 8.82183 5.49992 8.86099 5.62058C8.90015 5.74124 8.91351 5.86879 8.90019 5.99495L8.55019 9.50195C8.53843 9.63972 8.47539 9.76806 8.37355 9.86159C8.2717 9.95511 8.13846 10.007 8.00019 10.007C7.86192 10.007 7.72868 9.95511 7.62683 9.86159C7.52499 9.76806 7.46195 9.63972 7.45019 9.50195L7.10019 5.99495Z"/> </g> <defs> <clipPath id="clip0_34_3880"> <rect width="16" height="16"/> </clipPath> </defs> </svg>