<svg width="16" height="16" viewBox="0 0 16 16" xmlns="http://www.w3.org/2000/svg"> <path d="M7.005 3.10012C6.99104 2.96107 7.00638 2.82065 7.05003 2.68789C7.09368 2.55514 7.16467 2.43301 7.25842 2.32938C7.35217 2.22575 7.4666 2.14291 7.59433 2.08622C7.72206 2.02953 7.86026 2.00024 8 2.00024C8.13974 2.00024 8.27794 2.02953 8.40567 2.08622C8.5334 2.14291 8.64783 2.22575 8.74158 2.32938C8.83533 2.43301 8.90632 2.55514 8.94997 2.68789C8.99362 2.82065 9.00896 2.96107 8.995 3.10012L8.607 9.45012C8.59201 9.6007 8.52159 9.74033 8.40942 9.84189C8.29724 9.94345 8.15132 9.9997 8 9.9997C7.84868 9.9997 7.70276 9.94345 7.59058 9.84189C7.47841 9.74033 7.40799 9.6007 7.393 9.45012L7.005 3.10012ZM7 12.0001C7 11.7349 7.10536 11.4805 7.29289 11.293C7.48043 11.1055 7.73478 11.0001 8 11.0001C8.26522 11.0001 8.51957 11.1055 8.70711 11.293C8.89464 11.4805 9 11.7349 9 12.0001C9 12.2653 8.89464 12.5197 8.70711 12.7072C8.51957 12.8948 8.26522 13.0001 8 13.0001C7.73478 13.0001 7.48043 12.8948 7.29289 12.7072C7.10536 12.5197 7 12.2653 7 12.0001Z"/> </svg>