<svg width="16" height="16" viewBox="0 0 16 16" xmlns="http://www.w3.org/2000/svg"> <g clip-path="url(#clip0_34_3854)"> <path d="M2.5 0C1.83696 0 1.20107 0.263392 0.732233 0.732233C0.263392 1.20107 0 1.83696 0 2.5L0 13.5C0 14.163 0.263392 14.7989 0.732233 15.2678C1.20107 15.7366 1.83696 16 2.5 16H13.5C14.163 16 14.7989 15.7366 15.2678 15.2678C15.7366 14.7989 16 14.163 16 13.5V2.5C16 1.83696 15.7366 1.20107 15.2678 0.732233C14.7989 0.263392 14.163 0 13.5 0L2.5 0ZM6.826 10.88H10.5V12H5.5V4.002H10.5V5.122H6.826V7.4H10.283V8.473H6.826V10.881V10.88Z"/> </g> <defs> <clipPath id="clip0_34_3854"> <rect width="16" height="16"/> </clipPath> </defs> </svg>