<svg width="16" height="16" viewBox="0 0 16 16" fill="none" xmlns="http://www.w3.org/2000/svg">
<g clip-path="url(#clip0_34_3888)">
<path d="M13.3538 0.646037C13.2417 0.5338 13.1086 0.444761 12.962 0.384011C12.8155 0.323261 12.6584 0.291992 12.4998 0.291992C12.3412 0.291992 12.1841 0.323261 12.0375 0.384011C11.891 0.444761 11.7579 0.5338 11.6458 0.646037L8.49979 3.79304L7.85379 3.14604C7.7599 3.05215 7.63257 2.99941 7.49979 2.99941C7.36701 2.99941 7.23968 3.05215 7.14579 3.14604C7.0519 3.23992 6.99916 3.36726 6.99916 3.50004C6.99916 3.63281 7.0519 3.76015 7.14579 3.85404L8.29279 5.00004L1.14579 12.146C1.09939 12.1926 1.06261 12.2478 1.03756 12.3085C1.01251 12.3692 0.999673 12.4343 0.99979 12.5V14.293L0.14579 15.146C0.0520359 15.2399 -0.000581924 15.3672 -0.000488156 15.4999C-0.000394388 15.6326 0.0524033 15.7598 0.14629 15.8535C0.240177 15.9473 0.367462 15.9999 0.500143 15.9998C0.632825 15.9997 0.760036 15.9469 0.85379 15.853L1.70679 15H3.49979C3.5655 15.0002 3.63058 14.9873 3.69132 14.9623C3.75206 14.9372 3.80727 14.9004 3.85379 14.854L10.9998 7.70704L12.1458 8.85404C12.2397 8.94792 12.367 9.00067 12.4998 9.00067C12.6326 9.00067 12.7599 8.94792 12.8538 8.85404C12.9477 8.76015 13.0004 8.63281 13.0004 8.50004C13.0004 8.36726 12.9477 8.23992 12.8538 8.14604L12.2068 7.50004L15.3538 4.35404C15.466 4.24194 15.5551 4.10881 15.6158 3.96228C15.6766 3.81574 15.7078 3.65867 15.7078 3.50004C15.7078 3.34141 15.6766 3.18433 15.6158 3.0378C15.5551 2.89126 15.466 2.75814 15.3538 2.64604L13.3538 0.646037ZM1.99979 12.707L8.99979 5.70704L10.2928 7.00004L3.29279 14H1.99979V12.707Z" fill="#212529"/>
</g>
<defs>
<clipPath id="clip0_34_3888">
<rect width="16" height="16" fill="white"/>
</clipPath>
</defs>
</svg>
