<svg width="16" height="16" viewBox="0 0 16 16" xmlns="http://www.w3.org/2000/svg"> <path fill-rule="evenodd" clip-rule="evenodd" d="M14 4.5V14C14 14.5304 13.7893 15.0391 13.4142 15.4142C13.0391 15.7893 12.5304 16 12 16V15C12.2652 15 12.5196 14.8946 12.7071 14.7071C12.8946 14.5196 13 14.2652 13 14V4.5H11C10.6022 4.5 10.2206 4.34196 9.93934 4.06066C9.65804 3.77936 9.5 3.39782 9.5 3V1H4C3.73478 1 3.48043 1.10536 3.29289 1.29289C3.10536 1.48043 3 1.73478 3 2V11H2V2C2 1.46957 2.21071 0.960859 2.58579 0.585786C2.96086 0.210714 3.46957 0 4 0L9.5 0L14 4.5ZM0.706 15.849V13.189H0.744L1.696 15.348H2.212L3.158 13.188H3.196V15.849H3.911V11.85H3.111L1.971 14.446H1.945L0.805 11.85H0V15.849H0.706ZM4.265 11.85V15.849H5.724C6.126 15.849 6.459 15.769 6.723 15.612C6.99016 15.4522 7.19877 15.2106 7.318 14.923C7.448 14.623 7.514 14.261 7.514 13.839C7.514 13.419 7.448 13.061 7.318 12.764C7.19992 12.4796 6.99294 12.241 6.728 12.084C6.465 11.928 6.13 11.85 5.724 11.85H4.264H4.265ZM5.055 12.495H5.618C5.866 12.495 6.069 12.545 6.228 12.647C6.39304 12.7549 6.51756 12.9146 6.582 13.101C6.66 13.302 6.699 13.553 6.699 13.854C6.699 14.081 6.677 14.278 6.632 14.446C6.59637 14.5986 6.52965 14.7423 6.436 14.868C6.34899 14.9801 6.23372 15.0671 6.102 15.12C5.94735 15.1779 5.78308 15.2057 5.618 15.202H5.056V12.495H5.055ZM9.842 11.85H10.736L9.46 13.857L10.714 15.849H9.806L8.956 14.434H8.921L8.069 15.849H7.207L8.447 13.833L7.22 11.85H8.152L8.984 13.289H9.019L9.842 11.85Z"/> </svg>