<svg width="16" height="16" viewBox="0 0 16 16" fill="none" xmlns="http://www.w3.org/2000/svg">
<path d="M8.002 5.5C8.002 5.89782 7.84396 6.27936 7.56266 6.56066C7.28136 6.84196 6.89982 7 6.502 7C6.10418 7 5.72264 6.84196 5.44134 6.56066C5.16004 6.27936 5.002 5.89782 5.002 5.5C5.002 5.10218 5.16004 4.72064 5.44134 4.43934C5.72264 4.15804 6.10418 4 6.502 4C6.89982 4 7.28136 4.15804 7.56266 4.43934C7.84396 4.72064 8.002 5.10218 8.002 5.5Z" fill="#212529"/>
<path d="M12 0H4C3.46957 0 2.96086 0.210714 2.58579 0.585786C2.21071 0.960859 2 1.46957 2 2V14C2 14.5304 2.21071 15.0391 2.58579 15.4142C2.96086 15.7893 3.46957 16 4 16H12C12.5304 16 13.0391 15.7893 13.4142 15.4142C13.7893 15.0391 14 14.5304 14 14V2C14 1.46957 13.7893 0.960859 13.4142 0.585786C13.0391 0.210714 12.5304 0 12 0ZM3 2C3 1.73478 3.10536 1.48043 3.29289 1.29289C3.48043 1.10536 3.73478 1 4 1H12C12.2652 1 12.5196 1.10536 12.7071 1.29289C12.8946 1.48043 13 1.73478 13 2V10L10.917 7.917C10.8657 7.86573 10.8038 7.82625 10.7356 7.8013C10.6675 7.77636 10.5947 7.76654 10.5224 7.77253C10.4501 7.77853 10.38 7.80019 10.3169 7.83602C10.2538 7.87184 10.1992 7.92098 10.157 7.98L8 11L5.835 9.7C5.73928 9.64268 5.62713 9.61903 5.51641 9.6328C5.4057 9.64657 5.30276 9.69698 5.224 9.776L3 12V2Z" fill="#212529"/>
</svg>
