<svg width="16" height="16" viewBox="0 0 16 16" xmlns="http://www.w3.org/2000/svg"> <path d="M6.854 7.146C6.80751 7.09951 6.75232 7.06264 6.69158 7.03748C6.63084 7.01232 6.56574 6.99937 6.5 6.99937C6.43426 6.99937 6.36916 7.01232 6.30842 7.03748C6.24768 7.06264 6.19249 7.09951 6.146 7.146C6.09951 7.19249 6.06264 7.24768 6.03748 7.30842C6.01232 7.36916 5.99937 7.43426 5.99937 7.5C5.99937 7.56574 6.01232 7.63084 6.03748 7.69158C6.06264 7.75232 6.09951 7.80751 6.146 7.854L7.293 9L6.146 10.146C6.05211 10.2399 5.99937 10.3672 5.99937 10.5C5.99937 10.6328 6.05211 10.7601 6.146 10.854C6.23989 10.9479 6.36722 11.0006 6.5 11.0006C6.63278 11.0006 6.76011 10.9479 6.854 10.854L8 9.707L9.146 10.854C9.23989 10.9479 9.36722 11.0006 9.5 11.0006C9.63278 11.0006 9.76011 10.9479 9.854 10.854C9.94789 10.7601 10.0006 10.6328 10.0006 10.5C10.0006 10.3672 9.94789 10.2399 9.854 10.146L8.707 9L9.854 7.854C9.94789 7.76011 10.0006 7.63278 10.0006 7.5C10.0006 7.36722 9.94789 7.23989 9.854 7.146C9.76011 7.05211 9.63278 6.99937 9.5 6.99937C9.36722 6.99937 9.23989 7.05211 9.146 7.146L8 8.293L6.854 7.146Z"/> <path d="M14 14V4.5L9.5 0H4C3.46957 0 2.96086 0.210714 2.58579 0.585786C2.21071 0.960859 2 1.46957 2 2V14C2 14.5304 2.21071 15.0391 2.58579 15.4142C2.96086 15.7893 3.46957 16 4 16H12C12.5304 16 13.0391 15.7893 13.4142 15.4142C13.7893 15.0391 14 14.5304 14 14ZM9.5 3C9.5 3.39782 9.65804 3.77936 9.93934 4.06066C10.2206 4.34196 10.6022 4.5 11 4.5H13V14C13 14.2652 12.8946 14.5196 12.7071 14.7071C12.5196 14.8946 12.2652 15 12 15H4C3.73478 15 3.48043 14.8946 3.29289 14.7071C3.10536 14.5196 3 14.2652 3 14V2C3 1.73478 3.10536 1.48043 3.29289 1.29289C3.48043 1.10536 3.73478 1 4 1H9.5V3Z"/> </svg>