<svg width="16" height="16" viewBox="0 0 16 16" xmlns="http://www.w3.org/2000/svg"> <g clip-path="url(#clip0_34_4222)"> <path fill-rule="evenodd" clip-rule="evenodd" d="M14 4.5V14C14 14.5304 13.7893 15.0391 13.4142 15.4142C13.0391 15.7893 12.5304 16 12 16H8V15H12C12.2652 15 12.5196 14.8946 12.7071 14.7071C12.8946 14.5196 13 14.2652 13 14V4.5H11C10.6022 4.5 10.2206 4.34196 9.93934 4.06066C9.65804 3.77936 9.5 3.39782 9.5 3V1H4C3.73478 1 3.48043 1.10536 3.29289 1.29289C3.10536 1.48043 3 1.73478 3 2V11H2V2C2 1.46957 2.21071 0.960859 2.58579 0.585786C2.96086 0.210714 3.46957 0 4 0L9.5 0L14 4.5ZM0.111 15.29C0.0445145 15.1488 0.00678179 14.9959 0 14.84H0.765C0.778888 14.9181 0.808694 14.9925 0.852564 15.0585C0.896433 15.1246 0.953427 15.1809 1.02 15.224C1.09 15.273 1.173 15.311 1.269 15.338C1.364 15.366 1.471 15.379 1.588 15.379C1.752 15.379 1.89 15.356 2.001 15.309C2.10298 15.2709 2.19161 15.2038 2.256 15.116C2.31315 15.0302 2.3428 14.9291 2.341 14.826C2.34383 14.7633 2.33138 14.7009 2.30473 14.6441C2.27808 14.5873 2.23802 14.5379 2.188 14.5C2.087 14.42 1.933 14.356 1.726 14.307L1.107 14.164C0.916516 14.1237 0.734259 14.0513 0.568 13.95C0.421398 13.8599 0.300508 13.7335 0.217 13.583C0.131937 13.4217 0.0895923 13.2413 0.094 13.059C0.094 12.815 0.157 12.602 0.284 12.42C0.411 12.239 0.587 12.098 0.812 11.998C1.036 11.898 1.295 11.849 1.588 11.849C1.893 11.849 2.152 11.899 2.368 12.001C2.584 12.103 2.751 12.24 2.868 12.411C2.988 12.581 3.054 12.77 3.068 12.977H2.318C2.30088 12.8821 2.25955 12.7932 2.198 12.719C2.13198 12.6391 2.04709 12.5769 1.951 12.538C1.83395 12.4903 1.70836 12.4672 1.582 12.47C1.365 12.47 1.194 12.52 1.069 12.622C1.01039 12.6671 0.963199 12.7254 0.931238 12.7921C0.899276 12.8588 0.883438 12.9321 0.885 13.006C0.885 13.127 0.933 13.226 1.028 13.306C1.14777 13.3947 1.28635 13.4545 1.433 13.481L2.053 13.624C2.271 13.674 2.459 13.744 2.619 13.835C2.779 13.925 2.904 14.045 2.994 14.193C3.084 14.341 3.129 14.528 3.129 14.753C3.129 15 3.066 15.219 2.941 15.409C2.80788 15.6047 2.62056 15.7572 2.402 15.848C2.168 15.953 1.882 16.006 1.544 16.006C1.29 16.006 1.068 15.976 0.879 15.916C0.704853 15.8637 0.542513 15.7782 0.401 15.664C0.278906 15.5609 0.180065 15.4331 0.111 15.289V15.29ZM6.781 11.932V15.932H5.991V14.217H4.308V15.931H3.516V11.932H4.308V13.558H5.99V11.932H6.781Z"/> </g> <defs> <clipPath id="clip0_34_4222"> <rect width="16" height="16"/> </clipPath> </defs> </svg>