<svg width="16" height="16" viewBox="0 0 16 16" xmlns="http://www.w3.org/2000/svg"> <path d="M5 7.5C5 7.23478 5.10536 6.98043 5.29289 6.79289C5.48043 6.60536 5.73478 6.5 6 6.5H7C7.26522 6.5 7.51957 6.60536 7.70711 6.79289C7.89464 6.98043 8 7.23478 8 7.5V8.438L8.4 10.037C8.44984 10.2371 8.43661 10.4476 8.36215 10.6399C8.28768 10.8322 8.1556 10.9967 7.984 11.111L7.054 11.731C6.88967 11.8406 6.69655 11.8991 6.499 11.8991C6.30145 11.8991 6.10833 11.8406 5.944 11.731L5.015 11.111C4.84358 10.9966 4.71171 10.832 4.63742 10.6397C4.56313 10.4475 4.55006 10.237 4.6 10.037L5 8.438V7.5ZM7 7.5H6V8.438C5.99999 8.51992 5.98992 8.60153 5.97 8.681L5.57 10.279L6.5 10.899L7.429 10.279L7.029 8.681C7.00942 8.60149 6.99968 8.51988 7 8.438V7.5Z"/> <path d="M14 4.5V14C14 14.5304 13.7893 15.0391 13.4142 15.4142C13.0391 15.7893 12.5304 16 12 16H4C3.46957 16 2.96086 15.7893 2.58579 15.4142C2.21071 15.0391 2 14.5304 2 14V2C2 1.46957 2.21071 0.960859 2.58579 0.585786C2.96086 0.210714 3.46957 0 4 0H9.5L14 4.5ZM11 4.5C10.6022 4.5 10.2206 4.34196 9.93934 4.06066C9.65804 3.77936 9.5 3.39782 9.5 3V1H7.5V2H6.5V3H7.5V4H6.5V5H7.5V6H6V5H5V4H6V3H5V2H6V1H4C3.73478 1 3.48043 1.10536 3.29289 1.29289C3.10536 1.48043 3 1.73478 3 2V14C3 14.2652 3.10536 14.5196 3.29289 14.7071C3.48043 14.8946 3.73478 15 4 15H12C12.2652 15 12.5196 14.8946 12.7071 14.7071C12.8946 14.5196 13 14.2652 13 14V4.5H11Z"/> </svg>