<svg width="16" height="16" viewBox="0 0 16 16" xmlns="http://www.w3.org/2000/svg"> <path fill-rule="evenodd" clip-rule="evenodd" d="M14 4.5V14C14 14.5304 13.7893 15.0391 13.4142 15.4142C13.0391 15.7893 12.5304 16 12 16V15C12.2652 15 12.5196 14.8946 12.7071 14.7071C12.8946 14.5196 13 14.2652 13 14V4.5H11C10.6022 4.5 10.2206 4.34196 9.93934 4.06066C9.65804 3.77936 9.5 3.39782 9.5 3V1H4C3.73478 1 3.48043 1.10536 3.29289 1.29289C3.10536 1.48043 3 1.73478 3 2V11H2V2C2 1.46957 2.21071 0.960859 2.58579 0.585786C2.96086 0.210714 3.46957 0 4 0L9.5 0L14 4.5ZM3.527 11.85H2.634L1.811 13.289H1.775L0.943 11.85H0.012L1.239 13.833L0 15.85H0.861L1.714 14.435H1.749L2.599 15.85H3.507L2.253 13.858L3.527 11.851V11.85ZM4.481 15.849V13.189H4.519L5.471 15.348H5.987L6.933 13.188H6.971V15.849H7.686V11.85H6.886L5.746 14.446H5.721L4.58 11.85H3.774V15.849H4.48H4.481ZM9.191 15.175H10.887V15.849H8.4V11.85H9.191V15.175Z"/> </svg>