<svg width="16" height="16" viewBox="0 0 16 16" xmlns="http://www.w3.org/2000/svg"> <g clip-path="url(#clip0_34_4168)"> <path fill-rule="evenodd" clip-rule="evenodd" d="M14.0001 4.5V14C14.0001 14.5304 13.7893 15.0391 13.4143 15.4142C13.0392 15.7893 12.5305 16 12.0001 16H9.00006V15H12.0001C12.2653 15 12.5196 14.8946 12.7072 14.7071C12.8947 14.5196 13.0001 14.2652 13.0001 14V4.5H11.0001C10.6022 4.5 10.2207 4.34196 9.9394 4.06066C9.6581 3.77936 9.50006 3.39782 9.50006 3V1H4.00006C3.73485 1 3.48049 1.10536 3.29296 1.29289C3.10542 1.48043 3.00006 1.73478 3.00006 2V11H2.00006V2C2.00006 1.46957 2.21078 0.960859 2.58585 0.585786C2.96092 0.210714 3.46963 0 4.00006 0L9.50006 0L14.0001 4.5ZM3.27806 13.124C3.26194 12.9528 3.21448 12.786 3.13806 12.632C3.06115 12.477 2.95445 12.3387 2.82406 12.225C2.68324 12.1033 2.52026 12.0099 2.34406 11.95C2.13939 11.8803 1.92424 11.8465 1.70806 11.85C1.34706 11.85 1.03806 11.926 0.782063 12.079C0.529468 12.2273 0.32657 12.4473 0.199063 12.711C0.0607071 13.0082 -0.00738406 13.3333 6.2986e-05 13.661V14.167C6.2986e-05 14.439 0.035063 14.687 0.105063 14.912C0.175063 15.136 0.282063 15.329 0.425063 15.492C0.567063 15.654 0.745063 15.78 0.958063 15.869C1.17306 15.957 1.42406 16.001 1.71106 16.001C1.97906 16.001 2.21106 15.964 2.40806 15.89C2.58811 15.8278 2.75215 15.7265 2.8884 15.5934C3.02465 15.4602 3.12972 15.2986 3.19606 15.12C3.26106 14.946 3.29306 14.762 3.29306 14.569V13.772H1.71706V14.361H2.54006V14.616C2.54006 14.748 2.51006 14.87 2.45006 14.979C2.38643 15.0915 2.29162 15.1832 2.17706 15.243C2.03486 15.3119 1.87795 15.3448 1.72006 15.339C1.53597 15.3465 1.35424 15.2954 1.20106 15.193C1.06065 15.0887 0.954472 14.9449 0.896063 14.78C0.828291 14.5822 0.795797 14.374 0.800063 14.165V13.666C0.800063 13.301 0.878063 13.018 1.03406 12.816C1.19206 12.616 1.41406 12.515 1.69906 12.515C1.80076 12.5137 1.90203 12.5285 1.99906 12.559C2.08906 12.589 2.16906 12.63 2.23506 12.685C2.30306 12.7372 2.36071 12.8016 2.40506 12.875C2.45128 12.9523 2.48408 13.0368 2.50206 13.125H3.27806V13.124ZM4.63106 15.925V11.926H3.84006V15.926H4.63006L4.63106 15.925ZM6.12406 14.335V15.925H5.33306V11.926H7.88006V12.579H6.12406V13.696H7.72906V14.334H6.12406V14.335Z"/> </g> <defs> <clipPath id="clip0_34_4168"> <rect width="16" height="16"/> </clipPath> </defs> </svg>