<svg width="16" height="16" viewBox="0 0 16 16" xmlns="http://www.w3.org/2000/svg"> <path d="M6 6.883V11.117C5.99998 11.2055 6.02343 11.2924 6.06797 11.3688C6.1125 11.4452 6.17651 11.5085 6.25348 11.5521C6.33044 11.5957 6.4176 11.6181 6.50606 11.6171C6.59452 11.616 6.68111 11.5915 6.757 11.546L10.285 9.429C10.3592 9.38461 10.4205 9.32175 10.4632 9.24656C10.5058 9.17138 10.5282 9.08643 10.5282 9C10.5282 8.91357 10.5058 8.82862 10.4632 8.75344C10.4205 8.67825 10.3592 8.61539 10.285 8.571L6.757 6.454C6.68104 6.40848 6.59436 6.38396 6.50581 6.38293C6.41727 6.3819 6.33004 6.4044 6.25304 6.44814C6.17605 6.49187 6.11205 6.55527 6.06759 6.63185C6.02313 6.70844 5.9998 6.79445 6 6.883Z"/> <path d="M14 14V4.5L9.5 0H4C3.46957 0 2.96086 0.210714 2.58579 0.585786C2.21071 0.960859 2 1.46957 2 2V14C2 14.5304 2.21071 15.0391 2.58579 15.4142C2.96086 15.7893 3.46957 16 4 16H12C12.5304 16 13.0391 15.7893 13.4142 15.4142C13.7893 15.0391 14 14.5304 14 14ZM9.5 3C9.5 3.39782 9.65804 3.77936 9.93934 4.06066C10.2206 4.34196 10.6022 4.5 11 4.5H13V14C13 14.2652 12.8946 14.5196 12.7071 14.7071C12.5196 14.8946 12.2652 15 12 15H4C3.73478 15 3.48043 14.8946 3.29289 14.7071C3.10536 14.5196 3 14.2652 3 14V2C3 1.73478 3.10536 1.48043 3.29289 1.29289C3.48043 1.10536 3.73478 1 4 1H9.5V3Z"/> </svg>