<svg width="16" height="16" viewBox="0 0 16 16" fill="none" xmlns="http://www.w3.org/2000/svg">
<path fill-rule="evenodd" clip-rule="evenodd" d="M14 4.5V14C14 14.5304 13.7893 15.0391 13.4142 15.4142C13.0391 15.7893 12.5304 16 12 16V15C12.2652 15 12.5196 14.8946 12.7071 14.7071C12.8946 14.5196 13 14.2652 13 14V4.5H11C10.6022 4.5 10.2206 4.34196 9.93934 4.06066C9.65804 3.77936 9.5 3.39782 9.5 3V1H4C3.73478 1 3.48043 1.10536 3.29289 1.29289C3.10536 1.48043 3 1.73478 3 2V11H2V2C2 1.46957 2.21071 0.960859 2.58579 0.585786C2.96086 0.210714 3.46957 0 4 0L9.5 0L14 4.5ZM0.706 15.849V13.189H0.744L1.696 15.349H2.212L3.158 13.189H3.196V15.849H3.911V11.85H3.111L1.971 14.446H1.945L0.805 11.85H0V15.849H0.706ZM5.984 11.85H4.384V15.849H5.176V14.507H5.979C6.266 14.507 6.509 14.45 6.711 14.334C6.914 14.217 7.068 14.059 7.174 13.86C7.28299 13.6512 7.33831 13.4185 7.335 13.183C7.335 12.933 7.282 12.707 7.177 12.506C7.07256 12.3062 6.91289 12.1406 6.717 12.029C6.49365 11.9034 6.24011 11.8415 5.984 11.85ZM6.529 13.183C6.5326 13.3148 6.5034 13.4453 6.444 13.563C6.39098 13.6653 6.3084 13.7493 6.207 13.804C6.09059 13.8616 5.96182 13.8897 5.832 13.886H5.172V12.48H5.832C6.051 12.48 6.222 12.54 6.345 12.661C6.468 12.783 6.529 12.957 6.529 13.183ZM8.034 13.151C8.3 12.717 8.564 12.284 8.825 11.85H9.965V14.47H10.455V15.108H9.965V15.849H9.224V15.108H7.287V14.46C7.522 14.02 7.771 13.584 8.034 13.15V13.151ZM8.005 14.449V14.469H9.224V12.448H9.183C8.982 12.766 8.779 13.094 8.576 13.432C8.376 13.77 8.185 14.109 8.005 14.449Z" fill="black"/>
</svg>
