<svg width="16" height="16" viewBox="0 0 16 16" xmlns="http://www.w3.org/2000/svg"> <g clip-path="url(#clip0_34_4218)"> <path fill-rule="evenodd" clip-rule="evenodd" d="M13.9998 4.5V11H12.9998V4.5H10.9998C10.602 4.5 10.2205 4.34196 9.93917 4.06066C9.65786 3.77936 9.49983 3.39782 9.49983 3V1H3.99983C3.73461 1 3.48026 1.10536 3.29272 1.29289C3.10518 1.48043 2.99983 1.73478 2.99983 2V11H1.99983V2C1.99983 1.46957 2.21054 0.960859 2.58561 0.585786C2.96069 0.210714 3.4694 0 3.99983 0L9.49983 0L13.9998 4.5ZM1.40983 15.29C1.34347 15.1492 1.30574 14.9965 1.29883 14.841H2.06283C2.07672 14.9191 2.10652 14.9935 2.15039 15.0595C2.19426 15.1256 2.25126 15.1819 2.31783 15.225C2.39406 15.277 2.47861 15.3155 2.56783 15.339C2.66283 15.367 2.76883 15.38 2.88683 15.38C3.05083 15.38 3.18783 15.357 3.29983 15.31C3.40181 15.2719 3.49044 15.2048 3.55483 15.117C3.61169 15.0311 3.64099 14.93 3.63883 14.827C3.64177 14.7644 3.62948 14.7021 3.603 14.6453C3.57653 14.5885 3.53666 14.539 3.48683 14.501C3.38583 14.421 3.23083 14.357 3.02383 14.308L2.40583 14.165C2.21534 14.1247 2.03309 14.0523 1.86683 13.951C1.71986 13.861 1.59861 13.7346 1.51483 13.584C1.42977 13.4227 1.38742 13.2423 1.39183 13.06C1.39183 12.816 1.45583 12.603 1.58183 12.421C1.70983 12.24 1.88583 12.099 2.10983 11.999C2.33483 11.899 2.59383 11.85 2.88683 11.85C3.19083 11.85 3.45083 11.9 3.66583 12.002C3.88283 12.104 4.04983 12.241 4.16583 12.412C4.28583 12.582 4.35183 12.771 4.36583 12.978H3.61583C3.59871 12.8831 3.55737 12.7942 3.49583 12.72C3.43009 12.6402 3.34556 12.578 3.24983 12.539C3.13247 12.4912 3.00652 12.468 2.87983 12.471C2.66383 12.471 2.49283 12.521 2.36783 12.623C2.30903 12.668 2.26165 12.7262 2.22951 12.7929C2.19738 12.8596 2.18138 12.933 2.18283 13.007C2.18283 13.128 2.23083 13.227 2.32683 13.307C2.4463 13.3955 2.58453 13.4554 2.73083 13.482L3.35183 13.625C3.56883 13.675 3.75783 13.745 3.91783 13.836C4.07783 13.926 4.20283 14.046 4.29283 14.194C4.38283 14.342 4.42783 14.529 4.42783 14.754C4.42783 15.001 4.36483 15.22 4.23983 15.41C4.10671 15.6057 3.91939 15.7582 3.70083 15.849C3.46683 15.954 3.18083 16.007 2.84283 16.007C2.58883 16.007 2.36683 15.977 2.17783 15.917C2.00368 15.8647 1.84134 15.7792 1.69983 15.665C1.57773 15.5619 1.47889 15.4341 1.40983 15.29ZM5.59783 14.903L5.28483 15.931H4.48483L5.82683 11.932H6.75283L8.08783 15.932H7.24783L6.93383 14.902H5.59783V14.903ZM6.77583 14.313L6.28583 12.697H6.25183L5.76183 14.314H6.77583V14.313ZM8.12783 14.841C8.13355 14.9986 8.17219 15.1532 8.24125 15.2949C8.31031 15.4367 8.40827 15.5624 8.52883 15.664C8.65883 15.772 8.81783 15.856 9.00683 15.916C9.19683 15.977 9.41783 16.007 9.67183 16.007C10.0098 16.007 10.2958 15.954 10.5308 15.849C10.7668 15.744 10.9468 15.597 11.0698 15.409C11.1948 15.22 11.2568 15.001 11.2568 14.753C11.2568 14.529 11.2118 14.343 11.1228 14.193C11.0313 14.0432 10.9019 13.9201 10.7478 13.836C10.5707 13.7382 10.3799 13.6674 10.1818 13.626L9.56083 13.482C9.41444 13.4551 9.27621 13.3949 9.15683 13.306C9.1112 13.2708 9.07443 13.2255 9.04943 13.1736C9.02443 13.1216 9.01189 13.0646 9.01283 13.007C9.01283 12.851 9.07483 12.723 9.19783 12.623C9.32283 12.522 9.49383 12.471 9.70983 12.471C9.85283 12.471 9.97583 12.494 10.0798 12.539C10.1756 12.578 10.2601 12.6402 10.3258 12.72C10.3874 12.7942 10.4287 12.8831 10.4458 12.978H11.1958C11.1833 12.7744 11.114 12.5783 10.9958 12.412C10.8694 12.2325 10.6966 12.0908 10.4958 12.002C10.2503 11.8943 9.98387 11.8424 9.71583 11.85C9.42283 11.85 9.16383 11.9 8.93983 12C8.71483 12.099 8.53983 12.24 8.41283 12.421C8.28583 12.603 8.22283 12.816 8.22283 13.06C8.22283 13.261 8.26283 13.436 8.34483 13.584C8.42683 13.733 8.54483 13.854 8.69683 13.951C8.84883 14.046 9.02883 14.118 9.23583 14.164L9.85383 14.308C10.0608 14.357 10.2148 14.421 10.3168 14.501C10.3667 14.539 10.4065 14.5885 10.433 14.6453C10.4595 14.7021 10.4718 14.7644 10.4688 14.827C10.4708 14.9301 10.4411 15.0313 10.3838 15.117C10.3195 15.2048 10.2308 15.2719 10.1288 15.31C10.0178 15.357 9.87983 15.38 9.71583 15.38C9.59883 15.38 9.49283 15.367 9.39583 15.34C9.30742 15.3155 9.22364 15.2766 9.14783 15.225C9.08125 15.1819 9.02426 15.1256 8.98039 15.0595C8.93652 14.9935 8.90672 14.9191 8.89283 14.841H8.12783ZM11.6308 15.29C11.5645 15.1491 11.5268 14.9965 11.5198 14.841H12.2838C12.2978 14.919 12.3277 14.9934 12.3715 15.0594C12.4154 15.1255 12.4723 15.1818 12.5388 15.225C12.6088 15.274 12.6928 15.312 12.7888 15.339C12.8838 15.367 12.9898 15.38 13.1078 15.38C13.2718 15.38 13.4088 15.357 13.5208 15.31C13.6228 15.2719 13.7115 15.2048 13.7758 15.117C13.833 15.0312 13.8626 14.9301 13.8608 14.827C13.8637 14.7643 13.8512 14.7019 13.8246 14.6451C13.7979 14.5883 13.7578 14.5389 13.7078 14.501C13.6068 14.421 13.4518 14.357 13.2448 14.308L12.6268 14.165C12.4363 14.1247 12.2541 14.0523 12.0878 13.951C11.9413 13.8608 11.8204 13.7344 11.7368 13.584C11.6518 13.4227 11.6094 13.2423 11.6138 13.06C11.6138 12.816 11.6768 12.603 11.8038 12.421C11.9308 12.24 12.1068 12.099 12.3308 11.999C12.5558 11.899 12.8148 11.85 13.1078 11.85C13.4118 11.85 13.6718 11.9 13.8868 12.002C14.1038 12.104 14.2708 12.241 14.3868 12.412C14.5068 12.582 14.5728 12.771 14.5868 12.978H13.8368C13.8197 12.8831 13.7784 12.7942 13.7168 12.72C13.6511 12.6402 13.5666 12.578 13.4708 12.539C13.3535 12.4912 13.2275 12.468 13.1008 12.471C12.8848 12.471 12.7138 12.521 12.5888 12.623C12.5302 12.6681 12.483 12.7264 12.4511 12.7931C12.4191 12.8598 12.4033 12.9331 12.4048 13.007C12.4048 13.128 12.4518 13.227 12.5478 13.307C12.6673 13.3955 12.8055 13.4554 12.9518 13.482L13.5728 13.625C13.7898 13.675 13.9788 13.745 14.1388 13.836C14.2988 13.926 14.4238 14.046 14.5138 14.194C14.6038 14.342 14.6488 14.529 14.6488 14.754C14.6488 15.001 14.5858 15.22 14.4608 15.41C14.3277 15.6057 14.1404 15.7582 13.9218 15.849C13.6878 15.954 13.4018 16.007 13.0638 16.007C12.8389 16.0113 12.6146 15.981 12.3988 15.917C12.2247 15.8647 12.0623 15.7792 11.9208 15.665C11.7988 15.5619 11.6999 15.4341 11.6308 15.29Z"/> </g> <defs> <clipPath id="clip0_34_4218"> <rect width="16" height="16"/> </clipPath> </defs> </svg>