<svg width="16" height="16" viewBox="0 0 16 16" fill="none" xmlns="http://www.w3.org/2000/svg">
<path fill-rule="evenodd" clip-rule="evenodd" d="M14 4.5V11H13V4.5H11C10.6022 4.5 10.2206 4.34196 9.93934 4.06066C9.65804 3.77936 9.5 3.39782 9.5 3V1H4C3.73478 1 3.48043 1.10536 3.29289 1.29289C3.10536 1.48043 3 1.73478 3 2V11H2V2C2 1.46957 2.21071 0.960859 2.58579 0.585786C2.96086 0.210714 3.46957 0 4 0L9.5 0L14 4.5ZM1.5 11.85H3.1C3.389 11.85 3.633 11.91 3.832 12.029C4.033 12.146 4.187 12.305 4.292 12.506C4.397 12.707 4.45 12.933 4.45 13.183C4.45 13.433 4.396 13.659 4.29 13.86C4.184 14.059 4.03 14.217 3.826 14.334C3.60143 14.455 3.34896 14.5146 3.094 14.507H2.29V15.849H1.5V11.85ZM3.56 13.564C3.61956 13.446 3.64877 13.3151 3.645 13.183C3.645 12.957 3.583 12.783 3.46 12.662C3.337 12.54 3.166 12.48 2.947 12.48H2.288V13.886H2.948C3.07749 13.8896 3.20589 13.8614 3.322 13.804C3.42362 13.7497 3.50655 13.6661 3.56 13.564ZM4.862 11.85H6.462C6.751 11.85 6.995 11.91 7.194 12.029C7.395 12.146 7.549 12.305 7.654 12.506C7.76 12.707 7.812 12.933 7.812 13.183C7.812 13.433 7.759 13.659 7.652 13.86C7.546 14.059 7.392 14.217 7.188 14.334C6.96343 14.455 6.71096 14.5146 6.456 14.507H5.653V15.849H4.863V11.85H4.862ZM6.922 13.564C6.98156 13.446 7.01077 13.3151 7.007 13.183C7.007 12.957 6.945 12.783 6.822 12.662C6.699 12.54 6.528 12.48 6.309 12.48H5.65V13.886H6.31C6.43949 13.8896 6.5679 13.8615 6.684 13.804C6.78562 13.7497 6.86855 13.6661 6.922 13.564ZM9.774 15.849V12.512H10.911V11.85H7.846V12.512H8.98V15.849H9.774ZM13.57 11.85H14.463L13.189 13.857L14.443 15.849H13.535L12.685 14.434H12.65L11.797 15.849H10.936L12.176 13.833L10.948 11.85H11.879L12.711 13.289H12.746L13.57 11.85Z" fill="black"/>
</svg>
