<svg width="16" height="16" viewBox="0 0 16 16" xmlns="http://www.w3.org/2000/svg"> <g clip-path="url(#clip0_34_4178)"> <path fill-rule="evenodd" clip-rule="evenodd" d="M14 4.5V14C14 14.5304 13.7893 15.0391 13.4142 15.4142C13.0392 15.7893 12.5305 16 12 16H8.00002V15H12C12.2652 15 12.5196 14.8946 12.7071 14.7071C12.8947 14.5196 13 14.2652 13 14V4.5H11C10.6022 4.5 10.2207 4.34196 9.93936 4.06066C9.65806 3.77936 9.50002 3.39782 9.50002 3V1H4.00002C3.73481 1 3.48045 1.10536 3.29292 1.29289C3.10538 1.48043 3.00002 1.73478 3.00002 2V11H2.00002V2C2.00002 1.46957 2.21074 0.960859 2.58581 0.585786C2.96088 0.210714 3.46959 0 4.00002 0L9.50002 0L14 4.5ZM3.18602 15.29C3.11967 15.1492 3.08194 14.9965 3.07502 14.841H3.84002C3.85391 14.9191 3.88372 14.9935 3.92759 15.0595C3.97146 15.1256 4.02845 15.1819 4.09502 15.225C4.16502 15.274 4.24802 15.312 4.34402 15.339C4.43902 15.367 4.54602 15.38 4.66302 15.38C4.82702 15.38 4.96502 15.357 5.07602 15.31C5.17801 15.2719 5.26663 15.2048 5.33102 15.117C5.38818 15.0312 5.41783 14.9301 5.41602 14.827C5.41885 14.7643 5.40641 14.7019 5.37975 14.6451C5.3531 14.5883 5.31304 14.5389 5.26302 14.501C5.16202 14.421 5.00802 14.357 4.80102 14.308L4.18202 14.165C3.99154 14.1247 3.80928 14.0523 3.64302 13.951C3.49642 13.8609 3.37553 13.7345 3.29202 13.584C3.20696 13.4227 3.16462 13.2423 3.16902 13.06C3.16902 12.816 3.23202 12.603 3.35902 12.421C3.48602 12.24 3.66202 12.099 3.88702 11.999C4.11102 11.899 4.37002 11.85 4.66302 11.85C4.96802 11.85 5.22702 11.9 5.44302 12.002C5.65902 12.104 5.82602 12.241 5.94302 12.412C6.06302 12.582 6.12902 12.771 6.14302 12.978H5.39302C5.3759 12.8831 5.33457 12.7942 5.27302 12.72C5.207 12.6401 5.12211 12.5779 5.02602 12.539C4.90898 12.4913 4.78338 12.4682 4.65702 12.471C4.44002 12.471 4.26902 12.521 4.14402 12.623C4.08541 12.6681 4.03822 12.7264 4.00626 12.7931C3.9743 12.8598 3.95846 12.9331 3.96002 13.007C3.96002 13.128 4.00802 13.227 4.10302 13.307C4.22279 13.3957 4.36137 13.4556 4.50802 13.482L5.12802 13.625C5.34602 13.675 5.53402 13.745 5.69402 13.836C5.85402 13.926 5.97902 14.046 6.06902 14.194C6.15902 14.342 6.20402 14.529 6.20402 14.754C6.20402 15.001 6.14102 15.22 6.01602 15.41C5.8829 15.6057 5.69558 15.7582 5.47702 15.849C5.24302 15.954 4.95702 16.007 4.61902 16.007C4.36502 16.007 4.14302 15.977 3.95402 15.917C3.77988 15.8647 3.61754 15.7792 3.47602 15.665C3.35393 15.5619 3.25509 15.4341 3.18602 15.29ZM0.0820239 15.257C0.0268465 15.1079 -0.000933042 14.95 2.39066e-05 14.791H0.765024C0.766805 14.8856 0.791877 14.9784 0.838024 15.061C0.884068 15.1395 0.950708 15.2039 1.03073 15.2473C1.11075 15.2907 1.20111 15.3113 1.29202 15.307C1.48202 15.307 1.62202 15.252 1.71402 15.143C1.80602 15.033 1.85202 14.878 1.85202 14.677V11.932H2.64202V14.657C2.64202 15.097 2.52302 15.431 2.28502 15.662C2.04902 15.892 1.72102 16.007 1.30102 16.007C1.10721 16.0106 0.914375 15.9788 0.732024 15.913C0.578879 15.8545 0.440083 15.7638 0.325024 15.647C0.218392 15.5348 0.135713 15.4021 0.0820239 15.257Z"/> </g> <defs> <clipPath id="clip0_34_4178"> <rect width="16" height="16"/> </clipPath> </defs> </svg>