<svg width="16" height="16" viewBox="0 0 16 16" fill="none" xmlns="http://www.w3.org/2000/svg">
<g clip-path="url(#clip0_34_4198)">
<path fill-rule="evenodd" clip-rule="evenodd" d="M14 4.5V14C14 14.5304 13.7893 15.0391 13.4142 15.4142C13.0391 15.7893 12.5304 16 12 16H11V15H12C12.2652 15 12.5196 14.8946 12.7071 14.7071C12.8946 14.5196 13 14.2652 13 14V4.5H11C10.6022 4.5 10.2206 4.34196 9.93934 4.06066C9.65804 3.77936 9.5 3.39782 9.5 3V1H4C3.73478 1 3.48043 1.10536 3.29289 1.29289C3.10536 1.48043 3 1.73478 3 2V11H2V2C2 1.46957 2.21071 0.960859 2.58579 0.585786C2.96086 0.210714 3.46957 0 4 0L9.5 0L14 4.5ZM2.622 13.666V14.188C2.622 14.444 2.583 14.658 2.505 14.829C2.43862 14.9872 2.32649 15.122 2.183 15.216C2.04135 15.3015 1.87842 15.3452 1.713 15.342C1.54762 15.3448 1.38477 15.3012 1.243 15.216C1.10069 15.1216 0.989373 14.9873 0.923 14.83C0.838883 14.6267 0.798999 14.4079 0.806 14.188V13.666C0.806 13.409 0.845 13.195 0.923 13.025C0.989207 12.8673 1.10053 12.7327 1.243 12.638C1.38413 12.551 1.54723 12.5062 1.713 12.509C1.89 12.509 2.046 12.552 2.183 12.639C2.32634 12.7328 2.43845 12.8672 2.505 13.025C2.583 13.195 2.622 13.409 2.622 13.666ZM3.425 14.185V13.672C3.425 13.295 3.356 12.972 3.22 12.7C3.09132 12.4353 2.88567 12.2157 2.63 12.07C2.377 11.923 2.071 11.85 1.714 11.85C1.358 11.85 1.052 11.923 0.794 12.07C0.538406 12.2142 0.332913 12.4329 0.205 12.697C0.068 12.968 0 13.293 0 13.672V14.185C0 14.56 0.068 14.885 0.205 15.158C0.342 15.429 0.538 15.638 0.794 15.785C1.052 15.929 1.358 16.001 1.714 16.001C2.071 16.001 2.377 15.929 2.631 15.785C2.88546 15.6394 3.09058 15.4211 3.22 15.158C3.356 14.884 3.425 14.56 3.425 14.185ZM5.425 15.925V12.588H6.56V11.926H3.497V12.588H4.63V15.925H5.424H5.425ZM7.676 14.335V15.925H6.886V11.926H9.434V12.579H7.676V13.696H9.282V14.334H7.676V14.335Z" fill="black"/>
</g>
<defs>
<clipPath id="clip0_34_4198">
<rect width="16" height="16" fill="white"/>
</clipPath>
</defs>
</svg>
