<svg width="16" height="16" viewBox="0 0 16 16" fill="none" xmlns="http://www.w3.org/2000/svg">
<g clip-path="url(#clip0_34_4220)">
<path fill-rule="evenodd" clip-rule="evenodd" d="M14.0001 4.5V11H13.0001V4.5H11.0001C10.6023 4.5 10.2208 4.34196 9.93946 4.06066C9.65815 3.77936 9.50012 3.39782 9.50012 3V1H4.00012C3.7349 1 3.48055 1.10536 3.29301 1.29289C3.10547 1.48043 3.00012 1.73478 3.00012 2V11H2.00012V2C2.00012 1.46957 2.21083 0.960859 2.5859 0.585786C2.96098 0.210714 3.46968 0 4.00012 0L9.50012 0L14.0001 4.5ZM1.35612 15.29C1.28976 15.1492 1.25203 14.9965 1.24512 14.841H2.01012C2.02401 14.9191 2.05381 14.9935 2.09768 15.0595C2.14155 15.1256 2.19854 15.1819 2.26512 15.225C2.33512 15.274 2.41812 15.312 2.51412 15.339C2.60912 15.367 2.71612 15.38 2.83312 15.38C2.99712 15.38 3.13512 15.357 3.24612 15.31C3.3481 15.2719 3.43673 15.2048 3.50112 15.117C3.55833 15.0312 3.58799 14.9301 3.58612 14.827C3.58895 14.7643 3.5765 14.7019 3.54985 14.6451C3.52319 14.5883 3.48313 14.5389 3.43312 14.501C3.33212 14.421 3.17812 14.357 2.97112 14.308L2.35212 14.165C2.16163 14.1247 1.97938 14.0523 1.81312 13.951C1.66652 13.8609 1.54562 13.7345 1.46212 13.584C1.37705 13.4227 1.33471 13.2423 1.33912 13.06C1.33912 12.816 1.40212 12.603 1.52912 12.421C1.65612 12.24 1.83212 12.099 2.05712 11.999C2.28112 11.899 2.54012 11.85 2.83312 11.85C3.13812 11.85 3.39712 11.9 3.61312 12.002C3.82912 12.104 3.99612 12.241 4.11312 12.412C4.23312 12.582 4.29912 12.771 4.31312 12.978H3.56312C3.546 12.8831 3.50466 12.7942 3.44312 12.72C3.3771 12.6401 3.29221 12.5779 3.19612 12.539C3.07907 12.4913 2.95348 12.4682 2.82712 12.471C2.61012 12.471 2.43912 12.521 2.31412 12.623C2.25551 12.6681 2.20832 12.7264 2.17635 12.7931C2.14439 12.8598 2.12856 12.9331 2.13012 13.007C2.13012 13.128 2.17812 13.227 2.27312 13.307C2.39288 13.3957 2.53147 13.4556 2.67812 13.482L3.29812 13.625C3.51512 13.675 3.70412 13.745 3.86412 13.836C4.02412 13.926 4.14912 14.046 4.23912 14.194C4.32912 14.342 4.37412 14.529 4.37412 14.754C4.37412 15.001 4.31112 15.22 4.18612 15.41C4.053 15.6057 3.86567 15.7582 3.64712 15.849C3.41312 15.954 3.12712 16.007 2.78912 16.007C2.53512 16.007 2.31312 15.977 2.12412 15.917C1.94997 15.8647 1.78763 15.7792 1.64612 15.665C1.52402 15.5619 1.42518 15.4341 1.35612 15.29ZM5.63012 13.06C5.55668 13.2627 5.52175 13.4774 5.52712 13.693V14.188C5.52712 14.434 5.56112 14.643 5.63012 14.815C5.68768 14.9727 5.79155 15.1093 5.92812 15.207C6.07069 15.2978 6.23718 15.3437 6.40612 15.339C6.5449 15.3422 6.68241 15.312 6.80712 15.251C6.91878 15.1939 7.01306 15.108 7.08012 15.002C7.14788 14.8922 7.18803 14.7677 7.19712 14.639H7.96212V14.715C7.95248 14.9566 7.87408 15.1904 7.73612 15.389C7.59539 15.5856 7.40581 15.7421 7.18612 15.843C6.9397 15.9558 6.67109 16.0119 6.40012 16.007C6.04012 16.007 5.73612 15.935 5.48612 15.79C5.23668 15.6441 5.03752 15.4258 4.91512 15.164C4.78512 14.892 4.72112 14.567 4.72112 14.188V13.69C4.72112 13.31 4.78712 12.985 4.91812 12.711C5.03993 12.4473 5.23863 12.2267 5.48812 12.078C5.74112 11.93 6.04512 11.856 6.40012 11.856C6.61912 11.856 6.82112 11.888 7.00712 11.953C7.19412 12.015 7.35712 12.106 7.49612 12.225C7.63663 12.3444 7.75067 12.4918 7.83091 12.6578C7.91116 12.8238 7.95585 13.0047 7.96212 13.189V13.262H7.19712C7.18779 13.1276 7.14666 12.9974 7.07712 12.882C7.01175 12.7716 6.91731 12.6813 6.80412 12.621C6.68207 12.5548 6.54494 12.5214 6.40612 12.524C6.2373 12.5196 6.0713 12.5678 5.93112 12.662C5.79399 12.7623 5.68933 12.9007 5.63012 13.06ZM8.23912 14.841C8.24484 14.9986 8.28348 15.1532 8.35254 15.2949C8.4216 15.4367 8.51956 15.5624 8.64012 15.664C8.76912 15.772 8.92812 15.856 9.11812 15.916C9.30812 15.977 9.52812 16.007 9.78312 16.007C10.1211 16.007 10.4071 15.954 10.6411 15.849C10.8771 15.744 11.0571 15.597 11.1811 15.409C11.3072 15.2138 11.3723 14.9854 11.3681 14.753C11.3681 14.529 11.3231 14.343 11.2331 14.193C11.1416 14.0432 11.0122 13.9201 10.8581 13.836C10.681 13.7382 10.4902 13.6674 10.2921 13.626L9.67212 13.482C9.52538 13.4553 9.38679 13.395 9.26712 13.306C9.22168 13.2707 9.18509 13.2253 9.16027 13.1734C9.13544 13.1215 9.12306 13.0645 9.12412 13.007C9.12412 12.851 9.18512 12.723 9.30812 12.623C9.43312 12.522 9.60412 12.471 9.82112 12.471C9.96312 12.471 10.0861 12.494 10.1901 12.539C10.2859 12.578 10.3704 12.6402 10.4361 12.72C10.4977 12.7942 10.539 12.8831 10.5561 12.978H11.3061C11.2937 12.7743 11.2244 12.5783 11.1061 12.412C10.9797 12.2325 10.8069 12.0908 10.6061 12.002C10.3606 11.8943 10.0942 11.8424 9.82612 11.85C9.53412 11.85 9.27512 11.9 9.05012 12C8.82612 12.099 8.65012 12.24 8.52312 12.421C8.39612 12.603 8.33312 12.816 8.33312 13.06C8.33312 13.261 8.37312 13.436 8.45612 13.584C8.53812 13.733 8.65512 13.854 8.80712 13.951C8.95912 14.046 9.13912 14.118 9.34712 14.164L9.96412 14.308C10.1711 14.357 10.3261 14.421 10.4271 14.501C10.4771 14.5389 10.5172 14.5883 10.5438 14.6451C10.5705 14.7019 10.5829 14.7643 10.5801 14.827C10.5816 14.93 10.552 15.0311 10.4951 15.117C10.4308 15.2048 10.3421 15.2719 10.2401 15.31C10.1084 15.3603 9.96805 15.3841 9.82712 15.38C9.70912 15.38 9.60312 15.367 9.50712 15.34C9.41836 15.3156 9.33423 15.2768 9.25812 15.225C9.19154 15.1819 9.13455 15.1256 9.09068 15.0595C9.04681 14.9935 9.01701 14.9191 9.00312 14.841H8.24012H8.23912ZM11.7411 15.29C11.6751 15.1491 11.6377 14.9965 11.6311 14.841H12.3951C12.409 14.9191 12.4388 14.9935 12.4827 15.0595C12.5266 15.1256 12.5835 15.1819 12.6501 15.225C12.7201 15.274 12.8031 15.312 12.8991 15.339C12.9941 15.367 13.1011 15.38 13.2181 15.38C13.3821 15.38 13.5201 15.357 13.6311 15.31C13.7331 15.2719 13.8218 15.2048 13.8861 15.117C13.9433 15.0312 13.973 14.9301 13.9711 14.827C13.9741 14.7644 13.9618 14.7021 13.9353 14.6453C13.9088 14.5885 13.8689 14.539 13.8191 14.501C13.7171 14.421 13.5631 14.357 13.3561 14.308L12.7381 14.165C12.5473 14.1248 12.3647 14.0524 12.1981 13.951C12.0515 13.8608 11.9307 13.7344 11.8471 13.584C11.7621 13.4227 11.7197 13.2423 11.7241 13.06C11.7241 12.816 11.7871 12.603 11.9141 12.421C12.0411 12.24 12.2171 12.099 12.4421 11.999C12.6661 11.899 12.9251 11.85 13.2181 11.85C13.5231 11.85 13.7831 11.9 13.9981 12.002C14.2141 12.104 14.3811 12.241 14.4981 12.412C14.6181 12.582 14.6841 12.771 14.6981 12.978H13.9481C13.931 12.8831 13.8897 12.7942 13.8281 12.72C13.7621 12.6401 13.6772 12.5778 13.5811 12.539C13.4641 12.4913 13.3385 12.4682 13.2121 12.471C12.9951 12.471 12.8251 12.521 12.7001 12.623C12.6413 12.668 12.5939 12.7262 12.5618 12.7929C12.5297 12.8596 12.5137 12.933 12.5151 13.007C12.5151 13.128 12.5631 13.227 12.6581 13.307C12.7779 13.3957 12.9165 13.4556 13.0631 13.482L13.6831 13.625C13.9011 13.675 14.0891 13.745 14.2491 13.836C14.4091 13.926 14.5341 14.046 14.6241 14.194C14.7141 14.342 14.7591 14.529 14.7591 14.754C14.7591 15.001 14.6971 15.22 14.5721 15.41C14.4387 15.6058 14.251 15.7583 14.0321 15.849C13.7981 15.954 13.5121 16.007 13.1741 16.007C12.9201 16.007 12.6981 15.977 12.5091 15.917C12.335 15.8647 12.1726 15.7792 12.0311 15.665C11.909 15.5619 11.8102 15.4341 11.7411 15.29Z" fill="black"/>
</g>
<defs>
<clipPath id="clip0_34_4220">
<rect width="16" height="16" fill="white"/>
</clipPath>
</defs>
</svg>
