<svg width="16" height="16" viewBox="0 0 16 16" fill="none" xmlns="http://www.w3.org/2000/svg">
<path d="M10.854 6.146C10.9006 6.19245 10.9375 6.24762 10.9627 6.30837C10.9879 6.36911 11.0009 6.43423 11.0009 6.5C11.0009 6.56577 10.9879 6.63089 10.9627 6.69163C10.9375 6.75238 10.9006 6.80755 10.854 6.854L7.854 9.854C7.80755 9.90056 7.75238 9.93751 7.69163 9.96271C7.63089 9.98792 7.56577 10.0009 7.5 10.0009C7.43423 10.0009 7.36911 9.98792 7.30837 9.96271C7.24762 9.93751 7.19245 9.90056 7.146 9.854L5.646 8.354C5.59951 8.30751 5.56264 8.25232 5.53748 8.19158C5.51232 8.13084 5.49937 8.06574 5.49937 8C5.49937 7.93426 5.51232 7.86916 5.53748 7.80842C5.56264 7.74768 5.59951 7.69249 5.646 7.646C5.69249 7.59951 5.74768 7.56264 5.80842 7.53748C5.86916 7.51232 5.93426 7.49937 6 7.49937C6.06574 7.49937 6.13084 7.51232 6.19158 7.53748C6.25232 7.56264 6.30751 7.59951 6.354 7.646L7.5 8.793L10.146 6.146C10.1924 6.09944 10.2476 6.06249 10.3084 6.03729C10.3691 6.01208 10.4342 5.99911 10.5 5.99911C10.5658 5.99911 10.6309 6.01208 10.6916 6.03729C10.7524 6.06249 10.8076 6.09944 10.854 6.146Z" fill="#212529"/>
<path d="M4 0C3.46957 0 2.96086 0.210714 2.58579 0.585786C2.21071 0.960859 2 1.46957 2 2V14C2 14.5304 2.21071 15.0391 2.58579 15.4142C2.96086 15.7893 3.46957 16 4 16H12C12.5304 16 13.0391 15.7893 13.4142 15.4142C13.7893 15.0391 14 14.5304 14 14V2C14 1.46957 13.7893 0.960859 13.4142 0.585786C13.0391 0.210714 12.5304 0 12 0H4ZM4 1H12C12.2652 1 12.5196 1.10536 12.7071 1.29289C12.8946 1.48043 13 1.73478 13 2V14C13 14.2652 12.8946 14.5196 12.7071 14.7071C12.5196 14.8946 12.2652 15 12 15H4C3.73478 15 3.48043 14.8946 3.29289 14.7071C3.10536 14.5196 3 14.2652 3 14V2C3 1.73478 3.10536 1.48043 3.29289 1.29289C3.48043 1.10536 3.73478 1 4 1Z" fill="#212529"/>
</svg>
