<svg width="16" height="16" viewBox="0 0 16 16" xmlns="http://www.w3.org/2000/svg"> <path fill-rule="evenodd" clip-rule="evenodd" d="M14 4.5V14C14 14.5304 13.7893 15.0391 13.4142 15.4142C13.0391 15.7893 12.5304 16 12 16V15C12.2652 15 12.5196 14.8946 12.7071 14.7071C12.8946 14.5196 13 14.2652 13 14V4.5H11C10.6022 4.5 10.2206 4.34196 9.93934 4.06066C9.65804 3.77936 9.5 3.39782 9.5 3V1H4C3.73478 1 3.48043 1.10536 3.29289 1.29289C3.10536 1.48043 3 1.73478 3 2V11H2V2C2 1.46957 2.21071 0.960859 2.58579 0.585786C2.96086 0.210714 3.46957 0 4 0L9.5 0L14 4.5ZM1.597 11.85H0V15.849H0.782V14.358H1.492L2.192 15.849H3.843L4.156 14.821H5.492L5.806 15.849H6.646L5.31 11.85H4.385L3.056 15.81L2.273 14.238C2.49344 14.1465 2.68093 13.9902 2.81073 13.7899C2.94053 13.5896 3.00652 13.3546 3 13.116C3 12.86 2.944 12.637 2.833 12.448C2.7217 12.2565 2.55507 12.1031 2.355 12.008C2.11821 11.8966 1.85856 11.8425 1.597 11.85ZM0.782 13.763V12.471H1.482C1.66628 12.4625 1.8471 12.5231 1.989 12.641C2.119 12.754 2.183 12.917 2.183 13.131C2.183 13.341 2.118 13.499 1.989 13.605C1.862 13.71 1.689 13.763 1.471 13.763H0.782ZM4.845 12.615L5.334 14.232H4.32L4.81 12.615H4.845ZM8.851 13.06L8.111 15.849H7.381L6.326 11.85H7.181L7.782 14.753H7.82L8.526 11.85H9.209L9.915 14.753H9.955L10.551 11.85H11.409L10.354 15.849H9.624L8.884 13.06H8.85H8.851Z"/> </svg>