<svg width="16" height="16" viewBox="0 0 16 16" xmlns="http://www.w3.org/2000/svg"> <g clip-path="url(#clip0_34_4150)"> <path fill-rule="evenodd" clip-rule="evenodd" d="M14 4.5V14C14 14.5304 13.7893 15.0391 13.4142 15.4142C13.0391 15.7893 12.5304 16 12 16V15C12.2652 15 12.5195 14.8946 12.7071 14.7071C12.8946 14.5196 13 14.2652 13 14V4.5H11C10.6022 4.5 10.2206 4.34196 9.93932 4.06066C9.65801 3.77936 9.49998 3.39782 9.49998 3V1H3.99998C3.73476 1 3.48041 1.10536 3.29287 1.29289C3.10533 1.48043 2.99998 1.73478 2.99998 2V11H1.99998V2C1.99998 1.46957 2.21069 0.960859 2.58576 0.585786C2.96084 0.210714 3.46954 0 3.99998 0L9.49998 0L14 4.5ZM8.19198 13.054C8.11854 13.2567 8.0836 13.4714 8.08898 13.687V14.182C8.08898 14.428 8.12398 14.637 8.19198 14.809C8.24969 14.9672 8.35392 15.1042 8.49098 15.202C8.63335 15.2923 8.79947 15.3379 8.96798 15.333C9.10708 15.3362 9.24492 15.306 9.36998 15.245C9.48117 15.1881 9.57509 15.1025 9.64198 14.997C9.70982 14.8869 9.74997 14.762 9.75898 14.633H10.524V14.709C10.5145 14.9506 10.436 15.1845 10.298 15.383C10.162 15.577 9.97798 15.728 9.74798 15.837C9.50186 15.9497 9.23361 16.0057 8.96298 16.001C8.60298 16.001 8.29798 15.929 8.04798 15.785C7.79875 15.6387 7.59995 15.42 7.47798 15.158C7.34798 14.886 7.28398 14.561 7.28398 14.182V13.684C7.28398 13.305 7.34898 12.979 7.47998 12.706C7.60998 12.432 7.80098 12.221 8.05098 12.073C8.30298 11.924 8.60698 11.85 8.96298 11.85C9.18098 11.85 9.38298 11.882 9.56898 11.947C9.75598 12.009 9.91898 12.1 10.059 12.219C10.1993 12.3385 10.3131 12.486 10.3931 12.652C10.4732 12.8179 10.5178 12.9988 10.524 13.183V13.256H9.75898C9.74965 13.1216 9.70852 12.9914 9.63898 12.876C9.57388 12.7658 9.4798 12.6755 9.36698 12.615C9.24465 12.5486 9.10714 12.5152 8.96798 12.518C8.7995 12.5138 8.63388 12.562 8.49398 12.656C8.35648 12.7562 8.25146 12.8946 8.19198 13.054ZM0.799977 15.925L1.11298 14.897H2.44998L2.76398 15.925H3.60398L2.26898 11.926H1.34298L0.000976562 15.926H0.800977L0.799977 15.925ZM1.80198 12.691L2.29098 14.308H1.27698L1.76698 12.691H1.80198ZM4.43198 15.925L4.74498 14.897H6.07998L6.39298 15.925H7.23398L5.89998 11.926H4.97398L3.63298 15.926H4.43298L4.43198 15.925ZM5.43298 12.691L5.92298 14.308H4.90898L5.39898 12.691H5.43298Z"/> </g> <defs> <clipPath id="clip0_34_4150"> <rect width="16" height="16"/> </clipPath> </defs> </svg>