<svg width="16" height="16" viewBox="0 0 16 16" xmlns="http://www.w3.org/2000/svg"> <g clip-path="url(#clip0_34_4180)"> <path fill-rule="evenodd" clip-rule="evenodd" d="M13.9999 4.5V11H12.9999V4.5H10.9999C10.602 4.5 10.2205 4.34196 9.93921 4.06066C9.6579 3.77936 9.49987 3.39782 9.49987 3V1H3.99987C3.73465 1 3.4803 1.10536 3.29276 1.29289C3.10522 1.48043 2.99987 1.73478 2.99987 2V11H1.99987V2C1.99987 1.46957 2.21058 0.960859 2.58565 0.585786C2.96073 0.210714 3.46943 0 3.99987 0L9.49987 0L13.9999 4.5ZM4.15087 15.29C4.08451 15.1492 4.04678 14.9965 4.03987 14.841H4.80387C4.81776 14.9191 4.84756 14.9935 4.89143 15.0595C4.9353 15.1256 4.99229 15.1819 5.05887 15.225C5.12887 15.274 5.21287 15.312 5.30887 15.339C5.40387 15.367 5.50987 15.38 5.62787 15.38C5.79187 15.38 5.92887 15.357 6.04087 15.31C6.14285 15.2719 6.23148 15.2048 6.29587 15.117C6.35267 15.0311 6.38197 14.93 6.37987 14.827C6.38281 14.7644 6.37052 14.7021 6.34404 14.6453C6.31757 14.5885 6.2777 14.539 6.22787 14.501C6.12687 14.421 5.97187 14.357 5.76487 14.308L5.14687 14.165C4.95638 14.1247 4.77413 14.0523 4.60787 13.951C4.4609 13.861 4.33965 13.7346 4.25587 13.584C4.1708 13.4227 4.12846 13.2423 4.13287 13.06C4.13287 12.816 4.19687 12.603 4.32287 12.421C4.45087 12.24 4.62687 12.099 4.85087 11.999C5.07587 11.899 5.33487 11.85 5.62787 11.85C5.93187 11.85 6.19187 11.9 6.40687 12.002C6.62387 12.104 6.79087 12.241 6.90687 12.412C7.02687 12.582 7.09287 12.771 7.10687 12.978H6.35687C6.33975 12.8831 6.29841 12.7942 6.23687 12.72C6.17113 12.6402 6.0866 12.578 5.99087 12.539C5.87351 12.4912 5.74756 12.468 5.62087 12.471C5.40487 12.471 5.23387 12.521 5.10887 12.623C5.05007 12.668 5.00269 12.7262 4.97055 12.7929C4.93842 12.8596 4.92242 12.933 4.92387 13.007C4.92387 13.128 4.97187 13.227 5.06787 13.307C5.18734 13.3955 5.32557 13.4554 5.47187 13.482L6.09287 13.625C6.30987 13.675 6.49887 13.745 6.65887 13.836C6.81317 13.9203 6.94251 14.0438 7.03387 14.194C7.12387 14.342 7.16887 14.529 7.16887 14.754C7.16887 15.001 7.10587 15.22 6.98087 15.41C6.84775 15.6057 6.66043 15.7582 6.44187 15.849C6.20787 15.954 5.92187 16.007 5.58387 16.007C5.32987 16.007 5.10787 15.977 4.91887 15.917C4.74472 15.8647 4.58238 15.7792 4.44087 15.665C4.31877 15.5619 4.21993 15.4341 4.15087 15.29ZM1.04687 15.257C0.99169 15.1079 0.963911 14.95 0.964868 14.791H1.72887C1.73095 14.8857 1.75637 14.9785 1.80287 15.061C1.84891 15.1395 1.91555 15.2039 1.99557 15.2473C2.0756 15.2907 2.16595 15.3113 2.25687 15.307C2.44687 15.307 2.58687 15.252 2.67887 15.143C2.76987 15.033 2.81587 14.878 2.81587 14.677V11.932H3.60687V14.657C3.60687 15.097 3.48787 15.431 3.24987 15.662C3.01287 15.892 2.68487 16.007 2.26487 16.007C2.07139 16.0105 1.8789 15.9786 1.69687 15.913C1.54372 15.8545 1.40493 15.7638 1.28987 15.647C1.18324 15.5348 1.10056 15.4021 1.04687 15.257ZM10.1379 13.672V14.194C10.1379 14.45 10.0989 14.664 10.0209 14.835C9.95444 14.9932 9.84232 15.1279 9.69887 15.222C9.55722 15.3075 9.39428 15.3512 9.22887 15.348C9.06349 15.3508 8.90064 15.3072 8.75887 15.222C8.61648 15.1273 8.50518 14.9926 8.43887 14.835C8.35489 14.632 8.31501 14.4135 8.32187 14.194V13.672C8.32187 13.414 8.36087 13.201 8.43887 13.031C8.50518 12.8734 8.61648 12.7387 8.75887 12.644C8.9 12.557 9.0631 12.5122 9.22887 12.515C9.40587 12.515 9.56187 12.558 9.69887 12.644C9.84232 12.7381 9.95444 12.8728 10.0209 13.031C10.0989 13.201 10.1379 13.414 10.1379 13.672ZM10.9409 14.191V13.678C10.9409 13.301 10.8719 12.977 10.7359 12.705C10.6072 12.4403 10.4015 12.2207 10.1459 12.075C9.89287 11.929 9.58687 11.855 9.22987 11.855C8.87387 11.855 8.56787 11.929 8.30987 12.075C8.05412 12.2194 7.84861 12.4385 7.72087 12.703C7.58387 12.974 7.51587 13.299 7.51587 13.678V14.191C7.51587 14.566 7.58387 14.89 7.72087 15.164C7.85787 15.435 8.05387 15.644 8.30987 15.79C8.56787 15.935 8.87387 16.007 9.22987 16.007C9.58687 16.007 9.89287 15.935 10.1469 15.79C10.4029 15.644 10.5989 15.435 10.7359 15.164C10.8719 14.89 10.9409 14.566 10.9409 14.191ZM12.2309 13.256V15.931H11.4849V11.932H12.1469L13.8989 14.592H13.9309V11.932H14.6809V15.932H14.0249L12.2639 13.256H12.2319H12.2309Z"/> </g> <defs> <clipPath id="clip0_34_4180"> <rect width="16" height="16"/> </clipPath> </defs> </svg>