<svg width="16" height="16" viewBox="0 0 16 16" fill="none" xmlns="http://www.w3.org/2000/svg">
<path d="M6.5 7.5C6.5 7.23478 6.60536 6.98043 6.79289 6.79289C6.98043 6.60536 7.23478 6.5 7.5 6.5H8.5C8.76522 6.5 9.01957 6.60536 9.20711 6.79289C9.39464 6.98043 9.5 7.23478 9.5 7.5V8.438L9.9 10.037C9.94984 10.2371 9.93661 10.4476 9.86215 10.6399C9.78768 10.8322 9.6556 10.9967 9.484 11.111L8.554 11.731C8.38977 11.8404 8.19684 11.8988 7.9995 11.8988C7.80216 11.8988 7.60923 11.8404 7.445 11.731L6.515 11.111C6.34358 10.9966 6.21171 10.832 6.13742 10.6397C6.06313 10.4475 6.05006 10.237 6.1 10.037L6.5 8.438V7.5ZM8.5 7.5H7.5V8.438C7.49999 8.51992 7.48992 8.60153 7.47 8.681L7.07 10.279L8 10.899L8.93 10.279L8.53 8.681C8.51008 8.60153 8.50001 8.51992 8.5 8.438V7.5Z" fill="#212529"/>
<path d="M2 2C2 1.46957 2.21071 0.960859 2.58579 0.585786C2.96086 0.210714 3.46957 0 4 0H12C12.5304 0 13.0391 0.210714 13.4142 0.585786C13.7893 0.960859 14 1.46957 14 2V14C14 14.5304 13.7893 15.0391 13.4142 15.4142C13.0391 15.7893 12.5304 16 12 16H4C3.46957 16 2.96086 15.7893 2.58579 15.4142C2.21071 15.0391 2 14.5304 2 14V2ZM7.5 1H4C3.73478 1 3.48043 1.10536 3.29289 1.29289C3.10536 1.48043 3 1.73478 3 2V14C3 14.2652 3.10536 14.5196 3.29289 14.7071C3.48043 14.8946 3.73478 15 4 15H12C12.2652 15 12.5196 14.8946 12.7071 14.7071C12.8946 14.5196 13 14.2652 13 14V2C13 1.73478 12.8946 1.48043 12.7071 1.29289C12.5196 1.10536 12.2652 1 12 1H9V2H8V3H9V4H8V5H9V6H7.5V5H6.5V4H7.5V3H6.5V2H7.5V1Z" fill="#212529"/>
</svg>
