<svg width="16" height="16" viewBox="0 0 16 16" fill="none" xmlns="http://www.w3.org/2000/svg">
<g clip-path="url(#clip0_34_4240)">
<path fill-rule="evenodd" clip-rule="evenodd" d="M14 4.5V11H13V4.5H11C10.6022 4.5 10.2206 4.34196 9.93934 4.06066C9.65804 3.77936 9.5 3.39782 9.5 3V1H4C3.73478 1 3.48043 1.10536 3.29289 1.29289C3.10536 1.48043 3 1.73478 3 2V11H2V2C2 1.46957 2.21071 0.960859 2.58579 0.585786C2.96086 0.210714 3.46957 0 4 0L9.5 0L14 4.5ZM7.86 14.841C7.86573 14.9986 7.90436 15.1532 7.97342 15.2949C8.04248 15.4367 8.14044 15.5624 8.261 15.664C8.391 15.772 8.551 15.856 8.74 15.916C8.93 15.977 9.151 16.007 9.405 16.007C9.743 16.007 10.029 15.954 10.263 15.849C10.5 15.744 10.679 15.597 10.803 15.409C10.9291 15.2138 10.9942 14.9854 10.99 14.753C10.99 14.529 10.945 14.343 10.855 14.193C10.7634 14.0432 10.6341 13.9201 10.48 13.836C10.3032 13.7382 10.1127 13.6675 9.915 13.626L9.294 13.482C9.14726 13.4553 9.00867 13.395 8.889 13.306C8.84356 13.2707 8.80697 13.2253 8.78215 13.1734C8.75732 13.1215 8.74495 13.0645 8.746 13.007C8.746 12.851 8.807 12.723 8.93 12.623C9.055 12.522 9.226 12.471 9.443 12.471C9.586 12.471 9.709 12.494 9.813 12.539C9.90836 12.5782 9.99254 12.6404 10.058 12.72C10.1195 12.7942 10.1609 12.8831 10.178 12.978H10.928C10.9158 12.7745 10.8468 12.5784 10.729 12.412C10.6026 12.2325 10.4298 12.0908 10.229 12.002C9.98344 11.8943 9.71704 11.8424 9.449 11.85C9.156 11.85 8.897 11.9 8.672 12C8.448 12.099 8.272 12.24 8.145 12.421C8.018 12.603 7.955 12.816 7.955 13.06C7.955 13.261 7.995 13.436 8.078 13.584C8.16 13.733 8.277 13.854 8.429 13.951C8.582 14.046 8.761 14.118 8.969 14.164L9.587 14.308C9.794 14.357 9.947 14.421 10.049 14.501C10.099 14.5389 10.1391 14.5883 10.1657 14.6451C10.1924 14.7019 10.2048 14.7643 10.202 14.827C10.2035 14.93 10.1739 15.0311 10.117 15.117C10.0527 15.2048 9.96401 15.2719 9.862 15.31C9.751 15.357 9.612 15.38 9.449 15.38C9.332 15.38 9.225 15.367 9.129 15.34C9.04024 15.3156 8.95611 15.2768 8.88 15.225C8.81343 15.1819 8.75643 15.1256 8.71256 15.0595C8.66869 14.9935 8.63889 14.9191 8.625 14.841H7.861H7.86ZM4.134 11.932H5.027L3.753 13.939L5.007 15.931H4.099L3.249 14.516H3.214L2.361 15.931H1.5L2.74 13.915L1.512 11.932H2.443L3.275 13.37H3.311L4.134 11.932ZM6.057 15.257H7.754V15.931H5.266V11.932H6.057V15.257ZM13.693 11.932H14.586L13.312 13.939L14.566 15.931H13.658L12.808 14.516H12.773L11.92 15.931H11.059L12.299 13.915L11.071 11.932H12.002L12.834 13.37H12.87L13.693 11.932Z" fill="black"/>
</g>
<defs>
<clipPath id="clip0_34_4240">
<rect width="16" height="16" fill="white"/>
</clipPath>
</defs>
</svg>
