<svg width="16" height="16" viewBox="0 0 16 16" xmlns="http://www.w3.org/2000/svg"> <path d="M10.854 7.854C10.9479 7.76011 11.0006 7.63278 11.0006 7.5C11.0006 7.36722 10.9479 7.23989 10.854 7.146C10.7601 7.05211 10.6328 6.99937 10.5 6.99937C10.3672 6.99937 10.2399 7.05211 10.146 7.146L7.5 9.793L6.354 8.646C6.26011 8.55211 6.13278 8.49937 6 8.49937C5.86722 8.49937 5.73989 8.55211 5.646 8.646C5.55211 8.73989 5.49937 8.86722 5.49937 9C5.49937 9.13278 5.55211 9.26011 5.646 9.354L7.146 10.854C7.19245 10.9006 7.24762 10.9375 7.30837 10.9627C7.36911 10.9879 7.43423 11.0009 7.5 11.0009C7.56577 11.0009 7.63089 10.9879 7.69163 10.9627C7.75238 10.9375 7.80755 10.9006 7.854 10.854L10.854 7.854Z"/> <path d="M14 14V4.5L9.5 0H4C3.46957 0 2.96086 0.210714 2.58579 0.585786C2.21071 0.960859 2 1.46957 2 2V14C2 14.5304 2.21071 15.0391 2.58579 15.4142C2.96086 15.7893 3.46957 16 4 16H12C12.5304 16 13.0391 15.7893 13.4142 15.4142C13.7893 15.0391 14 14.5304 14 14ZM9.5 3C9.5 3.39782 9.65804 3.77936 9.93934 4.06066C10.2206 4.34196 10.6022 4.5 11 4.5H13V14C13 14.2652 12.8946 14.5196 12.7071 14.7071C12.5196 14.8946 12.2652 15 12 15H4C3.73478 15 3.48043 14.8946 3.29289 14.7071C3.10536 14.5196 3 14.2652 3 14V2C3 1.73478 3.10536 1.48043 3.29289 1.29289C3.48043 1.10536 3.73478 1 4 1H9.5V3Z"/> </svg>