<svg width="16" height="16" viewBox="0 0 16 16" fill="none" xmlns="http://www.w3.org/2000/svg">
<path fill-rule="evenodd" clip-rule="evenodd" d="M14 4.5V14C14 14.5304 13.7893 15.0391 13.4142 15.4142C13.0391 15.7893 12.5304 16 12 16H9V15H12C12.2652 15 12.5196 14.8946 12.7071 14.7071C12.8946 14.5196 13 14.2652 13 14V4.5H11C10.6022 4.5 10.2206 4.34196 9.93934 4.06066C9.65804 3.77936 9.5 3.39782 9.5 3V1H4C3.73478 1 3.48043 1.10536 3.29289 1.29289C3.10536 1.48043 3 1.73478 3 2V11H2V2C2 1.46957 2.21071 0.960859 2.58579 0.585786C2.96086 0.210714 3.46957 0 4 0L9.5 0L14 4.5ZM0.706 13.189V15.849H0V11.85H0.806L1.946 14.446H1.972L3.112 11.85H3.912V15.849H3.196V13.189H3.158L2.212 15.348H1.696L0.744 13.188H0.706V13.189ZM4.625 15.849V11.85H6.084C6.49 11.85 6.825 11.928 7.089 12.084C7.352 12.241 7.549 12.467 7.678 12.764C7.808 13.061 7.874 13.419 7.874 13.839C7.874 14.261 7.808 14.623 7.678 14.923C7.547 15.224 7.348 15.453 7.083 15.612C6.819 15.77 6.486 15.849 6.083 15.849H4.626H4.625ZM5.978 12.495H5.416V15.202H5.978C6.164 15.202 6.325 15.174 6.462 15.12C6.59372 15.0671 6.70899 14.9801 6.796 14.868C6.88965 14.7423 6.95637 14.5986 6.992 14.446C7.037 14.278 7.059 14.081 7.059 13.854C7.06625 13.598 7.0266 13.3428 6.942 13.101C6.87756 12.9146 6.75304 12.7549 6.588 12.647C6.429 12.545 6.226 12.495 5.978 12.495Z" fill="black"/>
</svg>
