<svg width="16" height="16" viewBox="0 0 16 16" fill="none" xmlns="http://www.w3.org/2000/svg">
<g clip-path="url(#clip0_34_4194)">
<path fill-rule="evenodd" clip-rule="evenodd" d="M14 4.5V14C14 14.5304 13.7893 15.0391 13.4142 15.4142C13.0391 15.7893 12.5304 16 12 16V15C12.2652 15 12.5196 14.8946 12.7071 14.7071C12.8946 14.5196 13 14.2652 13 14V4.5H11C10.6022 4.5 10.2206 4.34196 9.93934 4.06066C9.65804 3.77936 9.5 3.39782 9.5 3V1H4C3.73478 1 3.48043 1.10536 3.29289 1.29289C3.10536 1.48043 3 1.73478 3 2V11H2V2C2 1.46957 2.21071 0.960859 2.58579 0.585786C2.96086 0.210714 3.46957 0 4 0L9.5 0L14 4.5ZM9.089 14.17H8.646V13.561H9.068C9.17967 13.5632 9.29018 13.5381 9.39 13.488C9.48007 13.4425 9.5561 13.3733 9.61 13.288C9.66294 13.203 9.68939 13.1041 9.686 13.004C9.68837 12.9296 9.67376 12.8556 9.64326 12.7877C9.61276 12.7198 9.56719 12.6597 9.51 12.612C9.38623 12.5092 9.2288 12.4557 9.068 12.462C8.98226 12.461 8.89699 12.4748 8.816 12.503C8.74547 12.5285 8.68009 12.5664 8.623 12.615C8.571 12.6579 8.52831 12.711 8.49754 12.7711C8.46676 12.8311 8.44854 12.8967 8.444 12.964H7.71C7.716 12.807 7.75 12.662 7.812 12.527C7.875 12.392 7.965 12.275 8.082 12.175C8.199 12.074 8.342 11.995 8.51 11.938C8.68 11.881 8.874 11.852 9.093 11.85C9.372 11.848 9.613 11.892 9.816 11.982C10.019 12.072 10.176 12.196 10.288 12.354C10.4015 12.5107 10.4621 12.6995 10.461 12.893C10.4701 13.0608 10.4283 13.2274 10.341 13.371C10.2731 13.4824 10.1831 13.5788 10.0767 13.6543C9.97029 13.7297 9.8496 13.7827 9.722 13.81V13.851C9.86583 13.8675 10.0044 13.9149 10.1283 13.9898C10.2522 14.0646 10.3585 14.1653 10.44 14.285C10.5397 14.44 10.5899 14.6217 10.584 14.806C10.586 14.996 10.547 15.165 10.467 15.313C10.3878 15.4626 10.2752 15.5919 10.138 15.691C9.998 15.792 9.836 15.871 9.652 15.925C9.47 15.978 9.276 16.005 9.069 16.005C8.769 16.005 8.511 15.954 8.299 15.852C8.10287 15.7614 7.93468 15.6198 7.812 15.442C7.70219 15.2742 7.64061 15.0794 7.634 14.879H8.36C8.36758 14.9739 8.40464 15.0641 8.466 15.137C8.5339 15.2153 8.61917 15.2766 8.715 15.316C8.82879 15.3604 8.94986 15.3831 9.072 15.383C9.20402 15.386 9.3351 15.3601 9.456 15.307C9.55883 15.2599 9.64621 15.1847 9.708 15.09C9.7688 14.995 9.79947 14.8838 9.796 14.771C9.79842 14.6607 9.76795 14.5521 9.70847 14.4592C9.64899 14.3662 9.56319 14.293 9.462 14.249C9.34603 14.1935 9.21851 14.1664 9.09 14.17H9.089ZM0.706 15.925V13.265H0.744L1.696 15.425H2.212L3.158 13.265H3.196V15.925H3.911V11.926H3.111L1.971 14.522H1.945L0.805 11.926H0V15.926H0.706V15.925ZM6.164 11.926H4.564V15.926H5.356V14.584H6.159C6.446 14.584 6.689 14.526 6.891 14.411C7.094 14.293 7.248 14.135 7.354 13.936C7.46299 13.7272 7.51831 13.4945 7.515 13.259C7.515 13.009 7.462 12.784 7.357 12.582C7.25261 12.3822 7.09292 12.2166 6.897 12.105C6.67365 11.9794 6.42011 11.9175 6.164 11.926ZM6.709 13.259C6.71277 13.3911 6.68356 13.522 6.624 13.64C6.57082 13.7419 6.48825 13.8255 6.387 13.88C6.2706 13.9376 6.14183 13.9658 6.012 13.962H5.352V12.556H6.012C6.231 12.556 6.402 12.616 6.525 12.738C6.648 12.858 6.709 13.033 6.709 13.259Z" fill="black"/>
</g>
<defs>
<clipPath id="clip0_34_4194">
<rect width="16" height="16" fill="white"/>
</clipPath>
</defs>
</svg>
