<svg width="16" height="16" viewBox="0 0 16 16" fill="none" xmlns="http://www.w3.org/2000/svg">
<g clip-path="url(#clip0_34_4192)">
<path fill-rule="evenodd" clip-rule="evenodd" d="M14 4.5V14C14 14.5304 13.7893 15.0391 13.4142 15.4142C13.0391 15.7893 12.5304 16 12 16V15C12.2652 15 12.5196 14.8946 12.7071 14.7071C12.8946 14.5196 13 14.2652 13 14V4.5H11C10.6022 4.5 10.2206 4.34196 9.93934 4.06066C9.65804 3.77936 9.5 3.39782 9.5 3V1H4C3.73478 1 3.48043 1.10536 3.29289 1.29289C3.10536 1.48043 3 1.73478 3 2V11H2V2C2 1.46957 2.21071 0.960859 2.58579 0.585786C2.96086 0.210714 3.46957 0 4 0L9.5 0L14 4.5ZM7.086 13.666V14.188C7.086 14.444 7.046 14.658 6.969 14.829C6.90235 14.9873 6.78986 15.1221 6.646 15.216C6.50493 15.3011 6.34274 15.3448 6.178 15.342C6.01195 15.3452 5.84835 15.3016 5.706 15.216C5.56372 15.1216 5.45243 14.9873 5.386 14.83C5.30188 14.6267 5.262 14.4079 5.269 14.188V13.666C5.269 13.409 5.309 13.195 5.387 13.025C5.45299 12.8675 5.56394 12.7328 5.706 12.638C5.84771 12.5506 6.01155 12.5058 6.178 12.509C6.353 12.509 6.51 12.552 6.646 12.639C6.78971 12.7326 6.90218 12.867 6.969 13.025C7.047 13.195 7.086 13.409 7.086 13.666ZM7.888 14.185V13.672C7.888 13.295 7.82 12.972 7.683 12.7C7.55485 12.4356 7.34992 12.2161 7.095 12.07C6.841 11.923 6.535 11.85 6.178 11.85C5.822 11.85 5.515 11.923 5.258 12.07C5.00203 12.214 4.79618 12.4328 4.668 12.697C4.532 12.968 4.464 13.293 4.464 13.672V14.185C4.464 14.56 4.532 14.885 4.669 15.158C4.805 15.429 5.002 15.638 5.258 15.785C5.515 15.929 5.822 16.001 6.178 16.001C6.535 16.001 6.841 15.929 7.095 15.785C7.35 15.638 7.547 15.429 7.683 15.158C7.82 14.884 7.888 14.56 7.888 14.185ZM0.706 15.925V13.265H0.744L1.696 15.425H2.212L3.158 13.265H3.196V15.925H3.911V11.926H3.111L1.971 14.522H1.945L0.805 11.926H0V15.926H0.706V15.925ZM10.246 15.925H9.294L7.954 11.926H8.872L9.768 15.064H9.806L10.694 11.926H11.573L10.246 15.926V15.925Z" fill="black"/>
</g>
<defs>
<clipPath id="clip0_34_4192">
<rect width="16" height="16" fill="white"/>
</clipPath>
</defs>
</svg>
