<svg width="16" height="16" viewBox="0 0 16 16" fill="none" xmlns="http://www.w3.org/2000/svg">
<g clip-path="url(#clip0_34_4228)">
<path fill-rule="evenodd" clip-rule="evenodd" d="M14 4.5V14C14 14.5304 13.7893 15.0391 13.4142 15.4142C13.0391 15.7893 12.5304 16 12 16H11V15H12C12.2652 15 12.5196 14.8946 12.7071 14.7071C12.8946 14.5196 13 14.2652 13 14V4.5H11C10.6022 4.5 10.2206 4.34196 9.93934 4.06066C9.65804 3.77936 9.5 3.39782 9.5 3V1H4C3.73478 1 3.48043 1.10536 3.29289 1.29289C3.10536 1.48043 3 1.73478 3 2V11H2V2C2 1.46957 2.21071 0.960859 2.58579 0.585786C2.96086 0.210714 3.46957 0 4 0L9.5 0L14 4.5ZM3.172 14.841C3.17772 14.9986 3.21636 15.1532 3.28542 15.2949C3.35448 15.4367 3.45244 15.5624 3.573 15.664C3.702 15.772 3.861 15.856 4.051 15.916C4.24 15.977 4.461 16.007 4.716 16.007C5.054 16.007 5.34 15.954 5.574 15.849C5.81 15.744 5.99 15.597 6.114 15.409C6.24011 15.2138 6.30521 14.9854 6.301 14.753C6.301 14.529 6.256 14.343 6.166 14.193C6.07447 14.0432 5.94515 13.9201 5.791 13.836C5.61387 13.7381 5.42309 13.6674 5.225 13.626L4.605 13.482C4.45826 13.4553 4.31967 13.395 4.2 13.306C4.15437 13.2708 4.1176 13.2255 4.0926 13.1736C4.0676 13.1216 4.05507 13.0646 4.056 13.007C4.056 12.851 4.118 12.723 4.241 12.623C4.366 12.522 4.537 12.471 4.754 12.471C4.896 12.471 5.019 12.494 5.123 12.539C5.21873 12.578 5.30326 12.6402 5.369 12.72C5.43055 12.7942 5.47188 12.8831 5.489 12.978H6.239C6.22652 12.7744 6.15723 12.5783 6.039 12.412C5.91261 12.2325 5.73977 12.0908 5.539 12.002C5.29344 11.8943 5.02704 11.8424 4.759 11.85C4.467 11.85 4.208 11.9 3.983 12C3.759 12.099 3.583 12.24 3.456 12.421C3.329 12.603 3.266 12.816 3.266 13.06C3.266 13.261 3.306 13.436 3.388 13.584C3.471 13.733 3.588 13.854 3.74 13.951C3.892 14.046 4.072 14.118 4.28 14.164L4.897 14.308C5.104 14.357 5.259 14.421 5.36 14.501C5.40983 14.539 5.4497 14.5885 5.47618 14.6453C5.50265 14.7021 5.51495 14.7644 5.512 14.827C5.51385 14.9299 5.48457 15.031 5.428 15.117C5.36361 15.2048 5.27498 15.2719 5.173 15.31C5.04129 15.3603 4.90093 15.3841 4.76 15.38C4.642 15.38 4.536 15.367 4.44 15.34C4.35124 15.3156 4.26711 15.2768 4.191 15.225C4.12443 15.1819 4.06743 15.1256 4.02356 15.0595C3.97969 14.9935 3.94989 14.9191 3.936 14.841H3.172ZM1.928 15.931V12.594H3.064V11.932H0V12.594H1.134V15.931H1.928ZM9.004 11.932H9.897L8.623 13.939L9.877 15.931H8.968L8.118 14.516H8.084L7.231 15.931H6.37L7.609 13.915L6.381 11.932H7.313L8.145 13.37H8.18L9.004 11.932Z" fill="black"/>
</g>
<defs>
<clipPath id="clip0_34_4228">
<rect width="16" height="16" fill="white"/>
</clipPath>
</defs>
</svg>
