<svg width="16" height="16" viewBox="0 0 16 16" xmlns="http://www.w3.org/2000/svg"> <g clip-path="url(#clip0_34_4160)"> <path fill-rule="evenodd" clip-rule="evenodd" d="M14 4.5V14C14 14.5304 13.7893 15.0391 13.4142 15.4142C13.0391 15.7893 12.5304 16 12 16H11V15H12C12.2652 15 12.5196 14.8946 12.7071 14.7071C12.8946 14.5196 13 14.2652 13 14V4.5H11C10.6022 4.5 10.2206 4.34196 9.93934 4.06066C9.65804 3.77936 9.5 3.39782 9.5 3V1H4C3.73478 1 3.48043 1.10536 3.29289 1.29289C3.10536 1.48043 3 1.73478 3 2V11H2V2C2 1.46957 2.21071 0.960859 2.58579 0.585786C2.96086 0.210714 3.46957 0 4 0L9.5 0L14 4.5ZM3.517 14.841C3.52272 14.9986 3.56136 15.1532 3.63042 15.2949C3.69948 15.4367 3.79744 15.5624 3.918 15.664C4.048 15.772 4.207 15.856 4.396 15.916C4.586 15.977 4.807 16.007 5.061 16.007C5.399 16.007 5.685 15.954 5.92 15.849C6.156 15.744 6.336 15.597 6.459 15.409C6.584 15.22 6.646 15.001 6.646 14.753C6.646 14.529 6.601 14.343 6.512 14.193C6.42047 14.0432 6.29115 13.9201 6.137 13.836C5.95987 13.7381 5.76909 13.6674 5.571 13.626L4.95 13.482C4.80361 13.4551 4.66538 13.3949 4.546 13.306C4.50037 13.2708 4.4636 13.2255 4.4386 13.1736C4.4136 13.1216 4.40106 13.0646 4.402 13.007C4.402 12.851 4.464 12.723 4.587 12.623C4.712 12.522 4.883 12.471 5.099 12.471C5.242 12.471 5.365 12.494 5.469 12.539C5.56473 12.578 5.64926 12.6402 5.715 12.72C5.77655 12.7942 5.81788 12.8831 5.835 12.978H6.585C6.57252 12.7744 6.50323 12.5783 6.385 12.412C6.25861 12.2325 6.08577 12.0908 5.885 12.002C5.63944 11.8943 5.37304 11.8424 5.105 11.85C4.812 11.85 4.554 11.9 4.329 12C4.104 12.099 3.929 12.24 3.802 12.421C3.675 12.603 3.612 12.816 3.612 13.06C3.612 13.261 3.652 13.436 3.734 13.584C3.816 13.733 3.934 13.854 4.086 13.951C4.238 14.046 4.418 14.118 4.625 14.164L5.243 14.308C5.45 14.357 5.604 14.421 5.706 14.501C5.75583 14.539 5.7957 14.5885 5.82218 14.6453C5.84865 14.7021 5.86095 14.7644 5.858 14.827C5.85993 14.9301 5.83027 15.0313 5.773 15.117C5.70861 15.2048 5.61998 15.2719 5.518 15.31C5.407 15.357 5.269 15.38 5.105 15.38C4.988 15.38 4.882 15.367 4.785 15.34C4.6966 15.3155 4.61281 15.2766 4.537 15.225C4.47043 15.1819 4.41343 15.1256 4.36956 15.0595C4.32569 14.9935 4.29589 14.9191 4.282 14.841H3.517ZM0.806 13.693C0.806 13.445 0.84 13.233 0.908 13.06C0.967315 12.9002 1.07235 12.7615 1.21 12.661C1.3503 12.5672 1.51629 12.5193 1.685 12.524C1.835 12.524 1.968 12.556 2.083 12.621C2.1957 12.6812 2.28976 12.7711 2.355 12.881C2.4247 12.9967 2.46583 13.1273 2.475 13.262H3.24V13.19C3.23337 13.0058 3.18851 12.825 3.10829 12.659C3.02807 12.4931 2.91423 12.3456 2.774 12.226C2.63034 12.1043 2.46421 12.0118 2.285 11.954C2.08986 11.8879 1.88501 11.8551 1.679 11.857C1.323 11.857 1.019 11.931 0.768 12.08C0.518 12.228 0.328 12.439 0.196 12.712C0.066 12.986 0 13.312 0 13.691V14.189C0 14.568 0.064 14.893 0.193 15.165C0.324 15.436 0.515 15.645 0.765 15.791C1.015 15.936 1.319 16.008 1.679 16.008C1.972 16.008 2.233 15.953 2.464 15.844C2.694 15.734 2.878 15.584 3.014 15.39C3.15196 15.1914 3.23036 14.9576 3.24 14.716V14.64H2.476C2.46657 14.7688 2.42608 14.8933 2.358 15.003C2.29136 15.1092 2.19742 15.1955 2.086 15.253C1.96113 15.3134 1.82368 15.3432 1.685 15.34C1.51605 15.3448 1.34955 15.2988 1.207 15.208C1.07006 15.1105 0.96583 14.9738 0.908 14.816C0.834883 14.6153 0.800278 14.4026 0.806 14.189V13.694V13.693ZM9.045 15.931H8.092L6.754 11.932H7.671L8.567 15.07H8.605L9.493 11.932H10.372L9.045 15.932V15.931Z"/> </g> <defs> <clipPath id="clip0_34_4160"> <rect width="16" height="16"/> </clipPath> </defs> </svg>