<svg width="16" height="16" viewBox="0 0 16 16" xmlns="http://www.w3.org/2000/svg"> <path d="M8.5 11.5C8.5 11.6326 8.44732 11.7598 8.35355 11.8536C8.25979 11.9473 8.13261 12 8 12C7.86739 12 7.74021 11.9473 7.64645 11.8536C7.55268 11.7598 7.5 11.6326 7.5 11.5V7.707L6.354 8.854C6.26011 8.94789 6.13278 9.00063 6 9.00063C5.86722 9.00063 5.73989 8.94789 5.646 8.854C5.55211 8.76011 5.49937 8.63278 5.49937 8.5C5.49937 8.36722 5.55211 8.23989 5.646 8.146L7.646 6.146C7.69245 6.09944 7.74762 6.06249 7.80837 6.03729C7.86911 6.01208 7.93423 5.99911 8 5.99911C8.06577 5.99911 8.13089 6.01208 8.19163 6.03729C8.25238 6.06249 8.30755 6.09944 8.354 6.146L10.354 8.146C10.4479 8.23989 10.5006 8.36722 10.5006 8.5C10.5006 8.63278 10.4479 8.76011 10.354 8.854C10.2601 8.94789 10.1328 9.00063 10 9.00063C9.86722 9.00063 9.73989 8.94789 9.646 8.854L8.5 7.707V11.5Z"/> <path d="M14 14V4.5L9.5 0H4C3.46957 0 2.96086 0.210714 2.58579 0.585786C2.21071 0.960859 2 1.46957 2 2V14C2 14.5304 2.21071 15.0391 2.58579 15.4142C2.96086 15.7893 3.46957 16 4 16H12C12.5304 16 13.0391 15.7893 13.4142 15.4142C13.7893 15.0391 14 14.5304 14 14ZM9.5 3C9.5 3.39782 9.65804 3.77936 9.93934 4.06066C10.2206 4.34196 10.6022 4.5 11 4.5H13V14C13 14.2652 12.8946 14.5196 12.7071 14.7071C12.5196 14.8946 12.2652 15 12 15H4C3.73478 15 3.48043 14.8946 3.29289 14.7071C3.10536 14.5196 3 14.2652 3 14V2C3 1.73478 3.10536 1.48043 3.29289 1.29289C3.48043 1.10536 3.73478 1 4 1H9.5V3Z"/> </svg>