<svg width="16" height="16" viewBox="0 0 16 16" fill="none" xmlns="http://www.w3.org/2000/svg">
<g clip-path="url(#clip0_34_4158)">
<path fill-rule="evenodd" clip-rule="evenodd" d="M14 4.5V14C14 14.5304 13.7893 15.0391 13.4142 15.4142C13.0391 15.7893 12.5304 16 12 16H11V15H12C12.2652 15 12.5196 14.8946 12.7071 14.7071C12.8946 14.5196 13 14.2652 13 14V4.5H11C10.6022 4.5 10.2206 4.34196 9.93934 4.06066C9.65804 3.77936 9.5 3.39782 9.5 3V1H4C3.73478 1 3.48043 1.10536 3.29289 1.29289C3.10536 1.48043 3 1.73478 3 2V11H2V2C2 1.46957 2.21071 0.960859 2.58579 0.585786C2.96086 0.210714 3.46957 0 4 0L9.5 0L14 4.5ZM3.397 14.841C3.40272 14.9986 3.44136 15.1532 3.51042 15.2949C3.57948 15.4367 3.67744 15.5624 3.798 15.664C3.928 15.772 4.087 15.856 4.276 15.916C4.466 15.977 4.687 16.007 4.941 16.007C5.279 16.007 5.565 15.954 5.8 15.849C6.036 15.744 6.216 15.597 6.339 15.409C6.464 15.22 6.526 15.001 6.526 14.753C6.526 14.529 6.481 14.343 6.392 14.193C6.30047 14.0432 6.17115 13.9201 6.017 13.836C5.83987 13.7381 5.64909 13.6674 5.451 13.626L4.83 13.482C4.68361 13.4551 4.54538 13.3949 4.426 13.306C4.38037 13.2708 4.3436 13.2255 4.3186 13.1736C4.2936 13.1216 4.28106 13.0646 4.282 13.007C4.282 12.851 4.344 12.723 4.467 12.623C4.592 12.522 4.763 12.471 4.979 12.471C5.122 12.471 5.245 12.494 5.349 12.539C5.44473 12.578 5.52926 12.6402 5.595 12.72C5.65655 12.7942 5.69788 12.8831 5.715 12.978H6.465C6.45252 12.7744 6.38323 12.5783 6.265 12.412C6.13861 12.2325 5.96577 12.0908 5.765 12.002C5.51944 11.8943 5.25304 11.8424 4.985 11.85C4.692 11.85 4.434 11.9 4.209 12C3.984 12.099 3.809 12.24 3.682 12.421C3.555 12.603 3.492 12.816 3.492 13.06C3.492 13.261 3.532 13.436 3.614 13.584C3.696 13.733 3.814 13.854 3.966 13.951C4.118 14.046 4.298 14.118 4.505 14.164L5.123 14.308C5.33 14.357 5.484 14.421 5.586 14.501C5.63583 14.539 5.6757 14.5885 5.70218 14.6453C5.72865 14.7021 5.74095 14.7644 5.738 14.827C5.73993 14.9301 5.71027 15.0313 5.653 15.117C5.58861 15.2048 5.49998 15.2719 5.398 15.31C5.287 15.357 5.149 15.38 4.985 15.38C4.868 15.38 4.762 15.367 4.665 15.34C4.5766 15.3155 4.49281 15.2766 4.417 15.225C4.35043 15.1819 4.29343 15.1256 4.24956 15.0595C4.20569 14.9935 4.17589 14.9191 4.162 14.841H3.397ZM0.806 13.693C0.806 13.445 0.84 13.233 0.908 13.06C0.967315 12.9002 1.07235 12.7615 1.21 12.661C1.3503 12.5672 1.51629 12.5193 1.685 12.524C1.835 12.524 1.968 12.556 2.083 12.621C2.1957 12.6812 2.28976 12.7711 2.355 12.881C2.4247 12.9967 2.46583 13.1273 2.475 13.262H3.24V13.19C3.23337 13.0058 3.18851 12.825 3.10829 12.659C3.02807 12.4931 2.91423 12.3456 2.774 12.226C2.63034 12.1043 2.46421 12.0118 2.285 11.954C2.08986 11.8879 1.88501 11.8551 1.679 11.857C1.323 11.857 1.019 11.931 0.768 12.08C0.518 12.228 0.328 12.439 0.196 12.712C0.066 12.986 0 13.312 0 13.691V14.189C0 14.568 0.064 14.893 0.193 15.165C0.324 15.436 0.515 15.645 0.765 15.791C1.015 15.936 1.319 16.008 1.679 16.008C1.972 16.008 2.233 15.953 2.464 15.844C2.694 15.734 2.878 15.584 3.014 15.39C3.15196 15.1914 3.23036 14.9576 3.24 14.716V14.64H2.476C2.46657 14.7688 2.42608 14.8933 2.358 15.003C2.29136 15.1092 2.19742 15.1955 2.086 15.253C1.96113 15.3134 1.82368 15.3432 1.685 15.34C1.51605 15.3448 1.34955 15.2988 1.207 15.208C1.07006 15.1105 0.96583 14.9738 0.908 14.816C0.834883 14.6153 0.800278 14.4026 0.806 14.189V13.694V13.693ZM6.78 15.29C6.71364 15.1492 6.67591 14.9965 6.669 14.841H7.433C7.44689 14.9191 7.47669 14.9935 7.52056 15.0595C7.56443 15.1256 7.62143 15.1819 7.688 15.225C7.758 15.274 7.842 15.312 7.938 15.339C8.033 15.367 8.139 15.38 8.257 15.38C8.421 15.38 8.558 15.357 8.67 15.31C8.77198 15.2719 8.86061 15.2048 8.925 15.117C8.98215 15.0312 9.0118 14.9301 9.01 14.827C9.01283 14.7643 9.00038 14.7019 8.97373 14.6451C8.94708 14.5883 8.90702 14.5389 8.857 14.501C8.756 14.421 8.601 14.357 8.394 14.308L7.776 14.165C7.58552 14.1247 7.40326 14.0523 7.237 13.951C7.09037 13.8609 6.96947 13.7345 6.886 13.584C6.80094 13.4227 6.75859 13.2423 6.763 13.06C6.763 12.816 6.826 12.603 6.953 12.421C7.08 12.24 7.256 12.099 7.48 11.999C7.705 11.899 7.964 11.85 8.257 11.85C8.561 11.85 8.821 11.9 9.036 12.002C9.253 12.104 9.42 12.241 9.536 12.412C9.656 12.582 9.723 12.771 9.736 12.978H8.986C8.96888 12.8831 8.92755 12.7942 8.866 12.72C8.80026 12.6402 8.71573 12.578 8.62 12.539C8.50264 12.4912 8.37669 12.468 8.25 12.471C8.034 12.471 7.863 12.521 7.738 12.623C7.67939 12.6681 7.6322 12.7264 7.60024 12.7931C7.56828 12.8598 7.55244 12.9331 7.554 13.007C7.554 13.128 7.601 13.227 7.697 13.307C7.81647 13.3955 7.9547 13.4554 8.101 13.482L8.722 13.625C8.939 13.675 9.128 13.745 9.288 13.836C9.448 13.926 9.573 14.046 9.663 14.194C9.753 14.342 9.798 14.529 9.798 14.754C9.798 15.001 9.735 15.22 9.61 15.41C9.47688 15.6057 9.28956 15.7582 9.071 15.849C8.837 15.954 8.551 16.007 8.213 16.007C7.959 16.007 7.737 15.977 7.548 15.917C7.37385 15.8647 7.21151 15.7792 7.07 15.665C6.94791 15.5619 6.84906 15.4341 6.78 15.29Z" fill="black"/>
</g>
<defs>
<clipPath id="clip0_34_4158">
<rect width="16" height="16" fill="white"/>
</clipPath>
</defs>
</svg>
