<svg width="16" height="16" viewBox="0 0 16 16" fill="none" xmlns="http://www.w3.org/2000/svg">
<path d="M5.18 4.616C5.28186 4.53117 5.41324 4.49026 5.54525 4.50226C5.67726 4.51426 5.79911 4.57819 5.884 4.68L8 7.219L10.116 4.679C10.201 4.57716 10.323 4.51325 10.4551 4.50134C10.5872 4.48943 10.7187 4.5305 10.8205 4.6155C10.9223 4.7005 10.9862 4.82248 10.9982 4.9546C11.0101 5.08672 10.969 5.21816 10.884 5.32L8.651 8L10.884 10.68C10.9651 10.7823 11.0031 10.9122 10.9897 11.042C10.9763 11.1719 10.9127 11.2913 10.8124 11.3749C10.7121 11.4585 10.5832 11.4995 10.453 11.4892C10.3229 11.479 10.2019 11.4182 10.116 11.32L8 8.781L5.884 11.321C5.799 11.4228 5.67702 11.4867 5.5449 11.4987C5.41278 11.5106 5.28134 11.4695 5.1795 11.3845C5.07766 11.2995 5.01375 11.1775 5.00184 11.0454C4.98993 10.9133 5.031 10.7818 5.116 10.68L7.349 8L5.116 5.32C5.03117 5.21814 4.99026 5.08676 5.00226 4.95475C5.01426 4.82274 5.07819 4.70089 5.18 4.616Z" fill="#212529"/>
<path d="M4 0C3.46957 0 2.96086 0.210714 2.58579 0.585786C2.21071 0.960859 2 1.46957 2 2V14C2 14.5304 2.21071 15.0391 2.58579 15.4142C2.96086 15.7893 3.46957 16 4 16H12C12.5304 16 13.0391 15.7893 13.4142 15.4142C13.7893 15.0391 14 14.5304 14 14V2C14 1.46957 13.7893 0.960859 13.4142 0.585786C13.0391 0.210714 12.5304 0 12 0H4ZM4 1H12C12.2652 1 12.5196 1.10536 12.7071 1.29289C12.8946 1.48043 13 1.73478 13 2V14C13 14.2652 12.8946 14.5196 12.7071 14.7071C12.5196 14.8946 12.2652 15 12 15H4C3.73478 15 3.48043 14.8946 3.29289 14.7071C3.10536 14.5196 3 14.2652 3 14V2C3 1.73478 3.10536 1.48043 3.29289 1.29289C3.48043 1.10536 3.73478 1 4 1Z" fill="#212529"/>
</svg>
