<svg width="16" height="16" viewBox="0 0 16 16" xmlns="http://www.w3.org/2000/svg"> <path fill-rule="evenodd" clip-rule="evenodd" d="M14 4.5V11H13V4.5H11C10.6022 4.5 10.2206 4.34196 9.93933 4.06066C9.65802 3.77936 9.49999 3.39782 9.49999 3V1H3.99999C3.73477 1 3.48042 1.10536 3.29288 1.29289C3.10534 1.48043 2.99999 1.73478 2.99999 2V11H1.99999V2C1.99999 1.46957 2.2107 0.960859 2.58577 0.585786C2.96085 0.210714 3.46955 0 3.99999 0L9.49999 0L14 4.5ZM1.52099 15.175C1.46583 15.0259 1.43805 14.868 1.43899 14.709H2.20399C2.20581 14.8036 2.23088 14.8963 2.27699 14.979C2.32303 15.0575 2.38967 15.1219 2.46969 15.1653C2.54972 15.2087 2.64007 15.2293 2.73099 15.225C2.92099 15.225 3.06099 15.17 3.15299 15.061C3.24499 14.951 3.29099 14.796 3.29099 14.595V11.85H4.08099V14.575C4.08099 15.015 3.96299 15.349 3.72399 15.58C3.48799 15.81 3.15999 15.925 2.73999 15.925C2.54651 15.9285 2.35402 15.8966 2.17199 15.831C2.01847 15.7726 1.87932 15.6819 1.76399 15.565C1.65733 15.4529 1.57465 15.3202 1.52099 15.175ZM5.49299 14.821L5.17899 15.849H4.37899L5.72099 11.85H6.64699L7.98299 15.849H7.14299L6.82899 14.821H5.49299ZM6.67099 14.231L6.18099 12.615H6.14599L5.65599 14.232H6.67099V14.231ZM9.01299 15.849H9.96499L11.292 11.85H10.414L9.52599 14.988H9.48799L8.58999 11.85H7.67299L9.01299 15.849ZM12.1 14.821L11.786 15.849H10.986L12.328 11.85H13.254L14.59 15.849H13.75L13.436 14.821H12.1ZM13.278 14.231L12.788 12.615H12.753L12.263 14.232H13.278V14.231Z"/> </svg>