<svg width="16" height="16" viewBox="0 0 16 16" xmlns="http://www.w3.org/2000/svg"> <path fill-rule="evenodd" clip-rule="evenodd" d="M14 4.5V14C14 14.5304 13.7893 15.0391 13.4142 15.4142C13.0391 15.7893 12.5304 16 12 16H7V15H12C12.2652 15 12.5196 14.8946 12.7071 14.7071C12.8946 14.5196 13 14.2652 13 14V4.5H11C10.6022 4.5 10.2206 4.34196 9.93934 4.06066C9.65804 3.77936 9.5 3.39782 9.5 3V1H4C3.73478 1 3.48043 1.10536 3.29289 1.29289C3.10536 1.48043 3 1.73478 3 2V11H2V2C2 1.46957 2.21071 0.960859 2.58579 0.585786C2.96086 0.210714 3.46957 0 4 0L9.5 0L14 4.5ZM0 11.85H1.6C1.889 11.85 2.133 11.91 2.332 12.029C2.533 12.146 2.687 12.305 2.792 12.506C2.897 12.707 2.95 12.933 2.95 13.183C2.95 13.433 2.896 13.659 2.79 13.86C2.684 14.059 2.53 14.217 2.326 14.334C2.10143 14.455 1.84896 14.5146 1.594 14.507H0.79V15.849H0V11.85ZM2.06 13.564C2.11956 13.446 2.14877 13.3151 2.145 13.183C2.145 12.956 2.083 12.783 1.96 12.662C1.837 12.54 1.666 12.48 1.447 12.48H0.788V13.886H1.448C1.57749 13.8896 1.70589 13.8614 1.822 13.804C1.92362 13.7497 2.00655 13.6661 2.06 13.564ZM5.023 14.314V15.849H4.23V14.329L2.89 11.85H3.766L4.619 13.546H4.651L5.507 11.85H6.362L5.023 14.314Z"/> </svg>