<svg width="16" height="16" viewBox="0 0 16 16" xmlns="http://www.w3.org/2000/svg"> <path fill-rule="evenodd" clip-rule="evenodd" d="M14 4.5V14C14 14.5304 13.7893 15.0391 13.4142 15.4142C13.0391 15.7893 12.5304 16 12 16H10V15H12C12.2652 15 12.5196 14.8946 12.7071 14.7071C12.8946 14.5196 13 14.2652 13 14V4.5H11C10.6022 4.5 10.2206 4.34196 9.93934 4.06066C9.65804 3.77936 9.5 3.39782 9.5 3V1H4C3.73478 1 3.48043 1.10536 3.29289 1.29289C3.10536 1.48043 3 1.73478 3 2V11H2V2C2 1.46957 2.21071 0.960859 2.58579 0.585786C2.96086 0.210714 3.46957 0 4 0L9.5 0L14 4.5ZM1.928 15.849V12.512H3.064V11.85H0V12.512H1.134V15.849H1.928ZM6.617 11.85H5.723L4.9 13.289H4.865L4.033 11.85H3.101L4.329 13.833L3.089 15.849H3.951L4.804 14.434H4.839L5.689 15.849H6.596L5.343 13.857L6.617 11.85ZM8.547 12.512V15.849H7.753V12.512H6.619V11.85H9.683V12.512H8.546H8.547Z"/> </svg>