<svg width="16" height="16" viewBox="0 0 16 16" fill="none" xmlns="http://www.w3.org/2000/svg">
<g clip-path="url(#clip0_34_4238)">
<path fill-rule="evenodd" clip-rule="evenodd" d="M14 4.5V14C14 14.5304 13.7893 15.0391 13.4142 15.4142C13.0391 15.7893 12.5304 16 12 16H11V15H12C12.2652 15 12.5196 14.8946 12.7071 14.7071C12.8946 14.5196 13 14.2652 13 14V4.5H11C10.6022 4.5 10.2206 4.34196 9.93934 4.06066C9.65804 3.77936 9.5 3.39782 9.5 3V1H4C3.73478 1 3.48043 1.10536 3.29289 1.29289C3.10536 1.48043 3 1.73478 3 2V11H2V2C2 1.46957 2.21071 0.960859 2.58579 0.585786C2.96086 0.210714 3.46957 0 4 0L9.5 0L14 4.5ZM6.472 15.29C6.40564 15.1492 6.36791 14.9965 6.361 14.841H7.126C7.13977 14.919 7.16942 14.9933 7.21312 15.0594C7.25681 15.1254 7.31361 15.1818 7.38 15.225C7.45 15.274 7.534 15.312 7.63 15.339C7.725 15.367 7.832 15.38 7.949 15.38C8.113 15.38 8.251 15.357 8.362 15.31C8.46398 15.2719 8.55261 15.2048 8.617 15.117C8.67415 15.0312 8.7038 14.9301 8.702 14.827C8.70483 14.7643 8.69238 14.7019 8.66573 14.6451C8.63908 14.5883 8.59902 14.5389 8.549 14.501C8.448 14.421 8.294 14.357 8.087 14.308L7.468 14.165C7.27752 14.1247 7.09526 14.0523 6.929 13.951C6.7824 13.8609 6.66151 13.7345 6.578 13.584C6.49294 13.4227 6.45059 13.2423 6.455 13.06C6.455 12.816 6.518 12.603 6.645 12.421C6.772 12.24 6.948 12.099 7.172 11.999C7.397 11.899 7.656 11.85 7.949 11.85C8.254 11.85 8.513 11.9 8.729 12.002C8.945 12.104 9.112 12.241 9.229 12.412C9.349 12.582 9.415 12.771 9.429 12.978H8.679C8.66188 12.8831 8.62055 12.7942 8.559 12.72C8.49295 12.6401 8.40807 12.5779 8.312 12.539C8.19495 12.4913 8.06936 12.4682 7.943 12.471C7.726 12.471 7.555 12.521 7.43 12.623C7.37139 12.6681 7.3242 12.7264 7.29224 12.7931C7.26028 12.8598 7.24444 12.9331 7.246 13.007C7.246 13.128 7.294 13.227 7.389 13.307C7.50877 13.3957 7.64735 13.4556 7.794 13.482L8.414 13.625C8.631 13.675 8.82 13.745 8.98 13.836C9.1343 13.9203 9.26365 14.0438 9.355 14.194C9.445 14.342 9.49 14.529 9.49 14.754C9.49 15.001 9.427 15.22 9.302 15.41C9.16888 15.6057 8.98156 15.7582 8.763 15.849C8.529 15.954 8.243 16.007 7.905 16.007C7.651 16.007 7.429 15.977 7.24 15.917C7.06585 15.8647 6.90351 15.7792 6.762 15.665C6.63991 15.5619 6.54106 15.4341 6.472 15.29ZM3.527 11.932H2.634L1.81 13.37H1.774L0.942 11.932H0.012L1.239 13.915L0 15.931H0.861L1.714 14.516H1.749L2.599 15.931H3.507L2.253 13.94L3.527 11.933V11.932ZM6.254 15.257H4.557V11.932H3.767V15.932H6.254V15.257Z" fill="black"/>
</g>
<defs>
<clipPath id="clip0_34_4238">
<rect width="16" height="16" fill="white"/>
</clipPath>
</defs>
</svg>
