<svg width="16" height="16" viewBox="0 0 16 16" fill="none" xmlns="http://www.w3.org/2000/svg">
<g clip-path="url(#clip0_34_4204)">
<path fill-rule="evenodd" clip-rule="evenodd" d="M14 4.5V14C14 14.5304 13.7893 15.0391 13.4142 15.4142C13.0391 15.7893 12.5304 16 12 16V15C12.2652 15 12.5196 14.8946 12.7071 14.7071C12.8946 14.5196 13 14.2652 13 14V4.5H11C10.6022 4.5 10.2206 4.34196 9.93934 4.06066C9.65804 3.77936 9.5 3.39782 9.5 3V1H4C3.73478 1 3.48043 1.10536 3.29289 1.29289C3.10536 1.48043 3 1.73478 3 2V11H2V2C2 1.46957 2.21071 0.960859 2.58579 0.585786C2.96086 0.210714 3.46957 0 4 0L9.5 0L14 4.5ZM10.24 12.632C10.316 12.785 10.363 12.949 10.38 13.124H9.604C9.58591 13.0361 9.55312 12.9519 9.507 12.875C9.46265 12.8016 9.40499 12.7372 9.337 12.685C9.26677 12.6283 9.18632 12.5855 9.1 12.559C9.00328 12.5286 8.90236 12.5138 8.801 12.515C8.516 12.515 8.295 12.615 8.136 12.817C7.98 13.018 7.902 13.301 7.902 13.667V14.165C7.902 14.399 7.934 14.604 7.999 14.78C8.05714 14.9448 8.16296 15.0885 8.303 15.193C8.45618 15.2954 8.6379 15.3465 8.822 15.339C8.97989 15.3448 9.1368 15.3119 9.279 15.243C9.39319 15.183 9.48763 15.0913 9.551 14.979C9.611 14.869 9.642 14.749 9.642 14.616V14.361H8.82V13.771H10.396V14.569C10.396 14.762 10.364 14.946 10.299 15.119C10.235 15.2907 10.1351 15.4469 10.006 15.577C9.86549 15.7158 9.69663 15.8226 9.511 15.89C9.314 15.964 9.081 16.001 8.814 16.001C8.55681 16.0063 8.30104 15.9615 8.061 15.869C7.85693 15.7856 7.67463 15.6566 7.528 15.492C7.38155 15.3234 7.27249 15.1258 7.208 14.912C7.13535 14.6704 7.09994 14.4192 7.103 14.167V13.661C7.103 13.299 7.17 12.983 7.303 12.711C7.437 12.44 7.631 12.229 7.885 12.078C8.141 11.926 8.45 11.85 8.811 11.85C9.049 11.85 9.261 11.883 9.447 11.95C9.634 12.016 9.795 12.108 9.927 12.225C10.06 12.342 10.165 12.478 10.241 12.632H10.24ZM1.6 11.926H0V15.926H0.791V14.583H1.594C1.881 14.583 2.125 14.526 2.326 14.411C2.529 14.293 2.684 14.135 2.789 13.936C2.89799 13.7272 2.95331 13.4945 2.95 13.259C2.95 13.009 2.897 12.784 2.792 12.582C2.68756 12.3822 2.52789 12.2166 2.332 12.105C2.132 11.985 1.889 11.926 1.6 11.926ZM2.145 13.259C2.14877 13.3911 2.11956 13.522 2.06 13.64C2.00655 13.7421 1.92362 13.8257 1.822 13.88C1.70559 13.9376 1.57683 13.9657 1.447 13.962H0.788V12.556H1.448C1.666 12.556 1.837 12.616 1.96 12.738C2.083 12.858 2.145 13.033 2.145 13.259ZM4.109 15.925V13.25H4.141L5.902 15.925H6.558V11.926H5.808V14.586H5.776L4.024 11.926H3.362V15.926H4.109V15.925Z" fill="black"/>
</g>
<defs>
<clipPath id="clip0_34_4204">
<rect width="16" height="16" fill="white"/>
</clipPath>
</defs>
</svg>
