<svg width="16" height="16" viewBox="0 0 16 16" fill="none" xmlns="http://www.w3.org/2000/svg">
<path d="M14 4.5V14C14 14.5304 13.7893 15.0391 13.4142 15.4142C13.0391 15.7893 12.5304 16 12 16H4C3.46957 16 2.96086 15.7893 2.58579 15.4142C2.21071 15.0391 2 14.5304 2 14V2C2 1.46957 2.21071 0.960859 2.58579 0.585786C2.96086 0.210714 3.46957 0 4 0H9.5L14 4.5ZM11 4.5C10.6022 4.5 10.2206 4.34196 9.93934 4.06066C9.65804 3.77936 9.5 3.39782 9.5 3V1H4C3.73478 1 3.48043 1.10536 3.29289 1.29289C3.10536 1.48043 3 1.73478 3 2V14C3 14.2652 3.10536 14.5196 3.29289 14.7071C3.48043 14.8946 3.73478 15 4 15H12C12.2652 15 12.5196 14.8946 12.7071 14.7071C12.8946 14.5196 13 14.2652 13 14V4.5H11Z" fill="#212529"/>
<path d="M8.646 6.646C8.69245 6.59944 8.74762 6.56249 8.80837 6.53729C8.86911 6.51208 8.93423 6.49911 9 6.49911C9.06577 6.49911 9.13089 6.51208 9.19163 6.53729C9.25238 6.56249 9.30755 6.59944 9.354 6.646L11.354 8.646C11.4006 8.69245 11.4375 8.74762 11.4627 8.80837C11.4879 8.86911 11.5009 8.93423 11.5009 9C11.5009 9.06577 11.4879 9.13089 11.4627 9.19163C11.4375 9.25238 11.4006 9.30755 11.354 9.354L9.354 11.354C9.26011 11.4479 9.13278 11.5006 9 11.5006C8.86722 11.5006 8.73989 11.4479 8.646 11.354C8.55211 11.2601 8.49937 11.1328 8.49937 11C8.49937 10.8672 8.55211 10.7399 8.646 10.646L10.293 9L8.646 7.354C8.59944 7.30755 8.56249 7.25238 8.53729 7.19163C8.51208 7.13089 8.49911 7.06577 8.49911 7C8.49911 6.93423 8.51208 6.86911 8.53729 6.80837C8.56249 6.74762 8.59944 6.69245 8.646 6.646ZM7.354 6.646C7.30755 6.59944 7.25238 6.56249 7.19163 6.53729C7.13089 6.51208 7.06577 6.49911 7 6.49911C6.93423 6.49911 6.86911 6.51208 6.80837 6.53729C6.74762 6.56249 6.69245 6.59944 6.646 6.646L4.646 8.646C4.59944 8.69245 4.56249 8.74762 4.53729 8.80837C4.51208 8.86911 4.49911 8.93423 4.49911 9C4.49911 9.06577 4.51208 9.13089 4.53729 9.19163C4.56249 9.25238 4.59944 9.30755 4.646 9.354L6.646 11.354C6.73989 11.4479 6.86722 11.5006 7 11.5006C7.13278 11.5006 7.26011 11.4479 7.354 11.354C7.44789 11.2601 7.50063 11.1328 7.50063 11C7.50063 10.8672 7.44789 10.7399 7.354 10.646L5.707 9L7.354 7.354C7.40056 7.30755 7.43751 7.25238 7.46271 7.19163C7.48792 7.13089 7.50089 7.06577 7.50089 7C7.50089 6.93423 7.48792 6.86911 7.46271 6.80837C7.43751 6.74762 7.40056 6.69245 7.354 6.646Z" fill="#212529"/>
</svg>
