<svg width="16" height="16" viewBox="0 0 16 16" fill="none" xmlns="http://www.w3.org/2000/svg">
<path d="M6.146 6.146C6.19245 6.09944 6.24762 6.06249 6.30837 6.03729C6.36911 6.01208 6.43423 5.99911 6.5 5.99911C6.56577 5.99911 6.63089 6.01208 6.69163 6.03729C6.75238 6.06249 6.80755 6.09944 6.854 6.146L8 7.293L9.146 6.146C9.19249 6.09951 9.24768 6.06264 9.30842 6.03748C9.36916 6.01232 9.43426 5.99937 9.5 5.99937C9.56574 5.99937 9.63084 6.01232 9.69158 6.03748C9.75232 6.06264 9.80751 6.09951 9.854 6.146C9.90049 6.19249 9.93736 6.24768 9.96252 6.30842C9.98768 6.36916 10.0006 6.43426 10.0006 6.5C10.0006 6.56574 9.98768 6.63084 9.96252 6.69158C9.93736 6.75232 9.90049 6.80751 9.854 6.854L8.707 8L9.854 9.146C9.94789 9.23989 10.0006 9.36722 10.0006 9.5C10.0006 9.63278 9.94789 9.76011 9.854 9.854C9.76011 9.94789 9.63278 10.0006 9.5 10.0006C9.36722 10.0006 9.23989 9.94789 9.146 9.854L8 8.707L6.854 9.854C6.76011 9.94789 6.63278 10.0006 6.5 10.0006C6.36722 10.0006 6.23989 9.94789 6.146 9.854C6.05211 9.76011 5.99937 9.63278 5.99937 9.5C5.99937 9.36722 6.05211 9.23989 6.146 9.146L7.293 8L6.146 6.854C6.09944 6.80755 6.06249 6.75238 6.03729 6.69163C6.01208 6.63089 5.99911 6.56577 5.99911 6.5C5.99911 6.43423 6.01208 6.36911 6.03729 6.30837C6.06249 6.24762 6.09944 6.19245 6.146 6.146Z" fill="#212529"/>
<path d="M4 0C3.46957 0 2.96086 0.210714 2.58579 0.585786C2.21071 0.960859 2 1.46957 2 2V14C2 14.5304 2.21071 15.0391 2.58579 15.4142C2.96086 15.7893 3.46957 16 4 16H12C12.5304 16 13.0391 15.7893 13.4142 15.4142C13.7893 15.0391 14 14.5304 14 14V2C14 1.46957 13.7893 0.960859 13.4142 0.585786C13.0391 0.210714 12.5304 0 12 0H4ZM4 1H12C12.2652 1 12.5196 1.10536 12.7071 1.29289C12.8946 1.48043 13 1.73478 13 2V14C13 14.2652 12.8946 14.5196 12.7071 14.7071C12.5196 14.8946 12.2652 15 12 15H4C3.73478 15 3.48043 14.8946 3.29289 14.7071C3.10536 14.5196 3 14.2652 3 14V2C3 1.73478 3.10536 1.48043 3.29289 1.29289C3.48043 1.10536 3.73478 1 4 1Z" fill="#212529"/>
</svg>
