<svg width="16" height="16" viewBox="0 0 16 16" xmlns="http://www.w3.org/2000/svg"> <path fill-rule="evenodd" clip-rule="evenodd" d="M14 4.5V14C14 14.5304 13.7893 15.0391 13.4142 15.4142C13.0391 15.7893 12.5304 16 12 16H8V15H12C12.2652 15 12.5196 14.8946 12.7071 14.7071C12.8946 14.5196 13 14.2652 13 14V4.5H11C10.6022 4.5 10.2206 4.34196 9.93934 4.06066C9.65804 3.77936 9.5 3.39782 9.5 3V1H4C3.73478 1 3.48043 1.10536 3.29289 1.29289C3.10536 1.48043 3 1.73478 3 2V11H2V2C2 1.46957 2.21071 0.960859 2.58579 0.585786C2.96086 0.210714 3.46957 0 4 0L9.5 0L14 4.5ZM0 11.85H1.597C1.894 11.85 2.147 11.903 2.355 12.008C2.565 12.112 2.724 12.258 2.833 12.448C2.944 12.638 3 12.86 3 13.116C3.00652 13.3546 2.94053 13.5896 2.81073 13.7899C2.68093 13.9902 2.49344 14.1465 2.273 14.238L3.076 15.849H2.191L1.491 14.358H0.782V15.849H0V11.85ZM0.782 12.471V13.763H1.471C1.689 13.763 1.862 13.71 1.989 13.605C2.119 13.499 2.183 13.341 2.183 13.13C2.183 12.917 2.118 12.754 1.989 12.641C1.8471 12.5231 1.66628 12.4625 1.482 12.471H0.782ZM5.208 15.849H3.544V11.85H5.214C5.571 11.85 5.857 11.937 6.072 12.11C6.287 12.285 6.394 12.526 6.394 12.834C6.39713 12.9797 6.36632 13.1242 6.304 13.256C6.24781 13.3721 6.16404 13.4727 6.06 13.549C5.95455 13.6249 5.83533 13.6796 5.709 13.71V13.745C5.871 13.761 6.019 13.808 6.154 13.886C6.28914 13.9627 6.40055 14.0752 6.476 14.211C6.5623 14.3668 6.60481 14.543 6.599 14.721C6.599 14.959 6.539 15.162 6.421 15.331C6.301 15.498 6.137 15.627 5.929 15.717C5.69988 15.8086 5.45473 15.8535 5.208 15.849ZM5.029 12.445H4.329V13.515H4.85C5.028 13.515 5.173 13.493 5.284 13.45C5.38461 13.4165 5.47186 13.3517 5.533 13.265C5.58951 13.1768 5.61809 13.0737 5.615 12.969C5.61904 12.8975 5.60724 12.826 5.58045 12.7597C5.55365 12.6933 5.51252 12.6336 5.46 12.585C5.358 12.492 5.215 12.445 5.03 12.445H5.029ZM5.079 14.065H4.329V15.255H4.918C5.228 15.255 5.452 15.205 5.588 15.108C5.65581 15.0586 5.71018 14.993 5.74616 14.9172C5.78214 14.8414 5.79859 14.7578 5.794 14.674C5.79734 14.5602 5.76895 14.4476 5.712 14.349C5.65651 14.2551 5.57239 14.1815 5.472 14.139C5.34777 14.0866 5.21378 14.0614 5.079 14.065Z"/> </svg>