<svg width="16" height="16" viewBox="0 0 16 16" xmlns="http://www.w3.org/2000/svg"> <path d="M8 11C8.13261 11 8.25979 10.9473 8.35355 10.8536C8.44732 10.7598 8.5 10.6326 8.5 10.5V6.707L9.646 7.854C9.73989 7.94789 9.86722 8.00063 10 8.00063C10.1328 8.00063 10.2601 7.94789 10.354 7.854C10.4479 7.76011 10.5006 7.63278 10.5006 7.5C10.5006 7.36722 10.4479 7.23989 10.354 7.146L8.354 5.146C8.30755 5.09944 8.25238 5.06249 8.19163 5.03729C8.13089 5.01208 8.06577 4.99911 8 4.99911C7.93423 4.99911 7.86911 5.01208 7.80837 5.03729C7.74762 5.06249 7.69245 5.09944 7.646 5.146L5.646 7.146C5.55211 7.23989 5.49937 7.36722 5.49937 7.5C5.49937 7.63278 5.55211 7.76011 5.646 7.854C5.73989 7.94789 5.86722 8.00063 6 8.00063C6.13278 8.00063 6.26011 7.94789 6.354 7.854L7.5 6.707V10.5C7.5 10.6326 7.55268 10.7598 7.64645 10.8536C7.74021 10.9473 7.86739 11 8 11Z"/> <path d="M4 0C3.46957 0 2.96086 0.210714 2.58579 0.585786C2.21071 0.960859 2 1.46957 2 2V14C2 14.5304 2.21071 15.0391 2.58579 15.4142C2.96086 15.7893 3.46957 16 4 16H12C12.5304 16 13.0391 15.7893 13.4142 15.4142C13.7893 15.0391 14 14.5304 14 14V2C14 1.46957 13.7893 0.960859 13.4142 0.585786C13.0391 0.210714 12.5304 0 12 0H4ZM4 1H12C12.2652 1 12.5196 1.10536 12.7071 1.29289C12.8946 1.48043 13 1.73478 13 2V14C13 14.2652 12.8946 14.5196 12.7071 14.7071C12.5196 14.8946 12.2652 15 12 15H4C3.73478 15 3.48043 14.8946 3.29289 14.7071C3.10536 14.5196 3 14.2652 3 14V2C3 1.73478 3.10536 1.48043 3.29289 1.29289C3.48043 1.10536 3.73478 1 4 1Z"/> </svg>