<svg width="16" height="16" viewBox="0 0 16 16" fill="none" xmlns="http://www.w3.org/2000/svg">
<g clip-path="url(#clip0_34_4170)">
<path fill-rule="evenodd" clip-rule="evenodd" d="M14 4.5V11H13V4.5H11C10.6022 4.5 10.2206 4.34196 9.93934 4.06066C9.65804 3.77936 9.5 3.39782 9.5 3V1H4C3.73478 1 3.48043 1.10536 3.29289 1.29289C3.10536 1.48043 3 1.73478 3 2V11H2V2C2 1.46957 2.21071 0.960859 2.58579 0.585786C2.96086 0.210714 3.46957 0 4 0L9.5 0L14 4.5ZM9.363 13.054C9.28956 13.2567 9.25463 13.4714 9.26 13.687V14.182C9.26 14.428 9.294 14.637 9.363 14.809C9.42071 14.9672 9.52495 15.1042 9.662 15.202C9.8044 15.2922 9.9705 15.3378 10.139 15.333C10.2778 15.3362 10.4153 15.306 10.54 15.245C10.6516 15.1883 10.7459 15.1026 10.813 14.997C10.8808 14.8869 10.921 14.762 10.93 14.633H11.695V14.709C11.6855 14.9506 11.6071 15.1845 11.469 15.383C11.332 15.577 11.149 15.728 10.919 15.837C10.6726 15.9498 10.404 16.0059 10.133 16.001C9.773 16.001 9.469 15.929 9.219 15.785C8.96941 15.6388 8.77024 15.4201 8.648 15.158C8.519 14.886 8.454 14.561 8.454 14.182V13.684C8.454 13.305 8.52 12.979 8.651 12.706C8.781 12.432 8.972 12.221 9.222 12.073C9.474 11.924 9.778 11.85 10.133 11.85C10.352 11.85 10.554 11.882 10.74 11.947C10.927 12.009 11.09 12.1 11.229 12.219C11.3695 12.3384 11.4835 12.4858 11.5638 12.6518C11.644 12.8178 11.6887 12.9987 11.695 13.183V13.256H10.93C10.9207 13.1216 10.8795 12.9914 10.81 12.876C10.7446 12.7656 10.6502 12.6753 10.537 12.615C10.415 12.5488 10.2778 12.5153 10.139 12.518C9.97019 12.5136 9.80418 12.5618 9.664 12.656C9.52687 12.7563 9.42221 12.8947 9.363 13.054ZM3.263 11.926V15.926H2.473V14.21H0.79V15.924H0V11.925H0.791V13.551H2.473V11.925H3.263V11.926ZM4.751 15.278H6.541V15.925H3.966V11.926H6.54V12.574H4.75V13.599H6.434V14.206H4.751V15.278ZM7.914 15.925V11.926H7.123V15.926H7.913L7.914 15.925Z" fill="black"/>
</g>
<defs>
<clipPath id="clip0_34_4170">
<rect width="16" height="16" fill="white"/>
</clipPath>
</defs>
</svg>
