<svg width="16" height="16" viewBox="0 0 16 16" xmlns="http://www.w3.org/2000/svg"> <g clip-path="url(#clip0_34_4156)"> <path fill-rule="evenodd" clip-rule="evenodd" d="M14 4.5V14C14 14.5304 13.7893 15.0391 13.4142 15.4142C13.0391 15.7893 12.5304 16 12 16H8V15H12C12.2652 15 12.5196 14.8946 12.7071 14.7071C12.8946 14.5196 13 14.2652 13 14V4.5H11C10.6022 4.5 10.2206 4.34196 9.93934 4.06066C9.65804 3.77936 9.5 3.39782 9.5 3V1H4C3.73478 1 3.48043 1.10536 3.29289 1.29289C3.10536 1.48043 3 1.73478 3 2V11H2V2C2 1.46957 2.21071 0.960859 2.58579 0.585786C2.96086 0.210714 3.46957 0 4 0L9.5 0L14 4.5ZM3.629 15.29C3.5623 15.1492 3.52423 14.9966 3.517 14.841H4.282C4.29589 14.9191 4.32569 14.9935 4.36956 15.0595C4.41343 15.1256 4.47043 15.1819 4.537 15.225C4.607 15.274 4.69 15.312 4.786 15.339C4.882 15.367 4.988 15.38 5.106 15.38C5.269 15.38 5.407 15.357 5.518 15.31C5.61998 15.2719 5.70861 15.2048 5.773 15.117C5.83015 15.0312 5.8598 14.9301 5.858 14.827C5.86095 14.7644 5.84865 14.7021 5.82218 14.6453C5.7957 14.5885 5.75583 14.539 5.706 14.501C5.604 14.421 5.45 14.357 5.243 14.308L4.625 14.165C4.43417 14.1248 4.25157 14.0524 4.085 13.951C3.93876 13.8607 3.81823 13.7343 3.735 13.584C3.64959 13.4228 3.6069 13.2424 3.611 13.06C3.611 12.816 3.675 12.603 3.801 12.421C3.929 12.24 4.104 12.099 4.329 11.999C4.554 11.899 4.812 11.85 5.105 11.85C5.41 11.85 5.67 11.9 5.885 12.002C6.101 12.104 6.268 12.241 6.385 12.412C6.505 12.582 6.571 12.771 6.585 12.978H5.835C5.81788 12.8831 5.77655 12.7942 5.715 12.72C5.64926 12.6402 5.56473 12.578 5.469 12.539C5.35164 12.4912 5.22569 12.468 5.099 12.471C4.883 12.471 4.712 12.521 4.587 12.623C4.5282 12.668 4.48082 12.7262 4.44869 12.7929C4.41655 12.8596 4.40056 12.933 4.402 13.007C4.402 13.128 4.45 13.227 4.546 13.307C4.66547 13.3955 4.8037 13.4554 4.95 13.482L5.571 13.625C5.788 13.675 5.976 13.745 6.137 13.836C6.297 13.926 6.422 14.046 6.512 14.194C6.602 14.342 6.646 14.529 6.646 14.754C6.646 15.001 6.584 15.22 6.459 15.41C6.32561 15.6058 6.13792 15.7584 5.919 15.849C5.685 15.954 5.399 16.007 5.061 16.007C4.83604 16.011 4.61179 15.9807 4.396 15.917C4.22221 15.8646 4.06021 15.779 3.919 15.665C3.79691 15.5619 3.69806 15.4341 3.629 15.29ZM0.909 13.06C0.835561 13.2627 0.800629 13.4774 0.806 13.693V14.188C0.806 14.434 0.84 14.643 0.908 14.815C0.96583 14.9728 1.07006 15.1095 1.207 15.207C1.34955 15.2978 1.51605 15.3438 1.685 15.339C1.82347 15.3423 1.9607 15.3121 2.085 15.251C2.19666 15.1939 2.29094 15.108 2.358 15.002C2.42608 14.8923 2.46657 14.7678 2.476 14.639H3.24V14.715C3.23066 14.9565 3.1526 15.1903 3.015 15.389C2.878 15.582 2.695 15.734 2.464 15.843C2.21789 15.9557 1.94964 16.0117 1.679 16.007C1.319 16.007 1.015 15.935 0.765 15.79C0.515187 15.6443 0.315672 15.4259 0.193 15.164C0.064 14.892 0 14.567 0 14.188V13.69C0 13.31 0.065 12.985 0.196 12.711C0.318349 12.4471 0.51777 12.2264 0.768 12.078C1.02 11.93 1.323 11.856 1.678 11.856C1.898 11.856 2.1 11.888 2.285 11.953C2.473 12.015 2.635 12.106 2.775 12.225C2.91533 12.3445 3.02918 12.4919 3.10925 12.6579C3.18932 12.8239 3.23385 13.0048 3.24 13.189V13.262H2.476C2.46668 13.1276 2.42555 12.9974 2.356 12.882C2.29063 12.7716 2.1962 12.6813 2.083 12.621C1.96095 12.5548 1.82382 12.5214 1.685 12.524C1.51619 12.5196 1.35019 12.5678 1.21 12.662C1.0725 12.7622 0.967486 12.9006 0.908 13.06H0.909Z"/> </g> <defs> <clipPath id="clip0_34_4156"> <rect width="16" height="16"/> </clipPath> </defs> </svg>