<svg width="16" height="16" viewBox="0 0 16 16" xmlns="http://www.w3.org/2000/svg"> <path d="M6.646 5.646C6.69249 5.59951 6.74768 5.56264 6.80842 5.53748C6.86916 5.51232 6.93426 5.49937 7 5.49937C7.06574 5.49937 7.13084 5.51232 7.19158 5.53748C7.25232 5.56264 7.30751 5.59951 7.354 5.646C7.40049 5.69249 7.43736 5.74768 7.46252 5.80842C7.48768 5.86916 7.50063 5.93426 7.50063 6C7.50063 6.06574 7.48768 6.13084 7.46252 6.19158C7.43736 6.25232 7.40049 6.30751 7.354 6.354L5.707 8L7.354 9.646C7.44789 9.73989 7.50063 9.86722 7.50063 10C7.50063 10.1328 7.44789 10.2601 7.354 10.354C7.26011 10.4479 7.13278 10.5006 7 10.5006C6.86722 10.5006 6.73989 10.4479 6.646 10.354L4.646 8.354C4.59944 8.30755 4.56249 8.25238 4.53729 8.19163C4.51208 8.13089 4.49911 8.06577 4.49911 8C4.49911 7.93423 4.51208 7.86911 4.53729 7.80837C4.56249 7.74762 4.59944 7.69245 4.646 7.646L6.646 5.646ZM9.354 5.646C9.30751 5.59951 9.25232 5.56264 9.19158 5.53748C9.13084 5.51232 9.06574 5.49937 9 5.49937C8.93426 5.49937 8.86916 5.51232 8.80842 5.53748C8.74768 5.56264 8.69249 5.59951 8.646 5.646C8.59951 5.69249 8.56264 5.74768 8.53748 5.80842C8.51232 5.86916 8.49937 5.93426 8.49937 6C8.49937 6.06574 8.51232 6.13084 8.53748 6.19158C8.56264 6.25232 8.59951 6.30751 8.646 6.354L10.293 8L8.646 9.646C8.55211 9.73989 8.49937 9.86722 8.49937 10C8.49937 10.1328 8.55211 10.2601 8.646 10.354C8.73989 10.4479 8.86722 10.5006 9 10.5006C9.13278 10.5006 9.26011 10.4479 9.354 10.354L11.354 8.354C11.4006 8.30755 11.4375 8.25238 11.4627 8.19163C11.4879 8.13089 11.5009 8.06577 11.5009 8C11.5009 7.93423 11.4879 7.86911 11.4627 7.80837C11.4375 7.74762 11.4006 7.69245 11.354 7.646L9.354 5.646Z"/> <path d="M2 2C2 1.46957 2.21071 0.960859 2.58579 0.585786C2.96086 0.210714 3.46957 0 4 0H12C12.5304 0 13.0391 0.210714 13.4142 0.585786C13.7893 0.960859 14 1.46957 14 2V14C14 14.5304 13.7893 15.0391 13.4142 15.4142C13.0391 15.7893 12.5304 16 12 16H4C3.46957 16 2.96086 15.7893 2.58579 15.4142C2.21071 15.0391 2 14.5304 2 14V2ZM12 1H4C3.73478 1 3.48043 1.10536 3.29289 1.29289C3.10536 1.48043 3 1.73478 3 2V14C3 14.2652 3.10536 14.5196 3.29289 14.7071C3.48043 14.8946 3.73478 15 4 15H12C12.2652 15 12.5196 14.8946 12.7071 14.7071C12.8946 14.5196 13 14.2652 13 14V2C13 1.73478 12.8946 1.48043 12.7071 1.29289C12.5196 1.10536 12.2652 1 12 1Z"/> </svg>