<svg width="16" height="16" viewBox="0 0 16 16" xmlns="http://www.w3.org/2000/svg"> <path fill-rule="evenodd" clip-rule="evenodd" d="M14 4.5V14C14 14.5304 13.7893 15.0391 13.4142 15.4142C13.0391 15.7893 12.5304 16 12 16V15C12.2652 15 12.5196 14.8946 12.7071 14.7071C12.8946 14.5196 13 14.2652 13 14V4.5H11C10.6022 4.5 10.2206 4.34196 9.93934 4.06066C9.65804 3.77936 9.5 3.39782 9.5 3V1H4C3.73478 1 3.48043 1.10536 3.29289 1.29289C3.10536 1.48043 3 1.73478 3 2V11H2V2C2 1.46957 2.21071 0.960859 2.58579 0.585786C2.96086 0.210714 3.46957 0 4 0L9.5 0L14 4.5ZM0.706 15.849V13.189H0.744L1.696 15.349H2.212L3.158 13.189H3.196V15.849H3.911V11.85H3.111L1.971 14.446H1.945L0.805 11.85H0V15.849H0.706ZM5.943 11.85C5.681 12.284 5.418 12.717 5.153 13.15C4.888 13.584 4.639 14.02 4.405 14.46V15.108H6.342V15.849H7.082V15.108H7.572V14.469H7.082V11.85H5.944H5.943ZM5.123 14.47V14.449C5.303 14.109 5.493 13.769 5.694 13.432C5.897 13.094 6.099 12.766 6.301 12.448H6.341V14.469H5.124L5.123 14.47ZM8.016 11.85H9.616C9.905 11.85 10.149 11.91 10.348 12.029C10.549 12.146 10.703 12.305 10.808 12.506C10.914 12.707 10.966 12.933 10.966 13.183C10.966 13.433 10.913 13.659 10.806 13.86C10.7 14.059 10.546 14.217 10.342 14.334C10.1174 14.455 9.86496 14.5146 9.61 14.507H8.807V15.849H8.017V11.85H8.016ZM10.076 13.564C10.1356 13.446 10.1648 13.3151 10.161 13.183C10.161 12.957 10.099 12.783 9.976 12.662C9.853 12.54 9.682 12.48 9.463 12.48H8.804V13.886H9.464C9.59349 13.8896 9.72189 13.8614 9.838 13.804C9.93962 13.7497 10.0226 13.6661 10.076 13.564Z"/> </svg>