<svg width="16" height="16" viewBox="0 0 16 16" xmlns="http://www.w3.org/2000/svg"> <g clip-path="url(#clip0_34_4164)"> <path fill-rule="evenodd" clip-rule="evenodd" d="M14 4.5V11H13V4.5H11C10.6022 4.5 10.2206 4.34196 9.93934 4.06066C9.65804 3.77936 9.5 3.39782 9.5 3V1H4C3.73478 1 3.48043 1.10536 3.29289 1.29289C3.10536 1.48043 3 1.73478 3 2V11H2V2C2 1.46957 2.21071 0.960859 2.58579 0.585786C2.96086 0.210714 3.46957 0 4 0L9.5 0L14 4.5ZM7.161 14.188V13.666C7.16817 13.4464 7.12827 13.2279 7.044 13.025C6.97762 12.8668 6.86549 12.732 6.722 12.638C6.58129 12.5509 6.41848 12.5061 6.253 12.509C6.08679 12.5063 5.92331 12.5515 5.782 12.639C5.63969 12.7334 5.52837 12.8677 5.462 13.025C5.37773 13.2279 5.33783 13.4464 5.345 13.666V14.188C5.345 14.444 5.385 14.658 5.462 14.829C5.52821 14.9867 5.63953 15.1213 5.782 15.216C5.92406 15.3014 6.08729 15.345 6.253 15.342C6.41808 15.345 6.58064 15.3013 6.722 15.216C6.86534 15.1222 6.97745 14.9878 7.044 14.83C7.12812 14.6267 7.168 14.4079 7.161 14.188ZM7.964 13.672V14.185C7.964 14.56 7.896 14.885 7.759 15.158C7.62958 15.4211 7.42446 15.6394 7.17 15.785C6.916 15.929 6.61 16.001 6.253 16.001C5.93285 16.0094 5.61596 15.935 5.333 15.785C5.07827 15.6398 4.87306 15.4213 4.744 15.158C4.60061 14.8541 4.5304 14.5209 4.539 14.185V13.672C4.539 13.293 4.608 12.968 4.744 12.697C4.881 12.423 5.077 12.214 5.334 12.07C5.591 11.923 5.898 11.85 6.254 11.85C6.611 11.85 6.916 11.923 7.17 12.07C7.426 12.216 7.622 12.426 7.76 12.7C7.896 12.971 7.964 13.295 7.964 13.672ZM1 15.925V11.926H2.459C2.865 11.926 3.2 12.004 3.464 12.161C3.728 12.317 3.924 12.543 4.053 12.841C4.183 13.137 4.249 13.496 4.249 13.915C4.249 14.337 4.184 14.699 4.053 14.999C3.922 15.3 3.723 15.529 3.458 15.688C3.194 15.846 2.861 15.925 2.459 15.925H1ZM2.354 12.571H1.79V15.278H2.353C2.538 15.278 2.699 15.25 2.836 15.196C2.96772 15.1431 3.08299 15.0561 3.17 14.944C3.258 14.83 3.323 14.69 3.366 14.522C3.41424 14.3285 3.4371 14.1294 3.434 13.93C3.434 13.63 3.394 13.378 3.316 13.177C3.25156 12.9906 3.12704 12.8309 2.962 12.723C2.804 12.621 2.601 12.571 2.352 12.571H2.354ZM9.11 13.687C9.11 13.439 9.144 13.227 9.213 13.054C9.27221 12.8947 9.37687 12.7563 9.514 12.656C9.65419 12.5618 9.82019 12.5136 9.989 12.518C10.139 12.518 10.272 12.55 10.387 12.615C10.5001 12.6751 10.5945 12.765 10.66 12.875C10.7297 12.9907 10.7708 13.1213 10.78 13.256H11.545V13.183C11.5384 12.9988 11.4935 12.818 11.4133 12.652C11.3331 12.4861 11.2192 12.3386 11.079 12.219C10.9351 12.0971 10.7686 12.0047 10.589 11.947C10.3939 11.8809 10.189 11.8481 9.983 11.85C9.628 11.85 9.323 11.924 9.072 12.073C8.822 12.221 8.632 12.432 8.501 12.706C8.37 12.979 8.304 13.306 8.304 13.684V14.182C8.304 14.561 8.369 14.886 8.498 15.158C8.628 15.429 8.819 15.638 9.069 15.785C9.319 15.929 9.624 16.001 9.983 16.001C10.276 16.001 10.538 15.947 10.768 15.837C10.998 15.727 11.182 15.577 11.319 15.383C11.457 15.1844 11.5354 14.9506 11.545 14.709V14.633H10.78C10.771 14.762 10.7308 14.8869 10.663 14.997C10.5958 15.1026 10.5016 15.1883 10.39 15.245C10.2652 15.3058 10.1278 15.3359 9.989 15.333C9.82016 15.3381 9.65366 15.2925 9.511 15.202C9.37432 15.104 9.27044 14.967 9.213 14.809C9.13957 14.6083 9.10462 14.3956 9.11 14.182V13.687ZM14.202 11.927H15.096L13.821 13.933L15.075 15.925H14.167L13.317 14.51H13.282L12.43 15.925H11.568L12.808 13.91L11.58 11.926H12.512L13.344 13.365H13.379L14.202 11.926V11.927Z"/> </g> <defs> <clipPath id="clip0_34_4164"> <rect width="16" height="16"/> </clipPath> </defs> </svg>