<svg width="16" height="16" viewBox="0 0 16 16" fill="none" xmlns="http://www.w3.org/2000/svg">
<g clip-path="url(#clip0_34_4210)">
<path fill-rule="evenodd" clip-rule="evenodd" d="M14 4.5V14C14 14.5304 13.7893 15.0391 13.4142 15.4142C13.0391 15.7893 12.5304 16 12 16H11.5V15H12C12.2652 15 12.5196 14.8946 12.7071 14.7071C12.8946 14.5196 13 14.2652 13 14V4.5H11C10.6022 4.5 10.2206 4.34196 9.93934 4.06066C9.65804 3.77936 9.5 3.39782 9.5 3V1H4C3.73478 1 3.48043 1.10536 3.29289 1.29289C3.10536 1.48043 3 1.73478 3 2V11H2V2C2 1.46957 2.21071 0.960859 2.58579 0.585786C2.96086 0.210714 3.46957 0 4 0L9.5 0L14 4.5ZM3.116 14.841C3.12172 14.9986 3.16036 15.1532 3.22942 15.2949C3.29848 15.4367 3.39644 15.5624 3.517 15.664C3.647 15.772 3.805 15.856 3.995 15.916C4.185 15.977 4.406 16.007 4.66 16.007C4.998 16.007 5.284 15.954 5.518 15.849C5.755 15.744 5.934 15.597 6.058 15.409C6.18411 15.2138 6.24921 14.9854 6.245 14.753C6.245 14.529 6.2 14.343 6.11 14.193C6.01851 14.0431 5.88917 13.92 5.735 13.836C5.55819 13.7382 5.36775 13.6675 5.17 13.626L4.549 13.482C4.40226 13.4553 4.26367 13.395 4.144 13.306C4.09856 13.2707 4.06197 13.2253 4.03715 13.1734C4.01232 13.1215 3.99995 13.0645 4.001 13.007C4.001 12.851 4.062 12.723 4.185 12.623C4.31 12.522 4.481 12.471 4.698 12.471C4.841 12.471 4.964 12.494 5.068 12.539C5.16334 12.5782 5.24751 12.6404 5.313 12.72C5.37455 12.7942 5.41588 12.8831 5.433 12.978H6.183C6.17081 12.7745 6.10188 12.5784 5.984 12.412C5.85761 12.2325 5.68477 12.0908 5.484 12.002C5.23844 11.8943 4.97204 11.8424 4.704 11.85C4.411 11.85 4.152 11.9 3.928 12C3.703 12.099 3.528 12.24 3.4 12.421C3.273 12.603 3.21 12.816 3.21 13.06C3.21 13.261 3.25 13.436 3.333 13.584C3.415 13.733 3.532 13.854 3.684 13.951C3.837 14.046 4.016 14.118 4.224 14.164L4.842 14.308C5.049 14.357 5.202 14.421 5.304 14.501C5.35402 14.5389 5.39408 14.5883 5.42073 14.6451C5.44738 14.7019 5.45983 14.7643 5.457 14.827C5.45893 14.9301 5.42927 15.0313 5.372 15.117C5.30761 15.2048 5.21898 15.2719 5.117 15.31C5.006 15.357 4.868 15.38 4.704 15.38C4.587 15.38 4.48 15.367 4.384 15.34C4.29559 15.3155 4.21181 15.2767 4.136 15.225C4.06943 15.1819 4.01243 15.1256 3.96856 15.0595C3.92469 14.9935 3.89489 14.9191 3.881 14.841H3.116ZM1.6 11.932H0V15.932H0.791V14.589H1.594C1.881 14.589 2.125 14.532 2.326 14.416C2.529 14.299 2.684 14.141 2.789 13.942C2.89799 13.7332 2.95331 13.5005 2.95 13.265C2.95 13.015 2.897 12.789 2.792 12.588C2.68756 12.3882 2.52789 12.2226 2.332 12.111C2.132 11.991 1.889 11.932 1.6 11.932ZM2.145 13.265C2.1486 13.3968 2.1194 13.5273 2.06 13.645C2.00671 13.7474 1.92377 13.8314 1.822 13.886C1.7056 13.9436 1.57683 13.9718 1.447 13.968H0.788V12.562H1.448C1.666 12.562 1.837 12.622 1.96 12.744C2.083 12.864 2.145 13.039 2.145 13.265ZM6.754 15.931V11.932H8.213C8.619 11.932 8.953 12.01 9.217 12.166C9.481 12.323 9.677 12.549 9.807 12.846C9.937 13.143 10.002 13.501 10.002 13.921C10.002 14.343 9.937 14.705 9.806 15.005C9.676 15.306 9.477 15.535 9.212 15.694C8.948 15.852 8.615 15.931 8.212 15.931H6.755H6.754ZM8.107 12.577H7.545V15.284H8.107C8.293 15.284 8.454 15.256 8.59 15.202C8.72172 15.1491 8.83699 15.0621 8.924 14.95C9.01801 14.8244 9.08507 14.6807 9.121 14.528C9.166 14.36 9.188 14.162 9.188 13.936C9.19525 13.68 9.1556 13.4248 9.071 13.183C9.0063 12.9965 8.88141 12.8368 8.716 12.729C8.558 12.627 8.356 12.577 8.107 12.577Z" fill="black"/>
</g>
<defs>
<clipPath id="clip0_34_4210">
<rect width="16" height="16" fill="white"/>
</clipPath>
</defs>
</svg>
