<svg width="16" height="16" viewBox="0 0 16 16" fill="none" xmlns="http://www.w3.org/2000/svg">
<path d="M8.0601 6.5001C8.19271 6.5001 8.31989 6.55278 8.41366 6.64655C8.50743 6.74032 8.5601 6.86749 8.5601 7.0001V7.7761C8.55999 8.97065 8.37375 10.1579 8.0081 11.2951L6.6771 15.4351C6.63413 15.5582 6.54478 15.6596 6.4281 15.7178C6.31143 15.7759 6.17665 15.7862 6.0525 15.7464C5.92836 15.7067 5.82465 15.62 5.76349 15.5048C5.70233 15.3897 5.68856 15.2552 5.7251 15.1301L7.0551 10.9891C7.38896 9.95078 7.559 8.86678 7.5591 7.7761V7.0001C7.5591 6.86749 7.61178 6.74032 7.70555 6.64655C7.79932 6.55278 7.9265 6.5001 8.0591 6.5001H8.0601Z" fill="#212529"/>
<path d="M6.0601 7.0001C6.0601 6.73746 6.11183 6.47739 6.21234 6.23474C6.31285 5.99208 6.46017 5.77161 6.64589 5.58589C6.83161 5.40017 7.05208 5.25285 7.29474 5.15234C7.53739 5.05183 7.79746 5.0001 8.0601 5.0001C8.32275 5.0001 8.58282 5.05183 8.82547 5.15234C9.06812 5.25285 9.2886 5.40017 9.47432 5.58589C9.66003 5.77161 9.80735 5.99208 9.90786 6.23474C10.0084 6.47739 10.0601 6.73746 10.0601 7.0001C10.0601 7.13271 10.0074 7.25989 9.91366 7.35366C9.81989 7.44742 9.69271 7.5001 9.5601 7.5001C9.4275 7.5001 9.30032 7.44742 9.20655 7.35366C9.11278 7.25989 9.0601 7.13271 9.0601 7.0001C9.0601 6.73489 8.95475 6.48053 8.76721 6.293C8.57967 6.10546 8.32532 6.0001 8.0601 6.0001C7.79489 6.0001 7.54053 6.10546 7.353 6.293C7.16546 6.48053 7.0601 6.73489 7.0601 7.0001V7.3321C7.0601 7.7411 7.0381 8.1481 6.9941 8.5531C6.9768 8.68222 6.90979 8.79949 6.80733 8.87994C6.70487 8.96039 6.57505 8.99768 6.44551 8.98387C6.31598 8.97005 6.19695 8.90623 6.11376 8.80598C6.03057 8.70573 5.98979 8.57697 6.0001 8.4471C6.0401 8.0771 6.0601 7.7051 6.0601 7.3321V7.0001ZM9.5691 8.0001C9.63477 8.00179 9.69946 8.0164 9.75948 8.04309C9.8195 8.06979 9.87367 8.10805 9.9189 8.15569C9.96413 8.20333 9.99952 8.25942 10.0231 8.32075C10.0466 8.38207 10.0578 8.44743 10.0561 8.5131C10.0265 9.64899 9.82865 10.7742 9.4691 11.8521L8.2031 15.6521C8.16107 15.7779 8.07076 15.8819 7.95205 15.9412C7.83334 16.0005 7.69595 16.0101 7.5701 15.9681C7.44426 15.9261 7.34027 15.8358 7.281 15.717C7.22174 15.5983 7.21207 15.4609 7.2541 15.3351L8.5211 11.5351C8.849 10.5511 9.02929 9.52395 9.0561 8.4871C9.05779 8.42144 9.0724 8.35674 9.09909 8.29672C9.12579 8.2367 9.16405 8.18253 9.21169 8.13731C9.25934 8.09208 9.31542 8.05668 9.37675 8.03314C9.43807 8.0096 9.50344 7.99837 9.5691 8.0001ZM6.2131 10.1151C6.2759 10.1345 6.33427 10.1661 6.38485 10.208C6.43543 10.25 6.47724 10.3015 6.50789 10.3597C6.53854 10.4178 6.55743 10.4814 6.56347 10.5469C6.56951 10.6123 6.56259 10.6783 6.5431 10.7411L5.2401 14.9391C5.22163 15.0029 5.19062 15.0625 5.14888 15.1142C5.10715 15.1659 5.05552 15.2088 4.99701 15.2403C4.93851 15.2718 4.87431 15.2914 4.80816 15.2978C4.74202 15.3042 4.67525 15.2974 4.61177 15.2777C4.54829 15.2581 4.48937 15.2259 4.43846 15.1832C4.38754 15.1405 4.34565 15.0881 4.31524 15.029C4.28482 14.9699 4.26649 14.9053 4.26132 14.8391C4.25614 14.7728 4.26423 14.7062 4.2851 14.6431L5.5881 10.4441C5.62749 10.3177 5.7154 10.212 5.83257 10.1504C5.94974 10.0887 6.08659 10.076 6.2131 10.1151Z" fill="#212529"/>
<path d="M4.7591 5.8331C5.03528 5.05572 5.5771 4.40083 6.28902 3.98395C7.00093 3.56708 7.83718 3.415 8.65028 3.55454C9.46338 3.69409 10.2011 4.11628 10.7333 4.74667C11.2655 5.37705 11.5579 6.17512 11.5591 7.0001C11.5591 7.13271 11.5064 7.25989 11.4127 7.35366C11.3189 7.44742 11.1917 7.5001 11.0591 7.5001C10.9265 7.5001 10.7993 7.44742 10.7056 7.35366C10.6118 7.25989 10.5591 7.13271 10.5591 7.0001C10.559 6.4104 10.3505 5.83972 9.97032 5.3889C9.59018 4.93808 9.06291 4.63616 8.4817 4.53648C7.90048 4.43679 7.30274 4.54578 6.79411 4.84416C6.28547 5.14255 5.89869 5.61113 5.7021 6.1671C5.65781 6.29215 5.56566 6.39449 5.44592 6.45159C5.32618 6.50869 5.18865 6.51589 5.0636 6.4716C4.93855 6.42731 4.83622 6.33516 4.77912 6.21542C4.72201 6.09567 4.71481 5.95815 4.7591 5.8331ZM5.0591 7.5031C5.19103 7.516 5.31244 7.58076 5.39664 7.68315C5.48084 7.78553 5.52093 7.91716 5.5081 8.0491C5.4406 8.73742 5.30664 9.41759 5.1081 10.0801L3.8861 14.1521C3.84805 14.2791 3.76108 14.3859 3.64434 14.4488C3.5276 14.5117 3.39064 14.5257 3.2636 14.4876C3.13657 14.4495 3.02985 14.3626 2.96693 14.2458C2.90401 14.1291 2.89005 13.9921 2.9281 13.8651L4.1501 9.7931C4.33026 9.19225 4.45182 8.57538 4.5131 7.9511C4.526 7.81917 4.59076 7.69776 4.69315 7.61357C4.79554 7.52937 4.92717 7.49028 5.0591 7.5031ZM11.0591 8.1501C11.1917 8.1501 11.3189 8.20278 11.4127 8.29655C11.5064 8.39032 11.5591 8.51749 11.5591 8.6501C11.5591 9.9301 11.3461 11.2021 10.9271 12.4121L9.8371 15.5571C9.78963 15.6768 9.69779 15.7736 9.58071 15.8273C9.46363 15.881 9.33035 15.8874 9.20864 15.8453C9.08694 15.8031 8.9862 15.7156 8.92741 15.601C8.86863 15.4864 8.85634 15.3535 8.8931 15.2301L9.9821 12.0851C10.3641 10.9801 10.5601 9.8191 10.5601 8.6501C10.5601 8.51749 10.6128 8.39032 10.7066 8.29655C10.8003 8.20278 10.9275 8.1501 11.0601 8.1501H11.0591Z" fill="#212529"/>
<path d="M3.9021 4.2221C4.45766 3.38922 5.25063 2.74247 6.17819 2.3657C7.10576 1.98893 8.12512 1.89954 9.1041 2.1091C9.16839 2.12276 9.22935 2.14894 9.28351 2.18616C9.33767 2.22338 9.38398 2.2709 9.41977 2.32601C9.45557 2.38112 9.48016 2.44275 9.49214 2.50736C9.50412 2.57198 9.50326 2.63832 9.4896 2.7026C9.47595 2.76688 9.44976 2.82785 9.41254 2.88201C9.37533 2.93617 9.3278 2.98247 9.27269 3.01827C9.21758 3.05407 9.15596 3.07866 9.09134 3.09064C9.02673 3.10262 8.96039 3.10176 8.8961 3.0881C8.11275 2.92 7.29695 2.99125 6.55459 3.29261C5.81224 3.59398 5.17762 4.11153 4.7331 4.7781C4.65831 4.88578 4.54423 4.95977 4.41541 4.98415C4.2866 5.00853 4.15336 4.98134 4.0444 4.90843C3.93544 4.83553 3.85947 4.72275 3.83286 4.59438C3.80624 4.46601 3.83111 4.33232 3.9021 4.2221ZM10.6221 3.2671C10.7087 3.16675 10.8316 3.1049 10.9638 3.09515C11.096 3.0854 11.2267 3.12854 11.3271 3.2151C11.8712 3.68414 12.3077 4.26514 12.6066 4.91839C12.9055 5.57163 13.0599 6.28171 13.0591 7.0001V8.5001C13.0591 8.63271 13.0064 8.75989 12.9127 8.85366C12.8189 8.94742 12.6917 9.0001 12.5591 9.0001C12.4265 9.0001 12.2993 8.94742 12.2056 8.85366C12.1118 8.75989 12.0591 8.63271 12.0591 8.5001V7.0001C12.0598 6.42534 11.9363 5.85721 11.6971 5.33459C11.4579 4.81198 11.1086 4.34721 10.6731 3.9721C10.5729 3.88535 10.5112 3.76236 10.5017 3.63016C10.4921 3.49796 10.5354 3.36738 10.6221 3.2671ZM3.6801 5.8421C3.74513 5.85164 3.80763 5.87391 3.86404 5.90763C3.92045 5.94135 3.96966 5.98586 4.00886 6.03862C4.04805 6.09137 4.07646 6.15133 4.09246 6.21508C4.10846 6.27882 4.11174 6.34509 4.1021 6.4101C4.0731 6.6021 4.0581 6.8001 4.0581 7.0001C4.0581 7.7101 3.9581 8.4171 3.7601 9.1001L2.6201 13.0231C2.60302 13.0875 2.57323 13.1479 2.53247 13.2006C2.49172 13.2534 2.44084 13.2975 2.38281 13.3303C2.32477 13.363 2.26077 13.3839 2.19456 13.3916C2.12835 13.3993 2.06127 13.3937 1.99727 13.3751C1.93326 13.3565 1.87362 13.3253 1.82185 13.2833C1.77008 13.2413 1.72723 13.1894 1.69581 13.1306C1.6644 13.0718 1.64506 13.0073 1.63893 12.941C1.63279 12.8746 1.63999 12.8077 1.6601 12.7441L2.8001 8.8211C2.97157 8.22931 3.05843 7.61623 3.0581 7.0001C3.0581 6.7501 3.0771 6.5041 3.1121 6.2641C3.12165 6.19908 3.14391 6.13657 3.17763 6.08016C3.21135 6.02375 3.25586 5.97454 3.30862 5.93535C3.36137 5.89615 3.42133 5.86774 3.48508 5.85174C3.54882 5.83574 3.61509 5.83247 3.6801 5.8421ZM12.5621 9.5021C12.6942 9.5133 12.8164 9.57647 12.9019 9.67772C12.9874 9.77898 13.0292 9.91004 13.0181 10.0421C12.9341 11.0421 12.7201 12.0281 12.3781 12.9761L11.6341 15.0441C11.5877 15.1668 11.495 15.2664 11.3759 15.3213C11.2568 15.3763 11.1208 15.3822 10.9974 15.3379C10.8739 15.2935 10.7729 15.2024 10.7159 15.0843C10.659 14.9661 10.6508 14.8303 10.6931 14.7061L11.4381 12.6361C11.7488 11.7728 11.9452 10.8724 12.0221 9.9581C12.0333 9.82605 12.0965 9.70384 12.1977 9.61834C12.299 9.53283 12.43 9.49103 12.5621 9.5021Z" fill="#212529"/>
<path d="M4.8101 1.3701C5.79829 0.799573 6.91925 0.499231 8.06031 0.499268C9.20137 0.499304 10.3223 0.799718 11.3105 1.37031C12.2986 1.9409 13.1191 2.76157 13.6896 3.74981C14.26 4.73805 14.5603 5.85904 14.5601 7.0001C14.5601 7.13271 14.5074 7.25989 14.4137 7.35366C14.3199 7.44742 14.1927 7.5001 14.0601 7.5001C13.9275 7.5001 13.8003 7.44742 13.7066 7.35366C13.6128 7.25989 13.5601 7.13271 13.5601 7.0001C13.5604 6.03449 13.3065 5.08582 12.8239 4.24945C12.3413 3.41309 11.6471 2.71851 10.8109 2.23557C9.97475 1.75262 9.02618 1.49832 8.06057 1.49824C7.09496 1.49816 6.14635 1.7523 5.3101 2.2351C5.19583 2.29488 5.06289 2.30819 4.93903 2.27226C4.81518 2.23633 4.71 2.15393 4.64546 2.04228C4.58092 1.93063 4.56202 1.79836 4.5927 1.6731C4.62338 1.54785 4.70127 1.43929 4.8101 1.3701ZM3.9201 2.6271C3.96909 2.67083 4.00898 2.72378 4.0375 2.78293C4.06602 2.84207 4.08261 2.90626 4.08633 2.97182C4.09004 3.03738 4.08081 3.10302 4.05915 3.16501C4.03749 3.227 4.00384 3.28412 3.9601 3.3331C3.0565 4.34054 2.5578 5.6468 2.5601 7.0001C2.5601 7.13271 2.50743 7.25989 2.41366 7.35366C2.31989 7.44742 2.19271 7.5001 2.0601 7.5001C1.9275 7.5001 1.80032 7.44742 1.70655 7.35366C1.61278 7.25989 1.5601 7.13271 1.5601 7.0001C1.5601 5.3361 2.1861 3.8161 3.2151 2.6671C3.25883 2.61812 3.31178 2.57823 3.37093 2.5497C3.43007 2.52118 3.49426 2.50459 3.55982 2.50088C3.62538 2.49716 3.69103 2.5064 3.75302 2.52806C3.81501 2.54971 3.87112 2.58337 3.9201 2.6271ZM1.9151 8.0201C2.04261 8.056 2.15066 8.14103 2.21553 8.25653C2.2804 8.37202 2.29679 8.50854 2.2611 8.6361L1.4821 11.4031C1.46655 11.4687 1.43791 11.5304 1.39791 11.5846C1.3579 11.6388 1.30735 11.6844 1.24929 11.7186C1.19123 11.7527 1.12686 11.7748 1.06005 11.7835C0.993239 11.7922 0.925361 11.7873 0.860494 11.7691C0.795626 11.7509 0.735107 11.7198 0.682571 11.6776C0.630035 11.6354 0.586566 11.583 0.554774 11.5236C0.522981 11.4642 0.503522 11.399 0.497564 11.3319C0.491606 11.2648 0.499273 11.1972 0.520104 11.1331L1.2981 8.3661C1.31587 8.30286 1.34593 8.24373 1.38657 8.19211C1.4272 8.14049 1.4776 8.09738 1.5349 8.06524C1.5922 8.03311 1.65527 8.01259 1.72051 8.00484C1.78575 7.99709 1.85187 8.00228 1.9151 8.0201ZM14.0651 8.5011C14.1308 8.5024 14.1955 8.51663 14.2557 8.54296C14.3159 8.5693 14.3703 8.60723 14.4158 8.65459C14.4613 8.70195 14.497 8.75781 14.5209 8.81898C14.5448 8.88016 14.5564 8.94544 14.5551 9.0111C14.5251 10.5101 14.3941 12.0361 13.8281 13.5441L13.7581 13.7311C13.7091 13.8519 13.6149 13.9487 13.4956 14.0011C13.3763 14.0534 13.2412 14.0571 13.1192 14.0114C12.9972 13.9656 12.8979 13.874 12.8424 13.7561C12.7869 13.6382 12.7796 13.5033 12.8221 13.3801L12.8921 13.1931C13.3981 11.8431 13.5261 10.4531 13.5551 8.9911C13.5564 8.92544 13.5706 8.86067 13.597 8.80051C13.6233 8.74034 13.6612 8.68595 13.7086 8.64045C13.756 8.59494 13.8118 8.55922 13.873 8.53531C13.9342 8.5114 13.9994 8.49978 14.0651 8.5011Z" fill="#212529"/>
</svg>
