<svg width="16" height="16" viewBox="0 0 16 16" xmlns="http://www.w3.org/2000/svg"> <path d="M11.4239 8C11.8609 7.948 12.2349 7.864 12.4639 7.732C12.9195 7.4649 13.251 7.02843 13.386 6.51784C13.521 6.00725 13.4485 5.46399 13.1845 5.00661C12.9204 4.54924 12.4861 4.21488 11.9764 4.0765C11.4667 3.93813 10.923 4.00697 10.4639 4.268C10.2349 4.4 9.9749 4.682 9.7119 5.035C9.8859 4.63 9.9999 4.264 9.9999 4C9.9999 3.46957 9.78919 2.96086 9.41412 2.58579C9.03904 2.21071 8.53034 2 7.9999 2C7.46947 2 6.96076 2.21071 6.58569 2.58579C6.21062 2.96086 5.9999 3.46957 5.9999 4C5.9999 4.264 6.1139 4.63 6.2879 5.035C6.0249 4.682 5.7649 4.4 5.5359 4.268C5.07679 4.00697 4.53306 3.93813 4.02337 4.0765C3.51369 4.21488 3.07943 4.54924 2.81535 5.00661C2.55128 5.46399 2.47884 6.00725 2.61383 6.51784C2.74882 7.02843 3.08029 7.4649 3.5359 7.732C3.7649 7.864 4.1389 7.948 4.5759 8C4.1389 8.052 3.7649 8.136 3.5359 8.268C3.30661 8.39836 3.10537 8.5728 2.94377 8.78125C2.78217 8.98971 2.66339 9.22807 2.59428 9.48262C2.52518 9.73716 2.5071 10.0029 2.5411 10.2644C2.57509 10.526 2.66049 10.7782 2.79238 11.0067C2.92426 11.2351 3.10002 11.4352 3.30954 11.5954C3.51907 11.7556 3.75821 11.8728 4.01321 11.9402C4.26821 12.0076 4.53402 12.0239 4.79535 11.9882C5.05668 11.9525 5.30836 11.8654 5.5359 11.732C5.7649 11.6 6.0249 11.318 6.2879 10.965C6.1139 11.37 5.9999 11.736 5.9999 12C5.9999 12.5304 6.21062 13.0391 6.58569 13.4142C6.96076 13.7893 7.46947 14 7.9999 14C8.53034 14 9.03904 13.7893 9.41412 13.4142C9.78919 13.0391 9.9999 12.5304 9.9999 12C9.9999 11.736 9.8859 11.37 9.7119 10.965C9.9749 11.318 10.2349 11.6 10.4639 11.732C10.6914 11.8654 10.9431 11.9525 11.2045 11.9882C11.4658 12.0239 11.7316 12.0076 11.9866 11.9402C12.2416 11.8728 12.4807 11.7556 12.6903 11.5954C12.8998 11.4352 13.0755 11.2351 13.2074 11.0067C13.3393 10.7782 13.4247 10.526 13.4587 10.2644C13.4927 10.0029 13.4746 9.73716 13.4055 9.48262C13.3364 9.22807 13.2176 8.98971 13.056 8.78125C12.8944 8.5728 12.6932 8.39836 12.4639 8.268C12.2349 8.136 11.8609 8.052 11.4239 8ZM8.9999 4C8.98981 4.06932 8.97477 4.13783 8.9549 4.205C8.9159 4.337 8.8549 4.5 8.7719 4.689C8.58156 5.10775 8.36892 5.516 8.1349 5.912L7.9999 6.142C7.95443 6.06561 7.90943 5.98894 7.8649 5.912C7.63088 5.516 7.41825 5.10775 7.2279 4.689C7.15705 4.53157 7.09594 4.36993 7.0449 4.205C7.02505 4.13782 7.01001 4.06932 6.9999 4C6.9999 3.73478 7.10526 3.48043 7.2928 3.29289C7.48033 3.10536 7.73469 3 7.9999 3C8.26512 3 8.51947 3.10536 8.70701 3.29289C8.89455 3.48043 8.9999 3.73478 8.9999 4ZM3.6699 5.5C3.80252 5.27033 4.02093 5.10274 4.2771 5.0341C4.53328 4.96546 4.80622 5.0014 5.0359 5.134C5.09123 5.17754 5.14337 5.225 5.1919 5.276C5.2859 5.376 5.3959 5.509 5.5179 5.676C5.7629 6.009 6.0199 6.423 6.2599 6.839L6.3899 7.071C6.30157 7.0722 6.21324 7.07287 6.1249 7.073C5.66449 7.07766 5.20417 7.05763 4.7459 7.013C4.57437 6.99579 4.40405 6.96807 4.2359 6.93C4.1678 6.91346 4.10096 6.89207 4.0359 6.866C3.80623 6.73339 3.63864 6.51497 3.57 6.2588C3.50137 6.00263 3.5373 5.72968 3.6699 5.5ZM5.0359 10.866C4.80634 10.9965 4.53448 11.0309 4.27964 10.9617C4.0248 10.8926 3.80767 10.7254 3.67563 10.4967C3.54359 10.268 3.50737 9.99638 3.57487 9.74108C3.64236 9.48579 3.8081 9.26755 4.0359 9.134C4.0369 9.134 4.0519 9.126 4.0829 9.114C4.1199 9.101 4.1699 9.086 4.2359 9.07C4.3699 9.038 4.5409 9.01 4.7459 8.987C5.20417 8.94237 5.66449 8.92234 6.1249 8.927C6.2149 8.927 6.3029 8.927 6.3909 8.929C6.34771 9.0066 6.30404 9.08393 6.2599 9.161C6.0199 9.577 5.7629 9.991 5.5179 10.324C5.41742 10.4641 5.3082 10.5977 5.1909 10.724C5.14266 10.7749 5.09086 10.8224 5.0359 10.866ZM8.9999 12C8.9999 12.2652 8.89455 12.5196 8.70701 12.7071C8.51947 12.8946 8.26512 13 7.9999 13C7.73469 13 7.48033 12.8946 7.2928 12.7071C7.10526 12.5196 6.9999 12.2652 6.9999 12C7.00997 11.9303 7.02501 11.8615 7.0449 11.794C7.0839 11.663 7.1449 11.5 7.2279 11.311C7.3939 10.933 7.6239 10.503 7.8649 10.088L7.9999 9.858L8.1349 10.088C8.3759 10.503 8.6049 10.933 8.7719 11.311C8.8549 11.501 8.9159 11.663 8.9549 11.795C8.97525 11.8621 8.99029 11.9306 8.9999 12ZM12.3299 5.5C12.4625 5.72968 12.4984 6.00263 12.4298 6.2588C12.3612 6.51497 12.1936 6.73339 11.9639 6.866C11.8988 6.89205 11.832 6.91344 11.7639 6.93C11.6299 6.962 11.4589 6.99 11.2539 7.013C10.8419 7.058 10.3559 7.074 9.8749 7.073C9.7849 7.073 9.6969 7.073 9.6089 7.071L9.7399 6.839C9.9799 6.423 10.2369 6.009 10.4819 5.676C10.5824 5.53592 10.6916 5.40233 10.8089 5.276C10.8549 5.226 10.8939 5.19 10.9229 5.166C10.9489 5.144 10.9629 5.136 10.9639 5.134C11.1936 5.0014 11.4665 4.96546 11.7227 5.0341C11.9789 5.10274 12.1973 5.27033 12.3299 5.5ZM10.9639 10.866C10.909 10.8227 10.8572 10.7756 10.8089 10.725C10.6918 10.5985 10.5826 10.4649 10.4819 10.325C10.2139 9.95022 9.96622 9.56133 9.7399 9.16C9.6961 9.08293 9.65277 9.0056 9.6099 8.928L9.8749 8.926C10.3549 8.925 10.8419 8.941 11.2539 8.986C11.4589 9.009 11.6299 9.037 11.7639 9.069C11.8299 9.085 11.8799 9.1 11.9169 9.113L11.9649 9.133C12.0795 9.19818 12.1802 9.2854 12.261 9.38963C12.3418 9.49385 12.4012 9.61303 12.4357 9.74031C12.4703 9.86758 12.4793 10.0004 12.4623 10.1312C12.4453 10.262 12.4026 10.3881 12.3367 10.5023C12.2707 10.6165 12.1828 10.7166 12.0781 10.7967C11.9733 10.8768 11.8537 10.9354 11.7262 10.9691C11.5987 11.0028 11.4658 11.011 11.3352 10.9931C11.2045 10.9752 11.0787 10.9317 10.9649 10.865L10.9639 10.866ZM7.9999 9C7.73469 9 7.48033 8.89464 7.2928 8.70711C7.10526 8.51957 6.9999 8.26522 6.9999 8C6.9999 7.73478 7.10526 7.48043 7.2928 7.29289C7.48033 7.10536 7.73469 7 7.9999 7C8.26512 7 8.51947 7.10536 8.70701 7.29289C8.89455 7.48043 8.9999 7.73478 8.9999 8C8.9999 8.26522 8.89455 8.51957 8.70701 8.70711C8.51947 8.89464 8.26512 9 7.9999 9Z"/> </svg>