<svg width="16" height="16" viewBox="0 0 16 16" fill="none" xmlns="http://www.w3.org/2000/svg">
<path d="M0.539824 3.87L0.499824 3C0.499824 2.46957 0.710538 1.96086 1.08561 1.58579C1.46068 1.21071 1.96939 1 2.49982 1H6.17182C6.70221 1.00011 7.21084 1.2109 7.58582 1.586L8.41382 2.414C8.78881 2.7891 9.29743 2.99989 9.82782 3H13.8098C14.0877 2.99997 14.3626 3.05787 14.6169 3.16999C14.8712 3.28212 15.0994 3.44601 15.2868 3.65122C15.4742 3.85643 15.6168 4.09845 15.7055 4.36184C15.7942 4.62524 15.827 4.90422 15.8018 5.181L15.5458 8H14.5398L14.8048 5.09C14.8173 4.95173 14.8009 4.81238 14.7566 4.68081C14.7123 4.54924 14.641 4.42834 14.5474 4.32581C14.4538 4.22328 14.3399 4.14135 14.2129 4.08526C14.0859 4.02917 13.9487 4.00013 13.8098 4H2.18982C2.05091 3.99999 1.91352 4.02893 1.78641 4.08496C1.65929 4.14099 1.54525 4.22289 1.45154 4.32544C1.35784 4.42799 1.28653 4.54894 1.24215 4.68058C1.19778 4.81221 1.18132 4.95165 1.19382 5.09L1.83082 12.09C1.85328 12.3385 1.96779 12.5696 2.15188 12.7379C2.33597 12.9063 2.57635 12.9998 2.82582 13H8.99982V14H2.82582C2.32686 13.9998 1.84599 13.8131 1.47762 13.4766C1.10925 13.14 0.87998 12.6779 0.834824 12.181L0.197824 5.181C0.15521 4.71778 0.276218 4.25427 0.539824 3.871V3.87ZM6.87882 2.293C6.69133 2.10545 6.43702 2.00006 6.17182 2H2.49982C2.23787 1.99995 1.98635 2.1027 1.79935 2.28614C1.61235 2.46959 1.5048 2.71909 1.49982 2.981L1.50582 3.12C1.71982 3.042 1.94982 3 2.18982 3H7.58582L6.87882 2.293Z" fill="#212529"/>
<path d="M11.8538 10.146C11.7599 10.0522 11.6327 9.99963 11.5 9.99972C11.3673 9.99981 11.2401 10.0526 11.1463 10.1465C11.0526 10.2404 11 10.3677 11 10.5004C11.0001 10.633 11.0529 10.7602 11.1468 10.854L12.2928 12L11.1468 13.146C11.1003 13.1924 11.0634 13.2475 11.0383 13.3082C11.0131 13.3689 11.0001 13.4339 11 13.4996C11 13.6323 11.0526 13.7596 11.1463 13.8535C11.2401 13.9474 11.3673 14.0002 11.5 14.0003C11.6327 14.0004 11.7599 13.9478 11.8538 13.854L12.9998 12.707L14.1458 13.854C14.2397 13.9479 14.367 14.0006 14.4998 14.0006C14.6326 14.0006 14.7599 13.9479 14.8538 13.854C14.9477 13.7601 15.0005 13.6328 15.0005 13.5C15.0005 13.3672 14.9477 13.2399 14.8538 13.146L13.7068 12L14.8538 10.854C14.9477 10.7602 15.0005 10.633 15.0006 10.5004C15.0007 10.3677 14.9481 10.2404 14.8543 10.1465C14.7606 10.0526 14.6334 9.99981 14.5007 9.99972C14.368 9.99963 14.2407 10.0522 14.1468 10.146L12.9998 11.293L11.8538 10.146Z" fill="#212529"/>
</svg>
