<svg width="16" height="16" viewBox="0 0 16 16" xmlns="http://www.w3.org/2000/svg"> <path d="M0.999915 3.5C0.999915 3.10218 1.15795 2.72064 1.43925 2.43934C1.72056 2.15804 2.10209 2 2.49991 2H5.26392C6.22192 2 7.02391 2.56 7.57491 3.184C7.98491 3.648 8.47992 4 8.99992 4H13.4999C13.8977 4 14.2793 4.15804 14.5606 4.43934C14.8419 4.72064 14.9999 5.10218 14.9999 5.5V6.14C15.5699 6.405 15.9399 7.016 15.8559 7.686L15.2159 12.81C15.1403 13.415 14.8462 13.9716 14.3889 14.3749C13.9316 14.7783 13.3427 15.0006 12.7329 15H3.26591C2.65651 15.0001 2.06807 14.7775 1.61119 14.3743C1.15432 13.971 0.860481 13.4147 0.784915 12.81L0.144915 7.686C0.105488 7.37099 0.167024 7.05159 0.320667 6.77377C0.47431 6.49596 0.712136 6.27405 0.999915 6.14V3.5ZM1.99992 6H13.9999V5.5C13.9999 5.36739 13.9472 5.24021 13.8535 5.14645C13.7597 5.05268 13.6325 5 13.4999 5H8.99992C8.03592 5 7.28992 4.371 6.82592 3.846C6.37392 3.334 5.81991 3 5.26392 3H2.49991C2.36731 3 2.24013 3.05268 2.14636 3.14645C2.05259 3.24021 1.99992 3.36739 1.99992 3.5V6ZM1.63292 7C1.56203 7.00002 1.49196 7.01511 1.42736 7.04427C1.36275 7.07343 1.30508 7.116 1.25818 7.16915C1.21127 7.22229 1.1762 7.2848 1.1553 7.35253C1.13439 7.42026 1.12813 7.49166 1.13691 7.562L1.77691 12.686C1.82226 13.0489 1.99862 13.3827 2.27283 13.6247C2.54704 13.8667 2.9002 14.0001 3.26591 14H12.7339C13.0996 14.0001 13.4528 13.8667 13.727 13.6247C14.0012 13.3827 14.1776 13.0489 14.2229 12.686L14.8629 7.562C14.8717 7.49166 14.8654 7.42026 14.8445 7.35253C14.8236 7.2848 14.7886 7.22229 14.7417 7.16915C14.6947 7.116 14.6371 7.07343 14.5725 7.04427C14.5079 7.01511 14.4378 7.00002 14.3669 7H1.63292Z"/> </svg>