<svg width="16" height="16" viewBox="0 0 16 16" fill="none" xmlns="http://www.w3.org/2000/svg">
<path d="M0.499905 3L0.539905 3.87C0.276071 4.25355 0.155053 4.71745 0.197905 5.181L0.834905 12.181C0.880061 12.6779 1.10933 13.14 1.4777 13.4766C1.84607 13.8131 2.32694 13.9998 2.82591 14H8.99991V13H2.82591C2.57643 12.9998 2.33605 12.9063 2.15196 12.7379C1.96787 12.5696 1.85336 12.3385 1.83091 12.09L1.19391 5.09C1.1814 4.95165 1.19786 4.81221 1.24224 4.68058C1.28661 4.54894 1.35792 4.42799 1.45163 4.32544C1.54533 4.22289 1.65937 4.14099 1.78649 4.08496C1.9136 4.02893 2.05099 3.99999 2.18991 4H13.8099C13.9488 3.99999 14.0862 4.02893 14.2133 4.08496C14.3404 4.14099 14.4545 4.22289 14.5482 4.32544C14.6419 4.42799 14.7132 4.54894 14.7576 4.68058C14.8019 4.81221 14.8184 4.95165 14.8059 5.09L14.5399 8H15.5449L15.8009 5.181C15.826 4.9043 15.7933 4.6254 15.7046 4.36208C15.616 4.09876 15.4735 3.85678 15.2862 3.65159C15.0989 3.4464 14.8709 3.28248 14.6167 3.17029C14.3625 3.05811 14.0877 3.00011 13.8099 3H9.82791C9.29752 2.99989 8.78889 2.7891 8.41391 2.414L7.58591 1.586C7.21092 1.2109 6.70229 1.00011 6.17191 1H2.49991C1.96947 1 1.46076 1.21071 1.08569 1.58579C0.710619 1.96086 0.499905 2.46957 0.499905 3ZM6.17191 2C6.4371 2.00006 6.69141 2.10545 6.87891 2.293L7.58591 3H2.18991C1.94991 3 1.71991 3.042 1.50691 3.12L1.49991 2.98C1.50514 2.71827 1.6128 2.46902 1.79978 2.28579C1.98675 2.10255 2.23812 1.99995 2.49991 2H6.17191Z" fill="#212529"/>
<path d="M10.9999 11.5C10.9999 11.3674 11.0526 11.2402 11.1464 11.1464C11.2401 11.0527 11.3673 11 11.4999 11H15.4999C15.6325 11 15.7597 11.0527 15.8535 11.1464C15.9472 11.2402 15.9999 11.3674 15.9999 11.5C15.9999 11.6326 15.9472 11.7598 15.8535 11.8536C15.7597 11.9473 15.6325 12 15.4999 12H11.4999C11.3673 12 11.2401 11.9473 11.1464 11.8536C11.0526 11.7598 10.9999 11.6326 10.9999 11.5Z" fill="#212529"/>
</svg>
