<svg width="16" height="16" viewBox="0 0 16 16" xmlns="http://www.w3.org/2000/svg"> <path d="M0.539824 3.87L0.499824 3C0.499824 2.46957 0.710538 1.96086 1.08561 1.58579C1.46068 1.21071 1.96939 1 2.49982 1H6.17182C6.70221 1.00011 7.21084 1.2109 7.58582 1.586L8.41382 2.414C8.78881 2.7891 9.29743 2.99989 9.82782 3H13.8098C14.0877 2.99997 14.3626 3.05787 14.6169 3.16999C14.8712 3.28212 15.0994 3.44601 15.2868 3.65122C15.4742 3.85643 15.6168 4.09845 15.7055 4.36184C15.7942 4.62524 15.827 4.90422 15.8018 5.181L15.1648 12.181C15.1197 12.6779 14.8904 13.14 14.522 13.4766C14.1537 13.8131 13.6728 13.9998 13.1738 14H2.82582C2.32686 13.9998 1.84599 13.8131 1.47762 13.4766C1.10925 13.14 0.87998 12.6779 0.834824 12.181L0.197824 5.181C0.15521 4.71778 0.276218 4.25427 0.539824 3.871V3.87ZM2.18982 4C2.05091 3.99999 1.91352 4.02893 1.78641 4.08496C1.65929 4.14099 1.54525 4.22289 1.45154 4.32544C1.35784 4.42799 1.28653 4.54894 1.24215 4.68058C1.19778 4.81221 1.18132 4.95165 1.19382 5.09L1.83082 12.09C1.85328 12.3385 1.96779 12.5696 2.15188 12.7379C2.33597 12.9063 2.57635 12.9998 2.82582 13H13.1738C13.4233 12.9998 13.6637 12.9063 13.8478 12.7379C14.0319 12.5696 14.1464 12.3385 14.1688 12.09L14.8058 5.09C14.8183 4.95165 14.8019 4.81221 14.7575 4.68058C14.7131 4.54894 14.6418 4.42799 14.5481 4.32544C14.4544 4.22289 14.3404 4.14099 14.2132 4.08496C14.0861 4.02893 13.9487 3.99999 13.8098 4H2.18982ZM6.87982 2.293C6.78687 2.20002 6.67649 2.12628 6.555 2.076C6.43351 2.02572 6.3033 1.9999 6.17182 2H2.49982C2.23787 1.99995 1.98635 2.1027 1.79935 2.28614C1.61235 2.46959 1.5048 2.71909 1.49982 2.981L1.50582 3.12C1.71982 3.042 1.94982 3 2.18982 3H7.58582L6.87882 2.293H6.87982Z"/> </svg>