<svg width="16" height="16" viewBox="0 0 16 16" fill="none" xmlns="http://www.w3.org/2000/svg">
<path d="M9.77 12.1099L13.782 9.15693C13.8788 9.09971 13.959 9.01825 14.0148 8.92058C14.0705 8.8229 14.0998 8.71239 14.0998 8.59993C14.0998 8.48747 14.0705 8.37696 14.0148 8.27928C13.959 8.18161 13.8788 8.10015 13.782 8.04293L9.771 5.08993C9.67303 5.03219 9.56151 5.00141 9.44779 5.00074C9.33407 5.00007 9.2222 5.02953 9.12355 5.08612C9.02491 5.1427 8.94301 5.2244 8.88618 5.32291C8.82934 5.42141 8.79961 5.53321 8.8 5.64693V6.64993H2V10.5499H8.8V11.5529C8.8 12.0579 9.345 12.3609 9.77 12.1099Z" fill="#212529"/>
</svg>
