<svg width="16" height="16" viewBox="0 0 16 16" fill="none" xmlns="http://www.w3.org/2000/svg">
<g clip-path="url(#clip0_34_4326)">
<path d="M8.93201 0.727012C8.68901 -0.242988 7.31201 -0.242988 7.06801 0.727012L6.99701 1.01301C6.95547 1.17922 6.87021 1.33128 6.75007 1.45342C6.62993 1.57556 6.4793 1.66332 6.3138 1.7076C6.1483 1.75189 5.97397 1.75107 5.80889 1.70525C5.64381 1.65943 5.49401 1.57026 5.37501 1.44701L5.17001 1.23601C4.47501 0.517012 3.28201 1.20601 3.55701 2.16701L3.63701 2.45101C3.68402 2.61556 3.68619 2.78968 3.6433 2.95534C3.6004 3.12101 3.51401 3.2722 3.39305 3.39326C3.27209 3.51431 3.12098 3.60084 2.95535 3.64387C2.78972 3.6869 2.6156 3.68488 2.45101 3.63801L2.16701 3.55701C1.20701 3.28201 0.517012 4.47501 1.23601 5.17001L1.44701 5.37501C1.57026 5.49401 1.65943 5.64381 1.70525 5.80889C1.75107 5.97397 1.75189 6.1483 1.7076 6.3138C1.66332 6.4793 1.57556 6.62993 1.45342 6.75007C1.33128 6.87021 1.17922 6.95547 1.01301 6.99701L0.727012 7.06801C-0.242988 7.31101 -0.242988 8.68801 0.727012 8.93201L1.01301 9.00301C1.17922 9.04455 1.33128 9.12982 1.45342 9.24995C1.57556 9.37009 1.66332 9.52072 1.7076 9.68622C1.75189 9.85172 1.75107 10.0261 1.70525 10.1911C1.65943 10.3562 1.57026 10.506 1.44701 10.625L1.23601 10.83C0.517012 11.525 1.20601 12.718 2.16701 12.443L2.45101 12.363C2.61566 12.3159 2.78991 12.3137 2.95569 12.3566C3.12148 12.3996 3.27276 12.4861 3.39385 12.6072C3.51495 12.7283 3.60144 12.8795 3.64438 13.0453C3.68731 13.2111 3.68511 13.3854 3.63801 13.55L3.55701 13.833C3.28201 14.793 4.47501 15.483 5.17001 14.764L5.37501 14.553C5.49401 14.4298 5.64381 14.3406 5.80889 14.2948C5.97397 14.2489 6.1483 14.2481 6.3138 14.2924C6.4793 14.3367 6.62993 14.4245 6.75007 14.5466C6.87021 14.6687 6.95547 14.8208 6.99701 14.987L7.06801 15.273C7.31101 16.243 8.68801 16.243 8.93201 15.273L9.00301 14.987C9.04455 14.8208 9.12982 14.6687 9.24995 14.5466C9.37009 14.4245 9.52072 14.3367 9.68622 14.2924C9.85172 14.2481 10.0261 14.2489 10.1911 14.2948C10.3562 14.3406 10.506 14.4298 10.625 14.553L10.83 14.764C11.525 15.483 12.718 14.794 12.443 13.833L12.363 13.549C12.3159 13.3844 12.3137 13.2101 12.3566 13.0443C12.3996 12.8785 12.4861 12.7273 12.6072 12.6062C12.7283 12.4851 12.8795 12.3986 13.0453 12.3556C13.2111 12.3127 13.3854 12.3149 13.55 12.362L13.833 12.443C14.793 12.718 15.483 11.525 14.764 10.83L14.553 10.625C14.4298 10.506 14.3406 10.3562 14.2948 10.1911C14.2489 10.0261 14.2481 9.85172 14.2924 9.68622C14.3367 9.52072 14.4245 9.37009 14.5466 9.24995C14.6687 9.12982 14.8208 9.04455 14.987 9.00301L15.273 8.93201C16.243 8.68901 16.243 7.31201 15.273 7.06801L14.987 6.99701C14.8208 6.95547 14.6687 6.87021 14.5466 6.75007C14.4245 6.62993 14.3367 6.4793 14.2924 6.3138C14.2481 6.1483 14.2489 5.97397 14.2948 5.80889C14.3406 5.64381 14.4298 5.49401 14.553 5.37501L14.764 5.17001C15.483 4.47501 14.794 3.28201 13.833 3.55701L13.549 3.63701C13.3845 3.68402 13.2103 3.68619 13.0447 3.6433C12.879 3.6004 12.7278 3.51401 12.6068 3.39305C12.4857 3.27209 12.3992 3.12098 12.3562 2.95535C12.3131 2.78972 12.3151 2.6156 12.362 2.45101L12.443 2.16701C12.718 1.20701 11.525 0.517012 10.83 1.23601L10.625 1.44701C10.506 1.57026 10.3562 1.65943 10.1911 1.70525C10.0261 1.75107 9.85172 1.75189 9.68622 1.7076C9.52072 1.66332 9.37009 1.57556 9.24995 1.45342C9.12982 1.33128 9.04455 1.17922 9.00301 1.01301L8.93201 0.727012ZM8.00001 12.997C7.33778 13.0064 6.68029 12.884 6.06576 12.6371C5.45122 12.3901 4.8919 12.0235 4.42028 11.5585C3.94867 11.0935 3.57417 10.5395 3.31856 9.92848C3.06295 9.3175 2.93132 8.66181 2.93132 7.99951C2.93132 7.33722 3.06295 6.68152 3.31856 6.07054C3.57417 5.45956 3.94867 4.90548 4.42028 4.44049C4.8919 3.9755 5.45122 3.60888 6.06576 3.36193C6.68029 3.11499 7.33778 2.99264 8.00001 3.00201C9.32556 3.00201 10.5968 3.52859 11.5341 4.46589C12.4714 5.4032 12.998 6.67446 12.998 8.00001C12.998 9.32556 12.4714 10.5968 11.5341 11.5341C10.5968 12.4714 9.32556 12.998 8.00001 12.998V12.997Z" fill="#212529"/>
</g>
<defs>
<clipPath id="clip0_34_4326">
<rect width="16" height="16" fill="white"/>
</clipPath>
</defs>
</svg>
