<svg width="16" height="16" viewBox="0 0 16 16" xmlns="http://www.w3.org/2000/svg"> <path fill-rule="evenodd" clip-rule="evenodd" d="M11.4999 1C11.3673 1 11.2401 0.947322 11.1463 0.853553C11.0525 0.759785 10.9999 0.632608 10.9999 0.5C10.9999 0.367392 11.0525 0.240215 11.1463 0.146447C11.2401 0.0526784 11.3673 0 11.4999 0L15.4999 0C15.6325 0 15.7596 0.0526784 15.8534 0.146447C15.9472 0.240215 15.9999 0.367392 15.9999 0.5V4.5C15.9999 4.63261 15.9472 4.75979 15.8534 4.85355C15.7596 4.94732 15.6325 5 15.4999 5C15.3673 5 15.2401 4.94732 15.1463 4.85355C15.0525 4.75979 14.9999 4.63261 14.9999 4.5V1.707L11.5499 5.157C11.8471 5.7291 12.0017 6.36457 12.0004 7.00929C11.9991 7.65401 11.842 8.28886 11.5425 8.85977C11.2429 9.43067 10.8098 9.92071 10.28 10.2881C9.75027 10.6556 9.13953 10.8895 8.49986 10.97V13H9.99986C10.1325 13 10.2596 13.0527 10.3534 13.1464C10.4472 13.2402 10.4999 13.3674 10.4999 13.5C10.4999 13.6326 10.4472 13.7598 10.3534 13.8536C10.2596 13.9473 10.1325 14 9.99986 14H8.49986V15.5C8.49986 15.6326 8.44718 15.7598 8.35341 15.8536C8.25965 15.9473 8.13247 16 7.99986 16C7.86725 16 7.74007 15.9473 7.64631 15.8536C7.55254 15.7598 7.49986 15.6326 7.49986 15.5V14H5.99986C5.86725 14 5.74007 13.9473 5.64631 13.8536C5.55254 13.7598 5.49986 13.6326 5.49986 13.5C5.49986 13.3674 5.55254 13.2402 5.64631 13.1464C5.74007 13.0527 5.86725 13 5.99986 13H7.49986V10.97C6.8597 10.8892 6.2486 10.6547 5.71869 10.2865C5.18879 9.91835 4.75581 9.42746 4.4567 8.85573C4.1576 8.28401 4.00124 7.6484 4.00098 7.00316C4.00071 6.35792 4.15654 5.72219 4.45518 5.15021C4.75381 4.57824 5.18639 4.08699 5.71599 3.7184C6.24559 3.34981 6.8565 3.1148 7.49659 3.03344C8.13669 2.95208 8.78696 3.02677 9.39194 3.25115C9.99691 3.47553 10.5386 3.84293 10.9709 4.322L14.2929 1H11.4999ZM10.5029 5.346C10.0641 4.68216 9.37952 4.21983 8.59984 4.0607C7.82016 3.90158 7.0092 4.0587 6.34536 4.4975C5.68152 4.9363 5.21919 5.62084 5.06006 6.40052C4.90094 7.1802 5.05806 7.99116 5.49686 8.655C5.93579 9.31884 6.62046 9.78112 7.40023 9.94015C8.18001 10.0992 8.99102 9.94193 9.65486 9.503C10.3187 9.06407 10.781 8.3794 10.94 7.59963C11.099 6.81985 10.9418 6.00884 10.5029 5.345V5.346Z"/> </svg>