<svg width="16" height="16" viewBox="0 0 16 16" xmlns="http://www.w3.org/2000/svg"> <g clip-path="url(#clip0_34_4346)"> <path fill-rule="evenodd" clip-rule="evenodd" d="M4 4.00012C4.00007 3.23034 4.22226 2.47694 4.63989 1.83031C5.05753 1.18368 5.65288 0.671289 6.3545 0.354624C7.05613 0.0379591 7.83422 -0.0695301 8.59542 0.0450543C9.35662 0.159639 10.0686 0.491429 10.6459 1.00061C11.2232 1.5098 11.6413 2.17475 11.8501 2.91567C12.0589 3.6566 12.0494 4.44202 11.8228 5.1777C11.5963 5.91339 11.1623 6.56807 10.5729 7.06321C9.98349 7.55835 9.26374 7.8729 8.5 7.96912V13.5001C8.5 13.6327 8.44732 13.7599 8.35355 13.8537C8.25979 13.9474 8.13261 14.0001 8 14.0001C7.86739 14.0001 7.74021 13.9474 7.64645 13.8537C7.55268 13.7599 7.5 13.6327 7.5 13.5001V7.97012C6.53296 7.84828 5.64369 7.37755 4.99921 6.64635C4.35474 5.91515 3.99942 4.9738 4 3.99912V4.00012ZM6.493 12.5741C6.51469 12.7049 6.48358 12.8389 6.40651 12.9467C6.32944 13.0545 6.21272 13.1273 6.082 13.1491C5.37 13.2671 4.802 13.4441 4.427 13.6421C4.28924 13.7083 4.16405 13.798 4.057 13.9071C4.0328 13.9335 4.0135 13.964 4 13.9971V14.0001L4.002 14.0081C4.00593 14.0197 4.01131 14.0308 4.018 14.0411C4.05747 14.099 4.1065 14.1497 4.163 14.1911C4.328 14.3211 4.598 14.4611 4.976 14.5861C5.727 14.8361 6.796 15.0001 8 15.0001C9.204 15.0001 10.273 14.8371 11.024 14.5861C11.402 14.4601 11.672 14.3211 11.837 14.1911C11.8938 14.1498 11.9432 14.099 11.983 14.0411C11.9893 14.0308 11.9944 14.0197 11.998 14.0081L12 14.0001V13.9961C11.9865 13.963 11.9672 13.9325 11.943 13.9061C11.8359 13.7974 11.7107 13.708 11.573 13.6421C11.197 13.4441 10.63 13.2671 9.918 13.1491C9.85168 13.1401 9.78783 13.1179 9.73025 13.0838C9.67267 13.0497 9.62253 13.0044 9.58279 12.9505C9.54306 12.8966 9.51454 12.8354 9.49893 12.7703C9.48332 12.7052 9.48093 12.6376 9.49191 12.5716C9.5029 12.5056 9.52702 12.4424 9.56286 12.3859C9.5987 12.3294 9.64552 12.2806 9.70055 12.2425C9.75558 12.2044 9.81769 12.1778 9.88322 12.1641C9.94874 12.1505 10.0163 12.1502 10.082 12.1631C10.852 12.2901 11.534 12.4911 12.039 12.7571C12.5 13.0001 13 13.4001 13 14.0001C13 14.4261 12.74 14.7521 12.456 14.9771C12.166 15.2051 11.776 15.3901 11.34 15.5351C10.462 15.8281 9.281 16.0001 8 16.0001C6.719 16.0001 5.538 15.8281 4.66 15.5351C4.224 15.3901 3.834 15.2051 3.544 14.9771C3.26 14.7521 3 14.4261 3 14.0001C3 13.4011 3.5 13.0001 3.961 12.7571C4.466 12.4911 5.148 12.2901 5.918 12.1631C6.04874 12.1414 6.18275 12.1725 6.29057 12.2496C6.39838 12.3267 6.4712 12.4434 6.493 12.5741Z"/> </g> <defs> <clipPath id="clip0_34_4346"> <rect width="16" height="16"/> </clipPath> </defs> </svg>