<svg width="16" height="16" viewBox="0 0 16 16" xmlns="http://www.w3.org/2000/svg"> <g clip-path="url(#clip0_34_4352)"> <path d="M15.6978 7.2871L8.71184 0.302104C8.61619 0.206406 8.50262 0.130491 8.37762 0.078697C8.25262 0.0269028 8.11864 0.000244141 7.98334 0.000244141C7.84803 0.000244141 7.71405 0.0269028 7.58906 0.078697C7.46406 0.130491 7.35049 0.206406 7.25484 0.302104L5.80484 1.7521L7.64484 3.5921C7.86184 3.51801 8.0953 3.50642 8.31858 3.55865C8.54186 3.61088 8.74595 3.72483 8.90757 3.8875C9.06919 4.05016 9.18183 4.25498 9.23262 4.47859C9.28341 4.7022 9.27032 4.93558 9.19484 5.1521L10.9678 6.9261C11.2301 6.83375 11.5161 6.83346 11.7786 6.92531C12.0411 7.01716 12.2645 7.19565 12.412 7.4314C12.5595 7.66716 12.6223 7.94611 12.5901 8.22234C12.5579 8.49857 12.4326 8.7556 12.2348 8.9511C12.0346 9.15255 11.7707 9.27823 11.4881 9.30668C11.2055 9.33513 10.9218 9.26459 10.6854 9.1071C10.4491 8.94961 10.2748 8.71494 10.1922 8.44319C10.1097 8.17143 10.124 7.87945 10.2328 7.6171L8.57984 5.9631V10.3161C8.83109 10.4405 9.03214 10.6472 9.14945 10.9018C9.26677 11.1565 9.29327 11.4436 9.22454 11.7154C9.15582 11.9872 8.99601 12.2272 8.77176 12.3955C8.54751 12.5638 8.27237 12.6501 7.99219 12.6401C7.71202 12.6301 7.44373 12.5243 7.23206 12.3405C7.02039 12.1567 6.87811 11.9059 6.82895 11.6299C6.77979 11.3538 6.82671 11.0693 6.96189 10.8237C7.09707 10.5781 7.31235 10.3862 7.57184 10.2801V5.8871C7.42213 5.82576 7.28604 5.73539 7.17142 5.6212C7.0568 5.50701 6.96591 5.37126 6.904 5.22179C6.84209 5.07231 6.81038 4.91205 6.81069 4.75026C6.81101 4.58847 6.84334 4.42834 6.90584 4.2791L5.09284 2.4651L0.302837 7.2551C0.207138 7.35076 0.131224 7.46432 0.0794294 7.58932C0.0276352 7.71432 0.000976563 7.8483 0.000976562 7.9836C0.000976563 8.11891 0.0276352 8.25289 0.0794294 8.37789C0.131224 8.50288 0.207138 8.61645 0.302837 8.7121L7.28884 15.6981C7.38449 15.7938 7.49806 15.8697 7.62305 15.9215C7.74805 15.9733 7.88203 16 8.01734 16C8.15264 16 8.28662 15.9733 8.41162 15.9215C8.53662 15.8697 8.65019 15.7938 8.74584 15.6981L15.6988 8.7451C15.8919 8.5518 16.0003 8.28978 16.0003 8.0166C16.0003 7.74342 15.8919 7.48141 15.6988 7.2881"/> </g> <defs> <clipPath id="clip0_34_4352"> <rect width="16" height="16"/> </clipPath> </defs> </svg>