<svg width="16" height="16" viewBox="0 0 16 16" fill="none" xmlns="http://www.w3.org/2000/svg">
<path d="M4 8C4 7.80302 4.0388 7.60796 4.11418 7.42597C4.18956 7.24399 4.30005 7.07863 4.43934 6.93934C4.57863 6.80005 4.74399 6.68956 4.92597 6.61418C5.10796 6.5388 5.30302 6.5 5.5 6.5C5.69698 6.5 5.89204 6.5388 6.07403 6.61418C6.25601 6.68956 6.42137 6.80005 6.56066 6.93934C6.69995 7.07863 6.81044 7.24399 6.88582 7.42597C6.9612 7.60796 7 7.80302 7 8C7 8.39782 6.84196 8.77936 6.56066 9.06066C6.27936 9.34196 5.89782 9.5 5.5 9.5C5.10218 9.5 4.72064 9.34196 4.43934 9.06066C4.15804 8.77936 4 8.39782 4 8Z" fill="#212529"/>
<path d="M11.5 6.5C11.1022 6.5 10.7206 6.65804 10.4393 6.93934C10.158 7.22064 10 7.60218 10 8C10 8.39782 10.158 8.77936 10.4393 9.06066C10.7206 9.34196 11.1022 9.5 11.5 9.5C11.8978 9.5 12.2794 9.34196 12.5607 9.06066C12.842 8.77936 13 8.39782 13 8C13 7.60218 12.842 7.22064 12.5607 6.93934C12.2794 6.65804 11.8978 6.5 11.5 6.5Z" fill="#212529"/>
<path fill-rule="evenodd" clip-rule="evenodd" d="M0 1.5C0 1.36739 0.0526784 1.24021 0.146447 1.14645C0.240215 1.05268 0.367392 1 0.5 1H1.5C1.63261 1 1.75979 1.05268 1.85355 1.14645C1.94732 1.24021 2 1.36739 2 1.5V4H15.5C15.6326 4 15.7598 4.05268 15.8536 4.14645C15.9473 4.24021 16 4.36739 16 4.5V11.5C16 11.6326 15.9473 11.7598 15.8536 11.8536C15.7598 11.9473 15.6326 12 15.5 12H2V14.5C2 14.6326 1.94732 14.7598 1.85355 14.8536C1.75979 14.9473 1.63261 15 1.5 15C1.36739 15 1.24021 14.9473 1.14645 14.8536C1.05268 14.7598 1 14.6326 1 14.5V2H0.5C0.367392 2 0.240215 1.94732 0.146447 1.85355C0.0526784 1.75979 0 1.63261 0 1.5ZM5.5 5.5C4.83696 5.5 4.20107 5.76339 3.73223 6.23223C3.26339 6.70107 3 7.33696 3 8C3 8.66304 3.26339 9.29893 3.73223 9.76777C4.20107 10.2366 4.83696 10.5 5.5 10.5C6.16304 10.5 6.79893 10.2366 7.26777 9.76777C7.73661 9.29893 8 8.66304 8 8C8 7.33696 7.73661 6.70107 7.26777 6.23223C6.79893 5.76339 6.16304 5.5 5.5 5.5ZM9 8C9 8.66304 9.26339 9.29893 9.73223 9.76777C10.2011 10.2366 10.837 10.5 11.5 10.5C12.163 10.5 12.7989 10.2366 13.2678 9.76777C13.7366 9.29893 14 8.66304 14 8C14 7.33696 13.7366 6.70107 13.2678 6.23223C12.7989 5.76339 12.163 5.5 11.5 5.5C10.837 5.5 10.2011 5.76339 9.73223 6.23223C9.26339 6.70107 9 7.33696 9 8Z" fill="#212529"/>
<path d="M6.5 12.5H3V13.5C3 13.6326 3.05268 13.7598 3.14645 13.8536C3.24021 13.9473 3.36739 14 3.5 14H6C6.13261 14 6.25979 13.9473 6.35355 13.8536C6.44732 13.7598 6.5 13.6326 6.5 13.5V12.5Z" fill="#212529"/>
<path d="M7 12.5V13.5C7 13.6326 7.05268 13.7598 7.14645 13.8536C7.24021 13.9473 7.36739 14 7.5 14H10.5C10.6326 14 10.7598 13.9473 10.8536 13.8536C10.9473 13.7598 11 13.6326 11 13.5V12.5H7Z" fill="#212529"/>
</svg>
