<svg width="16" height="16" viewBox="0 0 16 16" fill="none" xmlns="http://www.w3.org/2000/svg">
<path d="M6.74986 1C6.94877 1 7.13954 1.07902 7.28019 1.21967C7.42085 1.36032 7.49986 1.55109 7.49986 1.75V8C7.49986 8.13261 7.55254 8.25979 7.64631 8.35355C7.74008 8.44732 7.86725 8.5 7.99986 8.5C8.13247 8.5 8.25965 8.44732 8.35342 8.35355C8.44718 8.25979 8.49986 8.13261 8.49986 8V5.467L8.58586 5.463C8.90286 5.451 9.22286 5.455 9.40186 5.49C9.53586 5.517 9.69586 5.586 9.84986 5.672C9.92686 5.714 9.99986 5.819 9.99986 5.986V8C9.99986 8.13261 10.0525 8.25979 10.1463 8.35355C10.2401 8.44732 10.3673 8.5 10.4999 8.5C10.6325 8.5 10.7596 8.44732 10.8534 8.35355C10.9472 8.25979 10.9999 8.13261 10.9999 8V6.435C11.0352 6.43128 11.0705 6.42795 11.1059 6.425C11.4219 6.401 11.6899 6.415 11.8139 6.465C11.9319 6.511 12.1139 6.672 12.2999 6.895C12.3809 6.991 12.4499 7.085 12.4999 7.154V8.5C12.4999 8.63261 12.5525 8.75979 12.6463 8.85355C12.7401 8.94732 12.8673 9 12.9999 9C13.1325 9 13.2596 8.94732 13.3534 8.85355C13.4472 8.75979 13.4999 8.63261 13.4999 8.5V7.5H13.8419C13.9816 7.5 14.1198 7.52929 14.2476 7.58599C14.3753 7.64269 14.4897 7.72553 14.5835 7.82917C14.6772 7.93282 14.7482 8.05497 14.7919 8.18773C14.8355 8.3205 14.8508 8.46094 14.8369 8.6L14.5659 11.315C14.5309 11.6639 14.4229 12.0016 14.2489 12.306L12.8539 14.748C12.8101 14.8245 12.747 14.8881 12.6708 14.9324C12.5946 14.9766 12.508 15 12.4199 15H6.03486C5.95252 15 5.87146 14.9796 5.79889 14.9407C5.72632 14.9018 5.66448 14.8456 5.61886 14.777L4.18586 12.627C4.05281 12.4276 3.96948 12.1992 3.94286 11.961L3.59786 8.856C3.58392 8.73156 3.61718 8.60642 3.69106 8.50532C3.76494 8.40421 3.87407 8.33452 3.99686 8.31L4.99986 8.11V9C4.99986 9.13261 5.05254 9.25979 5.14631 9.35355C5.24008 9.44732 5.36725 9.5 5.49986 9.5C5.63247 9.5 5.75965 9.44732 5.85342 9.35355C5.94718 9.25979 5.99986 9.13261 5.99986 9V1.75C5.99986 1.55109 6.07888 1.36032 6.21953 1.21967C6.36018 1.07902 6.55095 1 6.74986 1ZM8.49986 4.466V1.75C8.49986 1.28587 8.31549 0.840752 7.9873 0.512563C7.65911 0.184374 7.21399 0 6.74986 0C6.28573 0 5.84061 0.184374 5.51243 0.512563C5.18424 0.840752 4.99986 1.28587 4.99986 1.75V7.09L3.79986 7.33C3.43204 7.40374 3.1052 7.61264 2.88381 7.91548C2.66241 8.21833 2.56253 8.59314 2.60386 8.966L2.94886 12.072C2.99323 12.469 3.13211 12.8497 3.35386 13.182L4.78686 15.332C4.92383 15.5375 5.1094 15.7059 5.32711 15.8225C5.54482 15.939 5.78793 16 6.03486 16H12.4199C12.6843 15.9999 12.9439 15.9299 13.1726 15.7972C13.4012 15.6644 13.5907 15.4736 13.7219 15.244L15.1169 12.803C15.3607 12.3763 15.512 11.903 15.5609 11.414L15.8319 8.699C15.8597 8.42097 15.8289 8.14019 15.7415 7.87478C15.6542 7.60936 15.5122 7.36519 15.3247 7.15801C15.1372 6.95083 14.9084 6.78524 14.653 6.67191C14.3976 6.55857 14.1213 6.50001 13.8419 6.5H13.2609C13.1984 6.41535 13.1334 6.33264 13.0659 6.252C12.8749 6.023 12.5559 5.684 12.1859 5.536C11.8219 5.39 11.3399 5.404 11.0279 5.428L10.8959 5.44C10.7894 5.16747 10.5914 4.94049 10.3359 4.798C10.1058 4.66532 9.85698 4.56822 9.59786 4.51C9.28786 4.448 8.85886 4.452 8.54786 4.464L8.49986 4.466Z" fill="#212529"/>
</svg>
