<svg width="16" height="16" viewBox="0 0 16 16" xmlns="http://www.w3.org/2000/svg"> <g clip-path="url(#clip0_34_4400)"> <path d="M7.9998 1C7.46936 1 6.96066 1.21071 6.58558 1.58579C6.21051 1.96086 5.9998 2.46957 5.9998 3V5H4.9998V3C4.9998 2.20435 5.31587 1.44129 5.87848 0.87868C6.44109 0.31607 7.20415 0 7.9998 0C8.79545 0 9.55851 0.31607 10.1211 0.87868C10.6837 1.44129 10.9998 2.20435 10.9998 3V5H9.9998V3C9.9998 2.46957 9.78908 1.96086 9.41401 1.58579C9.03894 1.21071 8.53023 1 7.9998 1ZM4.9998 5H3.3598C3.00067 5.00008 2.65349 5.129 2.38136 5.36334C2.10922 5.59767 1.93019 5.92186 1.8768 6.277L0.849797 13.13C0.796585 13.4856 0.820697 13.8485 0.920488 14.1939C1.02028 14.5393 1.1934 14.8591 1.42804 15.1315C1.66269 15.404 1.95333 15.6226 2.28014 15.7724C2.60696 15.9223 2.96226 15.9999 3.3218 16H12.6768C13.0364 16.0001 13.3918 15.9226 13.7188 15.7728C14.0457 15.6229 14.3365 15.4044 14.5712 15.1319C14.806 14.8595 14.9792 14.5396 15.079 14.1941C15.1789 13.8486 15.203 13.4857 15.1498 13.13L14.1218 6.277C14.0684 5.92204 13.8895 5.59798 13.6176 5.36366C13.3457 5.12935 12.9988 5.00032 12.6398 5H10.9998V6.5C10.9998 6.63261 10.9471 6.75979 10.8534 6.85355C10.7596 6.94732 10.6324 7 10.4998 7C10.3672 7 10.24 6.94732 10.1462 6.85355C10.0525 6.75979 9.9998 6.63261 9.9998 6.5V5H5.9998V6.5C5.9998 6.63261 5.94712 6.75979 5.85335 6.85355C5.75958 6.94732 5.63241 7 5.4998 7C5.36719 7 5.24001 6.94732 5.14624 6.85355C5.05248 6.75979 4.9998 6.63261 4.9998 6.5V5Z"/> </g> <defs> <clipPath id="clip0_34_4400"> <rect width="16" height="16"/> </clipPath> </defs> </svg>