<svg width="16" height="16" viewBox="0 0 16 16" xmlns="http://www.w3.org/2000/svg"> <g clip-path="url(#clip0_34_4408)"> <path d="M8.50016 1.75V4.466L8.54716 4.464C8.85916 4.452 9.28916 4.448 9.59816 4.51C9.87816 4.566 10.1412 4.69 10.3362 4.798C10.6092 4.95 10.7922 5.183 10.8962 5.44L11.0282 5.428C11.3402 5.404 11.8222 5.39 12.1862 5.536C12.5562 5.684 12.8752 6.023 13.0662 6.252C13.1412 6.342 13.2072 6.427 13.2612 6.5H13.8432C14.1226 6.50001 14.3989 6.55857 14.6543 6.67191C14.9097 6.78524 15.1385 6.95083 15.326 7.15801C15.5135 7.36519 15.6555 7.60936 15.7429 7.87478C15.8302 8.14019 15.861 8.42097 15.8332 8.699L15.5612 11.414C15.5123 11.903 15.361 12.3763 15.1172 12.803L13.7222 15.244C13.591 15.4736 13.4015 15.6644 13.1729 15.7972C12.9442 15.9299 12.6846 15.9999 12.4202 16H6.11816C5.83945 16 5.56625 15.9223 5.32921 15.7757C5.09216 15.6291 4.90066 15.4194 4.77616 15.17L3.56116 12.74L1.07016 8.589C0.881084 8.27159 0.814339 7.89609 0.882453 7.53296C0.950567 7.16984 1.14886 6.84405 1.44011 6.61674C1.73137 6.38943 2.09557 6.27622 2.46436 6.29837C2.83316 6.32051 3.1812 6.47648 3.44316 6.737L5.00016 8.293V1.75C5.00016 1.28587 5.18454 0.840752 5.51273 0.512563C5.84092 0.184374 6.28603 0 6.75016 0C7.21429 0 7.65941 0.184374 7.9876 0.512563C8.31579 0.840752 8.50016 1.28587 8.50016 1.75Z"/> </g> <defs> <clipPath id="clip0_34_4408"> <rect width="16" height="16"/> </clipPath> </defs> </svg>