<svg width="16" height="16" viewBox="0 0 16 16" xmlns="http://www.w3.org/2000/svg"> <path d="M8.864 0.0460842C7.908 -0.192916 7.02 0.530084 6.956 1.46608C6.884 2.51708 6.726 3.48208 6.528 4.05608C6.403 4.41608 6.049 5.06908 5.488 5.69508C4.931 6.31808 4.206 6.87308 3.357 7.10508C2.685 7.28808 2 7.87008 2 8.72008V12.7211C2 13.5661 2.682 14.1851 3.448 14.2661C4.518 14.3801 5.012 14.6811 5.516 14.9891L5.564 15.0191C5.836 15.1841 6.142 15.3671 6.534 15.5031C6.931 15.6391 7.395 15.7201 8 15.7201H11.5C12.437 15.7201 13.099 15.2431 13.434 14.6561C13.5959 14.3791 13.6834 14.0649 13.688 13.7441C13.688 13.5921 13.665 13.4321 13.611 13.2801C13.812 13.0171 13.991 12.7021 14.099 12.3791C14.209 12.0491 14.271 11.6171 14.103 11.2301C14.172 11.1001 14.223 10.9611 14.262 10.8271C14.339 10.5571 14.375 10.2591 14.375 9.97008C14.375 9.68208 14.339 9.38508 14.262 9.11408C14.227 8.9895 14.1808 8.86834 14.124 8.75208C14.2991 8.50296 14.4118 8.21539 14.4525 7.91362C14.4932 7.61185 14.4608 7.30471 14.358 7.01808C14.152 6.42608 13.676 5.91808 13.158 5.74608C12.311 5.46408 11.355 5.47008 10.642 5.53508C10.494 5.5484 10.3463 5.56507 10.199 5.58508C10.5459 4.09947 10.5246 2.5516 10.137 1.07608C10.0696 0.839673 9.9402 0.625569 9.76228 0.455914C9.58436 0.286258 9.36435 0.167211 9.125 0.111084L8.864 0.0460842ZM11.5 14.7211H8C7.49 14.7211 7.137 14.6521 6.86 14.5571C6.579 14.4601 6.354 14.3291 6.084 14.1641L6.044 14.1401C5.489 13.8011 4.846 13.4091 3.554 13.2721C3.221 13.2361 3 12.9821 3 12.7221V8.72008C3 8.46608 3.226 8.17708 3.62 8.07008C4.715 7.77008 5.597 7.07408 6.234 6.36208C6.869 5.65208 7.298 4.88708 7.472 4.38408C7.715 3.68408 7.879 2.61608 7.954 1.53408C7.979 1.17208 8.314 0.940084 8.621 1.01608L8.883 1.08208C9.043 1.12208 9.141 1.22508 9.171 1.33708C9.57939 2.89311 9.52903 4.53403 9.026 6.06208C8.99753 6.14707 8.99242 6.23815 9.01122 6.32579C9.03002 6.41342 9.07203 6.49439 9.13285 6.56023C9.19368 6.62606 9.27108 6.67433 9.35695 6.69999C9.44283 6.72565 9.53403 6.72776 9.621 6.70608L9.624 6.70508L9.638 6.70208L9.696 6.68808C10.038 6.61547 10.3839 6.56304 10.732 6.53108C11.395 6.47108 12.189 6.47708 12.842 6.69508C13.017 6.75308 13.292 6.99508 13.412 7.34508C13.519 7.65308 13.499 8.01508 13.146 8.36708L12.793 8.72008L13.146 9.07408C13.189 9.11708 13.251 9.21508 13.3 9.38908C13.348 9.55608 13.375 9.75908 13.375 9.97008C13.375 10.1821 13.348 10.3841 13.3 10.5521C13.25 10.7261 13.189 10.8241 13.146 10.8671L12.793 11.2201L13.146 11.5741C13.193 11.6211 13.255 11.7511 13.151 12.0621C13.0426 12.3637 12.8704 12.6383 12.646 12.8671L12.293 13.2201L12.646 13.5741C12.652 13.5791 12.687 13.6241 12.687 13.7441C12.6826 13.8908 12.6409 14.0339 12.566 14.1601C12.401 14.4481 12.063 14.7201 11.5 14.7201V14.7211Z"/> </svg>