<svg width="16" height="16" viewBox="0 0 16 16" xmlns="http://www.w3.org/2000/svg"> <g clip-path="url(#clip0_34_4406)"> <path d="M6.75016 1C6.94908 1 7.13984 1.07902 7.28049 1.21967C7.42115 1.36032 7.50016 1.55109 7.50016 1.75V8C7.50016 8.13261 7.55284 8.25979 7.64661 8.35355C7.74038 8.44732 7.86756 8.5 8.00016 8.5C8.13277 8.5 8.25995 8.44732 8.35372 8.35355C8.44749 8.25979 8.50016 8.13261 8.50016 8V5.467L8.58616 5.463C8.90316 5.451 9.22316 5.455 9.40216 5.49C9.53616 5.517 9.69616 5.586 9.85016 5.672C9.92716 5.714 10.0002 5.819 10.0002 5.986V8C10.0002 8.13261 10.0528 8.25979 10.1466 8.35355C10.2404 8.44732 10.3676 8.5 10.5002 8.5C10.6328 8.5 10.7599 8.44732 10.8537 8.35355C10.9475 8.25979 11.0002 8.13261 11.0002 8V6.435L11.1062 6.425C11.4222 6.401 11.6902 6.415 11.8142 6.465C11.9322 6.511 12.1142 6.672 12.3002 6.895C12.3812 6.991 12.4502 7.085 12.5002 7.154V8.5C12.5002 8.63261 12.5528 8.75979 12.6466 8.85355C12.7404 8.94732 12.8676 9 13.0002 9C13.1328 9 13.2599 8.94732 13.3537 8.85355C13.4475 8.75979 13.5002 8.63261 13.5002 8.5V7.5H13.8422C13.9819 7.5 14.1201 7.52929 14.2479 7.58599C14.3756 7.64269 14.49 7.72553 14.5838 7.82917C14.6775 7.93282 14.7485 8.05497 14.7922 8.18773C14.8358 8.3205 14.8511 8.46094 14.8372 8.6L14.5662 11.315C14.5312 11.6639 14.4232 12.0016 14.2492 12.306L12.8542 14.748C12.8104 14.8245 12.7473 14.8881 12.6711 14.9324C12.5949 14.9766 12.5083 15 12.4202 15H6.11816C6.02539 15 5.93444 14.9742 5.85549 14.9254C5.77655 14.8767 5.71273 14.8069 5.67116 14.724L4.43916 12.259L1.92716 8.074C1.86263 7.9658 1.83982 7.83775 1.86303 7.71392C1.88624 7.59008 1.95387 7.47899 2.05322 7.4015C2.15256 7.32402 2.27678 7.28548 2.40254 7.29312C2.52829 7.30076 2.64693 7.35406 2.73616 7.443L5.14616 9.853C5.21603 9.92305 5.30511 9.97079 5.40213 9.99019C5.49914 10.0096 5.59973 9.99977 5.69116 9.96198C5.7826 9.92418 5.86076 9.86011 5.91577 9.77788C5.97077 9.69564 6.00014 9.59894 6.00016 9.5V1.75C6.00016 1.55109 6.07918 1.36032 6.21983 1.21967C6.36049 1.07902 6.55125 1 6.75016 1ZM8.50016 4.466V1.75C8.50016 1.28587 8.31579 0.840752 7.9876 0.512563C7.65941 0.184374 7.21429 0 6.75016 0C6.28603 0 5.84092 0.184374 5.51273 0.512563C5.18454 0.840752 5.00016 1.28587 5.00016 1.75V8.293L3.44316 6.736C3.1812 6.47548 2.83316 6.31951 2.46436 6.29737C2.09557 6.27522 1.73137 6.38843 1.44011 6.61574C1.14886 6.84305 0.950567 7.16884 0.882453 7.53196C0.814339 7.89509 0.881084 8.27059 1.07016 8.588L3.56116 12.741L4.77616 15.171C4.90079 15.4202 5.09236 15.6297 5.32939 15.7761C5.56643 15.9226 5.83955 16.0001 6.11816 16H12.4202C12.6846 15.9999 12.9442 15.9299 13.1729 15.7972C13.4015 15.6644 13.591 15.4736 13.7222 15.244L15.1172 12.803C15.361 12.3763 15.5123 11.903 15.5612 11.414L15.8322 8.699C15.86 8.42097 15.8292 8.14019 15.7418 7.87478C15.6545 7.60936 15.5125 7.36519 15.325 7.15801C15.1375 6.95083 14.9087 6.78524 14.6533 6.67191C14.3979 6.55857 14.1216 6.50001 13.8422 6.5H13.2612C13.1987 6.41535 13.1337 6.33264 13.0662 6.252C12.8752 6.023 12.5562 5.684 12.1862 5.536C11.8222 5.39 11.3402 5.404 11.0282 5.428L10.8962 5.44C10.7897 5.16747 10.5917 4.94049 10.3362 4.798C10.1061 4.66532 9.85728 4.56822 9.59816 4.51C9.28816 4.448 8.85916 4.452 8.54816 4.464L8.50016 4.466Z"/> </g> <defs> <clipPath id="clip0_34_4406"> <rect width="16" height="16"/> </clipPath> </defs> </svg>