<svg width="16" height="16" viewBox="0 0 16 16" fill="none" xmlns="http://www.w3.org/2000/svg">
<path d="M8.49986 4.466V1.75C8.49986 1.28587 8.31549 0.840752 7.9873 0.512563C7.65911 0.184374 7.21399 0 6.74986 0C6.28573 0 5.84061 0.184374 5.51243 0.512563C5.18424 0.840752 4.99986 1.28587 4.99986 1.75V7.09L3.79986 7.33C3.43204 7.40374 3.1052 7.61264 2.88381 7.91548C2.66241 8.21833 2.56253 8.59314 2.60386 8.966L2.94886 12.072C2.99323 12.469 3.13211 12.8497 3.35386 13.182L4.78686 15.332C4.92383 15.5375 5.1094 15.7059 5.32711 15.8225C5.54482 15.939 5.78793 16 6.03486 16H12.4199C12.6843 15.9999 12.9439 15.9299 13.1726 15.7972C13.4012 15.6644 13.5907 15.4736 13.7219 15.244L15.1169 12.803C15.3607 12.3763 15.512 11.903 15.5609 11.414L15.8319 8.699C15.8597 8.42097 15.8289 8.14019 15.7415 7.87478C15.6542 7.60936 15.5122 7.36519 15.3247 7.15801C15.1372 6.95083 14.9084 6.78524 14.653 6.67191C14.3976 6.55857 14.1213 6.50001 13.8419 6.5H13.2609C13.1984 6.41535 13.1334 6.33264 13.0659 6.252C12.8749 6.023 12.5559 5.684 12.1859 5.536C11.8219 5.39 11.3399 5.404 11.0279 5.428L10.8959 5.44C10.7894 5.16747 10.5914 4.94049 10.3359 4.798C10.1058 4.66532 9.85698 4.56822 9.59786 4.51C9.28786 4.448 8.85886 4.452 8.54786 4.464L8.49986 4.466Z" fill="#212529"/>
</svg>
