<svg width="16" height="16" viewBox="0 0 16 16" fill="none" xmlns="http://www.w3.org/2000/svg">
<path d="M8.39 12.6481C8.3809 12.7077 8.37588 12.7678 8.375 12.8281C8.375 13.1331 8.585 13.3361 8.875 13.3361C9.141 13.3361 9.367 13.1641 9.43 12.8591L9.984 10.1561H11.188C11.609 10.1561 11.805 9.92212 11.805 9.60912C11.805 9.29712 11.617 9.07912 11.188 9.07912H10.203L10.719 6.55512H11.984C12.414 6.55512 12.602 6.32812 12.602 6.00812C12.602 5.69512 12.414 5.48412 11.984 5.48412H10.938L11.414 3.18012C11.4236 3.12595 11.4289 3.07112 11.43 3.01612C11.4308 2.94813 11.418 2.88067 11.3924 2.81771C11.3667 2.75474 11.3287 2.69753 11.2807 2.64946C11.2326 2.60138 11.1754 2.5634 11.1124 2.53776C11.0494 2.51211 10.982 2.49931 10.914 2.50012C10.7881 2.49772 10.6654 2.53938 10.5669 2.61789C10.4685 2.69641 10.4006 2.80685 10.375 2.93012L9.852 5.48412H7.617L8.094 3.18012C8.102 3.14012 8.109 3.06212 8.109 3.01612C8.10955 2.94761 8.09635 2.87969 8.07017 2.81638C8.04399 2.75306 8.00538 2.69565 7.95661 2.64753C7.90784 2.59941 7.84991 2.56157 7.78625 2.53625C7.72259 2.51093 7.65449 2.49864 7.586 2.50012C7.46144 2.49939 7.34047 2.54184 7.24366 2.62023C7.14685 2.69862 7.08019 2.80813 7.055 2.93012L6.53 5.48412H5.414C4.984 5.48412 4.797 5.70412 4.797 6.01612C4.797 6.32812 4.984 6.55512 5.414 6.55512H6.32L5.805 9.07812H4.609C4.188 9.07812 4 9.29712 4 9.60912C4 9.92212 4.188 10.1561 4.61 10.1561H5.586L5.07 12.6481C5.062 12.6881 5.055 12.7731 5.055 12.8281C5.055 13.1331 5.265 13.3361 5.555 13.3361C5.82 13.3361 6.047 13.1641 6.109 12.8591L6.664 10.1561H8.906L8.391 12.6481H8.39ZM7.39 6.53912H9.656L9.141 9.10212H6.859L7.391 6.53912H7.39Z" fill="#212529"/>
</svg>
