<svg width="16" height="16" viewBox="0 0 16 16" xmlns="http://www.w3.org/2000/svg"> <path d="M2.14645 7.14645C2.24021 7.05268 2.36739 7 2.5 7H13.5C13.6326 7 13.7598 7.05268 13.8536 7.14645C13.9473 7.24021 14 7.36739 14 7.5C14 7.63261 13.9473 7.75979 13.8536 7.85355C13.7598 7.94732 13.6326 8 13.5 8H2.5C2.36739 8 2.24021 7.94732 2.14645 7.85355C2.05268 7.75979 2 7.63261 2 7.5C2 7.36739 2.05268 7.24021 2.14645 7.14645Z"/> <path fill-rule="evenodd" clip-rule="evenodd" d="M0.292893 5.29289C0.48043 5.10536 0.734784 5 1 5H15C15.2652 5 15.5196 5.10536 15.7071 5.29289C15.8946 5.48043 16 5.73478 16 6V9C16 9.26522 15.8946 9.51957 15.7071 9.70711C15.5196 9.89464 15.2652 10 15 10H14.707L14 10.707C13.8125 10.8945 13.5582 10.9999 13.293 11H2.707C2.44181 10.9999 2.18749 10.8945 2 10.707L1.293 10H1C0.734784 10 0.48043 9.89464 0.292893 9.70711C0.105357 9.51957 0 9.26522 0 9V6C0 5.73478 0.105357 5.48043 0.292893 5.29289ZM15 6H1V9H1.293C1.55819 9.00006 1.81251 9.10545 2 9.293L2.707 10H13.293L14 9.293C14.1875 9.10545 14.4418 9.00006 14.707 9H15V6Z"/> </svg>