<svg width="16" height="16" viewBox="0 0 16 16" xmlns="http://www.w3.org/2000/svg"> <path d="M1 5C0.734784 5 0.48043 5.10536 0.292893 5.29289C0.105357 5.48043 0 5.73478 0 6L0 9.293C0 9.683 0.317 10 0.707 10C0.895 10 1.075 10.075 1.207 10.207L1.707 10.707C1.89449 10.8945 2.14881 10.9999 2.414 11H13.586C13.8512 10.9999 14.1055 10.8945 14.293 10.707L14.793 10.207C14.8587 10.1414 14.9366 10.0893 15.0224 10.0538C15.1082 10.0183 15.2001 9.99998 15.293 10C15.683 10 16 9.683 16 9.293V6C16 5.73478 15.8946 5.48043 15.7071 5.29289C15.5196 5.10536 15.2652 5 15 5H1ZM2.5 7H13.5C13.6326 7 13.7598 7.05268 13.8536 7.14645C13.9473 7.24021 14 7.36739 14 7.5C14 7.63261 13.9473 7.75979 13.8536 7.85355C13.7598 7.94732 13.6326 8 13.5 8H2.5C2.36739 8 2.24021 7.94732 2.14645 7.85355C2.05268 7.75979 2 7.63261 2 7.5C2 7.36739 2.05268 7.24021 2.14645 7.14645C2.24021 7.05268 2.36739 7 2.5 7Z"/> </svg>