<svg width="16" height="16" viewBox="0 0 16 16" xmlns="http://www.w3.org/2000/svg"> <g clip-path="url(#clip0_34_4444)"> <path d="M8.00024 1.248C9.85724 1.248 11.5262 1.889 12.6502 3.042C13.5751 3.16228 14.4476 3.53996 15.1682 4.132C13.9072 1.482 11.2952 0 8.00024 0C4.75024 0 2.12023 1.48 0.844235 4.122C1.50497 3.58271 2.29316 3.22219 3.13323 3.075C4.23624 1.872 5.97424 1.248 8.00024 1.248Z"/> <path d="M12.0002 12C10.9597 12.0012 9.95992 11.5957 9.21423 10.87L9.21223 10.868C9.12605 10.8032 9.03359 10.7473 8.93623 10.701C8.64315 10.565 8.32333 10.4963 8.00023 10.5C7.58623 10.5 7.27123 10.603 7.06524 10.701C6.96754 10.7472 6.87474 10.8032 6.78824 10.868L6.78623 10.87C6.31605 11.3265 5.74092 11.6604 5.11142 11.8425C4.48191 12.0246 3.81732 12.0492 3.17606 11.9142C2.5348 11.7792 1.93653 11.4888 1.43385 11.0684C0.93117 10.648 0.539475 10.1105 0.293206 9.50322C0.046938 8.89595 -0.04636 8.23747 0.0215158 7.58569C0.0893916 6.9339 0.316362 6.30878 0.682471 5.76528C1.04858 5.22177 1.54261 4.77654 2.12113 4.46873C2.69965 4.16092 3.34493 3.99996 4.00024 4H12.0002C13.0611 4 14.0785 4.42143 14.8287 5.17157C15.5788 5.92172 16.0002 6.93913 16.0002 8C16.0002 9.06087 15.5788 10.0783 14.8287 10.8284C14.0785 11.5786 13.0611 12 12.0002 12Z"/> </g> <defs> <clipPath id="clip0_34_4444"> <rect width="16" height="16"/> </clipPath> </defs> </svg>