<svg width="16" height="16" viewBox="0 0 16 16" xmlns="http://www.w3.org/2000/svg"> <g clip-path="url(#clip0_34_4458)"> <path fill-rule="evenodd" clip-rule="evenodd" d="M8.00012 2.7481L7.28312 2.0111C5.60012 0.281099 2.51412 0.878099 1.40012 3.0531C0.918123 3.9951 0.780123 5.3231 1.50812 7.0001H0.430123C-1.69788 1.3031 4.59512 -1.8299 7.82412 1.1431C7.88412 1.1981 7.94312 1.2551 8.00012 1.3141C8.05654 1.25515 8.11526 1.19844 8.17612 1.1441C11.4061 -1.8299 17.6981 1.3031 15.5701 7.0001H14.4921C15.2201 5.3231 15.0821 3.9951 14.6001 3.0531C13.4861 0.878099 10.4001 0.280099 8.71712 2.0101L8.00012 2.7481ZM2.21212 10.0001H3.52712C4.59312 11.1831 6.05012 12.4581 8.00012 13.7951C9.94912 12.4581 11.4071 11.1831 12.4731 10.0001H13.7881C12.5231 11.5661 10.6481 13.2501 8.00012 15.0001C5.35212 13.2501 3.47712 11.5661 2.21212 10.0001ZM10.4641 3.3141C10.4253 3.21728 10.3572 3.13503 10.2694 3.07884C10.1815 3.02265 10.0783 2.99534 9.9741 3.00074C9.86995 3.00614 9.77009 3.04398 9.6885 3.10896C9.60692 3.17393 9.54769 3.26279 9.51912 3.3631L7.92112 8.9561L6.46412 5.3141C6.43019 5.22961 6.37383 5.156 6.30113 5.10119C6.22843 5.04638 6.14214 5.01247 6.05158 5.0031C5.96101 4.99374 5.86961 5.00928 5.78723 5.04805C5.70486 5.08682 5.63463 5.14734 5.58412 5.2231L3.73212 8.0001H0.500123C0.367514 8.0001 0.240337 8.05278 0.146569 8.14655C0.052801 8.24031 0.000122559 8.36749 0.000122559 8.5001C0.000122559 8.63271 0.052801 8.75988 0.146569 8.85365C0.240337 8.94742 0.367514 9.0001 0.500123 9.0001H4.00012C4.08246 9.00006 4.16352 8.97968 4.23609 8.94078C4.30866 8.90187 4.37051 8.84565 4.41612 8.7771L5.88912 6.5681L7.53612 10.6861C7.57491 10.7829 7.64301 10.8652 7.73088 10.9214C7.81875 10.9776 7.92198 11.0049 8.02614 10.9995C8.1303 10.9941 8.23016 10.9562 8.31174 10.8912C8.39333 10.8263 8.45255 10.7374 8.48112 10.6371L10.0791 5.0441L11.5361 8.6861C11.5733 8.77879 11.6373 8.85823 11.72 8.91419C11.8027 8.97016 11.9003 9.00008 12.0001 9.0001H15.5001C15.6327 9.0001 15.7599 8.94742 15.8537 8.85365C15.9474 8.75988 16.0001 8.63271 16.0001 8.5001C16.0001 8.36749 15.9474 8.24031 15.8537 8.14655C15.7599 8.05278 15.6327 8.0001 15.5001 8.0001H12.3381L10.4641 3.3141Z"/> </g> <defs> <clipPath id="clip0_34_4458"> <rect width="16" height="16"/> </clipPath> </defs> </svg>