<svg width="16" height="16" viewBox="0 0 16 16" fill="none" xmlns="http://www.w3.org/2000/svg">
<g clip-path="url(#clip0_34_4448)">
<path d="M6.70714 8.9999H11.0711C10.5351 10.5729 13.0991 12.8059 16.0001 8.4999C13.1001 4.1939 10.5351 6.4269 11.0711 7.9999H6.70714L4.85414 6.1459C4.80766 6.09941 4.75247 6.06254 4.69173 6.03738C4.63099 6.01222 4.56589 5.99927 4.50014 5.99927C4.4344 5.99927 4.3693 6.01222 4.30856 6.03738C4.24782 6.06254 4.19263 6.09941 4.14614 6.1459C4.09966 6.19239 4.06278 6.24758 4.03762 6.30832C4.01246 6.36906 3.99951 6.43416 3.99951 6.4999C3.99951 6.56564 4.01246 6.63074 4.03762 6.69148C4.06278 6.75222 4.09966 6.80741 4.14614 6.8539L5.29314 7.9999H4.70714L2.85414 6.1459C2.80766 6.09941 2.75247 6.06254 2.69173 6.03738C2.63099 6.01222 2.56589 5.99927 2.50014 5.99927C2.4344 5.99927 2.3693 6.01222 2.30856 6.03738C2.24782 6.06254 2.19263 6.09941 2.14614 6.1459C2.09966 6.19239 2.06278 6.24758 2.03762 6.30832C2.01246 6.36906 1.99951 6.43416 1.99951 6.4999C1.99951 6.56564 2.01246 6.63074 2.03762 6.69148C2.06278 6.75222 2.09966 6.80741 2.14614 6.8539L3.29314 7.9999H2.70714L0.854143 6.1459C0.807655 6.09941 0.752466 6.06254 0.691727 6.03738C0.630987 6.01222 0.565887 5.99927 0.500143 5.99927C0.434399 5.99927 0.369299 6.01222 0.30856 6.03738C0.24782 6.06254 0.192631 6.09941 0.146143 6.1459C0.0996554 6.19239 0.0627791 6.24758 0.03762 6.30832C0.0124609 6.36906 -0.000488282 6.43416 -0.000488281 6.4999C-0.00048828 6.56564 0.0124609 6.63074 0.03762 6.69148C0.0627791 6.75222 0.0996554 6.80741 0.146143 6.8539L1.79314 8.4999L0.146143 10.1459C0.0522567 10.2398 -0.000488257 10.3671 -0.000488254 10.4999C-0.000488251 10.6327 0.0522567 10.76 0.146143 10.8539C0.24003 10.9478 0.367368 11.0005 0.500143 11.0005C0.632919 11.0005 0.760257 10.9478 0.854143 10.8539L2.70714 8.9999H3.29314L2.14614 10.1459C2.05226 10.2398 1.99951 10.3671 1.99951 10.4999C1.99951 10.6327 2.05226 10.76 2.14614 10.8539C2.24003 10.9478 2.36737 11.0005 2.50014 11.0005C2.63292 11.0005 2.76026 10.9478 2.85414 10.8539L4.70714 8.9999H5.29314L4.14614 10.1459C4.05226 10.2398 3.99951 10.3671 3.99951 10.4999C3.99951 10.6327 4.05226 10.76 4.14614 10.8539C4.24003 10.9478 4.36737 11.0005 4.50014 11.0005C4.63292 11.0005 4.76026 10.9478 4.85414 10.8539L6.70714 8.9999Z" fill="black"/>
</g>
<defs>
<clipPath id="clip0_34_4448">
<rect width="16" height="16" fill="white"/>
</clipPath>
</defs>
</svg>
