<svg width="16" height="16" viewBox="0 0 16 16" fill="none" xmlns="http://www.w3.org/2000/svg">
<g clip-path="url(#clip0_34_4450)">
<path fill-rule="evenodd" clip-rule="evenodd" d="M8.86679 14.4101C22.1748 5.08807 13.6568 -2.15293 8.93079 0.586068L6.99979 3.00007L8.49979 7.00007L6.49979 10.0001L7.99979 15.0001C8.29148 14.8074 8.58051 14.6107 8.86679 14.4101ZM8.56379 13.4001C14.7278 9.00007 15.4738 5.41807 14.7838 3.47907C14.0308 1.37007 11.4468 0.420068 9.58679 1.36807L8.13579 3.18007L9.43579 6.64807C9.49152 6.79651 9.51116 6.95608 9.49308 7.11361C9.475 7.27114 9.41971 7.42211 9.33179 7.55407L7.59279 10.1621L8.56379 13.3991V13.4001ZM7.31379 14.5371C6.7968 14.1784 6.28929 13.8063 5.79179 13.4211C-5.07721 4.97007 1.84179 -1.47193 6.45379 0.293068C6.76779 0.413068 7.07179 0.572068 7.35779 0.770068L5.49979 3.00007L6.99979 7.00007L5.49979 10.0001L7.31479 14.5371H7.31379ZM5.01379 11.4771C0.894788 7.79707 0.596788 4.87507 1.30779 3.24807C2.06379 1.51807 4.07579 0.671068 5.76379 1.12107L4.73179 2.36007C4.6188 2.49572 4.54374 2.65887 4.51423 2.83293C4.48472 3.00699 4.50182 3.18576 4.56379 3.35107L5.90979 6.94307L4.60479 9.55307C4.54173 9.6793 4.5061 9.81744 4.50024 9.95843C4.49438 10.0994 4.51842 10.24 4.57079 10.3711L5.01279 11.4771H5.01379Z" fill="black"/>
</g>
<defs>
<clipPath id="clip0_34_4450">
<rect width="16" height="16" fill="white"/>
</clipPath>
</defs>
</svg>
