<svg width="16" height="16" viewBox="0 0 16 16" xmlns="http://www.w3.org/2000/svg"> <g clip-path="url(#clip0_34_4472)"> <path d="M6 0C5.73478 0 5.48043 0.105357 5.29289 0.292893C5.10536 0.48043 5 0.734784 5 1V2C4.73478 2 4.48043 2.10536 4.29289 2.29289C4.10536 2.48043 4 2.73478 4 3V7H1C0.734784 7 0.48043 7.10536 0.292893 7.29289C0.105357 7.48043 0 7.73478 0 8L0 15C0 15.2652 0.105357 15.5196 0.292893 15.7071C0.48043 15.8946 0.734784 16 1 16H7V13.5C7 13.3674 7.05268 13.2402 7.14645 13.1464C7.24021 13.0527 7.36739 13 7.5 13H8.5C8.63261 13 8.75979 13.0527 8.85355 13.1464C8.94732 13.2402 9 13.3674 9 13.5V16H15C15.2652 16 15.5196 15.8946 15.7071 15.7071C15.8946 15.5196 16 15.2652 16 15V8C16 7.73478 15.8946 7.48043 15.7071 7.29289C15.5196 7.10536 15.2652 7 15 7H12V3C12 2.73478 11.8946 2.48043 11.7071 2.29289C11.5196 2.10536 11.2652 2 11 2V1C11 0.734784 10.8946 0.48043 10.7071 0.292893C10.5196 0.105357 10.2652 0 10 0L6 0ZM8.5 5.034V6.134L9.453 5.584L9.953 6.451L9 7L9.953 7.55L9.453 8.416L8.5 7.866V8.966H7.5V7.866L6.547 8.416L6.047 7.55L7 7L6.047 6.45L6.547 5.584L7.5 6.134V5.034H8.5ZM2.25 9H2.75C2.8163 9 2.87989 9.02634 2.92678 9.07322C2.97366 9.12011 3 9.1837 3 9.25V9.75C3 9.8163 2.97366 9.87989 2.92678 9.92678C2.87989 9.97366 2.8163 10 2.75 10H2.25C2.1837 10 2.12011 9.97366 2.07322 9.92678C2.02634 9.87989 2 9.8163 2 9.75V9.25C2 9.1837 2.02634 9.12011 2.07322 9.07322C2.12011 9.02634 2.1837 9 2.25 9ZM2.25 11H2.75C2.8163 11 2.87989 11.0263 2.92678 11.0732C2.97366 11.1201 3 11.1837 3 11.25V11.75C3 11.8163 2.97366 11.8799 2.92678 11.9268C2.87989 11.9737 2.8163 12 2.75 12H2.25C2.1837 12 2.12011 11.9737 2.07322 11.9268C2.02634 11.8799 2 11.8163 2 11.75V11.25C2 11.1837 2.02634 11.1201 2.07322 11.0732C2.12011 11.0263 2.1837 11 2.25 11ZM2 13.25C2 13.1837 2.02634 13.1201 2.07322 13.0732C2.12011 13.0263 2.1837 13 2.25 13H2.75C2.8163 13 2.87989 13.0263 2.92678 13.0732C2.97366 13.1201 3 13.1837 3 13.25V13.75C3 13.8163 2.97366 13.8799 2.92678 13.9268C2.87989 13.9737 2.8163 14 2.75 14H2.25C2.1837 14 2.12011 13.9737 2.07322 13.9268C2.02634 13.8799 2 13.8163 2 13.75V13.25ZM13.25 9H13.75C13.8163 9 13.8799 9.02634 13.9268 9.07322C13.9737 9.12011 14 9.1837 14 9.25V9.75C14 9.8163 13.9737 9.87989 13.9268 9.92678C13.8799 9.97366 13.8163 10 13.75 10H13.25C13.1837 10 13.1201 9.97366 13.0732 9.92678C13.0263 9.87989 13 9.8163 13 9.75V9.25C13 9.1837 13.0263 9.12011 13.0732 9.07322C13.1201 9.02634 13.1837 9 13.25 9ZM13 11.25C13 11.1837 13.0263 11.1201 13.0732 11.0732C13.1201 11.0263 13.1837 11 13.25 11H13.75C13.8163 11 13.8799 11.0263 13.9268 11.0732C13.9737 11.1201 14 11.1837 14 11.25V11.75C14 11.8163 13.9737 11.8799 13.9268 11.9268C13.8799 11.9737 13.8163 12 13.75 12H13.25C13.1837 12 13.1201 11.9737 13.0732 11.9268C13.0263 11.8799 13 11.8163 13 11.75V11.25ZM13.25 13H13.75C13.8163 13 13.8799 13.0263 13.9268 13.0732C13.9737 13.1201 14 13.1837 14 13.25V13.75C14 13.8163 13.9737 13.8799 13.9268 13.9268C13.8799 13.9737 13.8163 14 13.75 14H13.25C13.1837 14 13.1201 13.9737 13.0732 13.9268C13.0263 13.8799 13 13.8163 13 13.75V13.25C13 13.1837 13.0263 13.1201 13.0732 13.0732C13.1201 13.0263 13.1837 13 13.25 13Z"/> </g> <defs> <clipPath id="clip0_34_4472"> <rect width="16" height="16"/> </clipPath> </defs> </svg>