<svg width="16" height="16" viewBox="0 0 16 16" xmlns="http://www.w3.org/2000/svg"> <path fill-rule="evenodd" clip-rule="evenodd" d="M8.00014 3.29306L14.0001 9.29306V13.5001C14.0001 13.8979 13.8421 14.2794 13.5608 14.5607C13.2795 14.842 12.898 15.0001 12.5001 15.0001H3.50014C3.10232 15.0001 2.72079 14.842 2.43948 14.5607C2.15818 14.2794 2.00014 13.8979 2.00014 13.5001V9.29306L8.00014 3.29306ZM13.0001 2.50006V6.00006L11.0001 4.00006V2.50006C11.0001 2.36745 11.0528 2.24028 11.1466 2.14651C11.2404 2.05274 11.3675 2.00006 11.5001 2.00006H12.5001C12.6328 2.00006 12.7599 2.05274 12.8537 2.14651C12.9475 2.24028 13.0001 2.36745 13.0001 2.50006Z" /> <path fill-rule="evenodd" clip-rule="evenodd" d="M7.29314 1.50006C7.48067 1.31259 7.73498 1.20728 8.00014 1.20728C8.26531 1.20728 8.51962 1.31259 8.70714 1.50006L15.3541 8.14606C15.448 8.23995 15.5008 8.36729 15.5008 8.50006C15.5008 8.63284 15.448 8.76018 15.3541 8.85406C15.2603 8.94795 15.1329 9.00069 15.0001 9.00069C14.8674 9.00069 14.74 8.94795 14.6461 8.85406L8.00014 2.20706L1.35414 8.85406C1.26026 8.94795 1.13292 9.00069 1.00014 9.00069C0.867368 9.00069 0.74003 8.94795 0.646143 8.85406C0.552257 8.76018 0.499512 8.63284 0.499512 8.50006C0.499512 8.36729 0.552257 8.23995 0.646143 8.14606L7.29314 1.50006Z" /> </svg>