<svg width="16" height="16" viewBox="0 0 16 16" xmlns="http://www.w3.org/2000/svg"> <path fill-rule="evenodd" clip-rule="evenodd" d="M8.70679 1.50006C8.51926 1.31259 8.26495 1.20728 7.99979 1.20728C7.73463 1.20728 7.48032 1.31259 7.29279 1.50006L0.64579 8.14606C0.552036 8.23995 0.499418 8.36723 0.499512 8.49992C0.499606 8.6326 0.552403 8.75981 0.64629 8.85356C0.740177 8.94732 0.867462 8.99993 1.00014 8.99984C1.13283 8.99975 1.26004 8.94695 1.35379 8.85306L1.99979 8.20706V13.5001C1.99979 13.8979 2.15783 14.2794 2.43913 14.5607C2.72043 14.842 3.10197 15.0001 3.49979 15.0001H12.4998C12.8976 15.0001 13.2791 14.842 13.5605 14.5607C13.8418 14.2794 13.9998 13.8979 13.9998 13.5001V8.20706L14.6458 8.85306C14.7395 8.94695 14.8668 8.99975 14.9994 8.99984C15.1321 8.99993 15.2594 8.94732 15.3533 8.85356C15.4472 8.75981 15.5 8.6326 15.5001 8.49992C15.5002 8.36723 15.4475 8.23995 15.3538 8.14606L12.9998 5.79306V2.50006C12.9998 2.36745 12.9471 2.24028 12.8533 2.14651C12.7596 2.05274 12.6324 2.00006 12.4998 2.00006H11.4998C11.3672 2.00006 11.24 2.05274 11.1462 2.14651C11.0525 2.24028 10.9998 2.36745 10.9998 2.50006V3.79306L8.70679 1.50006ZM12.9998 7.20706L7.99979 2.20706L2.99979 7.20706V13.5001C2.99979 13.6327 3.05247 13.7598 3.14624 13.8536C3.24 13.9474 3.36718 14.0001 3.49979 14.0001H12.4998C12.6324 14.0001 12.7596 13.9474 12.8533 13.8536C12.9471 13.7598 12.9998 13.6327 12.9998 13.5001V7.20706ZM7.99979 6.98206C9.66379 5.30906 13.8248 8.23606 7.99979 12.0001C2.17479 8.23606 6.33579 5.30906 7.99979 6.98206Z"/> </svg>