<svg width="16" height="16" viewBox="0 0 16 16" xmlns="http://www.w3.org/2000/svg"> <path d="M4.97978 4C4.90484 4.00011 4.83088 4.01706 4.76338 4.0496C4.69587 4.08214 4.63654 4.12944 4.58978 4.188L1.53978 8H5.99978C6.13239 8 6.25957 8.05268 6.35334 8.14645C6.4471 8.24021 6.49978 8.36739 6.49978 8.5C6.49978 8.89782 6.65782 9.27936 6.93912 9.56066C7.22043 9.84196 7.60196 10 7.99978 10C8.39761 10 8.77914 9.84196 9.06044 9.56066C9.34175 9.27936 9.49978 8.89782 9.49978 8.5C9.49978 8.36739 9.55246 8.24021 9.64623 8.14645C9.74 8.05268 9.86717 8 9.99978 8H14.4598L11.4098 4.188C11.363 4.12944 11.3037 4.08214 11.2362 4.0496C11.1687 4.01706 11.0947 4.00011 11.0198 4H4.97978ZM14.9338 9H10.4498C10.335 9.56514 10.0284 10.0732 9.58191 10.4382C9.13541 10.8031 8.57646 11.0025 7.99978 11.0025C7.4231 11.0025 6.86416 10.8031 6.41765 10.4382C5.97115 10.0732 5.66454 9.56514 5.54978 9H1.06578L1.38578 11.562C1.40091 11.6831 1.45979 11.7944 1.55134 11.8751C1.64288 11.9558 1.76076 12.0002 1.88278 12H14.1168C14.2386 12 14.3563 11.9554 14.4476 11.8748C14.5389 11.7941 14.5977 11.6829 14.6128 11.562L14.9328 9H14.9338ZM3.80878 3.563C3.94938 3.38724 4.12773 3.24537 4.33061 3.14791C4.53349 3.05045 4.75571 2.9999 4.98078 3H11.0188C11.2439 2.9999 11.4661 3.05045 11.669 3.14791C11.8718 3.24537 12.0502 3.38724 12.1908 3.563L15.8908 8.188C15.9324 8.24018 15.9631 8.30016 15.9811 8.36439C15.9991 8.42862 16.0041 8.49581 15.9958 8.562L15.6058 11.686C15.5604 12.0489 15.3841 12.3827 15.1099 12.6247C14.8357 12.8667 14.4825 13.0001 14.1168 13H1.88278C1.51707 13.0001 1.16391 12.8667 0.889698 12.6247C0.61549 12.3827 0.43913 12.0489 0.393782 11.686L0.00378209 8.562C-0.00441416 8.49574 0.000742512 8.42851 0.0189479 8.36428C0.0371533 8.30004 0.0680387 8.24011 0.109782 8.188L3.80978 3.563H3.80878Z"/> </svg>