<svg width="16" height="16" viewBox="0 0 16 16" xmlns="http://www.w3.org/2000/svg"> <path d="M4.97978 4C4.90484 4.00011 4.83088 4.01706 4.76338 4.0496C4.69587 4.08214 4.63654 4.12944 4.58978 4.188L1.53978 8H5.99978C6.13239 8 6.25957 8.05268 6.35334 8.14645C6.4471 8.24021 6.49978 8.36739 6.49978 8.5C6.49978 8.89782 6.65782 9.27936 6.93912 9.56066C7.22043 9.84196 7.60196 10 7.99978 10C8.39761 10 8.77914 9.84196 9.06044 9.56066C9.34175 9.27936 9.49978 8.89782 9.49978 8.5C9.49978 8.36739 9.55246 8.24021 9.64623 8.14645C9.74 8.05268 9.86717 8 9.99978 8H14.4598L11.4098 4.188C11.363 4.12944 11.3037 4.08214 11.2362 4.0496C11.1687 4.01706 11.0947 4.00011 11.0198 4H4.97978ZM3.80978 3.563C3.95017 3.3875 4.1282 3.24579 4.33071 3.14835C4.53322 3.0509 4.75504 3.0002 4.97978 3H11.0198C11.2445 3.0002 11.4663 3.0509 11.6689 3.14835C11.8714 3.24579 12.0494 3.3875 12.1898 3.563L15.8898 8.188C15.9315 8.24011 15.9624 8.30004 15.9806 8.36428C15.9988 8.42851 16.004 8.49574 15.9958 8.562L15.6058 11.686C15.5604 12.0489 15.3841 12.3827 15.1099 12.6247C14.8357 12.8667 14.4825 13.0001 14.1168 13H1.88278C1.51707 13.0001 1.16391 12.8667 0.889698 12.6247C0.61549 12.3827 0.43913 12.0489 0.393782 11.686L0.00378209 8.562C-0.00441416 8.49574 0.000742512 8.42851 0.0189479 8.36428C0.0371533 8.30004 0.0680387 8.24011 0.109782 8.188L3.80978 3.563Z"/> </svg>