<svg width="16" height="16" viewBox="0 0 16 16" xmlns="http://www.w3.org/2000/svg"> <g clip-path="url(#clip0_34_4518)"> <path d="M4.97991 1C4.90497 1.00011 4.83101 1.01706 4.7635 1.0496C4.696 1.08214 4.63667 1.12944 4.58991 1.188L1.53991 5H5.99991C6.13252 5 6.25969 5.05268 6.35346 5.14645C6.44723 5.24021 6.49991 5.36739 6.49991 5.5C6.49991 5.89782 6.65794 6.27936 6.93925 6.56066C7.22055 6.84196 7.60208 7 7.99991 7C8.39773 7 8.77926 6.84196 9.06057 6.56066C9.34187 6.27936 9.49991 5.89782 9.49991 5.5C9.49991 5.36739 9.55259 5.24021 9.64635 5.14645C9.74012 5.05268 9.8673 5 9.99991 5H14.4599L11.4099 1.188C11.3631 1.12944 11.3038 1.08214 11.2363 1.0496C11.1688 1.01706 11.0948 1.00011 11.0199 1H4.97991ZM3.80991 0.563C3.95029 0.387503 4.12832 0.245795 4.33083 0.148346C4.53335 0.050898 4.75517 0.000200429 4.97991 0L11.0199 0C11.2446 0.000200429 11.4665 0.050898 11.669 0.148346C11.8715 0.245795 12.0495 0.387503 12.1899 0.563L15.8899 5.188C15.9317 5.24011 15.9625 5.30004 15.9807 5.36428C15.9989 5.42851 16.0041 5.49574 15.9959 5.562L15.6059 8.686C15.5606 9.04889 15.3842 9.38271 15.11 9.62469C14.8358 9.86667 14.4826 10.0001 14.1169 10H1.88291C1.5172 10.0001 1.16403 9.86667 0.889823 9.62469C0.615615 9.38271 0.439256 9.04889 0.393907 8.686L0.00390735 5.562C-0.00428891 5.49574 0.000867769 5.42851 0.0190732 5.36428C0.0372786 5.30004 0.068164 5.24011 0.109907 5.188L3.80991 0.563ZM0.124907 11.17C0.171762 11.1167 0.229438 11.0739 0.294097 11.0446C0.358755 11.0153 0.428915 11.0001 0.499907 11H5.99991C6.13252 11 6.25969 11.0527 6.35346 11.1464C6.44723 11.2402 6.49991 11.3674 6.49991 11.5C6.49991 11.8978 6.65794 12.2794 6.93925 12.5607C7.22055 12.842 7.60208 13 7.99991 13C8.39773 13 8.77926 12.842 9.06057 12.5607C9.34187 12.2794 9.49991 11.8978 9.49991 11.5C9.49991 11.3674 9.55259 11.2402 9.64635 11.1464C9.74012 11.0527 9.8673 11 9.99991 11H15.4999C15.5708 11 15.6409 11.0151 15.7055 11.0443C15.7701 11.0734 15.8277 11.116 15.8746 11.1691C15.9216 11.2223 15.9566 11.2848 15.9775 11.3525C15.9984 11.4203 16.0047 11.4917 15.9959 11.562L15.6059 14.686C15.5606 15.0489 15.3842 15.3827 15.11 15.6247C14.8358 15.8667 14.4826 16.0001 14.1169 16H1.88291C1.5172 16.0001 1.16403 15.8667 0.889823 15.6247C0.615615 15.3827 0.439256 15.0489 0.393907 14.686L0.00390735 11.562C-0.00493837 11.4917 0.00127556 11.4202 0.0221368 11.3525C0.0429981 11.2847 0.0780298 11.2222 0.124907 11.169V11.17Z"/> </g> <defs> <clipPath id="clip0_34_4518"> <rect width="16" height="16"/> </clipPath> </defs> </svg>