<svg width="16" height="16" viewBox="0 0 16 16" xmlns="http://www.w3.org/2000/svg"> <path fill-rule="evenodd" clip-rule="evenodd" d="M4.736 1.96807L3.844 5.23707L3.83 5.29507C2.113 5.56807 1 6.00607 1 6.50007C1 7.32807 4.134 8.00007 8 8.00007C11.866 8.00007 15 7.32807 15 6.50007C15 6.00607 13.887 5.56807 12.17 5.29507C12.1659 5.2756 12.1612 5.25626 12.156 5.23707L11.264 1.96707C11.118 1.43407 10.566 1.11807 10.025 1.23307C9.411 1.36307 8.62 1.50007 8 1.50007C7.38 1.50007 6.589 1.36407 5.975 1.23307C5.434 1.11807 4.882 1.43307 4.736 1.96807ZM4.751 5.83507C4.75425 5.80236 4.76392 5.77061 4.77946 5.74164C4.79499 5.71267 4.81609 5.68705 4.84154 5.66624C4.86699 5.64543 4.8963 5.62985 4.92778 5.62038C4.95926 5.61092 4.9923 5.60775 5.025 5.61107C5.925 5.70307 6.935 5.75407 8 5.75407C8.99344 5.75639 9.98636 5.70866 10.975 5.61107C11.041 5.60444 11.107 5.62431 11.1584 5.66632C11.2098 5.70833 11.2424 5.76903 11.249 5.83507C11.2556 5.90111 11.2358 5.96707 11.1937 6.01846C11.1517 6.06984 11.091 6.10244 11.025 6.10907C10.107 6.20207 9.081 6.25407 8 6.25407C6.919 6.25407 5.893 6.20207 4.975 6.10907C4.94229 6.10582 4.91054 6.09615 4.88157 6.08061C4.8526 6.06507 4.82698 6.04398 4.80617 6.01853C4.78537 5.99307 4.76978 5.96377 4.76032 5.93229C4.75085 5.90081 4.74768 5.86777 4.751 5.83507ZM3.5 10.0001H5.5C5.63261 10.0001 5.75979 10.0527 5.85355 10.1465C5.94732 10.2403 6 10.3675 6 10.5001V11.5001C6 11.8979 5.84196 12.2794 5.56066 12.5607C5.27936 12.842 4.89782 13.0001 4.5 13.0001C4.10218 13.0001 3.72064 12.842 3.43934 12.5607C3.15804 12.2794 3 11.8979 3 11.5001V10.5001C3 10.3675 3.05268 10.2403 3.14645 10.1465C3.24021 10.0527 3.36739 10.0001 3.5 10.0001ZM2 10.5001C2 10.3251 2.03 10.1561 2.085 10.0001H2C1.86739 10.0001 1.74021 9.94739 1.64645 9.85362C1.55268 9.75985 1.5 9.63268 1.5 9.50007C1.5 9.36746 1.55268 9.24028 1.64645 9.14651C1.74021 9.05275 1.86739 9.00007 2 9.00007H5.5C5.86524 9.00011 6.21791 9.13341 6.49186 9.37496C6.76581 9.61651 6.94222 9.94971 6.988 10.3121C7.64794 10.1127 8.35206 10.1127 9.012 10.3121C9.05778 9.94971 9.23419 9.61651 9.50814 9.37496C9.78209 9.13341 10.1348 9.00011 10.5 9.00007H14C14.1326 9.00007 14.2598 9.05275 14.3536 9.14651C14.4473 9.24028 14.5 9.36746 14.5 9.50007C14.5 9.63268 14.4473 9.75985 14.3536 9.85362C14.2598 9.94739 14.1326 10.0001 14 10.0001H13.915C13.97 10.1561 14 10.3251 14 10.5001V11.5001C14 12.1631 13.7366 12.799 13.2678 13.2678C12.7989 13.7367 12.163 14.0001 11.5 14.0001C10.837 14.0001 10.2011 13.7367 9.73223 13.2678C9.26339 12.799 9 12.1631 9 11.5001V11.3601L8.79 11.2901C8.27718 11.1193 7.72282 11.1193 7.21 11.2901L7 11.3601V11.5001C7 12.1631 6.73661 12.799 6.26777 13.2678C5.79893 13.7367 5.16304 14.0001 4.5 14.0001C3.83696 14.0001 3.20107 13.7367 2.73223 13.2678C2.26339 12.799 2 12.1631 2 11.5001V10.5001ZM10.5 10.0001H12.5C12.6326 10.0001 12.7598 10.0527 12.8536 10.1465C12.9473 10.2403 13 10.3675 13 10.5001V11.5001C13 11.8979 12.842 12.2794 12.5607 12.5607C12.2794 12.842 11.8978 13.0001 11.5 13.0001C11.1022 13.0001 10.7206 12.842 10.4393 12.5607C10.158 12.2794 10 11.8979 10 11.5001V10.5001C10 10.3675 10.0527 10.2403 10.1464 10.1465C10.2402 10.0527 10.3674 10.0001 10.5 10.0001Z"/> </svg>