<svg width="16" height="16" viewBox="0 0 16 16" xmlns="http://www.w3.org/2000/svg"> <path d="M5.67979 5.792L7.34479 7.75L5.68079 9.708C5.29469 10.0888 4.80464 10.3469 4.27224 10.4499C3.73984 10.5529 3.18887 10.4963 2.6886 10.287C2.18833 10.0777 1.76109 9.72525 1.46061 9.27385C1.16012 8.82244 0.999796 8.29227 0.999796 7.75C0.999796 7.20773 1.16012 6.67756 1.46061 6.22616C1.76109 5.77475 2.18833 5.42226 2.6886 5.213C3.18887 5.00375 3.73984 4.94706 4.27224 5.05008C4.80464 5.15311 5.29469 5.41123 5.68079 5.792H5.67979ZM7.99979 6.978L6.41579 5.113L6.40179 5.098C5.8773 4.57365 5.20912 4.2166 4.48171 4.07198C3.75431 3.92737 3.00036 4.00169 2.3152 4.28555C1.63003 4.56941 1.04442 5.05005 0.632409 5.66672C0.220397 6.28338 0.000488281 7.00836 0.000488281 7.75C0.000488281 8.49164 0.220397 9.21662 0.632409 9.83329C1.04442 10.45 1.63003 10.9306 2.3152 11.2145C3.00036 11.4983 3.75431 11.5726 4.48171 11.428C5.20912 11.2834 5.8773 10.9264 6.40179 10.402L6.41579 10.387L7.99979 8.522L9.58379 10.387L9.59779 10.402C10.1223 10.9264 10.7905 11.2834 11.5179 11.428C12.2453 11.5726 12.9992 11.4983 13.6844 11.2145C14.3695 10.9306 14.9552 10.45 15.3672 9.83329C15.7792 9.21662 15.9991 8.49164 15.9991 7.75C15.9991 7.00836 15.7792 6.28338 15.3672 5.66672C14.9552 5.05005 14.3695 4.56941 13.6844 4.28555C12.9992 4.00169 12.2453 3.92737 11.5179 4.07198C10.7905 4.2166 10.1223 4.57365 9.59779 5.098L9.58379 5.113L7.99979 6.978ZM8.65579 7.75L10.3188 5.792C10.7049 5.41123 11.1949 5.15311 11.7273 5.05008C12.2597 4.94706 12.8107 5.00375 13.311 5.213C13.8112 5.42226 14.2385 5.77475 14.539 6.22616C14.8395 6.67756 14.9998 7.20773 14.9998 7.75C14.9998 8.29227 14.8395 8.82244 14.539 9.27385C14.2385 9.72525 13.8112 10.0777 13.311 10.287C12.8107 10.4963 12.2597 10.5529 11.7273 10.4499C11.1949 10.3469 10.7049 10.0888 10.3188 9.708L8.65579 7.75Z"/> </svg>