<svg width="16" height="16" viewBox="0 0 16 16" xmlns="http://www.w3.org/2000/svg"> <path fill-rule="evenodd" clip-rule="evenodd" d="M8.646 5.646C8.69245 5.59944 8.74762 5.56249 8.80837 5.53729C8.86911 5.51208 8.93423 5.49911 9 5.49911C9.06577 5.49911 9.13089 5.51208 9.19163 5.53729C9.25238 5.56249 9.30755 5.59944 9.354 5.646L11.354 7.646C11.4006 7.69245 11.4375 7.74762 11.4627 7.80837C11.4879 7.86911 11.5009 7.93423 11.5009 8C11.5009 8.06577 11.4879 8.13089 11.4627 8.19163C11.4375 8.25238 11.4006 8.30755 11.354 8.354L9.354 10.354C9.26011 10.4479 9.13278 10.5006 9 10.5006C8.86722 10.5006 8.73989 10.4479 8.646 10.354C8.55211 10.2601 8.49937 10.1328 8.49937 10C8.49937 9.86722 8.55211 9.73989 8.646 9.646L10.293 8L8.646 6.354C8.59944 6.30755 8.56249 6.25238 8.53729 6.19163C8.51208 6.13089 8.49911 6.06577 8.49911 6C8.49911 5.93423 8.51208 5.86911 8.53729 5.80837C8.56249 5.74762 8.59944 5.69245 8.646 5.646ZM7.354 5.646C7.30755 5.59944 7.25238 5.56249 7.19163 5.53729C7.13089 5.51208 7.06577 5.49911 7 5.49911C6.93423 5.49911 6.86911 5.51208 6.80837 5.53729C6.74762 5.56249 6.69245 5.59944 6.646 5.646L4.646 7.646C4.59944 7.69245 4.56249 7.74762 4.53729 7.80837C4.51208 7.86911 4.49911 7.93423 4.49911 8C4.49911 8.06577 4.51208 8.13089 4.53729 8.19163C4.56249 8.25238 4.59944 8.30755 4.646 8.354L6.646 10.354C6.73989 10.4479 6.86722 10.5006 7 10.5006C7.13278 10.5006 7.26011 10.4479 7.354 10.354C7.44789 10.2601 7.50063 10.1328 7.50063 10C7.50063 9.86722 7.44789 9.73989 7.354 9.646L5.707 8L7.354 6.354C7.40056 6.30755 7.43751 6.25238 7.46271 6.19163C7.48792 6.13089 7.50089 6.06577 7.50089 6C7.50089 5.93423 7.48792 5.86911 7.46271 5.80837C7.43751 5.74762 7.40056 5.69245 7.354 5.646Z"/> <path d="M3 0H13C13.5304 0 14.0391 0.210714 14.4142 0.585786C14.7893 0.960859 15 1.46957 15 2V14C15 14.5304 14.7893 15.0391 14.4142 15.4142C14.0391 15.7893 13.5304 16 13 16H3C2.46957 16 1.96086 15.7893 1.58579 15.4142C1.21071 15.0391 1 14.5304 1 14V13H2V14C2 14.2652 2.10536 14.5196 2.29289 14.7071C2.48043 14.8946 2.73478 15 3 15H13C13.2652 15 13.5196 14.8946 13.7071 14.7071C13.8946 14.5196 14 14.2652 14 14V2C14 1.73478 13.8946 1.48043 13.7071 1.29289C13.5196 1.10536 13.2652 1 13 1H3C2.73478 1 2.48043 1.10536 2.29289 1.29289C2.10536 1.48043 2 1.73478 2 2V3H1V2C1 1.46957 1.21071 0.960859 1.58579 0.585786C1.96086 0.210714 2.46957 0 3 0Z"/> <path d="M1 5V4.5C1 4.36739 1.05268 4.24021 1.14645 4.14645C1.24021 4.05268 1.36739 4 1.5 4C1.63261 4 1.75979 4.05268 1.85355 4.14645C1.94732 4.24021 2 4.36739 2 4.5V5H2.5C2.63261 5 2.75979 5.05268 2.85355 5.14645C2.94732 5.24021 3 5.36739 3 5.5C3 5.63261 2.94732 5.75979 2.85355 5.85355C2.75979 5.94732 2.63261 6 2.5 6H0.5C0.367392 6 0.240215 5.94732 0.146447 5.85355C0.0526784 5.75979 0 5.63261 0 5.5C0 5.36739 0.0526784 5.24021 0.146447 5.14645C0.240215 5.05268 0.367392 5 0.5 5H1ZM1 8V7.5C1 7.36739 1.05268 7.24021 1.14645 7.14645C1.24021 7.05268 1.36739 7 1.5 7C1.63261 7 1.75979 7.05268 1.85355 7.14645C1.94732 7.24021 2 7.36739 2 7.5V8H2.5C2.63261 8 2.75979 8.05268 2.85355 8.14645C2.94732 8.24021 3 8.36739 3 8.5C3 8.63261 2.94732 8.75979 2.85355 8.85355C2.75979 8.94732 2.63261 9 2.5 9H0.5C0.367392 9 0.240215 8.94732 0.146447 8.85355C0.0526784 8.75979 0 8.63261 0 8.5C0 8.36739 0.0526784 8.24021 0.146447 8.14645C0.240215 8.05268 0.367392 8 0.5 8H1ZM1 11V10.5C1 10.3674 1.05268 10.2402 1.14645 10.1464C1.24021 10.0527 1.36739 10 1.5 10C1.63261 10 1.75979 10.0527 1.85355 10.1464C1.94732 10.2402 2 10.3674 2 10.5V11H2.5C2.63261 11 2.75979 11.0527 2.85355 11.1464C2.94732 11.2402 3 11.3674 3 11.5C3 11.6326 2.94732 11.7598 2.85355 11.8536C2.75979 11.9473 2.63261 12 2.5 12H0.5C0.367392 12 0.240215 11.9473 0.146447 11.8536C0.0526784 11.7598 0 11.6326 0 11.5C0 11.3674 0.0526784 11.2402 0.146447 11.1464C0.240215 11.0527 0.367392 11 0.5 11H1Z"/> </svg>