<svg width="16" height="16" viewBox="0 0 16 16" xmlns="http://www.w3.org/2000/svg"> <path d="M3.49977 11.5C2.87344 11.4999 2.25863 11.3317 1.71946 11.013C1.18029 10.6943 0.736529 10.2367 0.434457 9.68803C0.132385 9.13937 -0.0169247 8.5197 0.0021044 7.89366C0.0211335 7.26763 0.207804 6.65817 0.542642 6.12887C0.87748 5.59956 1.34822 5.16981 1.90575 4.88443C2.46328 4.59905 3.08717 4.46851 3.71234 4.50642C4.33752 4.54433 4.94107 4.74931 5.46003 5.09996C5.97899 5.45062 6.39434 5.93411 6.66277 6.5H13.9998L15.4998 8L13.9998 9.5L12.9998 8.5L11.9998 9.5L10.9998 8.5L9.99977 9.5L8.99977 8.5L7.99977 9.5H6.66277C6.37886 10.0985 5.93092 10.6042 5.37101 10.9582C4.8111 11.3123 4.16222 11.5001 3.49977 11.5ZM2.49977 9C2.76498 9 3.01934 8.89464 3.20687 8.70711C3.39441 8.51957 3.49977 8.26522 3.49977 8C3.49977 7.73478 3.39441 7.48043 3.20687 7.29289C3.01934 7.10536 2.76498 7 2.49977 7C2.23455 7 1.9802 7.10536 1.79266 7.29289C1.60512 7.48043 1.49977 7.73478 1.49977 8C1.49977 8.26522 1.60512 8.51957 1.79266 8.70711C1.9802 8.89464 2.23455 9 2.49977 9Z"/> </svg>