<svg width="16" height="16" viewBox="0 0 16 16" xmlns="http://www.w3.org/2000/svg"> <g clip-path="url(#clip0_34_4588)"> <path d="M3.03393e-07 8.00009C-0.000342641 7.11927 0.290063 6.26296 0.826149 5.56406C1.36224 4.86516 2.11402 4.36275 2.96484 4.1348C3.81566 3.90685 4.71793 3.96611 5.53162 4.30339C6.34531 4.64066 7.02493 5.23708 7.465 6.00009H14C14.0657 5.99998 14.1308 6.01281 14.1915 6.03786C14.2523 6.06291 14.3075 6.09969 14.354 6.14609L15.854 7.64609C15.9006 7.69254 15.9375 7.74771 15.9627 7.80846C15.9879 7.86921 16.0009 7.93433 16.0009 8.00009C16.0009 8.06586 15.9879 8.13098 15.9627 8.19173C15.9375 8.25247 15.9006 8.30765 15.854 8.35409L14.354 9.85409C14.3076 9.90066 14.2524 9.9376 14.1916 9.96281C14.1309 9.98801 14.0658 10.001 14 10.001C13.9342 10.001 13.8691 9.98801 13.8084 9.96281C13.7476 9.9376 13.6924 9.90066 13.646 9.85409L13 9.20709L12.354 9.85409C12.3076 9.90066 12.2524 9.9376 12.1916 9.96281C12.1309 9.98801 12.0658 10.001 12 10.001C11.9342 10.001 11.8691 9.98801 11.8084 9.96281C11.7476 9.9376 11.6924 9.90066 11.646 9.85409L11 9.20709L10.354 9.85409C10.3076 9.90066 10.2524 9.9376 10.1916 9.96281C10.1309 9.98801 10.0658 10.001 10 10.001C9.93423 10.001 9.86911 9.98801 9.80837 9.96281C9.74762 9.9376 9.69245 9.90066 9.646 9.85409L9 9.20709L8.354 9.85409C8.30748 9.9005 8.25227 9.93727 8.19153 9.96233C8.13079 9.98738 8.06571 10.0002 8 10.0001H7.465C7.02493 10.7631 6.34531 11.3595 5.53162 11.6968C4.71793 12.0341 3.81566 12.0933 2.96484 11.8654C2.11402 11.6374 1.36224 11.135 0.826149 10.4361C0.290063 9.73723 -0.000342641 8.88092 3.03393e-07 8.00009ZM4 5.00009C3.46314 5.0003 2.93617 5.14456 2.47407 5.41784C2.01197 5.69111 1.63166 6.08338 1.37283 6.55372C1.114 7.02407 0.98612 7.55525 1.00254 8.09186C1.01896 8.62847 1.17908 9.15084 1.46619 9.60448C1.7533 10.0581 2.15688 10.4264 2.63483 10.6709C3.11278 10.9154 3.64758 11.0272 4.18345 10.9945C4.71932 10.9619 5.23661 10.7861 5.68137 10.4854C6.12612 10.1847 6.48205 9.77021 6.712 9.28509C6.7526 9.19985 6.8165 9.12785 6.89631 9.07742C6.97613 9.02698 7.06859 9.00017 7.163 9.00009H7.793L8.646 8.14609C8.69245 8.09953 8.74762 8.06259 8.80837 8.03738C8.86911 8.01218 8.93423 7.9992 9 7.9992C9.06577 7.9992 9.13089 8.01218 9.19163 8.03738C9.25238 8.06259 9.30755 8.09953 9.354 8.14609L10 8.79309L10.646 8.14609C10.6924 8.09953 10.7476 8.06259 10.8084 8.03738C10.8691 8.01218 10.9342 7.9992 11 7.9992C11.0658 7.9992 11.1309 8.01218 11.1916 8.03738C11.2524 8.06259 11.3076 8.09953 11.354 8.14609L12 8.79309L12.646 8.14609C12.6924 8.09953 12.7476 8.06259 12.8084 8.03738C12.8691 8.01218 12.9342 7.9992 13 7.9992C13.0658 7.9992 13.1309 8.01218 13.1916 8.03738C13.2524 8.06259 13.3076 8.09953 13.354 8.14609L14 8.79309L14.793 8.00009L13.793 7.00009H7.163C7.06859 7.00002 6.97613 6.97321 6.89631 6.92277C6.8165 6.87234 6.7526 6.80033 6.712 6.71509C6.46869 6.2018 6.08466 5.76814 5.60456 5.46454C5.12446 5.16094 4.56804 4.99988 4 5.00009Z"/> <path d="M4 8.00009C4 8.26531 3.89464 8.51966 3.70711 8.7072C3.51957 8.89474 3.26522 9.00009 3 9.00009C2.73478 9.00009 2.48043 8.89474 2.29289 8.7072C2.10536 8.51966 2 8.26531 2 8.00009C2 7.73488 2.10536 7.48052 2.29289 7.29299C2.48043 7.10545 2.73478 7.00009 3 7.00009C3.26522 7.00009 3.51957 7.10545 3.70711 7.29299C3.89464 7.48052 4 7.73488 4 8.00009Z"/> </g> <defs> <clipPath id="clip0_34_4588"> <rect width="16" height="16"/> </clipPath> </defs> </svg>