<svg width="16" height="16" viewBox="0 0 16 16" fill="none" xmlns="http://www.w3.org/2000/svg">
<g clip-path="url(#clip0_34_4610)">
<path d="M8.23489 1.55891C8.16255 1.52039 8.08185 1.50024 7.99989 1.50024C7.91793 1.50024 7.83723 1.52039 7.76489 1.55891L0.264887 5.55891C0.185015 5.60159 0.118232 5.66515 0.0716689 5.74282C0.0251061 5.82049 0.000511719 5.90935 0.000511719 5.99991C0.000511719 6.09047 0.0251061 6.17933 0.0716689 6.257C0.118232 6.33467 0.185015 6.39824 0.264887 6.44091L3.18789 7.99991L0.263887 9.55891C0.184015 9.60159 0.117232 9.66515 0.0706689 9.74282C0.0241061 9.8205 -0.000488281 9.90935 -0.000488281 9.99991C-0.000488281 10.0905 0.0241061 10.1793 0.0706689 10.257C0.117232 10.3347 0.184015 10.3982 0.263887 10.4409L7.76389 14.4409C7.83623 14.4794 7.91693 14.4996 7.99889 14.4996C8.08084 14.4996 8.16155 14.4794 8.23389 14.4409L15.7339 10.4409C15.8138 10.3982 15.8805 10.3347 15.9271 10.257C15.9737 10.1793 15.9983 10.0905 15.9983 9.99991C15.9983 9.90935 15.9737 9.8205 15.9271 9.74282C15.8805 9.66515 15.8138 9.60159 15.7339 9.55891L12.8129 7.99991L15.7349 6.44091C15.8148 6.39824 15.8815 6.33467 15.9281 6.257C15.9747 6.17933 15.9993 6.09047 15.9993 5.99991C15.9993 5.90935 15.9747 5.82049 15.9281 5.74282C15.8815 5.66515 15.8148 5.60159 15.7349 5.55891L8.23489 1.55891ZM11.7499 8.56691L14.4379 9.99991L7.99989 13.4329L1.56189 9.99991L4.24989 8.56691L7.76489 10.4409C7.83723 10.4794 7.91793 10.4996 7.99989 10.4996C8.08185 10.4996 8.16255 10.4794 8.23489 10.4409L11.7499 8.56691ZM7.99989 9.43291L1.56189 5.99991L7.99989 2.56691L14.4379 5.99991L7.99989 9.43291Z" fill="#212529"/>
</g>
<defs>
<clipPath id="clip0_34_4610">
<rect width="16" height="16" fill="white"/>
</clipPath>
</defs>
</svg>
