<svg width="16" height="16" viewBox="0 0 16 16" xmlns="http://www.w3.org/2000/svg"> <g clip-path="url(#clip0_34_4608)"> <path d="M8.354 0.145917C8.30755 0.099354 8.25238 0.0624111 8.19163 0.0372047C8.13089 0.0119982 8.06577 -0.000976562 8 -0.000976562C7.93423 -0.000976562 7.86911 0.0119982 7.80837 0.0372047C7.74762 0.0624111 7.69245 0.099354 7.646 0.145917L4.646 3.14592C4.59944 3.19236 4.56249 3.24754 4.53729 3.30828C4.51208 3.36903 4.49911 3.43415 4.49911 3.49992C4.49911 3.56568 4.51208 3.63081 4.53729 3.69155C4.56249 3.7523 4.59944 3.80747 4.646 3.85392L5.646 4.85392C5.69245 4.90048 5.74762 4.93742 5.80837 4.96263C5.86911 4.98784 5.93423 5.00081 6 5.00081C6.06577 5.00081 6.13089 4.98784 6.19163 4.96263C6.25238 4.93742 6.30755 4.90048 6.354 4.85392L7 4.20692V11.9999H1C0.734784 11.9999 0.48043 12.1053 0.292893 12.2928C0.105357 12.4803 0 12.7347 0 12.9999V14.9999C0 15.2651 0.105357 15.5195 0.292893 15.707C0.48043 15.8946 0.734784 15.9999 1 15.9999H15C15.2652 15.9999 15.5196 15.8946 15.7071 15.707C15.8946 15.5195 16 15.2651 16 14.9999V12.9999C16 12.7347 15.8946 12.4803 15.7071 12.2928C15.5196 12.1053 15.2652 11.9999 15 11.9999H9V4.20692L9.646 4.85392C9.69245 4.90048 9.74762 4.93742 9.80837 4.96263C9.86911 4.98784 9.93423 5.00081 10 5.00081C10.0658 5.00081 10.1309 4.98784 10.1916 4.96263C10.2524 4.93742 10.3076 4.90048 10.354 4.85392L11.354 3.85392C11.4006 3.80747 11.4375 3.7523 11.4627 3.69155C11.4879 3.63081 11.5009 3.56568 11.5009 3.49992C11.5009 3.43415 11.4879 3.36903 11.4627 3.30828C11.4375 3.24754 11.4006 3.19236 11.354 3.14592L8.354 0.145917Z"/> <path d="M1 6.99992C0.734784 6.99992 0.48043 7.10527 0.292893 7.29281C0.105357 7.48035 0 7.7347 0 7.99992V9.99992C0 10.2651 0.105357 10.5195 0.292893 10.707C0.48043 10.8946 0.734784 10.9999 1 10.9999H5.5C5.63261 10.9999 5.75979 10.9472 5.85355 10.8535C5.94732 10.7597 6 10.6325 6 10.4999C6 10.3673 5.94732 10.2401 5.85355 10.1464C5.75979 10.0526 5.63261 9.99992 5.5 9.99992H1V7.99992H5.5C5.63261 7.99992 5.75979 7.94724 5.85355 7.85347C5.94732 7.7597 6 7.63253 6 7.49992C6 7.36731 5.94732 7.24013 5.85355 7.14636C5.75979 7.0526 5.63261 6.99992 5.5 6.99992H1ZM10.5 6.99992C10.3674 6.99992 10.2402 7.0526 10.1464 7.14636C10.0527 7.24013 10 7.36731 10 7.49992C10 7.63253 10.0527 7.7597 10.1464 7.85347C10.2402 7.94724 10.3674 7.99992 10.5 7.99992H15V9.99992H10.5C10.3674 9.99992 10.2402 10.0526 10.1464 10.1464C10.0527 10.2401 10 10.3673 10 10.4999C10 10.6325 10.0527 10.7597 10.1464 10.8535C10.2402 10.9472 10.3674 10.9999 10.5 10.9999H15C15.2652 10.9999 15.5196 10.8946 15.7071 10.707C15.8946 10.5195 16 10.2651 16 9.99992V7.99992C16 7.7347 15.8946 7.48035 15.7071 7.29281C15.5196 7.10527 15.2652 6.99992 15 6.99992H10.5Z"/> </g> <defs> <clipPath id="clip0_34_4608"> <rect width="16" height="16"/> </clipPath> </defs> </svg>