<svg width="16" height="16" viewBox="0 0 16 16" xmlns="http://www.w3.org/2000/svg"> <path d="M7.76486 1.55891C7.8372 1.52039 7.91791 1.50024 7.99986 1.50024C8.08182 1.50024 8.16252 1.52039 8.23486 1.55891L15.7349 5.55891C15.8147 5.60159 15.8815 5.66515 15.9281 5.74282C15.9746 5.82049 15.9992 5.90935 15.9992 5.99991C15.9992 6.09047 15.9746 6.17933 15.9281 6.257C15.8815 6.33467 15.8147 6.39824 15.7349 6.44091L8.23486 10.4409C8.16252 10.4794 8.08182 10.4996 7.99986 10.4996C7.91791 10.4996 7.8372 10.4794 7.76486 10.4409L0.264864 6.44091C0.184991 6.39824 0.118208 6.33467 0.0716454 6.257C0.0250827 6.17933 0.000488281 6.09047 0.000488281 5.99991C0.000488281 5.90935 0.0250827 5.82049 0.0716454 5.74282C0.118208 5.66515 0.184991 5.60159 0.264864 5.55891L7.76486 1.55891Z"/> <path d="M2.12486 8.56691L0.264864 9.55891C0.184991 9.60159 0.118208 9.66515 0.0716454 9.74282C0.0250827 9.8205 0.000488281 9.90935 0.000488281 9.99991C0.000488281 10.0905 0.0250827 10.1793 0.0716454 10.257C0.118208 10.3347 0.184991 10.3982 0.264864 10.4409L7.76486 14.4409C7.8372 14.4794 7.91791 14.4996 7.99986 14.4996C8.08182 14.4996 8.16252 14.4794 8.23486 14.4409L15.7349 10.4409C15.8147 10.3982 15.8815 10.3347 15.9281 10.257C15.9746 10.1793 15.9992 10.0905 15.9992 9.99991C15.9992 9.90935 15.9746 9.8205 15.9281 9.74282C15.8815 9.66515 15.8147 9.60159 15.7349 9.55891L13.8749 8.56691L8.70486 11.3229C8.48784 11.4385 8.24574 11.4989 7.99986 11.4989C7.75399 11.4989 7.51189 11.4385 7.29486 11.3229L2.12486 8.56691Z"/> </svg>