<svg width="16" height="16" viewBox="0 0 16 16" xmlns="http://www.w3.org/2000/svg"> <path d="M2.00014 5.99997C2.00014 5.42797 2.08014 4.87497 2.23014 4.34997L10.7881 12.909C10.7038 12.9683 10.6032 13 10.5001 13H5.50014C5.40233 13.0001 5.30662 12.9716 5.22486 12.9179C5.1431 12.8643 5.07888 12.7878 5.04014 12.698L4.27914 10.928C4.17018 10.6942 4.01625 10.4842 3.82614 10.31C3.24777 9.75113 2.78797 9.08145 2.47424 8.34092C2.1605 7.60039 1.99926 6.80421 2.00014 5.99997ZM12.3031 10.181L3.81814 1.69697C4.94976 0.604018 6.46537 -0.000748387 8.03855 0.0129221C9.61173 0.0265926 11.1166 0.657606 12.2291 1.77005C13.3415 2.8825 13.9725 4.38738 13.9862 5.96056C13.9999 7.53374 13.3951 9.04935 12.3021 10.181H12.3031ZM5.00014 14.5C5.00014 14.3674 5.05282 14.2402 5.14659 14.1464C5.24036 14.0526 5.36753 14 5.50014 14H10.5001C10.6328 14 10.7599 14.0526 10.8537 14.1464C10.9475 14.2402 11.0001 14.3674 11.0001 14.5C11.0001 14.6326 10.9475 14.7598 10.8537 14.8535C10.7599 14.9473 10.6328 15 10.5001 15L10.2761 15.447C10.1932 15.613 10.0656 15.7527 9.90767 15.8504C9.74977 15.9481 9.5678 15.9999 9.38214 16H6.61814C6.43248 15.9999 6.25051 15.9481 6.09262 15.8504C5.93472 15.7527 5.80713 15.613 5.72414 15.447L5.50014 15C5.36753 15 5.24036 14.9473 5.14659 14.8535C5.05282 14.7598 5.00014 14.6326 5.00014 14.5ZM2.35414 1.64597C2.30766 1.59948 2.25247 1.5626 2.19173 1.53744C2.13099 1.51228 2.06589 1.49933 2.00014 1.49933C1.9344 1.49933 1.8693 1.51228 1.80856 1.53744C1.74782 1.5626 1.69263 1.59948 1.64614 1.64597C1.59966 1.69245 1.56278 1.74764 1.53762 1.80838C1.51246 1.86912 1.49951 1.93422 1.49951 1.99997C1.49951 2.06571 1.51246 2.13081 1.53762 2.19155C1.56278 2.25229 1.59966 2.30748 1.64614 2.35397L13.6461 14.354C13.74 14.4479 13.8674 14.5006 14.0001 14.5006C14.1329 14.5006 14.2603 14.4479 14.3541 14.354C14.448 14.2601 14.5008 14.1327 14.5008 14C14.5008 13.8672 14.448 13.7399 14.3541 13.646L2.35414 1.64597Z"/> </svg>