<svg width="16" height="16" viewBox="0 0 16 16" fill="none" xmlns="http://www.w3.org/2000/svg">
<g clip-path="url(#clip0_34_4654)">
<path d="M5.5198 0.359C5.55028 0.255329 5.61351 0.164319 5.70005 0.0996C5.78658 0.0348812 5.89175 -6.31864e-05 5.9998 8.57716e-08H9.9998C10.079 6.01937e-05 10.157 0.018926 10.2275 0.0550444C10.298 0.0911628 10.3588 0.143501 10.4051 0.20775C10.4514 0.271999 10.4818 0.346322 10.4937 0.424601C10.5056 0.502879 10.4988 0.582874 10.4738 0.658L8.6938 6H12.4998C12.5934 5.99994 12.6852 6.02616 12.7647 6.0757C12.8441 6.12523 12.9081 6.19608 12.9492 6.28019C12.9904 6.36429 13.0071 6.45825 12.9975 6.55139C12.9879 6.64453 12.9523 6.73309 12.8948 6.807L5.8948 15.807C5.82309 15.8996 5.72113 15.9642 5.60671 15.9893C5.49228 16.0144 5.37266 15.9986 5.26872 15.9446C5.16478 15.8905 5.08312 15.8017 5.038 15.6935C4.99287 15.5854 4.98714 15.4649 5.0218 15.353L6.8228 9.5H3.4998C3.42207 9.50005 3.34539 9.48197 3.27587 9.4472C3.20634 9.41243 3.14588 9.36192 3.09929 9.2997C3.05269 9.23748 3.02125 9.16525 3.00745 9.08875C2.99365 9.01225 2.99788 8.93358 3.0198 8.859L5.5198 0.359Z" fill="#212529"/>
</g>
<defs>
<clipPath id="clip0_34_4654">
<rect width="16" height="16" fill="white"/>
</clipPath>
</defs>
</svg>
