<svg width="16" height="16" viewBox="0 0 16 16" xmlns="http://www.w3.org/2000/svg"> <path fill-rule="evenodd" clip-rule="evenodd" d="M2.22992 4.34997C2.07695 4.88661 1.99954 5.44195 1.99992 5.99997C1.99992 7.69097 2.69992 9.21997 3.82592 10.31C4.02892 10.506 4.18492 10.71 4.27892 10.929L5.04092 12.698C5.07958 12.7876 5.14365 12.864 5.22522 12.9177C5.30678 12.9713 5.40228 12.9999 5.49992 13C5.36731 13 5.24013 13.0526 5.14636 13.1464C5.0526 13.2402 4.99992 13.3674 4.99992 13.5C4.99992 13.6326 5.0526 13.7598 5.14636 13.8535C5.24013 13.9473 5.36731 14 5.49992 14C5.36731 14 5.24013 14.0526 5.14636 14.1464C5.0526 14.2402 4.99992 14.3674 4.99992 14.5C4.99992 14.6326 5.0526 14.7598 5.14636 14.8535C5.24013 14.9473 5.36731 15 5.49992 15L5.72392 15.447C5.80691 15.613 5.9345 15.7527 6.09239 15.8504C6.25029 15.9481 6.43226 15.9999 6.61792 16H9.38192C9.56758 15.9999 9.74955 15.9481 9.90744 15.8504C10.0653 15.7527 10.1929 15.613 10.2759 15.447L10.4999 15C10.6325 15 10.7597 14.9473 10.8535 14.8535C10.9472 14.7598 10.9999 14.6326 10.9999 14.5C10.9999 14.3674 10.9472 14.2402 10.8535 14.1464C10.7597 14.0526 10.6325 14 10.4999 14C10.6325 14 10.7597 13.9473 10.8535 13.8535C10.9472 13.7598 10.9999 13.6326 10.9999 13.5C10.9999 13.3674 10.9472 13.2402 10.8535 13.1464C10.7597 13.0526 10.6325 13 10.4999 13C10.603 13 10.7036 12.9683 10.7879 12.909L9.87792 12H5.82992L5.19792 10.533C5.03691 10.1778 4.80716 9.85793 4.52192 9.59197C3.94042 9.03071 3.50414 8.33647 3.25066 7.56907C2.99719 6.80168 2.93413 5.98415 3.06692 5.18697L2.22992 4.35097V4.34997ZM3.81792 1.69697L4.52592 2.40397C5.46893 1.49318 6.73194 0.989204 8.04292 1.0006C9.35391 1.01199 10.608 1.53783 11.535 2.46487C12.4621 3.39191 12.9879 4.64598 12.9993 5.95696C13.0107 7.26794 12.5067 8.53096 11.5959 9.47397L12.3029 10.181C13.3959 9.04935 14.0006 7.53374 13.987 5.96056C13.9733 4.38738 13.3423 2.8825 12.2298 1.77005C11.1174 0.657606 9.6125 0.0265926 8.03932 0.0129221C6.46614 -0.000748387 4.95053 0.604018 3.81892 1.69697H3.81792ZM1.64592 1.64597C1.69236 1.5994 1.74754 1.56246 1.80828 1.53725C1.86903 1.51205 1.93415 1.49907 1.99992 1.49907C2.06568 1.49907 2.13081 1.51205 2.19155 1.53725C2.2523 1.56246 2.30747 1.5994 2.35392 1.64597L14.3539 13.646C14.4478 13.7399 14.5005 13.8672 14.5005 14C14.5005 14.1327 14.4478 14.2601 14.3539 14.354C14.26 14.4479 14.1327 14.5006 13.9999 14.5006C13.8671 14.5006 13.7398 14.4479 13.6459 14.354L1.64592 2.35397C1.59935 2.30752 1.56241 2.25235 1.5372 2.1916C1.512 2.13085 1.49902 2.06573 1.49902 1.99997C1.49902 1.9342 1.512 1.86908 1.5372 1.80833C1.56241 1.74759 1.59935 1.69241 1.64592 1.64597Z"/> </svg>