<svg width="16" height="16" viewBox="0 0 16 16" xmlns="http://www.w3.org/2000/svg"> <g clip-path="url(#clip0_34_4652)"> <path d="M11.2512 0.0679535C11.3491 0.124692 11.4248 0.212943 11.466 0.318291C11.5073 0.423639 11.5116 0.539855 11.4782 0.647953L9.6772 6.49995H13.0002C13.0979 6.49991 13.1934 6.52847 13.275 6.5821C13.3566 6.63574 13.4207 6.71209 13.4594 6.80175C13.4981 6.8914 13.5098 6.99043 13.4928 7.08661C13.4759 7.18278 13.4312 7.2719 13.3642 7.34295L5.3642 15.843C5.28679 15.9253 5.18379 15.9789 5.07197 15.9952C4.96016 16.0115 4.84613 15.9894 4.74847 15.9326C4.65081 15.8757 4.57528 15.7875 4.53419 15.6822C4.4931 15.577 4.48887 15.4609 4.5222 15.353L6.3232 9.49995H3.0002C2.90254 9.49999 2.80702 9.47143 2.72541 9.4178C2.6438 9.36417 2.57968 9.28782 2.54096 9.19816C2.50225 9.10851 2.49064 9.00948 2.50757 8.9133C2.52449 8.81712 2.56921 8.72801 2.6362 8.65695L10.6362 0.156953C10.7135 0.0747526 10.8164 0.0211221 10.928 0.00478201C11.0397 -0.011558 11.1536 0.0103533 11.2512 0.0669535V0.0679535Z"/> </g> <defs> <clipPath id="clip0_34_4652"> <rect width="16" height="16"/> </clipPath> </defs> </svg>