<svg width="16" height="16" viewBox="0 0 16 16" xmlns="http://www.w3.org/2000/svg"> <path d="M4.71511 6.54209L3.34311 7.91409C2.78045 8.47674 2.46436 9.23987 2.46436 10.0356C2.46436 10.8313 2.78045 11.5944 3.34311 12.1571C3.90577 12.7197 4.66889 13.0358 5.46461 13.0358C6.26033 13.0358 7.02345 12.7197 7.58611 12.1571L9.41411 10.3281C9.7534 9.98874 10.0063 9.57296 10.1517 9.11563C10.2971 8.65831 10.3306 8.17279 10.2495 7.69982C10.1684 7.22686 9.97497 6.78025 9.68554 6.39749C9.39611 6.01473 9.01909 5.70699 8.58611 5.50009L8.00011 6.08609C7.94062 6.14568 7.88888 6.21254 7.84611 6.28509C8.18064 6.38126 8.48427 6.56307 8.727 6.81254C8.96973 7.06202 9.14315 7.37053 9.23011 7.70757C9.31707 8.04461 9.31457 8.3985 9.22284 8.73428C9.13112 9.07005 8.95335 9.37607 8.70711 9.62209L6.88011 11.4501C6.50483 11.8254 5.99584 12.0362 5.46511 12.0362C4.93438 12.0362 4.42539 11.8254 4.05011 11.4501C3.67483 11.0748 3.464 10.5658 3.464 10.0351C3.464 9.50436 3.67483 8.99537 4.05011 8.62009L4.84311 7.82809C4.73122 7.40881 4.688 6.97518 4.71511 6.54209Z"/> <path d="M6.58611 4.67209C6.24681 5.01143 5.99387 5.42721 5.84852 5.88454C5.70316 6.34186 5.66964 6.82739 5.75075 7.30035C5.83186 7.77332 6.02525 8.21992 6.31468 8.60268C6.60411 8.98544 6.98113 9.29319 7.41411 9.50009L8.18911 8.72409C7.85006 8.63314 7.54091 8.45456 7.29274 8.20629C7.04457 7.95802 6.86612 7.6488 6.77532 7.30971C6.68452 6.97062 6.68456 6.6136 6.77545 6.27453C6.86634 5.93547 7.04488 5.62629 7.29311 5.37809L9.12011 3.55009C9.49539 3.1748 10.0044 2.96397 10.5351 2.96397C11.0658 2.96397 11.5748 3.1748 11.9501 3.55009C12.3254 3.92537 12.5362 4.43436 12.5362 4.96509C12.5362 5.49581 12.3254 6.0048 11.9501 6.38009L11.1571 7.17209C11.2691 7.59209 11.3121 8.02709 11.2851 8.45909L12.6571 7.08709C13.2198 6.52443 13.5359 5.7613 13.5359 4.96559C13.5359 4.16987 13.2198 3.40674 12.6571 2.84409C12.0945 2.28143 11.3313 1.96533 10.5356 1.96533C9.73989 1.96533 8.97677 2.28143 8.41411 2.84409L6.58611 4.67209Z"/> </svg>