<svg width="16" height="16" viewBox="0 0 16 16" xmlns="http://www.w3.org/2000/svg"> <path fill-rule="evenodd" clip-rule="evenodd" d="M0 0.5C0 0.367392 0.0526784 0.240215 0.146447 0.146447C0.240215 0.0526784 0.367392 0 0.5 0L2.5 0C2.63261 0 2.75979 0.0526784 2.85355 0.146447C2.94732 0.240215 3 0.367392 3 0.5C3 0.632608 2.94732 0.759785 2.85355 0.853553C2.75979 0.947322 2.63261 1 2.5 1H0.5C0.367392 1 0.240215 0.947322 0.146447 0.853553C0.0526784 0.759785 0 0.632608 0 0.5ZM4 0.5C4 0.367392 4.05268 0.240215 4.14645 0.146447C4.24021 0.0526784 4.36739 0 4.5 0L14.5 0C14.6326 0 14.7598 0.0526784 14.8536 0.146447C14.9473 0.240215 15 0.367392 15 0.5C15 0.632608 14.9473 0.759785 14.8536 0.853553C14.7598 0.947322 14.6326 1 14.5 1H4.5C4.36739 1 4.24021 0.947322 4.14645 0.853553C4.05268 0.759785 4 0.632608 4 0.5ZM0 2.5C0 2.36739 0.0526784 2.24021 0.146447 2.14645C0.240215 2.05268 0.367392 2 0.5 2H2.5C2.63261 2 2.75979 2.05268 2.85355 2.14645C2.94732 2.24021 3 2.36739 3 2.5C3 2.63261 2.94732 2.75979 2.85355 2.85355C2.75979 2.94732 2.63261 3 2.5 3H0.5C0.367392 3 0.240215 2.94732 0.146447 2.85355C0.0526784 2.75979 0 2.63261 0 2.5ZM4 2.5C4 2.36739 4.05268 2.24021 4.14645 2.14645C4.24021 2.05268 4.36739 2 4.5 2H13.5C13.6326 2 13.7598 2.05268 13.8536 2.14645C13.9473 2.24021 14 2.36739 14 2.5C14 2.63261 13.9473 2.75979 13.8536 2.85355C13.7598 2.94732 13.6326 3 13.5 3H4.5C4.36739 3 4.24021 2.94732 4.14645 2.85355C4.05268 2.75979 4 2.63261 4 2.5ZM0 4.5C0 4.36739 0.0526784 4.24021 0.146447 4.14645C0.240215 4.05268 0.367392 4 0.5 4H2.5C2.63261 4 2.75979 4.05268 2.85355 4.14645C2.94732 4.24021 3 4.36739 3 4.5C3 4.63261 2.94732 4.75979 2.85355 4.85355C2.75979 4.94732 2.63261 5 2.5 5H0.5C0.367392 5 0.240215 4.94732 0.146447 4.85355C0.0526784 4.75979 0 4.63261 0 4.5ZM4 4.5C4 4.36739 4.05268 4.24021 4.14645 4.14645C4.24021 4.05268 4.36739 4 4.5 4H15.5C15.6326 4 15.7598 4.05268 15.8536 4.14645C15.9473 4.24021 16 4.36739 16 4.5C16 4.63261 15.9473 4.75979 15.8536 4.85355C15.7598 4.94732 15.6326 5 15.5 5H4.5C4.36739 5 4.24021 4.94732 4.14645 4.85355C4.05268 4.75979 4 4.63261 4 4.5ZM0 6.5C0 6.36739 0.0526784 6.24021 0.146447 6.14645C0.240215 6.05268 0.367392 6 0.5 6H2.5C2.63261 6 2.75979 6.05268 2.85355 6.14645C2.94732 6.24021 3 6.36739 3 6.5C3 6.63261 2.94732 6.75979 2.85355 6.85355C2.75979 6.94732 2.63261 7 2.5 7H0.5C0.367392 7 0.240215 6.94732 0.146447 6.85355C0.0526784 6.75979 0 6.63261 0 6.5ZM4 6.5C4 6.36739 4.05268 6.24021 4.14645 6.14645C4.24021 6.05268 4.36739 6 4.5 6H12.5C12.6326 6 12.7598 6.05268 12.8536 6.14645C12.9473 6.24021 13 6.36739 13 6.5C13 6.63261 12.9473 6.75979 12.8536 6.85355C12.7598 6.94732 12.6326 7 12.5 7H4.5C4.36739 7 4.24021 6.94732 4.14645 6.85355C4.05268 6.75979 4 6.63261 4 6.5ZM0 8.5C0 8.36739 0.0526784 8.24021 0.146447 8.14645C0.240215 8.05268 0.367392 8 0.5 8H2.5C2.63261 8 2.75979 8.05268 2.85355 8.14645C2.94732 8.24021 3 8.36739 3 8.5C3 8.63261 2.94732 8.75979 2.85355 8.85355C2.75979 8.94732 2.63261 9 2.5 9H0.5C0.367392 9 0.240215 8.94732 0.146447 8.85355C0.0526784 8.75979 0 8.63261 0 8.5ZM4 8.5C4 8.36739 4.05268 8.24021 4.14645 8.14645C4.24021 8.05268 4.36739 8 4.5 8H12.5C12.6326 8 12.7598 8.05268 12.8536 8.14645C12.9473 8.24021 13 8.36739 13 8.5C13 8.63261 12.9473 8.75979 12.8536 8.85355C12.7598 8.94732 12.6326 9 12.5 9H4.5C4.36739 9 4.24021 8.94732 4.14645 8.85355C4.05268 8.75979 4 8.63261 4 8.5ZM0 10.5C0 10.3674 0.0526784 10.2402 0.146447 10.1464C0.240215 10.0527 0.367392 10 0.5 10H2.5C2.63261 10 2.75979 10.0527 2.85355 10.1464C2.94732 10.2402 3 10.3674 3 10.5C3 10.6326 2.94732 10.7598 2.85355 10.8536C2.75979 10.9473 2.63261 11 2.5 11H0.5C0.367392 11 0.240215 10.9473 0.146447 10.8536C0.0526784 10.7598 0 10.6326 0 10.5ZM4 10.5C4 10.3674 4.05268 10.2402 4.14645 10.1464C4.24021 10.0527 4.36739 10 4.5 10H14.5C14.6326 10 14.7598 10.0527 14.8536 10.1464C14.9473 10.2402 15 10.3674 15 10.5C15 10.6326 14.9473 10.7598 14.8536 10.8536C14.7598 10.9473 14.6326 11 14.5 11H4.5C4.36739 11 4.24021 10.9473 4.14645 10.8536C4.05268 10.7598 4 10.6326 4 10.5ZM0 12.5C0 12.3674 0.0526784 12.2402 0.146447 12.1464C0.240215 12.0527 0.367392 12 0.5 12H2.5C2.63261 12 2.75979 12.0527 2.85355 12.1464C2.94732 12.2402 3 12.3674 3 12.5C3 12.6326 2.94732 12.7598 2.85355 12.8536C2.75979 12.9473 2.63261 13 2.5 13H0.5C0.367392 13 0.240215 12.9473 0.146447 12.8536C0.0526784 12.7598 0 12.6326 0 12.5ZM4 12.5C4 12.3674 4.05268 12.2402 4.14645 12.1464C4.24021 12.0527 4.36739 12 4.5 12H10.5C10.6326 12 10.7598 12.0527 10.8536 12.1464C10.9473 12.2402 11 12.3674 11 12.5C11 12.6326 10.9473 12.7598 10.8536 12.8536C10.7598 12.9473 10.6326 13 10.5 13H4.5C4.36739 13 4.24021 12.9473 4.14645 12.8536C4.05268 12.7598 4 12.6326 4 12.5ZM0 14.5C0 14.3674 0.0526784 14.2402 0.146447 14.1464C0.240215 14.0527 0.367392 14 0.5 14H2.5C2.63261 14 2.75979 14.0527 2.85355 14.1464C2.94732 14.2402 3 14.3674 3 14.5C3 14.6326 2.94732 14.7598 2.85355 14.8536C2.75979 14.9473 2.63261 15 2.5 15H0.5C0.367392 15 0.240215 14.9473 0.146447 14.8536C0.0526784 14.7598 0 14.6326 0 14.5ZM4 14.5C4 14.3674 4.05268 14.2402 4.14645 14.1464C4.24021 14.0527 4.36739 14 4.5 14H15.5C15.6326 14 15.7598 14.0527 15.8536 14.1464C15.9473 14.2402 16 14.3674 16 14.5C16 14.6326 15.9473 14.7598 15.8536 14.8536C15.7598 14.9473 15.6326 15 15.5 15H4.5C4.36739 15 4.24021 14.9473 4.14645 14.8536C4.05268 14.7598 4 14.6326 4 14.5Z"/> </svg>