<svg width="16" height="16" viewBox="0 0 16 16" xmlns="http://www.w3.org/2000/svg"> <path fill-rule="evenodd" clip-rule="evenodd" d="M5 11.5C5 11.3674 5.05268 11.2402 5.14645 11.1464C5.24021 11.0527 5.36739 11 5.5 11H14.5C14.6326 11 14.7598 11.0527 14.8536 11.1464C14.9473 11.2402 15 11.3674 15 11.5C15 11.6326 14.9473 11.7598 14.8536 11.8535C14.7598 11.9473 14.6326 12 14.5 12H5.5C5.36739 12 5.24021 11.9473 5.14645 11.8535C5.05268 11.7598 5 11.6326 5 11.5ZM5 7.49998C5 7.36738 5.05268 7.2402 5.14645 7.14643C5.24021 7.05266 5.36739 6.99998 5.5 6.99998H14.5C14.6326 6.99998 14.7598 7.05266 14.8536 7.14643C14.9473 7.2402 15 7.36738 15 7.49998C15 7.63259 14.9473 7.75977 14.8536 7.85354C14.7598 7.94731 14.6326 7.99998 14.5 7.99998H5.5C5.36739 7.99998 5.24021 7.94731 5.14645 7.85354C5.05268 7.75977 5 7.63259 5 7.49998ZM5 3.49998C5 3.36738 5.05268 3.2402 5.14645 3.14643C5.24021 3.05266 5.36739 2.99998 5.5 2.99998H14.5C14.6326 2.99998 14.7598 3.05266 14.8536 3.14643C14.9473 3.2402 15 3.36738 15 3.49998C15 3.63259 14.9473 3.75977 14.8536 3.85354C14.7598 3.94731 14.6326 3.99998 14.5 3.99998H5.5C5.36739 3.99998 5.24021 3.94731 5.14645 3.85354C5.05268 3.75977 5 3.63259 5 3.49998Z"/> <path d="M1.713 11.865V11.391H2C2.217 11.391 2.363 11.254 2.363 11.074C2.363 10.889 2.205 10.764 2.002 10.764C1.779 10.764 1.635 10.916 1.629 11.074H1.039C1.055 10.607 1.412 10.287 2.025 10.287C2.613 10.285 2.979 10.578 2.982 10.99C2.98389 11.1313 2.93543 11.2687 2.84528 11.3775C2.75513 11.4863 2.62919 11.5595 2.49 11.584V11.617C2.64781 11.6288 2.79501 11.7009 2.90098 11.8184C3.00696 11.936 3.06356 12.0898 3.059 12.248C3.062 12.781 2.557 13.048 2.008 13.048C1.352 13.048 1.008 12.678 1 12.254H1.582C1.59 12.432 1.768 12.56 2.004 12.563C2.258 12.563 2.428 12.418 2.426 12.213C2.424 12.018 2.271 11.865 2.012 11.865H1.712H1.713ZM1.709 7.16598H1.105V7.13098C1.105 6.72298 1.4 6.28698 2.063 6.28698C2.646 6.28698 3.023 6.61298 3.023 7.04298C3.023 7.43198 2.766 7.65998 2.547 7.89098L2.01 8.46298V8.49298H3.064V8.99998H1.143V8.60498L2.1 7.61498C2.238 7.47298 2.393 7.31098 2.393 7.10698C2.393 6.92698 2.246 6.78698 2.051 6.78698C2.00598 6.78533 1.9611 6.79291 1.91913 6.80926C1.87715 6.82561 1.83897 6.85038 1.80693 6.88205C1.77489 6.91371 1.74967 6.9516 1.73283 6.99338C1.71599 7.03516 1.70788 7.07995 1.709 7.12498V7.16598ZM2.564 4.99998H1.929V2.92398H1.898L1.3 3.34398V2.77698L1.929 2.33398H2.564V4.99998Z"/> </svg>