<svg width="16" height="16" viewBox="0 0 16 16" xmlns="http://www.w3.org/2000/svg"> <path fill-rule="evenodd" clip-rule="evenodd" d="M5.00014 11.4999C5.00014 11.3673 5.05282 11.2401 5.14659 11.1464C5.24036 11.0526 5.36754 10.9999 5.50014 10.9999H14.5001C14.6328 10.9999 14.7599 11.0526 14.8537 11.1464C14.9475 11.2401 15.0001 11.3673 15.0001 11.4999C15.0001 11.6325 14.9475 11.7597 14.8537 11.8535C14.7599 11.9472 14.6328 11.9999 14.5001 11.9999H5.50014C5.36754 11.9999 5.24036 11.9472 5.14659 11.8535C5.05282 11.7597 5.00014 11.6325 5.00014 11.4999ZM5.00014 7.49992C5.00014 7.36731 5.05282 7.24013 5.14659 7.14636C5.24036 7.0526 5.36754 6.99992 5.50014 6.99992H14.5001C14.6328 6.99992 14.7599 7.0526 14.8537 7.14636C14.9475 7.24013 15.0001 7.36731 15.0001 7.49992C15.0001 7.63253 14.9475 7.7597 14.8537 7.85347C14.7599 7.94724 14.6328 7.99992 14.5001 7.99992H5.50014C5.36754 7.99992 5.24036 7.94724 5.14659 7.85347C5.05282 7.7597 5.00014 7.63253 5.00014 7.49992ZM5.00014 3.49992C5.00014 3.36731 5.05282 3.24013 5.14659 3.14636C5.24036 3.0526 5.36754 2.99992 5.50014 2.99992H14.5001C14.6328 2.99992 14.7599 3.0526 14.8537 3.14636C14.9475 3.24013 15.0001 3.36731 15.0001 3.49992C15.0001 3.63253 14.9475 3.7597 14.8537 3.85347C14.7599 3.94724 14.6328 3.99992 14.5001 3.99992H5.50014C5.36754 3.99992 5.24036 3.94724 5.14659 3.85347C5.05282 3.7597 5.00014 3.63253 5.00014 3.49992ZM3.85414 2.14592C3.90071 2.19236 3.93765 2.24754 3.96286 2.30828C3.98806 2.36903 4.00104 2.43415 4.00104 2.49992C4.00104 2.56568 3.98806 2.63081 3.96286 2.69155C3.93765 2.7523 3.90071 2.80747 3.85414 2.85392L2.35414 4.35392C2.3077 4.40048 2.25252 4.43742 2.19178 4.46263C2.13103 4.48784 2.06591 4.50081 2.00014 4.50081C1.93438 4.50081 1.86925 4.48784 1.80851 4.46263C1.74776 4.43742 1.69259 4.40048 1.64614 4.35392L1.14614 3.85392C1.09966 3.80743 1.06278 3.75224 1.03762 3.6915C1.01246 3.63076 0.999512 3.56566 0.999512 3.49992C0.999512 3.43417 1.01246 3.36907 1.03762 3.30833C1.06278 3.24759 1.09966 3.19241 1.14614 3.14592C1.19263 3.09943 1.24782 3.06255 1.30856 3.03739C1.3693 3.01223 1.4344 2.99929 1.50014 2.99929C1.56589 2.99929 1.63099 3.01223 1.69173 3.03739C1.75247 3.06255 1.80766 3.09943 1.85414 3.14592L2.00014 3.29292L3.14614 2.14592C3.19259 2.09935 3.24776 2.06241 3.30851 2.0372C3.36925 2.012 3.43438 1.99902 3.50014 1.99902C3.56591 1.99902 3.63103 2.012 3.69178 2.0372C3.75252 2.06241 3.8077 2.09935 3.85414 2.14592ZM3.85414 6.14592C3.90071 6.19236 3.93765 6.24754 3.96286 6.30828C3.98806 6.36903 4.00104 6.43415 4.00104 6.49992C4.00104 6.56568 3.98806 6.63081 3.96286 6.69155C3.93765 6.7523 3.90071 6.80747 3.85414 6.85392L2.35414 8.35392C2.3077 8.40048 2.25252 8.43742 2.19178 8.46263C2.13103 8.48784 2.06591 8.50081 2.00014 8.50081C1.93438 8.50081 1.86925 8.48784 1.80851 8.46263C1.74776 8.43742 1.69259 8.40048 1.64614 8.35392L1.14614 7.85392C1.05226 7.76003 0.999512 7.63269 0.999512 7.49992C0.999512 7.36714 1.05226 7.2398 1.14614 7.14592C1.24003 7.05203 1.36737 6.99929 1.50014 6.99929C1.63292 6.99929 1.76026 7.05203 1.85414 7.14592L2.00014 7.29292L3.14614 6.14592C3.19259 6.09935 3.24776 6.06241 3.30851 6.0372C3.36925 6.012 3.43438 5.99902 3.50014 5.99902C3.56591 5.99902 3.63103 6.012 3.69178 6.0372C3.75252 6.06241 3.8077 6.09935 3.85414 6.14592ZM3.85414 10.1459C3.90071 10.1924 3.93765 10.2475 3.96286 10.3083C3.98806 10.369 4.00104 10.4341 4.00104 10.4999C4.00104 10.5657 3.98806 10.6308 3.96286 10.6916C3.93765 10.7523 3.90071 10.8075 3.85414 10.8539L2.35414 12.3539C2.3077 12.4005 2.25252 12.4374 2.19178 12.4626C2.13103 12.4878 2.06591 12.5008 2.00014 12.5008C1.93438 12.5008 1.86925 12.4878 1.80851 12.4626C1.74776 12.4374 1.69259 12.4005 1.64614 12.3539L1.14614 11.8539C1.05226 11.76 0.999512 11.6327 0.999512 11.4999C0.999512 11.3671 1.05226 11.2398 1.14614 11.1459C1.24003 11.052 1.36737 10.9993 1.50014 10.9993C1.63292 10.9993 1.76026 11.052 1.85414 11.1459L2.00014 11.2929L3.14614 10.1459C3.19259 10.0994 3.24776 10.0624 3.30851 10.0372C3.36925 10.012 3.43438 9.99902 3.50014 9.99902C3.56591 9.99902 3.63103 10.012 3.69178 10.0372C3.75252 10.0624 3.8077 10.0994 3.85414 10.1459Z"/> </svg>