<svg width="16" height="16" viewBox="0 0 16 16" xmlns="http://www.w3.org/2000/svg"> <g clip-path="url(#clip0_34_4686)"> <path d="M9.4999 2.67202C9.4999 2.80463 9.55258 2.9318 9.64635 3.02557C9.74012 3.11934 9.8673 3.17202 9.9999 3.17202C10.1325 3.17202 10.2597 3.11934 10.3535 3.02557C10.4472 2.9318 10.4999 2.80463 10.4999 2.67202V0.843018C10.4999 0.710409 10.4472 0.583232 10.3535 0.489464C10.2597 0.395696 10.1325 0.343018 9.9999 0.343018C9.8673 0.343018 9.74012 0.395696 9.64635 0.489464C9.55258 0.583232 9.4999 0.710409 9.4999 0.843018V2.67202ZM13.9999 2.70702C14.091 2.61272 14.1414 2.48642 14.1402 2.35532C14.1391 2.22422 14.0865 2.09881 13.9938 2.00611C13.9011 1.9134 13.7757 1.86082 13.6446 1.85968C13.5135 1.85854 13.3872 1.90894 13.2929 2.00002L11.9999 3.29302C11.9521 3.33914 11.9141 3.39431 11.8879 3.45532C11.8616 3.51632 11.8479 3.58193 11.8473 3.64832C11.8467 3.71471 11.8594 3.78055 11.8845 3.84199C11.9096 3.90344 11.9468 3.95927 11.9937 4.00622C12.0407 4.05316 12.0965 4.09029 12.1579 4.11543C12.2194 4.14057 12.2852 4.15322 12.3516 4.15264C12.418 4.15207 12.4836 4.13827 12.5446 4.11207C12.6056 4.08586 12.6608 4.04777 12.7069 4.00002L13.9999 2.70702ZM7.29291 4.00002C7.33903 4.04777 7.3942 4.08586 7.4552 4.11207C7.5162 4.13827 7.58181 4.15207 7.6482 4.15264C7.71459 4.15322 7.78043 4.14057 7.84188 4.11543C7.90333 4.09029 7.95916 4.05316 8.0061 4.00622C8.05305 3.95927 8.09018 3.90344 8.11532 3.84199C8.14046 3.78055 8.15311 3.71471 8.15253 3.64832C8.15195 3.58193 8.13816 3.51632 8.11196 3.45532C8.08575 3.39431 8.04766 3.33914 7.99991 3.29302L6.7069 2.00002C6.6126 1.90894 6.4863 1.85854 6.3552 1.85968C6.22411 1.86082 6.0987 1.9134 6.006 2.00611C5.91329 2.09881 5.86071 2.22422 5.85957 2.35532C5.85843 2.48642 5.90883 2.61272 5.99991 2.70702L7.29291 4.00002ZM6.67191 6.50002C6.80451 6.50002 6.93169 6.44734 7.02546 6.35357C7.11923 6.2598 7.17191 6.13263 7.17191 6.00002C7.17191 5.86741 7.11923 5.74023 7.02546 5.64646C6.93169 5.5527 6.80451 5.50002 6.67191 5.50002H4.84291C4.7103 5.50002 4.58312 5.5527 4.48935 5.64646C4.39558 5.74023 4.3429 5.86741 4.3429 6.00002C4.3429 6.13263 4.39558 6.2598 4.48935 6.35357C4.58312 6.44734 4.7103 6.50002 4.84291 6.50002H6.67191ZM15.1569 6.50002C15.2895 6.50002 15.4167 6.44734 15.5105 6.35357C15.6042 6.2598 15.6569 6.13263 15.6569 6.00002C15.6569 5.86741 15.6042 5.74023 15.5105 5.64646C15.4167 5.5527 15.2895 5.50002 15.1569 5.50002H13.3279C13.1953 5.50002 13.0681 5.5527 12.9744 5.64646C12.8806 5.74023 12.8279 5.86741 12.8279 6.00002C12.8279 6.13263 12.8806 6.2598 12.9744 6.35357C13.0681 6.44734 13.1953 6.50002 13.3279 6.50002H15.1569ZM13.2929 10C13.339 10.0478 13.3942 10.0859 13.4552 10.1121C13.5162 10.1383 13.5818 10.1521 13.6482 10.1526C13.7146 10.1532 13.7804 10.1406 13.8419 10.1154C13.9033 10.0903 13.9592 10.0532 14.0061 10.0062C14.053 9.95927 14.0902 9.90344 14.1153 9.84199C14.1405 9.78055 14.1531 9.71471 14.1525 9.64832C14.152 9.58193 14.1382 9.51632 14.112 9.45531C14.0858 9.39431 14.0477 9.33914 13.9999 9.29302L12.7069 8.00002C12.6608 7.95226 12.6056 7.91417 12.5446 7.88797C12.4836 7.86176 12.418 7.84797 12.3516 7.84739C12.2852 7.84682 12.2194 7.85947 12.1579 7.88461C12.0965 7.90975 12.0407 7.94687 11.9937 7.99382C11.9468 8.04077 11.9096 8.09659 11.8845 8.15804C11.8594 8.21949 11.8467 8.28533 11.8473 8.35172C11.8479 8.41811 11.8616 8.48372 11.8879 8.54472C11.9141 8.60572 11.9521 8.66089 11.9999 8.70702L13.2929 10ZM9.4999 11.157C9.4999 11.2896 9.55258 11.4168 9.64635 11.5106C9.74012 11.6043 9.8673 11.657 9.9999 11.657C10.1325 11.657 10.2597 11.6043 10.3535 11.5106C10.4472 11.4168 10.4999 11.2896 10.4999 11.157V9.32802C10.4999 9.19541 10.4472 9.06823 10.3535 8.97446C10.2597 8.8807 10.1325 8.82802 9.9999 8.82802C9.8673 8.82802 9.74012 8.8807 9.64635 8.97446C9.55258 9.06823 9.4999 9.19541 9.4999 9.32802V11.157ZM11.3539 6.06002C11.4473 5.96629 11.4998 5.83935 11.4998 5.70702C11.4998 5.57468 11.4473 5.44774 11.3539 5.35402L10.6459 4.64602C10.5521 4.55228 10.425 4.49962 10.2924 4.49962C10.1598 4.49962 10.0327 4.55228 9.9389 4.64602L8.6459 5.94002C8.55217 6.03378 8.49951 6.16094 8.49951 6.29352C8.49951 6.4261 8.55217 6.55325 8.6459 6.64702L9.3539 7.35502C9.44767 7.44875 9.57482 7.50141 9.70741 7.50141C9.83999 7.50141 9.96714 7.44875 10.0609 7.35502L11.3539 6.06202V6.06002ZM8.35391 9.06002C8.44734 8.96629 8.4998 8.83935 8.4998 8.70702C8.4998 8.57468 8.44734 8.44774 8.35391 8.35402L7.64591 7.64602C7.55214 7.55228 7.42499 7.49962 7.29241 7.49962C7.15982 7.49962 7.03267 7.55228 6.93891 7.64602L0.645905 13.94C0.552169 14.0338 0.499512 14.1609 0.499512 14.2935C0.499512 14.4261 0.552169 14.5533 0.645905 14.647L1.3539 15.355C1.44767 15.4488 1.57482 15.5014 1.7074 15.5014C1.83999 15.5014 1.96714 15.4488 2.06091 15.355L8.35391 9.06002Z"/> </g> <defs> <clipPath id="clip0_34_4686"> <rect width="16" height="16"/> </clipPath> </defs> </svg>