<svg width="16" height="16" viewBox="0 0 16 16" xmlns="http://www.w3.org/2000/svg"> <g clip-path="url(#clip0_34_4690)"> <path d="M15 12H11V15H15V12ZM5 12H1V15H5V12ZM0 8C0 5.87827 0.842855 3.84344 2.34315 2.34315C3.84344 0.842855 5.87827 0 8 0C10.1217 0 12.1566 0.842855 13.6569 2.34315C15.1571 3.84344 16 5.87827 16 8V16H10V8C10 7.46957 9.78929 6.96086 9.41421 6.58579C9.03914 6.21071 8.53043 6 8 6C7.46957 6 6.96086 6.21071 6.58579 6.58579C6.21071 6.96086 6 7.46957 6 8V16H0V8Z"/> </g> <defs> <clipPath id="clip0_34_4690"> <rect width="16" height="16"/> </clipPath> </defs> </svg>