<svg width="16" height="16" viewBox="0 0 16 16" xmlns="http://www.w3.org/2000/svg"> <g clip-path="url(#clip0_34_4696)"> <path fill-rule="evenodd" clip-rule="evenodd" d="M15.817 0.113067C15.8743 0.160003 15.9204 0.219066 15.952 0.285992C15.9837 0.352918 16 0.426036 16 0.500067V14.5001C15.9999 14.6156 15.9598 14.7276 15.8866 14.8169C15.8133 14.9062 15.7113 14.9674 15.598 14.9901L10.598 15.9901C10.5333 16.0029 10.4667 16.0029 10.402 15.9901L5.5 15.0101L0.598 15.9901C0.525489 16.0046 0.450665 16.0028 0.378921 15.9849C0.307176 15.967 0.240296 15.9334 0.183099 15.8865C0.125903 15.8396 0.0798134 15.7807 0.0481518 15.7139C0.0164902 15.647 4.46527e-05 15.574 0 15.5001L0 1.50007C6.9782e-05 1.38452 0.0401561 1.27257 0.113443 1.18324C0.186731 1.0939 0.288695 1.03271 0.402 1.01007L5.402 0.0100672C5.46669 -0.00286349 5.53331 -0.00286349 5.598 0.0100672L10.5 0.990067L15.402 0.0100672C15.4745 -0.00451694 15.5493 -0.00284342 15.6211 0.0149672C15.6928 0.0327779 15.7597 0.0662824 15.817 0.113067ZM10 1.91007L6 1.11007V14.0901L10 14.8901V1.91007ZM11 14.8901L15 14.0901V1.11007L11 1.91007V14.8901ZM5 14.0901V1.11007L1 1.91007V14.8901L5 14.0901Z"/> </g> <defs> <clipPath id="clip0_34_4696"> <rect width="16" height="16"/> </clipPath> </defs> </svg>