<svg width="16" height="16" viewBox="0 0 16 16" fill="none" xmlns="http://www.w3.org/2000/svg">
<path d="M14 3C14.2652 3 14.5196 3.10536 14.7071 3.29289C14.8946 3.48043 15 3.73478 15 4V12C15 12.2652 14.8946 12.5196 14.7071 12.7071C14.5196 12.8946 14.2652 13 14 13H2C1.73478 13 1.48043 12.8946 1.29289 12.7071C1.10536 12.5196 1 12.2652 1 12V4C1 3.73478 1.10536 3.48043 1.29289 3.29289C1.48043 3.10536 1.73478 3 2 3H14ZM2 2C1.46957 2 0.960859 2.21071 0.585786 2.58579C0.210714 2.96086 0 3.46957 0 4V12C0 12.5304 0.210714 13.0391 0.585786 13.4142C0.960859 13.7893 1.46957 14 2 14H14C14.5304 14 15.0391 13.7893 15.4142 13.4142C15.7893 13.0391 16 12.5304 16 12V4C16 3.46957 15.7893 2.96086 15.4142 2.58579C15.0391 2.21071 14.5304 2 14 2H2Z" fill="#212529"/>
<path fill-rule="evenodd" clip-rule="evenodd" d="M9.146 8.146C9.19245 8.09944 9.24762 8.06249 9.30837 8.03729C9.36911 8.01208 9.43423 7.99911 9.5 7.99911C9.56577 7.99911 9.63089 8.01208 9.69163 8.03729C9.75238 8.06249 9.80755 8.09944 9.854 8.146L11.5 9.793L13.146 8.146C13.1925 8.09951 13.2477 8.06264 13.3084 8.03748C13.3692 8.01232 13.4343 7.99937 13.5 7.99937C13.5657 7.99937 13.6308 8.01232 13.6916 8.03748C13.7523 8.06264 13.8075 8.09951 13.854 8.146C13.9005 8.19249 13.9374 8.24768 13.9625 8.30842C13.9877 8.36916 14.0006 8.43426 14.0006 8.5C14.0006 8.56574 13.9877 8.63084 13.9625 8.69158C13.9374 8.75232 13.9005 8.80751 13.854 8.854L11.854 10.854C11.8076 10.9006 11.7524 10.9375 11.6916 10.9627C11.6309 10.9879 11.5658 11.0009 11.5 11.0009C11.4342 11.0009 11.3691 10.9879 11.3084 10.9627C11.2476 10.9375 11.1924 10.9006 11.146 10.854L9.146 8.854C9.09944 8.80755 9.06249 8.75238 9.03729 8.69163C9.01208 8.63089 8.99911 8.56577 8.99911 8.5C8.99911 8.43423 9.01208 8.36911 9.03729 8.30837C9.06249 8.24762 9.09944 8.19245 9.146 8.146Z" fill="#212529"/>
<path fill-rule="evenodd" clip-rule="evenodd" d="M11.5 5C11.6326 5 11.7598 5.05268 11.8536 5.14645C11.9473 5.24021 12 5.36739 12 5.5V9.5C12 9.63261 11.9473 9.75979 11.8536 9.85355C11.7598 9.94732 11.6326 10 11.5 10C11.3674 10 11.2402 9.94732 11.1464 9.85355C11.0527 9.75979 11 9.63261 11 9.5V5.5C11 5.36739 11.0527 5.24021 11.1464 5.14645C11.2402 5.05268 11.3674 5 11.5 5Z" fill="#212529"/>
<path d="M3.56 11V7.01H3.616L5.044 10.249H5.818L7.238 7.009H7.294V11H8.367V5.001H7.167L5.457 8.895H5.418L3.708 5.001H2.5V11H3.56Z" fill="#212529"/>
</svg>
