<svg width="16" height="16" viewBox="0 0 16 16" xmlns="http://www.w3.org/2000/svg"> <g clip-path="url(#clip0_34_4704)"> <path d="M6.22489 1.22698C7.5047 1.83653 8.58556 2.7963 9.34219 3.99505C10.0988 5.19379 10.5002 6.58242 10.4999 7.99998C10.5002 9.41754 10.0988 10.8062 9.34219 12.0049C8.58556 13.2037 7.5047 14.1634 6.22489 14.773C7.2601 15.0432 8.34349 15.0726 9.39182 14.8588C10.4402 14.645 11.4255 14.1938 12.2722 13.5397C13.119 12.8857 13.8045 12.0462 14.2762 11.0859C14.7478 10.1256 14.9931 9.06989 14.9931 7.99998C14.9931 6.93007 14.7478 5.8744 14.2762 4.91406C13.8045 3.95373 13.119 3.11429 12.2722 2.46025C11.4255 1.8062 10.4402 1.35494 9.39182 1.14115C8.34349 0.927362 7.2601 0.956722 6.22489 1.22698ZM4.18689 0.965979C6.05255 -0.0454241 8.24358 -0.27427 10.278 0.329785C12.3124 0.933839 14.0235 2.32131 15.0349 4.18698C16.0463 6.05264 16.2751 8.24368 15.6711 10.2781C15.067 12.3125 13.6796 14.0236 11.8139 15.035C9.94796 16.0465 7.75662 16.2754 5.72194 15.6712C3.68727 15.0671 1.97592 13.6794 0.964387 11.8135C-0.0471482 9.94755 -0.276016 7.75621 0.328132 5.72153C0.932281 3.68686 2.31996 1.97551 4.18589 0.963979L4.18689 0.965979Z"/> </g> <defs> <clipPath id="clip0_34_4704"> <rect width="16" height="16"/> </clipPath> </defs> </svg>