<svg width="16" height="16" viewBox="0 0 16 16" xmlns="http://www.w3.org/2000/svg"> <path d="M1 3C0.734784 3 0.48043 3.10536 0.292893 3.29289C0.105357 3.48043 0 3.73478 0 4L0 12C0 12.2652 0.105357 12.5196 0.292893 12.7071C0.48043 12.8946 0.734784 13 1 13H5.586C5.85119 12.9999 6.10551 12.8945 6.293 12.707L6.646 12.354C6.69245 12.3074 6.74762 12.2705 6.80837 12.2453C6.86911 12.2201 6.93423 12.2071 7 12.2071C7.06577 12.2071 7.13089 12.2201 7.19163 12.2453C7.25238 12.2705 7.30755 12.3074 7.354 12.354L7.707 12.707C7.89449 12.8945 8.1488 12.9999 8.414 13H15C15.2652 13 15.5196 12.8946 15.7071 12.7071C15.8946 12.5196 16 12.2652 16 12V4C16 3.73478 15.8946 3.48043 15.7071 3.29289C15.5196 3.10536 15.2652 3 15 3H1ZM1.5 4H4.5C4.63261 4 4.75979 4.05268 4.85355 4.14645C4.94732 4.24021 5 4.36739 5 4.5V8.5C5 8.63261 4.94732 8.75979 4.85355 8.85355C4.75979 8.94732 4.63261 9 4.5 9H1.5C1.36739 9 1.24021 8.94732 1.14645 8.85355C1.05268 8.75979 1 8.63261 1 8.5V4.5C1 4.36739 1.05268 4.24021 1.14645 4.14645C1.24021 4.05268 1.36739 4 1.5 4ZM6.5 4H9.5C9.63261 4 9.75979 4.05268 9.85355 4.14645C9.94732 4.24021 10 4.36739 10 4.5V8.5C10 8.63261 9.94732 8.75979 9.85355 8.85355C9.75979 8.94732 9.63261 9 9.5 9H6.5C6.36739 9 6.24021 8.94732 6.14645 8.85355C6.05268 8.75979 6 8.63261 6 8.5V4.5C6 4.36739 6.05268 4.24021 6.14645 4.14645C6.24021 4.05268 6.36739 4 6.5 4ZM11 4.5C11 4.36739 11.0527 4.24021 11.1464 4.14645C11.2402 4.05268 11.3674 4 11.5 4H14.5C14.6326 4 14.7598 4.05268 14.8536 4.14645C14.9473 4.24021 15 4.36739 15 4.5V8.5C15 8.63261 14.9473 8.75979 14.8536 8.85355C14.7598 8.94732 14.6326 9 14.5 9H11.5C11.3674 9 11.2402 8.94732 11.1464 8.85355C11.0527 8.75979 11 8.63261 11 8.5V4.5ZM2 10V12H1V10H2ZM4 10V12H3V10H4ZM6 10V12H5V10H6ZM9 10V12H8V10H9ZM11 10V12H10V10H11ZM13 10V12H12V10H13ZM15 10V12H14V10H15Z"/> </svg>