<svg width="16" height="16" viewBox="0 0 16 16" xmlns="http://www.w3.org/2000/svg"> <g clip-path="url(#clip0_34_4734)"> <path fill-rule="evenodd" clip-rule="evenodd" d="M8.217 5.243C9.145 3.988 10.171 3 11.483 3C13.96 3 16 6.153 16.001 9.907C16.001 12.197 15.015 13.632 13.244 13.632C11.701 13.632 10.849 12.766 9.32 10.208L8.653 9.085L8.535 8.888C8.36106 8.59403 8.18439 8.30168 8.005 8.011L6.827 10.091C5.154 13.016 4.212 13.632 2.904 13.632C1.086 13.632 0 12.217 0 9.973C0 6.388 1.995 3 4.598 3C4.917 3 5.223 3.039 5.522 3.122C5.832 3.208 6.133 3.342 6.435 3.529C7.012 3.888 7.589 4.444 8.217 5.243ZM9.733 7.467C9.481 7.057 9.239 6.68 9.006 6.334L9 6.326C9.845 5.021 10.543 4.372 11.372 4.372C13.095 4.372 14.474 6.909 14.474 10.025C14.474 11.213 14.084 11.902 13.279 11.902C12.506 11.902 12.137 11.392 10.669 9.032L9.732 7.467H9.733ZM4.846 4.756C5.571 4.856 6.231 5.39 7.186 6.757C6.63497 7.60077 6.08995 8.44846 5.551 9.3C4.194 11.426 3.725 11.903 2.97 11.903C2.193 11.903 1.73 11.221 1.73 10.003C1.73 7.401 3.028 4.739 4.576 4.739C4.667 4.739 4.757 4.745 4.846 4.757V4.756Z"/> </g> <defs> <clipPath id="clip0_34_4734"> <rect width="16" height="16"/> </clipPath> </defs> </svg>