<svg width="16" height="16" viewBox="0 0 16 16" xmlns="http://www.w3.org/2000/svg"> <path d="M13 7.99989C13 8.56389 12.906 9.10689 12.734 9.61289L11.92 8.79889C11.9733 8.53589 12.0001 8.26823 12 7.99989V6.99989C12 6.86728 12.0527 6.7401 12.1464 6.64634C12.2402 6.55257 12.3674 6.49989 12.5 6.49989C12.6326 6.49989 12.7598 6.55257 12.8535 6.64634C12.9473 6.7401 13 6.86728 13 6.99989V7.99989ZM8 11.9999C8.818 11.9999 9.578 11.7549 10.212 11.3329L10.93 12.0519C10.2162 12.5696 9.3775 12.8881 8.5 12.9749V14.9999H11.5C11.6326 14.9999 11.7598 15.0526 11.8535 15.1463C11.9473 15.2401 12 15.3673 12 15.4999C12 15.6325 11.9473 15.7597 11.8535 15.8534C11.7598 15.9472 11.6326 15.9999 11.5 15.9999H4.5C4.36739 15.9999 4.24021 15.9472 4.14644 15.8534C4.05267 15.7597 4 15.6325 4 15.4999C4 15.3673 4.05267 15.2401 4.14644 15.1463C4.24021 15.0526 4.36739 14.9999 4.5 14.9999H7.5V12.9749C6.26668 12.8509 5.12337 12.2733 4.29188 11.354C3.46038 10.4348 2.99998 9.23942 3 7.99989V6.99989C3 6.86728 3.05267 6.7401 3.14644 6.64634C3.24021 6.55257 3.36739 6.49989 3.5 6.49989C3.6326 6.49989 3.75978 6.55257 3.85355 6.64634C3.94732 6.7401 4 6.86728 4 6.99989V7.99989C4 9.06076 4.42142 10.0782 5.17157 10.8283C5.92171 11.5785 6.93913 11.9999 8 11.9999ZM11 2.99989V7.87889L5.158 2.03689C5.38694 1.36413 5.8472 0.794447 6.45683 0.429257C7.06646 0.064066 7.78591 -0.072932 8.4871 0.0426518C9.18828 0.158236 9.8257 0.5189 10.2859 1.06044C10.746 1.60198 10.9991 2.28924 11 2.99989Z"/> <path d="M9.486 10.6069L5 6.11989V7.99989C4.99984 8.52521 5.13763 9.04136 5.39957 9.49671C5.66152 9.95205 6.03844 10.3306 6.49263 10.5946C6.94682 10.8585 7.46236 10.9986 7.98767 11.0008C8.51298 11.0029 9.02965 10.8671 9.486 10.6069ZM1.646 1.35389L13.646 13.3539L14.354 12.6459L2.354 0.64589L1.646 1.35389Z"/> </svg>