<svg width="16" height="16" viewBox="0 0 16 16" fill="none" xmlns="http://www.w3.org/2000/svg">
<g clip-path="url(#clip0_34_4746)">
<path d="M4.00011 15C3.73489 15 3.48054 14.8946 3.293 14.7071C3.10546 14.5196 3.00011 14.2652 3.00011 14C3.00011 13.7348 3.10546 13.4804 3.293 13.2929C3.48054 13.1054 3.73489 13 4.00011 13C4.26532 13 4.51968 13.1054 4.70721 13.2929C4.89475 13.4804 5.00011 13.7348 5.00011 14C5.00011 14.2652 4.89475 14.5196 4.70721 14.7071C4.51968 14.8946 4.26532 15 4.00011 15ZM4.00011 16C4.53054 16 5.03925 15.7893 5.41432 15.4142C5.78939 15.0391 6.00011 14.5304 6.00011 14C6.00011 13.4696 5.78939 12.9609 5.41432 12.5858C5.03925 12.2107 4.53054 12 4.00011 12C3.46967 12 2.96097 12.2107 2.58589 12.5858C2.21082 12.9609 2.00011 13.4696 2.00011 14C2.00011 14.5304 2.21082 15.0391 2.58589 15.4142C2.96097 15.7893 3.46967 16 4.00011 16ZM12.0001 15C11.7349 15 11.4805 14.8946 11.293 14.7071C11.1055 14.5196 11.0001 14.2652 11.0001 14C11.0001 13.7348 11.1055 13.4804 11.293 13.2929C11.4805 13.1054 11.7349 13 12.0001 13C12.2653 13 12.5197 13.1054 12.7072 13.2929C12.8948 13.4804 13.0001 13.7348 13.0001 14C13.0001 14.2652 12.8948 14.5196 12.7072 14.7071C12.5197 14.8946 12.2653 15 12.0001 15ZM12.0001 16C12.5305 16 13.0392 15.7893 13.4143 15.4142C13.7894 15.0391 14.0001 14.5304 14.0001 14C14.0001 13.4696 13.7894 12.9609 13.4143 12.5858C13.0392 12.2107 12.5305 12 12.0001 12C11.4697 12 10.961 12.2107 10.5859 12.5858C10.2108 12.9609 10.0001 13.4696 10.0001 14C10.0001 14.5304 10.2108 15.0391 10.5859 15.4142C10.961 15.7893 11.4697 16 12.0001 16ZM0.115107 3.18C0.162119 3.12356 0.220989 3.07817 0.287531 3.04706C0.354073 3.01595 0.426652 2.99988 0.500107 3H15.5001C15.5735 3.00007 15.646 3.0163 15.7125 3.04755C15.7789 3.0788 15.8376 3.12429 15.8845 3.1808C15.9314 3.23731 15.9652 3.30345 15.9836 3.37452C16.0021 3.44559 16.0046 3.51984 15.9911 3.592L14.4911 11.592C14.4697 11.7066 14.4089 11.8101 14.3192 11.8846C14.2295 11.9591 14.1167 11.9999 14.0001 12H2.00011C1.88354 11.9999 1.77067 11.9591 1.68102 11.8846C1.59136 11.8101 1.53056 11.7066 1.50911 11.592L0.00910741 3.592C-0.00445379 3.51991 -0.00198754 3.44572 0.0163312 3.37469C0.03465 3.30367 0.0683727 3.23754 0.115107 3.181V3.18ZM1.10211 4L2.41511 11H13.5851L14.8981 4H1.10211Z" fill="#212529"/>
</g>
<defs>
<clipPath id="clip0_34_4746">
<rect width="16" height="16" fill="white"/>
</clipPath>
</defs>
</svg>
