<svg width="16" height="16" viewBox="0 0 16 16" fill="none" xmlns="http://www.w3.org/2000/svg">
<g clip-path="url(#clip0_34_4748)">
<path d="M4.00011 15.0001C3.73489 15.0001 3.48054 14.8948 3.293 14.7072C3.10546 14.5197 3.00011 14.2653 3.00011 14.0001C3.00011 13.7349 3.10546 13.4805 3.293 13.293C3.48054 13.1055 3.73489 13.0001 4.00011 13.0001C4.26532 13.0001 4.51968 13.1055 4.70721 13.293C4.89475 13.4805 5.00011 13.7349 5.00011 14.0001C5.00011 14.2653 4.89475 14.5197 4.70721 14.7072C4.51968 14.8948 4.26532 15.0001 4.00011 15.0001ZM4.00011 16.0001C4.53054 16.0001 5.03925 15.7894 5.41432 15.4143C5.78939 15.0393 6.00011 14.5305 6.00011 14.0001C6.00011 13.4697 5.78939 12.961 5.41432 12.5859C5.03925 12.2108 4.53054 12.0001 4.00011 12.0001C3.46967 12.0001 2.96097 12.2108 2.58589 12.5859C2.21082 12.961 2.00011 13.4697 2.00011 14.0001C2.00011 14.5305 2.21082 15.0393 2.58589 15.4143C2.96097 15.7894 3.46967 16.0001 4.00011 16.0001ZM12.0001 15.0001C11.7349 15.0001 11.4805 14.8948 11.293 14.7072C11.1055 14.5197 11.0001 14.2653 11.0001 14.0001C11.0001 13.7349 11.1055 13.4805 11.293 13.293C11.4805 13.1055 11.7349 13.0001 12.0001 13.0001C12.2653 13.0001 12.5197 13.1055 12.7072 13.293C12.8948 13.4805 13.0001 13.7349 13.0001 14.0001C13.0001 14.2653 12.8948 14.5197 12.7072 14.7072C12.5197 14.8948 12.2653 15.0001 12.0001 15.0001ZM12.0001 16.0001C12.5305 16.0001 13.0392 15.7894 13.4143 15.4143C13.7894 15.0393 14.0001 14.5305 14.0001 14.0001C14.0001 13.4697 13.7894 12.961 13.4143 12.5859C13.0392 12.2108 12.5305 12.0001 12.0001 12.0001C11.4697 12.0001 10.961 12.2108 10.5859 12.5859C10.2108 12.961 10.0001 13.4697 10.0001 14.0001C10.0001 14.5305 10.2108 15.0393 10.5859 15.4143C10.961 15.7894 11.4697 16.0001 12.0001 16.0001ZM0.115107 3.18011C0.162119 3.12367 0.220989 3.07828 0.287531 3.04717C0.354073 3.01606 0.426652 3 0.500107 3.00011H15.5001C15.5735 3.00018 15.646 3.01642 15.7125 3.04767C15.7789 3.07891 15.8376 3.12441 15.8845 3.18092C15.9314 3.23743 15.9652 3.30357 15.9836 3.37463C16.0021 3.4457 16.0046 3.51995 15.9911 3.59211L14.4911 11.5921C14.4697 11.7067 14.4089 11.8102 14.3192 11.8847C14.2295 11.9592 14.1167 12 14.0001 12.0001H2.00011C1.88354 12 1.77067 11.9592 1.68102 11.8847C1.59136 11.8102 1.53056 11.7067 1.50911 11.5921L0.00910741 3.59211C-0.00445379 3.52003 -0.00198754 3.44584 0.0163312 3.37481C0.03465 3.30378 0.0683727 3.23665 0.115107 3.18011ZM1.10211 4.00011L2.41511 11.0001H13.5851L14.8981 4.00011H1.10211Z" fill="#212529"/>
<path fill-rule="evenodd" clip-rule="evenodd" d="M6.00011 1.00012C6.23273 0.689264 6.5346 0.436915 6.88177 0.263097C7.22895 0.0892797 7.61185 -0.0012207 8.00011 -0.0012207C8.38836 -0.0012207 8.77127 0.0892797 9.11844 0.263097C9.46561 0.436915 9.76749 0.689264 10.0001 1.00012C10.8181 1.00012 11.5451 1.39411 12.0001 2.00011C12.6701 2.00011 13.5521 2.57011 14.0001 3.00011H12.0001C11.6861 3.00011 11.3891 2.85011 11.2001 2.60011C10.9261 2.23511 10.4901 2.00011 10.0001 2.00011C9.68611 2.00011 9.38911 1.85012 9.20011 1.60012C9.06076 1.41328 8.87971 1.26156 8.67138 1.15705C8.46305 1.05253 8.23319 0.998106 8.00011 0.998106C7.76703 0.998106 7.53717 1.05253 7.32884 1.15705C7.1205 1.26156 6.93946 1.41328 6.80011 1.60012C6.61111 1.85012 6.31411 2.00011 6.00011 2.00011C5.49311 2.00011 5.04511 2.25111 4.77211 2.63811C4.68211 2.76812 4.57811 2.88811 4.46411 3.00011H3.00011C3.13011 2.85311 3.40111 2.56811 3.56211 2.45511C3.71464 2.34758 3.84757 2.21465 3.95511 2.06211C4.18568 1.73392 4.49188 1.46608 4.84784 1.28123C5.20379 1.09637 5.59902 0.999953 6.00011 1.00012Z" fill="#212529"/>
</g>
<defs>
<clipPath id="clip0_34_4748">
<rect width="16" height="16" fill="white"/>
</clipPath>
</defs>
</svg>
