<svg width="16" height="16" viewBox="0 0 16 16" xmlns="http://www.w3.org/2000/svg"> <path d="M8.35349 2.85355C8.44726 2.75979 8.49994 2.63261 8.49994 2.5C8.49994 2.36739 8.44726 2.24021 8.35349 2.14645C8.25972 2.05268 8.13255 2 7.99994 2C7.86733 2 7.74015 2.05268 7.64639 2.14645C7.55262 2.24021 7.49994 2.36739 7.49994 2.5C7.49994 2.63261 7.55262 2.75979 7.64639 2.85355C7.74015 2.94732 7.86733 3 7.99994 3C8.13255 3 8.25972 2.94732 8.35349 2.85355Z"/> <path d="M8.35349 4.85355C8.44726 4.75979 8.49994 4.63261 8.49994 4.5C8.49994 4.36739 8.44726 4.24021 8.35349 4.14645C8.25972 4.05268 8.13255 4 7.99994 4C7.86733 4 7.74015 4.05268 7.64639 4.14645C7.55262 4.24021 7.49994 4.36739 7.49994 4.5C7.49994 4.63261 7.55262 4.75979 7.64639 4.85355C7.74015 4.94732 7.86733 5 7.99994 5C8.13255 5 8.25972 4.94732 8.35349 4.85355Z"/> <path d="M8.35349 6.85355C8.44726 6.75979 8.49994 6.63261 8.49994 6.5C8.49994 6.36739 8.44726 6.24021 8.35349 6.14645C8.25972 6.05268 8.13255 6 7.99994 6C7.86733 6 7.74015 6.05268 7.64639 6.14645C7.55262 6.24021 7.49994 6.36739 7.49994 6.5C7.49994 6.63261 7.55262 6.75979 7.64639 6.85355C7.74015 6.94732 7.86733 7 7.99994 7C8.13255 7 8.25972 6.94732 8.35349 6.85355Z"/> <path d="M8.35349 8.85355C8.44726 8.75979 8.49994 8.63261 8.49994 8.5C8.49994 8.36739 8.44726 8.24021 8.35349 8.14645C8.25972 8.05268 8.13255 8 7.99994 8C7.86733 8 7.74015 8.05268 7.64639 8.14645C7.55262 8.24021 7.49994 8.36739 7.49994 8.5C7.49994 8.63261 7.55262 8.75979 7.64639 8.85355C7.74015 8.94732 7.86733 9 7.99994 9C8.13255 9 8.25972 8.94732 8.35349 8.85355Z"/> <path fill-rule="evenodd" clip-rule="evenodd" d="M5.93931 0.43934C5.658 0.720644 5.49997 1.10218 5.49997 1.5V12.5C5.49995 12.8812 5.64508 13.2481 5.90587 13.5262C6.16665 13.8043 6.52353 13.9726 6.90397 13.997C6.55297 14.303 6.03197 14.675 5.27597 15.053C5.17531 15.1034 5.09463 15.1864 5.04698 15.2884C4.99933 15.3904 4.98751 15.5055 5.01343 15.6151C5.03934 15.7247 5.10148 15.8223 5.18978 15.8921C5.27808 15.962 5.38738 16 5.49997 16H10.5C10.6126 16 10.7219 15.962 10.8102 15.8921C10.8985 15.8223 10.9606 15.7247 10.9865 15.6151C11.0124 15.5055 11.0006 15.3904 10.953 15.2884C10.9053 15.1864 10.8246 15.1034 10.724 15.053C9.96797 14.675 9.44597 14.302 9.09597 13.997C9.4764 13.9726 9.83328 13.8043 10.0941 13.5262C10.3549 13.2481 10.5 12.8812 10.5 12.5V1.5C10.5 1.10218 10.3419 0.720644 10.0606 0.43934C9.77932 0.158035 9.39779 0 8.99997 0H6.99997C6.60214 0 6.22061 0.158035 5.93931 0.43934ZM6.64641 1.14645C6.74018 1.05268 6.86736 1 6.99997 1H8.99997C9.13258 1 9.25975 1.05268 9.35352 1.14645C9.44729 1.24021 9.49997 1.36739 9.49997 1.5V12.5C9.49997 12.6326 9.44729 12.7598 9.35352 12.8536C9.25975 12.9473 9.13258 13 8.99997 13H6.99997C6.86736 13 6.74018 12.9473 6.64641 12.8536C6.55265 12.7598 6.49997 12.6326 6.49997 12.5V1.5C6.49997 1.36739 6.55265 1.24021 6.64641 1.14645Z"/> </svg>