<svg width="16" height="16" viewBox="0 0 16 16" xmlns="http://www.w3.org/2000/svg"> <path d="M6.99997 0C6.60214 0 6.22061 0.158035 5.93931 0.43934C5.658 0.720644 5.49997 1.10218 5.49997 1.5V12.5C5.49995 12.8812 5.64508 13.2481 5.90587 13.5262C6.16665 13.8043 6.52353 13.9726 6.90397 13.997C6.55397 14.302 6.03197 14.675 5.27597 15.053C5.17531 15.1034 5.09463 15.1864 5.04698 15.2884C4.99933 15.3904 4.98751 15.5055 5.01343 15.6151C5.03934 15.7247 5.10148 15.8223 5.18978 15.8921C5.27808 15.962 5.38738 16 5.49997 16H10.5C10.6126 16 10.7219 15.962 10.8102 15.8921C10.8985 15.8223 10.9606 15.7247 10.9865 15.6151C11.0124 15.5055 11.0006 15.3904 10.953 15.2884C10.9053 15.1864 10.8246 15.1034 10.724 15.053C9.96797 14.675 9.44597 14.303 9.09597 13.997C9.4764 13.9726 9.83328 13.8043 10.0941 13.5262C10.3549 13.2481 10.5 12.8812 10.5 12.5V1.5C10.5 1.10218 10.3419 0.720644 10.0606 0.43934C9.77932 0.158035 9.39779 0 8.99997 0L6.99997 0ZM7.99997 3C7.86736 3 7.74018 2.94732 7.64641 2.85355C7.55265 2.75979 7.49997 2.63261 7.49997 2.5C7.49997 2.36739 7.55265 2.24021 7.64641 2.14645C7.74018 2.05268 7.86736 2 7.99997 2C8.13258 2 8.25975 2.05268 8.35352 2.14645C8.44729 2.24021 8.49997 2.36739 8.49997 2.5C8.49997 2.63261 8.44729 2.75979 8.35352 2.85355C8.25975 2.94732 8.13258 3 7.99997 3ZM7.99997 5C7.86736 5 7.74018 4.94732 7.64641 4.85355C7.55265 4.75979 7.49997 4.63261 7.49997 4.5C7.49997 4.36739 7.55265 4.24021 7.64641 4.14645C7.74018 4.05268 7.86736 4 7.99997 4C8.13258 4 8.25975 4.05268 8.35352 4.14645C8.44729 4.24021 8.49997 4.36739 8.49997 4.5C8.49997 4.63261 8.44729 4.75979 8.35352 4.85355C8.25975 4.94732 8.13258 5 7.99997 5ZM8.49997 6.5C8.49997 6.63261 8.44729 6.75979 8.35352 6.85355C8.25975 6.94732 8.13258 7 7.99997 7C7.86736 7 7.74018 6.94732 7.64641 6.85355C7.55265 6.75979 7.49997 6.63261 7.49997 6.5C7.49997 6.36739 7.55265 6.24021 7.64641 6.14645C7.74018 6.05268 7.86736 6 7.99997 6C8.13258 6 8.25975 6.05268 8.35352 6.14645C8.44729 6.24021 8.49997 6.36739 8.49997 6.5ZM7.99997 9C7.86736 9 7.74018 8.94732 7.64641 8.85355C7.55265 8.75979 7.49997 8.63261 7.49997 8.5C7.49997 8.36739 7.55265 8.24021 7.64641 8.14645C7.74018 8.05268 7.86736 8 7.99997 8C8.13258 8 8.25975 8.05268 8.35352 8.14645C8.44729 8.24021 8.49997 8.36739 8.49997 8.5C8.49997 8.63261 8.44729 8.75979 8.35352 8.85355C8.25975 8.94732 8.13258 9 7.99997 9Z"/> </svg>