<svg width="16" height="16" viewBox="0 0 16 16" fill="none" xmlns="http://www.w3.org/2000/svg">
<g clip-path="url(#clip0_34_4764)">
<path fill-rule="evenodd" clip-rule="evenodd" d="M8.00001 2C8.07291 2 8.14492 2.01594 8.21101 2.0467L15.711 5.5467C15.7993 5.58792 15.8737 5.65406 15.9249 5.73698C15.9761 5.81989 16.002 5.91598 15.9993 6.0134C15.9967 6.11083 15.9656 6.20536 15.9099 6.28536C15.8543 6.36536 15.7764 6.42735 15.686 6.4637L15 6.7387V12.9997C15.2652 12.9997 15.5196 13.1051 15.7071 13.2926C15.8947 13.4801 16 13.7345 16 13.9997V15.9997H13V13.9997C13 13.7345 13.1054 13.4801 13.2929 13.2926C13.4804 13.1051 13.7348 12.9997 14 12.9997V7.1397L8.18601 9.4637C8.06663 9.51155 7.9334 9.51155 7.81401 9.4637L0.314011 6.4637C0.223578 6.42735 0.145741 6.36536 0.0900724 6.28536C0.0344035 6.20536 0.00333023 6.11083 0.000674054 6.0134C-0.00198212 5.91598 0.0238946 5.81989 0.0751219 5.73698C0.126349 5.65406 0.200693 5.58792 0.289011 5.5467L7.78901 2.0467C7.8551 2.01594 7.92711 2 8.00001 2ZM1.75801 5.9647L8.00001 8.4597L14.242 5.9647L8.00001 3.0517L1.75801 5.9647Z" fill="#212529"/>
<path fill-rule="evenodd" clip-rule="evenodd" d="M3.9742 9.00029C4.04291 8.99677 4.1116 9.00748 4.17599 9.03173L7.99999 10.4657L11.824 9.03173C11.8884 9.00748 11.9571 8.99677 12.0258 9.00029C12.0945 9.0038 12.1617 9.02145 12.2233 9.05215C12.2849 9.08284 12.3395 9.12591 12.3836 9.17867C12.4278 9.23142 12.4606 9.29272 12.48 9.35873L12.98 11.0587C13.015 11.1781 13.0043 11.3062 12.9499 11.4181C12.8956 11.5299 12.8015 11.6175 12.686 11.6637L8.18599 13.4637C8.0666 13.5116 7.93337 13.5116 7.81399 13.4637L3.31399 11.6637C3.19851 11.6175 3.10441 11.5299 3.05004 11.4181C2.99568 11.3062 2.98497 11.1781 3.01999 11.0587L3.51999 9.35873C3.53938 9.29272 3.57218 9.23142 3.61634 9.17867C3.66051 9.12591 3.71509 9.08284 3.77666 9.05215C3.83824 9.02145 3.90548 9.0038 3.9742 9.00029ZM4.10825 10.9038L7.99999 12.4597L11.892 10.9047L11.672 10.1567L8.17599 11.4677C8.06253 11.5104 7.93744 11.5104 7.82399 11.4677L4.32799 10.1567L4.10825 10.9038Z" fill="#212529"/>
</g>
<defs>
<clipPath id="clip0_34_4764">
<rect width="16" height="16" fill="white"/>
</clipPath>
</defs>
</svg>
