<svg width="16" height="16" viewBox="0 0 16 16" fill="none" xmlns="http://www.w3.org/2000/svg">
<g clip-path="url(#clip0_34_4780)">
<path d="M8.5 0.0690705C8.00143 0.0215787 7.50083 -0.00144888 7 7.05397e-05C6.407 7.05397e-05 5.896 0.157071 5.473 0.463071C5.055 0.765071 4.756 1.18907 4.543 1.67107C4.157 2.54407 4.021 3.68107 4.003 4.87707L8.5 5.87707V0.0690705ZM3.71 5.83607L3.381 6.00007C2.96593 6.20783 2.61689 6.52705 2.37298 6.92196C2.12907 7.31688 1.99992 7.7719 2 8.23607V10.8121C2 13.6591 4.22 16.0001 7 16.0001H9C11.78 16.0001 14 13.6581 14 10.8121V8.12307L5 6.12307V6.12607L5.008 6.47907C5.015 6.77907 5.031 7.19407 5.061 7.65407C5.124 8.59107 5.247 9.65907 5.474 10.3421C5.49767 10.405 5.50841 10.4721 5.50555 10.5393C5.50269 10.6065 5.48631 10.6724 5.45738 10.7332C5.42844 10.7939 5.38756 10.8481 5.33717 10.8927C5.28678 10.9372 5.22792 10.9711 5.16411 10.9924C5.10031 11.0137 5.03287 11.0219 4.96582 11.0165C4.89878 11.011 4.83352 10.9922 4.77395 10.961C4.71437 10.9297 4.66171 10.8868 4.6191 10.8348C4.5765 10.7827 4.54483 10.7226 4.526 10.6581C4.253 9.84107 4.126 8.65807 4.064 7.72107C4.02635 7.14913 4.005 6.57623 4 6.00307C4 5.96907 4.003 5.93607 4.01 5.90307L3.71 5.83607ZM14 7.10007V5.18707C14 4.05707 13.728 3.14307 13.252 2.41507C12.778 1.68907 12.122 1.18007 11.403 0.825071C10.7989 0.53667 10.1589 0.330503 9.5 0.212071V6.09907L14 7.09907V7.10007Z" fill="#212529"/>
</g>
<defs>
<clipPath id="clip0_34_4780">
<rect width="16" height="16" fill="white"/>
</clipPath>
</defs>
</svg>
