<svg width="16" height="16" viewBox="0 0 16 16" xmlns="http://www.w3.org/2000/svg"> <path d="M9 13.0001C9 14.1051 7.88 15.0001 6.5 15.0001C5.12 15.0001 4 14.1051 4 13.0001C4 11.8951 5.12 11.0001 6.5 11.0001C7.88 11.0001 9 11.8951 9 13.0001Z"/> <path fill-rule="evenodd" clip-rule="evenodd" d="M9 3.0001V13.0001H8V3.0001H9Z"/> <path d="M8 2.8201C8.00014 2.58901 8.08031 2.3651 8.22689 2.18643C8.37346 2.00777 8.57739 1.88539 8.804 1.8401L11.804 1.2401C11.949 1.21111 12.0987 1.21465 12.2422 1.25047C12.3856 1.28628 12.5194 1.35347 12.6338 1.44721C12.7482 1.54094 12.8404 1.65888 12.9037 1.79253C12.967 1.92618 12.9999 2.07221 13 2.2201V4.0001L8 5.0001V2.8201Z"/> </svg>