<svg width="16" height="16" viewBox="0 0 16 16" xmlns="http://www.w3.org/2000/svg"> <path d="M12 13.0001C12 14.1051 10.88 15.0001 9.5 15.0001C8.12 15.0001 7 14.1051 7 13.0001C7 11.8951 8.12 11.0001 9.5 11.0001C10.88 11.0001 12 11.8951 12 13.0001Z"/> <path fill-rule="evenodd" clip-rule="evenodd" d="M12 3.0001V13.0001H11V3.0001H12Z"/> <path d="M11 2.8201C11.0001 2.58901 11.0803 2.3651 11.2269 2.18643C11.3735 2.00777 11.5774 1.88539 11.804 1.8401L14.804 1.2401C14.949 1.21111 15.0987 1.21465 15.2422 1.25047C15.3856 1.28628 15.5194 1.35347 15.6338 1.44721C15.7482 1.54094 15.8404 1.65888 15.9037 1.79253C15.967 1.92618 15.9999 2.07221 16 2.2201V4.0001L11 5.0001V2.8201Z"/> <path fill-rule="evenodd" clip-rule="evenodd" d="M0 11.5001C0 11.3675 0.0526784 11.2403 0.146447 11.1465C0.240215 11.0528 0.367392 11.0001 0.5 11.0001H4C4.13261 11.0001 4.25979 11.0528 4.35355 11.1465C4.44732 11.2403 4.5 11.3675 4.5 11.5001C4.5 11.6327 4.44732 11.7599 4.35355 11.8537C4.25979 11.9474 4.13261 12.0001 4 12.0001H0.5C0.367392 12.0001 0.240215 11.9474 0.146447 11.8537C0.0526784 11.7599 0 11.6327 0 11.5001ZM0 7.5001C0 7.36749 0.0526784 7.24031 0.146447 7.14655C0.240215 7.05278 0.367392 7.0001 0.5 7.0001H8C8.13261 7.0001 8.25979 7.05278 8.35355 7.14655C8.44732 7.24031 8.5 7.36749 8.5 7.5001C8.5 7.63271 8.44732 7.75988 8.35355 7.85365C8.25979 7.94742 8.13261 8.0001 8 8.0001H0.5C0.367392 8.0001 0.240215 7.94742 0.146447 7.85365C0.0526784 7.75988 0 7.63271 0 7.5001ZM0 3.5001C0 3.36749 0.0526784 3.24031 0.146447 3.14655C0.240215 3.05278 0.367392 3.0001 0.5 3.0001H8C8.13261 3.0001 8.25979 3.05278 8.35355 3.14655C8.44732 3.24031 8.5 3.36749 8.5 3.5001C8.5 3.63271 8.44732 3.75988 8.35355 3.85365C8.25979 3.94742 8.13261 4.0001 8 4.0001H0.5C0.367392 4.0001 0.240215 3.94742 0.146447 3.85365C0.0526784 3.75988 0 3.63271 0 3.5001Z"/> </svg>