<svg width="16" height="16" viewBox="0 0 16 16" xmlns="http://www.w3.org/2000/svg"> <g clip-path="url(#clip0_34_4796)"> <path fill-rule="evenodd" clip-rule="evenodd" d="M9.36312 0.023C9.35012 0.033 9.34012 3.625 9.34012 8.005C9.34012 15.232 9.34312 15.964 9.39312 15.984C9.48212 16.017 12.0541 16.004 12.3711 15.971C13.1448 15.8793 13.8769 15.5709 14.483 15.0814C15.0891 14.5919 15.5447 13.9411 15.7971 13.204L15.8022 13.1895C15.8319 13.1041 15.8563 13.034 15.8771 12.962C16.0003 12.5394 16.0003 12.0816 16.0001 8.42688C16.0001 8.28481 16.0001 8.13792 16.0001 7.986C16.0001 4.185 15.9931 3.618 15.9471 3.376C15.6191 1.65 14.3041 0.348 12.5741 0.05C12.3411 0.01 11.9841 0 10.8311 0C10.0361 0 9.37312 0.01 9.36312 0.023ZM13.5873 7.61854C13.7813 7.7988 13.9282 8.02384 14.0151 8.274C14.1251 8.585 14.1221 9.042 14.0121 9.327C13.8101 9.851 13.4121 10.219 12.9021 10.355C12.4969 10.4551 12.0687 10.3961 11.7057 10.1902C11.3426 9.98433 11.0722 9.64714 10.9501 9.248C10.8768 8.94003 10.8816 8.61863 10.9641 8.313C11.0882 7.91996 11.3585 7.58954 11.7191 7.38989C12.0797 7.19024 12.5031 7.13659 12.9021 7.24C13.158 7.30832 13.3932 7.43829 13.5873 7.61854Z"/> <path d="M3.01512 3.665C3.18412 3.516 3.50212 3.357 3.71012 3.317C4.54612 3.151 5.35412 3.721 5.49612 4.573C5.61912 5.289 5.18512 5.987 4.46612 6.229C4.29012 6.289 4.19712 6.299 3.93612 6.289C3.64712 6.279 3.59112 6.266 3.36912 6.156C3.04712 5.997 2.81212 5.762 2.65712 5.441C2.55112 5.229 2.53412 5.159 2.52112 4.897C2.49512 4.394 2.66712 3.966 3.01512 3.665Z"/> <path fill-rule="evenodd" clip-rule="evenodd" d="M1.34448 1.0811C1.9257 0.546841 2.64767 0.190085 3.42513 0.0529703H3.42613C3.63413 0.0169703 4.10813 0.00697029 5.68613 0.00297029C7.62613 -2.97085e-05 7.68313 0.00297029 7.71613 0.0629703C7.73913 0.10897 7.74913 2.64097 7.74913 8.01497C7.74913 15.265 7.74613 15.905 7.69613 15.955C7.64713 16.004 7.45513 16.007 5.59913 15.995C3.80613 15.985 3.52913 15.975 3.30913 15.925C1.63313 15.534 0.453126 14.35 0.0851257 12.69C0.0191257 12.382 0.0151257 12.29 0.00512572 8.29997C-0.00987428 3.95597 0.000125721 3.62797 0.145126 3.06797C0.347097 2.30479 0.763268 1.61535 1.34448 1.0811ZM5.07513 14.702L6.42413 14.718V1.29197L5.14213 1.29497C3.72413 1.29897 3.52213 1.31897 3.08413 1.49497C2.65203 1.66993 2.26956 1.94839 1.97033 2.30585C1.67111 2.66332 1.46431 3.08883 1.36813 3.54497C1.29813 3.87297 1.29813 12.117 1.37213 12.452C1.4783 12.973 1.7301 13.4531 2.09828 13.8367C2.46647 14.2203 2.93593 14.4916 3.45213 14.619C3.70013 14.682 3.83313 14.689 5.07513 14.702Z"/> </g> <defs> <clipPath id="clip0_34_4796"> <rect width="16" height="16"/> </clipPath> </defs> </svg>