<svg width="16" height="16" viewBox="0 0 16 16" xmlns="http://www.w3.org/2000/svg"> <path d="M11.42 2L14.848 8L11.42 14H4.58002L1.15202 8L4.58002 2H11.42ZM4.58002 1C4.40376 1.00006 4.23064 1.0467 4.07821 1.13521C3.92578 1.22372 3.79945 1.35095 3.71202 1.504L0.284021 7.504C0.197731 7.65506 0.152344 7.82603 0.152344 8C0.152344 8.17397 0.197731 8.34494 0.284021 8.496L3.71202 14.496C3.79945 14.6491 3.92578 14.7763 4.07821 14.8648C4.23064 14.9533 4.40376 14.9999 4.58002 15H11.42C11.5963 14.9999 11.7694 14.9533 11.9218 14.8648C12.0743 14.7763 12.2006 14.6491 12.288 14.496L15.717 8.496C15.8033 8.34494 15.8487 8.17397 15.8487 8C15.8487 7.82603 15.8033 7.65506 15.717 7.504L12.288 1.504C12.2006 1.35095 12.0743 1.22372 11.9218 1.13521C11.7694 1.0467 11.5963 1.00006 11.42 1H4.58002Z"/> <path d="M6.84802 5.933C6.56141 6.09596 6.30986 6.314 6.10785 6.57456C5.90585 6.83513 5.75738 7.13309 5.671 7.45127C5.58461 7.76945 5.56202 8.10158 5.60451 8.42853C5.64701 8.75548 5.75376 9.07079 5.91861 9.35632C6.08347 9.64185 6.30317 9.89194 6.56507 10.0922C6.82698 10.2925 7.12591 10.439 7.44466 10.5232C7.7634 10.6075 8.09567 10.6279 8.42233 10.5832C8.74899 10.5386 9.06359 10.4297 9.34802 10.263C9.91754 9.92912 10.3319 9.38354 10.5006 8.7453C10.6694 8.10706 10.5788 7.42798 10.2487 6.85626C9.91862 6.28455 9.37579 5.8666 8.73868 5.69363C8.10158 5.52066 7.42192 5.60671 6.84802 5.933ZM5.06802 9.848C4.82882 9.44964 4.67134 9.00764 4.60476 8.54778C4.53818 8.08792 4.56383 7.61941 4.68022 7.16957C4.79661 6.71973 5.0014 6.29756 5.28266 5.9277C5.56392 5.55784 5.91601 5.24768 6.31839 5.01532C6.72077 4.78296 7.16539 4.63304 7.62632 4.57432C8.08725 4.5156 8.55526 4.54925 9.00305 4.6733C9.45084 4.79735 9.86945 5.00932 10.2345 5.29685C10.5995 5.58438 10.9036 5.94171 11.129 6.348C11.5858 7.15145 11.7063 8.10298 11.4641 8.99493C11.222 9.88687 10.6369 10.6468 9.83645 11.109C9.03605 11.5711 8.08534 11.6979 7.19181 11.4616C6.29827 11.2254 5.53545 10.6453 5.06802 9.848Z"/> </svg>