<svg width="16" height="16" viewBox="0 0 16 16" xmlns="http://www.w3.org/2000/svg"> <g clip-path="url(#clip0_34_4816)"> <path d="M8.00006 10C8.26528 10 8.51963 9.89464 8.70717 9.70711C8.8947 9.51957 9.00006 9.26522 9.00006 9C9.00006 8.73478 8.8947 8.48043 8.70717 8.29289C8.51963 8.10536 8.26528 8 8.00006 8C7.73484 8 7.48049 8.10536 7.29295 8.29289C7.10542 8.48043 7.00006 8.73478 7.00006 9C7.00006 9.26522 7.10542 9.51957 7.29295 9.70711C7.48049 9.89464 7.73484 10 8.00006 10Z"/> <path fill-rule="evenodd" clip-rule="evenodd" d="M4.50006 9C4.50006 8.07174 4.86881 7.1815 5.52519 6.52513C6.18156 5.86875 7.0718 5.5 8.00006 5.5C8.92832 5.5 9.81856 5.86875 10.4749 6.52513C11.1313 7.1815 11.5001 8.07174 11.5001 9C11.5001 9.92826 11.1313 10.8185 10.4749 11.4749C9.81856 12.1313 8.92832 12.5 8.00006 12.5C7.0718 12.5 6.18156 12.1313 5.52519 11.4749C4.86881 10.8185 4.50006 9.92826 4.50006 9ZM8.00006 6.5C7.33702 6.5 6.70114 6.76339 6.23229 7.23223C5.76345 7.70107 5.50006 8.33696 5.50006 9C5.50006 9.66304 5.76345 10.2989 6.23229 10.7678C6.70114 11.2366 7.33702 11.5 8.00006 11.5C8.6631 11.5 9.29899 11.2366 9.76783 10.7678C10.2367 10.2989 10.5001 9.66304 10.5001 9C10.5001 8.33696 10.2367 7.70107 9.76783 7.23223C9.29899 6.76339 8.6631 6.5 8.00006 6.5Z"/> <path fill-rule="evenodd" clip-rule="evenodd" d="M2.14651 14.8536C2.05274 14.7598 2.00006 14.6326 2.00006 14.5V11.45C1.43492 11.3352 0.926827 11.0286 0.561876 10.5821C0.196924 10.1356 -0.00244141 9.57668 -0.00244141 9C-0.00244141 8.42332 0.196924 7.86438 0.561876 7.41787C0.926827 6.97137 1.43492 6.66476 2.00006 6.55V4.5C1.99995 4.4343 2.01278 4.36921 2.03783 4.30847C2.06288 4.24773 2.09966 4.19252 2.14606 4.146L4.14606 2.146C4.19258 2.0996 4.24779 2.06282 4.30853 2.03777C4.36928 2.01272 4.43436 1.99988 4.50006 2H11.5001C11.5658 1.99988 11.6309 2.01272 11.6916 2.03777C11.7523 2.06282 11.8075 2.0996 11.8541 2.146L13.8541 4.146C13.9005 4.19252 13.9372 4.24773 13.9623 4.30847C13.9873 4.36921 14.0002 4.4343 14.0001 4.5V6.55C14.5652 6.66476 15.0733 6.97137 15.4383 7.41787C15.8032 7.86438 16.0026 8.42332 16.0026 9C16.0026 9.57668 15.8032 10.1356 15.4383 10.5821C15.0733 11.0286 14.5652 11.3352 14.0001 11.45V14.5C14.0001 14.6326 13.9474 14.7598 13.8536 14.8536C13.7599 14.9473 13.6327 15 13.5001 15H2.50006C2.36746 15 2.24028 14.9473 2.14651 14.8536ZM3.00006 11V14H13.0001V11C13.0001 10.8674 13.0527 10.7402 13.1465 10.6464C13.2403 10.5527 13.3675 10.5 13.5001 10.5C13.8979 10.5 14.2794 10.342 14.5607 10.0607C14.842 9.77936 15.0001 9.39783 15.0001 9C15.0001 8.60218 14.842 8.22064 14.5607 7.93934C14.2794 7.65804 13.8979 7.5 13.5001 7.5C13.3675 7.5 13.2403 7.44732 13.1465 7.35355C13.0527 7.25979 13.0001 7.13261 13.0001 7V4.707L11.2931 3H4.70706L3.00006 4.707V7C3.00006 7.13261 2.94739 7.25979 2.85362 7.35355C2.75985 7.44732 2.63267 7.5 2.50006 7.5C2.10224 7.5 1.72071 7.65804 1.4394 7.93934C1.1581 8.22064 1.00006 8.60218 1.00006 9C1.00006 9.39783 1.1581 9.77936 1.4394 10.0607C1.72071 10.342 2.10224 10.5 2.50006 10.5C2.63267 10.5 2.75985 10.5527 2.85362 10.6464C2.94739 10.7402 3.00006 10.8674 3.00006 11Z"/> </g> <defs> <clipPath id="clip0_34_4816"> <rect width="16" height="16"/> </clipPath> </defs> </svg>