<svg width="16" height="16" viewBox="0 0 16 16" xmlns="http://www.w3.org/2000/svg"> <g clip-path="url(#clip0_34_4818)"> <path fill-rule="evenodd" clip-rule="evenodd" d="M10.1214 6.87868C9.55877 6.31607 8.79571 6 8.00006 6C7.20441 6 6.44135 6.31607 5.87874 6.87868C5.31613 7.44129 5.00006 8.20435 5.00006 9C5.00006 9.79565 5.31613 10.5587 5.87874 11.1213C6.44135 11.6839 7.20441 12 8.00006 12C8.79571 12 9.55877 11.6839 10.1214 11.1213C10.684 10.5587 11.0001 9.79565 11.0001 9C11.0001 8.20435 10.684 7.44129 10.1214 6.87868ZM8.70717 8.29289C8.8947 8.48043 9.00006 8.73478 9.00006 9C9.00006 9.26522 8.8947 9.51957 8.70717 9.70711C8.51963 9.89464 8.26528 10 8.00006 10C7.73484 10 7.48049 9.89464 7.29295 9.70711C7.10542 9.51957 7.00006 9.26522 7.00006 9C7.00006 8.73478 7.10542 8.48043 7.29295 8.29289C7.48049 8.10536 7.73484 8 8.00006 8C8.26528 8 8.51963 8.10536 8.70717 8.29289Z"/> <path fill-rule="evenodd" clip-rule="evenodd" d="M2.14651 14.8536C2.24028 14.9473 2.36746 15 2.50006 15H13.5001C13.6327 15 13.7599 14.9473 13.8536 14.8536C13.9474 14.7598 14.0001 14.6326 14.0001 14.5V11.45C14.5652 11.3352 15.0733 11.0286 15.4383 10.5821C15.8032 10.1356 16.0026 9.57668 16.0026 9C16.0026 8.42332 15.8032 7.86438 15.4383 7.41787C15.0733 6.97137 14.5652 6.66476 14.0001 6.55V4.5C14.0002 4.4343 13.9873 4.36921 13.9623 4.30847C13.9372 4.24773 13.9005 4.19252 13.8541 4.146L11.8541 2.146C11.8075 2.0996 11.7523 2.06282 11.6916 2.03777C11.6309 2.01272 11.5658 1.99988 11.5001 2H4.50006C4.43436 1.99988 4.36928 2.01272 4.30853 2.03777C4.24779 2.06282 4.19258 2.0996 4.14606 2.146L2.14606 4.146C2.09966 4.19252 2.06288 4.24773 2.03783 4.30847C2.01278 4.36921 1.99995 4.4343 2.00006 4.5V6.55C1.43492 6.66476 0.926827 6.97137 0.561876 7.41787C0.196924 7.86438 -0.00244141 8.42332 -0.00244141 9C-0.00244141 9.57668 0.196924 10.1356 0.561876 10.5821C0.926827 11.0286 1.43492 11.3352 2.00006 11.45V14.5C2.00006 14.6326 2.05274 14.7598 2.14651 14.8536ZM5.17164 6.17157C5.92178 5.42143 6.9392 5 8.00006 5C9.06093 5 10.0783 5.42143 10.8285 6.17157C11.5786 6.92172 12.0001 7.93914 12.0001 9C12.0001 10.0609 11.5786 11.0783 10.8285 11.8284C10.0783 12.5786 9.06093 13 8.00006 13C6.9392 13 5.92178 12.5786 5.17164 11.8284C4.42149 11.0783 4.00006 10.0609 4.00006 9C4.00006 7.93914 4.42149 6.92172 5.17164 6.17157Z"/> </g> <defs> <clipPath id="clip0_34_4818"> <rect width="16" height="16"/> </clipPath> </defs> </svg>