<svg width="16" height="16" viewBox="0 0 16 16" xmlns="http://www.w3.org/2000/svg"> <path d="M6.19218 2.77987C5.73418 2.10286 5.26518 1.53187 4.84218 1.13686C4.63229 0.931028 4.39301 0.757471 4.13218 0.621865C3.91518 0.517865 3.57218 0.416865 3.25018 0.601865C2.88318 0.814865 2.82318 1.23187 2.82018 1.49787C2.81718 1.80186 2.88418 2.16187 2.99318 2.54187C3.18918 3.22887 3.54918 4.06986 4.02818 4.94386L0.752179 8.21987C0.475179 8.49687 0.483179 8.87586 0.534179 9.13786C0.589179 9.42086 0.721179 9.73086 0.894179 10.0409C1.24218 10.6679 1.81418 11.4019 2.52018 12.1089C3.22718 12.8159 3.96118 13.3869 4.58818 13.7349C4.89818 13.9079 5.20818 14.0399 5.49118 14.0949C5.75318 14.1449 6.13118 14.1539 6.40918 13.8769L12.0242 8.26187C12.1422 8.51887 12.1162 8.77386 12.0742 9.20086C12.0442 9.49286 12.0062 9.86586 12.0012 10.3769V10.4999H12.0042C12.0251 10.7497 12.1392 10.9826 12.3238 11.1523C12.5083 11.3221 12.7499 11.4163 13.0007 11.4163C13.2514 11.4163 13.493 11.3221 13.6776 11.1523C13.8622 10.9826 13.9762 10.7497 13.9972 10.4999H14.0002V10.4429C14.0011 10.4038 13.9998 10.3648 13.9962 10.3259C13.9412 9.07586 13.2962 7.58786 12.1362 6.83186C12.074 6.68338 12.0035 6.53849 11.9252 6.39786C11.5762 5.77186 11.0052 5.03786 10.2982 4.33086C9.59118 3.62386 8.85718 3.05187 8.23018 2.70387C7.92018 2.53187 7.61018 2.39987 7.32718 2.34387C7.06518 2.29387 6.68718 2.28587 6.40918 2.56287L6.19218 2.77887V2.77987ZM4.16018 1.86686C4.54118 2.22286 5.00418 2.78887 5.47118 3.49887L4.76718 4.20387C4.38518 3.47687 4.10718 2.80187 3.95418 2.26586C3.88714 2.04672 3.84324 1.82116 3.82318 1.59286C3.91418 1.65386 4.02718 1.74286 4.16018 1.86686ZM4.55418 5.83186C5.09418 6.68386 5.66118 7.39886 6.16118 7.86486C6.20924 7.90965 6.26566 7.94452 6.3272 7.9675C6.38874 7.99048 6.45421 8.00111 6.51986 7.99879C6.58551 7.99647 6.65006 7.98124 6.70982 7.95397C6.76959 7.9267 6.8234 7.88793 6.86818 7.83987C6.91296 7.7918 6.94783 7.73539 6.97081 7.67385C6.99379 7.6123 7.00442 7.54684 7.0021 7.48119C6.99978 7.41554 6.98455 7.35099 6.95728 7.29122C6.93002 7.23145 6.89124 7.17765 6.84318 7.13286C6.39018 6.71087 5.82618 5.99686 5.27918 5.10587L6.36718 4.01787C6.42118 4.13787 6.48218 4.26086 6.55018 4.38286C6.89918 5.00986 7.47018 5.74387 8.17718 6.45087C8.88318 7.15787 9.61718 7.72886 10.2452 8.07686C10.3672 8.14486 10.4892 8.20687 10.6102 8.25987L5.74918 13.1219C5.72633 13.1199 5.70362 13.1166 5.68118 13.1119C5.54418 13.0849 5.33918 13.0079 5.07318 12.8599C4.54918 12.5679 3.88718 12.0599 3.22718 11.3999C2.56718 10.7399 2.05918 10.0799 1.76718 9.55386C1.62018 9.28886 1.54218 9.08386 1.51618 8.94686C1.51149 8.92442 1.50815 8.90171 1.50618 8.87886L4.55418 5.83186ZM7.42418 3.89687C7.32067 3.72069 7.23971 3.53222 7.18318 3.33587C7.31818 3.36887 7.50718 3.44586 7.74518 3.57686C8.26918 3.86887 8.93118 4.37687 9.59118 5.03687C10.0412 5.48687 10.4212 5.93787 10.7092 6.34687C10.3513 6.32234 9.99174 6.35303 9.64318 6.43787C9.37941 6.21823 9.12581 5.98665 8.88318 5.74387C8.22318 5.08387 7.71618 4.42186 7.42518 3.89687H7.42418Z"/> </svg>