<svg width="16" height="16" viewBox="0 0 16 16" xmlns="http://www.w3.org/2000/svg"> <g clip-path="url(#clip0_34_4826)"> <path d="M8 5C8.19699 5 8.39204 4.96121 8.57403 4.88582C8.75602 4.81044 8.92138 4.69995 9.06066 4.56066C9.19995 4.42138 9.31044 4.25602 9.38582 4.07403C9.46121 3.89204 9.5 3.69699 9.5 3.5C9.5 3.30302 9.46121 3.10797 9.38582 2.92598C9.31044 2.74399 9.19995 2.57863 9.06066 2.43934C8.92138 2.30006 8.75602 2.18957 8.57403 2.11418C8.39204 2.0388 8.19699 2 8 2C7.60218 2 7.22065 2.15804 6.93934 2.43934C6.65804 2.72065 6.5 3.10218 6.5 3.5C6.5 3.89783 6.65804 4.27936 6.93934 4.56066C7.22065 4.84197 7.60218 5 8 5ZM12 8C12.3978 8 12.7794 7.84197 13.0607 7.56066C13.342 7.27936 13.5 6.89783 13.5 6.5C13.5 6.10218 13.342 5.72065 13.0607 5.43934C12.7794 5.15804 12.3978 5 12 5C11.6022 5 11.2206 5.15804 10.9393 5.43934C10.658 5.72065 10.5 6.10218 10.5 6.5C10.5 6.89783 10.658 7.27936 10.9393 7.56066C11.2206 7.84197 11.6022 8 12 8ZM5.5 7C5.5 7.39783 5.34197 7.77936 5.06066 8.06066C4.77936 8.34197 4.39783 8.5 4 8.5C3.60218 8.5 3.22065 8.34197 2.93934 8.06066C2.65804 7.77936 2.5 7.39783 2.5 7C2.5 6.60218 2.65804 6.22065 2.93934 5.93934C3.22065 5.65804 3.60218 5.5 4 5.5C4.39783 5.5 4.77936 5.65804 5.06066 5.93934C5.34197 6.22065 5.5 6.60218 5.5 7ZM6 13C6.39783 13 6.77936 12.842 7.06066 12.5607C7.34197 12.2794 7.5 11.8978 7.5 11.5C7.5 11.1022 7.34197 10.7206 7.06066 10.4393C6.77936 10.158 6.39783 10 6 10C5.60218 10 5.22065 10.158 4.93934 10.4393C4.65804 10.7206 4.5 11.1022 4.5 11.5C4.5 11.8978 4.65804 12.2794 4.93934 12.5607C5.22065 12.842 5.60218 13 6 13Z"/> <path d="M16 8C16 11.15 14.134 10.585 12.433 10.07C11.42 9.763 10.465 9.473 10 10C9.397 10.683 9.525 11.819 9.649 12.92C9.826 14.495 9.996 16 8 16C6.41775 16 4.87103 15.5308 3.55544 14.6518C2.23985 13.7727 1.21447 12.5233 0.608967 11.0615C0.00346625 9.59966 -0.15496 7.99113 0.153721 6.43928C0.462403 4.88743 1.22433 3.46197 2.34315 2.34315C3.46197 1.22433 4.88743 0.462403 6.43928 0.153721C7.99113 -0.15496 9.59966 0.00346625 11.0615 0.608967C12.5233 1.21447 13.7727 2.23985 14.6518 3.55544C15.5308 4.87103 16 6.41775 16 8ZM8 15C8.611 15 8.654 14.829 8.655 14.824C8.733 14.678 8.779 14.36 8.725 13.705C8.711 13.537 8.688 13.335 8.664 13.114C8.612 12.65 8.552 12.109 8.546 11.652C8.536 10.945 8.629 10.042 9.25 9.338C9.619 8.921 10.095 8.76 10.522 8.72C10.926 8.682 11.334 8.746 11.682 8.824C12.025 8.901 12.384 9.01 12.707 9.108L12.735 9.116C13.081 9.221 13.393 9.315 13.688 9.382C14.341 9.53 14.592 9.465 14.679 9.406C14.717 9.38 15 9.161 15 8C15 6.61553 14.5895 5.26216 13.8203 4.11101C13.0511 2.95987 11.9579 2.06266 10.6788 1.53285C9.39971 1.00303 7.99224 0.86441 6.63437 1.13451C5.2765 1.4046 4.02922 2.07129 3.05026 3.05026C2.07129 4.02922 1.4046 5.2765 1.13451 6.63437C0.86441 7.99224 1.00303 9.39971 1.53285 10.6788C2.06266 11.9579 2.95987 13.0511 4.11101 13.8203C5.26216 14.5895 6.61553 15 8 15Z"/> </g> <defs> <clipPath id="clip0_34_4826"> <rect width="16" height="16"/> </clipPath> </defs> </svg>