<svg width="16" height="16" viewBox="0 0 16 16" fill="none" xmlns="http://www.w3.org/2000/svg">
<g clip-path="url(#clip0_34_4838)">
<path d="M10.0672 0.870195C9.798 0.594736 9.47649 0.375856 9.12152 0.226418C8.76656 0.0769807 8.38531 0 8.00017 0C7.61503 0 7.23378 0.0769807 6.87882 0.226418C6.52386 0.375856 6.20234 0.594736 5.93317 0.870195L5.31117 1.5082L4.42117 1.4972C4.03592 1.49264 3.65365 1.56515 3.29683 1.71048C2.94002 1.85581 2.61586 2.07102 2.34343 2.34345C2.071 2.61589 1.85579 2.94004 1.71046 3.29686C1.56513 3.65367 1.49261 4.03595 1.49717 4.4212L1.50717 5.3112L0.871172 5.9332C0.595712 6.20237 0.376832 6.52388 0.227395 6.87884C0.0779572 7.23381 0.000976563 7.61506 0.000976562 8.0002C0.000976563 8.38533 0.0779572 8.76659 0.227395 9.12155C0.376832 9.47651 0.595712 9.79803 0.871172 10.0672L1.50817 10.6892L1.49717 11.5792C1.49261 11.9644 1.56513 12.3467 1.71046 12.7035C1.85579 13.0603 2.071 13.3845 2.34343 13.6569C2.61586 13.9294 2.94002 14.1446 3.29683 14.2899C3.65365 14.4352 4.03592 14.5078 4.42117 14.5032L5.31117 14.4932L5.93317 15.1292C6.20234 15.4047 6.52386 15.6235 6.87882 15.773C7.23378 15.9224 7.61503 15.9994 8.00017 15.9994C8.38531 15.9994 8.76656 15.9224 9.12152 15.773C9.47649 15.6235 9.798 15.4047 10.0672 15.1292L10.6892 14.4922L11.5792 14.5032C11.9644 14.5078 12.3467 14.4352 12.7035 14.2899C13.0603 14.1446 13.3845 13.9294 13.6569 13.6569C13.9293 13.3845 14.1446 13.0603 14.2899 12.7035C14.4352 12.3467 14.5077 11.9644 14.5032 11.5792L14.4932 10.6892L15.1292 10.0672C15.4046 9.79803 15.6235 9.47651 15.7729 9.12155C15.9224 8.76659 15.9994 8.38533 15.9994 8.0002C15.9994 7.61506 15.9224 7.23381 15.7729 6.87884C15.6235 6.52388 15.4046 6.20237 15.1292 5.9332L14.4922 5.3112L14.5032 4.4212C14.5077 4.03595 14.4352 3.65367 14.2899 3.29686C14.1446 2.94004 13.9293 2.61589 13.6569 2.34345C13.3845 2.07102 13.0603 1.85581 12.7035 1.71048C12.3467 1.56515 11.9644 1.49264 11.5792 1.4972L10.6892 1.5072L10.0672 0.871195V0.870195ZM10.3542 6.8542L7.35417 9.8542C7.30773 9.90076 7.25255 9.9377 7.19181 9.96291C7.13106 9.98811 7.06594 10.0011 7.00017 10.0011C6.9344 10.0011 6.86928 9.98811 6.80854 9.96291C6.74779 9.9377 6.69262 9.90076 6.64617 9.8542L5.14617 8.3542C5.09968 8.30771 5.06281 8.25252 5.03765 8.19178C5.01249 8.13104 4.99954 8.06594 4.99954 8.0002C4.99954 7.93445 5.01249 7.86935 5.03765 7.80861C5.06281 7.74787 5.09968 7.69268 5.14617 7.6462C5.19266 7.59971 5.24785 7.56283 5.30859 7.53767C5.36933 7.51251 5.43443 7.49956 5.50017 7.49956C5.56592 7.49956 5.63102 7.51251 5.69176 7.53767C5.75249 7.56283 5.80768 7.59971 5.85417 7.6462L7.00017 8.7932L9.64617 6.1462C9.74006 6.05231 9.8674 5.99956 10.0002 5.99956C10.1329 5.99956 10.2603 6.05231 10.3542 6.1462C10.4481 6.24008 10.5008 6.36742 10.5008 6.5002C10.5008 6.63297 10.4481 6.76031 10.3542 6.8542Z" fill="#212529"/>
</g>
<defs>
<clipPath id="clip0_34_4838">
<rect width="16" height="16" fill="white"/>
</clipPath>
</defs>
</svg>
