<svg width="16" height="16" viewBox="0 0 16 16" fill="none" xmlns="http://www.w3.org/2000/svg">
<g clip-path="url(#clip0_34_4836)">
<path fill-rule="evenodd" clip-rule="evenodd" d="M10.3542 6.14617C10.4007 6.19262 10.4377 6.24779 10.4629 6.30854C10.4881 6.36928 10.5011 6.4344 10.5011 6.50017C10.5011 6.56594 10.4881 6.63106 10.4629 6.69181C10.4377 6.75255 10.4007 6.80773 10.3542 6.85417L7.35417 9.85417C7.30773 9.90073 7.25255 9.93768 7.19181 9.96288C7.13106 9.98809 7.06594 10.0011 7.00017 10.0011C6.9344 10.0011 6.86928 9.98809 6.80854 9.96288C6.74779 9.93768 6.69262 9.90073 6.64617 9.85417L5.14617 8.35417C5.09968 8.30768 5.06281 8.25249 5.03765 8.19176C5.01249 8.13102 4.99954 8.06592 4.99954 8.00017C4.99954 7.93443 5.01249 7.86933 5.03765 7.80859C5.06281 7.74785 5.09968 7.69266 5.14617 7.64617C5.19266 7.59968 5.24785 7.56281 5.30859 7.53765C5.36933 7.51249 5.43443 7.49954 5.50017 7.49954C5.56592 7.49954 5.63102 7.51249 5.69176 7.53765C5.75249 7.56281 5.80768 7.59968 5.85417 7.64617L7.00017 8.79317L9.64617 6.14617C9.69262 6.09961 9.74779 6.06267 9.80854 6.03746C9.86928 6.01225 9.9344 5.99928 10.0002 5.99928C10.0659 5.99928 10.1311 6.01225 10.1918 6.03746C10.2526 6.06267 10.3077 6.09961 10.3542 6.14617Z" fill="#212529"/>
<path d="M10.2732 2.51317L9.35217 1.56917L10.0672 0.871172L10.6892 1.50817L11.5792 1.49717C11.9644 1.49261 12.3467 1.56513 12.7035 1.71046C13.0603 1.85579 13.3845 2.071 13.6569 2.34343C13.9293 2.61586 14.1446 2.94002 14.2899 3.29683C14.4352 3.65365 14.5077 4.03592 14.5032 4.42117L14.4932 5.31117L15.1292 5.93317C15.4046 6.20234 15.6235 6.52386 15.7729 6.87882C15.9224 7.23378 15.9994 7.61503 15.9994 8.00017C15.9994 8.38531 15.9224 8.76656 15.7729 9.12152C15.6235 9.47649 15.4046 9.798 15.1292 10.0672L14.4922 10.6892L14.5032 11.5792C14.5077 11.9644 14.4352 12.3467 14.2899 12.7035C14.1446 13.0603 13.9293 13.3845 13.6569 13.6569C13.3845 13.9293 13.0603 14.1446 12.7035 14.2899C12.3467 14.4352 11.9644 14.5077 11.5792 14.5032L10.6892 14.4932L10.0672 15.1292C9.798 15.4046 9.47649 15.6235 9.12152 15.7729C8.76656 15.9224 8.38531 15.9994 8.00017 15.9994C7.61503 15.9994 7.23378 15.9224 6.87882 15.7729C6.52386 15.6235 6.20234 15.4046 5.93317 15.1292L5.31117 14.4922L4.42117 14.5032C4.03592 14.5077 3.65365 14.4352 3.29683 14.2899C2.94002 14.1446 2.61586 13.9293 2.34343 13.6569C2.071 13.3845 1.85579 13.0603 1.71046 12.7035C1.56513 12.3467 1.49261 11.9644 1.49717 11.5792L1.50717 10.6892L0.871172 10.0672C0.595712 9.798 0.376832 9.47649 0.227395 9.12152C0.0779572 8.76656 0.000976562 8.38531 0.000976562 8.00017C0.000976562 7.61503 0.0779572 7.23378 0.227395 6.87882C0.376832 6.52386 0.595712 6.20234 0.871172 5.93317L1.50817 5.31117L1.49717 4.42117C1.49261 4.03592 1.56513 3.65365 1.71046 3.29683C1.85579 2.94002 2.071 2.61586 2.34343 2.34343C2.61586 2.071 2.94002 1.85579 3.29683 1.71046C3.65365 1.56513 4.03592 1.49261 4.42117 1.49717L5.31117 1.50717L5.93317 0.871172C6.20234 0.595712 6.52386 0.376832 6.87882 0.227395C7.23378 0.0779572 7.61503 0.000976562 8.00017 0.000976562C8.38531 0.000976562 8.76656 0.0779572 9.12152 0.227395C9.47649 0.376832 9.798 0.595712 10.0672 0.871172L9.35217 1.56917C9.17613 1.38896 8.96584 1.24576 8.73366 1.14799C8.50148 1.05022 8.2521 0.999852 8.00017 0.999852C7.74825 0.999852 7.49886 1.05022 7.26668 1.14799C7.0345 1.24576 6.82421 1.38896 6.64817 1.56917L5.72817 2.51317L4.40817 2.49717C4.15635 2.49436 3.9065 2.5419 3.67331 2.637C3.44012 2.7321 3.22829 2.87285 3.05026 3.05097C2.87223 3.22909 2.7316 3.441 2.63661 3.67424C2.54163 3.90748 2.49422 4.15735 2.49717 4.40917L2.51317 5.72717L1.56917 6.64817C1.38896 6.82421 1.24576 7.0345 1.14799 7.26668C1.05022 7.49886 0.999852 7.74825 0.999852 8.00017C0.999852 8.2521 1.05022 8.50148 1.14799 8.73366C1.24576 8.96584 1.38896 9.17613 1.56917 9.35217L2.51317 10.2722L2.49717 11.5922C2.49436 11.844 2.5419 12.0938 2.637 12.327C2.7321 12.5602 2.87285 12.7721 3.05097 12.9501C3.22909 13.1281 3.441 13.2687 3.67424 13.3637C3.90748 13.4587 4.15735 13.5061 4.40917 13.5032L5.72717 13.4872L6.64817 14.4312C6.82421 14.6114 7.0345 14.7546 7.26668 14.8524C7.49886 14.9501 7.74825 15.0005 8.00017 15.0005C8.2521 15.0005 8.50148 14.9501 8.73366 14.8524C8.96584 14.7546 9.17613 14.6114 9.35217 14.4312L10.2722 13.4872L11.5922 13.5032C11.844 13.506 12.0938 13.4584 12.327 13.3633C12.5602 13.2682 12.7721 13.1275 12.9501 12.9494C13.1281 12.7712 13.2687 12.5593 13.3637 12.3261C13.4587 12.0929 13.5061 11.843 13.5032 11.5912L13.4872 10.2732L14.4312 9.35217C14.6114 9.17613 14.7546 8.96584 14.8524 8.73366C14.9501 8.50148 15.0005 8.2521 15.0005 8.00017C15.0005 7.74825 14.9501 7.49886 14.8524 7.26668C14.7546 7.0345 14.6114 6.82421 14.4312 6.64817L13.4872 5.72817L13.5032 4.40817C13.506 4.15635 13.4584 3.9065 13.3633 3.67331C13.2682 3.44012 13.1275 3.22829 12.9494 3.05026C12.7712 2.87223 12.5593 2.7316 12.3261 2.63661C12.0929 2.54163 11.843 2.49422 11.5912 2.49717L10.2732 2.51317Z" fill="#212529"/>
</g>
<defs>
<clipPath id="clip0_34_4836">
<rect width="16" height="16" fill="white"/>
</clipPath>
</defs>
</svg>
