<svg width="16" height="16" viewBox="0 0 16 16" xmlns="http://www.w3.org/2000/svg"> <g clip-path="url(#clip0_34_4842)"> <path d="M10.0672 0.870195C9.798 0.594736 9.47649 0.375856 9.12152 0.226418C8.76656 0.0769807 8.38531 0 8.00017 0C7.61503 0 7.23378 0.0769807 6.87882 0.226418C6.52386 0.375856 6.20234 0.594736 5.93317 0.870195L5.31117 1.5082L4.42117 1.4972C4.03592 1.49264 3.65365 1.56515 3.29683 1.71048C2.94002 1.85581 2.61586 2.07102 2.34343 2.34345C2.071 2.61589 1.85579 2.94004 1.71046 3.29686C1.56513 3.65367 1.49261 4.03595 1.49717 4.4212L1.50717 5.3112L0.871172 5.9332C0.595712 6.20237 0.376832 6.52388 0.227395 6.87884C0.0779572 7.23381 0.000976563 7.61506 0.000976562 8.0002C0.000976563 8.38533 0.0779572 8.76659 0.227395 9.12155C0.376832 9.47651 0.595712 9.79803 0.871172 10.0672L1.50817 10.6892L1.49717 11.5792C1.49261 11.9644 1.56513 12.3467 1.71046 12.7035C1.85579 13.0603 2.071 13.3845 2.34343 13.6569C2.61586 13.9294 2.94002 14.1446 3.29683 14.2899C3.65365 14.4352 4.03592 14.5078 4.42117 14.5032L5.31117 14.4932L5.93317 15.1292C6.20234 15.4047 6.52386 15.6235 6.87882 15.773C7.23378 15.9224 7.61503 15.9994 8.00017 15.9994C8.38531 15.9994 8.76656 15.9224 9.12152 15.773C9.47649 15.6235 9.798 15.4047 10.0672 15.1292L10.6892 14.4922L11.5792 14.5032C11.9644 14.5078 12.3467 14.4352 12.7035 14.2899C13.0603 14.1446 13.3845 13.9294 13.6569 13.6569C13.9293 13.3845 14.1446 13.0603 14.2899 12.7035C14.4352 12.3467 14.5077 11.9644 14.5032 11.5792L14.4932 10.6892L15.1292 10.0672C15.4046 9.79803 15.6235 9.47651 15.7729 9.12155C15.9224 8.76659 15.9994 8.38533 15.9994 8.0002C15.9994 7.61506 15.9224 7.23381 15.7729 6.87884C15.6235 6.52388 15.4046 6.20237 15.1292 5.9332L14.4922 5.3112L14.5032 4.4212C14.5077 4.03595 14.4352 3.65367 14.2899 3.29686C14.1446 2.94004 13.9293 2.61589 13.6569 2.34345C13.3845 2.07102 13.0603 1.85581 12.7035 1.71048C12.3467 1.56515 11.9644 1.49264 11.5792 1.4972L10.6892 1.5072L10.0672 0.871195V0.870195ZM8.00017 4.0002C8.53517 4.0002 8.95417 4.4622 8.90017 4.9952L8.55017 8.5022C8.53841 8.63997 8.47537 8.76831 8.37353 8.86183C8.27168 8.95535 8.13844 9.00725 8.00017 9.00725C7.8619 9.00725 7.72866 8.95535 7.62682 8.86183C7.52497 8.76831 7.46193 8.63997 7.45017 8.5022L7.10017 4.9952C7.0876 4.86943 7.10152 4.74242 7.14102 4.62236C7.18052 4.5023 7.24473 4.39184 7.32952 4.29811C7.4143 4.20437 7.51778 4.12943 7.63329 4.07812C7.7488 4.02681 7.87378 4.00027 8.00017 4.0002ZM8.00217 10.0002C8.26739 10.0002 8.52174 10.1056 8.70928 10.2931C8.89681 10.4806 9.00217 10.735 9.00217 11.0002C9.00217 11.2654 8.89681 11.5198 8.70928 11.7073C8.52174 11.8948 8.26739 12.0002 8.00217 12.0002C7.73696 12.0002 7.4826 11.8948 7.29506 11.7073C7.10753 11.5198 7.00217 11.2654 7.00217 11.0002C7.00217 10.735 7.10753 10.4806 7.29506 10.2931C7.4826 10.1056 7.73696 10.0002 8.00217 10.0002Z"/> </g> <defs> <clipPath id="clip0_34_4842"> <rect width="16" height="16"/> </clipPath> </defs> </svg>