<svg width="16" height="16" viewBox="0 0 16 16" xmlns="http://www.w3.org/2000/svg"> <g clip-path="url(#clip0_34_4868)"> <path d="M14.0602 3.713C14.1802 2.642 13.9672 1.881 13.3582 1.187C12.6282 0.356 11.3122 0 9.62622 0H4.73422C4.56768 7.21157e-05 4.40663 0.0595142 4.27998 0.167651C4.15333 0.275788 4.06939 0.425535 4.04322 0.59L2.00522 13.509C1.99567 13.569 1.99925 13.6304 2.01572 13.6888C2.03219 13.7473 2.06115 13.8015 2.1006 13.8477C2.14006 13.8939 2.18906 13.931 2.24424 13.9565C2.29942 13.9819 2.35946 13.995 2.42022 13.995H5.17622L4.97422 15.275C4.96006 15.3646 4.96549 15.4562 4.99013 15.5436C5.01477 15.6309 5.05805 15.7118 5.11697 15.7808C5.17589 15.8498 5.24907 15.9052 5.33145 15.9432C5.41384 15.9813 5.50349 16.001 5.59422 16.001H8.14022C8.56922 16.001 8.93322 15.691 9.00222 15.27L9.02722 15.14L9.50722 12.097L9.53722 11.933L9.53822 11.926C9.55113 11.8431 9.59334 11.7675 9.65718 11.713C9.72103 11.6585 9.80228 11.6287 9.88622 11.629H10.2662C11.5322 11.629 12.6912 11.373 13.6112 10.719C13.9902 10.449 14.3232 10.116 14.6042 9.714C15.0709 9.06433 15.3728 8.3111 15.4842 7.519C15.7262 6.273 15.6142 5.163 14.9142 4.365C14.6984 4.12421 14.441 3.92434 14.1542 3.775L14.0602 3.714V3.713ZM6.54322 8.82C6.64231 8.76823 6.75242 8.74113 6.86422 8.741H8.30022C11.1202 8.741 13.3272 7.597 13.9722 4.285L13.9752 4.269C14.1922 4.393 14.3752 4.539 14.5232 4.707C15.0692 5.33 15.2022 6.242 14.9732 7.417C14.7012 8.814 14.1072 9.724 13.3102 10.291C12.5082 10.861 11.4682 11.106 10.2672 11.106H9.88722C9.67958 11.1057 9.47865 11.1795 9.32048 11.314C9.16232 11.4485 9.05728 11.635 9.02422 11.84L8.99422 12.004L8.51422 15.047L8.49022 15.177L8.48922 15.181C8.4759 15.2637 8.43354 15.3389 8.36976 15.3931C8.30598 15.4474 8.22495 15.4771 8.14122 15.477H5.59522C5.57983 15.4771 5.56461 15.4738 5.55063 15.4673C5.53664 15.4609 5.52422 15.4515 5.51423 15.4398C5.50423 15.4281 5.49691 15.4144 5.49276 15.3996C5.48862 15.3847 5.48775 15.3692 5.49022 15.354L5.69822 14.034L6.54322 8.82Z"/> </g> <defs> <clipPath id="clip0_34_4868"> <rect width="16" height="16"/> </clipPath> </defs> </svg>