<svg width="16" height="16" viewBox="0 0 16 16" fill="none" xmlns="http://www.w3.org/2000/svg">
<g clip-path="url(#clip0_34_4874)">
<path d="M1.5 0C1.10218 0 0.720644 0.158035 0.43934 0.43934C0.158035 0.720644 0 1.10218 0 1.5L0 8.5C0 8.89782 0.158035 9.27936 0.43934 9.56066C0.720644 9.84196 1.10218 10 1.5 10H6V11H1C0.734784 11 0.48043 11.1054 0.292893 11.2929C0.105357 11.4804 0 11.7348 0 12L0 15C0 15.2652 0.105357 15.5196 0.292893 15.7071C0.48043 15.8946 0.734784 16 1 16H15C15.2652 16 15.5196 15.8946 15.7071 15.7071C15.8946 15.5196 16 15.2652 16 15V12C16 11.7348 15.8946 11.4804 15.7071 11.2929C15.5196 11.1054 15.2652 11 15 11H10V10H14.5C14.8978 10 15.2794 9.84196 15.5607 9.56066C15.842 9.27936 16 8.89782 16 8.5V1.5C16 1.10218 15.842 0.720644 15.5607 0.43934C15.2794 0.158035 14.8978 0 14.5 0L1.5 0ZM1.5 1H14.5C14.6326 1 14.7598 1.05268 14.8536 1.14645C14.9473 1.24021 15 1.36739 15 1.5V8.5C15 8.63261 14.9473 8.75979 14.8536 8.85355C14.7598 8.94732 14.6326 9 14.5 9H1.5C1.36739 9 1.24021 8.94732 1.14645 8.85355C1.05268 8.75979 1 8.63261 1 8.5V1.5C1 1.36739 1.05268 1.24021 1.14645 1.14645C1.24021 1.05268 1.36739 1 1.5 1ZM12 12.5C12 12.3674 12.0527 12.2402 12.1464 12.1464C12.2402 12.0527 12.3674 12 12.5 12C12.6326 12 12.7598 12.0527 12.8536 12.1464C12.9473 12.2402 13 12.3674 13 12.5C13 12.6326 12.9473 12.7598 12.8536 12.8536C12.7598 12.9473 12.6326 13 12.5 13C12.3674 13 12.2402 12.9473 12.1464 12.8536C12.0527 12.7598 12 12.6326 12 12.5ZM14 12.5C14 12.3674 14.0527 12.2402 14.1464 12.1464C14.2402 12.0527 14.3674 12 14.5 12C14.6326 12 14.7598 12.0527 14.8536 12.1464C14.9473 12.2402 15 12.3674 15 12.5C15 12.6326 14.9473 12.7598 14.8536 12.8536C14.7598 12.9473 14.6326 13 14.5 13C14.3674 13 14.2402 12.9473 14.1464 12.8536C14.0527 12.7598 14 12.6326 14 12.5ZM1.5 12H6.5C6.63261 12 6.75979 12.0527 6.85355 12.1464C6.94732 12.2402 7 12.3674 7 12.5C7 12.6326 6.94732 12.7598 6.85355 12.8536C6.75979 12.9473 6.63261 13 6.5 13H1.5C1.36739 13 1.24021 12.9473 1.14645 12.8536C1.05268 12.7598 1 12.6326 1 12.5C1 12.3674 1.05268 12.2402 1.14645 12.1464C1.24021 12.0527 1.36739 12 1.5 12ZM1 14.25C1 14.1837 1.02634 14.1201 1.07322 14.0732C1.12011 14.0263 1.1837 14 1.25 14H6.75C6.8163 14 6.87989 14.0263 6.92678 14.0732C6.97366 14.1201 7 14.1837 7 14.25C7 14.3163 6.97366 14.3799 6.92678 14.4268C6.87989 14.4737 6.8163 14.5 6.75 14.5H1.25C1.1837 14.5 1.12011 14.4737 1.07322 14.4268C1.02634 14.3799 1 14.3163 1 14.25Z" fill="#212529"/>
</g>
<defs>
<clipPath id="clip0_34_4874">
<rect width="16" height="16" fill="white"/>
</clipPath>
</defs>
</svg>
