<svg width="16" height="16" viewBox="0 0 16 16" xmlns="http://www.w3.org/2000/svg"> <path d="M5 0C4.73478 0 4.48043 0.105357 4.29289 0.292893C4.10536 0.48043 4 0.734784 4 1V15C4 15.2652 4.10536 15.5196 4.29289 15.7071C4.48043 15.8946 4.73478 16 5 16H11C11.2652 16 11.5196 15.8946 11.7071 15.7071C11.8946 15.5196 12 15.2652 12 15V1C12 0.734784 11.8946 0.48043 11.7071 0.292893C11.5196 0.105357 11.2652 0 11 0L5 0ZM5.5 14C5.63261 14 5.75979 14.0527 5.85355 14.1464C5.94732 14.2402 6 14.3674 6 14.5C6 14.6326 5.94732 14.7598 5.85355 14.8536C5.75979 14.9473 5.63261 15 5.5 15C5.36739 15 5.24021 14.9473 5.14645 14.8536C5.05268 14.7598 5 14.6326 5 14.5C5 14.3674 5.05268 14.2402 5.14645 14.1464C5.24021 14.0527 5.36739 14 5.5 14ZM7.5 14C7.63261 14 7.75979 14.0527 7.85355 14.1464C7.94732 14.2402 8 14.3674 8 14.5C8 14.6326 7.94732 14.7598 7.85355 14.8536C7.75979 14.9473 7.63261 15 7.5 15C7.36739 15 7.24021 14.9473 7.14645 14.8536C7.05268 14.7598 7 14.6326 7 14.5C7 14.3674 7.05268 14.2402 7.14645 14.1464C7.24021 14.0527 7.36739 14 7.5 14ZM5 1.5C5 1.36739 5.05268 1.24021 5.14645 1.14645C5.24021 1.05268 5.36739 1 5.5 1H10.5C10.6326 1 10.7598 1.05268 10.8536 1.14645C10.9473 1.24021 11 1.36739 11 1.5C11 1.63261 10.9473 1.75979 10.8536 1.85355C10.7598 1.94732 10.6326 2 10.5 2H5.5C5.36739 2 5.24021 1.94732 5.14645 1.85355C5.05268 1.75979 5 1.63261 5 1.5ZM5.5 3H10.5C10.6326 3 10.7598 3.05268 10.8536 3.14645C10.9473 3.24021 11 3.36739 11 3.5C11 3.63261 10.9473 3.75979 10.8536 3.85355C10.7598 3.94732 10.6326 4 10.5 4H5.5C5.36739 4 5.24021 3.94732 5.14645 3.85355C5.05268 3.75979 5 3.63261 5 3.5C5 3.36739 5.05268 3.24021 5.14645 3.14645C5.24021 3.05268 5.36739 3 5.5 3Z"/> </svg>