<svg width="16" height="16" viewBox="0 0 16 16" xmlns="http://www.w3.org/2000/svg"> <path d="M0.146447 1.14645C0.0526784 1.24021 0 1.36739 0 1.5C0 1.63261 0.0526784 1.75979 0.146447 1.85355C0.240215 1.94732 0.367392 2 0.5 2H1V14.5C1 14.6326 1.05268 14.7598 1.14645 14.8536C1.24021 14.9473 1.36739 15 1.5 15C1.63261 15 1.75979 14.9473 1.85355 14.8536C1.94732 14.7598 2 14.6326 2 14.5V12H15.5C15.6326 12 15.7598 11.9473 15.8536 11.8536C15.9473 11.7598 16 11.6326 16 11.5V4.5C16 4.36739 15.9473 4.24021 15.8536 4.14645C15.7598 4.05268 15.6326 4 15.5 4H2V1.5C2 1.36739 1.94732 1.24021 1.85355 1.14645C1.75979 1.05268 1.63261 1 1.5 1H0.5C0.367392 1 0.240215 1.05268 0.146447 1.14645Z"/> <path d="M6.5 12.5H3V13.5C3 13.6326 3.05268 13.7598 3.14645 13.8536C3.24021 13.9473 3.36739 14 3.5 14H6C6.13261 14 6.25979 13.9473 6.35355 13.8536C6.44732 13.7598 6.5 13.6326 6.5 13.5V12.5Z"/> <path d="M11 12.5H7V13.5C7 13.6326 7.05268 13.7598 7.14645 13.8536C7.24021 13.9473 7.36739 14 7.5 14H10.5C10.6326 14 10.7598 13.9473 10.8536 13.8536C10.9473 13.7598 11 13.6326 11 13.5V12.5Z"/> </svg>