<svg width="16" height="16" viewBox="0 0 16 16" fill="none" xmlns="http://www.w3.org/2000/svg">
<g clip-path="url(#clip0_34_4882)">
<path d="M14 13.2921C14.9905 12.1694 15.6461 10.7912 15.8922 9.3143C16.1382 7.83741 15.9649 6.32111 15.3919 4.93786C14.8189 3.5546 13.8692 2.35991 12.6508 1.48966C11.4324 0.619413 9.99431 0.108537 8.49998 0.0151367V7.79314L14 13.2931V13.2921ZM13.292 14.0001L8.49998 9.20614V15.9841C10.2741 15.8752 11.9609 15.1762 13.292 13.9981V14.0001ZM7.49998 15.9851V9.20714L2.70798 14.0001C4.03918 15.1778 5.72595 15.8765 7.49998 15.9851ZM1.99998 13.2921C1.00944 12.1694 0.353862 10.7912 0.107801 9.3143C-0.138261 7.83741 0.0350724 6.32111 0.608086 4.93786C1.1811 3.5546 2.1308 2.35991 3.34916 1.48966C4.56752 0.619413 6.00565 0.108537 7.49998 0.0151367V7.79314L1.99998 13.2931V13.2921Z" fill="#212529"/>
</g>
<defs>
<clipPath id="clip0_34_4882">
<rect width="16" height="16" fill="white"/>
</clipPath>
</defs>
</svg>
