<svg width="16" height="16" viewBox="0 0 16 16" fill="none" xmlns="http://www.w3.org/2000/svg">
<g clip-path="url(#clip0_34_4884)">
<path d="M13.4978 0.794865L13.6468 0.645865C13.759 0.533782 13.8921 0.444886 14.0386 0.384252C14.1851 0.323618 14.3421 0.292434 14.5007 0.292481C14.6592 0.292527 14.8162 0.323803 14.9627 0.384523C15.1092 0.445242 15.2422 0.534216 15.3543 0.646365C15.4664 0.758514 15.5553 0.891641 15.6159 1.03815C15.6766 1.18465 15.7077 1.34166 15.7077 1.50022C15.7077 1.65877 15.6764 1.81577 15.6157 1.96224C15.5549 2.10871 15.466 2.24178 15.3538 2.35387L15.2048 2.50187C15.4597 2.78773 15.5956 3.16026 15.5846 3.54309C15.5736 3.92593 15.4167 4.29007 15.1458 4.56087L4.85382 14.8539C4.78948 14.9179 4.70893 14.9632 4.62082 14.9849L0.620816 15.9849C0.537108 16.0057 0.449432 16.0045 0.366309 15.9815C0.283186 15.9584 0.207444 15.9142 0.146447 15.8532C0.0854489 15.7922 0.0412701 15.7165 0.0182047 15.6334C-0.00486067 15.5502 -0.00602807 15.4626 0.014816 15.3789L1.01482 11.3789C1.0367 11.2911 1.08197 11.2109 1.14582 11.1469L10.7878 1.50487C10.6914 1.437 10.5741 1.40539 10.4566 1.41564C10.3391 1.42589 10.229 1.47732 10.1458 1.56087L6.85382 4.85387C6.80733 4.90035 6.75214 4.93723 6.6914 4.96239C6.63066 4.98755 6.56556 5.0005 6.49982 5.0005C6.43407 5.0005 6.36897 4.98755 6.30823 4.96239C6.24749 4.93723 6.1923 4.90035 6.14582 4.85387C6.09933 4.80738 6.06245 4.75219 6.03729 4.69145C6.01213 4.63071 5.99918 4.56561 5.99918 4.49987C5.99918 4.43412 6.01213 4.36902 6.03729 4.30828C6.06245 4.24754 6.09933 4.19235 6.14582 4.14587L9.43982 0.853865C9.71079 0.582881 10.0752 0.425886 10.4583 0.415101C10.8414 0.404315 11.214 0.540557 11.4998 0.795865C11.7746 0.550304 12.1301 0.414477 12.4986 0.414293C12.8671 0.414108 13.2228 0.549579 13.4978 0.794865ZM12.8538 1.56087C12.7601 1.46713 12.6329 1.41447 12.5003 1.41447C12.3677 1.41447 12.2406 1.46713 12.1468 1.56087L1.94982 11.7559L1.18582 14.8129L4.24282 14.0489L14.4398 3.85387C14.4864 3.80742 14.5233 3.75224 14.5485 3.6915C14.5737 3.63075 14.5867 3.56563 14.5867 3.49987C14.5867 3.4341 14.5737 3.36898 14.5485 3.30823C14.5233 3.24749 14.4864 3.19231 14.4398 3.14587L12.8548 1.56087H12.8538Z" fill="#212529"/>
</g>
<defs>
<clipPath id="clip0_34_4884">
<rect width="16" height="16" fill="white"/>
</clipPath>
</defs>
</svg>
