<svg width="16" height="16" viewBox="0 0 16 16" xmlns="http://www.w3.org/2000/svg"> <g clip-path="url(#clip0_34_4886)"> <path d="M12.1458 0.145917C12.1923 0.099354 12.2474 0.0624111 12.3082 0.0372047C12.3689 0.0119982 12.434 -0.000976563 12.4998 -0.000976562C12.5656 -0.000976562 12.6307 0.0119982 12.6914 0.0372047C12.7522 0.0624111 12.8074 0.099354 12.8538 0.145917L15.8538 3.14592C15.9004 3.19236 15.9373 3.24754 15.9625 3.30828C15.9877 3.36903 16.0007 3.43415 16.0007 3.49992C16.0007 3.56568 15.9877 3.63081 15.9625 3.69155C15.9373 3.7523 15.9004 3.80747 15.8538 3.85392L5.85381 13.8539C5.80582 13.9016 5.74867 13.939 5.68581 13.9639L0.685806 15.9639C0.594942 16.0003 0.495402 16.0092 0.399526 15.9895C0.303649 15.9699 0.215653 15.9225 0.146447 15.8533C0.0772403 15.7841 0.0298668 15.6961 0.0101994 15.6002C-0.0094681 15.5043 -0.000564594 15.4048 0.0358061 15.3139L2.03581 10.3139C2.06073 10.2511 2.09816 10.1939 2.14581 10.1459L12.1458 0.145917ZM11.2068 2.49992L13.4998 4.79292L14.7928 3.49992L12.4998 1.20692L11.2068 2.49992ZM12.7928 5.49992L10.4998 3.20692L3.99981 9.70692V9.99992H4.49981C4.63241 9.99992 4.75959 10.0526 4.85336 10.1464C4.94713 10.2401 4.99981 10.3673 4.99981 10.4999V10.9999H5.49981C5.63241 10.9999 5.75959 11.0526 5.85336 11.1464C5.94713 11.2401 5.99981 11.3673 5.99981 11.4999V11.9999H6.29281L12.7928 5.49992ZM3.03181 10.6749L2.92581 10.7809L1.39781 14.6019L5.21881 13.0739L5.32481 12.9679C5.22943 12.9323 5.1472 12.8684 5.08912 12.7847C5.03104 12.7011 4.99988 12.6017 4.99981 12.4999V11.9999H4.49981C4.3672 11.9999 4.24002 11.9472 4.14625 11.8535C4.05248 11.7597 3.99981 11.6325 3.99981 11.4999V10.9999H3.49981C3.39799 10.9998 3.29862 10.9687 3.21498 10.9106C3.13135 10.8525 3.06744 10.7703 3.03181 10.6749Z"/> </g> <defs> <clipPath id="clip0_34_4886"> <rect width="16" height="16"/> </clipPath> </defs> </svg>