<svg width="16" height="16" viewBox="0 0 16 16" fill="none" xmlns="http://www.w3.org/2000/svg">
<path d="M4 16C4 16 3 16 3 15C3 14 4 11 8 11C12 11 13 14 13 15C13 16 12 16 12 16H4ZM8 10.05C8.66304 10.05 9.29893 9.78661 9.76777 9.31777C10.2366 8.84893 10.5 8.21304 10.5 7.55C10.5 6.88696 10.2366 6.25107 9.76777 5.78223C9.29893 5.31339 8.66304 5.05 8 5.05C7.33696 5.05 6.70107 5.31339 6.23223 5.78223C5.76339 6.25107 5.5 6.88696 5.5 7.55C5.5 8.21304 5.76339 8.84893 6.23223 9.31777C6.70107 9.78661 7.33696 10.05 8 10.05Z" fill="#212529"/>
<path d="M2 1C1.46957 1 0.960859 1.21071 0.585786 1.58579C0.210714 1.96086 0 2.46957 0 3V12.5C0 12.8978 0.158035 13.2794 0.43934 13.5607C0.720644 13.842 1.10218 14 1.5 14H2.153C2.36209 13.2651 2.72551 12.5833 3.219 12H1V3C1 2.73478 1.10536 2.48043 1.29289 2.29289C1.48043 2.10536 1.73478 2 2 2H14C14.2652 2 14.5196 2.10536 14.7071 2.29289C14.8946 2.48043 15 2.73478 15 3V12H12.781C13.335 12.654 13.671 13.373 13.847 14H14.5C14.8978 14 15.2794 13.842 15.5607 13.5607C15.842 13.2794 16 12.8978 16 12.5V3C16 2.46957 15.7893 1.96086 15.4142 1.58579C15.0391 1.21071 14.5304 1 14 1H2Z" fill="#212529"/>
</svg>
