<svg width="16" height="16" viewBox="0 0 16 16" fill="none" xmlns="http://www.w3.org/2000/svg">
<g clip-path="url(#clip0_34_4962)">
<path d="M10 3C10.2652 3 10.5196 3.10536 10.7071 3.29289C10.8947 3.48043 11 3.73478 11 4V12C11 12.2652 10.8947 12.5196 10.7071 12.7071C10.5196 12.8946 10.2652 13 10 13H6.00001C5.73479 13 5.48044 12.8946 5.2929 12.7071C5.10537 12.5196 5.00001 12.2652 5.00001 12V4C5.00001 3.73478 5.10537 3.48043 5.2929 3.29289C5.48044 3.10536 5.73479 3 6.00001 3H10ZM6.00001 2C5.46957 2 4.96087 2.21071 4.58579 2.58579C4.21072 2.96086 4.00001 3.46957 4.00001 4V12C4.00001 12.5304 4.21072 13.0391 4.58579 13.4142C4.96087 13.7893 5.46957 14 6.00001 14H10C10.5304 14 11.0391 13.7893 11.4142 13.4142C11.7893 13.0391 12 12.5304 12 12V4C12 3.46957 11.7893 2.96086 11.4142 2.58579C11.0391 2.21071 10.5304 2 10 2H6.00001Z" fill="#212529"/>
<path d="M8.00001 12C8.26523 12 8.51958 11.8946 8.70712 11.7071C8.89465 11.5196 9.00001 11.2652 9.00001 11C9.00001 10.7348 8.89465 10.4804 8.70712 10.2929C8.51958 10.1054 8.26523 10 8.00001 10C7.73479 10 7.48044 10.1054 7.2929 10.2929C7.10537 10.4804 7.00001 10.7348 7.00001 11C7.00001 11.2652 7.10537 11.5196 7.2929 11.7071C7.48044 11.8946 7.73479 12 8.00001 12ZM1.59901 4.058C1.65706 4.08872 1.7085 4.13057 1.75037 4.18117C1.79225 4.23177 1.82374 4.29013 1.84306 4.35291C1.86238 4.41568 1.86913 4.48165 1.86295 4.54704C1.85676 4.61243 1.83775 4.67596 1.80701 4.734C1.27525 5.7404 0.998175 6.86176 1.00001 8C1.00001 9.18 1.29201 10.292 1.80701 11.266C1.86907 11.3832 1.88202 11.5203 1.84301 11.6471C1.804 11.7739 1.71623 11.8799 1.59901 11.942C1.48178 12.0041 1.3447 12.017 1.21793 11.978C1.09116 11.939 0.985069 11.8512 0.923008 11.734C0.315032 10.5834 -0.00186755 9.30136 8.27941e-06 8C8.27941e-06 6.653 0.334008 5.381 0.923008 4.266C0.953726 4.20794 0.995581 4.15651 1.04618 4.11463C1.09678 4.07276 1.15514 4.04126 1.21792 4.02195C1.28069 4.00263 1.34666 3.99587 1.41205 4.00206C1.47744 4.00825 1.54097 4.02725 1.59901 4.058ZM14.401 4.058C14.459 4.02725 14.5226 4.00825 14.588 4.00206C14.6534 3.99587 14.7193 4.00263 14.7821 4.02195C14.8449 4.04126 14.9032 4.07276 14.9538 4.11463C15.0044 4.15651 15.0463 4.20794 15.077 4.266C15.685 5.4166 16.0019 6.69863 16 8C16.0019 9.30137 15.685 10.5834 15.077 11.734C15.0149 11.8512 14.9089 11.939 14.7821 11.978C14.6553 12.017 14.5182 12.0041 14.401 11.942C14.2838 11.8799 14.196 11.7739 14.157 11.6471C14.118 11.5203 14.1309 11.3832 14.193 11.266C14.7248 10.2596 15.0018 9.13824 15 8C15 6.82 14.708 5.708 14.193 4.734C14.1623 4.67596 14.1433 4.61243 14.1371 4.54704C14.1309 4.48165 14.1376 4.41568 14.157 4.35291C14.1763 4.29013 14.2078 4.23177 14.2496 4.18117C14.2915 4.13057 14.343 4.08872 14.401 4.058ZM3.05701 5.534C3.11823 5.55787 3.17414 5.59357 3.22155 5.63907C3.26896 5.68456 3.30694 5.73895 3.33332 5.79914C3.3597 5.85932 3.37395 5.92411 3.37527 5.9898C3.37659 6.0555 3.36495 6.12081 3.34101 6.182C3.11495 6.76143 2.99929 7.37804 3.00001 8C3.00001 8.642 3.12001 9.255 3.34001 9.818C3.36791 9.8798 3.38296 9.94663 3.38422 10.0144C3.38549 10.0822 3.37295 10.1496 3.34737 10.2124C3.32179 10.2752 3.2837 10.3321 3.23542 10.3797C3.18715 10.4274 3.12969 10.4647 3.06655 10.4894C3.0034 10.5141 2.93589 10.5257 2.86811 10.5235C2.80034 10.5213 2.73372 10.5053 2.67231 10.4766C2.6109 10.4478 2.55597 10.4069 2.51088 10.3563C2.46579 10.3056 2.43147 10.2463 2.41001 10.182C2.13847 9.4866 1.99942 8.74654 2.00001 8C2.00001 7.231 2.14501 6.495 2.41001 5.818C2.45823 5.6946 2.55344 5.59539 2.67475 5.54214C2.79606 5.48889 2.93354 5.48596 3.05701 5.534ZM12.943 5.534C13.0042 5.51006 13.0695 5.49842 13.1352 5.49974C13.2009 5.50106 13.2657 5.51531 13.3259 5.54169C13.3861 5.56806 13.4404 5.60604 13.4859 5.65346C13.5314 5.70087 13.5671 5.75678 13.591 5.818C13.855 6.495 14 7.231 14 8C14 8.769 13.855 9.505 13.59 10.182C13.5373 10.2988 13.4416 10.3909 13.3229 10.4393C13.2042 10.4877 13.0714 10.4886 12.9521 10.4418C12.8327 10.3951 12.7358 10.3043 12.6815 10.1882C12.6271 10.0721 12.6194 9.9396 12.66 9.818C12.88 9.255 13 8.642 13 8C13 7.358 12.88 6.745 12.66 6.182C12.6116 6.05854 12.6142 5.92091 12.6673 5.79939C12.7204 5.67787 12.8196 5.5824 12.943 5.534Z" fill="#212529"/>
</g>
<defs>
<clipPath id="clip0_34_4962">
<rect width="16" height="16" fill="white"/>
</clipPath>
</defs>
</svg>
