<svg width="16" height="16" viewBox="0 0 16 16" fill="none" xmlns="http://www.w3.org/2000/svg">
<g clip-path="url(#clip0_34_4956)">
<path fill-rule="evenodd" clip-rule="evenodd" d="M11 1H5C4.73478 1 4.48043 1.10536 4.29289 1.29289C4.10536 1.48043 4 1.73478 4 2V8C4 8.13261 3.94732 8.25979 3.85355 8.35355C3.75979 8.44732 3.63261 8.5 3.5 8.5C3.36739 8.5 3.24021 8.44732 3.14645 8.35355C3.05268 8.25979 3 8.13261 3 8V2C3 1.46957 3.21071 0.960859 3.58579 0.585786C3.96086 0.210714 4.46957 0 5 0L11 0C11.5304 0 12.0391 0.210714 12.4142 0.585786C12.7893 0.960859 13 1.46957 13 2V8C13 8.13261 12.9473 8.25979 12.8536 8.35355C12.7598 8.44732 12.6326 8.5 12.5 8.5C12.3674 8.5 12.2402 8.44732 12.1464 8.35355C12.0527 8.25979 12 8.13261 12 8V2C12 1.73478 11.8946 1.48043 11.7071 1.29289C11.5196 1.10536 11.2652 1 11 1ZM12 14C12 14.2652 11.8946 14.5196 11.7071 14.7071C11.5196 14.8946 11.2652 15 11 15H5C4.73478 15 4.48043 14.8946 4.29289 14.7071C4.10536 14.5196 4 14.2652 4 14V12C4 11.8674 3.94732 11.7402 3.85355 11.6464C3.75979 11.5527 3.63261 11.5 3.5 11.5C3.36739 11.5 3.24021 11.5527 3.14645 11.6464C3.05268 11.7402 3 11.8674 3 12V14C3 14.5304 3.21071 15.0391 3.58579 15.4142C3.96086 15.7893 4.46957 16 5 16H11C11.5304 16 12.0391 15.7893 12.4142 15.4142C12.7893 15.0391 13 14.5304 13 14V12C13 11.8674 12.9473 11.7402 12.8536 11.6464C12.7598 11.5527 12.6326 11.5 12.5 11.5C12.3674 11.5 12.2402 11.5527 12.1464 11.6464C12.0527 11.7402 12 11.8674 12 12V14ZM1.713 7.954C1.83341 7.89844 1.92681 7.79732 1.97267 7.67289C2.01852 7.54846 2.01306 7.41091 1.9575 7.2905C1.92999 7.23088 1.891 7.17726 1.84277 7.13271C1.79454 7.08816 1.738 7.05354 1.67639 7.03083C1.55196 6.98498 1.41441 6.99044 1.294 7.046C0.947 7.206 0.64 7.394 0.412 7.616C0.184 7.842 0 8.139 0 8.5C0 9.046 0.408 9.44 0.823 9.701C1.263 9.979 1.866 10.211 2.568 10.397C3.978 10.773 5.898 11 8 11C8.099 11 8.197 11 8.294 10.998L7.146 12.146C7.09951 12.1925 7.06264 12.2477 7.03748 12.3084C7.01232 12.3692 6.99937 12.4343 6.99937 12.5C6.99937 12.5657 7.01232 12.6308 7.03748 12.6916C7.06264 12.7523 7.09951 12.8075 7.146 12.854C7.23989 12.9479 7.36722 13.0006 7.5 13.0006C7.56574 13.0006 7.63084 12.9877 7.69158 12.9625C7.75232 12.9374 7.80751 12.9005 7.854 12.854L9.854 10.854C9.90056 10.8076 9.93751 10.7524 9.96271 10.6916C9.98792 10.6309 10.0009 10.5658 10.0009 10.5C10.0009 10.4342 9.98792 10.3691 9.96271 10.3084C9.93751 10.2476 9.90056 10.1924 9.854 10.146L7.854 8.146C7.80751 8.09951 7.75232 8.06264 7.69158 8.03748C7.63084 8.01232 7.56574 7.99937 7.5 7.99937C7.43426 7.99937 7.36916 8.01232 7.30842 8.03748C7.24768 8.06264 7.19249 8.09951 7.146 8.146C7.09951 8.19249 7.06264 8.24768 7.03748 8.30842C7.01232 8.36916 6.99937 8.43426 6.99937 8.5C6.99937 8.56574 7.01232 8.63084 7.03748 8.69158C7.06264 8.75232 7.09951 8.80751 7.146 8.854L8.291 9.998L8 10C5.96 10 4.13 9.779 2.826 9.431C2.17 9.256 1.675 9.057 1.356 8.856C1.012 8.639 1 8.506 1 8.5C1 8.497 1 8.441 1.112 8.33C1.227 8.218 1.422 8.088 1.712 7.954H1.713ZM14.706 7.046C14.5856 6.99044 14.448 6.98498 14.3236 7.03083C14.1992 7.07669 14.0981 7.17009 14.0425 7.2905C13.9869 7.41091 13.9815 7.54846 14.0273 7.67289C14.0732 7.79732 14.1666 7.89844 14.287 7.954C14.579 8.088 14.773 8.218 14.887 8.331C15 8.441 15 8.497 15 8.5C15 8.503 15 8.565 14.87 8.687C14.738 8.809 14.518 8.947 14.193 9.087C13.548 9.367 12.597 9.61 11.43 9.774C11.3005 9.7946 11.1843 9.86524 11.1064 9.97069C11.0285 10.0761 10.9951 10.208 11.0135 10.3378C11.0319 10.4676 11.1005 10.585 11.2046 10.6647C11.3086 10.7445 11.4399 10.7801 11.57 10.764C12.782 10.594 13.83 10.334 14.59 10.006C14.97 9.842 15.303 9.649 15.55 9.419C15.796 9.19 16 8.882 16 8.5C16 8.138 15.816 7.84 15.588 7.617C15.36 7.394 15.053 7.206 14.706 7.046ZM7.5 2C7.36739 2 7.24021 2.05268 7.14645 2.14645C7.05268 2.24021 7 2.36739 7 2.5C7 2.63261 7.05268 2.75979 7.14645 2.85355C7.24021 2.94732 7.36739 3 7.5 3H8.5C8.63261 3 8.75979 2.94732 8.85355 2.85355C8.94732 2.75979 9 2.63261 9 2.5C9 2.36739 8.94732 2.24021 8.85355 2.14645C8.75979 2.05268 8.63261 2 8.5 2H7.5Z" fill="black"/>
</g>
<defs>
<clipPath id="clip0_34_4956">
<rect width="16" height="16" fill="white"/>
</clipPath>
</defs>
</svg>
