<svg width="16" height="16" viewBox="0 0 16 16" xmlns="http://www.w3.org/2000/svg"> <g clip-path="url(#clip0_34_4968)"> <path d="M15.985 8.50014H8.20698L2.70698 14.0001C3.82973 14.9907 5.20793 15.6463 6.68482 15.8923C8.1617 16.1384 9.678 15.965 11.0613 15.392C12.4445 14.819 13.6392 13.8693 14.5095 12.651C15.3797 11.4326 15.8906 9.99446 15.984 8.50014H15.985ZM1.99998 13.2921C1.00944 12.1694 0.353862 10.7912 0.107801 9.3143C-0.138261 7.83741 0.0350724 6.32111 0.608086 4.93786C1.1811 3.5546 2.1308 2.35991 3.34916 1.48966C4.56752 0.619413 6.00565 0.108537 7.49998 0.0151367V7.79314L1.99998 13.2931V13.2921ZM8.49998 0.0151367V7.50014H15.985C15.8631 5.55492 15.0354 3.72109 13.6572 2.34292C12.279 0.964744 10.4452 0.137019 8.49998 0.0151367Z"/> </g> <defs> <clipPath id="clip0_34_4968"> <rect width="16" height="16"/> </clipPath> </defs> </svg>