<svg width="16" height="16" viewBox="0 0 16 16" xmlns="http://www.w3.org/2000/svg"> <path d="M9.82776 0.722169C9.89347 0.722051 9.95855 0.734885 10.0193 0.759937C10.08 0.784989 10.1352 0.821767 10.1818 0.868169L15.1318 5.81817C15.2255 5.91193 15.2782 6.03909 15.2782 6.17167C15.2782 6.30425 15.2255 6.43141 15.1318 6.52517C14.6518 7.00517 14.0598 7.11317 13.6288 7.11317C13.4518 7.11317 13.2938 7.09517 13.1688 7.07417L10.0348 10.2082C10.1173 10.5406 10.1708 10.8795 10.1948 11.2212C10.2408 11.9232 10.1628 12.9082 9.47476 13.5962C9.381 13.6899 9.25384 13.7426 9.12126 13.7426C8.98868 13.7426 8.86152 13.6899 8.76776 13.5962L5.93876 10.7682L2.75676 13.9502C2.56176 14.1452 1.53776 14.8522 1.34276 14.6572C1.14776 14.4622 1.85476 13.4372 2.04976 13.2432L5.23176 10.0612L2.40376 7.23217C2.31002 7.1384 2.25737 7.01125 2.25737 6.87867C2.25737 6.74609 2.31002 6.61893 2.40376 6.52517C3.09176 5.83717 4.07676 5.75817 4.77876 5.80517C5.12042 5.82911 5.45936 5.88264 5.79176 5.96517L8.92576 2.83217C8.8996 2.67989 8.88622 2.52568 8.88576 2.37117C8.88576 1.94117 8.99376 1.34917 9.47476 0.868169C9.56847 0.7747 9.69541 0.722197 9.82776 0.722169ZM9.94976 2.83417V2.83217V2.83417ZM9.94976 2.83217V2.83417C9.97864 2.92214 9.98252 3.0164 9.96098 3.10645C9.93944 3.19649 9.89332 3.27879 9.82776 3.34417L6.29276 6.87817C6.22708 6.94357 6.14451 6.98943 6.05427 7.01062C5.96404 7.03181 5.86969 7.0275 5.78176 6.99817H5.77976L5.76576 6.99417C5.67062 6.96567 5.57457 6.94032 5.47776 6.91817C5.2262 6.85949 4.97041 6.8207 4.71276 6.80217C4.29076 6.77417 3.87676 6.81017 3.53776 6.95217L9.04776 12.4612C9.18876 12.1212 9.22476 11.7082 9.19676 11.2862C9.17128 10.9289 9.1069 10.5755 9.00476 10.2322L9.00076 10.2192V10.2182C8.97123 10.1301 8.96682 10.0356 8.98801 9.94512C9.00921 9.85468 9.05518 9.77194 9.12076 9.70617L12.6568 6.17117C12.7249 6.10266 12.8113 6.05534 12.9057 6.03494C13.0002 6.01453 13.0985 6.0219 13.1888 6.05617L13.2848 6.07817C13.3718 6.09517 13.4928 6.11217 13.6288 6.11217C13.7428 6.11217 13.8588 6.10117 13.9718 6.07217L9.92676 2.02817C9.89776 2.14117 9.88676 2.25817 9.88676 2.37117C9.88725 2.52655 9.90809 2.6812 9.94876 2.83117L9.94976 2.83217Z"/> </svg>