<svg width="16" height="16" viewBox="0 0 16 16" fill="none" xmlns="http://www.w3.org/2000/svg">
<g clip-path="url(#clip0_34_5004)">
<path d="M15.8579 11.451C15.5449 11.846 14.7789 12.127 14.7789 12.127L9.08286 14.173V12.664L13.2749 11.171C13.7509 11.001 13.8239 10.759 13.4369 10.633C13.0509 10.506 12.3519 10.543 11.8769 10.713L9.08286 11.697V10.131L9.24386 10.077C9.24386 10.077 10.0509 9.791 11.1859 9.665C12.3209 9.54 13.7109 9.682 14.8019 10.095C16.0319 10.485 16.1699 11.057 15.8579 11.451ZM9.62486 8.883V5.023C9.62486 4.57 9.54186 4.153 9.11686 4.035C8.79086 3.93 8.58886 4.233 8.58886 4.685V14.349L5.98286 13.522V2C7.09086 2.206 8.70486 2.692 9.57286 2.985C11.7799 3.742 12.5279 4.685 12.5279 6.81C12.5279 8.881 11.2499 9.666 9.62486 8.882V8.883ZM1.20086 12.508C-0.0611408 12.15 -0.271141 11.41 0.303859 10.984C0.835859 10.59 1.73986 10.294 1.73986 10.294L5.47686 8.964V10.479L2.78686 11.442C2.31286 11.612 2.23986 11.853 2.62586 11.98C3.01186 12.106 3.71086 12.07 4.18586 11.9L5.47586 11.431V12.787L5.21886 12.83C3.87307 13.0479 2.49456 12.9371 1.20086 12.507V12.508Z" fill="#212529"/>
</g>
<defs>
<clipPath id="clip0_34_5004">
<rect width="16" height="16" fill="white"/>
</clipPath>
</defs>
</svg>
