<svg width="16" height="16" viewBox="0 0 16 16" fill="none" xmlns="http://www.w3.org/2000/svg">
<g clip-path="url(#clip0_34_5010)">
<path fill-rule="evenodd" clip-rule="evenodd" d="M1 8.00024C1.00018 6.4286 1.52926 4.90275 2.50203 3.66835C3.47481 2.43395 4.83469 1.56283 6.36273 1.19523C7.89077 0.827628 9.49806 0.984945 10.9258 1.64185C12.3536 2.29876 13.5188 3.41702 14.2337 4.81662C14.9487 6.21621 15.1719 7.81569 14.8673 9.35753C14.5628 10.8994 13.7482 12.2939 12.5548 13.3165C11.3614 14.3391 9.85851 14.9304 8.28821 14.9951C6.71791 15.0598 5.17151 14.5942 3.898 13.6732C3.731 13.5522 3.682 13.2672 3.896 13.0532L5.696 11.2532C6.37011 11.7576 7.20343 12.002 8.04316 11.9418C8.8829 11.8816 9.67279 11.5206 10.268 10.9252L11.682 9.51024C11.7757 9.41647 11.8284 9.28932 11.8284 9.15674C11.8284 9.02415 11.7757 8.897 11.682 8.80324L10.975 8.09624L12.534 6.53324C12.5817 6.48704 12.6197 6.43182 12.6458 6.37078C12.6719 6.30974 12.6856 6.24411 12.6861 6.17773C12.6866 6.11134 12.6738 6.04552 12.6486 5.98411C12.6234 5.9227 12.5862 5.86693 12.5392 5.82005C12.4922 5.77317 12.4363 5.73613 12.3748 5.71107C12.3133 5.68602 12.2475 5.67346 12.1811 5.67413C12.1147 5.6748 12.0491 5.68868 11.9881 5.71497C11.9272 5.74126 11.8721 5.77942 11.826 5.82724L10.267 7.38924L8.853 5.97524L10.413 4.41324C10.4626 4.36755 10.5024 4.31232 10.53 4.25086C10.5577 4.1894 10.5727 4.12298 10.574 4.05559C10.5754 3.9882 10.5631 3.92123 10.5379 3.85871C10.5127 3.79619 10.4751 3.73941 10.4274 3.69178C10.3797 3.64415 10.3229 3.60666 10.2604 3.58156C10.1978 3.55645 10.1308 3.54426 10.0634 3.5457C9.99603 3.54714 9.92963 3.5622 9.86821 3.58996C9.80679 3.61772 9.75161 3.65761 9.706 3.70724L8.146 5.26724L7.439 4.56124C7.34524 4.4675 7.21808 4.41484 7.0855 4.41484C6.95292 4.41484 6.82576 4.4675 6.732 4.56124L5.318 5.97524C4.72285 6.57039 4.36211 7.36008 4.30187 8.19959C4.24162 9.0391 4.48593 9.87221 4.99 10.5462L3.19 12.3462C2.61 12.9262 2.57 13.9462 3.311 14.4832C4.76631 15.536 6.53358 16.0684 8.32827 15.9947C10.1229 15.921 11.8406 15.2455 13.2047 14.0769C14.5688 12.9083 15.4999 11.3147 15.8482 9.55259C16.1965 7.79048 15.9416 5.96244 15.1246 4.36279C14.3076 2.76314 12.9761 1.48497 11.3444 0.734075C9.71268 -0.0168227 7.87575 -0.196753 6.12935 0.223254C4.38295 0.64326 2.82871 1.63876 1.71686 3.04948C0.605021 4.4602 0.000277246 6.20404 0 8.00024C0 8.13284 0.0526784 8.26002 0.146447 8.35379C0.240215 8.44756 0.367392 8.50024 0.5 8.50024C0.632608 8.50024 0.759785 8.44756 0.853553 8.35379C0.947322 8.26002 1 8.13284 1 8.00024Z" fill="black"/>
</g>
<defs>
<clipPath id="clip0_34_5010">
<rect width="16" height="16" fill="white"/>
</clipPath>
</defs>
</svg>
