<svg width="16" height="16" viewBox="0 0 16 16" fill="none" xmlns="http://www.w3.org/2000/svg">
<path fill-rule="evenodd" clip-rule="evenodd" d="M4.14645 3.14645C4.24021 3.05268 4.36739 3 4.5 3H11.5C11.6326 3 11.7598 3.05268 11.8536 3.14645C11.9473 3.24021 12 3.36739 12 3.5V12.5C12 12.6326 11.9473 12.7598 11.8536 12.8536C11.7598 12.9473 11.6326 13 11.5 13H4.5C4.36739 13 4.24021 12.9473 4.14645 12.8536C4.05268 12.7598 4 12.6326 4 12.5V3.5C4 3.36739 4.05268 3.24021 4.14645 3.14645ZM8 11C2.175 7.236 6.336 4.31 8 5.982C9.664 4.309 13.825 7.236 8 11Z" fill="black"/>
<path fill-rule="evenodd" clip-rule="evenodd" d="M4.20711 0.707107C4.39464 0.51957 4.5 0.265216 4.5 0H5.5C5.5 0.265216 5.60536 0.51957 5.79289 0.707107C5.98043 0.894643 6.23478 1 6.5 1C6.76522 1 7.01957 0.894643 7.20711 0.707107C7.39464 0.51957 7.5 0.265216 7.5 0H8.5C8.5 0.265216 8.60536 0.51957 8.79289 0.707107C8.98043 0.894643 9.23478 1 9.5 1C9.76522 1 10.0196 0.894643 10.2071 0.707107C10.3946 0.51957 10.5 0.265216 10.5 0H11.5C11.5 0.265216 11.6054 0.51957 11.7929 0.707107C11.9804 0.894643 12.2348 1 12.5 1C12.7652 1 13.0196 0.894643 13.2071 0.707107C13.3946 0.51957 13.5 0.265216 13.5 0H15V1C14.7348 1 14.4804 1.10536 14.2929 1.29289C14.1054 1.48043 14 1.73478 14 2C14 2.26522 14.1054 2.51957 14.2929 2.70711C14.4804 2.89464 14.7348 3 15 3V4C14.7348 4 14.4804 4.10536 14.2929 4.29289C14.1054 4.48043 14 4.73478 14 5C14 5.26522 14.1054 5.51957 14.2929 5.70711C14.4804 5.89464 14.7348 6 15 6V7C14.7348 7 14.4804 7.10536 14.2929 7.29289C14.1054 7.48043 14 7.73478 14 8C14 8.26522 14.1054 8.51957 14.2929 8.70711C14.4804 8.89464 14.7348 9 15 9V10C14.7348 10 14.4804 10.1054 14.2929 10.2929C14.1054 10.4804 14 10.7348 14 11C14 11.2652 14.1054 11.5196 14.2929 11.7071C14.4804 11.8946 14.7348 12 15 12V13C14.7348 13 14.4804 13.1054 14.2929 13.2929C14.1054 13.4804 14 13.7348 14 14C14 14.2652 14.1054 14.5196 14.2929 14.7071C14.4804 14.8946 14.7348 15 15 15V16H13.5C13.5 15.7348 13.3946 15.4804 13.2071 15.2929C13.0196 15.1054 12.7652 15 12.5 15C12.2348 15 11.9804 15.1054 11.7929 15.2929C11.6054 15.4804 11.5 15.7348 11.5 16H10.5C10.5 15.7348 10.3946 15.4804 10.2071 15.2929C10.0196 15.1054 9.76522 15 9.5 15C9.23478 15 8.98043 15.1054 8.79289 15.2929C8.60536 15.4804 8.5 15.7348 8.5 16H7.5C7.5 15.7348 7.39464 15.4804 7.20711 15.2929C7.01957 15.1054 6.76522 15 6.5 15C6.23478 15 5.98043 15.1054 5.79289 15.2929C5.60536 15.4804 5.5 15.7348 5.5 16H4.5C4.5 15.7348 4.39464 15.4804 4.20711 15.2929C4.01957 15.1054 3.76522 15 3.5 15C3.23478 15 2.98043 15.1054 2.79289 15.2929C2.60536 15.4804 2.5 15.7348 2.5 16H1V15C1.26522 15 1.51957 14.8946 1.70711 14.7071C1.89464 14.5196 2 14.2652 2 14C2 13.7348 1.89464 13.4804 1.70711 13.2929C1.51957 13.1054 1.26522 13 1 13V12C1.26522 12 1.51957 11.8946 1.70711 11.7071C1.89464 11.5196 2 11.2652 2 11C2 10.7348 1.89464 10.4804 1.70711 10.2929C1.51957 10.1054 1.26522 10 1 10V9C1.26522 9 1.51957 8.89464 1.70711 8.70711C1.89464 8.51957 2 8.26522 2 8C2 7.73478 1.89464 7.48043 1.70711 7.29289C1.51957 7.10536 1.26522 7 1 7V6C1.26522 6 1.51957 5.89464 1.70711 5.70711C1.89464 5.51957 2 5.26522 2 5C2 4.73478 1.89464 4.48043 1.70711 4.29289C1.51957 4.10536 1.26522 4 1 4V3C1.26522 3 1.51957 2.89464 1.70711 2.70711C1.89464 2.51957 2 2.26522 2 2C2 1.73478 1.89464 1.48043 1.70711 1.29289C1.51957 1.10536 1.26522 1 1 1V0H2.5C2.5 0.265216 2.60536 0.51957 2.79289 0.707107C2.98043 0.894643 3.23478 1 3.5 1C3.76522 1 4.01957 0.894643 4.20711 0.707107ZM3.29289 13.7071C3.48043 13.8946 3.73478 14 4 14H12C12.2652 14 12.5196 13.8946 12.7071 13.7071C12.8946 13.5196 13 13.2652 13 13V3C13 2.73478 12.8946 2.48043 12.7071 2.29289C12.5196 2.10536 12.2652 2 12 2H4C3.73478 2 3.48043 2.10536 3.29289 2.29289C3.10536 2.48043 3 2.73478 3 3V13C3 13.2652 3.10536 13.5196 3.29289 13.7071Z" fill="black"/>
</svg>
