<svg width="16" height="16" viewBox="0 0 16 16" fill="none" xmlns="http://www.w3.org/2000/svg">
<path d="M13.8858 8.07403C13.9612 7.89204 14 7.69698 14 7.5C14 7.10218 13.842 6.72064 13.5607 6.43934C13.2794 6.15804 12.8978 6 12.5 6C12.1022 6 11.7206 6.15804 11.4393 6.43934C11.158 6.72064 11 7.10218 11 7.5C11 7.69698 11.0388 7.89204 11.1142 8.07403C11.1896 8.25601 11.3001 8.42137 11.4393 8.56066C11.5786 8.69995 11.744 8.81044 11.926 8.88582C12.108 8.9612 12.303 9 12.5 9C12.697 9 12.892 8.9612 13.074 8.88582C13.256 8.81044 13.4214 8.69995 13.5607 8.56066C13.6999 8.42137 13.8104 8.25601 13.8858 8.07403Z" fill="#212529"/>
<path d="M2.14645 6.14645C2.24021 6.05268 2.36739 6 2.5 6H6.5C6.63261 6 6.75979 6.05268 6.85355 6.14645C6.94732 6.24021 7 6.36739 7 6.5C7 6.63261 6.94732 6.75979 6.85355 6.85355C6.75979 6.94732 6.63261 7 6.5 7H2.5C2.36739 7 2.24021 6.94732 2.14645 6.85355C2.05268 6.75979 2 6.63261 2 6.5C2 6.36739 2.05268 6.24021 2.14645 6.14645Z" fill="#212529"/>
<path d="M2.14645 8.14645C2.24021 8.05268 2.36739 8 2.5 8H6.5C6.63261 8 6.75979 8.05268 6.85355 8.14645C6.94732 8.24021 7 8.36739 7 8.5C7 8.63261 6.94732 8.75979 6.85355 8.85355C6.75979 8.94732 6.63261 9 6.5 9H2.5C2.36739 9 2.24021 8.94732 2.14645 8.85355C2.05268 8.75979 2 8.63261 2 8.5C2 8.36739 2.05268 8.24021 2.14645 8.14645Z" fill="#212529"/>
<path fill-rule="evenodd" clip-rule="evenodd" d="M0.585786 4.58579C0.210714 4.96086 0 5.46957 0 6V9C0 9.53043 0.210714 10.0391 0.585786 10.4142C0.960859 10.7893 1.46957 11 2 11C2 11.2652 2.10536 11.5196 2.29289 11.7071C2.48043 11.8946 2.73478 12 3 12H4C4.26522 12 4.51957 11.8946 4.70711 11.7071C4.89464 11.5196 5 11.2652 5 11H11C11 11.2652 11.1054 11.5196 11.2929 11.7071C11.4804 11.8946 11.7348 12 12 12H13C13.2652 12 13.5196 11.8946 13.7071 11.7071C13.8946 11.5196 14 11.2652 14 11C14.5304 11 15.0391 10.7893 15.4142 10.4142C15.7893 10.0391 16 9.53043 16 9V6C16 5.46957 15.7893 4.96086 15.4142 4.58579C15.0391 4.21071 14.5304 4 14 4H2C1.46957 4 0.960859 4.21071 0.585786 4.58579ZM14 5H2C1.73478 5 1.48043 5.10536 1.29289 5.29289C1.10536 5.48043 1 5.73478 1 6V9C1 9.26522 1.10536 9.51957 1.29289 9.70711C1.48043 9.89464 1.73478 10 2 10H14C14.2652 10 14.5196 9.89464 14.7071 9.70711C14.8946 9.51957 15 9.26522 15 9V6C15 5.73478 14.8946 5.48043 14.7071 5.29289C14.5196 5.10536 14.2652 5 14 5Z" fill="#212529"/>
</svg>
