<svg width="16" height="16" viewBox="0 0 16 16" xmlns="http://www.w3.org/2000/svg"> <path d="M2 4C1.46957 4 0.960859 4.21071 0.585786 4.58579C0.210714 4.96086 0 5.46957 0 6L0 9C0 9.53043 0.210714 10.0391 0.585786 10.4142C0.960859 10.7893 1.46957 11 2 11C2 11.2652 2.10536 11.5196 2.29289 11.7071C2.48043 11.8946 2.73478 12 3 12H4C4.26522 12 4.51957 11.8946 4.70711 11.7071C4.89464 11.5196 5 11.2652 5 11H11C11 11.2652 11.1054 11.5196 11.2929 11.7071C11.4804 11.8946 11.7348 12 12 12H13C13.2652 12 13.5196 11.8946 13.7071 11.7071C13.8946 11.5196 14 11.2652 14 11C14.5304 11 15.0391 10.7893 15.4142 10.4142C15.7893 10.0391 16 9.53043 16 9V6C16 5.46957 15.7893 4.96086 15.4142 4.58579C15.0391 4.21071 14.5304 4 14 4H2ZM2.5 6H6.5C6.63261 6 6.75979 6.05268 6.85355 6.14645C6.94732 6.24021 7 6.36739 7 6.5C7 6.63261 6.94732 6.75979 6.85355 6.85355C6.75979 6.94732 6.63261 7 6.5 7H2.5C2.36739 7 2.24021 6.94732 2.14645 6.85355C2.05268 6.75979 2 6.63261 2 6.5C2 6.36739 2.05268 6.24021 2.14645 6.14645C2.24021 6.05268 2.36739 6 2.5 6ZM14 7.5C14 7.69698 13.9612 7.89204 13.8858 8.07403C13.8104 8.25601 13.6999 8.42137 13.5607 8.56066C13.4214 8.69995 13.256 8.81044 13.074 8.88582C12.892 8.9612 12.697 9 12.5 9C12.303 9 12.108 8.9612 11.926 8.88582C11.744 8.81044 11.5786 8.69995 11.4393 8.56066C11.3001 8.42137 11.1896 8.25601 11.1142 8.07403C11.0388 7.89204 11 7.69698 11 7.5C11 7.10218 11.158 6.72064 11.4393 6.43934C11.7206 6.15804 12.1022 6 12.5 6C12.8978 6 13.2794 6.15804 13.5607 6.43934C13.842 6.72064 14 7.10218 14 7.5ZM2 8.5C2 8.36739 2.05268 8.24021 2.14645 8.14645C2.24021 8.05268 2.36739 8 2.5 8H6.5C6.63261 8 6.75979 8.05268 6.85355 8.14645C6.94732 8.24021 7 8.36739 7 8.5C7 8.63261 6.94732 8.75979 6.85355 8.85355C6.75979 8.94732 6.63261 9 6.5 9H2.5C2.36739 9 2.24021 8.94732 2.14645 8.85355C2.05268 8.75979 2 8.63261 2 8.5Z"/> </svg>