<svg width="16" height="16" viewBox="0 0 16 16" xmlns="http://www.w3.org/2000/svg"> <path fill-rule="evenodd" clip-rule="evenodd" d="M4.47493 5.458C4.19093 5.458 3.96093 5.221 4.00493 4.941C4.27993 3.24 5.57593 2 7.82493 2C10.0749 2 11.5919 3.36 11.5919 5.215C11.5919 6.559 10.9269 7.503 9.80193 8.188C8.70193 8.847 8.38793 9.306 8.38793 10.198V10.228C8.38793 10.3606 8.33525 10.4878 8.24148 10.5816C8.14772 10.6753 8.02054 10.728 7.88793 10.728H7.11793C6.98618 10.728 6.85976 10.676 6.76613 10.5833C6.67251 10.4906 6.61925 10.3647 6.61793 10.233L6.61493 10.033C6.57193 8.812 7.09193 8.032 8.25993 7.321C9.28993 6.689 9.65693 6.186 9.65693 5.293C9.65693 4.314 8.89893 3.595 7.73093 3.595C6.72193 3.595 6.02093 4.124 5.79293 4.997C5.72693 5.251 5.51493 5.458 5.25293 5.458H4.47593H4.47493ZM7.49593 14C8.11793 14 8.59093 13.526 8.59093 12.91C8.59093 12.292 8.11793 11.818 7.49593 11.818C6.88993 11.818 6.40893 12.292 6.40893 12.909C6.40893 13.526 6.88993 14 7.49593 14Z"/> </svg>