<svg width="16" height="16" viewBox="0 0 16 16" fill="none" xmlns="http://www.w3.org/2000/svg">
<g clip-path="url(#clip0_34_5072)">
<path d="M9.04998 0.435C8.46998 -0.145 7.52998 -0.145 6.94998 0.435L0.435977 6.95C-0.144023 7.53 -0.144023 8.469 0.435977 9.048L6.95198 15.564C7.53198 16.144 8.47098 16.144 9.04998 15.564L15.566 9.048C16.146 8.468 16.146 7.529 15.566 6.95L9.04998 0.435ZM5.49498 6.033C5.46274 6.03344 5.43076 6.02729 5.40098 6.01494C5.3712 6.00259 5.34425 5.9843 5.32179 5.96118C5.29932 5.93806 5.28181 5.9106 5.27032 5.88048C5.25884 5.85036 5.25361 5.81821 5.25498 5.786C5.34998 4.091 6.73698 3.5 8.00498 3.5C9.40098 3.5 10.677 4.23 10.677 5.74C10.677 6.82 10.042 7.334 9.43298 7.797C8.69598 8.356 8.42298 8.565 8.42298 9.283V9.388C8.42298 9.4543 8.39664 9.51789 8.34975 9.56478C8.30287 9.61166 8.23928 9.638 8.17298 9.638H7.36298C7.29736 9.63801 7.23437 9.61222 7.1876 9.5662C7.14083 9.52017 7.11403 9.45761 7.11298 9.392L7.10898 9.175C7.07098 8.248 7.60398 7.677 8.27698 7.188C8.86698 6.744 9.24198 6.452 9.24198 5.817C9.24198 4.992 8.61398 4.649 7.92798 4.649C7.12498 4.649 6.67498 5.127 6.58598 5.783C6.56798 5.92 6.45798 6.033 6.31998 6.033H5.49498ZM7.81998 12.476C7.23598 12.476 6.81098 12.082 6.81098 11.549C6.81098 10.997 7.23598 10.609 7.82098 10.609C8.42998 10.609 8.84898 10.997 8.84898 11.549C8.84898 12.082 8.42898 12.476 7.81998 12.476Z" fill="#212529"/>
</g>
<defs>
<clipPath id="clip0_34_5072">
<rect width="16" height="16" fill="white"/>
</clipPath>
</defs>
</svg>
