<svg width="16" height="16" viewBox="0 0 16 16" xmlns="http://www.w3.org/2000/svg"> <g clip-path="url(#clip0_34_5084)"> <path d="M8.73 12.476C8.176 11.385 7.526 10.283 6.257 10.283C6.015 10.283 5.773 10.323 5.55 10.425L5.12 9.562C5.645 9.112 6.493 8.754 7.584 8.754C9.281 8.754 10.152 9.572 10.844 10.614C11.254 9.724 11.449 8.521 11.449 7.03C11.449 3.306 10.284 1.394 7.564 1.394C4.884 1.394 3.725 3.306 3.725 7.03C3.725 10.734 4.884 12.626 7.565 12.626C7.99 12.626 8.376 12.58 8.731 12.476H8.73ZM9.395 13.776C8.79816 13.9363 8.183 14.0184 7.565 14.02C3.994 14.02 0.5 11.172 0.5 7.03C0.5 2.849 3.995 0 7.564 0C11.194 0 14.654 2.828 14.654 7.03C14.654 9.367 13.564 11.266 11.979 12.494C12.491 13.261 13.019 13.771 13.752 13.771C14.554 13.771 14.877 13.151 14.931 12.666H15.974C16.035 13.313 15.712 16 12.796 16C11.029 16 10.096 14.976 9.396 13.776H9.395Z"/> </g> <defs> <clipPath id="clip0_34_5084"> <rect width="16" height="16"/> </clipPath> </defs> </svg>