<svg width="16" height="16" viewBox="0 0 16 16" xmlns="http://www.w3.org/2000/svg"> <path d="M12.0002 12C12.2654 12 12.5197 11.8946 12.7073 11.7071C12.8948 11.5196 13.0002 11.2652 13.0002 11V8.558C13.0002 8.29278 12.8948 8.03843 12.7073 7.85089C12.5197 7.66336 12.2654 7.558 12.0002 7.558H10.6122C10.6122 7.207 10.6332 6.855 10.6742 6.504C10.7362 6.132 10.8402 5.801 10.9842 5.512C11.1292 5.222 11.3152 4.995 11.5432 4.829C11.7702 4.643 12.0592 4.55 12.4112 4.55V3C11.8322 3 11.3262 3.124 10.8912 3.372C10.46 3.61749 10.0892 3.95645 9.80617 4.364C9.5221 4.81331 9.31272 5.3057 9.18617 5.822C9.05866 6.39176 8.99626 6.97416 9.00017 7.558V11C9.00017 11.2652 9.10553 11.5196 9.29307 11.7071C9.4806 11.8946 9.73496 12 10.0002 12H12.0002ZM6.00017 12C6.26539 12 6.51974 11.8946 6.70728 11.7071C6.89482 11.5196 7.00017 11.2652 7.00017 11V8.558C7.00017 8.29278 6.89482 8.03843 6.70728 7.85089C6.51974 7.66336 6.26539 7.558 6.00017 7.558H4.61217C4.61217 7.207 4.63317 6.855 4.67417 6.504C4.73617 6.132 4.84017 5.801 4.98417 5.512C5.12917 5.222 5.31517 4.995 5.54317 4.829C5.77017 4.643 6.05917 4.55 6.41117 4.55V3C5.83217 3 5.32617 3.124 4.89117 3.372C4.45996 3.61749 4.08922 3.95645 3.80617 4.364C3.5221 4.81331 3.31272 5.3057 3.18617 5.822C3.05866 6.39176 2.99626 6.97416 3.00017 7.558V11C3.00017 11.2652 3.10553 11.5196 3.29307 11.7071C3.4806 11.8946 3.73496 12 4.00017 12H6.00017Z"/> </svg>