<svg width="16" height="16" viewBox="0 0 16 16" xmlns="http://www.w3.org/2000/svg"> <g clip-path="url(#clip0_34_5088)"> <path d="M8 1C6.14348 1 4.36301 1.7375 3.05025 3.05025C1.7375 4.36301 1 6.14348 1 8C1 9.85652 1.7375 11.637 3.05025 12.9497C4.36301 14.2625 6.14348 15 8 15C9.85652 15 11.637 14.2625 12.9497 12.9497C14.2625 11.637 15 9.85652 15 8C15 6.14348 14.2625 4.36301 12.9497 3.05025C11.637 1.7375 9.85652 1 8 1ZM0 8C0 5.87827 0.842855 3.84344 2.34315 2.34315C3.84344 0.842855 5.87827 0 8 0C10.1217 0 12.1566 0.842855 13.6569 2.34315C15.1571 3.84344 16 5.87827 16 8C16 10.1217 15.1571 12.1566 13.6569 13.6569C12.1566 15.1571 10.1217 16 8 16C5.87827 16 3.84344 15.1571 2.34315 13.6569C0.842855 12.1566 0 10.1217 0 8Z"/> <path d="M9.653 5.496C9.16283 5.17157 8.58781 4.99903 8 5C7.39 5 6.821 5.183 6.347 5.496L4.694 2.992C5.67434 2.34314 6.82438 1.99806 8 2C9.222 2 10.358 2.365 11.306 2.992L9.653 5.496ZM10.995 7.82C11.0215 8.24617 10.9563 8.67307 10.8038 9.07191C10.6514 9.47075 10.4151 9.83224 10.111 10.132C9.88539 10.3554 9.62584 10.5417 9.342 10.684L10.684 13.367C11.254 13.081 11.774 12.707 12.222 12.264C12.8293 11.6638 13.3011 10.9407 13.6059 10.1432C13.9106 9.34568 14.0413 8.49218 13.989 7.64L10.995 7.82ZM5.316 13.368L6.658 10.684C6.13216 10.4211 5.69515 10.0095 5.40127 9.50031C5.10739 8.99114 4.96959 8.40683 5.005 7.82L2.011 7.64C1.94019 8.81367 2.21578 9.98227 2.80354 11.0006C3.3913 12.019 4.26431 12.8422 5.316 13.368ZM10 8C10 8.53043 9.78929 9.03914 9.41421 9.41421C9.03914 9.78929 8.53043 10 8 10C7.46957 10 6.96086 9.78929 6.58579 9.41421C6.21071 9.03914 6 8.53043 6 8C6 7.46957 6.21071 6.96086 6.58579 6.58579C6.96086 6.21071 7.46957 6 8 6C8.53043 6 9.03914 6.21071 9.41421 6.58579C9.78929 6.96086 10 7.46957 10 8Z"/> </g> <defs> <clipPath id="clip0_34_5088"> <rect width="16" height="16"/> </clipPath> </defs> </svg>