<svg width="16" height="16" viewBox="0 0 16 16" xmlns="http://www.w3.org/2000/svg"> <g clip-path="url(#clip0_34_5122)"> <path d="M9.30215 1.25613C9.1709 1.02671 8.98136 0.836037 8.75272 0.703427C8.52408 0.570817 8.26446 0.500977 8.00015 0.500977C7.73584 0.500977 7.47622 0.570817 7.24758 0.703427C7.01894 0.836037 6.8294 1.02671 6.69815 1.25613L4.99415 4.23613C4.92824 4.35137 4.91081 4.48806 4.9457 4.61615C4.98058 4.74424 5.06491 4.85322 5.18015 4.91913C5.29539 4.98504 5.43208 5.00247 5.56017 4.96758C5.68826 4.9327 5.79724 4.84837 5.86315 4.73313L7.56615 1.75213C7.6099 1.67566 7.67308 1.6121 7.74929 1.5679C7.82551 1.52369 7.91205 1.50041 8.00015 1.50041C8.08825 1.50041 8.17479 1.52369 8.25101 1.5679C8.32722 1.6121 8.3904 1.67566 8.43415 1.75213L10.9741 6.19613L9.71815 5.85913C9.59005 5.82465 9.4535 5.84247 9.33854 5.90867C9.22358 5.97487 9.13963 6.08403 9.10515 6.21213C9.07067 6.34023 9.08849 6.47678 9.15469 6.59174C9.22089 6.7067 9.33005 6.79065 9.45815 6.82513L11.8731 7.47213C11.9366 7.48923 12.0028 7.49366 12.0679 7.48517C12.133 7.47668 12.1959 7.45544 12.2528 7.42265C12.3097 7.38987 12.3596 7.34619 12.3997 7.29411C12.4397 7.24203 12.4691 7.18257 12.4861 7.11913L13.1331 4.70413C13.1502 4.6407 13.1545 4.57454 13.1459 4.50944C13.1374 4.44433 13.1161 4.38154 13.0833 4.32467C13.0504 4.26779 13.0067 4.21794 12.9546 4.17795C12.9025 4.13797 12.8431 4.10864 12.7796 4.09163C12.7162 4.07462 12.6501 4.07028 12.585 4.07884C12.5198 4.0874 12.4571 4.1087 12.4002 4.14153C12.3433 4.17435 12.2935 4.21806 12.2535 4.27015C12.2135 4.32224 12.1842 4.3817 12.1671 4.44513L11.8341 5.68713L9.30215 1.25613ZM2.97315 7.77313L1.71815 8.11013C1.59005 8.14461 1.4535 8.12679 1.33854 8.06059C1.22358 7.99439 1.13963 7.88523 1.10515 7.75713C1.07067 7.62903 1.08849 7.49248 1.15469 7.37752C1.22089 7.26256 1.33005 7.17861 1.45815 7.14413L3.87415 6.49713C4.00211 6.4629 4.13843 6.48085 4.25317 6.54703C4.36791 6.61322 4.4517 6.72223 4.48615 6.85013L5.13315 9.26513C5.16749 9.39323 5.14955 9.52973 5.08325 9.64459C5.01696 9.75946 4.90775 9.84328 4.77965 9.87763C4.65155 9.91198 4.51505 9.89403 4.40019 9.82773C4.28532 9.76144 4.20149 9.65223 4.16715 9.52413L3.83415 8.28213L1.28915 12.7361C1.24572 12.8122 1.22302 12.8983 1.22331 12.9858C1.22361 13.0734 1.24689 13.1593 1.29083 13.2351C1.33478 13.3108 1.39784 13.3737 1.47371 13.4174C1.54957 13.4611 1.63559 13.4841 1.72315 13.4841H5.00015C5.13276 13.4841 5.25993 13.5368 5.3537 13.6306C5.44747 13.7243 5.50015 13.8515 5.50015 13.9841C5.50015 14.1167 5.44747 14.2439 5.3537 14.3377C5.25993 14.4315 5.13276 14.4841 5.00015 14.4841H1.72315C1.46047 14.484 1.20242 14.415 0.974817 14.2839C0.747212 14.1527 0.558033 13.9641 0.426207 13.7369C0.29438 13.5097 0.224529 13.2519 0.223641 12.9892C0.222754 12.7265 0.290861 12.4682 0.421149 12.2401L2.97315 7.77313ZM13.8631 9.23613C13.8315 9.17749 13.7884 9.12578 13.7364 9.08404C13.6844 9.04229 13.6246 9.01136 13.5605 8.99307C13.4964 8.97477 13.4293 8.96947 13.3632 8.97748C13.297 8.9855 13.2331 9.00667 13.1752 9.03974C13.1173 9.07281 13.0667 9.11712 13.0262 9.17006C12.9857 9.223 12.9562 9.2835 12.9394 9.34802C12.9226 9.41253 12.9189 9.47974 12.9285 9.54571C12.938 9.61167 12.9607 9.67506 12.9951 9.73213L14.7111 12.7361C14.7546 12.8122 14.7773 12.8983 14.777 12.9858C14.7767 13.0734 14.7534 13.1593 14.7095 13.2351C14.6655 13.3108 14.6025 13.3737 14.5266 13.4174C14.4507 13.4611 14.3647 13.4841 14.2771 13.4841H8.70715L9.35415 12.8381C9.4479 12.7442 9.50052 12.617 9.50043 12.4843C9.50033 12.3516 9.44754 12.2244 9.35365 12.1306C9.30716 12.0842 9.25198 12.0474 9.19127 12.0223C9.13056 11.9972 9.06549 11.9843 8.99979 11.9844C8.86711 11.9844 8.7399 12.0372 8.64615 12.1311L7.14615 13.6311C7.0995 13.6774 7.06247 13.7325 7.0372 13.7932C7.01193 13.8538 6.99892 13.9189 6.99892 13.9846C6.99892 14.0504 7.01193 14.1154 7.0372 14.1761C7.06247 14.2368 7.0995 14.2918 7.14615 14.3381L8.64615 15.8381C8.7399 15.932 8.86711 15.9848 8.99979 15.9849C9.06549 15.985 9.13056 15.9721 9.19127 15.947C9.25198 15.9219 9.30716 15.8851 9.35365 15.8386C9.40014 15.7922 9.43703 15.7371 9.46221 15.6764C9.48739 15.6157 9.50038 15.5507 9.50043 15.485C9.50047 15.4193 9.48758 15.3542 9.46248 15.2935C9.43738 15.2328 9.40057 15.1776 9.35415 15.1311L8.70715 14.4841H14.2771C14.5398 14.484 14.7979 14.415 15.0255 14.2839C15.2531 14.1527 15.4423 13.9641 15.5741 13.7369C15.7059 13.5097 15.7758 13.2519 15.7767 12.9892C15.7775 12.7265 15.7094 12.4682 15.5791 12.2401L13.8631 9.23613Z"/> </g> <defs> <clipPath id="clip0_34_5122"> <rect width="16" height="16"/> </clipPath> </defs> </svg>