<svg width="16" height="16" viewBox="0 0 16 16" xmlns="http://www.w3.org/2000/svg"> <g clip-path="url(#clip0_34_5128)"> <path d="M8.09813 5.01296C8.12022 5.00324 8.1444 4.99922 8.16845 5.00128C8.1925 5.00334 8.21564 5.01142 8.23575 5.02476C8.25587 5.0381 8.2723 5.05628 8.28355 5.07764C8.2948 5.09899 8.3005 5.12283 8.30013 5.14696V6.29996C8.30013 6.43257 8.35281 6.55974 8.44658 6.65351C8.54035 6.74728 8.66753 6.79996 8.80013 6.79996C9.46713 6.79996 10.8131 6.80496 12.1001 7.62196C13.0841 8.24596 14.0901 9.38196 14.6951 11.498C13.6751 10.515 12.5101 9.98196 11.4901 9.69896C10.8632 9.5258 10.2189 9.42316 9.56913 9.39296C9.30318 9.38128 9.0368 9.38395 8.77113 9.40096H8.75813L8.75313 9.40196H8.75213L8.80013 9.89996L8.75013 9.40196C8.62672 9.41436 8.51231 9.4722 8.42915 9.56423C8.34599 9.65626 8.30001 9.77592 8.30013 9.89996V11.053C8.30013 11.161 8.19013 11.229 8.09813 11.187L4.11413 8.25396C4.10061 8.24393 4.08659 8.23458 4.07213 8.22596C4.05039 8.21289 4.0324 8.19442 4.01991 8.17234C4.00741 8.15026 4.00085 8.12533 4.00085 8.09996C4.00085 8.07459 4.00741 8.04965 4.01991 8.02758C4.0324 8.0055 4.05039 7.98703 4.07213 7.97396C4.0866 7.96534 4.10062 7.956 4.11413 7.94596L8.09813 5.01296ZM9.30013 10.386C9.36813 10.386 9.44313 10.389 9.52313 10.392C9.95713 10.412 10.5571 10.478 11.2231 10.663C12.5491 11.031 14.1191 11.865 15.1631 13.743C15.2196 13.8443 15.3095 13.9229 15.4176 13.9652C15.5256 14.0076 15.645 14.011 15.7553 13.9749C15.8656 13.9389 15.9599 13.8656 16.0221 13.7676C16.0843 13.6697 16.1105 13.5531 16.0961 13.438C15.6321 9.72796 14.2101 7.77596 12.6361 6.77796C11.3911 5.98796 10.1091 5.83596 9.30013 5.80696V5.14696C9.30023 4.94103 9.24473 4.73889 9.1395 4.56187C9.03428 4.38486 8.88322 4.23953 8.70227 4.14122C8.52131 4.04291 8.31718 3.99527 8.11141 4.00332C7.90564 4.01137 7.70585 4.07481 7.53313 4.18696L3.53913 7.12696C3.37401 7.23003 3.23784 7.37342 3.14343 7.54364C3.04902 7.71386 2.99949 7.90531 2.99949 8.09996C2.99949 8.29461 3.04902 8.48605 3.14343 8.65627C3.23784 8.82649 3.37401 8.96989 3.53913 9.07296L7.53313 12.013C7.70585 12.1251 7.90564 12.1886 8.11141 12.1966C8.31718 12.2047 8.52131 12.157 8.70227 12.0587C8.88322 11.9604 9.03428 11.8151 9.1395 11.638C9.24473 11.461 9.30023 11.2589 9.30013 11.053V10.386Z"/> <path d="M5.23213 4.29296C5.19318 4.23997 5.14416 4.19518 5.08788 4.16117C5.03159 4.12715 4.96915 4.10458 4.90413 4.09473C4.8391 4.08488 4.77277 4.08796 4.70894 4.10379C4.64511 4.11961 4.58503 4.14788 4.53213 4.18696L0.540133 7.12696C0.375013 7.23003 0.238839 7.37342 0.144432 7.54364C0.0500239 7.71386 0.000488281 7.90531 0.000488281 8.09996C0.000488281 8.29461 0.0500239 8.48605 0.144432 8.65627C0.238839 8.82649 0.375013 8.96989 0.540133 9.07296L4.53413 12.013C4.58689 12.0533 4.64716 12.0827 4.71142 12.0996C4.77568 12.1164 4.84264 12.1202 4.9084 12.1108C4.97416 12.1015 5.03739 12.0791 5.09441 12.045C5.15142 12.0109 5.20107 11.9658 5.24047 11.9124C5.27986 11.8589 5.30821 11.7981 5.32384 11.7335C5.33948 11.669 5.3421 11.602 5.33155 11.5364C5.321 11.4708 5.29749 11.408 5.26239 11.3516C5.22729 11.2952 5.18131 11.2464 5.12713 11.208L1.11413 8.25396C1.10061 8.24393 1.08659 8.23458 1.07213 8.22596C1.05039 8.21289 1.0324 8.19442 1.01991 8.17234C1.00741 8.15026 1.00085 8.12533 1.00085 8.09996C1.00085 8.07459 1.00741 8.04965 1.01991 8.02758C1.0324 8.0055 1.05039 7.98703 1.07213 7.97396C1.0866 7.96534 1.10061 7.95599 1.11413 7.94596L5.12613 4.99196C5.23286 4.91331 5.30399 4.79549 5.32387 4.66441C5.34375 4.53333 5.31075 4.39972 5.23213 4.29296Z"/> </g> <defs> <clipPath id="clip0_34_5128"> <rect width="16" height="16"/> </clipPath> </defs> </svg>