<svg width="16" height="16" viewBox="0 0 16 16" xmlns="http://www.w3.org/2000/svg"> <path d="M6.59816 5.01296C6.62025 5.00324 6.64443 4.99922 6.66847 5.00128C6.69252 5.00334 6.71566 5.01142 6.73578 5.02476C6.75589 5.0381 6.77233 5.05628 6.78357 5.07764C6.79482 5.09899 6.80053 5.12283 6.80016 5.14696V6.29996C6.80016 6.43257 6.85284 6.55974 6.9466 6.65351C7.04037 6.74728 7.16755 6.79996 7.30016 6.79996C7.96716 6.79996 9.31316 6.80496 10.6002 7.62196C11.5842 8.24596 12.5902 9.38196 13.1952 11.498C12.1752 10.515 11.0102 9.98196 9.99016 9.69896C9.3632 9.5258 8.71888 9.42316 8.06916 9.39296C7.80321 9.38128 7.53682 9.38395 7.27116 9.40096H7.25816L7.25316 9.40196H7.25216L7.30016 9.89996L7.25016 9.40196C7.12674 9.41436 7.01234 9.4722 6.92918 9.56423C6.84602 9.65626 6.80003 9.77592 6.80016 9.89996V11.053C6.80016 11.161 6.69016 11.229 6.59816 11.187L2.61416 8.25396C2.60063 8.24393 2.58662 8.23458 2.57216 8.22596C2.55041 8.21289 2.53242 8.19442 2.51993 8.17234C2.50744 8.15026 2.50087 8.12533 2.50087 8.09996C2.50087 8.07459 2.50744 8.04965 2.51993 8.02758C2.53242 8.0055 2.55041 7.98703 2.57216 7.97396C2.58662 7.96534 2.60064 7.956 2.61416 7.94596L6.59816 5.01296ZM7.80016 10.386C7.86816 10.386 7.94316 10.389 8.02316 10.392C8.45716 10.412 9.05716 10.478 9.72316 10.663C11.0492 11.031 12.6192 11.865 13.6632 13.743C13.7196 13.8443 13.8096 13.9229 13.9176 13.9652C14.0257 14.0076 14.1451 14.011 14.2553 13.9749C14.3656 13.9389 14.4599 13.8656 14.5221 13.7676C14.5843 13.6697 14.6105 13.5531 14.5962 13.438C14.1322 9.72796 12.7102 7.77596 11.1362 6.77796C9.89116 5.98796 8.60916 5.83596 7.80016 5.80696V5.14696C7.80025 4.94103 7.74475 4.73889 7.63953 4.56187C7.5343 4.38486 7.38324 4.23953 7.20229 4.14122C7.02134 4.04291 6.81721 3.99527 6.61143 4.00332C6.40566 4.01137 6.20587 4.07481 6.03316 4.18696L2.03916 7.12696C1.87404 7.23003 1.73786 7.37342 1.64346 7.54364C1.54905 7.71386 1.49951 7.90531 1.49951 8.09996C1.49951 8.29461 1.54905 8.48605 1.64346 8.65627C1.73786 8.82649 1.87404 8.96989 2.03916 9.07296L6.03316 12.013C6.20587 12.1251 6.40566 12.1886 6.61143 12.1966C6.81721 12.2047 7.02134 12.157 7.20229 12.0587C7.38324 11.9604 7.5343 11.8151 7.63953 11.638C7.74475 11.461 7.80025 11.2589 7.80016 11.053V10.386Z"/> </svg>