<svg width="16" height="16" viewBox="0 0 16 16" xmlns="http://www.w3.org/2000/svg"> <path d="M6.66055 2.26624C6.23589 2.44216 5.85004 2.7 5.52503 3.02504C5.43073 3.11612 5.30443 3.16652 5.17333 3.16538C5.04223 3.16424 4.91682 3.11165 4.82412 3.01895C4.73142 2.92624 4.67883 2.80084 4.67769 2.66974C4.67655 2.53864 4.72695 2.41234 4.81803 2.31804C5.23589 1.90017 5.73197 1.5687 6.27794 1.34255C6.82391 1.1164 7.40908 1 8.00003 1C8.59098 1 9.17615 1.1164 9.72212 1.34255C10.2681 1.5687 10.7642 1.90017 11.182 2.31804C11.2298 2.36416 11.2679 2.41933 11.2941 2.48034C11.3203 2.54134 11.3341 2.60695 11.3347 2.67334C11.3352 2.73973 11.3226 2.80557 11.2974 2.86702C11.2723 2.92846 11.2352 2.98429 11.1882 3.03124C11.1413 3.07818 11.0855 3.11531 11.024 3.14045C10.9626 3.16559 10.8967 3.17824 10.8303 3.17766C10.7639 3.17709 10.6983 3.16329 10.6373 3.13709C10.5763 3.11089 10.5212 3.07279 10.475 3.02504C10.15 2.7 9.76417 2.44216 9.3395 2.26624C8.91484 2.09033 8.45969 1.99979 8.00003 1.99979C7.54037 1.99979 7.08522 2.09033 6.66055 2.26624Z"/> <path d="M8 4.0013C7.6025 4.0013 7.22125 4.15908 6.94 4.43998L6.939 4.43898C6.8447 4.53006 6.7184 4.58045 6.5873 4.57932C6.4562 4.57818 6.33079 4.52559 6.23809 4.43289C6.14539 4.34018 6.0928 4.21478 6.09166 4.08368C6.09052 3.95258 6.14092 3.82628 6.232 3.73198C6.46415 3.49976 6.73978 3.31555 7.04314 3.18988C7.3465 3.0642 7.67164 2.99951 8 2.99951C8.32836 2.99951 8.6535 3.0642 8.95686 3.18988C9.26022 3.31555 9.53584 3.49976 9.768 3.73198C9.86189 3.82586 9.91463 3.9532 9.91463 4.08598C9.91463 4.21875 9.86189 4.34609 9.768 4.43998C9.67411 4.53386 9.54677 4.58661 9.414 4.58661C9.28122 4.58661 9.15389 4.53386 9.06 4.43998C8.77875 4.15908 8.3975 4.0013 8 4.0013Z"/> <path d="M2.14645 10.8535C2.24021 10.9473 2.36739 11 2.5 11C2.63261 11 2.75979 10.9473 2.85355 10.8535C2.94732 10.7598 3 10.6326 3 10.5C3 10.3674 2.94732 10.2402 2.85355 10.1464C2.75979 10.0527 2.63261 9.99998 2.5 9.99998C2.36739 9.99998 2.24021 10.0527 2.14645 10.1464C2.05268 10.2402 2 10.3674 2 10.5C2 10.6326 2.05268 10.7598 2.14645 10.8535Z"/> <path d="M7.14645 10.8535C7.05268 10.7598 7 10.6326 7 10.5C7 10.3674 7.05268 10.2402 7.14645 10.1464C7.24021 10.0527 7.36739 9.99998 7.5 9.99998C7.63261 9.99998 7.75979 10.0527 7.85355 10.1464C7.94732 10.2402 8 10.3674 8 10.5C8 10.6326 7.94732 10.7598 7.85355 10.8535C7.75979 10.9473 7.63261 11 7.5 11C7.36739 11 7.24021 10.9473 7.14645 10.8535Z"/> <path d="M9.14645 10.8535C9.24021 10.9473 9.36739 11 9.5 11C9.63261 11 9.75979 10.9473 9.85355 10.8535C9.94732 10.7598 10 10.6326 10 10.5C10 10.3674 9.94732 10.2402 9.85355 10.1464C9.75979 10.0527 9.63261 9.99998 9.5 9.99998C9.36739 9.99998 9.24021 10.0527 9.14645 10.1464C9.05268 10.2402 9 10.3674 9 10.5C9 10.6326 9.05268 10.7598 9.14645 10.8535Z"/> <path d="M11.1464 10.8535C11.0527 10.7598 11 10.6326 11 10.5C11 10.3674 11.0527 10.2402 11.1464 10.1464C11.2402 10.0527 11.3674 9.99998 11.5 9.99998C11.6326 9.99998 11.7598 10.0527 11.8536 10.1464C11.9473 10.2402 12 10.3674 12 10.5C12 10.6326 11.9473 10.7598 11.8536 10.8535C11.7598 10.9473 11.6326 11 11.5 11C11.3674 11 11.2402 10.9473 11.1464 10.8535Z"/> <path d="M13.1464 10.8535C13.0527 10.7598 13 10.6326 13 10.5C13 10.3674 13.0527 10.2402 13.1464 10.1464C13.2402 10.0527 13.3674 9.99998 13.5 9.99998C13.6326 9.99998 13.7598 10.0527 13.8536 10.1464C13.9473 10.2402 14 10.3674 14 10.5C14 10.6326 13.9473 10.7598 13.8536 10.8535C13.7598 10.9473 13.6326 11 13.5 11C13.3674 11 13.2402 10.9473 13.1464 10.8535Z"/> <path fill-rule="evenodd" clip-rule="evenodd" d="M2.974 2.34206C2.95517 2.27749 2.9235 2.21738 2.8809 2.16534C2.8383 2.11329 2.78563 2.07038 2.72605 2.03917C2.66648 2.00795 2.60122 1.98908 2.53418 1.98367C2.46713 1.97827 2.39969 1.98645 2.33589 2.00771C2.27208 2.02898 2.21322 2.06291 2.16283 2.10745C2.11244 2.152 2.07156 2.20626 2.04262 2.26698C2.01369 2.32769 1.99731 2.39362 1.99445 2.46082C1.99159 2.52802 2.00233 2.5951 2.026 2.65806L3.806 8.00006H1.5C1.10218 8.00006 0.720644 8.15809 0.43934 8.4394C0.158035 8.7207 0 9.10223 0 9.50006V11.5001C0 11.8979 0.158035 12.2794 0.43934 12.5607C0.720644 12.842 1.10218 13.0001 1.5 13.0001H2C2 13.1327 2.05268 13.2598 2.14645 13.3536C2.24021 13.4474 2.36739 13.5001 2.5 13.5001H4.5C4.63261 13.5001 4.75979 13.4474 4.85355 13.3536C4.94732 13.2598 5 13.1327 5 13.0001H11C11 13.1327 11.0527 13.2598 11.1464 13.3536C11.2402 13.4474 11.3674 13.5001 11.5 13.5001H13.5C13.6326 13.5001 13.7598 13.4474 13.8536 13.3536C13.9473 13.2598 14 13.1327 14 13.0001H14.5C14.8978 13.0001 15.2794 12.842 15.5607 12.5607C15.842 12.2794 16 11.8979 16 11.5001V9.50006C16 9.10223 15.842 8.7207 15.5607 8.4394C15.2794 8.15809 14.8978 8.00006 14.5 8.00006H12.194L13.974 2.65806C13.9977 2.5951 14.0084 2.52802 14.0055 2.46082C14.0027 2.39362 13.9863 2.32769 13.9574 2.26698C13.9284 2.20626 13.8876 2.152 13.8372 2.10745C13.7868 2.06291 13.7279 2.02898 13.6641 2.00771C13.6003 1.98645 13.5329 1.97827 13.4658 1.98367C13.3988 1.98908 13.3335 2.00795 13.2739 2.03917C13.2144 2.07038 13.1617 2.11329 13.1191 2.16534C13.0765 2.21738 13.0448 2.27749 13.026 2.34206L11.14 8.00006H4.86L2.974 2.34206ZM14.5 9.00006C14.6326 9.00006 14.7598 9.05273 14.8536 9.1465C14.9473 9.24027 15 9.36745 15 9.50006V11.5001C15 11.6327 14.9473 11.7598 14.8536 11.8536C14.7598 11.9474 14.6326 12.0001 14.5 12.0001H1.5C1.36739 12.0001 1.24021 11.9474 1.14645 11.8536C1.05268 11.7598 1 11.6327 1 11.5001V9.50006C1 9.36745 1.05268 9.24027 1.14645 9.1465C1.24021 9.05273 1.36739 9.00006 1.5 9.00006H14.5Z"/> <path d="M8.35355 5.85355C8.44732 5.75979 8.5 5.63261 8.5 5.5C8.5 5.36739 8.44732 5.24021 8.35355 5.14645C8.25979 5.05268 8.13261 5 8 5C7.86739 5 7.74021 5.05268 7.64645 5.14645C7.55268 5.24021 7.5 5.36739 7.5 5.5C7.5 5.63261 7.55268 5.75979 7.64645 5.85355C7.74021 5.94732 7.86739 6 8 6C8.13261 6 8.25979 5.94732 8.35355 5.85355Z"/> </svg>