<svg width="16" height="16" viewBox="0 0 16 16" fill="none" xmlns="http://www.w3.org/2000/svg">
<g clip-path="url(#clip0_34_5172)">
<path d="M6.49999 4.48196C8.16399 2.80896 12.325 5.73596 6.49999 9.49996C0.674985 5.73596 4.83599 2.80996 6.49999 4.48196Z" fill="black"/>
<path fill-rule="evenodd" clip-rule="evenodd" d="M11.742 10.3438C12.5613 9.22978 13.0022 7.88262 13 6.49978C12.9997 5.03852 12.5071 3.61997 11.6016 2.47308C10.6961 1.3262 9.43052 0.517887 8.00918 0.17861C6.58785 -0.160668 5.09366 -0.0111201 3.76776 0.603118C2.44186 1.21736 1.36161 2.26045 0.701353 3.56404C0.0411 4.86764 -0.160637 6.35569 0.128703 7.78802C0.418042 9.22036 1.18158 10.5134 2.29608 11.4585C3.41058 12.4036 4.81102 12.9456 6.27138 12.997C7.73121 13.0483 9.16577 12.6065 10.3437 11.7427C10.3739 11.7832 10.4071 11.8213 10.443 11.8568L14.293 15.7068C14.4806 15.8943 14.7351 15.9996 15.0004 15.9995C15.2656 15.9994 15.52 15.8939 15.7075 15.7063C15.895 15.5186 16.0003 15.2642 16.0002 14.9989C16.0001 14.7337 15.8946 14.4793 15.707 14.2918L11.857 10.4418C11.82 10.4058 11.782 10.3738 11.742 10.3438ZM8.60477 11.5811C7.93748 11.8575 7.22228 11.9998 6.50001 11.9998C5.04132 11.9998 3.64237 11.4203 2.61092 10.3889C1.57947 9.35742 1.00001 7.95847 1.00001 6.49978C1.00001 5.04109 1.57947 3.64214 2.61092 2.61069C3.64237 1.57924 5.04132 0.999781 6.50001 0.999781C7.22228 0.999781 7.93748 1.14204 8.60477 1.41844C9.27206 1.69484 9.87837 2.09997 10.3891 2.61069C10.8998 3.12142 11.3049 3.72773 11.5813 4.39502C11.8577 5.06231 12 5.77751 12 6.49978C12 7.22205 11.8577 7.93725 11.5813 8.60454C11.3049 9.27183 10.8998 9.87815 10.3891 10.3889C9.87837 10.8996 9.27206 11.3047 8.60477 11.5811Z" fill="black"/>
</g>
<defs>
<clipPath id="clip0_34_5172">
<rect width="16" height="16" fill="white"/>
</clipPath>
</defs>
</svg>
