<svg width="16" height="16" viewBox="0 0 16 16" xmlns="http://www.w3.org/2000/svg"> <g clip-path="url(#clip0_34_5198)"> <path fill-rule="evenodd" clip-rule="evenodd" d="M15.9898 0.399526C16.0095 0.495402 16.0006 0.594942 15.9642 0.685806L13.1642 7.68581C13.1407 7.74807 13.1051 7.80502 13.0593 7.85332C13.0135 7.90162 12.9586 7.9403 12.8977 7.9671C12.8368 7.9939 12.7712 8.00828 12.7046 8.00938C12.6381 8.01049 12.572 7.99831 12.5103 7.97355C12.4485 7.9488 12.3923 7.91196 12.345 7.86521C12.2976 7.81846 12.2601 7.76273 12.2346 7.70128C12.2091 7.63984 12.196 7.57392 12.1963 7.50738C12.1966 7.44085 12.2102 7.37504 12.2362 7.31381L14.1312 2.57581L6.63719 10.0698L8.01319 12.2318C8.08125 12.3437 8.10272 12.4778 8.07297 12.6053C8.04322 12.7328 7.96463 12.8436 7.85409 12.9138C7.74355 12.984 7.60989 13.008 7.48182 12.9807C7.35374 12.9534 7.24149 12.877 7.16919 12.7678L5.63819 10.3618L0.643186 7.18381C0.526774 7.10971 0.43306 7.00494 0.372359 6.88101C0.311658 6.75709 0.286323 6.61882 0.299142 6.48142C0.311962 6.34402 0.362439 6.21283 0.445017 6.10227C0.527596 5.99172 0.639076 5.90609 0.767186 5.85481L15.3142 0.0358061C15.4051 -0.000564594 15.5046 -0.0094681 15.6005 0.0101994C15.6963 0.0298668 15.7843 0.0772403 15.8535 0.146447C15.9228 0.215653 15.9701 0.303649 15.9898 0.399526ZM5.93019 9.36281L13.4242 1.86881L1.59119 6.60181L5.93019 9.36281Z"/> <path fill-rule="evenodd" clip-rule="evenodd" d="M13.8396 9.26607C14.2643 9.44197 14.6502 9.69979 14.9752 10.0248C15.6316 10.6812 16.0004 11.5715 16.0004 12.4998C16.0004 13.4281 15.6316 14.3184 14.9752 14.9748C14.3188 15.6312 13.4285 16 12.5002 16C11.5719 16 10.6816 15.6312 10.0252 14.9748C9.70016 14.6498 9.44234 14.2639 9.26643 13.8393C9.09053 13.4146 9 12.9595 9 12.4998C9 12.0402 9.09053 11.585 9.26643 11.1604C9.44234 10.7357 9.70016 10.3498 10.0252 10.0248C10.3502 9.69979 10.7361 9.44197 11.1607 9.26607C11.5854 9.09017 12.0405 8.99963 12.5002 8.99963C12.9598 8.99963 13.415 9.09017 13.8396 9.26607ZM12.249 10.0121C11.6756 10.0701 11.1398 10.3243 10.7322 10.7318C10.3247 11.1394 10.0705 11.6752 10.0125 12.2487C9.95457 12.8221 10.0965 13.3979 10.4142 13.8788L13.8792 10.4138C13.3983 10.0961 12.8225 9.9542 12.249 10.0121ZM14.5862 11.1208L11.1222 14.5858C11.6031 14.9032 12.1778 15.0448 12.751 14.9867C13.3243 14.9286 13.8598 14.6743 14.2673 14.2669C14.6747 13.8595 14.9289 13.3239 14.987 12.7507C15.0451 12.1774 14.9036 11.6017 14.5862 11.1208Z"/> </g> <defs> <clipPath id="clip0_34_5198"> <rect width="16" height="16"/> </clipPath> </defs> </svg>