<svg width="16" height="16" viewBox="0 0 16 16" xmlns="http://www.w3.org/2000/svg"> <g clip-path="url(#clip0_34_5200)"> <path fill-rule="evenodd" clip-rule="evenodd" d="M15.9894 0.399526C16.009 0.495402 16.0001 0.594942 15.9638 0.685806L13.0258 8.02981C12.3947 7.95553 11.7551 8.01575 11.149 8.20648C10.5429 8.39722 9.98402 8.71415 9.50922 9.13643C9.03442 9.5587 8.65444 10.0767 8.39427 10.6565C8.1341 11.2362 7.99965 11.8644 7.99977 12.4998C7.99977 12.9998 7.99977 13.9998 7.22777 12.8598L5.63777 10.3618L0.642773 7.18381L0.641773 7.18181L0.231773 6.92181C0.153875 6.87254 0.0911093 6.8027 0.0504102 6.72001C0.00971105 6.63731 -0.00733788 6.54497 0.00114666 6.4532C0.0096312 6.36142 0.043319 6.27377 0.0984888 6.19994C0.153659 6.1261 0.228163 6.06895 0.313773 6.03481L0.765773 5.85481H0.766773L15.3138 0.0358061C15.4046 -0.000564594 15.5042 -0.0094681 15.6001 0.0101994C15.6959 0.0298668 15.7839 0.0772403 15.8531 0.146447C15.9223 0.215653 15.9697 0.303649 15.9894 0.399526ZM6.63677 10.0698L14.1308 2.57581H14.1318L14.6018 1.39781L13.4238 1.86881L5.92977 9.36281L6.26777 9.57781C6.3298 9.6172 6.38238 9.66978 6.42177 9.73181L6.63677 10.0698Z"/> <path fill-rule="evenodd" clip-rule="evenodd" d="M13.8392 9.26607C14.2639 9.44197 14.6497 9.69979 14.9748 10.0248C15.6312 10.6812 15.9999 11.5715 15.9999 12.4998C15.9999 13.4281 15.6312 14.3184 14.9748 14.9748C14.3183 15.6312 13.4281 16 12.4998 16C11.5714 16 10.6812 15.6312 10.0248 14.9748C9.69973 14.6498 9.44191 14.2639 9.26601 13.8393C9.09011 13.4146 8.99957 12.9595 8.99957 12.4998C8.99957 12.0402 9.09011 11.585 9.26601 11.1604C9.44191 10.7357 9.69973 10.3498 10.0248 10.0248C10.3498 9.69979 10.7356 9.44197 11.1603 9.26607C11.585 9.09017 12.0401 8.99963 12.4998 8.99963C12.9594 8.99963 13.4145 9.09017 13.8392 9.26607ZM12.2486 10.0121C11.6752 10.0701 11.1393 10.3243 10.7318 10.7318C10.3243 11.1394 10.07 11.6752 10.0121 12.2487C9.95414 12.8221 10.096 13.3979 10.4138 13.8788L13.8788 10.4138C13.3979 10.0961 12.822 9.9542 12.2486 10.0121ZM14.5858 11.1208L11.1218 14.5858C11.6026 14.9032 12.1774 15.0448 12.7506 14.9867C13.3238 14.9286 13.8594 14.6743 14.2668 14.2669C14.6743 13.8595 14.9285 13.3239 14.9866 12.7507C15.0447 12.1774 14.9031 11.6017 14.5858 11.1208Z"/> </g> <defs> <clipPath id="clip0_34_5200"> <rect width="16" height="16"/> </clipPath> </defs> </svg>