<svg width="16" height="16" viewBox="0 0 16 16" fill="none" xmlns="http://www.w3.org/2000/svg">
<g clip-path="url(#clip0_34_5202)">
<path fill-rule="evenodd" clip-rule="evenodd" d="M15.9898 0.399526C16.0095 0.495402 16.0006 0.594942 15.9642 0.685806L13.1642 7.68581C13.1407 7.74807 13.1051 7.80502 13.0593 7.85332C13.0135 7.90162 12.9586 7.9403 12.8977 7.9671C12.8368 7.9939 12.7712 8.00828 12.7046 8.00938C12.6381 8.01049 12.572 7.99831 12.5103 7.97355C12.4485 7.9488 12.3923 7.91196 12.345 7.86521C12.2976 7.81846 12.2601 7.76273 12.2346 7.70128C12.2091 7.63984 12.196 7.57392 12.1963 7.50738C12.1966 7.44085 12.2102 7.37504 12.2362 7.31381L14.1312 2.57581L6.63719 10.0698L8.01319 12.2318C8.08125 12.3437 8.10272 12.4778 8.07297 12.6053C8.04322 12.7328 7.96463 12.8436 7.85409 12.9138C7.74355 12.984 7.60989 13.008 7.48182 12.9807C7.35374 12.9534 7.24149 12.877 7.16919 12.7678L5.63819 10.3618L0.643186 7.18381C0.526774 7.10971 0.43306 7.00494 0.372359 6.88101C0.311658 6.75709 0.286323 6.61882 0.299142 6.48142C0.311962 6.34402 0.362439 6.21283 0.445017 6.10227C0.527596 5.99172 0.639076 5.90609 0.767186 5.85481L15.3142 0.0358061C15.4051 -0.000564594 15.5046 -0.0094681 15.6005 0.0101994C15.6963 0.0298668 15.7843 0.0772403 15.8535 0.146447C15.9228 0.215653 15.9701 0.303649 15.9898 0.399526ZM5.93019 9.36281L13.4242 1.86881L1.59119 6.60181L5.93019 9.36281Z" fill="#212529"/>
<path fill-rule="evenodd" clip-rule="evenodd" d="M14.9751 14.9746C15.6314 14.3183 16.0002 13.428 16.0002 12.4998C16.0002 11.5715 15.6314 10.6813 14.9751 10.0249C14.3187 9.36851 13.4284 8.99976 12.5002 8.99976C11.5719 8.99976 10.6817 9.36851 10.0253 10.0249C9.36893 10.6813 9.00018 11.5715 9.00018 12.4998C9.00018 13.428 9.36893 14.3183 10.0253 14.9746C10.6817 15.631 11.5719 15.9998 12.5002 15.9998C13.4284 15.9998 14.3187 15.631 14.9751 14.9746ZM11.0375 11.3081C11.0627 11.2474 11.0996 11.1922 11.1462 11.1458C11.1926 11.0992 11.2478 11.0623 11.3085 11.037C11.3693 11.0118 11.4344 10.9989 11.5002 10.9989C11.566 10.9989 11.6311 11.0118 11.6918 11.037C11.7526 11.0623 11.8077 11.0992 11.8542 11.1458L12.5002 11.7928L13.1462 11.1458C13.2401 11.0519 13.3674 10.9991 13.5002 10.9991C13.633 10.9991 13.7603 11.0519 13.8542 11.1458C13.9481 11.2396 14.0008 11.367 14.0008 11.4998C14.0008 11.6325 13.9481 11.7599 13.8542 11.8538L13.2072 12.4998L13.8542 13.1458C13.9481 13.2396 14.0008 13.367 14.0008 13.4998C14.0008 13.6325 13.9481 13.7599 13.8542 13.8538C13.7603 13.9476 13.633 14.0004 13.5002 14.0004C13.3674 14.0004 13.2401 13.9476 13.1462 13.8538L12.5002 13.2068L11.8542 13.8538C11.7603 13.9476 11.633 14.0004 11.5002 14.0004C11.3674 14.0004 11.2401 13.9476 11.1462 13.8538C11.0523 13.7599 10.9996 13.6325 10.9996 13.4998C10.9996 13.367 11.0523 13.2396 11.1462 13.1458L11.7932 12.4998L11.1462 11.8538C11.0996 11.8073 11.0627 11.7521 11.0375 11.6914C11.0123 11.6306 10.9993 11.5655 10.9993 11.4998C10.9993 11.434 11.0123 11.3689 11.0375 11.3081Z" fill="#212529"/>
</g>
<defs>
<clipPath id="clip0_34_5202">
<rect width="16" height="16" fill="white"/>
</clipPath>
</defs>
</svg>
