<svg width="16" height="16" viewBox="0 0 16 16" xmlns="http://www.w3.org/2000/svg"> <g clip-path="url(#clip0_34_5192)"> <path fill-rule="evenodd" clip-rule="evenodd" d="M15.9638 0.685806C16.0001 0.594942 16.009 0.495402 15.9894 0.399526C15.9697 0.303649 15.9223 0.215653 15.8531 0.146447C15.7839 0.0772403 15.6959 0.0298668 15.6001 0.0101994C15.5042 -0.0094681 15.4046 -0.000564594 15.3138 0.0358061L0.766773 5.85481H0.765773L0.313773 6.03481C0.228163 6.06895 0.153659 6.1261 0.0984888 6.19994C0.043319 6.27377 0.0096312 6.36142 0.00114666 6.4532C-0.00733788 6.54497 0.00971105 6.63731 0.0504102 6.72001C0.0911093 6.8027 0.153875 6.87254 0.231773 6.92181L0.641773 7.18181L0.642773 7.18381L5.63777 10.3618L8.81577 15.3568L8.81777 15.3588L9.07777 15.7688C9.1272 15.8464 9.19707 15.9089 9.27971 15.9493C9.36234 15.9897 9.45453 16.0066 9.54613 15.998C9.63773 15.9894 9.72519 15.9558 9.79888 15.9007C9.87256 15.8456 9.92962 15.7712 9.96377 15.6858L15.9638 0.685806ZM14.1308 2.57581L14.6018 1.39781L13.4238 1.86881L5.92977 9.36281L6.26777 9.57781C6.3298 9.6172 6.38238 9.66978 6.42177 9.73181L6.63677 10.0698L14.1308 2.57581Z"/> </g> <defs> <clipPath id="clip0_34_5192"> <rect width="16" height="16"/> </clipPath> </defs> </svg>