<svg width="16" height="16" viewBox="0 0 16 16" xmlns="http://www.w3.org/2000/svg"> <g clip-path="url(#clip0_34_5180)"> <path fill-rule="evenodd" clip-rule="evenodd" d="M15.9898 0.399526C16.0095 0.495402 16.0006 0.594942 15.9642 0.685806L13.1642 7.68581C13.1407 7.74807 13.1051 7.80502 13.0593 7.85332C13.0135 7.90162 12.9586 7.9403 12.8977 7.9671C12.8368 7.9939 12.7712 8.00828 12.7046 8.00938C12.6381 8.01049 12.572 7.99831 12.5103 7.97355C12.4485 7.9488 12.3923 7.91196 12.345 7.86521C12.2976 7.81846 12.2601 7.76273 12.2346 7.70128C12.2091 7.63984 12.196 7.57392 12.1963 7.50738C12.1966 7.44085 12.2102 7.37504 12.2362 7.31381L14.1312 2.57581L6.63719 10.0698L8.01319 12.2318C8.08125 12.3437 8.10272 12.4778 8.07297 12.6053C8.04322 12.7328 7.96463 12.8436 7.85409 12.9138C7.74355 12.984 7.60989 13.008 7.48182 12.9807C7.35374 12.9534 7.24149 12.877 7.16919 12.7678L5.63819 10.3618L0.643186 7.18381C0.526774 7.10971 0.43306 7.00494 0.372359 6.88101C0.311658 6.75709 0.286323 6.61882 0.299142 6.48142C0.311962 6.34402 0.362439 6.21283 0.445017 6.10227C0.527596 5.99172 0.639076 5.90609 0.767186 5.85481L15.3142 0.0358061C15.4051 -0.000564594 15.5046 -0.0094681 15.6005 0.0101994C15.6963 0.0298668 15.7843 0.0772403 15.8535 0.146447C15.9228 0.215653 15.9701 0.303649 15.9898 0.399526ZM5.93019 9.36281L13.4242 1.86881L1.59119 6.60181L5.93019 9.36281Z"/> <path fill-rule="evenodd" clip-rule="evenodd" d="M14.9751 14.9746C15.6314 14.3183 16.0002 13.428 16.0002 12.4998C16.0002 11.5715 15.6314 10.6813 14.9751 10.0249C14.3187 9.36851 13.4284 8.99976 12.5002 8.99976C11.5719 8.99976 10.6817 9.36851 10.0253 10.0249C9.36893 10.6813 9.00018 11.5715 9.00018 12.4998C9.00018 13.428 9.36893 14.3183 10.0253 14.9746C10.6817 15.631 11.5719 15.9998 12.5002 15.9998C13.4284 15.9998 14.3187 15.631 14.9751 14.9746ZM13.8234 10.755C13.8884 10.7647 13.9508 10.787 14.0072 10.8208C14.0635 10.8545 14.1127 10.899 14.1518 10.9517C14.191 11.0045 14.2193 11.0644 14.2353 11.1281C14.2513 11.1918 14.2545 11.2581 14.2449 11.323C14.2353 11.388 14.2129 11.4504 14.1792 11.5068L12.8442 13.7328C12.7855 13.8306 12.7053 13.9137 12.6097 13.9758C12.5141 14.038 12.4055 14.0775 12.2923 14.0914C12.1791 14.1052 12.0643 14.0931 11.9565 14.0559C11.8487 14.0188 11.7507 13.9575 11.6702 13.8768L10.8962 13.1038C10.8023 13.0099 10.7496 12.8825 10.7496 12.7498C10.7496 12.617 10.8023 12.4896 10.8962 12.3958C10.9901 12.3019 11.1174 12.2491 11.2502 12.2491C11.383 12.2491 11.5103 12.3019 11.6042 12.3958L12.1512 12.9428L13.3212 10.9928C13.3549 10.9364 13.3994 10.8873 13.4522 10.8481C13.5049 10.809 13.5648 10.7806 13.6286 10.7646C13.6923 10.7487 13.7585 10.7454 13.8234 10.755Z"/> </g> <defs> <clipPath id="clip0_34_5180"> <rect width="16" height="16"/> </clipPath> </defs> </svg>