<svg width="16" height="16" viewBox="0 0 16 16" fill="none" xmlns="http://www.w3.org/2000/svg">
<g clip-path="url(#clip0_34_5204)">
<path fill-rule="evenodd" clip-rule="evenodd" d="M15.9894 0.399526C16.009 0.495402 16.0001 0.594942 15.9638 0.685806L13.0258 8.02981C12.3947 7.95553 11.7551 8.01575 11.149 8.20648C10.5429 8.39722 9.98402 8.71415 9.50922 9.13643C9.03442 9.5587 8.65444 10.0767 8.39427 10.6565C8.1341 11.2362 7.99965 11.8644 7.99977 12.4998C7.99977 12.9998 7.99977 13.9998 7.22777 12.8598L5.63777 10.3618L0.642773 7.18381L0.641773 7.18181L0.231773 6.92181C0.153875 6.87254 0.0911093 6.8027 0.0504102 6.72001C0.00971105 6.63731 -0.00733788 6.54497 0.00114666 6.4532C0.0096312 6.36142 0.043319 6.27377 0.0984888 6.19994C0.153659 6.1261 0.228163 6.06895 0.313773 6.03481L0.765773 5.85481H0.766773L15.3138 0.0358061C15.4046 -0.000564594 15.5042 -0.0094681 15.6001 0.0101994C15.6959 0.0298668 15.7839 0.0772403 15.8531 0.146447C15.9223 0.215653 15.9697 0.303649 15.9894 0.399526ZM6.63677 10.0698L14.1308 2.57581H14.1318L14.6018 1.39781L13.4238 1.86881L5.92977 9.36281L6.26777 9.57781C6.3298 9.6172 6.38238 9.66978 6.42177 9.73181L6.63677 10.0698Z" fill="#212529"/>
<path fill-rule="evenodd" clip-rule="evenodd" d="M14.9746 14.9746C15.631 14.3183 15.9998 13.428 15.9998 12.4998C15.9998 11.5715 15.631 10.6813 14.9746 10.0249C14.3183 9.36851 13.428 8.99976 12.4998 8.99976C11.5715 8.99976 10.6813 9.36851 10.0249 10.0249C9.36851 10.6813 8.99976 11.5715 8.99976 12.4998C8.99976 13.428 9.36851 14.3183 10.0249 14.9746C10.6813 15.631 11.5715 15.9998 12.4998 15.9998C13.428 15.9998 14.3183 15.631 14.9746 14.9746ZM11.037 11.3081C11.0623 11.2474 11.0992 11.1922 11.1458 11.1458C11.1922 11.0992 11.2474 11.0623 11.3081 11.037C11.3689 11.0118 11.434 10.9989 11.4998 10.9989C11.5655 10.9989 11.6306 11.0118 11.6914 11.037C11.7521 11.0623 11.8073 11.0992 11.8538 11.1458L12.4998 11.7928L13.1458 11.1458C13.2396 11.0519 13.367 10.9991 13.4998 10.9991C13.6325 10.9991 13.7599 11.0519 13.8538 11.1458C13.9476 11.2396 14.0004 11.367 14.0004 11.4998C14.0004 11.6325 13.9476 11.7599 13.8538 11.8538L13.2068 12.4998L13.8538 13.1458C13.9476 13.2396 14.0004 13.367 14.0004 13.4998C14.0004 13.6325 13.9476 13.7599 13.8538 13.8538C13.7599 13.9476 13.6325 14.0004 13.4998 14.0004C13.367 14.0004 13.2396 13.9476 13.1458 13.8538L12.4998 13.2068L11.8538 13.8538C11.7599 13.9476 11.6325 14.0004 11.4998 14.0004C11.367 14.0004 11.2396 13.9476 11.1458 13.8538C11.0519 13.7599 10.9991 13.6325 10.9991 13.4998C10.9991 13.367 11.0519 13.2396 11.1458 13.1458L11.7928 12.4998L11.1458 11.8538C11.0992 11.8073 11.0623 11.7521 11.037 11.6914C11.0118 11.6306 10.9989 11.5655 10.9989 11.4998C10.9989 11.434 11.0118 11.3689 11.037 11.3081Z" fill="#212529"/>
</g>
<defs>
<clipPath id="clip0_34_5204">
<rect width="16" height="16" fill="white"/>
</clipPath>
</defs>
</svg>
