<svg width="16" height="16" viewBox="0 0 16 16" xmlns="http://www.w3.org/2000/svg"> <path d="M1.33301 2.667C1.33301 1.194 4.31801 0 8.00001 0C11.682 0 14.667 1.194 14.667 2.667V4C14.667 5.473 11.682 6.667 8.00001 6.667C4.31801 6.667 1.33301 5.473 1.33301 4V2.667Z"/> <path d="M1.33301 6.334V9.334C1.33301 10.805 4.31801 12 8.00001 12C11.682 12 14.667 10.806 14.667 9.333V6.334C14.2167 6.65841 13.7267 6.92389 13.209 7.124C11.81 7.684 9.96701 8 8.00001 8C6.03401 8 4.19101 7.683 2.79201 7.124C2.27431 6.92391 1.78433 6.65843 1.33401 6.334H1.33301Z"/> <path d="M14.667 11.668C14.2166 11.9921 13.7266 12.2572 13.209 12.457C11.809 13.017 9.96701 13.333 7.99901 13.333C6.03301 13.333 4.19001 13.017 2.79101 12.457C2.27332 12.2569 1.78334 11.9914 1.33301 11.667V13.333C1.33301 14.806 4.31801 16 8.00001 16C11.682 16 14.667 14.806 14.667 13.333V11.668Z"/> </svg>