<svg width="16" height="16" viewBox="0 0 16 16" fill="none" xmlns="http://www.w3.org/2000/svg">
<g clip-path="url(#clip0_34_5210)">
<path d="M10.9998 2.49983C10.9997 1.91326 11.2059 1.34534 11.5822 0.895437C11.9586 0.445532 12.4812 0.142289 13.0585 0.0387629C13.6359 -0.0647635 14.2313 0.0380191 14.7405 0.329128C15.2497 0.620237 15.6404 1.08113 15.8441 1.63118C16.0479 2.18123 16.0517 2.78541 15.855 3.338C15.6582 3.89059 15.2735 4.35641 14.768 4.65397C14.2625 4.95152 13.6685 5.06186 13.0898 4.96568C12.5112 4.86949 11.9848 4.57291 11.6028 4.12783L4.88478 7.24783C5.03922 7.73727 5.03922 8.26239 4.88478 8.75183L11.6028 11.8718C12.0066 11.4022 12.5704 11.0991 13.185 11.0215C13.7995 10.9438 14.421 11.0971 14.929 11.4515C15.4369 11.806 15.7952 12.3364 15.9344 12.9399C16.0736 13.5435 15.9838 14.1773 15.6824 14.7184C15.3809 15.2595 14.8893 15.6695 14.3029 15.8688C13.7164 16.0681 13.0768 16.0426 12.5081 15.7972C11.9393 15.5519 11.4819 15.1041 11.2245 14.5407C10.9671 13.9773 10.928 13.3384 11.1148 12.7478L4.39678 9.62783C4.06421 10.0154 3.62093 10.2918 3.12656 10.4199C2.63218 10.548 2.11044 10.5216 1.63152 10.3443C1.15259 10.167 0.739453 9.84726 0.447684 9.42811C0.155916 9.00897 -0.000488281 8.51052 -0.000488281 7.99983C-0.000488281 7.48913 0.155916 6.99068 0.447684 6.57154C0.739453 6.15239 1.15259 5.83266 1.63152 5.65535C2.11044 5.47803 2.63218 5.45165 3.12656 5.57974C3.62093 5.70783 4.06421 5.98426 4.39678 6.37183L11.1148 3.25183C11.0383 3.00849 10.9995 2.75489 10.9998 2.49983Z" fill="#212529"/>
</g>
<defs>
<clipPath id="clip0_34_5210">
<rect width="16" height="16" fill="white"/>
</clipPath>
</defs>
</svg>
