<svg width="16" height="16" viewBox="0 0 16 16" xmlns="http://www.w3.org/2000/svg"> <path d="M7.27006 2.04702C7.3636 1.94711 7.47665 1.86746 7.60222 1.81301C7.72778 1.75856 7.86319 1.73047 8.00006 1.73047C8.13692 1.73047 8.27233 1.75856 8.3979 1.81301C8.52346 1.86746 8.63652 1.94711 8.73006 2.04702L15.0751 8.81702C15.6751 9.45502 15.2211 10.5 14.3451 10.5H11.5001V13.5C11.5001 13.7652 11.3947 14.0196 11.2072 14.2071C11.0196 14.3947 10.7653 14.5 10.5001 14.5H5.50006C5.23484 14.5 4.98049 14.3947 4.79295 14.2071C4.60541 14.0196 4.50006 13.7652 4.50006 13.5V10.5H1.65406C0.780057 10.5 0.326057 9.45502 0.924057 8.81602L7.27006 2.04702Z"/> </svg>