<svg width="16" height="16" viewBox="0 0 16 16" xmlns="http://www.w3.org/2000/svg"> <path fill-rule="evenodd" clip-rule="evenodd" d="M0 3.50009C0 3.36748 0.0526784 3.2403 0.146447 3.14653C0.240215 3.05276 0.367392 3.00009 0.5 3.00009H1C3.202 3.00009 4.827 4.24009 5.874 5.41809C6.364 5.97009 6.739 6.52009 7 6.95009C7.26 6.52009 7.636 5.97009 8.126 5.41809C9.173 4.24009 10.798 3.00009 13 3.00009V4.00009C11.202 4.00009 9.827 5.01009 8.874 6.08209C8.3587 6.66575 7.91613 7.30979 7.556 8.00009C7.91582 8.69033 8.35805 9.33437 8.873 9.91809C9.828 10.9901 11.204 12.0001 13 12.0001V13.0001C10.798 13.0001 9.173 11.7601 8.126 10.5821C7.70551 10.1062 7.32866 9.59347 7 9.05009C6.74 9.48009 6.364 10.0301 5.874 10.5821C4.827 11.7601 3.202 13.0001 1 13.0001H0.5C0.367392 13.0001 0.240215 12.9474 0.146447 12.8536C0.0526784 12.7599 0 12.6327 0 12.5001C0 12.3675 0.0526784 12.2403 0.146447 12.1465C0.240215 12.0528 0.367392 12.0001 0.5 12.0001H1C2.798 12.0001 4.173 10.9901 5.126 9.91809C5.6413 9.33442 6.08387 8.69038 6.444 8.00009C6.08418 7.30985 5.64195 6.66581 5.127 6.08209C4.172 5.01009 2.796 4.00009 1 4.00009H0.5C0.367392 4.00009 0.240215 3.94741 0.146447 3.85364C0.0526784 3.75987 0 3.63269 0 3.50009Z"/> <path d="M13 5.46609V1.53409C13 1.48658 13.0136 1.44007 13.0391 1.39999C13.0646 1.35991 13.101 1.32792 13.144 1.30778C13.187 1.28763 13.2349 1.28016 13.282 1.28623C13.3291 1.29231 13.3735 1.31168 13.41 1.34209L15.77 3.30809C15.89 3.40809 15.89 3.59209 15.77 3.69209L13.41 5.65809C13.3735 5.68849 13.3291 5.70786 13.282 5.71394C13.2349 5.72002 13.187 5.71254 13.144 5.6924C13.101 5.67225 13.0646 5.64027 13.0391 5.60019C13.0136 5.56011 13 5.51359 13 5.46609ZM13 14.4661V10.5341C13 10.4866 13.0136 10.4401 13.0391 10.4C13.0646 10.3599 13.101 10.3279 13.144 10.3078C13.187 10.2876 13.2349 10.2802 13.282 10.2862C13.3291 10.2923 13.3735 10.3117 13.41 10.3421L15.77 12.3081C15.89 12.4081 15.89 12.5921 15.77 12.6921L13.41 14.6581C13.3735 14.6885 13.3291 14.7079 13.282 14.7139C13.2349 14.72 13.187 14.7125 13.144 14.6924C13.101 14.6722 13.0646 14.6403 13.0391 14.6002C13.0136 14.5601 13 14.5136 13 14.4661Z"/> </svg>