<svg width="16" height="16" viewBox="0 0 16 16" xmlns="http://www.w3.org/2000/svg"> <path d="M7.293 0.706849C7.10545 0.894342 7.00006 1.14865 7 1.41385V3.99985H2C1.73478 3.99985 1.48043 4.10521 1.29289 4.29274C1.10536 4.48028 1 4.73463 1 4.99985V8.99985C1 9.26507 1.10536 9.51942 1.29289 9.70696C1.48043 9.89449 1.73478 9.99985 2 9.99985H7V15.9998H9V9.99985H12.532C12.6786 9.99979 12.8233 9.96752 12.9561 9.90531C13.0888 9.8431 13.2062 9.75247 13.3 9.63985L15.233 7.31985C15.3078 7.23001 15.3488 7.11678 15.3488 6.99985C15.3488 6.88292 15.3078 6.76969 15.233 6.67985L13.3 4.35985C13.2062 4.24723 13.0888 4.1566 12.9561 4.09439C12.8233 4.03218 12.6786 3.9999 12.532 3.99985H9V1.41385C8.99996 1.2161 8.94129 1.0228 8.8314 0.858391C8.72152 0.693981 8.56535 0.565841 8.38265 0.490171C8.19995 0.414501 7.99892 0.394698 7.80497 0.433266C7.61102 0.471834 7.43285 0.56704 7.293 0.706849Z"/> </svg>