<svg width="16" height="16" viewBox="0 0 16 16" xmlns="http://www.w3.org/2000/svg"> <g clip-path="url(#clip0_34_5256)"> <path d="M6.07985 0.233869L6.25885 0.960869C5.55088 1.13574 4.87329 1.41621 4.24885 1.79287L3.86585 1.14987C4.55267 0.733839 5.29892 0.424956 6.07885 0.233869H6.07985ZM9.91985 0.233869L9.74185 0.959868C10.4498 1.13475 11.1274 1.41523 11.7518 1.79187L12.1398 1.14887C11.4504 0.733327 10.7019 0.424815 9.91985 0.233869ZM1.14985 3.86387C0.734243 4.55162 0.425395 5.29846 0.233849 6.07887L0.960849 6.25887C1.13572 5.5509 1.41619 4.87331 1.79285 4.24887L1.14985 3.86287V3.86387ZM0.749849 7.99987C0.749772 7.63636 0.776847 7.27335 0.830849 6.91387L0.0908487 6.79987C-0.0296318 7.59466 -0.0296318 8.40308 0.0908487 9.19787L0.830849 9.08587C0.776706 8.72641 0.749629 8.36339 0.749849 7.99987ZM12.1338 14.8479L11.7498 14.2079C11.1265 14.5844 10.4499 14.8645 9.74285 15.0389L9.92285 15.7669C10.7019 15.5737 11.4474 15.2639 12.1338 14.8479ZM15.2508 7.99987C15.2508 8.36387 15.2228 8.72687 15.1688 9.08587L15.9088 9.19787C16.0299 8.40311 16.0299 7.59462 15.9088 6.79987L15.1688 6.91387C15.2228 7.27387 15.2508 7.63587 15.2508 7.99987ZM15.7668 9.91787L15.0388 9.73787C14.8643 10.4466 14.5839 11.1249 14.2068 11.7499L14.8498 12.1369C15.2663 11.448 15.5755 10.6998 15.7668 9.91787ZM9.08685 15.1679C8.36685 15.2779 7.63385 15.2779 6.91385 15.1679L6.80185 15.9099C7.59598 16.0303 8.40372 16.0303 9.19785 15.9099L9.08585 15.1689L9.08685 15.1679ZM13.8368 12.2999C13.4047 12.8857 12.8865 13.4028 12.2998 13.8339L12.7458 14.4389C13.3916 13.9632 13.9629 13.394 14.4408 12.7499L13.8368 12.2999ZM12.2998 2.16287C12.8868 2.59487 13.4048 3.11287 13.8368 3.69987L14.4408 3.24987C13.9647 2.60532 13.3951 2.03539 12.7508 1.55887L12.3008 2.16287H12.2998ZM2.16285 3.69987C2.59494 3.11313 3.11311 2.59496 3.69985 2.16287L3.24985 1.55887C2.6053 2.03501 2.03537 2.60461 1.55885 3.24887L2.16285 3.69887V3.69987ZM14.8508 3.86287L14.2068 4.24987C14.5838 4.87287 14.8648 5.54987 15.0388 6.25687L15.7668 6.07687C15.5754 5.29674 15.2665 4.55022 14.8508 3.86287ZM6.91285 0.830868C7.63275 0.721864 8.36495 0.721864 9.08485 0.830868L9.19685 0.0908685C8.40273 -0.0296385 7.59497 -0.0296385 6.80085 0.0908685L6.91285 0.830868ZM2.54685 14.6399L0.999849 14.9999L1.35985 13.4509L0.630849 13.2809L0.269849 14.8289C0.240682 14.953 0.243669 15.0826 0.278528 15.2053C0.313386 15.328 0.378964 15.4398 0.469061 15.5301C0.559158 15.6204 0.670797 15.6862 0.793422 15.7214C0.916047 15.7565 1.04561 15.7598 1.16985 15.7309L2.71785 15.3739L2.54785 14.6399H2.54685ZM0.785849 12.6119L1.51785 12.7799L1.76785 11.7069C1.40247 11.0949 1.13016 10.432 0.959849 9.73987L0.232849 9.91987C0.396034 10.5827 0.643376 11.2219 0.968849 11.8219L0.784849 12.6119H0.785849ZM4.28585 14.2349L3.21285 14.4849L3.38285 15.2159L4.17285 15.0319C4.77285 15.3589 5.41185 15.6059 6.07485 15.7689L6.25485 15.0409C5.56435 14.869 4.90316 14.5957 4.29285 14.2299L4.28585 14.2349ZM7.99985 1.49987C6.2761 1.50093 4.62332 2.18643 3.40483 3.40567C2.18633 4.62492 1.50185 6.27812 1.50185 8.00187C1.50383 9.22435 1.84967 10.4216 2.49985 11.4569L1.87485 14.1249L4.53985 13.4999C5.99754 14.3748 7.73991 14.6439 9.39365 14.2497C11.0474 13.8554 12.4809 12.8291 13.3871 11.3907C14.2934 9.95229 14.6001 8.21615 14.2417 6.55427C13.8834 4.89239 12.8883 3.43698 11.4698 2.49987C10.4305 1.84627 9.22763 1.49963 7.99985 1.49987Z"/> </g> <defs> <clipPath id="clip0_34_5256"> <rect width="16" height="16"/> </clipPath> </defs> </svg>