<svg width="16" height="16" viewBox="0 0 16 16" xmlns="http://www.w3.org/2000/svg"> <g clip-path="url(#clip0_34_5262)"> <path d="M7.293 0.706849C7.10545 0.894342 7.00006 1.14865 7 1.41385V1.99985H2C1.73478 1.99985 1.48043 2.10521 1.29289 2.29274C1.10536 2.48028 1 2.73463 1 2.99985V4.99985C1 5.26507 1.10536 5.51942 1.29289 5.70696C1.48043 5.89449 1.73478 5.99985 2 5.99985H7V6.99985H2.5C2.34475 6.99985 2.19164 7.03599 2.05279 7.10542C1.91393 7.17485 1.79315 7.27565 1.7 7.39985L0.725 8.69985C0.660089 8.7864 0.625 8.89166 0.625 8.99985C0.625 9.10803 0.660089 9.2133 0.725 9.29985L1.7 10.5998C1.79315 10.724 1.91393 10.8248 2.05279 10.8943C2.19164 10.9637 2.34475 10.9998 2.5 10.9998H7V15.9998H9V10.9998H14C14.2652 10.9998 14.5196 10.8945 14.7071 10.707C14.8946 10.5194 15 10.2651 15 9.99985V7.99985C15 7.73463 14.8946 7.48028 14.7071 7.29274C14.5196 7.10521 14.2652 6.99985 14 6.99985H9V5.99985H13.5C13.6552 5.99985 13.8084 5.9637 13.9472 5.89428C14.0861 5.82485 14.2069 5.72405 14.3 5.59985L15.275 4.29985C15.3399 4.2133 15.375 4.10803 15.375 3.99985C15.375 3.89166 15.3399 3.7864 15.275 3.69985L14.3 2.39985C14.2069 2.27565 14.0861 2.17485 13.9472 2.10542C13.8084 2.03599 13.6552 1.99985 13.5 1.99985H9V1.41385C8.99996 1.2161 8.94129 1.0228 8.8314 0.858391C8.72152 0.693981 8.56535 0.565841 8.38265 0.490171C8.19995 0.414501 7.99892 0.394698 7.80497 0.433266C7.61102 0.471834 7.43285 0.56704 7.293 0.706849Z"/> </g> <defs> <clipPath id="clip0_34_5262"> <rect width="16" height="16"/> </clipPath> </defs> </svg>