<svg width="16" height="16" viewBox="0 0 16 16" xmlns="http://www.w3.org/2000/svg"> <g clip-path="url(#clip0_34_5280)"> <path d="M8 15C6.14348 15 4.36301 14.2625 3.05025 12.9497C1.7375 11.637 1 9.85652 1 8C1 6.14348 1.7375 4.36301 3.05025 3.05025C4.36301 1.7375 6.14348 1 8 1C9.85652 1 11.637 1.7375 12.9497 3.05025C14.2625 4.36301 15 6.14348 15 8C15 9.85652 14.2625 11.637 12.9497 12.9497C11.637 14.2625 9.85652 15 8 15ZM8 16C10.1217 16 12.1566 15.1571 13.6569 13.6569C15.1571 12.1566 16 10.1217 16 8C16 5.87827 15.1571 3.84344 13.6569 2.34315C12.1566 0.842855 10.1217 0 8 0C5.87827 0 3.84344 0.842855 2.34315 2.34315C0.842855 3.84344 0 5.87827 0 8C0 10.1217 0.842855 12.1566 2.34315 13.6569C3.84344 15.1571 5.87827 16 8 16Z"/> <path d="M11.729 5.055C11.6472 5.01289 11.5554 4.99415 11.4637 5.00086C11.3719 5.00756 11.2838 5.03944 11.209 5.093L8.5 7.028V5.5C8.49994 5.40822 8.47463 5.31823 8.42682 5.23988C8.37902 5.16154 8.31058 5.09786 8.22899 5.05583C8.1474 5.01379 8.05582 4.99503 7.96428 5.00159C7.87274 5.00814 7.78476 5.03977 7.71 5.093L5 7.028V5.5C5 5.36739 4.94732 5.24021 4.85355 5.14645C4.75979 5.05268 4.63261 5 4.5 5C4.36739 5 4.24021 5.05268 4.14645 5.14645C4.05268 5.24021 4 5.36739 4 5.5V10.5C4 10.6326 4.05268 10.7598 4.14645 10.8536C4.24021 10.9473 4.36739 11 4.5 11C4.63261 11 4.75979 10.9473 4.85355 10.8536C4.94732 10.7598 5 10.6326 5 10.5V8.972L7.71 10.907C7.78476 10.9602 7.87274 10.9919 7.96428 10.9984C8.05582 11.005 8.1474 10.9862 8.22899 10.9442C8.31058 10.9021 8.37902 10.8385 8.42682 10.7601C8.47463 10.6818 8.49994 10.5918 8.5 10.5V8.972L11.21 10.907C11.2848 10.9602 11.3727 10.9919 11.4643 10.9984C11.5558 11.005 11.6474 10.9862 11.729 10.9442C11.8106 10.9021 11.879 10.8385 11.9268 10.7601C11.9746 10.6818 11.9999 10.5918 12 10.5V5.5C12.0001 5.40808 11.9749 5.31792 11.927 5.23941C11.8792 5.16091 11.8107 5.0971 11.729 5.055Z"/> </g> <defs> <clipPath id="clip0_34_5280"> <rect width="16" height="16"/> </clipPath> </defs> </svg>