<svg width="16" height="16" viewBox="0 0 16 16" fill="none" xmlns="http://www.w3.org/2000/svg">
<path d="M15.5 3.49986C15.6326 3.49986 15.7598 3.55254 15.8536 3.64631C15.9473 3.74007 16 3.86725 16 3.99986V11.9999C16 12.1325 15.9473 12.2596 15.8536 12.3534C15.7598 12.4472 15.6326 12.4999 15.5 12.4999C15.3674 12.4999 15.2402 12.4472 15.1464 12.3534C15.0527 12.2596 15 12.1325 15 11.9999V8.75286L8.733 12.3889C8.193 12.7019 7.5 12.3229 7.5 11.6919V8.75186L1.233 12.3879C0.693 12.7029 0 12.3239 0 11.6929V4.30786C0 3.67786 0.693 3.29786 1.233 3.61186L7.5 7.24786V4.30786C7.5 3.67786 8.193 3.29786 8.733 3.61186L15 7.24786V3.99986C15 3.86725 15.0527 3.74007 15.1464 3.64631C15.2402 3.55254 15.3674 3.49986 15.5 3.49986Z" fill="#212529"/>
</svg>
