<svg width="16" height="16" viewBox="0 0 16 16" xmlns="http://www.w3.org/2000/svg"> <g clip-path="url(#clip0_34_5292)"> <path d="M8 15C6.14348 15 4.36301 14.2625 3.05025 12.9497C1.7375 11.637 1 9.85652 1 8C1 6.14348 1.7375 4.36301 3.05025 3.05025C4.36301 1.7375 6.14348 1 8 1C9.85652 1 11.637 1.7375 12.9497 3.05025C14.2625 4.36301 15 6.14348 15 8C15 9.85652 14.2625 11.637 12.9497 12.9497C11.637 14.2625 9.85652 15 8 15ZM8 16C10.1217 16 12.1566 15.1571 13.6569 13.6569C15.1571 12.1566 16 10.1217 16 8C16 5.87827 15.1571 3.84344 13.6569 2.34315C12.1566 0.842855 10.1217 0 8 0C5.87827 0 3.84344 0.842855 2.34315 2.34315C0.842855 3.84344 0 5.87827 0 8C0 10.1217 0.842855 12.1566 2.34315 13.6569C3.84344 15.1571 5.87827 16 8 16Z"/> <path d="M6.271 5.055C6.35278 5.01289 6.4446 4.99415 6.53635 5.00086C6.62809 5.00756 6.71621 5.03944 6.791 5.093L9.5 7.028V5.5C9.5 5.36739 9.55268 5.24021 9.64645 5.14645C9.74021 5.05268 9.86739 5 10 5C10.1326 5 10.2598 5.05268 10.3536 5.14645C10.4473 5.24021 10.5 5.36739 10.5 5.5V10.5C10.5 10.6326 10.4473 10.7598 10.3536 10.8536C10.2598 10.9473 10.1326 11 10 11C9.86739 11 9.74021 10.9473 9.64645 10.8536C9.55268 10.7598 9.5 10.6326 9.5 10.5V8.972L6.79 10.907C6.71524 10.9602 6.62726 10.9919 6.53572 10.9984C6.44418 11.005 6.35259 10.9862 6.27101 10.9442C6.18942 10.9021 6.12098 10.8385 6.07317 10.7601C6.02537 10.6818 6.00006 10.5918 6 10.5V5.5C5.9999 5.40808 6.02515 5.31792 6.07296 5.23941C6.12077 5.16091 6.18929 5.0971 6.271 5.055Z"/> </g> <defs> <clipPath id="clip0_34_5292"> <rect width="16" height="16"/> </clipPath> </defs> </svg>