<svg width="16" height="16" viewBox="0 0 16 16" xmlns="http://www.w3.org/2000/svg"> <g clip-path="url(#clip0_34_5322)"> <path d="M4.67091 0C5.55091 0 6.40391 0.247 7.13891 0.702C8.2367 0.585156 9.34672 0.714648 10.3881 1.08105C11.4296 1.44744 12.3761 2.04152 13.1589 2.82C13.8451 3.50418 14.3897 4.31693 14.7616 5.21177C15.1334 6.10661 15.3252 7.06598 15.3259 8.035C15.3259 8.379 15.3019 8.722 15.2539 9.061C15.6461 9.75734 15.8527 10.5428 15.8539 11.342C15.8539 11.9543 15.7329 12.5605 15.4978 13.1258C15.2626 13.6911 14.9181 14.2043 14.4839 14.636C13.6069 15.5106 12.4185 16.0012 11.1799 16C10.3399 16 9.52191 15.774 8.80991 15.356C7.69788 15.4888 6.57022 15.3682 5.5114 15.0033C4.45258 14.6384 3.49005 14.0387 2.69591 13.249C2.00989 12.5649 1.46541 11.7523 1.09359 10.8576C0.721765 9.96298 0.529883 9.00384 0.52891 8.035C0.52891 7.672 0.55491 7.311 0.60891 6.954C0.104403 6.06802 -0.0945226 5.04063 0.0428294 4.03037C0.180181 3.02011 0.646177 2.08313 1.36891 1.364C2.24566 0.490822 3.43252 0.000398173 4.66991 0L4.67091 0ZM5.11791 7.01C5.29791 7.319 5.54791 7.582 5.84691 7.779C6.24299 8.0382 6.66411 8.25696 7.10391 8.432C7.59591 8.637 7.97691 8.812 8.24891 8.955C8.47791 9.067 8.68591 9.219 8.86391 9.403C8.99891 9.545 9.07391 9.734 9.07391 9.931C9.07954 10.0695 9.05208 10.2073 8.99382 10.333C8.93557 10.4587 8.84818 10.5688 8.73891 10.654C8.44791 10.85 8.09891 10.943 7.74891 10.918C7.38913 10.9221 7.03238 10.852 6.70091 10.712C6.52143 10.6322 6.34404 10.5479 6.16891 10.459C5.98801 10.3629 5.78674 10.3115 5.58191 10.309C5.39854 10.3014 5.21923 10.3644 5.08091 10.485C5.0148 10.5478 4.96312 10.6243 4.92946 10.7091C4.89579 10.7938 4.88093 10.8849 4.88591 10.976C4.88171 11.1485 4.93365 11.3176 5.03391 11.458C5.15484 11.6113 5.31137 11.7329 5.48991 11.812C6.18695 12.1143 6.9426 12.2574 7.70191 12.231C8.25484 12.242 8.80516 12.1522 9.32591 11.966C9.75778 11.8128 10.1339 11.5338 10.4059 11.165C10.6729 10.775 10.8079 10.31 10.7919 9.838C10.8023 9.45228 10.7058 9.07121 10.5129 8.737C10.3171 8.4193 10.0535 8.14883 9.74091 7.945C9.34471 7.68942 8.92436 7.47338 8.48591 7.3C8.43908 7.27709 8.39062 7.25771 8.34091 7.242C7.99878 7.10332 7.66096 6.95425 7.32791 6.795C7.12577 6.70009 6.94275 6.56892 6.78791 6.408C6.65778 6.27108 6.58605 6.08889 6.58791 5.9C6.58151 5.75606 6.61386 5.61304 6.68158 5.48587C6.7493 5.3587 6.84991 5.25203 6.97291 5.177C7.26495 5.0029 7.60116 4.91711 7.94091 4.93C8.20091 4.927 8.46091 4.96 8.71291 5.026C8.98691 5.105 9.25491 5.203 9.51491 5.319C9.61991 5.368 9.73491 5.394 9.85091 5.395C9.93555 5.39708 10.0197 5.38123 10.0977 5.34848C10.1758 5.31574 10.2461 5.26684 10.3039 5.205C10.4273 5.07004 10.492 4.89165 10.4839 4.709C10.4869 4.53496 10.4265 4.36577 10.3139 4.233C10.16 4.07164 9.96922 3.95014 9.75791 3.879C9.52855 3.79471 9.29139 3.73341 9.04991 3.696C8.71211 3.64072 8.37018 3.61462 8.02791 3.618C7.50485 3.61468 6.98518 3.70197 6.49191 3.876C6.03819 4.02903 5.63311 4.29954 5.31791 4.66C5.01469 5.01903 4.85447 5.47725 4.86791 5.947C4.85791 6.317 4.94391 6.683 5.11791 7.01Z"/> </g> <defs> <clipPath id="clip0_34_5322"> <rect width="16" height="16"/> </clipPath> </defs> </svg>