<svg width="16" height="16" viewBox="0 0 16 16" xmlns="http://www.w3.org/2000/svg"> <path fill-rule="evenodd" clip-rule="evenodd" d="M13.8541 2.14592C13.9007 2.19236 13.9376 2.24754 13.9629 2.30828C13.9881 2.36903 14.001 2.43415 14.001 2.49992C14.001 2.56568 13.9881 2.63081 13.9629 2.69155C13.9376 2.7523 13.9007 2.80747 13.8541 2.85392L2.85414 13.8539C2.76026 13.9478 2.63292 14.0005 2.50014 14.0005C2.36737 14.0005 2.24003 13.9478 2.14614 13.8539C2.05226 13.76 1.99951 13.6327 1.99951 13.4999C1.99951 13.3671 2.05226 13.2398 2.14614 13.1459L13.1461 2.14592C13.1926 2.09935 13.2478 2.06241 13.3085 2.0372C13.3693 2.012 13.4344 1.99902 13.5001 1.99902C13.5659 1.99902 13.631 2.012 13.6918 2.0372C13.7525 2.06241 13.8077 2.09935 13.8541 2.14592Z"/> </svg>