<svg width="16" height="16" viewBox="0 0 16 16" fill="none" xmlns="http://www.w3.org/2000/svg">
<path d="M11.3541 4.64592C11.4007 4.69236 11.4376 4.74754 11.4629 4.80828C11.4881 4.86903 11.501 4.93415 11.501 4.99992C11.501 5.06568 11.4881 5.13081 11.4629 5.19155C11.4376 5.2523 11.4007 5.30747 11.3541 5.35392L5.35414 11.3539C5.26026 11.4478 5.13292 11.5005 5.00014 11.5005C4.86737 11.5005 4.74003 11.4478 4.64614 11.3539C4.55226 11.26 4.49951 11.1327 4.49951 10.9999C4.49951 10.8671 4.55226 10.7398 4.64614 10.6459L10.6461 4.64592C10.6926 4.59935 10.7478 4.56241 10.8085 4.5372C10.8693 4.512 10.9344 4.49902 11.0001 4.49902C11.0659 4.49902 11.131 4.512 11.1918 4.5372C11.2525 4.56241 11.3077 4.59935 11.3541 4.64592Z" fill="#212529"/>
</svg>
