<svg width="16" height="16" viewBox="0 0 16 16" xmlns="http://www.w3.org/2000/svg"> <g clip-path="url(#clip0_34_5334)"> <path d="M14 1C14.2652 1 14.5196 1.10536 14.7071 1.29289C14.8946 1.48043 15 1.73478 15 2V14C15 14.2652 14.8946 14.5196 14.7071 14.7071C14.5196 14.8946 14.2652 15 14 15H2C1.73478 15 1.48043 14.8946 1.29289 14.7071C1.10536 14.5196 1 14.2652 1 14V2C1 1.73478 1.10536 1.48043 1.29289 1.29289C1.48043 1.10536 1.73478 1 2 1H14ZM2 0C1.46957 0 0.960859 0.210714 0.585786 0.585786C0.210714 0.960859 0 1.46957 0 2V14C0 14.5304 0.210714 15.0391 0.585786 15.4142C0.960859 15.7893 1.46957 16 2 16H14C14.5304 16 15.0391 15.7893 15.4142 15.4142C15.7893 15.0391 16 14.5304 16 14V2C16 1.46957 15.7893 0.960859 15.4142 0.585786C15.0391 0.210714 14.5304 0 14 0H2Z"/> <path d="M11.354 4.646C11.4006 4.69245 11.4375 4.74762 11.4627 4.80837C11.4879 4.86911 11.5009 4.93423 11.5009 5C11.5009 5.06577 11.4879 5.13089 11.4627 5.19163C11.4375 5.25238 11.4006 5.30755 11.354 5.354L5.354 11.354C5.26011 11.4479 5.13278 11.5006 5 11.5006C4.86722 11.5006 4.73989 11.4479 4.646 11.354C4.55211 11.2601 4.49937 11.1328 4.49937 11C4.49937 10.8672 4.55211 10.7399 4.646 10.646L10.646 4.646C10.6924 4.59944 10.7476 4.56249 10.8084 4.53729C10.8691 4.51208 10.9342 4.49911 11 4.49911C11.0658 4.49911 11.1309 4.51208 11.1916 4.53729C11.2524 4.56249 11.3076 4.59944 11.354 4.646Z"/> </g> <defs> <clipPath id="clip0_34_5334"> <rect width="16" height="16"/> </clipPath> </defs> </svg>