<svg width="16" height="16" viewBox="0 0 16 16" xmlns="http://www.w3.org/2000/svg"> <path fill-rule="evenodd" clip-rule="evenodd" d="M10.5 1C10.6326 1 10.7598 1.05268 10.8536 1.14645C10.9473 1.24021 11 1.36739 11 1.5V5.5C11 5.63261 10.9473 5.75979 10.8536 5.85355C10.7598 5.94732 10.6326 6 10.5 6C10.3674 6 10.2402 5.94732 10.1464 5.85355C10.0527 5.75979 10 5.63261 10 5.5V4H1.5C1.36739 4 1.24021 3.94732 1.14645 3.85355C1.05268 3.75979 1 3.63261 1 3.5C1 3.36739 1.05268 3.24021 1.14645 3.14645C1.24021 3.05268 1.36739 3 1.5 3H10V1.5C10 1.36739 10.0527 1.24021 10.1464 1.14645C10.2402 1.05268 10.3674 1 10.5 1ZM12 3.5C12 3.36739 12.0527 3.24021 12.1464 3.14645C12.2402 3.05268 12.3674 3 12.5 3H14.5C14.6326 3 14.7598 3.05268 14.8536 3.14645C14.9473 3.24021 15 3.36739 15 3.5C15 3.63261 14.9473 3.75979 14.8536 3.85355C14.7598 3.94732 14.6326 4 14.5 4H12.5C12.3674 4 12.2402 3.94732 12.1464 3.85355C12.0527 3.75979 12 3.63261 12 3.5ZM5.5 5.5C5.63261 5.5 5.75979 5.55268 5.85355 5.64645C5.94732 5.74021 6 5.86739 6 6V7.5H14.5C14.6326 7.5 14.7598 7.55268 14.8536 7.64645C14.9473 7.74021 15 7.86739 15 8C15 8.13261 14.9473 8.25979 14.8536 8.35355C14.7598 8.44732 14.6326 8.5 14.5 8.5H6V10C6 10.1326 5.94732 10.2598 5.85355 10.3536C5.75979 10.4473 5.63261 10.5 5.5 10.5C5.36739 10.5 5.24021 10.4473 5.14645 10.3536C5.05268 10.2598 5 10.1326 5 10V6C5 5.86739 5.05268 5.74021 5.14645 5.64645C5.24021 5.55268 5.36739 5.5 5.5 5.5ZM1 8C1 7.86739 1.05268 7.74021 1.14645 7.64645C1.24021 7.55268 1.36739 7.5 1.5 7.5H3.5C3.63261 7.5 3.75979 7.55268 3.85355 7.64645C3.94732 7.74021 4 7.86739 4 8C4 8.13261 3.94732 8.25979 3.85355 8.35355C3.75979 8.44732 3.63261 8.5 3.5 8.5H1.5C1.36739 8.5 1.24021 8.44732 1.14645 8.35355C1.05268 8.25979 1 8.13261 1 8ZM10.5 10C10.6326 10 10.7598 10.0527 10.8536 10.1464C10.9473 10.2402 11 10.3674 11 10.5V14.5C11 14.6326 10.9473 14.7598 10.8536 14.8536C10.7598 14.9473 10.6326 15 10.5 15C10.3674 15 10.2402 14.9473 10.1464 14.8536C10.0527 14.7598 10 14.6326 10 14.5V13H1.5C1.36739 13 1.24021 12.9473 1.14645 12.8536C1.05268 12.7598 1 12.6326 1 12.5C1 12.3674 1.05268 12.2402 1.14645 12.1464C1.24021 12.0527 1.36739 12 1.5 12H10V10.5C10 10.3674 10.0527 10.2402 10.1464 10.1464C10.2402 10.0527 10.3674 10 10.5 10ZM12 12.5C12 12.3674 12.0527 12.2402 12.1464 12.1464C12.2402 12.0527 12.3674 12 12.5 12H14.5C14.6326 12 14.7598 12.0527 14.8536 12.1464C14.9473 12.2402 15 12.3674 15 12.5C15 12.6326 14.9473 12.7598 14.8536 12.8536C14.7598 12.9473 14.6326 13 14.5 13H12.5C12.3674 13 12.2402 12.9473 12.1464 12.8536C12.0527 12.7598 12 12.6326 12 12.5Z"/> </svg>