<svg width="16" height="16" viewBox="0 0 16 16" xmlns="http://www.w3.org/2000/svg"> <g clip-path="url(#clip0_34_5346)"> <path d="M15.9432 11.526C15.8322 11.223 15.6202 11.061 15.3792 10.927C15.3393 10.9037 15.2982 10.8823 15.2562 10.863L15.0372 10.752C14.2852 10.353 13.6982 9.85 13.2912 9.254C13.1754 9.08638 13.075 8.90866 12.9912 8.723C12.9572 8.623 12.9592 8.567 12.9832 8.516C13.0083 8.47629 13.0413 8.44224 13.0802 8.416C13.2092 8.33 13.3422 8.243 13.4322 8.185C13.5942 8.081 13.7212 7.998 13.8032 7.94C14.1122 7.724 14.3282 7.494 14.4632 7.238C14.5573 7.06093 14.6121 6.86567 14.6241 6.66551C14.636 6.46536 14.6046 6.26498 14.5322 6.078C14.3272 5.54 13.8192 5.206 13.2032 5.206C13.0387 5.20567 12.8749 5.22753 12.7162 5.271C12.7222 4.903 12.7142 4.514 12.6812 4.132C12.5652 2.788 12.0942 2.084 11.6042 1.522C11.2901 1.17019 10.9201 0.872537 10.5092 0.641C9.76421 0.216 8.92021 0 7.99921 0C7.07921 0 6.23921 0.216 5.49421 0.641C5.08221 0.873 4.71221 1.171 4.39721 1.524C3.90721 2.086 3.43721 2.791 3.32021 4.134C3.28721 4.516 3.28021 4.906 3.28421 5.272C3.12554 5.22854 2.96173 5.20668 2.79721 5.207C2.18221 5.207 1.67321 5.542 1.46921 6.08C1.3964 6.26699 1.3647 6.46746 1.37626 6.6678C1.38782 6.86813 1.44238 7.06363 1.53621 7.241C1.67221 7.497 1.88821 7.727 2.19621 7.942C2.27821 8 2.40621 8.082 2.56721 8.188L2.90621 8.409C2.94971 8.4378 2.98682 8.47524 3.01521 8.519C3.04121 8.572 3.04221 8.629 3.00321 8.736C2.92051 8.91775 2.82179 9.09177 2.70821 9.256C2.31021 9.839 1.74021 10.333 1.01221 10.728C0.627214 10.932 0.226214 11.068 0.0572141 11.528C-0.0707859 11.876 0.0132141 12.271 0.337214 12.603C0.456214 12.728 0.594214 12.833 0.746214 12.913C1.06204 13.0865 1.39785 13.2208 1.74621 13.313C1.81813 13.3314 1.88642 13.3619 1.94821 13.403C2.06621 13.507 2.05021 13.663 2.20721 13.891C2.28621 14.009 2.38721 14.111 2.50321 14.191C2.83321 14.42 3.20421 14.434 3.59821 14.449C3.95321 14.463 4.35621 14.479 4.81521 14.629C5.00521 14.693 5.20421 14.815 5.43321 14.957C5.98321 15.295 6.73821 15.759 7.99921 15.759C9.26121 15.759 10.0192 15.293 10.5752 14.953C10.8022 14.813 10.9992 14.693 11.1842 14.632C11.6442 14.48 12.0472 14.464 12.4022 14.451C12.7952 14.436 13.1662 14.421 13.4972 14.193C13.635 14.0966 13.7497 13.9709 13.8332 13.825C13.9472 13.633 13.9432 13.498 14.0502 13.405C14.1082 13.3655 14.1724 13.3361 14.2402 13.318C14.5935 13.2255 14.9341 13.0898 15.2542 12.914C15.4142 12.827 15.5602 12.714 15.6832 12.578L15.6872 12.573C15.9912 12.248 16.0672 11.864 15.9432 11.526ZM14.8222 12.128C14.1382 12.506 13.6832 12.465 13.3292 12.693C13.0292 12.886 13.2072 13.303 12.9892 13.453C12.7202 13.639 11.9282 13.441 10.9042 13.779C10.0592 14.058 9.52021 14.861 8.00121 14.861C6.48221 14.861 5.95621 14.06 5.09721 13.777C4.07521 13.439 3.28121 13.637 3.01321 13.452C2.79521 13.302 2.97221 12.884 2.67221 12.691C2.31821 12.463 1.86321 12.504 1.18021 12.128C0.744214 11.888 0.991214 11.738 1.13621 11.668C3.61421 10.469 4.00921 8.618 4.02621 8.48C4.04821 8.314 4.07121 8.183 3.88821 8.014C3.71121 7.85 2.92621 7.364 2.70821 7.212C2.34821 6.96 2.18821 6.709 2.30621 6.4C2.38821 6.186 2.58721 6.105 2.79621 6.105C2.86248 6.10529 2.92852 6.11267 2.99321 6.127C3.38921 6.213 3.77321 6.412 3.99521 6.465C4.02221 6.472 4.04921 6.475 4.07721 6.476C4.19521 6.476 4.23721 6.416 4.22921 6.281C4.20321 5.848 4.14221 5.004 4.21021 4.215C4.30421 3.131 4.65421 2.593 5.06921 2.118C5.26921 1.889 6.20621 0.898 7.99921 0.898C9.79121 0.898 10.7312 1.885 10.9302 2.113C11.3462 2.588 11.6962 3.126 11.7892 4.211C11.8572 4.999 11.7982 5.843 11.7702 6.276C11.7602 6.418 11.8042 6.471 11.9222 6.471C11.9498 6.47092 11.9774 6.46756 12.0042 6.461C12.2262 6.407 12.6112 6.208 13.0062 6.123C13.0708 6.10819 13.1369 6.10048 13.2032 6.1C13.4132 6.1 13.6122 6.182 13.6932 6.395C13.8102 6.704 13.6532 6.955 13.2922 7.207C13.0742 7.359 12.2892 7.845 12.1122 8.009C11.9282 8.178 11.9522 8.309 11.9732 8.475C11.9912 8.615 12.3862 10.466 14.8632 11.664C15.0102 11.737 15.2572 11.886 14.8222 12.128Z"/> </g> <defs> <clipPath id="clip0_34_5346"> <rect width="16" height="16"/> </clipPath> </defs> </svg>