<svg width="16" height="16" viewBox="0 0 16 16" xmlns="http://www.w3.org/2000/svg"> <path d="M7.99983 16C7.86722 16 7.74004 15.9473 7.64627 15.8536C7.5525 15.7598 7.49983 15.6326 7.49983 15.5V14.207L6.85383 14.854C6.75994 14.9478 6.63265 15.0004 6.49997 15.0003C6.36729 15.0002 6.24008 14.9474 6.14633 14.8535C6.05257 14.7596 5.99995 14.6323 6.00005 14.4996C6.00014 14.367 6.05294 14.2398 6.14683 14.146L7.49983 12.793V8.866L4.09983 10.829L3.60383 12.679C3.56935 12.8071 3.48539 12.9163 3.37043 12.9825C3.25547 13.0487 3.11893 13.0665 2.99083 13.032C2.86273 12.9975 2.75357 12.9136 2.68737 12.7986C2.62117 12.6836 2.60335 12.5471 2.63783 12.419L2.87483 11.537L1.75483 12.183C1.64005 12.2483 1.50411 12.2655 1.37669 12.2309C1.24927 12.1963 1.14071 12.1127 1.07469 11.9983C1.00867 11.884 0.990559 11.7482 1.02431 11.6205C1.05805 11.4929 1.14092 11.3838 1.25483 11.317L2.37483 10.671L1.49083 10.434C1.4274 10.4169 1.36795 10.3875 1.31589 10.3475C1.26382 10.3074 1.22015 10.2575 1.18737 10.2006C1.15459 10.1437 1.13334 10.0809 1.12484 10.0157C1.11634 9.9506 1.12075 9.88443 1.13783 9.821C1.1549 9.75757 1.1843 9.69813 1.22434 9.64606C1.26439 9.59399 1.31429 9.55032 1.37122 9.51754C1.42814 9.48477 1.49096 9.46352 1.55609 9.45502C1.62123 9.44652 1.6874 9.45093 1.75083 9.468L3.59883 9.963L6.99983 8L3.59983 6.037L1.74983 6.532C1.62256 6.56372 1.48793 6.54416 1.37495 6.47754C1.26196 6.41092 1.17968 6.30258 1.14584 6.17586C1.112 6.04914 1.1293 5.9142 1.19402 5.80012C1.25874 5.68604 1.36569 5.60196 1.49183 5.566L2.37483 5.329L1.25483 4.683C1.1975 4.65041 1.14719 4.6068 1.10679 4.55469C1.06639 4.50257 1.0367 4.44298 1.01942 4.37935C1.00214 4.31571 0.997625 4.24928 1.00612 4.18389C1.01462 4.1185 1.03597 4.05544 1.06894 3.99834C1.10191 3.94123 1.14585 3.89121 1.19824 3.85116C1.25062 3.8111 1.3104 3.7818 1.37415 3.76495C1.4379 3.7481 1.50436 3.74402 1.56969 3.75295C1.63502 3.76188 1.69794 3.78365 1.75483 3.817L2.87483 4.463L2.63783 3.58C2.61963 3.51618 2.61432 3.44937 2.62221 3.38348C2.6301 3.31758 2.65103 3.25392 2.68378 3.1962C2.71652 3.13847 2.76044 3.08785 2.81295 3.04727C2.86546 3.00669 2.92553 2.97697 2.98965 2.95985C3.05377 2.94272 3.12065 2.93854 3.1864 2.94753C3.25216 2.95652 3.31546 2.97851 3.37263 3.01222C3.4298 3.04593 3.47968 3.09068 3.51937 3.14386C3.55907 3.19705 3.58778 3.2576 3.60383 3.322L4.09883 5.171L7.49983 7.134V3.207L6.14683 1.854C6.10034 1.80758 6.06345 1.75245 6.03826 1.69177C6.01308 1.6311 6.00009 1.56605 6.00005 1.50035C6 1.43466 6.0129 1.36959 6.03799 1.30888C6.06309 1.24816 6.0999 1.19299 6.14633 1.1465C6.19275 1.10001 6.24787 1.06312 6.30855 1.03794C6.36923 1.01275 6.43427 0.999768 6.49997 0.999722C6.56567 0.999676 6.63073 1.01257 6.69145 1.03767C6.75216 1.06277 6.80734 1.09958 6.85383 1.146L7.49983 1.793V0.5C7.49983 0.367392 7.5525 0.240215 7.64627 0.146447C7.74004 0.0526784 7.86722 0 7.99983 0C8.13243 0 8.25961 0.0526784 8.35338 0.146447C8.44715 0.240215 8.49983 0.367392 8.49983 0.5V1.793L9.14683 1.146C9.24071 1.05225 9.368 0.999628 9.50068 0.999722C9.63336 0.999816 9.76057 1.05261 9.85433 1.1465C9.94808 1.24039 10.0007 1.36767 10.0006 1.50035C10.0005 1.63304 9.94771 1.76025 9.85383 1.854L8.49983 3.207V7.134L11.8998 5.171L12.3958 3.321C12.4303 3.1929 12.5143 3.08374 12.6292 3.01754C12.7442 2.95134 12.8807 2.93352 13.0088 2.968C13.1369 3.00248 13.2461 3.08643 13.3123 3.20139C13.3785 3.31635 13.3963 3.4529 13.3618 3.581L13.1258 4.463L14.2458 3.817C14.3606 3.75174 14.4965 3.73453 14.624 3.76913C14.7514 3.80372 14.8599 3.88731 14.926 4.00165C14.992 4.116 15.0101 4.25181 14.9763 4.37946C14.9426 4.50711 14.8597 4.61622 14.7458 4.683L13.6258 5.329L14.5088 5.566C14.6369 5.60048 14.7461 5.68443 14.8123 5.79939C14.8785 5.91435 14.8963 6.0509 14.8618 6.179C14.8273 6.3071 14.7434 6.41626 14.6284 6.48246C14.5135 6.54866 14.3769 6.56648 14.2488 6.532L12.4008 6.037L8.99983 8L12.3998 9.963L14.2488 9.468C14.3769 9.43365 14.5134 9.4516 14.6283 9.5179C14.7432 9.58419 14.827 9.6934 14.8613 9.8215C14.8957 9.9496 14.8777 10.0861 14.8114 10.201C14.7451 10.3158 14.6359 10.3997 14.5078 10.434L13.6248 10.671L14.7448 11.317C14.8587 11.3838 14.9416 11.4929 14.9753 11.6205C15.0091 11.7482 14.991 11.884 14.925 11.9983C14.8589 12.1127 14.7504 12.1963 14.623 12.2309C14.4955 12.2655 14.3596 12.2483 14.2448 12.183L13.1248 11.537L13.3608 12.42C13.379 12.4838 13.3843 12.5506 13.3764 12.6165C13.3685 12.6824 13.3476 12.7461 13.3149 12.8038C13.2821 12.8615 13.2382 12.9122 13.1857 12.9527C13.1332 12.9933 13.0731 13.023 13.009 13.0402C12.9449 13.0573 12.878 13.0615 12.8122 13.0525C12.7465 13.0435 12.6832 13.0215 12.626 12.9878C12.5689 12.9541 12.519 12.9093 12.4793 12.8561C12.4396 12.803 12.4109 12.7424 12.3948 12.678L11.8998 10.829L8.49983 8.866V12.793L9.85283 14.146C9.94671 14.2398 9.99951 14.367 9.9996 14.4996C9.9997 14.6323 9.94708 14.7596 9.85333 14.8535C9.75957 14.9474 9.63236 15.0002 9.49968 15.0003C9.367 15.0004 9.23971 14.9478 9.14583 14.854L8.49883 14.207V15.5C8.49883 15.6326 8.44615 15.7598 8.35238 15.8536C8.25861 15.9473 8.13143 16 7.99883 16H7.99983Z"/> </svg>