<svg width="16" height="16" viewBox="0 0 16 16" xmlns="http://www.w3.org/2000/svg"> <path d="M7.99994 7.5C7.86733 7.5 7.74016 7.55268 7.64639 7.64645C7.55262 7.74021 7.49994 7.86739 7.49994 8C7.49994 8.13261 7.55262 8.25979 7.64639 8.35355C7.74016 8.44732 7.86733 8.5 7.99994 8.5C8.13255 8.5 8.25973 8.44732 8.3535 8.35355C8.44726 8.25979 8.49994 8.13261 8.49994 8C8.49994 7.86739 8.44726 7.74021 8.3535 7.64645C8.25973 7.55268 8.13255 7.5 7.99994 7.5Z"/> <path d="M7.99994 16C7.86733 16 7.74016 15.9473 7.64639 15.8536C7.55262 15.7598 7.49994 15.6326 7.49994 15.5V14.207L6.85394 14.854C6.76005 14.9478 6.63277 15.0004 6.50009 15.0003C6.36741 15.0002 6.2402 14.9474 6.14644 14.8535C6.05269 14.7596 6.00007 14.6323 6.00016 14.4996C6.00026 14.367 6.05305 14.2398 6.14694 14.146L7.49994 12.793V11.283L5.44694 10.051L4.09894 10.829L3.60394 12.679C3.58687 12.7424 3.55747 12.8019 3.51743 12.8539C3.47738 12.906 3.42747 12.9497 3.37055 12.9825C3.31363 13.0152 3.25081 13.0365 3.18567 13.045C3.12054 13.0535 3.05437 13.0491 2.99094 13.032C2.92751 13.0149 2.86807 12.9855 2.816 12.9455C2.76393 12.9054 2.72026 12.8555 2.68749 12.7986C2.65471 12.7417 2.63346 12.6789 2.62496 12.6137C2.61646 12.5486 2.62087 12.4824 2.63794 12.419L2.87494 11.537L1.75494 12.183C1.64016 12.2483 1.50423 12.2655 1.37681 12.2309C1.24939 12.1963 1.14082 12.1127 1.0748 11.9983C1.00879 11.884 0.990675 11.7482 1.02442 11.6205C1.05817 11.4929 1.14104 11.3838 1.25494 11.317L2.37494 10.671L1.49194 10.434C1.42755 10.418 1.36699 10.3892 1.3138 10.3495C1.26062 10.3099 1.21587 10.26 1.18216 10.2028C1.14845 10.1456 1.12646 10.0823 1.11747 10.0166C1.10848 9.95083 1.11267 9.88394 1.12979 9.81982C1.14692 9.75571 1.17663 9.69564 1.21721 9.64312C1.25779 9.59061 1.30841 9.5467 1.36614 9.51395C1.42386 9.4812 1.48752 9.46028 1.55342 9.45239C1.61931 9.4445 1.68612 9.44981 1.74994 9.468L3.59994 9.963L4.99994 9.155V6.845L3.59994 6.037L1.74994 6.532C1.68651 6.54901 1.62036 6.55335 1.55525 6.54479C1.49014 6.53623 1.42736 6.51493 1.37048 6.4821C1.3136 6.44928 1.26375 6.40557 1.22377 6.35348C1.18378 6.30139 1.15445 6.24193 1.13744 6.1785C1.12044 6.11507 1.11609 6.04891 1.12465 5.98381C1.13321 5.9187 1.15451 5.85591 1.18734 5.79904C1.22016 5.74216 1.26387 5.69231 1.31596 5.65232C1.36806 5.61234 1.42751 5.58301 1.49094 5.566L2.37494 5.329L1.25494 4.683C1.14104 4.61622 1.05817 4.50711 1.02442 4.37946C0.990675 4.25181 1.00879 4.116 1.0748 4.00165C1.14082 3.88731 1.24939 3.80372 1.37681 3.76913C1.50423 3.73453 1.64016 3.75174 1.75494 3.817L2.87494 4.463L2.63794 3.58C2.61975 3.51618 2.61444 3.44937 2.62233 3.38348C2.63022 3.31758 2.65115 3.25392 2.68389 3.1962C2.71664 3.13847 2.76055 3.08785 2.81307 3.04727C2.86558 3.00669 2.92565 2.97697 2.98976 2.95985C3.05388 2.94272 3.12077 2.93854 3.18652 2.94753C3.25227 2.95652 3.31558 2.97851 3.37275 3.01222C3.42991 3.04593 3.4798 3.09068 3.51949 3.14386C3.55918 3.19705 3.58789 3.2576 3.60394 3.322L4.09894 5.171L5.44694 5.949L7.49994 4.717V3.207L6.14694 1.854C6.10045 1.80758 6.06356 1.75245 6.03838 1.69177C6.0132 1.6311 6.00021 1.56605 6.00016 1.50035C6.00012 1.43466 6.01301 1.36959 6.03811 1.30888C6.06321 1.24816 6.10002 1.19299 6.14644 1.1465C6.19286 1.10001 6.24799 1.06312 6.30867 1.03794C6.36935 1.01275 6.43439 0.999768 6.50009 0.999722C6.56579 0.999676 6.63085 1.01257 6.69156 1.03767C6.75228 1.06277 6.80745 1.09958 6.85394 1.146L7.49994 1.793V0.5C7.49994 0.367392 7.55262 0.240215 7.64639 0.146447C7.74016 0.0526784 7.86733 0 7.99994 0C8.13255 0 8.25973 0.0526784 8.3535 0.146447C8.44726 0.240215 8.49994 0.367392 8.49994 0.5V1.793L9.14694 1.146C9.24083 1.05225 9.36811 0.999628 9.5008 0.999722C9.63348 0.999816 9.76069 1.05261 9.85444 1.1465C9.9482 1.24039 10.0008 1.36767 10.0007 1.50035C10.0006 1.63304 9.94783 1.76025 9.85394 1.854L8.49994 3.207V4.717L10.5529 5.949L11.9009 5.171L12.3959 3.321C12.4304 3.1929 12.5144 3.08374 12.6293 3.01754C12.7443 2.95134 12.8808 2.93352 13.0089 2.968C13.137 3.00248 13.2462 3.08643 13.3124 3.20139C13.3786 3.31635 13.3964 3.4529 13.3619 3.581L13.1259 4.463L14.2459 3.817C14.3607 3.75174 14.4967 3.73453 14.6241 3.76913C14.7515 3.80372 14.8601 3.88731 14.9261 4.00165C14.9921 4.116 15.0102 4.25181 14.9765 4.37946C14.9427 4.50711 14.8598 4.61622 14.7459 4.683L13.6259 5.329L14.5089 5.566C14.637 5.60048 14.7462 5.68443 14.8124 5.79939C14.8786 5.91435 14.8964 6.0509 14.8619 6.179C14.8275 6.3071 14.7435 6.41626 14.6286 6.48246C14.5136 6.54866 14.377 6.56648 14.2489 6.532L12.4009 6.037L11.0009 6.845V9.155L12.4009 9.963L14.2499 9.468C14.378 9.43365 14.5145 9.4516 14.6294 9.5179C14.7443 9.58419 14.8281 9.6934 14.8624 9.8215C14.8968 9.9496 14.8788 10.0861 14.8125 10.201C14.7463 10.3158 14.637 10.3997 14.5089 10.434L13.6259 10.671L14.7459 11.317C14.8598 11.3838 14.9427 11.4929 14.9765 11.6205C15.0102 11.7482 14.9921 11.884 14.9261 11.9983C14.8601 12.1127 14.7515 12.1963 14.6241 12.2309C14.4967 12.2655 14.3607 12.2483 14.2459 12.183L13.1259 11.537L13.3619 12.42C13.3801 12.4838 13.3854 12.5506 13.3776 12.6165C13.3697 12.6824 13.3487 12.7461 13.316 12.8038C13.2832 12.8615 13.2393 12.9122 13.1868 12.9527C13.1343 12.9933 13.0742 13.023 13.0101 13.0402C12.946 13.0573 12.8791 13.0615 12.8134 13.0525C12.7476 13.0435 12.6843 13.0215 12.6271 12.9878C12.57 12.9541 12.5201 12.9093 12.4804 12.8561C12.4407 12.803 12.412 12.7424 12.3959 12.678L11.9009 10.829L10.5529 10.051L8.49994 11.283V12.793L9.85394 14.146C9.94783 14.2398 10.0006 14.367 10.0007 14.4996C10.0008 14.6323 9.9482 14.7596 9.85444 14.8535C9.76069 14.9474 9.63348 15.0002 9.5008 15.0003C9.36811 15.0004 9.24083 14.9478 9.14694 14.854L8.49994 14.207V15.5C8.49994 15.6326 8.44726 15.7598 8.3535 15.8536C8.25973 15.9473 8.13255 16 7.99994 16ZM9.99994 9.217V6.783L7.99994 5.583L5.99994 6.783V9.217L7.99994 10.417L9.99994 9.217Z"/> </svg>