<svg width="16" height="16" viewBox="0 0 16 16" xmlns="http://www.w3.org/2000/svg"> <path fill-rule="evenodd" clip-rule="evenodd" d="M10.0821 5.62897L9.66414 6.99997H8.59814L10.3871 1.66797H11.6211L13.4021 6.99997H12.2821L11.8631 5.62897H10.0821ZM11.6521 4.84397L11.0001 2.68697H10.9531L10.3011 4.84397H11.6521Z"/> <path d="M9.02814 14V13.309L11.6071 9.58897V9.53497H9.09814V8.66797H12.8831V9.35897L10.3161 13.079V13.133H12.9611V14H9.02814ZM4.50014 13.5C4.50014 13.6326 4.44746 13.7598 4.3537 13.8535C4.25993 13.9473 4.13275 14 4.00014 14C3.86754 14 3.74036 13.9473 3.64659 13.8535C3.55282 13.7598 3.50014 13.6326 3.50014 13.5V3.70697L2.35414 4.85397C2.30766 4.90046 2.25247 4.93733 2.19173 4.96249C2.13099 4.98765 2.06589 5.0006 2.00014 5.0006C1.9344 5.0006 1.8693 4.98765 1.80856 4.96249C1.74782 4.93733 1.69263 4.90046 1.64614 4.85397C1.59966 4.80748 1.56278 4.75229 1.53762 4.69155C1.51246 4.63081 1.49951 4.56571 1.49951 4.49997C1.49951 4.43422 1.51246 4.36912 1.53762 4.30839C1.56278 4.24765 1.59966 4.19246 1.64614 4.14597L3.65314 2.13997C3.74714 2.04867 3.87334 1.9981 4.00438 1.99923C4.13541 2.00035 4.26072 2.05307 4.35314 2.14597L6.35314 4.14597C6.39963 4.19239 6.43652 4.24752 6.4617 4.30819C6.48689 4.36887 6.49988 4.43392 6.49992 4.49962C6.49997 4.56531 6.48707 4.63038 6.46198 4.69109C6.43688 4.7518 6.40007 4.80698 6.35364 4.85347C6.30722 4.89996 6.2521 4.93685 6.19142 4.96203C6.13074 4.98721 6.06569 5.0002 6 5.00025C5.9343 5.00029 5.86924 4.9874 5.80852 4.9623C5.74781 4.9372 5.69263 4.90039 5.64614 4.85397L4.50014 3.70697V13.5Z"/> </svg>