<svg width="16" height="16" viewBox="0 0 16 16" fill="none" xmlns="http://www.w3.org/2000/svg">
<path d="M3.50014 2.5C3.50014 2.36739 3.44746 2.24021 3.3537 2.14645C3.25993 2.05268 3.13275 2 3.00014 2C2.86754 2 2.74036 2.05268 2.64659 2.14645C2.55282 2.24021 2.50014 2.36739 2.50014 2.5V11.293L1.35414 10.146C1.26026 10.0521 1.13292 9.99937 1.00014 9.99937C0.867368 9.99937 0.74003 10.0521 0.646143 10.146C0.552257 10.2399 0.499512 10.3672 0.499512 10.5C0.499512 10.6328 0.552257 10.7601 0.646143 10.854L2.64614 12.853L2.65314 12.86C2.74702 12.9515 2.87327 13.0023 3.00438 13.0011C3.13549 13 3.26085 12.9471 3.35314 12.854L5.35314 10.854C5.39963 10.8076 5.43652 10.7525 5.4617 10.6918C5.48689 10.6311 5.49988 10.5661 5.49992 10.5004C5.49997 10.4347 5.48707 10.3696 5.46198 10.3089C5.43688 10.2482 5.40007 10.193 5.35364 10.1465C5.30722 10.1 5.2521 10.0631 5.19142 10.0379C5.13074 10.0128 5.06569 9.99977 5 9.99972C4.9343 9.99968 4.86924 10.0126 4.80852 10.0377C4.74781 10.0628 4.69263 10.0996 4.64614 10.146L3.50014 11.293V2.5ZM7.00014 3.5C7.00014 3.36739 7.05282 3.24021 7.14659 3.14645C7.24036 3.05268 7.36753 3 7.50014 3H14.5001C14.6328 3 14.7599 3.05268 14.8537 3.14645C14.9475 3.24021 15.0001 3.36739 15.0001 3.5C15.0001 3.63261 14.9475 3.75979 14.8537 3.85355C14.7599 3.94732 14.6328 4 14.5001 4H7.50014C7.36753 4 7.24036 3.94732 7.14659 3.85355C7.05282 3.75979 7.00014 3.63261 7.00014 3.5ZM7.50014 6C7.36753 6 7.24036 6.05268 7.14659 6.14645C7.05282 6.24021 7.00014 6.36739 7.00014 6.5C7.00014 6.63261 7.05282 6.75979 7.14659 6.85355C7.24036 6.94732 7.36753 7 7.50014 7H12.5001C12.6328 7 12.7599 6.94732 12.8537 6.85355C12.9475 6.75979 13.0001 6.63261 13.0001 6.5C13.0001 6.36739 12.9475 6.24021 12.8537 6.14645C12.7599 6.05268 12.6328 6 12.5001 6H7.50014ZM7.50014 9C7.36753 9 7.24036 9.05268 7.14659 9.14645C7.05282 9.24021 7.00014 9.36739 7.00014 9.5C7.00014 9.63261 7.05282 9.75979 7.14659 9.85355C7.24036 9.94732 7.36753 10 7.50014 10H10.5001C10.6328 10 10.7599 9.94732 10.8537 9.85355C10.9475 9.75979 11.0001 9.63261 11.0001 9.5C11.0001 9.36739 10.9475 9.24021 10.8537 9.14645C10.7599 9.05268 10.6328 9 10.5001 9H7.50014ZM7.50014 12C7.36753 12 7.24036 12.0527 7.14659 12.1464C7.05282 12.2402 7.00014 12.3674 7.00014 12.5C7.00014 12.6326 7.05282 12.7598 7.14659 12.8536C7.24036 12.9473 7.36753 13 7.50014 13H8.50014C8.63275 13 8.75993 12.9473 8.8537 12.8536C8.94746 12.7598 9.00014 12.6326 9.00014 12.5C9.00014 12.3674 8.94746 12.2402 8.8537 12.1464C8.75993 12.0527 8.63275 12 8.50014 12H7.50014Z" fill="#212529"/>
</svg>
