<svg width="16" height="16" viewBox="0 0 16 16" xmlns="http://www.w3.org/2000/svg"> <path fill-rule="evenodd" clip-rule="evenodd" d="M11.3601 7.09801C10.2231 7.09801 9.65214 6.44101 9.59814 5.82001H10.6021C10.6601 6.04301 10.9451 6.27001 11.3751 6.27001C12.1991 6.27001 12.5391 5.44101 12.5081 4.41401H12.4491C12.3011 4.80401 11.8791 5.15601 11.1881 5.15601C10.2781 5.15601 9.46814 4.54301 9.46814 3.39801C9.46814 2.25001 10.3161 1.56201 11.4411 1.56201C12.5311 1.56201 13.5041 2.19901 13.5041 4.25001C13.5041 6.11701 12.7821 7.09801 11.3601 7.09801ZM11.4221 4.36301C11.9261 4.36301 12.3551 4.02701 12.3551 3.39101C12.3551 2.75801 11.9571 2.38301 11.4151 2.38301C10.8951 2.38301 10.4881 2.75801 10.4881 3.38301C10.4881 4.02301 10.9061 4.36301 11.4221 4.36301Z"/> <path d="M12.4381 8.66801V14H11.3901V9.68401H11.3391L10.1281 10.543V9.57401L11.3901 8.66801H12.4381ZM4.50014 2.50001C4.50014 2.3674 4.44746 2.24023 4.3537 2.14646C4.25993 2.05269 4.13275 2.00001 4.00014 2.00001C3.86754 2.00001 3.74036 2.05269 3.64659 2.14646C3.55282 2.24023 3.50014 2.3674 3.50014 2.50001V12.293L2.35414 11.146C2.30766 11.0995 2.25247 11.0626 2.19173 11.0375C2.13099 11.0123 2.06589 10.9994 2.00014 10.9994C1.9344 10.9994 1.8693 11.0123 1.80856 11.0375C1.74782 11.0626 1.69263 11.0995 1.64614 11.146C1.59966 11.1925 1.56278 11.2477 1.53762 11.3084C1.51246 11.3692 1.49951 11.4343 1.49951 11.5C1.49951 11.5658 1.51246 11.6309 1.53762 11.6916C1.56278 11.7523 1.59966 11.8075 1.64614 11.854L3.65314 13.86C3.74702 13.9516 3.87327 14.0023 4.00438 14.0012C4.13549 14 4.26085 13.9471 4.35314 13.854L6.35314 11.854C6.44703 11.7603 6.49983 11.633 6.49992 11.5004C6.50001 11.3677 6.4474 11.2404 6.35364 11.1465C6.25989 11.0526 6.13268 10.9998 6 10.9997C5.86732 10.9996 5.74003 11.0523 5.64614 11.146L4.50014 12.293V2.50001Z"/> </svg>