<svg width="16" height="16" viewBox="0 0 16 16" fill="none" xmlns="http://www.w3.org/2000/svg">
<path d="M3.50014 3.5C3.50014 3.36739 3.44746 3.24021 3.3537 3.14645C3.25993 3.05268 3.13275 3 3.00014 3C2.86754 3 2.74036 3.05268 2.64659 3.14645C2.55282 3.24021 2.50014 3.36739 2.50014 3.5V12.293L1.35414 11.146C1.30766 11.0995 1.25247 11.0626 1.19173 11.0375C1.13099 11.0123 1.06589 10.9994 1.00014 10.9994C0.934399 10.9994 0.869299 11.0123 0.80856 11.0375C0.74782 11.0626 0.692631 11.0995 0.646143 11.146C0.599655 11.1925 0.562779 11.2477 0.53762 11.3084C0.512461 11.3692 0.499512 11.4343 0.499512 11.5C0.499512 11.5657 0.512461 11.6308 0.53762 11.6916C0.562779 11.7523 0.599655 11.8075 0.646143 11.854L2.64614 13.853L2.65314 13.86C2.74702 13.9515 2.87327 14.0023 3.00438 14.0011C3.13549 14 3.26085 13.9471 3.35314 13.854L5.35314 11.854C5.44703 11.7602 5.49983 11.633 5.49992 11.5004C5.50002 11.3677 5.4474 11.2404 5.35364 11.1465C5.25989 11.0526 5.13268 10.9998 5 10.9997C4.86732 10.9996 4.74003 11.0522 4.64614 11.146L3.50014 12.293V3.5ZM7.50014 4C7.36754 4 7.24036 3.94732 7.14659 3.85355C7.05282 3.75979 7.00014 3.63261 7.00014 3.5C7.00014 3.36739 7.05282 3.24021 7.14659 3.14645C7.24036 3.05268 7.36754 3 7.50014 3H8.50014C8.63275 3 8.75993 3.05268 8.8537 3.14645C8.94746 3.24021 9.00014 3.36739 9.00014 3.5C9.00014 3.63261 8.94746 3.75979 8.8537 3.85355C8.75993 3.94732 8.63275 4 8.50014 4H7.50014ZM7.50014 7C7.36754 7 7.24036 6.94732 7.14659 6.85355C7.05282 6.75979 7.00014 6.63261 7.00014 6.5C7.00014 6.36739 7.05282 6.24021 7.14659 6.14645C7.24036 6.05268 7.36754 6 7.50014 6H10.5001C10.6328 6 10.7599 6.05268 10.8537 6.14645C10.9475 6.24021 11.0001 6.36739 11.0001 6.5C11.0001 6.63261 10.9475 6.75979 10.8537 6.85355C10.7599 6.94732 10.6328 7 10.5001 7H7.50014ZM7.50014 10C7.36754 10 7.24036 9.94732 7.14659 9.85355C7.05282 9.75979 7.00014 9.63261 7.00014 9.5C7.00014 9.36739 7.05282 9.24021 7.14659 9.14645C7.24036 9.05268 7.36754 9 7.50014 9H12.5001C12.6328 9 12.7599 9.05268 12.8537 9.14645C12.9475 9.24021 13.0001 9.36739 13.0001 9.5C13.0001 9.63261 12.9475 9.75979 12.8537 9.85355C12.7599 9.94732 12.6328 10 12.5001 10H7.50014ZM7.00014 12.5C7.00014 12.6326 7.05282 12.7598 7.14659 12.8536C7.24036 12.9473 7.36754 13 7.50014 13H14.5001C14.6328 13 14.7599 12.9473 14.8537 12.8536C14.9475 12.7598 15.0001 12.6326 15.0001 12.5C15.0001 12.3674 14.9475 12.2402 14.8537 12.1464C14.7599 12.0527 14.6328 12 14.5001 12H7.50014C7.36754 12 7.24036 12.0527 7.14659 12.1464C7.05282 12.2402 7.00014 12.3674 7.00014 12.5Z" fill="#212529"/>
</svg>
