<svg width="16" height="16" viewBox="0 0 16 16" fill="none" xmlns="http://www.w3.org/2000/svg">
<path d="M12.4381 1.66797V6.99997H11.3901V2.68397H11.3391L10.1281 3.54297V2.57397L11.3901 1.66797H12.4381Z" fill="#212529"/>
<path fill-rule="evenodd" clip-rule="evenodd" d="M11.3601 14.098C10.2231 14.098 9.65214 13.441 9.59814 12.82H10.6021C10.6601 13.043 10.9451 13.27 11.3751 13.27C12.1991 13.27 12.5391 12.441 12.5081 11.414H12.4491C12.3011 11.804 11.8791 12.156 11.1881 12.156C10.2781 12.156 9.46814 11.543 9.46814 10.398C9.46814 9.24997 10.3161 8.56297 11.4411 8.56297C12.5311 8.56297 13.5041 9.19897 13.5041 11.25C13.5041 13.117 12.7821 14.098 11.3601 14.098ZM11.4221 11.363C11.9261 11.363 12.3551 11.027 12.3551 10.391C12.3551 9.75797 11.9571 9.38297 11.4151 9.38297C10.8951 9.38297 10.4881 9.75797 10.4881 10.383C10.4881 11.023 10.9061 11.363 11.4221 11.363Z" fill="#212529"/>
<path d="M4.50014 2.49997C4.50014 2.36736 4.44746 2.24018 4.3537 2.14642C4.25993 2.05265 4.13275 1.99997 4.00014 1.99997C3.86754 1.99997 3.74036 2.05265 3.64659 2.14642C3.55282 2.24018 3.50014 2.36736 3.50014 2.49997V12.293L2.35414 11.146C2.30766 11.0995 2.25247 11.0626 2.19173 11.0374C2.13099 11.0123 2.06589 10.9993 2.00014 10.9993C1.9344 10.9993 1.8693 11.0123 1.80856 11.0374C1.74782 11.0626 1.69263 11.0995 1.64614 11.146C1.59966 11.1925 1.56278 11.2476 1.53762 11.3084C1.51246 11.3691 1.49951 11.4342 1.49951 11.5C1.49951 11.5657 1.51246 11.6308 1.53762 11.6916C1.56278 11.7523 1.59966 11.8075 1.64614 11.854L3.65314 13.86C3.74702 13.9515 3.87327 14.0022 4.00438 14.0011C4.13549 14 4.26085 13.9471 4.35314 13.854L6.35314 11.854C6.44703 11.7602 6.49983 11.633 6.49992 11.5003C6.50001 11.3676 6.4474 11.2404 6.35364 11.1465C6.25989 11.0526 6.13268 10.9998 6 10.9997C5.86732 10.9996 5.74003 11.0522 5.64614 11.146L4.50014 12.293V2.49997Z" fill="#212529"/>
</svg>
