<svg width="16" height="16" viewBox="0 0 16 16" xmlns="http://www.w3.org/2000/svg"> <path fill-rule="evenodd" clip-rule="evenodd" d="M11.3601 7.09801C10.2231 7.09801 9.65214 6.44101 9.59814 5.82001H10.6021C10.6601 6.04301 10.9451 6.27001 11.3751 6.27001C12.1991 6.27001 12.5391 5.44101 12.5081 4.41401H12.4491C12.3011 4.80401 11.8791 5.15601 11.1881 5.15601C10.2781 5.15601 9.46814 4.54301 9.46814 3.39801C9.46814 2.25001 10.3161 1.56201 11.4411 1.56201C12.5311 1.56201 13.5041 2.19901 13.5041 4.25001C13.5041 6.11701 12.7821 7.09801 11.3601 7.09801ZM11.4221 4.36301C11.9261 4.36301 12.3551 4.02701 12.3551 3.39101C12.3551 2.75801 11.9571 2.38301 11.4151 2.38301C10.8951 2.38301 10.4881 2.75801 10.4881 3.38301C10.4881 4.02301 10.9061 4.36301 11.4221 4.36301Z"/> <path d="M12.4381 8.66801V14H11.3901V9.68401H11.3391L10.1281 10.543V9.57401L11.3901 8.66801H12.4381ZM4.50014 13.5C4.50014 13.6326 4.44746 13.7598 4.3537 13.8536C4.25993 13.9473 4.13275 14 4.00014 14C3.86754 14 3.74036 13.9473 3.64659 13.8536C3.55282 13.7598 3.50014 13.6326 3.50014 13.5V3.70701L2.35414 4.85401C2.30766 4.9005 2.25247 4.93738 2.19173 4.96254C2.13099 4.98769 2.06589 5.00064 2.00014 5.00064C1.9344 5.00064 1.8693 4.98769 1.80856 4.96254C1.74782 4.93738 1.69263 4.9005 1.64614 4.85401C1.59966 4.80752 1.56278 4.75233 1.53762 4.6916C1.51246 4.63086 1.49951 4.56576 1.49951 4.50001C1.49951 4.43427 1.51246 4.36917 1.53762 4.30843C1.56278 4.24769 1.59966 4.1925 1.64614 4.14601L3.65314 2.14001C3.74714 2.04871 3.87334 1.99815 4.00438 1.99927C4.13541 2.00039 4.26072 2.05312 4.35314 2.14601L6.35314 4.14601C6.39963 4.19243 6.43652 4.24756 6.4617 4.30824C6.48689 4.36892 6.49988 4.43396 6.49992 4.49966C6.49997 4.56536 6.48707 4.63042 6.46198 4.69113C6.43688 4.75185 6.40007 4.80702 6.35364 4.85351C6.30722 4.9 6.2521 4.93689 6.19142 4.96207C6.13074 4.98726 6.06569 5.00024 6 5.00029C5.9343 5.00034 5.86924 4.98744 5.80852 4.96234C5.74781 4.93725 5.69263 4.90043 5.64614 4.85401L4.50014 3.70701V13.5Z"/> </svg>