<svg width="16" height="16" viewBox="0 0 16 16" fill="none" xmlns="http://www.w3.org/2000/svg">
<path fill-rule="evenodd" clip-rule="evenodd" d="M10.0821 5.62897L9.66414 6.99997H8.59814L10.3871 1.66797H11.6211L13.4021 6.99997H12.2821L11.8631 5.62897H10.0821ZM11.6521 4.84397L11.0001 2.68697H10.9531L10.3011 4.84397H11.6521Z" fill="#212529"/>
<path d="M9.02814 14V13.309L11.6071 9.58897V9.53497H9.09814V8.66797H12.8831V9.35897L10.3161 13.079V13.133H12.9611V14H9.02814ZM4.50014 2.49997C4.50014 2.36736 4.44746 2.24018 4.3537 2.14642C4.25993 2.05265 4.13275 1.99997 4.00014 1.99997C3.86754 1.99997 3.74036 2.05265 3.64659 2.14642C3.55282 2.24018 3.50014 2.36736 3.50014 2.49997V12.293L2.35414 11.146C2.30766 11.0995 2.25247 11.0626 2.19173 11.0374C2.13099 11.0123 2.06589 10.9993 2.00014 10.9993C1.9344 10.9993 1.8693 11.0123 1.80856 11.0374C1.74782 11.0626 1.69263 11.0995 1.64614 11.146C1.59966 11.1925 1.56278 11.2476 1.53762 11.3084C1.51246 11.3691 1.49951 11.4342 1.49951 11.5C1.49951 11.5657 1.51246 11.6308 1.53762 11.6916C1.56278 11.7523 1.59966 11.8075 1.64614 11.854L3.65314 13.86C3.74702 13.9515 3.87327 14.0022 4.00438 14.0011C4.13549 14 4.26085 13.9471 4.35314 13.854L6.35314 11.854C6.44703 11.7602 6.49983 11.633 6.49992 11.5003C6.50001 11.3676 6.4474 11.2404 6.35364 11.1465C6.25989 11.0526 6.13268 10.9998 6 10.9997C5.86732 10.9996 5.74003 11.0522 5.64614 11.146L4.50014 12.293V2.49997Z" fill="#212529"/>
</svg>
