<svg width="16" height="16" viewBox="0 0 16 16" fill="none" xmlns="http://www.w3.org/2000/svg">
<path d="M3.50014 13.4998C3.50014 13.6324 3.44746 13.7596 3.3537 13.8533C3.25993 13.9471 3.13275 13.9998 3.00014 13.9998C2.86754 13.9998 2.74036 13.9471 2.64659 13.8533C2.55282 13.7596 2.50014 13.6324 2.50014 13.4998V4.70678L1.35414 5.85378C1.30766 5.90027 1.25247 5.93715 1.19173 5.96231C1.13099 5.98747 1.06589 6.00042 1.00014 6.00042C0.867368 6.00042 0.74003 5.94767 0.646143 5.85378C0.552257 5.7599 0.499512 5.63256 0.499512 5.49978C0.499512 5.36701 0.552257 5.23967 0.646143 5.14578L2.64614 3.14678L2.65314 3.13978C2.74714 3.04849 2.87334 2.99792 3.00438 2.99904C3.13541 3.00016 3.26072 3.05289 3.35314 3.14578L5.35314 5.14578C5.39963 5.19221 5.43652 5.24733 5.4617 5.30801C5.48689 5.36869 5.49988 5.43373 5.49992 5.49943C5.49997 5.56513 5.48707 5.63019 5.46198 5.69091C5.43688 5.75162 5.40007 5.8068 5.35364 5.85328C5.30722 5.89977 5.2521 5.93666 5.19142 5.96185C5.13074 5.98703 5.06569 6.00002 5 6.00006C4.9343 6.00011 4.86924 5.98721 4.80852 5.96212C4.74781 5.93702 4.69263 5.90021 4.64614 5.85378L3.50014 4.70678V13.4998ZM7.50014 3.99978C7.36754 3.99978 7.24036 3.94711 7.14659 3.85334C7.05282 3.75957 7.00014 3.63239 7.00014 3.49978C7.00014 3.36718 7.05282 3.24 7.14659 3.14623C7.24036 3.05246 7.36754 2.99978 7.50014 2.99978H8.50014C8.63275 2.99978 8.75993 3.05246 8.8537 3.14623C8.94746 3.24 9.00014 3.36718 9.00014 3.49978C9.00014 3.63239 8.94746 3.75957 8.8537 3.85334C8.75993 3.94711 8.63275 3.99978 8.50014 3.99978H7.50014ZM7.50014 6.99978C7.36754 6.99978 7.24036 6.94711 7.14659 6.85334C7.05282 6.75957 7.00014 6.63239 7.00014 6.49978C7.00014 6.36718 7.05282 6.24 7.14659 6.14623C7.24036 6.05246 7.36754 5.99978 7.50014 5.99978H10.5001C10.6328 5.99978 10.7599 6.05246 10.8537 6.14623C10.9475 6.24 11.0001 6.36718 11.0001 6.49978C11.0001 6.63239 10.9475 6.75957 10.8537 6.85334C10.7599 6.94711 10.6328 6.99978 10.5001 6.99978H7.50014ZM7.50014 9.99978C7.36754 9.99978 7.24036 9.94711 7.14659 9.85334C7.05282 9.75957 7.00014 9.63239 7.00014 9.49978C7.00014 9.36718 7.05282 9.24 7.14659 9.14623C7.24036 9.05246 7.36754 8.99978 7.50014 8.99978H12.5001C12.6328 8.99978 12.7599 9.05246 12.8537 9.14623C12.9475 9.24 13.0001 9.36718 13.0001 9.49978C13.0001 9.63239 12.9475 9.75957 12.8537 9.85334C12.7599 9.94711 12.6328 9.99978 12.5001 9.99978H7.50014ZM7.00014 12.4998C7.00014 12.6324 7.05282 12.7596 7.14659 12.8533C7.24036 12.9471 7.36754 12.9998 7.50014 12.9998H14.5001C14.6328 12.9998 14.7599 12.9471 14.8537 12.8533C14.9475 12.7596 15.0001 12.6324 15.0001 12.4998C15.0001 12.3672 14.9475 12.24 14.8537 12.1462C14.7599 12.0525 14.6328 11.9998 14.5001 11.9998H7.50014C7.36754 11.9998 7.24036 12.0525 7.14659 12.1462C7.05282 12.24 7.00014 12.3672 7.00014 12.4998Z" fill="#212529"/>
</svg>
