<svg width="16" height="16" viewBox="0 0 16 16" xmlns="http://www.w3.org/2000/svg"> <g clip-path="url(#clip0_34_5384)"> <path d="M7.9999 1.99991C8.13251 1.99991 8.25969 2.05259 8.35345 2.14636C8.44722 2.24013 8.4999 2.3673 8.4999 2.49991V3.99991C8.4999 4.13252 8.44722 4.2597 8.35345 4.35346C8.25969 4.44723 8.13251 4.49991 7.9999 4.49991C7.86729 4.49991 7.74011 4.44723 7.64635 4.35346C7.55258 4.2597 7.4999 4.13252 7.4999 3.99991V2.49991C7.4999 2.3673 7.55258 2.24013 7.64635 2.14636C7.74011 2.05259 7.86729 1.99991 7.9999 1.99991ZM3.7319 3.73191C3.82566 3.63818 3.95282 3.58552 4.0854 3.58552C4.21798 3.58552 4.34514 3.63818 4.4389 3.73191L5.3539 4.64591C5.44779 4.7398 5.50053 4.86714 5.50053 4.99991C5.50053 5.13269 5.44779 5.26003 5.3539 5.35391C5.26001 5.4478 5.13268 5.50054 4.9999 5.50054C4.86712 5.50054 4.73979 5.4478 4.6459 5.35391L3.7319 4.43891C3.63816 4.34515 3.58551 4.21799 3.58551 4.08541C3.58551 3.95283 3.63816 3.82568 3.7319 3.73191ZM1.9999 7.99991C1.9999 7.8673 2.05258 7.74013 2.14635 7.64636C2.24011 7.55259 2.36729 7.49991 2.4999 7.49991H4.0859C4.21851 7.49991 4.34569 7.55259 4.43945 7.64636C4.53322 7.74013 4.5859 7.8673 4.5859 7.99991C4.5859 8.13252 4.53322 8.2597 4.43945 8.35347C4.34569 8.44723 4.21851 8.49991 4.0859 8.49991H2.4999C2.36729 8.49991 2.24011 8.44723 2.14635 8.35347C2.05258 8.2597 1.9999 8.13252 1.9999 7.99991ZM11.4999 7.99991C11.4999 7.8673 11.5526 7.74013 11.6463 7.64636C11.7401 7.55259 11.8673 7.49991 11.9999 7.49991H13.4999C13.6325 7.49991 13.7597 7.55259 13.8535 7.64636C13.9472 7.74013 13.9999 7.8673 13.9999 7.99991C13.9999 8.13252 13.9472 8.2597 13.8535 8.35347C13.7597 8.44723 13.6325 8.49991 13.4999 8.49991H11.9999C11.8673 8.49991 11.7401 8.44723 11.6463 8.35347C11.5526 8.2597 11.4999 8.13252 11.4999 7.99991ZM12.2539 3.75391C12.1846 3.685 12.092 3.64468 11.9943 3.64097C11.8967 3.63727 11.8012 3.67045 11.7269 3.73391L7.5469 7.30991C7.45062 7.39234 7.37262 7.49397 7.3179 7.6083C7.26318 7.72262 7.23294 7.84711 7.22913 7.9738C7.22532 8.10049 7.24801 8.22658 7.29575 8.34398C7.3435 8.46139 7.41525 8.56753 7.50639 8.6556C7.59754 8.74367 7.70608 8.81173 7.82506 8.85542C7.94404 8.8991 8.07083 8.91745 8.19731 8.90929C8.3238 8.90113 8.44718 8.86664 8.55956 8.80802C8.67193 8.74941 8.77083 8.66796 8.8499 8.56891L12.2839 4.27191C12.3436 4.19713 12.3737 4.10294 12.3684 4.00737C12.363 3.9118 12.3226 3.82156 12.2549 3.75391H12.2539Z"/> <path fill-rule="evenodd" clip-rule="evenodd" d="M6.6639 15.8889C5.62784 15.7135 4.63647 15.3357 3.74642 14.7771C2.85636 14.2185 2.08503 13.4901 1.47649 12.6334C0.247466 10.9033 -0.243929 8.75584 0.1104 6.66341C0.464729 4.57099 1.63576 2.70502 3.36588 1.476C5.09599 0.246978 7.24347 -0.244418 9.3359 0.109911C11.4285 0.464241 13.2946 1.63532 14.5237 3.36553C15.7528 5.09574 16.2442 7.24335 15.8899 9.33591C15.5356 11.4285 14.3645 13.2946 12.6343 14.5237C10.9041 15.7528 8.75646 16.2442 6.6639 15.8899V15.8889ZM1.9989 11.6059C3.82258 10.5507 5.89293 9.99662 7.9999 9.99991C10.1859 9.99991 12.2359 10.5849 14.0009 11.6059C14.6388 10.5438 14.9833 9.33132 14.9993 8.09244C15.0153 6.85357 14.7022 5.63264 14.092 4.55436C13.4818 3.47608 12.5963 2.57908 11.526 1.95497C10.4557 1.33087 9.23888 1.00202 7.9999 1.00202C6.76092 1.00202 5.54414 1.33087 4.47383 1.95497C3.40352 2.57908 2.51803 3.47608 1.90781 4.55436C1.29758 5.63264 0.98448 6.85357 1.00048 8.09244C1.01649 9.33132 1.36102 10.5438 1.9989 11.6059Z"/> </g> <defs> <clipPath id="clip0_34_5384"> <rect width="16" height="16"/> </clipPath> </defs> </svg>