<svg width="16" height="16" viewBox="0 0 16 16" xmlns="http://www.w3.org/2000/svg"> <g clip-path="url(#clip0_34_5386)"> <path d="M8.00001 4.00014C8.13261 4.00014 8.25979 4.05282 8.35356 4.14659C8.44733 4.24036 8.50001 4.36753 8.50001 4.50014V6.00014C8.50001 6.13275 8.44733 6.25993 8.35356 6.35369C8.25979 6.44746 8.13261 6.50014 8.00001 6.50014C7.8674 6.50014 7.74022 6.44746 7.64645 6.35369C7.55268 6.25993 7.50001 6.13275 7.50001 6.00014V4.50014C7.50001 4.36753 7.55268 4.24036 7.64645 4.14659C7.74022 4.05282 7.8674 4.00014 8.00001 4.00014ZM3.73201 5.73214C3.82577 5.63841 3.95292 5.58575 4.08551 5.58575C4.21809 5.58575 4.34524 5.63841 4.43901 5.73214L5.35401 6.64614C5.40049 6.69263 5.43737 6.74782 5.46253 6.80856C5.48769 6.8693 5.50064 6.9344 5.50064 7.00014C5.50064 7.06588 5.48769 7.13098 5.46253 7.19172C5.43737 7.25246 5.40049 7.30765 5.35401 7.35414C5.30752 7.40063 5.25233 7.4375 5.19159 7.46266C5.13085 7.48782 5.06575 7.50077 5.00001 7.50077C4.93426 7.50077 4.86916 7.48782 4.80842 7.46266C4.74768 7.4375 4.69249 7.40063 4.64601 7.35414L3.73201 6.43914C3.63827 6.34538 3.58561 6.21822 3.58561 6.08564C3.58561 5.95306 3.63827 5.8259 3.73201 5.73214ZM2.00001 10.0001C2.00001 9.86753 2.05268 9.74036 2.14645 9.64659C2.24022 9.55282 2.3674 9.50014 2.50001 9.50014H4.08601C4.21861 9.50014 4.34579 9.55282 4.43956 9.64659C4.53333 9.74036 4.58601 9.86753 4.58601 10.0001C4.58601 10.1327 4.53333 10.2599 4.43956 10.3537C4.34579 10.4475 4.21861 10.5001 4.08601 10.5001H2.50001C2.3674 10.5001 2.24022 10.4475 2.14645 10.3537C2.05268 10.2599 2.00001 10.1327 2.00001 10.0001ZM11.5 10.0001C11.5 9.86753 11.5527 9.74036 11.6465 9.64659C11.7402 9.55282 11.8674 9.50014 12 9.50014H13.5C13.6326 9.50014 13.7598 9.55282 13.8536 9.64659C13.9473 9.74036 14 9.86753 14 10.0001C14 10.1327 13.9473 10.2599 13.8536 10.3537C13.7598 10.4475 13.6326 10.5001 13.5 10.5001H12C11.8674 10.5001 11.7402 10.4475 11.6465 10.3537C11.5527 10.2599 11.5 10.1327 11.5 10.0001ZM12.254 5.75414C12.1847 5.68523 12.0921 5.64491 11.9944 5.6412C11.8968 5.6375 11.8013 5.67068 11.727 5.73414L7.54701 9.31014C7.44961 9.3922 7.37053 9.49378 7.31487 9.60833C7.25921 9.72287 7.22821 9.84782 7.22388 9.9751C7.21954 10.1024 7.24197 10.2291 7.28972 10.3472C7.33746 10.4653 7.40945 10.572 7.50104 10.6605C7.59262 10.749 7.70176 10.8173 7.82139 10.8609C7.94103 10.9046 8.06849 10.9226 8.19555 10.9139C8.3226 10.9052 8.44641 10.8699 8.55897 10.8104C8.67154 10.7508 8.77034 10.6683 8.84901 10.5681L12.283 6.27114C12.3427 6.19636 12.3728 6.10217 12.3675 6.0066C12.3621 5.91103 12.3217 5.82079 12.254 5.75314V5.75414Z"/> <path fill-rule="evenodd" clip-rule="evenodd" d="M5.30783e-06 10.0001C0.00105068 8.83594 0.256178 7.686 0.747577 6.63059C1.23898 5.57518 1.9548 4.63974 2.84509 3.88957C3.73538 3.1394 4.77866 2.59259 5.90212 2.28729C7.02558 1.982 8.20213 1.92559 9.34964 2.12199C10.4972 2.3184 11.588 2.76289 12.5459 3.42444C13.5039 4.08599 14.306 4.94865 14.8961 5.9522C15.4862 6.95575 15.8502 8.07601 15.9626 9.23477C16.075 10.3935 15.9332 11.5629 15.547 12.6611C15.105 13.9141 13.702 14.2631 12.615 13.9111C11.309 13.4881 9.47501 13.0001 8.00001 13.0001C6.52601 13.0001 4.69001 13.4881 3.38501 13.9111C2.29801 14.2631 0.895005 13.9141 0.453005 12.6611C0.152147 11.8063 -0.00103942 10.9064 5.30783e-06 10.0001ZM8.00001 3.00014C6.88038 2.99985 5.77701 3.26814 4.78252 3.78247C3.78802 4.29681 2.93141 5.0422 2.28457 5.95608C1.63774 6.86995 1.21955 7.92566 1.06511 9.03458C0.910674 10.1435 1.02449 11.2733 1.39701 12.3291C1.60001 12.9041 2.32001 13.2051 3.07701 12.9591C4.39701 12.5331 6.35801 12.0001 8.00001 12.0001C9.64201 12.0001 11.604 12.5321 12.923 12.9601C13.68 13.2051 14.4 12.9041 14.603 12.3291C14.9755 11.2733 15.0893 10.1435 14.9349 9.03458C14.7805 7.92566 14.3623 6.86995 13.7154 5.95608C13.0686 5.0422 12.212 4.29681 11.2175 3.78247C10.223 3.26814 9.11963 2.99985 8.00001 3.00014Z"/> </g> <defs> <clipPath id="clip0_34_5386"> <rect width="16" height="16"/> </clipPath> </defs> </svg>