<svg width="16" height="16" viewBox="0 0 16 16" xmlns="http://www.w3.org/2000/svg"> <g clip-path="url(#clip0_34_5398)"> <path d="M14.1199 10.1629L15.8349 11.0209C16.0549 11.1309 16.0549 11.4449 15.8349 11.5549L8.26693 15.3399C8.184 15.3813 8.0926 15.4028 7.99993 15.4028C7.90725 15.4028 7.81585 15.3813 7.73293 15.3399L0.164927 11.5549C0.115489 11.53 0.0739401 11.4918 0.0449099 11.4447C0.0158797 11.3976 0.000508306 11.3433 0.000508306 11.2879C0.000508306 11.2326 0.0158797 11.1783 0.0449099 11.1311C0.0739401 11.084 0.115489 11.0458 0.164927 11.0209L1.88093 10.1629L7.19793 12.8219C7.70293 13.0739 8.29793 13.0739 8.80193 12.8219L14.1189 10.1619L14.1199 10.1629ZM7.73293 0.0629159C7.81585 0.0215386 7.90725 0 7.99993 0C8.0926 0 8.184 0.0215386 8.26693 0.0629159L15.8349 3.84692C15.8843 3.872 15.9258 3.91026 15.9548 3.95748C15.9838 4.0047 15.9991 4.05902 15.9991 4.11442C15.9991 4.16982 15.9838 4.22414 15.9548 4.27135C15.9258 4.31857 15.8843 4.35684 15.8349 4.38192L8.26693 8.16492C8.184 8.20629 8.0926 8.22783 7.99993 8.22783C7.90725 8.22783 7.81585 8.20629 7.73293 8.16492L0.164927 4.38192C0.115227 4.3571 0.0734238 4.31892 0.0442061 4.27167C0.0149884 4.22442 -0.000488281 4.16997 -0.000488281 4.11442C-0.000488281 4.05886 0.0149884 4.00441 0.0442061 3.95716C0.0734238 3.90991 0.115227 3.87174 0.164927 3.84692L7.73293 0.0629159Z"/> <path d="M14.1199 6.57592L15.8349 7.43392C16.0549 7.54392 16.0549 7.85792 15.8349 7.96792L8.26693 11.7519C8.184 11.7933 8.0926 11.8148 7.99993 11.8148C7.90725 11.8148 7.81585 11.7933 7.73293 11.7519L0.164927 7.96792C0.115489 7.943 0.0739401 7.90484 0.0449099 7.8577C0.0158797 7.81056 0.000508306 7.75628 0.000508306 7.70092C0.000508306 7.64555 0.0158797 7.59128 0.0449099 7.54413C0.0739401 7.49699 0.115489 7.45884 0.164927 7.43392L1.88093 6.57592L7.19793 9.23492C7.70293 9.48692 8.29793 9.48692 8.80193 9.23492L14.1199 6.57592Z"/> </g> <defs> <clipPath id="clip0_34_5398"> <rect width="16" height="16"/> </clipPath> </defs> </svg>