<svg width="16" height="16" viewBox="0 0 16 16" xmlns="http://www.w3.org/2000/svg"> <g clip-path="url(#clip0_34_5402)"> <path d="M2.86612 14.8502C2.78812 15.2942 3.22612 15.6412 3.61212 15.4432L8.00212 13.1872L12.3911 15.4432C12.7771 15.6412 13.2151 15.2942 13.1371 14.8512L12.3071 10.1212L15.8291 6.76517C16.1591 6.45117 15.9891 5.87717 15.5471 5.81517L10.6491 5.11917L8.46512 0.792167C8.42351 0.704456 8.35787 0.63035 8.27583 0.57846C8.19378 0.526569 8.0987 0.499023 8.00162 0.499023C7.90454 0.499023 7.80945 0.526569 7.72741 0.57846C7.64536 0.63035 7.57972 0.704456 7.53812 0.792167L5.35412 5.12017L0.456118 5.81617C0.0151183 5.87817 -0.155882 6.45217 0.173118 6.76617L3.69612 10.1222L2.86612 14.8522V14.8502ZM7.77112 12.0832L4.08512 13.9772L4.77912 10.0202C4.79538 9.92908 4.78902 9.83539 4.76059 9.74734C4.73217 9.65929 4.68256 9.57956 4.61612 9.51517L1.71012 6.74517L5.76212 6.16917C5.84602 6.1565 5.92561 6.12368 5.99405 6.07352C6.0625 6.02336 6.11776 5.95736 6.15512 5.88117L8.00012 2.22317L9.84712 5.88117C9.88447 5.95736 9.93974 6.02336 10.0082 6.07352C10.0766 6.12368 10.1562 6.1565 10.2401 6.16917L14.2921 6.74417L11.3861 9.51417C11.3195 9.57866 11.2698 9.65856 11.2414 9.7468C11.213 9.83504 11.2067 9.92893 11.2231 10.0202L11.9171 13.9772L8.23112 12.0832C8.15984 12.0464 8.08081 12.0272 8.00062 12.0272C7.92043 12.0272 7.8414 12.0464 7.77012 12.0832H7.77112Z"/> </g> <defs> <clipPath id="clip0_34_5402"> <rect width="16" height="16"/> </clipPath> </defs> </svg>