<svg width="16" height="16" viewBox="0 0 16 16" xmlns="http://www.w3.org/2000/svg"> <g clip-path="url(#clip0_34_5408)"> <path d="M7.65681 6.24697C7.76681 5.91697 8.23281 5.91697 8.34281 6.24697L8.98781 8.18397C9.12978 8.60977 9.36898 8.99665 9.68645 9.31394C10.0039 9.63124 10.3909 9.87023 10.8168 10.012L12.7528 10.657C13.0828 10.767 13.0828 11.233 12.7528 11.343L10.8158 11.988C10.39 12.1299 10.0031 12.3691 9.68583 12.6866C9.36854 13.0041 9.12955 13.3911 8.98781 13.817L8.34281 15.753C8.3191 15.8252 8.27316 15.8882 8.21157 15.9328C8.14997 15.9774 8.07586 16.0014 7.99981 16.0014C7.92376 16.0014 7.84965 15.9774 7.78805 15.9328C7.72646 15.8882 7.68053 15.8252 7.65681 15.753L7.01181 13.816C6.86994 13.3903 6.63089 13.0035 6.3136 12.6862C5.99632 12.3689 5.6095 12.1298 5.18381 11.988L3.24681 11.343C3.17455 11.3193 3.11162 11.2733 3.06701 11.2117C3.0224 11.1501 2.99838 11.076 2.99838 11C2.99838 10.9239 3.0224 10.8498 3.06701 10.7882C3.11162 10.7266 3.17455 10.6807 3.24681 10.657L5.18381 10.012C5.6095 9.8701 5.99632 9.63105 6.3136 9.31376C6.63089 8.99647 6.86994 8.60966 7.01181 8.18397L7.65681 6.24697ZM3.79381 1.14797C3.80815 1.10466 3.83577 1.06698 3.87275 1.04027C3.90973 1.01356 3.95419 0.99918 3.99981 0.99918C4.04543 0.99918 4.08989 1.01356 4.12687 1.04027C4.16385 1.06698 4.19147 1.10466 4.20581 1.14797L4.59281 2.30997C4.76581 2.82797 5.17181 3.23397 5.68981 3.40697L6.85181 3.79397C6.89512 3.80831 6.9328 3.83593 6.95951 3.87291C6.98622 3.90989 7.0006 3.95435 7.0006 3.99997C7.0006 4.04559 6.98622 4.09004 6.95951 4.12702C6.9328 4.164 6.89512 4.19163 6.85181 4.20597L5.68981 4.59297C5.43434 4.67808 5.2022 4.82153 5.01179 5.01194C4.82137 5.20235 4.67793 5.43449 4.59281 5.68997L4.20581 6.85197C4.19147 6.89527 4.16385 6.93296 4.12687 6.95967C4.08989 6.98638 4.04543 7.00075 3.99981 7.00075C3.95419 7.00075 3.90973 6.98638 3.87275 6.95967C3.83577 6.93296 3.80815 6.89527 3.79381 6.85197L3.40681 5.68997C3.32169 5.43449 3.17825 5.20235 2.98784 5.01194C2.79743 4.82153 2.56529 4.67808 2.30981 4.59297L1.14781 4.20597C1.1045 4.19163 1.06682 4.164 1.04011 4.12702C1.0134 4.09004 0.999023 4.04559 0.999023 3.99997C0.999023 3.95435 1.0134 3.90989 1.04011 3.87291C1.06682 3.83593 1.1045 3.80831 1.14781 3.79397L2.30981 3.40697C2.56529 3.32185 2.79743 3.1784 2.98784 2.98799C3.17825 2.79758 3.32169 2.56544 3.40681 2.30997L3.79381 1.14797ZM10.8628 0.0989675C10.8727 0.0704938 10.8912 0.0458034 10.9157 0.0283291C10.9403 0.0108548 10.9697 0.00146484 10.9998 0.00146484C11.0299 0.00146484 11.0593 0.0108548 11.0839 0.0283291C11.1084 0.0458034 11.1269 0.0704938 11.1368 0.0989675L11.3948 0.872967C11.5098 1.21897 11.7808 1.48997 12.1268 1.60497L12.9008 1.86297C12.9293 1.87284 12.954 1.89134 12.9714 1.91589C12.9889 1.94044 12.9983 1.96983 12.9983 1.99997C12.9983 2.0301 12.9889 2.05949 12.9714 2.08404C12.954 2.1086 12.9293 2.1271 12.9008 2.13697L12.1268 2.39497C11.9563 2.45169 11.8014 2.54738 11.6743 2.67445C11.5472 2.80152 11.4515 2.95646 11.3948 3.12697L11.1368 3.90097C11.1269 3.92944 11.1084 3.95413 11.0839 3.97161C11.0593 3.98908 11.0299 3.99847 10.9998 3.99847C10.9697 3.99847 10.9403 3.98908 10.9157 3.97161C10.8912 3.95413 10.8727 3.92944 10.8628 3.90097L10.6048 3.12697C10.5481 2.95646 10.4524 2.80152 10.3253 2.67445C10.1983 2.54738 10.0433 2.45169 9.87281 2.39497L9.09981 2.13697C9.07134 2.1271 9.04665 2.1086 9.02917 2.08404C9.0117 2.05949 9.00231 2.0301 9.00231 1.99997C9.00231 1.96983 9.0117 1.94044 9.02917 1.91589C9.04665 1.89134 9.07134 1.87284 9.09981 1.86297L9.87381 1.60497C10.2198 1.48997 10.4908 1.21897 10.6058 0.872967L10.8628 0.0999675V0.0989675Z"/> </g> <defs> <clipPath id="clip0_34_5408"> <rect width="16" height="16"/> </clipPath> </defs> </svg>