<svg width="16" height="16" viewBox="0 0 16 16" xmlns="http://www.w3.org/2000/svg"> <g clip-path="url(#clip0_34_5410)"> <path d="M3.22513 14.4296C1.84598 13.4094 0.830791 11.9734 0.329 10.333H0.33L3.361 11.582C3.43779 11.9295 3.5971 12.2534 3.82546 12.5263C4.05382 12.7992 4.34452 13.0131 4.673 13.15C5.01524 13.2922 5.38759 13.3465 5.75618 13.3081C6.12477 13.2697 6.47791 13.1397 6.78348 12.93C7.08905 12.7204 7.33735 12.4376 7.5058 12.1075C7.67426 11.7774 7.75751 11.4105 7.748 11.04L10.552 9.04C10.9572 9.04852 11.3601 8.97609 11.737 8.82697C12.1139 8.67785 12.4573 8.45503 12.747 8.17155C13.0367 7.88808 13.2669 7.54965 13.4242 7.17609C13.5815 6.80252 13.6627 6.40133 13.663 5.996C13.6622 5.18936 13.3415 4.41598 12.7712 3.84551C12.2009 3.27503 11.4276 2.95406 10.621 2.953C9.81436 2.95406 9.04108 3.27503 8.4708 3.84551C7.90051 4.41598 7.57979 5.18936 7.579 5.996L7.58 6.036L5.62 8.88C5.15493 8.8589 4.69518 8.98601 4.307 9.243L0.003 7.474L0 7.468C0.136464 5.44186 1.03778 3.5433 2.52146 2.15673C4.00513 0.77016 5.96027 -0.000784384 7.991 5.98869e-07C12.414 5.98869e-07 16 3.582 16 8C16 12.418 12.414 16 7.99 16C6.27453 16.0003 4.60428 15.4498 3.22513 14.4296Z"/> <path d="M6.15659 12.6565C5.74685 12.8325 5.28466 12.842 4.86802 12.683C4.48037 12.5215 4.16618 12.2213 3.98602 11.842L4.97602 12.252C5.12901 12.3157 5.29305 12.3486 5.45877 12.3489C5.62449 12.3492 5.78864 12.3169 5.94186 12.2537C6.09507 12.1906 6.23435 12.0979 6.35174 11.9809C6.46913 11.8639 6.56233 11.725 6.62602 11.572C6.68971 11.419 6.72265 11.255 6.72294 11.0893C6.72324 10.9235 6.69089 10.7594 6.62775 10.6062C6.56461 10.4529 6.4719 10.3137 6.35493 10.1963C6.23796 10.0789 6.09901 9.98569 5.94602 9.922L4.92302 9.498C5.33106 9.34271 5.78311 9.34987 6.18602 9.51799C6.59239 9.70168 6.91122 10.0364 7.07491 10.4513C7.23859 10.8661 7.23426 11.3284 7.06282 11.74C6.89138 12.1517 6.56633 12.4804 6.15659 12.6565Z"/> <path fill-rule="evenodd" clip-rule="evenodd" d="M9.18789 7.42972C8.80787 7.04932 8.59429 6.53369 8.59402 5.99599C8.59482 5.45864 8.80863 4.94353 9.18859 4.56357C9.56856 4.1836 10.0837 3.96979 10.621 3.96899C11.1584 3.96979 11.6735 4.1836 12.0535 4.56357C12.4334 4.94353 12.6472 5.45864 12.648 5.99599C12.6478 6.53369 12.4342 7.04932 12.0542 7.42972C11.6741 7.81011 11.1587 8.0242 10.621 8.02499C10.0833 8.0242 9.56791 7.81011 9.18789 7.42972ZM11.2072 4.58538C11.0223 4.50868 10.8242 4.46913 10.624 4.46899C10.2198 4.46873 9.83209 4.62904 9.5461 4.91466C9.26011 5.20027 9.09929 5.5878 9.09902 5.99199C9.09876 6.39618 9.25907 6.78393 9.54469 7.06992C9.8303 7.35591 10.2178 7.51673 10.622 7.51699C10.8222 7.51713 11.0204 7.47784 11.2053 7.40137C11.3903 7.3249 11.5583 7.21276 11.6999 7.07133C11.8416 6.92991 11.9539 6.76198 12.0306 6.57713C12.1073 6.39228 12.1469 6.19413 12.147 5.99399C12.1472 5.79386 12.1079 5.59566 12.0314 5.41071C11.9549 5.22576 11.8428 5.05768 11.7014 4.91607C11.5599 4.77446 11.392 4.66209 11.2072 4.58538Z"/> </g> <defs> <clipPath id="clip0_34_5410"> <rect width="16" height="16"/> </clipPath> </defs> </svg>