<svg width="16" height="16" viewBox="0 0 16 16" xmlns="http://www.w3.org/2000/svg"> <path d="M8.38405 1.22616C8.34168 1.16326 8.2845 1.11173 8.21754 1.0761C8.15059 1.04047 8.0759 1.02184 8.00005 1.02184C7.92421 1.02184 7.84952 1.04047 7.78257 1.0761C7.71561 1.11173 7.65843 1.16326 7.61606 1.22616L3.05605 7.69416C2.99373 7.78403 2.96034 7.89079 2.96034 8.00016C2.96034 8.10953 2.99373 8.21629 3.05605 8.30616L7.61606 14.7752C7.65843 14.8381 7.71561 14.8896 7.78257 14.9252C7.84952 14.9609 7.92421 14.9795 8.00005 14.9795C8.0759 14.9795 8.15059 14.9609 8.21754 14.9252C8.2845 14.8896 8.34168 14.8381 8.38405 14.7752L12.9441 8.30616C13.0064 8.21629 13.0398 8.10953 13.0398 8.00016C13.0398 7.89079 13.0064 7.78403 12.9441 7.69416L8.38405 1.22616ZM6.84805 0.613162C6.97533 0.424655 7.14692 0.270263 7.34778 0.163527C7.54863 0.0567924 7.7726 0.000976563 8.00005 0.000976562C8.22751 0.000976563 8.45148 0.0567924 8.65233 0.163527C8.85319 0.270263 9.02478 0.424655 9.15206 0.613162L13.7121 7.08116C13.8996 7.35093 14.0001 7.67161 14.0001 8.00016C14.0001 8.32871 13.8996 8.6494 13.7121 8.91916L9.15206 15.3872C9.02478 15.5757 8.85319 15.7301 8.65233 15.8368C8.45148 15.9435 8.22751 15.9993 8.00005 15.9993C7.7726 15.9993 7.54863 15.9435 7.34778 15.8368C7.14692 15.7301 6.97533 15.5757 6.84805 15.3872L2.28805 8.92016C2.10052 8.6504 2 8.32971 2 8.00116C2 7.67261 2.10052 7.35193 2.28805 7.08216L6.84805 0.613162Z"/> </svg>