<svg width="16" height="16" viewBox="0 0 16 16" fill="none" xmlns="http://www.w3.org/2000/svg">
<g clip-path="url(#clip0_34_5444)">
<path d="M8.00024 1C7.13829 1 6.31164 1.34241 5.70214 1.9519C5.09265 2.5614 4.75024 3.38805 4.75024 4.25C4.75024 4.436 4.75024 4.54 4.76624 4.66C4.78024 4.78 4.81124 4.93 4.88624 5.187L5.07624 5.852L4.38424 5.824C3.83242 5.80114 3.28388 5.91927 2.7904 6.16726C2.29691 6.41524 1.87476 6.7849 1.5638 7.24133C1.25284 7.69775 1.06332 8.2259 1.01313 8.7759C0.962951 9.32591 1.05376 9.87963 1.27698 10.3848C1.50021 10.89 1.84849 11.3299 2.28894 11.6631C2.7294 11.9963 3.2475 12.2118 3.79435 12.2892C4.34119 12.3665 4.89873 12.3033 5.41434 12.1054C5.92995 11.9075 6.38662 11.5814 6.74124 11.158C6.81798 11.065 6.92573 11.0029 7.04466 10.9831C7.16358 10.9632 7.28566 10.9871 7.38841 11.0501C7.49116 11.1132 7.56767 11.2113 7.60384 11.3263C7.64001 11.4413 7.6334 11.5655 7.58524 11.676L7.58224 11.681L7.57624 11.696L7.55224 11.751C7.4134 12.061 7.26736 12.3678 7.11424 12.671C6.7341 13.4267 6.31142 14.1602 5.84824 14.868C5.83524 14.886 5.82824 14.918 5.84924 14.958C5.85924 14.978 5.87024 14.988 5.87924 14.994C5.88545 14.9981 5.89279 15.0002 5.90024 15H10.1002C10.1102 15 10.1162 14.998 10.1222 14.994C10.1347 14.9849 10.1447 14.9729 10.1512 14.959C10.1712 14.919 10.1652 14.886 10.1522 14.868C9.5043 13.8747 8.93458 12.8326 8.44824 11.751L8.42424 11.697L8.41824 11.682L8.41624 11.678C8.36908 11.5683 8.36275 11.4453 8.39838 11.3313C8.43401 11.2174 8.50926 11.1199 8.61051 11.0566C8.71176 10.9933 8.83233 10.9683 8.9504 10.9862C9.06847 11.004 9.17625 11.0636 9.25424 11.154C9.85524 11.854 10.7702 12.322 11.7502 12.322C12.1805 12.3182 12.6056 12.229 13.0011 12.0596C13.3966 11.8903 13.7545 11.644 14.0541 11.3353C14.3537 11.0265 14.589 10.6613 14.7464 10.2609C14.9037 9.86044 14.98 9.43276 14.9708 9.00262C14.9616 8.57248 14.8671 8.14846 14.6928 7.75513C14.5184 7.36181 14.2677 7.00701 13.9552 6.71132C13.6427 6.41564 13.2746 6.18494 12.8722 6.03262C12.4698 5.88031 12.0412 5.80939 11.6112 5.824L10.9122 5.854L11.1112 5.183C11.2512 4.713 11.2512 4.438 11.2502 4.256V4.25C11.2502 3.38805 10.9078 2.5614 10.2983 1.9519C9.68884 1.34241 8.86219 1 8.00024 1ZM10.2072 13.024C10.4322 13.429 10.6942 13.872 10.9872 14.318C11.4372 15 10.9752 16 10.1002 16H5.90024C5.02424 16 4.56224 15 5.01324 14.317C5.30424 13.875 5.56524 13.437 5.78924 13.034C5.22572 13.2522 4.62216 13.3476 4.01882 13.3141C3.41548 13.2805 2.82623 13.1187 2.29039 12.8394C1.75454 12.56 1.28442 12.1697 0.911388 11.6943C0.538352 11.2189 0.270979 10.6694 0.127105 10.0825C-0.0167696 9.49565 -0.0338368 8.88482 0.0770416 8.2908C0.18792 7.69679 0.424195 7.13325 0.770104 6.63778C1.11601 6.1423 1.5636 5.72629 2.08301 5.41749C2.60243 5.10869 3.18172 4.9142 3.78224 4.847C3.77899 4.8257 3.77599 4.80437 3.77324 4.783C3.75024 4.596 3.75024 4.435 3.75024 4.263V4.25C3.75024 3.12283 4.19801 2.04183 4.99504 1.2448C5.79207 0.447767 6.87307 0 8.00024 0C9.12741 0 10.2084 0.447767 11.0054 1.2448C11.8025 2.04183 12.2502 3.12283 12.2502 4.25C12.2502 4.39 12.2502 4.583 12.2102 4.846C13.293 4.96153 14.29 5.48822 14.9958 6.31742C15.7015 7.14661 16.0621 8.21506 16.0031 9.30232C15.9441 10.3896 15.47 11.4127 14.6787 12.1607C13.8873 12.9086 12.8391 13.3243 11.7502 13.322C11.2217 13.321 10.6981 13.2199 10.2072 13.024Z" fill="#212529"/>
</g>
<defs>
<clipPath id="clip0_34_5444">
<rect width="16" height="16" fill="white"/>
</clipPath>
</defs>
</svg>
