<svg width="16" height="16" viewBox="0 0 16 16" fill="none" xmlns="http://www.w3.org/2000/svg">
<path d="M11.4998 12.4998C10.9878 12.5002 10.4821 12.3881 10.0182 12.1714C9.55443 11.9547 9.14392 11.6387 8.81577 11.2458C9.26155 12.257 9.79071 13.2293 10.3978 14.1528C10.6288 14.5028 10.3778 14.9998 9.95977 14.9998H6.03977C5.62077 14.9998 5.36977 14.5028 5.60177 14.1528C6.20883 13.2293 6.73799 12.257 7.18377 11.2458C6.802 11.702 6.31024 12.0534 5.75493 12.2668C5.19961 12.4802 4.59907 12.5485 4.01002 12.4653C3.42097 12.3821 2.86284 12.1502 2.38835 11.7913C1.91386 11.4325 1.53866 10.9586 1.29819 10.4145C1.05772 9.87035 0.959917 9.2739 1.01401 8.68147C1.06811 8.08903 1.27232 7.52016 1.60736 7.02857C1.9424 6.53699 2.39721 6.13892 2.92884 5.87195C3.46048 5.60498 4.05139 5.47792 4.64577 5.50278C4.48996 4.98037 4.45833 4.42879 4.55341 3.892C4.64849 3.35521 4.86765 2.84804 5.19342 2.41093C5.51919 1.97383 5.94255 1.61886 6.42978 1.37432C6.91701 1.12978 7.45462 1.00244 7.99977 1.00244C8.54492 1.00244 9.08253 1.12978 9.56976 1.37432C10.057 1.61886 10.4804 1.97383 10.8061 2.41093C11.1319 2.84804 11.351 3.35521 11.4461 3.892C11.5412 4.42879 11.5096 4.98037 11.3538 5.50278C11.819 5.48351 12.2835 5.55727 12.7199 5.71976C13.1563 5.88225 13.5559 6.13019 13.8953 6.44907C14.2347 6.76794 14.507 7.15133 14.6963 7.57679C14.8856 8.00224 14.9882 8.46119 14.9979 8.92677C15.0076 9.39234 14.9243 9.85518 14.7529 10.2882C14.5815 10.7211 14.3254 11.1156 13.9996 11.4483C13.6738 11.7811 13.2849 12.0455 12.8557 12.226C12.4264 12.4066 11.9654 12.4996 11.4998 12.4998Z" fill="#212529"/>
</svg>
