<svg width="16" height="16" viewBox="0 0 16 16" xmlns="http://www.w3.org/2000/svg"> <g clip-path="url(#clip0_34_5466)"> <path d="M7.64602 1.14592C7.69247 1.09935 7.74764 1.06241 7.80839 1.0372C7.86913 1.012 7.93426 0.999023 8.00002 0.999023C8.06579 0.999023 8.13091 1.012 8.19166 1.0372C8.2524 1.06241 8.30758 1.09935 8.35402 1.14592L9.85402 2.64592C9.90051 2.69241 9.93739 2.74759 9.96255 2.80833C9.98771 2.86907 10.0007 2.93417 10.0007 2.99992C10.0007 3.06566 9.98771 3.13076 9.96255 3.1915C9.93739 3.25224 9.90051 3.30743 9.85402 3.35392C9.80754 3.40041 9.75235 3.43728 9.69161 3.46244C9.63087 3.4876 9.56577 3.50055 9.50002 3.50055C9.43428 3.50055 9.36918 3.4876 9.30844 3.46244C9.2477 3.43728 9.19251 3.40041 9.14602 3.35392L8.50002 2.70692V4.49992C8.50002 4.63253 8.44735 4.7597 8.35358 4.85347C8.25981 4.94724 8.13263 4.99992 8.00002 4.99992C7.86742 4.99992 7.74024 4.94724 7.64647 4.85347C7.5527 4.7597 7.50002 4.63253 7.50002 4.49992V2.70692L6.85402 3.35392C6.80754 3.40041 6.75235 3.43728 6.69161 3.46244C6.63087 3.4876 6.56577 3.50055 6.50002 3.50055C6.43428 3.50055 6.36918 3.4876 6.30844 3.46244C6.2477 3.43728 6.19251 3.40041 6.14602 3.35392C6.09954 3.30743 6.06266 3.25224 6.0375 3.1915C6.01234 3.13076 5.99939 3.06566 5.99939 2.99992C5.99939 2.93417 6.01234 2.86907 6.0375 2.80833C6.06266 2.74759 6.09954 2.69241 6.14602 2.64592L7.64602 1.14592ZM2.34302 4.34292C2.43679 4.24918 2.56394 4.19652 2.69652 4.19652C2.82911 4.19652 2.95626 4.24918 3.05002 4.34292L4.46402 5.75692C4.5551 5.85122 4.6055 5.97752 4.60436 6.10862C4.60322 6.23972 4.55064 6.36512 4.45793 6.45783C4.36523 6.55053 4.23982 6.60312 4.10872 6.60425C3.97763 6.60539 3.85132 6.555 3.75702 6.46392L2.34302 5.04992C2.24929 4.95615 2.19663 4.829 2.19663 4.69642C2.19663 4.56383 2.24929 4.43668 2.34302 4.34292ZM13.657 4.34292C13.7508 4.43668 13.8034 4.56383 13.8034 4.69642C13.8034 4.829 13.7508 4.95615 13.657 5.04992L12.243 6.46392C12.1969 6.51167 12.1417 6.54976 12.0807 6.57597C12.0197 6.60217 11.9541 6.61597 11.8877 6.61654C11.8213 6.61712 11.7555 6.60447 11.694 6.57933C11.6326 6.55419 11.5768 6.51706 11.5298 6.47011C11.4829 6.42317 11.4458 6.36734 11.4206 6.30589C11.3955 6.24445 11.3828 6.17861 11.3834 6.11222C11.384 6.04583 11.3978 5.98022 11.424 5.91921C11.4502 5.85821 11.4883 5.80304 11.536 5.75692L12.95 4.34292C13.0438 4.24918 13.1709 4.19652 13.3035 4.19652C13.4361 4.19652 13.5633 4.24918 13.657 4.34292ZM8.00002 6.99992C8.52671 6.99975 9.04416 7.13826 9.50035 7.40149C9.95653 7.66473 10.3354 8.04343 10.5988 8.49952C10.8622 8.9556 11.0009 9.473 11.0009 9.99969C11.001 10.5264 10.8624 11.0438 10.599 11.4999H5.40002C5.13664 11.0437 4.99801 10.5262 4.9981 9.99944C4.99818 9.47266 5.13697 8.9552 5.4005 8.49908C5.66404 8.04297 6.04302 7.66429 6.49935 7.40112C6.95567 7.13795 7.47325 6.99958 8.00002 6.99992ZM11.71 11.4999C11.9552 10.8928 12.0476 10.2347 11.9791 9.5835C11.9105 8.93231 11.6832 8.3079 11.317 7.76508C10.9508 7.22227 10.4569 6.77765 9.87875 6.47027C9.30059 6.16289 8.65582 6.00215 8.00102 6.00215C7.34623 6.00215 6.70145 6.16289 6.12329 6.47027C5.54513 6.77765 5.05127 7.22227 4.68507 7.76508C4.31887 8.3079 4.09152 8.93231 4.02299 9.5835C3.95446 10.2347 4.04684 10.8928 4.29202 11.4999H0.499023C0.366415 11.4999 0.239238 11.5526 0.14547 11.6464C0.0517019 11.7401 -0.000976562 11.8673 -0.000976562 11.9999C-0.000976562 12.1325 0.0517019 12.2597 0.14547 12.3535C0.239238 12.4472 0.366415 12.4999 0.499023 12.4999H15.499C15.6316 12.4999 15.7588 12.4472 15.8526 12.3535C15.9463 12.2597 15.999 12.1325 15.999 11.9999C15.999 11.8673 15.9463 11.7401 15.8526 11.6464C15.7588 11.5526 15.6316 11.4999 15.499 11.4999H11.709H11.71ZM2.34375e-05 9.99992C2.34375e-05 9.86731 0.0527019 9.74013 0.14647 9.64636C0.240238 9.5526 0.367415 9.49992 0.500023 9.49992H2.50002C2.63263 9.49992 2.75981 9.5526 2.85358 9.64636C2.94734 9.74013 3.00002 9.86731 3.00002 9.99992C3.00002 10.1325 2.94734 10.2597 2.85358 10.3535C2.75981 10.4472 2.63263 10.4999 2.50002 10.4999H0.500023C0.367415 10.4999 0.240238 10.4472 0.14647 10.3535C0.0527019 10.2597 2.34375e-05 10.1325 2.34375e-05 9.99992ZM13 9.99992C13 9.86731 13.0527 9.74013 13.1465 9.64636C13.2402 9.5526 13.3674 9.49992 13.5 9.49992H15.5C15.6326 9.49992 15.7598 9.5526 15.8536 9.64636C15.9473 9.74013 16 9.86731 16 9.99992C16 10.1325 15.9473 10.2597 15.8536 10.3535C15.7598 10.4472 15.6326 10.4999 15.5 10.4999H13.5C13.3674 10.4999 13.2402 10.4472 13.1465 10.3535C13.0527 10.2597 13 10.1325 13 9.99992Z"/> </g> <defs> <clipPath id="clip0_34_5466"> <rect width="16" height="16"/> </clipPath> </defs> </svg>