<svg width="16" height="16" viewBox="0 0 16 16" xmlns="http://www.w3.org/2000/svg"> <g clip-path="url(#clip0_34_5470)"> <path d="M7.64602 4.854C7.69247 4.90056 7.74764 4.93751 7.80839 4.96271C7.86913 4.98792 7.93426 5.00089 8.00002 5.00089C8.06579 5.00089 8.13091 4.98792 8.19166 4.96271C8.2524 4.93751 8.30758 4.90056 8.35402 4.854L9.85402 3.354C9.90051 3.30751 9.93739 3.25232 9.96255 3.19158C9.98771 3.13084 10.0007 3.06574 10.0007 3C10.0007 2.93426 9.98771 2.86916 9.96255 2.80842C9.93739 2.74768 9.90051 2.69249 9.85402 2.646C9.80754 2.59951 9.75235 2.56264 9.69161 2.53748C9.63087 2.51232 9.56577 2.49937 9.50002 2.49937C9.43428 2.49937 9.36918 2.51232 9.30844 2.53748C9.2477 2.56264 9.19251 2.59951 9.14602 2.646L8.50002 3.293V1.5C8.50002 1.36739 8.44735 1.24021 8.35358 1.14645C8.25981 1.05268 8.13263 1 8.00002 1C7.86742 1 7.74024 1.05268 7.64647 1.14645C7.5527 1.24021 7.50002 1.36739 7.50002 1.5V3.293L6.85402 2.646C6.80754 2.59951 6.75235 2.56264 6.69161 2.53748C6.63087 2.51232 6.56577 2.49937 6.50002 2.49937C6.43428 2.49937 6.36918 2.51232 6.30844 2.53748C6.2477 2.56264 6.19251 2.59951 6.14602 2.646C6.09954 2.69249 6.06266 2.74768 6.0375 2.80842C6.01234 2.86916 5.99939 2.93426 5.99939 3C5.99939 3.06574 6.01234 3.13084 6.0375 3.19158C6.06266 3.25232 6.09954 3.30751 6.14602 3.354L7.64602 4.854ZM2.34302 4.344C2.43679 4.25026 2.56394 4.19761 2.69652 4.19761C2.82911 4.19761 2.95626 4.25026 3.05002 4.344L4.46402 5.757C4.5551 5.8513 4.6055 5.9776 4.60436 6.1087C4.60322 6.2398 4.55064 6.3652 4.45793 6.45791C4.36523 6.55061 4.23982 6.6032 4.10872 6.60434C3.97763 6.60548 3.85132 6.55508 3.75702 6.464L2.34302 5.05C2.24929 4.95624 2.19663 4.82908 2.19663 4.6965C2.19663 4.56392 2.24929 4.43676 2.34302 4.343V4.344ZM13.657 4.344C13.7505 4.43772 13.8029 4.56466 13.8029 4.697C13.8029 4.82934 13.7505 4.95628 13.657 5.05L12.243 6.464C12.1969 6.51176 12.1417 6.54985 12.0807 6.57605C12.0197 6.60226 11.9541 6.61605 11.8877 6.61663C11.8213 6.6172 11.7555 6.60455 11.694 6.57941C11.6326 6.55427 11.5768 6.51714 11.5298 6.4702C11.4829 6.42325 11.4458 6.36742 11.4206 6.30598C11.3955 6.24453 11.3828 6.17869 11.3834 6.1123C11.384 6.04591 11.3978 5.9803 11.424 5.9193C11.4502 5.8583 11.4883 5.80312 11.536 5.757L12.95 4.343C13.0438 4.24926 13.1709 4.19661 13.3035 4.19661C13.4361 4.19661 13.5633 4.24926 13.657 4.343V4.344ZM8.00002 7C8.52671 6.99984 9.04416 7.13834 9.50035 7.40158C9.95653 7.66482 10.3354 8.04351 10.5988 8.4996C10.8622 8.95568 11.0009 9.47308 11.0009 9.99977C11.001 10.5265 10.8624 11.0439 10.599 11.5H5.40002C5.13664 11.0438 4.99801 10.5263 4.9981 9.99952C4.99818 9.47275 5.13697 8.95528 5.4005 8.49917C5.66404 8.04305 6.04302 7.66437 6.49935 7.4012C6.95567 7.13803 7.47325 6.99966 8.00002 7ZM11.71 11.5C11.9552 10.8928 12.0476 10.2348 11.9791 9.58359C11.9105 8.93239 11.6832 8.30798 11.317 7.76516C10.9508 7.22235 10.4569 6.77774 9.87875 6.47036C9.30059 6.16298 8.65582 6.00223 8.00102 6.00223C7.34623 6.00223 6.70145 6.16298 6.12329 6.47036C5.54513 6.77774 5.05127 7.22235 4.68507 7.76516C4.31887 8.30798 4.09152 8.93239 4.02299 9.58359C3.95446 10.2348 4.04684 10.8928 4.29202 11.5H0.499023C0.366415 11.5 0.239238 11.5527 0.14547 11.6464C0.0517019 11.7402 -0.000976562 11.8674 -0.000976562 12C-0.000976562 12.1326 0.0517019 12.2598 0.14547 12.3536C0.239238 12.4473 0.366415 12.5 0.499023 12.5H15.499C15.6316 12.5 15.7588 12.4473 15.8526 12.3536C15.9463 12.2598 15.999 12.1326 15.999 12C15.999 11.8674 15.9463 11.7402 15.8526 11.6464C15.7588 11.5527 15.6316 11.5 15.499 11.5H11.709H11.71ZM2.34375e-05 10C2.34375e-05 9.86739 0.0527019 9.74021 0.14647 9.64645C0.240238 9.55268 0.367415 9.5 0.500023 9.5H2.50002C2.63263 9.5 2.75981 9.55268 2.85358 9.64645C2.94734 9.74021 3.00002 9.86739 3.00002 10C3.00002 10.1326 2.94734 10.2598 2.85358 10.3536C2.75981 10.4473 2.63263 10.5 2.50002 10.5H0.500023C0.367415 10.5 0.240238 10.4473 0.14647 10.3536C0.0527019 10.2598 2.34375e-05 10.1326 2.34375e-05 10ZM13 10C13 9.86739 13.0527 9.74021 13.1465 9.64645C13.2402 9.55268 13.3674 9.5 13.5 9.5H15.5C15.6326 9.5 15.7598 9.55268 15.8536 9.64645C15.9473 9.74021 16 9.86739 16 10C16 10.1326 15.9473 10.2598 15.8536 10.3536C15.7598 10.4473 15.6326 10.5 15.5 10.5H13.5C13.3674 10.5 13.2402 10.4473 13.1465 10.3536C13.0527 10.2598 13 10.1326 13 10Z"/> </g> <defs> <clipPath id="clip0_34_5470"> <rect width="16" height="16"/> </clipPath> </defs> </svg>