<svg width="16" height="16" viewBox="0 0 16 16" xmlns="http://www.w3.org/2000/svg"> <g clip-path="url(#clip0_34_5474)"> <path d="M13.5 6.99988C13.6112 7.00003 13.7192 6.96312 13.8071 6.89499C13.8949 6.82687 13.9576 6.7314 13.9851 6.62369C14.0126 6.51598 14.0035 6.40217 13.9591 6.30024C13.9147 6.19832 13.8376 6.11409 13.74 6.06088L2.74 0.0608776C2.66383 0.0192006 2.57812 -0.00192256 2.4913 -0.000412657C2.40449 0.00109725 2.31957 0.0251882 2.24489 0.0694887C2.17022 0.113789 2.10836 0.176772 2.06542 0.252238C2.02248 0.327704 1.99994 0.413051 2 0.499878V6.49988C2 6.63249 2.05268 6.75966 2.14645 6.85343C2.24022 6.9472 2.36739 6.99988 2.5 6.99988H13.5ZM13.985 9.37588C14.0125 9.48372 14.0032 9.59764 13.9587 9.69962C13.9141 9.8016 13.8368 9.88579 13.739 9.93888L2.739 15.9389C2.66286 15.9803 2.57726 16.0012 2.49059 15.9996C2.40392 15.998 2.31916 15.9738 2.24464 15.9296C2.17011 15.8853 2.10837 15.8224 2.06549 15.7471C2.0226 15.6717 2.00003 15.5866 2 15.4999V9.49988C2 9.36727 2.05268 9.24009 2.14645 9.14632C2.24022 9.05256 2.36739 8.99988 2.5 8.99988H13.5C13.6111 8.99974 13.7191 9.03663 13.807 9.10472C13.8948 9.17281 13.9574 9.26822 13.985 9.37588ZM11.539 9.99988H3V14.6579L11.54 9.99988H11.539Z"/> </g> <defs> <clipPath id="clip0_34_5474"> <rect width="16" height="16"/> </clipPath> </defs> </svg>