<svg width="16" height="16" viewBox="0 0 16 16" xmlns="http://www.w3.org/2000/svg"> <g clip-path="url(#clip0_34_5476)"> <path d="M6.99988 2.50018C7.00003 2.38901 6.96312 2.28096 6.89499 2.19311C6.82687 2.10526 6.7314 2.04261 6.62369 2.01508C6.51598 1.98755 6.40217 1.99671 6.30024 2.04109C6.19832 2.08548 6.11409 2.16257 6.06088 2.26018L0.0608776 13.2602C0.0192006 13.3364 -0.00192256 13.4221 -0.000412657 13.5089C0.00109725 13.5957 0.0251882 13.6806 0.0694887 13.7553C0.113789 13.83 0.176772 13.8918 0.252238 13.9348C0.327704 13.9777 0.413051 14.0002 0.499878 14.0002H6.49988C6.63249 14.0002 6.75966 13.9475 6.85343 13.8537C6.9472 13.76 6.99988 13.6328 6.99988 13.5002V2.50018ZM9.37588 2.01618C9.4836 1.9886 9.59745 1.99771 9.69941 2.04209C9.80138 2.08646 9.88564 2.16355 9.93888 2.26118L15.9389 13.2612C15.9803 13.3373 16.0012 13.4229 15.9996 13.5096C15.998 13.5963 15.9738 13.681 15.9296 13.7555C15.8853 13.8301 15.8224 13.8918 15.7471 13.9347C15.6717 13.9776 15.5866 14.0002 15.4999 14.0002H9.49988C9.36727 14.0002 9.24009 13.9475 9.14632 13.8537C9.05256 13.76 8.99988 13.6328 8.99988 13.5002V2.50018C8.99996 2.38922 9.03695 2.28144 9.10503 2.19382C9.1731 2.10619 9.26838 2.0437 9.37588 2.01618ZM9.99988 4.46018V13.0002H14.6579L9.99988 4.46018Z"/> </g> <defs> <clipPath id="clip0_34_5476"> <rect width="16" height="16"/> </clipPath> </defs> </svg>