<svg width="16" height="16" viewBox="0 0 16 16" fill="none" xmlns="http://www.w3.org/2000/svg">
<g clip-path="url(#clip0_34_5506)">
<path d="M15.854 0.145917C15.9005 0.192363 15.9375 0.247538 15.9627 0.308284C15.9879 0.369029 16.0009 0.43415 16.0009 0.499917C16.0009 0.565684 15.9879 0.630806 15.9627 0.691551C15.9375 0.752296 15.9005 0.807472 15.854 0.853917L11.707 4.99992H14.5C14.6326 4.99992 14.7598 5.0526 14.8535 5.14636C14.9473 5.24013 15 5.36731 15 5.49992C15 5.63253 14.9473 5.7597 14.8535 5.85347C14.7598 5.94724 14.6326 5.99992 14.5 5.99992H10.5C10.3674 5.99992 10.2402 5.94724 10.1464 5.85347C10.0527 5.7597 9.99998 5.63253 9.99998 5.49992V1.49992C9.99998 1.36731 10.0527 1.24013 10.1464 1.14636C10.2402 1.0526 10.3674 0.999917 10.5 0.999917C10.6326 0.999917 10.7598 1.0526 10.8535 1.14636C10.9473 1.24013 11 1.36731 11 1.49992V4.29292L15.146 0.145917C15.1924 0.099354 15.2476 0.0624111 15.3083 0.0372047C15.3691 0.0119982 15.4342 -0.000976563 15.5 -0.000976562C15.5658 -0.000976562 15.6309 0.0119982 15.6916 0.0372047C15.7524 0.0624111 15.8075 0.099354 15.854 0.145917ZM3.65398 1.32792C3.59495 1.25198 3.52043 1.18947 3.43538 1.14454C3.35034 1.09962 3.2567 1.0733 3.1607 1.06734C3.0647 1.06138 2.96853 1.07592 2.87858 1.10998C2.78863 1.14405 2.70695 1.19686 2.63898 1.26492L1.60498 2.29992C1.12198 2.78392 0.943983 3.46892 1.15498 4.06992C2.03072 6.5575 3.45528 8.81601 5.32298 10.6779C7.18491 12.5456 9.44341 13.9701 11.931 14.8459C12.532 15.0569 13.217 14.8789 13.701 14.3959L14.735 13.3619C14.803 13.2939 14.8559 13.2123 14.8899 13.1223C14.924 13.0324 14.9385 12.9362 14.9326 12.8402C14.9266 12.7442 14.9003 12.6506 14.8554 12.5655C14.8104 12.4805 14.7479 12.406 14.672 12.3469L12.365 10.5529C12.2839 10.49 12.1895 10.4463 12.089 10.4252C11.9885 10.404 11.8846 10.406 11.785 10.4309L9.59498 10.9779C9.30266 11.051 8.9964 11.0471 8.70603 10.9667C8.41565 10.8862 8.15105 10.732 7.93798 10.5189L5.48198 8.06192C5.26875 7.84895 5.11431 7.5844 5.0337 7.29402C4.95308 7.00363 4.94905 6.69732 5.02198 6.40492L5.56998 4.21492C5.59489 4.11531 5.59685 4.01135 5.57572 3.91088C5.55458 3.81041 5.51091 3.71605 5.44798 3.63492L3.65398 1.32792ZM1.88398 0.510917C2.05898 0.335867 2.26921 0.200048 2.50072 0.112478C2.73223 0.0249093 2.97973 -0.012406 3.22676 0.00301028C3.4738 0.0184266 3.71474 0.0862217 3.93356 0.201894C4.15239 0.317566 4.34411 0.478469 4.49598 0.673917L6.28998 2.97992C6.61898 3.40292 6.73498 3.95392 6.60498 4.47392L6.05798 6.66392C6.0297 6.77735 6.03123 6.89616 6.06242 7.00883C6.09361 7.12149 6.1534 7.22418 6.23598 7.30692L8.69298 9.76392C8.77582 9.84667 8.87868 9.90656 8.99153 9.93775C9.10439 9.96895 9.22341 9.97038 9.33698 9.94192L11.526 9.39492C11.7826 9.33076 12.0504 9.32577 12.3093 9.38034C12.5681 9.43491 12.8111 9.54761 13.02 9.70992L15.326 11.5039C16.155 12.1489 16.231 13.3739 15.489 14.1149L14.455 15.1489C13.715 15.8889 12.609 16.2139 11.578 15.8509C8.93917 14.9224 6.54325 13.4118 4.56798 11.4309C2.58727 9.45593 1.07659 7.06038 0.147983 4.42192C-0.214017 3.39192 0.110983 2.28492 0.850983 1.54492L1.88498 0.510917H1.88398Z" fill="#212529"/>
</g>
<defs>
<clipPath id="clip0_34_5506">
<rect width="16" height="16" fill="white"/>
</clipPath>
</defs>
</svg>
