<svg width="16" height="16" viewBox="0 0 16 16" xmlns="http://www.w3.org/2000/svg"> <g clip-path="url(#clip0_34_5508)"> <path fill-rule="evenodd" clip-rule="evenodd" d="M1.88498 0.510917C2.05996 0.336206 2.27006 0.200675 2.50138 0.113307C2.7327 0.0259389 2.97994 -0.0112721 3.22672 0.00414013C3.47351 0.0195523 3.7142 0.0872358 3.93285 0.202705C4.15149 0.318175 4.34311 0.478793 4.49498 0.673917L6.28998 2.97992C6.61898 3.40292 6.73498 3.95392 6.60498 4.47392L6.05798 6.66392C6.0297 6.77735 6.03123 6.89616 6.06242 7.00883C6.09361 7.12149 6.1534 7.22418 6.23598 7.30692L8.69298 9.76392C8.77582 9.84667 8.87868 9.90656 8.99153 9.93775C9.10439 9.96895 9.22341 9.97038 9.33698 9.94192L11.526 9.39492C11.7826 9.33076 12.0504 9.32577 12.3093 9.38034C12.5681 9.43491 12.8111 9.54761 13.02 9.70992L15.326 11.5039C16.155 12.1489 16.231 13.3739 15.489 14.1149L14.455 15.1489C13.715 15.8889 12.609 16.2139 11.578 15.8509C8.93917 14.9224 6.54325 13.4118 4.56798 11.4309C2.58727 9.45593 1.07659 7.06038 0.147983 4.42192C-0.214017 3.39192 0.110983 2.28492 0.850983 1.54492L1.88498 0.510917ZM15.854 0.145917C15.9005 0.192363 15.9375 0.247538 15.9627 0.308284C15.9879 0.369029 16.0009 0.43415 16.0009 0.499917C16.0009 0.565684 15.9879 0.630806 15.9627 0.691551C15.9375 0.752296 15.9005 0.807472 15.854 0.853917L11.707 4.99992H14.5C14.6326 4.99992 14.7598 5.0526 14.8535 5.14636C14.9473 5.24013 15 5.36731 15 5.49992C15 5.63253 14.9473 5.7597 14.8535 5.85347C14.7598 5.94724 14.6326 5.99992 14.5 5.99992H10.5C10.3674 5.99992 10.2402 5.94724 10.1464 5.85347C10.0527 5.7597 9.99998 5.63253 9.99998 5.49992V1.49992C9.99998 1.36731 10.0527 1.24013 10.1464 1.14636C10.2402 1.0526 10.3674 0.999917 10.5 0.999917C10.6326 0.999917 10.7598 1.0526 10.8535 1.14636C10.9473 1.24013 11 1.36731 11 1.49992V4.29292L15.146 0.145917C15.1924 0.099354 15.2476 0.0624111 15.3083 0.0372047C15.3691 0.0119982 15.4342 -0.000976563 15.5 -0.000976562C15.5658 -0.000976562 15.6309 0.0119982 15.6916 0.0372047C15.7524 0.0624111 15.8075 0.099354 15.854 0.145917Z"/> </g> <defs> <clipPath id="clip0_34_5508"> <rect width="16" height="16"/> </clipPath> </defs> </svg>