<svg width="16" height="16" viewBox="0 0 16 16" xmlns="http://www.w3.org/2000/svg"> <g clip-path="url(#clip0_34_5524)"> <path fill-rule="evenodd" clip-rule="evenodd" d="M1.88498 0.511147C2.05996 0.336436 2.27006 0.200905 2.50138 0.113537C2.7327 0.0261686 2.97994 -0.0110424 3.22672 0.00436978C3.47351 0.019782 3.7142 0.0874655 3.93285 0.202935C4.15149 0.318404 4.34311 0.479023 4.49498 0.674147L6.28998 2.98015C6.61898 3.40315 6.73498 3.95415 6.60498 4.47415L6.05798 6.66415C6.0297 6.77758 6.03123 6.89639 6.06242 7.00906C6.09361 7.12172 6.1534 7.22441 6.23598 7.30715L8.69298 9.76415C8.77582 9.8469 8.87868 9.90679 8.99153 9.93798C9.10439 9.96918 9.22341 9.97061 9.33698 9.94215L11.526 9.39515C11.7826 9.33099 12.0504 9.326 12.3093 9.38057C12.5681 9.43514 12.8111 9.54784 13.02 9.71015L15.326 11.5041C16.155 12.1491 16.231 13.3741 15.489 14.1151L14.455 15.1491C13.715 15.8891 12.609 16.2141 11.578 15.8511C8.93917 14.9227 6.54325 13.412 4.56798 11.4311C2.58727 9.45616 1.07659 7.06061 0.147983 4.42215C-0.214017 3.39215 0.110983 2.28515 0.850983 1.54515L1.88498 0.511147ZM11.146 1.64615C11.1924 1.59958 11.2476 1.56264 11.3083 1.53743C11.3691 1.51223 11.4342 1.49925 11.5 1.49925C11.5658 1.49925 11.6309 1.51223 11.6916 1.53743C11.7524 1.56264 11.8075 1.59958 11.854 1.64615L13 2.79315L14.146 1.64615C14.2399 1.55226 14.3672 1.49952 14.5 1.49952C14.6328 1.49952 14.7601 1.55226 14.854 1.64615C14.9479 1.74003 15.0006 1.86737 15.0006 2.00015C15.0006 2.13292 14.9479 2.26026 14.854 2.35415L13.707 3.50015L14.854 4.64615C14.9479 4.74003 15.0006 4.86737 15.0006 5.00015C15.0006 5.13292 14.9479 5.26026 14.854 5.35415C14.7601 5.44803 14.6328 5.50078 14.5 5.50078C14.3672 5.50078 14.2399 5.44803 14.146 5.35415L13 4.20715L11.854 5.35415C11.8075 5.40063 11.7523 5.43751 11.6916 5.46267C11.6308 5.48783 11.5657 5.50078 11.5 5.50078C11.4342 5.50078 11.3691 5.48783 11.3084 5.46267C11.2477 5.43751 11.1925 5.40063 11.146 5.35415C11.0995 5.30766 11.0626 5.25247 11.0375 5.19173C11.0123 5.13099 10.9994 5.06589 10.9994 5.00015C10.9994 4.9344 11.0123 4.8693 11.0375 4.80856C11.0626 4.74782 11.0995 4.69263 11.146 4.64615L12.293 3.50015L11.146 2.35415C11.0994 2.3077 11.0625 2.25253 11.0373 2.19178C11.0121 2.13104 10.9991 2.06591 10.9991 2.00015C10.9991 1.93438 11.0121 1.86926 11.0373 1.80851C11.0625 1.74777 11.0994 1.69259 11.146 1.64615Z"/> </g> <defs> <clipPath id="clip0_34_5524"> <rect width="16" height="16"/> </clipPath> </defs> </svg>