<svg width="16" height="16" viewBox="0 0 16 16" xmlns="http://www.w3.org/2000/svg"> <path d="M2.30837 3.0372C2.24762 3.06241 2.19245 3.09935 2.146 3.14592C2.09944 3.19236 2.0625 3.24754 2.03729 3.30828C2.01208 3.36903 1.99911 3.43415 1.99911 3.49992C1.99911 3.56568 2.01208 3.63081 2.03729 3.69155C2.0625 3.7523 2.09944 3.80747 2.146 3.85392L2.793 4.49992L2.146 5.14592C2.09951 5.19241 2.06264 5.24759 2.03748 5.30833C2.01232 5.36907 1.99937 5.43417 1.99937 5.49992C1.99937 5.63269 2.05211 5.76003 2.146 5.85392C2.23989 5.9478 2.36723 6.00055 2.5 6.00055C2.63278 6.00055 2.76011 5.9478 2.854 5.85392L3.677 5.02992C3.81745 4.88929 3.89634 4.69867 3.89634 4.49992C3.89634 4.30117 3.81745 4.11054 3.677 3.96992L2.854 3.14592C2.80756 3.09935 2.75238 3.06241 2.69163 3.0372C2.63089 3.012 2.56577 2.99902 2.5 2.99902C2.43423 2.99902 2.36911 3.012 2.30837 3.0372Z"/> <path d="M4.14645 5.64636C4.05268 5.74013 4 5.86731 4 5.99992C4 6.13253 4.05268 6.2597 4.14645 6.35347C4.24022 6.44724 4.36739 6.49992 4.5 6.49992H5.5C5.63261 6.49992 5.75979 6.44724 5.85355 6.35347C5.94732 6.2597 6 6.13253 6 5.99992C6 5.86731 5.94732 5.74013 5.85355 5.64636C5.75979 5.5526 5.63261 5.49992 5.5 5.49992H4.5C4.36739 5.49992 4.24022 5.5526 4.14645 5.64636Z"/> <path d="M10 2.99929C10.1328 2.99929 10.2601 3.05203 10.354 3.14592L11.177 3.96992C11.3175 4.11054 11.3963 4.30117 11.3963 4.49992C11.3963 4.69867 11.3175 4.88929 11.177 5.02992L10.354 5.85392C10.2601 5.9478 10.1328 6.00055 10 6.00055C9.86723 6.00055 9.73989 5.9478 9.646 5.85392C9.55211 5.76003 9.49937 5.63269 9.49937 5.49992C9.49937 5.36714 9.55211 5.2398 9.646 5.14592L10.293 4.49992L9.646 3.85392C9.55211 3.76003 9.49937 3.63269 9.49937 3.49992C9.49937 3.36714 9.55211 3.2398 9.646 3.14592C9.73989 3.05203 9.86723 2.99929 10 2.99929Z"/> <path d="M11.6464 5.64636C11.7402 5.5526 11.8674 5.49992 12 5.49992H13C13.1326 5.49992 13.2598 5.5526 13.3536 5.64636C13.4473 5.74013 13.5 5.86731 13.5 5.99992C13.5 6.13253 13.4473 6.2597 13.3536 6.35347C13.2598 6.44724 13.1326 6.49992 13 6.49992H12C11.8674 6.49992 11.7402 6.44724 11.6464 6.35347C11.5527 6.2597 11.5 6.13253 11.5 5.99992C11.5 5.86731 11.5527 5.74013 11.6464 5.64636Z"/> <path fill-rule="evenodd" clip-rule="evenodd" d="M0.585786 1.58579C0.210714 1.96086 0 2.46957 0 3V13C0 13.5304 0.210714 14.0391 0.585786 14.4142C0.960859 14.7893 1.46957 15 2 15H14C14.5304 15 15.0391 14.7893 15.4142 14.4142C15.7893 14.0391 16 13.5304 16 13V3C16 2.46957 15.7893 1.96086 15.4142 1.58579C15.0391 1.21071 14.5304 1 14 1H2C1.46957 1 0.960859 1.21071 0.585786 1.58579ZM1.29289 2.29289C1.48043 2.10536 1.73478 2 2 2H7.5V14H2C1.73478 14 1.48043 13.8946 1.29289 13.7071C1.10536 13.5196 1 13.2652 1 13V3C1 2.73478 1.10536 2.48043 1.29289 2.29289ZM8.5 14V2H14C14.2652 2 14.5196 2.10536 14.7071 2.29289C14.8946 2.48043 15 2.73478 15 3V13C15 13.2652 14.8946 13.5196 14.7071 13.7071C14.5196 13.8946 14.2652 14 14 14H8.5Z"/> </svg>