<svg width="16" height="16" viewBox="0 0 16 16" xmlns="http://www.w3.org/2000/svg"> <path d="M1 3C0.734784 3 0.48043 3.10536 0.292893 3.29289C0.105357 3.48043 0 3.73478 0 4L0 11.293C5.66374e-05 11.5582 0.105451 11.8125 0.293 12L2 13.707C2.18749 13.8945 2.44181 13.9999 2.707 14H13.293C13.5582 13.9999 13.8125 13.8945 14 13.707L15.707 12C15.8945 11.8125 15.9999 11.5582 16 11.293V4C16 3.73478 15.8946 3.48043 15.7071 3.29289C15.5196 3.10536 15.2652 3 15 3H1ZM3.5 6H12.5C12.6326 6 12.7598 6.05268 12.8536 6.14645C12.9473 6.24021 13 6.36739 13 6.5V7.5C13 7.63261 12.9473 7.75979 12.8536 7.85355C12.7598 7.94732 12.6326 8 12.5 8H3.5C3.36739 8 3.24021 7.94732 3.14645 7.85355C3.05268 7.75979 3 7.63261 3 7.5V6.5C3 6.36739 3.05268 6.24021 3.14645 6.14645C3.24021 6.05268 3.36739 6 3.5 6Z"/> </svg>