<svg width="16" height="16" viewBox="0 0 16 16" xmlns="http://www.w3.org/2000/svg"> <path d="M3.14645 7.14645C3.24021 7.05268 3.36739 7 3.5 7H12.5C12.6326 7 12.7598 7.05268 12.8536 7.14645C12.9473 7.24021 13 7.36739 13 7.5V8.5C13 8.63261 12.9473 8.75979 12.8536 8.85355C12.7598 8.94732 12.6326 9 12.5 9H3.5C3.36739 9 3.24021 8.94732 3.14645 8.85355C3.05268 8.75979 3 8.63261 3 8.5V7.5C3 7.36739 3.05268 7.24021 3.14645 7.14645Z"/> <path fill-rule="evenodd" clip-rule="evenodd" d="M0.292893 3.29289C0.48043 3.10536 0.734784 3 1 3H15C15.2652 3 15.5196 3.10536 15.7071 3.29289C15.8946 3.48043 16 3.73478 16 4V11.293C15.9999 11.5582 15.8945 11.8125 15.707 12L14 13.707C13.8125 13.8945 13.5582 13.9999 13.293 14H2.707C2.44181 13.9999 2.18749 13.8945 2 13.707L0.293 12C0.105451 11.8125 5.66374e-05 11.5582 0 11.293V4C0 3.73478 0.105357 3.48043 0.292893 3.29289ZM15 4H1V11.293L2.707 13H13.293L15 11.293V4Z"/> </svg>