<svg width="16" height="16" viewBox="0 0 16 16" fill="none" xmlns="http://www.w3.org/2000/svg">
<path d="M0 4.5C0 4.10218 0.158035 3.72064 0.43934 3.43934C0.720644 3.15804 1.10218 3 1.5 3H14.5C14.8978 3 15.2794 3.15804 15.5607 3.43934C15.842 3.72064 16 4.10218 16 4.5V6C16 6.13261 15.9473 6.25979 15.8536 6.35355C15.7598 6.44732 15.6326 6.5 15.5 6.5C15.1022 6.5 14.7206 6.65804 14.4393 6.93934C14.158 7.22064 14 7.60218 14 8C14 8.39782 14.158 8.77936 14.4393 9.06066C14.7206 9.34196 15.1022 9.5 15.5 9.5C15.6326 9.5 15.7598 9.55268 15.8536 9.64645C15.9473 9.74021 16 9.86739 16 10V11.5C16 11.8978 15.842 12.2794 15.5607 12.5607C15.2794 12.842 14.8978 13 14.5 13H1.5C1.10218 13 0.720644 12.842 0.43934 12.5607C0.158035 12.2794 0 11.8978 0 11.5L0 10C0 9.86739 0.0526784 9.74021 0.146447 9.64645C0.240215 9.55268 0.367392 9.5 0.5 9.5C0.897825 9.5 1.27936 9.34196 1.56066 9.06066C1.84196 8.77936 2 8.39782 2 8C2 7.60218 1.84196 7.22064 1.56066 6.93934C1.27936 6.65804 0.897825 6.5 0.5 6.5C0.367392 6.5 0.240215 6.44732 0.146447 6.35355C0.0526784 6.25979 0 6.13261 0 6V4.5ZM4 5.5C4 5.63261 4.05268 5.75979 4.14645 5.85355C4.24021 5.94732 4.36739 6 4.5 6H11.5C11.6326 6 11.7598 5.94732 11.8536 5.85355C11.9473 5.75979 12 5.63261 12 5.5C12 5.36739 11.9473 5.24021 11.8536 5.14645C11.7598 5.05268 11.6326 5 11.5 5H4.5C4.36739 5 4.24021 5.05268 4.14645 5.14645C4.05268 5.24021 4 5.36739 4 5.5ZM4 10.5C4 10.6326 4.05268 10.7598 4.14645 10.8536C4.24021 10.9473 4.36739 11 4.5 11H11.5C11.6326 11 11.7598 10.9473 11.8536 10.8536C11.9473 10.7598 12 10.6326 12 10.5C12 10.3674 11.9473 10.2402 11.8536 10.1464C11.7598 10.0527 11.6326 10 11.5 10H4.5C4.36739 10 4.24021 10.0527 4.14645 10.1464C4.05268 10.2402 4 10.3674 4 10.5ZM4 8C4 8.26522 4.10536 8.51957 4.29289 8.70711C4.48043 8.89464 4.73478 9 5 9H11C11.2652 9 11.5196 8.89464 11.7071 8.70711C11.8946 8.51957 12 8.26522 12 8C12 7.73478 11.8946 7.48043 11.7071 7.29289C11.5196 7.10536 11.2652 7 11 7H5C4.73478 7 4.48043 7.10536 4.29289 7.29289C4.10536 7.48043 4 7.73478 4 8Z" fill="#212529"/>
</svg>
