<svg width="16" height="16" viewBox="0 0 16 16" xmlns="http://www.w3.org/2000/svg"> <path d="M1.5 3C1.10218 3 0.720644 3.15804 0.43934 3.43934C0.158035 3.72064 0 4.10218 0 4.5L0 6C0 6.13261 0.0526784 6.25979 0.146447 6.35355C0.240215 6.44732 0.367392 6.5 0.5 6.5C0.897825 6.5 1.27936 6.65804 1.56066 6.93934C1.84196 7.22064 2 7.60218 2 8C2 8.39782 1.84196 8.77936 1.56066 9.06066C1.27936 9.34196 0.897825 9.5 0.5 9.5C0.367392 9.5 0.240215 9.55268 0.146447 9.64645C0.0526784 9.74021 0 9.86739 0 10L0 11.5C0 11.8978 0.158035 12.2794 0.43934 12.5607C0.720644 12.842 1.10218 13 1.5 13H14.5C14.8978 13 15.2794 12.842 15.5607 12.5607C15.842 12.2794 16 11.8978 16 11.5V10C16 9.86739 15.9473 9.74021 15.8536 9.64645C15.7598 9.55268 15.6326 9.5 15.5 9.5C15.1022 9.5 14.7206 9.34196 14.4393 9.06066C14.158 8.77936 14 8.39782 14 8C14 7.60218 14.158 7.22064 14.4393 6.93934C14.7206 6.65804 15.1022 6.5 15.5 6.5C15.6326 6.5 15.7598 6.44732 15.8536 6.35355C15.9473 6.25979 16 6.13261 16 6V4.5C16 4.10218 15.842 3.72064 15.5607 3.43934C15.2794 3.15804 14.8978 3 14.5 3H1.5Z"/> </svg>