<svg width="16" height="16" viewBox="0 0 16 16" fill="none" xmlns="http://www.w3.org/2000/svg">
<g clip-path="url(#clip0_34_5620)">
<path d="M8.41598 0.2231C8.37032 0.154622 8.30846 0.0984739 8.23589 0.0596403C8.16332 0.0208067 8.08229 0.000488281 7.99998 0.000488281C7.91768 0.000488281 7.83664 0.0208067 7.76407 0.0596403C7.6915 0.0984739 7.62964 0.154622 7.58398 0.2231L4.58398 4.7231C4.53388 4.7984 4.50513 4.88587 4.50081 4.97621C4.49649 5.06655 4.51675 5.15637 4.55944 5.2361C4.60213 5.31583 4.66565 5.3825 4.74323 5.42899C4.82081 5.47548 4.90954 5.50005 4.99998 5.5001H5.09798L3.07598 8.7351C3.02868 8.81079 3.0025 8.89775 3.00015 8.98698C2.99781 9.0762 3.01939 9.16442 3.06266 9.24249C3.10593 9.32055 3.1693 9.38561 3.2462 9.43091C3.32311 9.47621 3.41073 9.5001 3.49998 9.5001H3.69098L2.05298 12.7761C2.01479 12.8523 1.99671 12.9371 2.00049 13.0222C2.00427 13.1074 2.02976 13.1902 2.07455 13.2628C2.11935 13.3353 2.18195 13.3952 2.25641 13.4368C2.33087 13.4783 2.41472 13.5001 2.49998 13.5001H6.99998V16.0001H8.99998V13.5001H13.5C13.5852 13.5001 13.6691 13.4783 13.7436 13.4368C13.818 13.3952 13.8806 13.3353 13.9254 13.2628C13.9702 13.1902 13.9957 13.1074 13.9995 13.0222C14.0033 12.9371 13.9852 12.8523 13.947 12.7761L12.31 9.5001H12.501C12.5902 9.5001 12.6779 9.47621 12.7548 9.43091C12.8317 9.38561 12.895 9.32055 12.9383 9.24249C12.9816 9.16442 13.0032 9.0762 13.0008 8.98698C12.9985 8.89775 12.9723 8.81079 12.925 8.7351L10.902 5.5001H11C11.0904 5.50005 11.1792 5.47548 11.2567 5.42899C11.3343 5.3825 11.3978 5.31583 11.4405 5.2361C11.4832 5.15637 11.5035 5.06655 11.4992 4.97621C11.4948 4.88587 11.4661 4.7984 11.416 4.7231L8.41598 0.2231ZM6.43698 4.7581C6.39379 4.68001 6.33049 4.61491 6.25365 4.56954C6.1768 4.52417 6.08922 4.5002 5.99998 4.5001H5.93398L7.99998 1.4011L10.066 4.5001H9.99998C9.91073 4.5001 9.82311 4.52399 9.7462 4.56929C9.6693 4.61459 9.60593 4.67965 9.56266 4.75772C9.51939 4.83578 9.49781 4.924 9.50015 5.01322C9.5025 5.10245 9.52868 5.18941 9.57598 5.2651L11.598 8.5001H11.5C11.4147 8.5001 11.3309 8.52191 11.2564 8.56345C11.182 8.60499 11.1193 8.66488 11.0746 8.73743C11.0298 8.80998 11.0043 8.89278 11.0005 8.97796C10.9967 9.06314 11.0148 9.14787 11.053 9.2241L12.69 12.5001H3.30898L4.94698 9.2241C4.98518 9.14787 5.00325 9.06314 4.99948 8.97796C4.9957 8.89278 4.9702 8.80998 4.92541 8.73743C4.88062 8.66488 4.81802 8.60499 4.74356 8.56345C4.66909 8.52191 4.58525 8.5001 4.49998 8.5001H4.40198L6.42398 5.2651C6.47116 5.18943 6.49725 5.10252 6.49954 5.01337C6.50182 4.92422 6.48023 4.83609 6.43698 4.7581Z" fill="#212529"/>
</g>
<defs>
<clipPath id="clip0_34_5620">
<rect width="16" height="16" fill="white"/>
</clipPath>
</defs>
</svg>
