<svg width="16" height="16" viewBox="0 0 16 16" xmlns="http://www.w3.org/2000/svg"> <g clip-path="url(#clip0_34_5628)"> <path d="M8.06517 2.01595C8.04586 2.00537 8.02418 1.99986 8.00217 1.99995V13.983L14.8582 14C14.8813 14.0008 14.9043 13.9949 14.9242 13.983C14.9469 13.9678 14.9655 13.9472 14.9782 13.923C14.9946 13.8952 15.0032 13.8634 15.0028 13.8312C15.0025 13.7989 14.9932 13.7673 14.9762 13.74L8.12017 2.07295C8.10771 2.04938 8.08903 2.02966 8.06617 2.01595H8.06517ZM7.02217 1.56595C7.12116 1.39352 7.26389 1.25025 7.43596 1.15062C7.60803 1.051 7.80334 0.998535 8.00217 0.998535C8.201 0.998535 8.39631 1.051 8.56837 1.15062C8.74044 1.25025 8.88318 1.39352 8.98217 1.56595L15.8382 13.233C16.2962 14.011 15.7472 15 14.8582 15H1.14617C0.257167 15 -0.290833 14.01 0.166167 13.233L7.02217 1.56595Z"/> </g> <defs> <clipPath id="clip0_34_5628"> <rect width="16" height="16"/> </clipPath> </defs> </svg>