<svg width="16" height="16" viewBox="0 0 16 16" xmlns="http://www.w3.org/2000/svg"> <path d="M8.20977 13.0002C10.3158 13.0002 11.6218 11.9132 11.6218 10.1772C11.6218 8.87123 10.6378 7.89423 9.29777 7.79123V7.73623C9.81094 7.65897 10.2796 7.40085 10.6192 7.00844C10.9588 6.61603 11.147 6.11517 11.1498 5.59623C11.1498 4.08623 9.98777 3.13623 8.13577 3.13623H3.84277V13.0002H8.20977ZM5.90777 4.67423H7.60377C8.56677 4.67423 9.12077 5.12523 9.12077 5.91823C9.12077 6.75223 8.49177 7.23823 7.39077 7.23823H5.90777V4.67323V4.67423ZM5.90777 11.4622V8.59823H7.63777C8.85477 8.59823 9.51777 9.09023 9.51777 10.0132C9.51777 10.9562 8.87477 11.4622 7.68577 11.4622H5.90677H5.90777Z"/> </svg>