<svg width="16" height="16" viewBox="0 0 16 16" fill="none" xmlns="http://www.w3.org/2000/svg">
<path d="M7.637 13.0002V3.66919H6.379V7.62019H1.758V3.67019H0.5V13.0002H1.758V8.72819H6.378V13.0002H7.637ZM11.262 8.72819H12.28C13.422 8.72819 14.215 9.39819 14.229 10.4022C14.242 11.4072 13.449 12.1392 12.219 12.1322C11.139 12.1252 10.366 11.5442 10.284 10.8122H9.108C9.177 12.1392 10.332 13.1982 12.191 13.1982C14.126 13.1982 15.534 12.0432 15.5 10.4092C15.473 8.89919 14.249 8.24919 13.463 8.16019V8.09219C14.167 7.96919 15.227 7.18219 15.186 5.86319C15.151 4.51019 14.01 3.46319 12.232 3.47819C10.359 3.48419 9.375 4.64019 9.334 5.83619H10.53C10.592 5.14619 11.241 4.53719 12.226 4.53719C13.224 4.53719 13.921 5.15919 13.921 6.06219C13.928 6.98419 13.203 7.65419 12.226 7.65419H11.262V8.72819Z" fill="#212529"/>
</svg>
