<svg width="16" height="16" viewBox="0 0 16 16" fill="none" xmlns="http://www.w3.org/2000/svg">
<path d="M6 0.5C6 0.367392 6.05268 0.240215 6.14645 0.146447C6.24021 0.0526784 6.36739 0 6.5 0L10.5 0C10.6326 0 10.7598 0.0526784 10.8536 0.146447C10.9473 0.240215 11 0.367392 11 0.5V4.5H6V0.5ZM7 1V2H8V1H7ZM9 1V2H10V1H9ZM6 5C5.73478 5 5.48043 5.10536 5.29289 5.29289C5.10536 5.48043 5 5.73478 5 6V10.394C5 10.888 5.146 11.37 5.42 11.781L6.458 13.339C6.812 13.869 7 14.491 7 15.128C7 15.609 7.39 16 7.872 16H9.128C9.609 16 10 15.61 10 15.128C10 14.491 10.188 13.868 10.541 13.339L11.581 11.781C11.8545 11.3702 12.0003 10.8876 12 10.394V6C12 5.73478 11.8946 5.48043 11.7071 5.29289C11.5196 5.10536 11.2652 5 11 5H6ZM6 6H11V10.394C11 10.6901 10.9123 10.9796 10.748 11.226L9.71 12.784C9.27123 13.4418 9.02593 14.2096 9.002 15H7.998C7.97437 14.2097 7.72941 13.4419 7.291 12.784L6.251 11.226C6.08707 10.9795 5.99974 10.69 6 10.394V6Z" fill="#212529"/>
</svg>
