<svg width="16" height="16" viewBox="0 0 16 16" xmlns="http://www.w3.org/2000/svg"> <path d="M0.5 5C0.367392 5 0.240215 5.05268 0.146447 5.14645C0.0526784 5.24021 0 5.36739 0 5.5L0 10.5C0 10.6326 0.0526784 10.7598 0.146447 10.8536C0.240215 10.9473 0.367392 11 0.5 11H15.5C15.6326 11 15.7598 10.9473 15.8536 10.8536C15.9473 10.7598 16 10.6326 16 10.5V5.5C16 5.36739 15.9473 5.24021 15.8536 5.14645C15.7598 5.05268 15.6326 5 15.5 5H0.5ZM2.25 6.5H13.75C13.8163 6.5 13.8799 6.52634 13.9268 6.57322C13.9737 6.62011 14 6.6837 14 6.75V7.75C14 7.8163 13.9737 7.87989 13.9268 7.92678C13.8799 7.97366 13.8163 8 13.75 8H2.25C2.1837 8 2.12011 7.97366 2.07322 7.92678C2.02634 7.87989 2 7.8163 2 7.75V6.75C2 6.6837 2.02634 6.62011 2.07322 6.57322C2.12011 6.52634 2.1837 6.5 2.25 6.5Z"/> </svg>