<svg width="16" height="16" viewBox="0 0 16 16" xmlns="http://www.w3.org/2000/svg"> <path d="M6 0.5C6 0.367392 6.05268 0.240215 6.14645 0.146447C6.24021 0.0526784 6.36739 0 6.5 0L10.5 0C10.6326 0 10.7598 0.0526784 10.8536 0.146447C10.9473 0.240215 11 0.367392 11 0.5V4.5H6V0.5ZM7 1V2H8V1H7ZM9 1V2H10V1H9ZM5.5 5C5.36739 5 5.24021 5.05268 5.14645 5.14645C5.05268 5.24021 5 5.36739 5 5.5V10.394C4.99991 10.7891 5.11683 11.1753 5.336 11.504L6.166 12.749C6.71 13.565 7 14.523 7 15.503C7 15.778 7.222 16 7.497 16H9.503C9.63481 16 9.76123 15.9476 9.85443 15.8544C9.94764 15.7612 10 15.6348 10 15.503C10 14.523 10.29 13.565 10.834 12.749L11.664 11.504C11.8832 11.1753 12.0001 10.7891 12 10.394V5.5C12 5.36739 11.9473 5.24021 11.8536 5.14645C11.7598 5.05268 11.6326 5 11.5 5H5.5Z"/> </svg>