<svg width="16" height="16" viewBox="0 0 16 16" fill="none" xmlns="http://www.w3.org/2000/svg">
<g clip-path="url(#clip0_34_5714)">
<path d="M7.792 0.31199L6.259 2.61199C6.23408 2.64963 6.21982 2.69332 6.21773 2.73841C6.21564 2.7835 6.2258 2.82832 6.24713 2.86811C6.26846 2.90789 6.30016 2.94116 6.33887 2.96438C6.37758 2.9876 6.42186 2.99991 6.467 2.99999H7.5V10.319C7.34081 10.1995 7.16792 10.0995 6.985 10.021L5.909 9.55999C5.639 9.44425 5.40893 9.25177 5.24734 9.00645C5.08574 8.76112 4.99974 8.47375 5 8.17999V7.91399C5.33361 7.79604 5.61478 7.56396 5.79382 7.25875C5.97286 6.95354 6.03824 6.59487 5.9784 6.24612C5.91857 5.89738 5.73737 5.58101 5.46683 5.35294C5.1963 5.12487 4.85385 4.99978 4.5 4.99978C4.14616 4.99978 3.80371 5.12487 3.53317 5.35294C3.26264 5.58101 3.08144 5.89738 3.02161 6.24612C2.96177 6.59487 3.02715 6.95354 3.20619 7.25875C3.38523 7.56396 3.6664 7.79604 4 7.91399V8.17999C3.99996 8.66925 4.14348 9.14778 4.41278 9.55626C4.68208 9.96474 5.06532 10.2852 5.515 10.478L6.591 10.939C6.82164 11.0379 7.02379 11.193 7.17893 11.3903C7.33407 11.5875 7.43724 11.8205 7.479 12.068C7.00971 12.1948 6.60262 12.4881 6.33376 12.8931C6.06491 13.2981 5.95268 13.7871 6.01804 14.2688C6.08341 14.7505 6.32189 15.1919 6.68894 15.5106C7.056 15.8294 7.52652 16.0036 8.01263 16.0007C8.49874 15.9978 8.96719 15.8181 9.33047 15.4951C9.69375 15.1721 9.92703 14.7279 9.98673 14.2455C10.0464 13.763 9.92846 13.2754 9.65486 12.8735C9.38127 12.4717 8.97075 12.1832 8.5 12.062V11.16C8.49991 10.8954 8.5698 10.6355 8.70257 10.4067C8.83534 10.1779 9.02627 9.98821 9.256 9.85699L10.74 9.00899C11.099 8.80399 11.4015 8.51317 11.6205 8.16256C11.8396 7.81196 11.9682 7.41251 11.995 6.99999H12.75C12.8163 6.99999 12.8799 6.97365 12.9268 6.92677C12.9737 6.87988 13 6.81629 13 6.74999V4.24999C13 4.18369 12.9737 4.1201 12.9268 4.07321C12.8799 4.02633 12.8163 3.99999 12.75 3.99999H10.25C10.1837 3.99999 10.1201 4.02633 10.0732 4.07321C10.0263 4.1201 10 4.18369 10 4.24999V6.74999C10 6.88799 10.112 6.99999 10.25 6.99999H10.991C10.9657 7.23585 10.8847 7.46234 10.7549 7.66085C10.625 7.85937 10.4499 8.02426 10.244 8.14199L8.76 8.98999C8.67001 9.04139 8.58318 9.09816 8.5 9.15999V2.99999H9.533C9.5783 3.00003 9.62276 2.98775 9.66163 2.96448C9.7005 2.94121 9.73231 2.90782 9.75367 2.86787C9.77503 2.82792 9.78514 2.78292 9.7829 2.73768C9.78067 2.69243 9.76619 2.64864 9.741 2.61099L8.208 0.31199C8.18517 0.27775 8.15424 0.249676 8.11796 0.23026C8.08167 0.210843 8.04116 0.200684 8 0.200684C7.95885 0.200684 7.91833 0.210843 7.88205 0.23026C7.84576 0.249676 7.81483 0.27775 7.792 0.31199Z" fill="#212529"/>
</g>
<defs>
<clipPath id="clip0_34_5714">
<rect width="16" height="16" fill="white"/>
</clipPath>
</defs>
</svg>
