<svg width="16" height="16" viewBox="0 0 16 16" xmlns="http://www.w3.org/2000/svg"> <path d="M4.14645 7.14645C4.24021 7.05268 4.36739 7 4.5 7H11.5C11.6326 7 11.7598 7.05268 11.8536 7.14645C11.9473 7.24021 12 7.36739 12 7.5V8.5C12 8.63261 11.9473 8.75979 11.8536 8.85355C11.7598 8.94732 11.6326 9 11.5 9H4.5C4.36739 9 4.24021 8.94732 4.14645 8.85355C4.05268 8.75979 4 8.63261 4 8.5V7.5C4 7.36739 4.05268 7.24021 4.14645 7.14645Z"/> <path fill-rule="evenodd" clip-rule="evenodd" d="M2 4.293C2.18749 4.10545 2.44181 4.00006 2.707 4H13.293C13.5582 4.00006 13.8125 4.10545 14 4.293L15.707 6C15.8945 6.18749 15.9999 6.4418 16 6.707V11C16 11.2652 15.8946 11.5196 15.7071 11.7071C15.5196 11.8946 15.2652 12 15 12H1C0.734784 12 0.48043 11.8946 0.292893 11.7071C0.105357 11.5196 0 11.2652 0 11V6.707C5.66374e-05 6.4418 0.105451 6.18749 0.293 6L2 4.293ZM13.293 5H2.707L1 6.707V11H15V6.707L13.293 5Z"/> </svg>