<svg width="16" height="16" viewBox="0 0 16 16" xmlns="http://www.w3.org/2000/svg"> <path d="M3.14645 7.64645C3.24021 7.55268 3.36739 7.5 3.5 7.5H12.5C12.6326 7.5 12.7598 7.55268 12.8536 7.64645C12.9473 7.74021 13 7.86739 13 8C13 8.13261 12.9473 8.25979 12.8536 8.35355C12.7598 8.44732 12.6326 8.5 12.5 8.5H3.5C3.36739 8.5 3.24021 8.44732 3.14645 8.35355C3.05268 8.25979 3 8.13261 3 8C3 7.86739 3.05268 7.74021 3.14645 7.64645Z"/> <path fill-rule="evenodd" clip-rule="evenodd" d="M0.87868 5.87868C0.31607 6.44129 0 7.20435 0 8C0 8.79565 0.31607 9.55871 0.87868 10.1213C1.44129 10.6839 2.20435 11 3 11H13C13.7956 11 14.5587 10.6839 15.1213 10.1213C15.6839 9.55871 16 8.79565 16 8C16 7.20435 15.6839 6.44129 15.1213 5.87868C14.5587 5.31607 13.7956 5 13 5H3C2.20435 5 1.44129 5.31607 0.87868 5.87868ZM1.58579 6.58579C1.96086 6.21071 2.46957 6 3 6H13C13.5304 6 14.0391 6.21071 14.4142 6.58579C14.7893 6.96086 15 7.46957 15 8C15 8.53043 14.7893 9.03914 14.4142 9.41421C14.0391 9.78929 13.5304 10 13 10H3C2.46957 10 1.96086 9.78929 1.58579 9.41421C1.21071 9.03914 1 8.53043 1 8C1 7.46957 1.21071 6.96086 1.58579 6.58579Z"/> </svg>