<svg width="16" height="16" viewBox="0 0 16 16" xmlns="http://www.w3.org/2000/svg"> <path d="M8 5.993C9.664 4.282 13.825 7.276 8 11.125C2.175 7.275 6.336 4.282 8 5.993Z"/> <path d="M2.07322 4.07322C2.12011 4.02634 2.1837 4 2.25 4H3.75C3.8163 4 3.87989 4.02634 3.92678 4.07322C3.97366 4.12011 4 4.1837 4 4.25C4 4.3163 3.97366 4.37989 3.92678 4.42678C3.87989 4.47366 3.8163 4.5 3.75 4.5H2.5V5.75C2.5 5.8163 2.47366 5.87989 2.42678 5.92678C2.37989 5.97366 2.3163 6 2.25 6C2.1837 6 2.12011 5.97366 2.07322 5.92678C2.02634 5.87989 2 5.8163 2 5.75V4.25C2 4.1837 2.02634 4.12011 2.07322 4.07322Z"/> <path d="M12.0732 4.07322C12.1201 4.02634 12.1837 4 12.25 4H13.75C13.8163 4 13.8799 4.02634 13.9268 4.07322C13.9737 4.12011 14 4.1837 14 4.25V5.75C14 5.8163 13.9737 5.87989 13.9268 5.92678C13.8799 5.97366 13.8163 6 13.75 6C13.6837 6 13.6201 5.97366 13.5732 5.92678C13.5263 5.87989 13.5 5.8163 13.5 5.75V4.5H12.25C12.1837 4.5 12.1201 4.47366 12.0732 4.42678C12.0263 4.37989 12 4.3163 12 4.25C12 4.1837 12.0263 4.12011 12.0732 4.07322Z"/> <path d="M2.42678 10.0732C2.47366 10.1201 2.5 10.1837 2.5 10.25V11.5H3.75C3.8163 11.5 3.87989 11.5263 3.92678 11.5732C3.97366 11.6201 4 11.6837 4 11.75C4 11.8163 3.97366 11.8799 3.92678 11.9268C3.87989 11.9737 3.8163 12 3.75 12H2.25C2.112 12 2 11.888 2 11.75V10.25C2 10.1837 2.02634 10.1201 2.07322 10.0732C2.12011 10.0263 2.1837 10 2.25 10C2.3163 10 2.37989 10.0263 2.42678 10.0732Z"/> <path d="M13.9268 10.0732C13.9737 10.1201 14 10.1837 14 10.25V11.75C14 11.8163 13.9737 11.8799 13.9268 11.9268C13.8799 11.9737 13.8163 12 13.75 12H12.25C12.1837 12 12.1201 11.9737 12.0732 11.9268C12.0263 11.8799 12 11.8163 12 11.75C12 11.6837 12.0263 11.6201 12.0732 11.5732C12.1201 11.5263 12.1837 11.5 12.25 11.5H13.5V10.25C13.5 10.1837 13.5263 10.1201 13.5732 10.0732C13.6201 10.0263 13.6837 10 13.75 10C13.8163 10 13.8799 10.0263 13.9268 10.0732Z"/> <path fill-rule="evenodd" clip-rule="evenodd" d="M0 2.93414V13.0001C0 13.2654 0.105357 13.5197 0.292893 13.7072C0.48043 13.8948 0.734784 14.0001 1 14.0001H15C15.2652 14.0001 15.5196 13.8948 15.7071 13.7072C15.8946 13.5197 16 13.2654 16 13.0001V3.00014C16 2.73492 15.8946 2.48057 15.7071 2.29303C15.5196 2.1055 15.2652 2.00014 15 2.00014V1.07714C15 0.933904 14.9692 0.79234 14.9098 0.662029C14.8503 0.531718 14.7635 0.415701 14.6554 0.321831C14.5472 0.22796 14.4201 0.158427 14.2827 0.117936C14.1453 0.0774454 14.0008 0.0669427 13.859 0.0871389L0.859 1.94414C0.620619 1.97809 0.402492 2.09691 0.244689 2.27878C0.0868852 2.46065 2.31057e-06 2.69335 0 2.93414ZM1 13.0001V3.00014H15V13.0001H1Z"/> </svg>