<svg width="16" height="16" viewBox="0 0 16 16" fill="none" xmlns="http://www.w3.org/2000/svg">
<path fill-rule="evenodd" clip-rule="evenodd" d="M10.6459 0.645917C10.6924 0.599354 10.7475 0.562411 10.8083 0.537205C10.869 0.511998 10.9341 0.499023 10.9999 0.499023C11.0657 0.499023 11.1308 0.511998 11.1915 0.537205C11.2523 0.562411 11.3075 0.599354 11.3539 0.645917L15.3539 4.64592C15.4005 4.69236 15.4374 4.74754 15.4626 4.80828C15.4878 4.86903 15.5008 4.93415 15.5008 4.99992C15.5008 5.06568 15.4878 5.13081 15.4626 5.19155C15.4374 5.2523 15.4005 5.30747 15.3539 5.35392L13.4519 7.25592L12.6229 10.5689C12.5599 10.8212 12.4323 11.0527 12.2528 11.2408C12.0733 11.4289 11.848 11.5672 11.5989 11.6419L1.25391 14.7459L4.35791 4.39992C4.43272 4.15118 4.57085 3.92613 4.75877 3.7468C4.94668 3.56748 5.17794 3.44002 5.42991 3.37692L8.74291 2.54892L10.6459 0.645917ZM8.84591 3.55392L5.67291 4.34692C5.58868 4.36794 5.51138 4.41053 5.4486 4.4705C5.38583 4.53046 5.33975 4.60574 5.31491 4.68892L2.74491 13.2539L11.3119 10.6839C11.3946 10.6589 11.4694 10.6128 11.529 10.5502C11.5886 10.4877 11.6309 10.4107 11.6519 10.3269L12.4459 7.15292L8.84591 3.55392Z" fill="#212529"/>
<path fill-rule="evenodd" clip-rule="evenodd" d="M2.83191 13.2279L7.99991 8.99992C8.19769 8.99992 8.39103 8.94127 8.55548 8.83139C8.71993 8.72151 8.8481 8.56533 8.92379 8.3826C8.99947 8.19987 9.01928 7.99881 8.98069 7.80483C8.94211 7.61085 8.84687 7.43266 8.70701 7.29281C8.56716 7.15296 8.38898 7.05772 8.195 7.01913C8.00102 6.98055 7.79995 7.00035 7.61722 7.07604C7.4345 7.15172 7.27832 7.2799 7.16844 7.44435C7.05856 7.6088 6.99991 7.80214 6.99991 7.99992L2.77191 13.1679L2.74591 13.2539L2.83191 13.2279Z" fill="#212529"/>
</svg>
