<svg width="16" height="16" viewBox="0 0 16 16" xmlns="http://www.w3.org/2000/svg"> <path d="M15.992 4.20419C15.921 5.76019 14.834 7.89119 12.73 10.5972C10.555 13.4262 8.714 14.8402 7.208 14.8402C6.275 14.8402 5.486 13.9792 4.841 12.2572L3.55 7.52319C3.07 5.80019 2.556 4.94019 2.007 4.94019C1.889 4.94019 1.47 5.19319 0.753 5.69419L0 4.72419C0.783165 4.03634 1.56119 3.34265 2.334 2.64319C3.388 1.73319 4.179 1.25519 4.707 1.20619C5.95 1.08319 6.717 1.93419 7.005 3.75919C7.315 5.72719 7.531 6.94919 7.651 7.42519C8.011 9.05619 8.407 9.87119 8.837 9.87019C9.171 9.87019 9.673 9.34019 10.345 8.28319C11.016 7.22519 11.375 6.42019 11.422 5.86819C11.518 4.95519 11.159 4.49819 10.345 4.49819C9.93642 4.50418 9.53329 4.59297 9.16 4.75919C9.949 2.18619 11.451 0.934191 13.668 1.00319C15.312 1.05319 16.087 2.12019 15.992 4.20319V4.20419Z"/> </svg>