<svg width="16" height="16" viewBox="0 0 16 16" xmlns="http://www.w3.org/2000/svg"> <path d="M9 3.99978C8.99987 3.90569 8.97319 3.81355 8.92303 3.73395C8.87288 3.65435 8.80128 3.59051 8.71647 3.54978C8.63166 3.50905 8.53708 3.49307 8.4436 3.50368C8.35011 3.51429 8.26152 3.55107 8.188 3.60978L5.825 5.49978H3.5C3.36739 5.49978 3.24021 5.55246 3.14645 5.64622C3.05268 5.73999 3 5.86717 3 5.99978V9.99978C3 10.1324 3.05268 10.2596 3.14645 10.3533C3.24021 10.4471 3.36739 10.4998 3.5 10.4998H5.825L8.188 12.3898C8.26152 12.4485 8.35011 12.4853 8.4436 12.4959C8.53708 12.5065 8.63166 12.4905 8.71647 12.4498C8.80128 12.409 8.87288 12.3452 8.92303 12.2656C8.97319 12.186 8.99987 12.0939 9 11.9998V3.99978ZM6.312 6.38978L8 5.03978V10.9598L6.312 9.60978C6.22349 9.53877 6.11347 9.49998 6 9.49978H4V6.49978H6C6.11347 6.49957 6.22349 6.46078 6.312 6.38978ZM12.025 7.99978C12.0258 8.59084 11.9097 9.17623 11.6835 9.7223C11.4574 10.2684 11.1255 10.7644 10.707 11.1818L10 10.4748C10.3255 10.1501 10.5836 9.76431 10.7595 9.33957C10.9354 8.91483 11.0256 8.45951 11.025 7.99978C11.0256 7.54006 10.9353 7.08475 10.7594 6.66002C10.5835 6.23528 10.3254 5.84948 10 5.52478L10.707 4.81778C11.1255 5.23518 11.4574 5.73118 11.6835 6.27725C11.9097 6.82332 12.0258 7.40871 12.025 7.99978Z"/> </svg>