<svg width="16" height="16" viewBox="0 0 16 16" fill="none" xmlns="http://www.w3.org/2000/svg">
<path d="M11.536 14.0102C12.3265 13.2219 12.9535 12.2851 13.3808 11.2537C13.8081 10.2223 14.0274 9.11665 14.026 8.00023C14.0274 6.88382 13.8081 5.77814 13.3808 4.74674C12.9535 3.71534 12.3265 2.77856 11.536 1.99023L10.828 2.69723C11.5255 3.39282 12.0787 4.21941 12.4557 5.12948C12.8328 6.03955 13.0262 7.01516 13.025 8.00023C13.025 10.0712 12.185 11.9462 10.828 13.3032L11.536 14.0102Z" fill="#212529"/>
<path d="M10.121 12.5962C10.7255 11.9933 11.2049 11.277 11.5316 10.4882C11.8584 9.6995 12.026 8.85397 12.025 8.00023C12.026 7.1465 11.8584 6.30097 11.5316 5.51224C11.2049 4.72351 10.7255 4.00712 10.121 3.40423L9.414 4.11123C9.92548 4.62138 10.3311 5.22757 10.6076 5.89497C10.884 6.56238 11.0259 7.27783 11.025 8.00023C11.0262 8.72273 10.8845 9.43834 10.6082 10.1059C10.3319 10.7735 9.92642 11.3799 9.415 11.8902L10.121 12.5962Z" fill="#212529"/>
<path d="M8.707 11.1822C9.12548 10.7648 9.45735 10.2688 9.68354 9.72276C9.90973 9.17669 10.0258 8.5913 10.025 8.00023C10.0258 7.40917 9.90973 6.82378 9.68354 6.27771C9.45735 5.73163 9.12548 5.23564 8.707 4.81823L8 5.52523C8.32548 5.8499 8.5836 6.2357 8.7595 6.66044C8.93541 7.08519 9.02563 7.54051 9.025 8.00023C9.02558 8.45995 8.93533 8.91526 8.75942 9.34C8.58352 9.76473 8.32544 10.1505 8 10.4752L8.707 11.1822ZM6.717 3.55023C6.80171 3.59104 6.8732 3.65491 6.92326 3.73451C6.97332 3.81411 6.99991 3.90621 7 4.00023V12.0002C6.99987 12.0943 6.97319 12.1865 6.92303 12.2661C6.87288 12.3457 6.80128 12.4095 6.71647 12.4502C6.63166 12.491 6.53708 12.5069 6.4436 12.4963C6.35011 12.4857 6.26152 12.4489 6.188 12.3902L3.825 10.5002H1.5C1.36739 10.5002 1.24021 10.4476 1.14645 10.3538C1.05268 10.26 1 10.1328 1 10.0002V6.00023C1 5.86763 1.05268 5.74045 1.14645 5.64668C1.24021 5.55291 1.36739 5.50023 1.5 5.50023H3.825L6.188 3.61023C6.26157 3.55142 6.35026 3.51459 6.44385 3.50397C6.53744 3.49336 6.63212 3.50939 6.717 3.55023Z" fill="#212529"/>
</svg>
