<svg width="16" height="16" viewBox="0 0 16 16" xmlns="http://www.w3.org/2000/svg"> <g clip-path="url(#clip0_34_5760)"> <path d="M0.0358596 3.31396C0.0852132 3.19092 0.181411 3.09251 0.303301 3.04038C0.425192 2.98825 0.562797 2.98666 0.68586 3.03596L2.44286 3.73896C2.80043 3.88196 3.19929 3.88196 3.55686 3.73896L4.57086 3.33296C5.1669 3.09454 5.83182 3.09454 6.42786 3.33296L7.44286 3.73896C7.80043 3.88196 8.19929 3.88196 8.55686 3.73896L9.57086 3.33296C10.1669 3.09454 10.8318 3.09454 11.4279 3.33296L12.4429 3.73896C12.8004 3.88196 13.1993 3.88196 13.5569 3.73896L15.3139 3.03596C15.3751 3.00993 15.4409 2.99637 15.5074 2.9961C15.574 2.99582 15.6399 3.00883 15.7013 3.03436C15.7628 3.05988 15.8185 3.09742 15.8653 3.14476C15.912 3.1921 15.9488 3.2483 15.9736 3.31005C15.9984 3.37181 16.0105 3.43789 16.0094 3.50442C16.0083 3.57094 15.994 3.63658 15.9672 3.69748C15.9404 3.75838 15.9017 3.81332 15.8534 3.85908C15.8051 3.90484 15.7481 3.94049 15.6859 3.96396L13.9279 4.66696C13.3318 4.90538 12.6669 4.90538 12.0709 4.66696L11.0569 4.26096C10.6993 4.11796 10.3004 4.11796 9.94286 4.26096L8.92786 4.66696C8.33182 4.90538 7.6669 4.90538 7.07086 4.66696L6.05686 4.26096C5.69929 4.11796 5.30043 4.11796 4.94286 4.26096L3.92786 4.66696C3.33182 4.90538 2.6669 4.90538 2.07086 4.66696L0.31386 3.96396C0.190818 3.91461 0.092413 3.81841 0.0402813 3.69652C-0.0118504 3.57463 -0.0134408 3.43702 0.0358596 3.31396ZM0.0358596 6.31396C0.0852132 6.19092 0.181411 6.09251 0.303301 6.04038C0.425192 5.98825 0.562797 5.98666 0.68586 6.03596L2.44286 6.73896C2.80043 6.88196 3.19929 6.88196 3.55686 6.73896L4.57086 6.33296C5.1669 6.09454 5.83182 6.09454 6.42786 6.33296L7.44286 6.73896C7.80043 6.88196 8.19929 6.88196 8.55686 6.73896L9.57086 6.33296C10.1669 6.09454 10.8318 6.09454 11.4279 6.33296L12.4429 6.73896C12.8004 6.88196 13.1993 6.88196 13.5569 6.73896L15.3139 6.03596C15.3751 6.00993 15.4409 5.99637 15.5074 5.9961C15.574 5.99582 15.6399 6.00883 15.7013 6.03436C15.7628 6.05988 15.8185 6.09742 15.8653 6.14476C15.912 6.1921 15.9488 6.2483 15.9736 6.31005C15.9984 6.37181 16.0105 6.43789 16.0094 6.50442C16.0083 6.57094 15.994 6.63658 15.9672 6.69748C15.9404 6.75838 15.9017 6.81332 15.8534 6.85908C15.8051 6.90483 15.7481 6.94049 15.6859 6.96396L13.9279 7.66696C13.3318 7.90538 12.6669 7.90538 12.0709 7.66696L11.0569 7.26096C10.6993 7.11796 10.3004 7.11796 9.94286 7.26096L8.92786 7.66696C8.33182 7.90538 7.6669 7.90538 7.07086 7.66696L6.05686 7.26096C5.69929 7.11796 5.30043 7.11796 4.94286 7.26096L3.92786 7.66696C3.33182 7.90538 2.6669 7.90538 2.07086 7.66696L0.31386 6.96396C0.190818 6.91461 0.092413 6.81841 0.0402813 6.69652C-0.0118504 6.57463 -0.0134408 6.43702 0.0358596 6.31396ZM0.0358596 9.31396C0.0852132 9.19092 0.181411 9.09251 0.303301 9.04038C0.425192 8.98825 0.562797 8.98666 0.68586 9.03596L2.44286 9.73896C2.80043 9.88196 3.19929 9.88196 3.55686 9.73896L4.57086 9.33296C5.1669 9.09454 5.83182 9.09454 6.42786 9.33296L7.44286 9.73896C7.80043 9.88196 8.19929 9.88196 8.55686 9.73896L9.57086 9.33296C10.1669 9.09454 10.8318 9.09454 11.4279 9.33296L12.4429 9.73896C12.8004 9.88196 13.1993 9.88196 13.5569 9.73896L15.3139 9.03596C15.3751 9.00993 15.4409 8.99637 15.5074 8.9961C15.574 8.99582 15.6399 9.00883 15.7013 9.03436C15.7628 9.05988 15.8185 9.09742 15.8653 9.14476C15.912 9.1921 15.9488 9.24829 15.9736 9.31005C15.9984 9.37181 16.0105 9.43789 16.0094 9.50442C16.0083 9.57094 15.994 9.63658 15.9672 9.69748C15.9404 9.75838 15.9017 9.81332 15.8534 9.85908C15.8051 9.90483 15.7481 9.94049 15.6859 9.96396L13.9279 10.667C13.3318 10.9054 12.6669 10.9054 12.0709 10.667L11.0569 10.261C10.6993 10.118 10.3004 10.118 9.94286 10.261L8.92786 10.667C8.33182 10.9054 7.6669 10.9054 7.07086 10.667L6.05686 10.261C5.69929 10.118 5.30043 10.118 4.94286 10.261L3.92786 10.667C3.33182 10.9054 2.6669 10.9054 2.07086 10.667L0.31386 9.96396C0.190818 9.91461 0.092413 9.81841 0.0402813 9.69652C-0.0118504 9.57463 -0.0134408 9.43702 0.0358596 9.31396ZM0.0358596 12.314C0.0852132 12.1909 0.181411 12.0925 0.303301 12.0404C0.425192 11.9882 0.562797 11.9867 0.68586 12.036L2.44286 12.739C2.80043 12.882 3.19929 12.882 3.55686 12.739L4.57086 12.333C5.1669 12.0945 5.83182 12.0945 6.42786 12.333L7.44286 12.739C7.80043 12.882 8.19929 12.882 8.55686 12.739L9.57086 12.333C10.1669 12.0945 10.8318 12.0945 11.4279 12.333L12.4429 12.739C12.8004 12.882 13.1993 12.882 13.5569 12.739L15.3139 12.036C15.3751 12.0099 15.4409 11.9964 15.5074 11.9961C15.574 11.9958 15.6399 12.0088 15.7013 12.0344C15.7628 12.0599 15.8185 12.0974 15.8653 12.1448C15.912 12.1921 15.9488 12.2483 15.9736 12.3101C15.9984 12.3718 16.0105 12.4379 16.0094 12.5044C16.0083 12.5709 15.994 12.6366 15.9672 12.6975C15.9404 12.7584 15.9017 12.8133 15.8534 12.8591C15.8051 12.9048 15.7481 12.9405 15.6859 12.964L13.9279 13.667C13.3318 13.9054 12.6669 13.9054 12.0709 13.667L11.0569 13.261C10.6993 13.118 10.3004 13.118 9.94286 13.261L8.92786 13.667C8.33182 13.9054 7.6669 13.9054 7.07086 13.667L6.05686 13.261C5.69929 13.118 5.30043 13.118 4.94286 13.261L3.92786 13.667C3.33182 13.9054 2.6669 13.9054 2.07086 13.667L0.31386 12.964C0.190818 12.9146 0.092413 12.8184 0.0402813 12.6965C-0.0118504 12.5746 -0.0134408 12.437 0.0358596 12.314Z"/> </g> <defs> <clipPath id="clip0_34_5760"> <rect width="16" height="16"/> </clipPath> </defs> </svg>