<svg width="16" height="16" viewBox="0 0 16 16" xmlns="http://www.w3.org/2000/svg"> <path d="M7.29289 5.79289C7.10535 5.98043 7 6.23478 7 6.5C7 6.76522 7.10535 7.01957 7.29289 7.20711C7.48043 7.39464 7.73478 7.5 8 7.5C8.26521 7.5 8.51957 7.39464 8.7071 7.20711C8.89464 7.01957 9 6.76522 9 6.5C9 6.23478 8.89464 5.98043 8.7071 5.79289C8.51957 5.60536 8.26521 5.5 8 5.5C7.73478 5.5 7.48043 5.60536 7.29289 5.79289Z"/> <path fill-rule="evenodd" clip-rule="evenodd" d="M0.585786 3.58579C0.960859 3.21071 1.46957 3 2 3H14C14.5304 3 15.0391 3.21071 15.4142 3.58579C15.7893 3.96086 16 4.46957 16 5V8C16 8.53043 15.7893 9.03914 15.4142 9.41421C15.0391 9.78929 14.5304 10 14 10H2C1.46957 10 0.960859 9.78929 0.585786 9.41421C0.210714 9.03914 0 8.53043 0 8V5C0 4.46957 0.210714 3.96086 0.585786 3.58579ZM9.41421 5.08579C9.03914 4.71071 8.53043 4.5 8 4.5C7.46957 4.5 6.96086 4.71071 6.58579 5.08579C6.21071 5.46086 6 5.96957 6 6.5C6 7.03043 6.21071 7.53914 6.58579 7.91421C6.96086 8.28929 7.46957 8.5 8 8.5C8.53043 8.5 9.03914 8.28929 9.41421 7.91421C9.78929 7.53914 10 7.03043 10 6.5C10 5.96957 9.78929 5.46086 9.41421 5.08579ZM12.1464 6.85355C12.2402 6.94732 12.3674 7 12.5 7C12.6326 7 12.7598 6.94732 12.8536 6.85355C12.9473 6.75979 13 6.63261 13 6.5C13 6.36739 12.9473 6.24021 12.8536 6.14645C12.7598 6.05268 12.6326 6 12.5 6C12.3674 6 12.2402 6.05268 12.1464 6.14645C12.0527 6.24021 12 6.36739 12 6.5C12 6.63261 12.0527 6.75979 12.1464 6.85355Z"/> <path d="M6.80693 10.9832C6.74581 11.009 6.69042 11.0466 6.644 11.094C6.469 11.271 6.255 11.44 6.041 11.59C5.86623 11.7109 5.6864 11.8244 5.502 11.93C5.43202 11.9711 5.36065 12.0098 5.288 12.046L5.278 12.052L5.276 12.053C5.17534 12.1034 5.09466 12.1864 5.04701 12.2884C4.99936 12.3904 4.98754 12.5055 5.01346 12.6151C5.03937 12.7247 5.10151 12.8223 5.18981 12.8921C5.27811 12.962 5.38741 13 5.5 13H10.5C10.613 13.0004 10.7227 12.9626 10.8115 12.8927C10.9002 12.8228 10.9626 12.7249 10.9886 12.615C11.0146 12.5051 11.0025 12.3896 10.9545 12.2873C10.9065 12.1851 10.8252 12.1022 10.724 12.052H10.721L10.711 12.046C10.4512 11.9095 10.2001 11.7573 9.959 11.59C9.746 11.441 9.531 11.271 9.356 11.094C9.30957 11.0466 9.25419 11.009 9.19307 10.9832C9.13195 10.9575 9.06632 10.9441 9 10.944H7C6.93368 10.9441 6.86804 10.9575 6.80693 10.9832Z"/> </svg>