<svg width="16" height="16" viewBox="0 0 16 16" xmlns="http://www.w3.org/2000/svg"> <path d="M10.7059 3.29406C9.81726 3.0982 8.90992 2.99962 7.99993 3.00006C5.25893 3.00006 2.72293 3.88206 0.66293 5.37906C0.606774 5.42102 0.560384 5.47466 0.526955 5.53628C0.493526 5.5979 0.473852 5.66604 0.46929 5.73599C0.464728 5.80595 0.475385 5.87606 0.500528 5.9415C0.52567 6.00694 0.564701 6.06615 0.61493 6.11506C0.702325 6.20114 0.817433 6.25341 0.93976 6.26256C1.06209 6.27172 1.18369 6.23717 1.28293 6.16506C3.23807 4.75404 5.58881 3.99636 7.99993 4.00006C8.62993 4.00006 9.24893 4.05006 9.85193 4.14806L10.7059 3.29406ZM7.99993 6.00006C6.09493 6.00006 4.31993 6.56006 2.83393 7.52606C2.77448 7.56618 2.72478 7.61911 2.68848 7.68096C2.65217 7.74281 2.63019 7.81202 2.62415 7.88348C2.61811 7.95495 2.62815 8.02685 2.65355 8.09393C2.67896 8.161 2.71906 8.22152 2.77093 8.27106C2.85613 8.35422 2.96707 8.40594 3.08554 8.41776C3.20402 8.42957 3.32299 8.40076 3.42293 8.33606C4.4836 7.65631 5.68287 7.22238 6.93293 7.06606L7.99993 6.00006ZM10.5959 7.40406L11.3809 6.61906C12.0109 6.85906 12.6079 7.16406 13.1659 7.52606C13.2251 7.56641 13.2745 7.61944 13.3106 7.68129C13.3466 7.74313 13.3685 7.81223 13.3745 7.88358C13.3806 7.95493 13.3706 8.02672 13.3454 8.09374C13.3203 8.16077 13.2805 8.22134 13.2289 8.27106C13.1437 8.35422 13.0328 8.40594 12.9143 8.41776C12.7958 8.42957 12.6769 8.40076 12.5769 8.33606C11.9601 7.941 11.2945 7.62771 10.5969 7.40406H10.5959ZM7.99993 10.0001L8.93293 9.06706C9.63434 9.16747 10.3144 9.38268 10.9459 9.70406C11.2309 9.84906 11.2719 10.2281 11.0459 10.4541L11.0309 10.4691C10.9511 10.5458 10.8493 10.5957 10.7398 10.6118C10.6303 10.6279 10.5185 10.6095 10.4199 10.5591C9.6667 10.1899 8.83876 9.99865 7.99993 10.0001ZM12.9049 5.09506L13.6519 4.34806C14.2419 4.64806 14.8049 4.99306 15.3369 5.37806C15.3932 5.42009 15.4396 5.47384 15.4731 5.53559C15.5065 5.59734 15.5262 5.66562 15.5306 5.7357C15.5351 5.80579 15.5243 5.876 15.499 5.9415C15.4736 6.007 15.4344 6.06622 15.3839 6.11506C15.2965 6.20114 15.1814 6.25341 15.0591 6.26256C14.9368 6.27172 14.8152 6.23717 14.7159 6.16506C14.1462 5.75378 13.54 5.39561 12.9049 5.09506ZM9.01993 11.7801C9.25793 11.9201 9.25593 12.2441 9.05993 12.4401L8.35293 13.1461C8.25917 13.2398 8.13201 13.2924 7.99943 13.2924C7.86685 13.2924 7.73969 13.2398 7.64593 13.1461L6.93893 12.4391C6.74393 12.2441 6.74193 11.9211 6.97893 11.7791C7.28784 11.5956 7.64065 11.4992 7.99993 11.5001C8.37393 11.5001 8.72293 11.6021 9.02093 11.7801H9.01993ZM13.3749 1.87506C13.4744 1.7756 13.6093 1.71973 13.7499 1.71973C13.8906 1.71973 14.0255 1.7756 14.1249 1.87506C14.2244 1.97451 14.2803 2.1094 14.2803 2.25006C14.2803 2.39071 14.2244 2.5256 14.1249 2.62506L3.37493 13.3751C3.32568 13.4243 3.26722 13.4634 3.20288 13.49C3.13854 13.5167 3.06957 13.5304 2.99993 13.5304C2.93029 13.5304 2.86132 13.5167 2.79698 13.49C2.73264 13.4634 2.67418 13.4243 2.62493 13.3751C2.57568 13.3258 2.53662 13.2673 2.50997 13.203C2.48332 13.1387 2.4696 13.0697 2.4696 13.0001C2.4696 12.9304 2.48332 12.8615 2.50997 12.7971C2.53662 12.7328 2.57568 12.6743 2.62493 12.6251L13.3749 1.87506Z"/> </svg>