<svg width="16" height="16" viewBox="0 0 16 16" fill="none" xmlns="http://www.w3.org/2000/svg">
<path d="M4.85355 5.85355C4.75979 5.94732 4.63261 6 4.5 6C4.36739 6 4.24021 5.94732 4.14645 5.85355C4.05268 5.75979 4 5.63261 4 5.5C4 5.36739 4.05268 5.24021 4.14645 5.14645C4.24021 5.05268 4.36739 5 4.5 5C4.63261 5 4.75979 5.05268 4.85355 5.14645C4.94732 5.24021 5 5.36739 5 5.5C5 5.63261 4.94732 5.75979 4.85355 5.85355Z" fill="#212529"/>
<path d="M6.35355 5.85355C6.25979 5.94732 6.13261 6 6 6C5.86739 6 5.74021 5.94732 5.64645 5.85355C5.55268 5.75979 5.5 5.63261 5.5 5.5C5.5 5.36739 5.55268 5.24021 5.64645 5.14645C5.74021 5.05268 5.86739 5 6 5C6.13261 5 6.25979 5.05268 6.35355 5.14645C6.44732 5.24021 6.5 5.36739 6.5 5.5C6.5 5.63261 6.44732 5.75979 6.35355 5.85355Z" fill="#212529"/>
<path d="M7.85355 5.85355C7.94732 5.75979 8 5.63261 8 5.5C8 5.36739 7.94732 5.24021 7.85355 5.14645C7.75979 5.05268 7.63261 5 7.5 5C7.36739 5 7.24021 5.05268 7.14645 5.14645C7.05268 5.24021 7 5.36739 7 5.5C7 5.63261 7.05268 5.75979 7.14645 5.85355C7.24021 5.94732 7.36739 6 7.5 6C7.63261 6 7.75979 5.94732 7.85355 5.85355Z" fill="#212529"/>
<path fill-rule="evenodd" clip-rule="evenodd" d="M13.4142 1.58579C13.0391 1.21071 12.5304 1 12 1H2C1.46957 1 0.960859 1.21071 0.585786 1.58579C0.210714 1.96086 0 2.46957 0 3V11C0 11.5304 0.210714 12.0391 0.585786 12.4142C0.960859 12.7893 1.46957 13 2 13C2 13.5304 2.21071 14.0391 2.58579 14.4142C2.96086 14.7893 3.46957 15 4 15H14C14.5304 15 15.0391 14.7893 15.4142 14.4142C15.7893 14.0391 16 13.5304 16 13V5C16 4.46957 15.7893 3.96086 15.4142 3.58579C15.0391 3.21071 14.5304 3 14 3C14 2.46957 13.7893 1.96086 13.4142 1.58579ZM2 5V12C1.73478 12 1.48043 11.8946 1.29289 11.7071C1.10536 11.5196 1 11.2652 1 11V3C1 2.73478 1.10536 2.48043 1.29289 2.29289C1.48043 2.10536 1.73478 2 2 2H12C12.2652 2 12.5196 2.10536 12.7071 2.29289C12.8946 2.48043 13 2.73478 13 3H4C3.46957 3 2.96086 3.21071 2.58579 3.58579C2.21071 3.96086 2 4.46957 2 5ZM3 13V8H15V13C15 13.2652 14.8946 13.5196 14.7071 13.7071C14.5196 13.8946 14.2652 14 14 14H4C3.73478 14 3.48043 13.8946 3.29289 13.7071C3.10536 13.5196 3 13.2652 3 13ZM14.7071 4.29289C14.8946 4.48043 15 4.73478 15 5V7H3V5C3 4.73478 3.10536 4.48043 3.29289 4.29289C3.48043 4.10536 3.73478 4 4 4H14C14.2652 4 14.5196 4.10536 14.7071 4.29289Z" fill="#212529"/>
</svg>
