<svg width="16" height="16" viewBox="0 0 16 16" fill="none" xmlns="http://www.w3.org/2000/svg">
<path d="M2.85355 3.85355C2.75979 3.94732 2.63261 4 2.5 4C2.36739 4 2.24021 3.94732 2.14645 3.85355C2.05268 3.75979 2 3.63261 2 3.5C2 3.36739 2.05268 3.24021 2.14645 3.14645C2.24021 3.05268 2.36739 3 2.5 3C2.63261 3 2.75979 3.05268 2.85355 3.14645C2.94732 3.24021 3 3.36739 3 3.5C3 3.63261 2.94732 3.75979 2.85355 3.85355Z" fill="#212529"/>
<path d="M4.35355 3.85355C4.44732 3.75979 4.5 3.63261 4.5 3.5C4.5 3.36739 4.44732 3.24021 4.35355 3.14645C4.25979 3.05268 4.13261 3 4 3C3.86739 3 3.74021 3.05268 3.64645 3.14645C3.55268 3.24021 3.5 3.36739 3.5 3.5C3.5 3.63261 3.55268 3.75979 3.64645 3.85355C3.74021 3.94732 3.86739 4 4 4C4.13261 4 4.25979 3.94732 4.35355 3.85355Z" fill="#212529"/>
<path d="M5.85355 3.85355C5.75979 3.94732 5.63261 4 5.5 4C5.36739 4 5.24021 3.94732 5.14645 3.85355C5.05268 3.75979 5 3.63261 5 3.5C5 3.36739 5.05268 3.24021 5.14645 3.14645C5.24021 3.05268 5.36739 3 5.5 3C5.63261 3 5.75979 3.05268 5.85355 3.14645C5.94732 3.24021 6 3.36739 6 3.5C6 3.63261 5.94732 3.75979 5.85355 3.85355Z" fill="#212529"/>
<path fill-rule="evenodd" clip-rule="evenodd" d="M0.585786 1.58579C0.960859 1.21071 1.46957 1 2 1H14C14.5304 1 15.0391 1.21071 15.4142 1.58579C15.7893 1.96086 16 2.46957 16 3V13C16 13.5304 15.7893 14.0391 15.4142 14.4142C15.0391 14.7893 14.5304 15 14 15H2C1.46957 15 0.960859 14.7893 0.585786 14.4142C0.210714 14.0391 0 13.5304 0 13V3C0 2.46957 0.210714 1.96086 0.585786 1.58579ZM14.7071 2.29289C14.5196 2.10536 14.2652 2 14 2H2C1.73478 2 1.48043 2.10536 1.29289 2.29289C1.10536 2.48043 1 2.73478 1 3V5H15V3C15 2.73478 14.8946 2.48043 14.7071 2.29289ZM1 6V13C1 13.2652 1.10536 13.5196 1.29289 13.7071C1.48043 13.8946 1.73478 14 2 14H7.5V6H1ZM8.5 6V14H14C14.2652 14 14.5196 13.8946 14.7071 13.7071C14.8946 13.5196 15 13.2652 15 13V6H8.5Z" fill="#212529"/>
</svg>
