<svg width="16" height="16" viewBox="0 0 16 16" fill="none" xmlns="http://www.w3.org/2000/svg">
<path d="M2.85355 3.85355C2.94732 3.75979 3 3.63261 3 3.5C3 3.36739 2.94732 3.24021 2.85355 3.14645C2.75979 3.05268 2.63261 3 2.5 3C2.36739 3 2.24021 3.05268 2.14645 3.14645C2.05268 3.24021 2 3.36739 2 3.5C2 3.63261 2.05268 3.75979 2.14645 3.85355C2.24021 3.94732 2.36739 4 2.5 4C2.63261 4 2.75979 3.94732 2.85355 3.85355Z" fill="#212529"/>
<path d="M4.35355 3.85355C4.44732 3.75979 4.5 3.63261 4.5 3.5C4.5 3.36739 4.44732 3.24021 4.35355 3.14645C4.25979 3.05268 4.13261 3 4 3C3.86739 3 3.74021 3.05268 3.64645 3.14645C3.55268 3.24021 3.5 3.36739 3.5 3.5C3.5 3.63261 3.55268 3.75979 3.64645 3.85355C3.74021 3.94732 3.86739 4 4 4C4.13261 4 4.25979 3.94732 4.35355 3.85355Z" fill="#212529"/>
<path d="M5.85355 3.85355C5.75979 3.94732 5.63261 4 5.5 4C5.36739 4 5.24021 3.94732 5.14645 3.85355C5.05268 3.75979 5 3.63261 5 3.5C5 3.36739 5.05268 3.24021 5.14645 3.14645C5.24021 3.05268 5.36739 3 5.5 3C5.63261 3 5.75979 3.05268 5.85355 3.14645C5.94732 3.24021 6 3.36739 6 3.5C6 3.63261 5.94732 3.75979 5.85355 3.85355Z" fill="#212529"/>
<path fill-rule="evenodd" clip-rule="evenodd" d="M0.146447 1.14645C0.240215 1.05268 0.367392 1 0.5 1H15.5C15.6326 1 15.7598 1.05268 15.8536 1.14645C15.9473 1.24021 16 1.36739 16 1.5V14.5C16 14.6326 15.9473 14.7598 15.8536 14.8536C15.7598 14.9473 15.6326 15 15.5 15H0.5C0.367392 15 0.240215 14.9473 0.146447 14.8536C0.0526784 14.7598 0 14.6326 0 14.5V1.5C0 1.36739 0.0526784 1.24021 0.146447 1.14645ZM1 2V5H15V2H1ZM15 6H1V14H15V6Z" fill="#212529"/>
</svg>
