<svg width="16" height="16" viewBox="0 0 16 16" xmlns="http://www.w3.org/2000/svg"> <path d="M2.5 5C2.63261 5 2.75979 4.94732 2.85355 4.85355C2.94732 4.75979 3 4.63261 3 4.5C3 4.36739 2.94732 4.24021 2.85355 4.14645C2.75979 4.05268 2.63261 4 2.5 4C2.36739 4 2.24021 4.05268 2.14645 4.14645C2.05268 4.24021 2 4.36739 2 4.5C2 4.63261 2.05268 4.75979 2.14645 4.85355C2.24021 4.94732 2.36739 5 2.5 5Z"/> <path d="M4 5C4.13261 5 4.25979 4.94732 4.35355 4.85355C4.44732 4.75979 4.5 4.63261 4.5 4.5C4.5 4.36739 4.44732 4.24021 4.35355 4.14645C4.25979 4.05268 4.13261 4 4 4C3.86739 4 3.74021 4.05268 3.64645 4.14645C3.55268 4.24021 3.5 4.36739 3.5 4.5C3.5 4.63261 3.55268 4.75979 3.64645 4.85355C3.74021 4.94732 3.86739 5 4 5Z"/> <path d="M6 4.5C6 4.63261 5.94732 4.75979 5.85355 4.85355C5.75979 4.94732 5.63261 5 5.5 5C5.36739 5 5.24021 4.94732 5.14645 4.85355C5.05268 4.75979 5 4.63261 5 4.5C5 4.36739 5.05268 4.24021 5.14645 4.14645C5.24021 4.05268 5.36739 4 5.5 4C5.63261 4 5.75979 4.05268 5.85355 4.14645C5.94732 4.24021 6 4.36739 6 4.5Z"/> <path fill-rule="evenodd" clip-rule="evenodd" d="M0 4C0 3.46957 0.210714 2.96086 0.585786 2.58579C0.960859 2.21071 1.46957 2 2 2H13C13.5304 2 14.0391 2.21071 14.4142 2.58579C14.7893 2.96086 15 3.46957 15 4V8C15 8.13261 14.9473 8.25979 14.8536 8.35355C14.7598 8.44732 14.6326 8.5 14.5 8.5C14.3674 8.5 14.2402 8.44732 14.1464 8.35355C14.0527 8.25979 14 8.13261 14 8V7H1V12C1 12.2652 1.10536 12.5196 1.29289 12.7071C1.48043 12.8946 1.73478 13 2 13H7.5C7.63261 13 7.75979 13.0527 7.85355 13.1464C7.94732 13.2402 8 13.3674 8 13.5C8 13.6326 7.94732 13.7598 7.85355 13.8536C7.75979 13.9473 7.63261 14 7.5 14H2C1.46957 14 0.960859 13.7893 0.585786 13.4142C0.210714 13.0391 0 12.5304 0 12V4ZM1 6H14V4C14 3.73478 13.8946 3.48043 13.7071 3.29289C13.5196 3.10536 13.2652 3 13 3H2C1.73478 3 1.48043 3.10536 1.29289 3.29289C1.10536 3.48043 1 3.73478 1 4V6Z"/> <path fill-rule="evenodd" clip-rule="evenodd" d="M14.9749 14.9749C15.6313 14.3185 16 13.4283 16 12.5C16 11.5717 15.6313 10.6815 14.9749 10.0251C14.3185 9.36875 13.4283 9 12.5 9C11.5717 9 10.6815 9.36875 10.0251 10.0251C9.36875 10.6815 9 11.5717 9 12.5C9 13.4283 9.36875 14.3185 10.0251 14.9749C10.6815 15.6313 11.5717 16 12.5 16C13.4283 16 14.3185 15.6313 14.9749 14.9749ZM11.0373 11.3084C11.0625 11.2476 11.0994 11.1924 11.146 11.146C11.1924 11.0994 11.2476 11.0625 11.3084 11.0373C11.3691 11.0121 11.4342 10.9991 11.5 10.9991C11.5658 10.9991 11.6309 11.0121 11.6916 11.0373C11.7524 11.0625 11.8076 11.0994 11.854 11.146L12.5 11.793L13.146 11.146C13.2399 11.0521 13.3672 10.9994 13.5 10.9994C13.6328 10.9994 13.7601 11.0521 13.854 11.146C13.9479 11.2399 14.0006 11.3672 14.0006 11.5C14.0006 11.6328 13.9479 11.7601 13.854 11.854L13.207 12.5L13.854 13.146C13.9479 13.2399 14.0006 13.3672 14.0006 13.5C14.0006 13.6328 13.9479 13.7601 13.854 13.854C13.7601 13.9479 13.6328 14.0006 13.5 14.0006C13.3672 14.0006 13.2399 13.9479 13.146 13.854L12.5 13.207L11.854 13.854C11.7601 13.9479 11.6328 14.0006 11.5 14.0006C11.3672 14.0006 11.2399 13.9479 11.146 13.854C11.0521 13.7601 10.9994 13.6328 10.9994 13.5C10.9994 13.3672 11.0521 13.2399 11.146 13.146L11.793 12.5L11.146 11.854C11.0994 11.8076 11.0625 11.7524 11.0373 11.6916C11.0121 11.6309 10.9991 11.5658 10.9991 11.5C10.9991 11.4342 11.0121 11.3691 11.0373 11.3084Z"/> </svg>