<svg width="16" height="16" viewBox="0 0 16 16" xmlns="http://www.w3.org/2000/svg"> <path d="M3.14645 11.1464C3.24021 11.0527 3.36739 11 3.5 11H12.5C12.6326 11 12.7598 11.0527 12.8536 11.1464C12.9473 11.2402 13 11.3674 13 11.5V12.5C13 12.6326 12.9473 12.7598 12.8536 12.8536C12.7598 12.9473 12.6326 13 12.5 13H3.5C3.36739 13 3.24021 12.9473 3.14645 12.8536C3.05268 12.7598 3 12.6326 3 12.5V11.5C3 11.3674 3.05268 11.2402 3.14645 11.1464Z"/> <path fill-rule="evenodd" clip-rule="evenodd" d="M1.46888 1.17667C1.75639 1.05886 2.06429 0.998833 2.375 1.00002H13.625C13.9357 0.998833 14.2436 1.05886 14.5311 1.17667C14.8186 1.29448 15.0801 1.46777 15.3007 1.68663C15.5212 1.9055 15.6965 2.16567 15.8165 2.45227C15.9365 2.73888 15.9988 3.04631 16 3.35702V12.643C15.9988 12.9537 15.9365 13.2612 15.8165 13.5478C15.6965 13.8344 15.5212 14.0945 15.3007 14.3134C15.0801 14.5323 14.8186 14.7056 14.5311 14.8234C14.2436 14.9412 13.9357 15.0012 13.625 15H2.375C2.06429 15.0012 1.75639 14.9412 1.46888 14.8234C1.18137 14.7056 0.919884 14.5323 0.699344 14.3134C0.478805 14.0945 0.303534 13.8344 0.183541 13.5478C0.0635468 13.2612 0.00117965 12.9537 0 12.643V3.35702C0.00117965 3.04631 0.0635468 2.73888 0.183541 2.45227C0.303534 2.16567 0.478805 1.9055 0.699344 1.68663C0.919884 1.46777 1.18137 1.29448 1.46888 1.17667ZM2.375 2.00002C1.611 2.00002 1 2.61202 1 3.35702V4.00002H15V3.35702C15 2.61202 14.389 2.00002 13.625 2.00002H2.375ZM15 5.00002H1V12.643C1.00118 12.8224 1.03768 12.9998 1.10742 13.1651C1.17716 13.3304 1.27877 13.4803 1.40645 13.6063C1.53413 13.7323 1.68538 13.8319 1.85156 13.8995C2.01775 13.967 2.19561 14.0012 2.375 14H13.625C14.389 14 15 13.388 15 12.643V5.00002Z"/> </svg>