<svg width="16" height="16" viewBox="0 0 16 16" xmlns="http://www.w3.org/2000/svg"> <g clip-path="url(#clip0_34_5800)"> <path d="M12.633 7.653C12.633 6.805 12.328 6.218 12.067 5.761L11.987 5.631C11.67 5.121 11.393 4.673 11.393 4.151C11.393 3.521 11.871 2.933 12.545 2.933C12.565 2.933 12.584 2.935 12.603 2.936L12.634 2.939C11.3702 1.77814 9.71606 1.13491 8 1.137C6.86267 1.13642 5.74306 1.41882 4.74207 1.95877C3.74108 2.49872 2.89016 3.27924 2.266 4.23C2.426 4.235 2.579 4.239 2.708 4.239C3.425 4.239 4.536 4.152 4.536 4.152C4.906 4.13 4.95 4.673 4.58 4.717C4.58 4.717 4.209 4.761 3.795 4.782L6.295 12.216L7.795 7.71L6.725 4.781C6.356 4.759 6.006 4.716 6.006 4.716C5.636 4.694 5.68 4.128 6.049 4.15C6.049 4.15 7.183 4.237 7.857 4.237C8.575 4.237 9.687 4.15 9.687 4.15C10.057 4.128 10.1 4.672 9.73 4.716C9.73 4.716 9.358 4.759 8.945 4.781L11.425 12.158L12.109 9.871L12.163 9.698C12.433 8.838 12.632 8.203 12.632 7.652L12.633 7.653ZM1.137 8C1.13693 9.28874 1.49968 10.5515 2.18373 11.6437C2.86778 12.7359 3.8455 13.6135 5.005 14.176L1.73 5.206C1.33783 6.0852 1.13575 7.0373 1.137 8Z"/> <path d="M6.061 14.583L8.121 8.6L10.23 14.38C10.244 14.413 10.26 14.444 10.279 14.474C8.91944 14.953 7.44348 14.9911 6.061 14.583ZM14.021 4.707C14.051 4.926 14.068 5.16 14.068 5.413C14.068 6.109 13.938 6.892 13.546 7.871L11.45 13.931C12.9967 13.0324 14.1312 11.5651 14.6117 9.84201C15.0921 8.11893 14.8805 6.27632 14.022 4.707H14.021Z"/> <path fill-rule="evenodd" clip-rule="evenodd" d="M0 8C0 3.589 3.589 0 8 0C12.41 0 16 3.589 16 8C16 12.411 12.41 16 8 16C3.589 16 0 12.411 0 8ZM0.367 8C0.367 12.209 3.791 15.633 8 15.633C12.208 15.633 15.632 12.209 15.632 8C15.632 3.79 12.208 0.367 8 0.367C3.79 0.367 0.367 3.79 0.367 8Z"/> </g> <defs> <clipPath id="clip0_34_5800"> <rect width="16" height="16"/> </clipPath> </defs> </svg>