<svg width="16" height="16" viewBox="0 0 16 16" xmlns="http://www.w3.org/2000/svg"> <g clip-path="url(#clip0_34_5804)"> <path fill-rule="evenodd" clip-rule="evenodd" d="M13.333 8.60999C12.773 8.86099 12.153 8.99999 11.5 8.99999C10.9561 9.00054 10.4167 8.90228 9.90799 8.70999L4.81199 14.826C4.58218 15.1016 4.29746 15.3263 3.97598 15.4858C3.6545 15.6453 3.30332 15.736 2.94482 15.7522C2.58633 15.7684 2.22838 15.7098 1.89382 15.58C1.55926 15.4502 1.25541 15.2521 1.00166 14.9983C0.747907 14.7446 0.549814 14.4407 0.42001 14.1062C0.290206 13.7716 0.231541 13.4137 0.247755 13.0552C0.263969 12.6967 0.354706 12.3455 0.51418 12.024C0.673655 11.7025 0.898368 11.4178 1.17399 11.188L7.28999 6.09199C6.91955 5.11259 6.90225 4.03465 7.24109 3.04387C7.57992 2.05308 8.25367 1.21148 9.14628 0.66402C10.0389 0.116562 11.0945 -0.102473 12.1312 0.0446434C13.1679 0.19176 14.1209 0.695818 14.826 1.46999L11 2.99999L12 5.49999L13.333 8.60999ZM9.61199 5.53199L10.208 4.63899C10.2369 4.59565 10.2516 4.54435 10.25 4.49226C10.2483 4.44017 10.2304 4.38989 10.1988 4.34846C10.1672 4.30704 10.1234 4.27653 10.0736 4.2612C10.0238 4.24588 9.97043 4.2465 9.92099 4.26299L8.42099 4.76299L8.57899 5.23799L9.38799 4.96799L8.79199 5.86099C8.76266 5.90433 8.74766 5.95577 8.74912 6.00808C8.75058 6.06039 8.76841 6.11092 8.80011 6.15256C8.8318 6.1942 8.87576 6.22484 8.9258 6.24016C8.97583 6.25549 9.02941 6.25473 9.07899 6.23799L9.88799 5.96799L9.29199 6.86099C9.26305 6.90433 9.24837 6.95564 9.25002 7.00773C9.25166 7.05982 9.26955 7.11009 9.30117 7.15152C9.33279 7.19295 9.37657 7.22346 9.42638 7.23878C9.47619 7.25411 9.52955 7.25348 9.57899 7.23699L11.079 6.73699L10.921 6.26199L10.112 6.53199L10.708 5.63899C10.7373 5.59566 10.7523 5.54421 10.7509 5.4919C10.7494 5.4396 10.7316 5.38906 10.6999 5.34743C10.6682 5.30579 10.6242 5.27515 10.5742 5.25982C10.5242 5.2445 10.4706 5.24525 10.421 5.26199L9.61199 5.53199ZM2.29288 13.7071C2.48042 13.8946 2.73477 14 2.99999 14C3.26521 14 3.51956 13.8946 3.7071 13.7071C3.89463 13.5196 3.99999 13.2652 3.99999 13C3.99999 12.7348 3.89463 12.4804 3.7071 12.2929C3.51956 12.1054 3.26521 12 2.99999 12C2.73477 12 2.48042 12.1054 2.29288 12.2929C2.10535 12.4804 1.99999 12.7348 1.99999 13C1.99999 13.2652 2.10535 13.5196 2.29288 13.7071Z"/> <path d="M15.5529 6.45847C15.8479 5.84781 16.0007 5.17829 16 4.50014C16 4.29314 15.986 4.09014 15.959 3.89014L13 5.00014L14.297 8.02614C14.8286 7.60508 15.258 7.06913 15.5529 6.45847Z"/> </g> <defs> <clipPath id="clip0_34_5804"> <rect width="16" height="16"/> </clipPath> </defs> </svg>