<svg width="16" height="16" viewBox="0 0 16 16" fill="none" xmlns="http://www.w3.org/2000/svg">
<g clip-path="url(#clip0_34_5806)">
<path d="M12.049 9.95852C12.344 9.34784 12.4968 8.6783 12.496 8.00014C12.496 7.79314 12.483 7.59014 12.456 7.39014L9.49701 8.50014L10.793 11.5261C11.3247 11.1051 11.7541 10.5692 12.049 9.95852Z" fill="black"/>
<path fill-rule="evenodd" clip-rule="evenodd" d="M13.6569 13.6569C15.1571 12.1566 16 10.1217 16 8C16 5.87827 15.1571 3.84344 13.6569 2.34315C12.1566 0.842855 10.1217 0 8 0C5.87827 0 3.84344 0.842855 2.34315 2.34315C0.842855 3.84344 0 5.87827 0 8C0 10.1217 0.842855 12.1566 2.34315 13.6569C3.84344 15.1571 5.87827 16 8 16C10.1217 16 12.1566 15.1571 13.6569 13.6569ZM14.2928 4.93723C14.7577 5.89134 14.9995 6.93867 15 8C15.0003 9.20501 14.6895 10.3897 14.0978 11.4394C13.506 12.4891 12.6533 13.3682 11.6222 13.9918C10.591 14.6153 9.41637 14.9621 8.21192 14.9986C7.00746 15.035 5.81399 14.76 4.747 14.2L6.405 12.21C6.91372 12.4023 7.45315 12.5005 7.997 12.5C8.65 12.5 9.27 12.361 9.83 12.11L8.497 9L7.497 6.5L11.323 4.969C10.6181 4.19381 9.66482 3.68888 8.62751 3.54129C7.59021 3.3937 6.53391 3.6127 5.64079 4.16052C4.74766 4.70834 4.07368 5.55065 3.73509 6.54218C3.39649 7.53371 3.41449 8.61232 3.786 9.592L1.798 11.249C1.30588 10.3087 1.03402 9.26873 1.00299 8.20785C0.971965 7.14697 1.18258 6.09293 1.6189 5.12544C2.05522 4.15794 2.70583 3.30233 3.52153 2.62331C4.33722 1.94429 5.29664 1.45964 6.32722 1.20601C7.3578 0.952389 8.43256 0.936429 9.47022 1.15934C10.5079 1.38225 11.4813 1.8382 12.3168 2.4927C13.1523 3.1472 13.828 3.98312 14.2928 4.93723ZM6.74727 7.99188C6.74891 8.04413 6.73412 8.09559 6.705 8.139L6.109 9.033L6.917 8.763C6.9665 8.74619 7.02003 8.74532 7.07005 8.76051C7.12007 8.77571 7.16407 8.8062 7.19586 8.8477C7.22765 8.88921 7.24563 8.93963 7.24727 8.99188C7.24891 9.04413 7.23412 9.09559 7.205 9.139L6.609 10.033L7.417 9.763L7.576 10.237L6.076 10.737C6.02656 10.7535 5.9732 10.7541 5.92339 10.7388C5.87358 10.7235 5.8298 10.693 5.79818 10.6515C5.76655 10.6101 5.74867 10.5598 5.74703 10.5077C5.74538 10.4556 5.76006 10.4043 5.789 10.361L6.384 9.467L5.576 9.737C5.52656 9.75349 5.4732 9.75412 5.42339 9.73879C5.37358 9.72347 5.3298 9.69296 5.29818 9.65153C5.26655 9.6101 5.24867 9.55983 5.24703 9.50774C5.24538 9.45564 5.26006 9.40434 5.289 9.361L5.884 8.467L5.076 8.737L4.917 8.263L6.417 7.763C6.4665 7.74619 6.52003 7.74532 6.57005 7.76051C6.62007 7.77571 6.66407 7.8062 6.69586 7.8477C6.72765 7.88921 6.74563 7.93963 6.74727 7.99188Z" fill="black"/>
</g>
<defs>
<clipPath id="clip0_34_5806">
<rect width="16" height="16" fill="white"/>
</clipPath>
</defs>
</svg>
