<svg width="16" height="16" viewBox="0 0 16 16" fill="none" xmlns="http://www.w3.org/2000/svg">
<g clip-path="url(#clip0_34_5808)">
<path d="M6.74726 7.99167C6.7489 8.04392 6.73412 8.09538 6.70499 8.13879L6.10899 9.03279L6.91699 8.76279C6.96649 8.74598 7.02002 8.74511 7.07004 8.7603C7.12006 8.7755 7.16406 8.80599 7.19585 8.84749C7.22764 8.889 7.24562 8.93942 7.24726 8.99167C7.2489 9.04392 7.23412 9.09538 7.20499 9.13879L6.60899 10.0328L7.41699 9.76279L7.57599 10.2368L6.07599 10.7368C6.02655 10.7533 5.9732 10.7539 5.92338 10.7386C5.87357 10.7233 5.82979 10.6927 5.79817 10.6513C5.76655 10.6099 5.74866 10.5596 5.74702 10.5075C5.74537 10.4554 5.76005 10.4041 5.78899 10.3608L6.38399 9.46679L5.57599 9.73679C5.52655 9.75328 5.4732 9.75391 5.42338 9.73858C5.37357 9.72326 5.32979 9.69275 5.29817 9.65132C5.26655 9.60989 5.24866 9.55962 5.24702 9.50752C5.24537 9.45543 5.26005 9.40413 5.28899 9.36079L5.88399 8.46679L5.07599 8.73679L4.91699 8.26279L6.41699 7.76279C6.46649 7.74598 6.52002 7.74511 6.57004 7.7603C6.62006 7.7755 6.66406 7.80599 6.69585 7.84749C6.72764 7.889 6.74562 7.93942 6.74726 7.99167Z" fill="black"/>
<path fill-rule="evenodd" clip-rule="evenodd" d="M13.6569 13.6569C12.1566 15.1571 10.1217 16 8 16C5.87827 16 3.84344 15.1571 2.34315 13.6569C0.842855 12.1566 0 10.1217 0 8C0 5.87827 0.842855 3.84344 2.34315 2.34315C3.84344 0.842855 5.87827 0 8 0C10.1217 0 12.1566 0.842855 13.6569 2.34315C15.1571 3.84344 16 5.87827 16 8C16 10.1217 15.1571 12.1566 13.6569 13.6569ZM3.786 9.592L1.798 11.249C2.45981 12.5084 3.48808 13.5373 4.747 14.2L6.405 12.21C6.91372 12.4023 7.45315 12.5005 7.997 12.5C8.65 12.5 9.27 12.361 9.83 12.11L8.497 9L7.497 6.5L11.323 4.969C10.6181 4.19381 9.66482 3.68888 8.62751 3.54129C7.59021 3.3937 6.53391 3.6127 5.64079 4.16052C4.74766 4.70834 4.07368 5.55065 3.73509 6.54218C3.39649 7.53371 3.41449 8.61232 3.786 9.592ZM12.049 9.95838C12.344 9.34771 12.4968 8.67817 12.496 8C12.496 7.793 12.483 7.59 12.456 7.39L9.497 8.5L10.793 11.526C11.3247 11.105 11.7541 10.5691 12.049 9.95838Z" fill="black"/>
</g>
<defs>
<clipPath id="clip0_34_5808">
<rect width="16" height="16" fill="white"/>
</clipPath>
</defs>
</svg>
