<svg width="16" height="16" viewBox="0 0 16 16" xmlns="http://www.w3.org/2000/svg"> <g clip-path="url(#clip0_34_5802)"> <path d="M0.101773 2.22305C-0.033485 2.73194 -0.032602 3.26745 0.104333 3.7759C0.241269 4.28434 0.509446 4.74786 0.881984 5.11999C1.25452 5.49212 1.71833 5.7598 2.22693 5.89618C2.73552 6.03256 3.27103 6.03286 3.77977 5.89705L10.1208 12.149C9.98899 12.5967 9.96336 13.069 10.0459 13.5283C10.1285 13.9876 10.317 14.4214 10.5964 14.7952C10.8758 15.1689 11.2385 15.4724 11.6557 15.6816C12.0729 15.8907 12.5331 15.9998 12.9998 16C13.4297 15.9995 13.8545 15.9064 14.2454 15.7273C14.6362 15.5482 14.984 15.2872 15.2652 14.9619C15.5463 14.6367 15.7543 14.2548 15.875 13.8421C15.9957 13.4295 16.0262 12.9957 15.9646 12.5702C15.903 12.1447 15.7507 11.7374 15.5179 11.3759C15.2852 11.0144 14.9774 10.7072 14.6156 10.475C14.2537 10.2429 13.8462 10.0912 13.4206 10.0303C12.995 9.9694 12.5612 10.0007 12.1488 10.122L5.89677 3.78105C6.03324 3.27211 6.03345 2.73622 5.89736 2.22718C5.76127 1.71813 5.49368 1.25384 5.12144 0.880897C4.74921 0.507953 4.28543 0.23948 3.77664 0.102423C3.26786 -0.0346336 2.73197 -0.0354522 2.22277 0.10005L4.36377 2.24205L3.99977 4.00005L2.24277 4.36405L0.101773 2.22305ZM13.4718 11.242L13.9998 11.268L14.2868 11.713L14.7318 12L14.7578 12.529L14.9998 13L14.7578 13.471L14.7318 14L14.2868 14.287L13.9998 14.732L13.4708 14.758L12.9998 15L12.5288 14.758L11.9998 14.732L11.7128 14.287L11.2678 14L11.2418 13.471L10.9998 13L11.2418 12.529L11.2678 12L11.7128 11.713L11.9998 11.268L12.5288 11.242L12.9998 11L13.4708 11.242H13.4718Z"/> </g> <defs> <clipPath id="clip0_34_5802"> <rect width="16" height="16"/> </clipPath> </defs> </svg>