<svg width="16" height="16" viewBox="0 0 16 16" xmlns="http://www.w3.org/2000/svg"> <g clip-path="url(#clip0_34_5818)"> <path d="M7.9868 15.9998C7.58507 15.9972 7.20059 15.8362 6.9168 15.5518L0.449804 9.08182C0.162735 8.7947 0.00146484 8.40532 0.00146484 7.99932C0.00146484 7.59331 0.162735 7.20393 0.449804 6.91682L6.9168 0.449816C7.05899 0.307524 7.22781 0.194645 7.41364 0.117631C7.59947 0.0406164 7.79865 0.000976563 7.9998 0.000976562C8.20096 0.000976563 8.40014 0.0406164 8.58597 0.117631C8.77179 0.194645 8.94062 0.307524 9.0828 0.449816L15.5518 6.91782C15.6956 7.06132 15.8093 7.2321 15.8862 7.42013C15.9632 7.60816 16.0018 7.80966 15.9998 8.01282C15.9971 8.41455 15.8362 8.79903 15.5518 9.08282L9.0818 15.5518C8.93841 15.6955 8.7678 15.8091 8.57995 15.8861C8.3921 15.963 8.19079 16.0017 7.9878 15.9998H7.9868ZM7.6388 1.16982L4.7658 4.04382L7.9998 7.27782L11.2338 4.04382L8.3608 1.16982C8.31343 1.12235 8.25716 1.08468 8.19522 1.05899C8.13327 1.03329 8.06687 1.02006 7.9998 1.02006C7.93274 1.02006 7.86634 1.03329 7.80439 1.05899C7.74244 1.08468 7.68618 1.12235 7.6388 1.16982ZM8.7218 7.99982L11.9558 11.2338L14.8288 8.36082C15.0288 8.16082 15.0288 7.83782 14.8288 7.63882L11.9558 4.76582L8.7218 7.99982ZM7.9998 8.72182L4.7658 11.9558L7.6388 14.8288C7.8388 15.0288 8.1618 15.0288 8.3608 14.8288L11.2338 11.9558L7.9998 8.72182ZM7.2778 7.99982L4.0438 4.76582L1.1698 7.63882C1.07418 7.73462 1.02047 7.86445 1.02047 7.99982C1.02047 8.13518 1.07418 8.26501 1.1698 8.36082L4.0438 11.2338L7.2778 7.99982Z"/> </g> <defs> <clipPath id="clip0_34_5818"> <rect width="16" height="16"/> </clipPath> </defs> </svg>