<svg width="16" height="16" viewBox="0 0 16 16" fill="none" xmlns="http://www.w3.org/2000/svg">
<g clip-path="url(#clip0_34_5824)">
<path d="M4.54 0.146C4.63371 0.052531 4.76065 2.8119e-05 4.893 0H11.107C11.2394 2.8119e-05 11.3663 0.052531 11.46 0.146L15.854 4.54C15.9475 4.63371 16 4.76065 16 4.893V11.107C16 11.2394 15.9475 11.3663 15.854 11.46L11.46 15.854C11.3663 15.9475 11.2394 16 11.107 16H4.893C4.76065 16 4.63371 15.9475 4.54 15.854L0.146 11.46C0.052531 11.3663 2.8119e-05 11.2394 0 11.107V4.893C2.8119e-05 4.76065 0.052531 4.63371 0.146 4.54L4.54 0.146ZM5.1 1L1 5.1V10.9L5.1 15H10.9L15 10.9V5.1L10.9 1H5.1Z" fill="#212529"/>
<path d="M4.646 4.646C4.69245 4.59944 4.74762 4.56249 4.80837 4.53729C4.86911 4.51208 4.93423 4.49911 5 4.49911C5.06577 4.49911 5.13089 4.51208 5.19163 4.53729C5.25238 4.56249 5.30755 4.59944 5.354 4.646L8 7.293L10.646 4.646C10.6925 4.59951 10.7477 4.56264 10.8084 4.53748C10.8692 4.51232 10.9343 4.49937 11 4.49937C11.0657 4.49937 11.1308 4.51232 11.1916 4.53748C11.2523 4.56264 11.3075 4.59951 11.354 4.646C11.4005 4.69249 11.4374 4.74768 11.4625 4.80842C11.4877 4.86916 11.5006 4.93426 11.5006 5C11.5006 5.06574 11.4877 5.13084 11.4625 5.19158C11.4374 5.25232 11.4005 5.30751 11.354 5.354L8.707 8L11.354 10.646C11.4005 10.6925 11.4374 10.7477 11.4625 10.8084C11.4877 10.8692 11.5006 10.9343 11.5006 11C11.5006 11.0657 11.4877 11.1308 11.4625 11.1916C11.4374 11.2523 11.4005 11.3075 11.354 11.354C11.3075 11.4005 11.2523 11.4374 11.1916 11.4625C11.1308 11.4877 11.0657 11.5006 11 11.5006C10.9343 11.5006 10.8692 11.4877 10.8084 11.4625C10.7477 11.4374 10.6925 11.4005 10.646 11.354L8 8.707L5.354 11.354C5.30751 11.4005 5.25232 11.4374 5.19158 11.4625C5.13084 11.4877 5.06574 11.5006 5 11.5006C4.93426 11.5006 4.86916 11.4877 4.80842 11.4625C4.74768 11.4374 4.69249 11.4005 4.646 11.354C4.59951 11.3075 4.56264 11.2523 4.53748 11.1916C4.51232 11.1308 4.49937 11.0657 4.49937 11C4.49937 10.9343 4.51232 10.8692 4.53748 10.8084C4.56264 10.7477 4.59951 10.6925 4.646 10.646L7.293 8L4.646 5.354C4.59944 5.30755 4.56249 5.25238 4.53729 5.19163C4.51208 5.13089 4.49911 5.06577 4.49911 5C4.49911 4.93423 4.51208 4.86911 4.53729 4.80837C4.56249 4.74762 4.59944 4.69245 4.646 4.646Z" fill="#212529"/>
</g>
<defs>
<clipPath id="clip0_34_5824">
<rect width="16" height="16" fill="white"/>
</clipPath>
</defs>
</svg>
