<svg width="16" height="16" viewBox="0 0 16 16" xmlns="http://www.w3.org/2000/svg"> <g clip-path="url(#clip0_34_5812)"> <path d="M7.20208 15.9668C5.93452 15.8361 4.71662 15.4041 3.65008 14.7068C2.75208 14.1218 2.54908 13.8808 2.54908 13.4008C2.54908 12.4358 3.61108 10.7448 5.42808 8.81776C6.45908 7.72276 7.89708 6.43976 8.05208 6.47476C8.35408 6.54276 10.7701 8.89776 11.6741 10.0058C13.1041 11.7588 13.7621 13.1948 13.4281 13.8348C13.1741 14.3208 11.5981 15.2718 10.4411 15.6368C9.48708 15.9378 8.23408 16.0658 7.20208 15.9668ZM1.33608 12.3968C0.589084 11.2528 0.212084 10.1268 0.0300835 8.49676C-0.0299165 7.95776 -0.00791648 7.65076 0.167084 6.54676C0.385083 5.16976 1.16908 3.57676 2.11208 2.59676C2.51308 2.17976 2.54908 2.16976 3.03808 2.33376C3.63308 2.53376 4.26808 2.97176 5.25108 3.86176L5.82508 4.38076L5.51208 4.76576C4.05608 6.55276 2.52008 9.08576 1.94008 10.6528C1.62508 11.5048 1.49808 12.3598 1.63408 12.7158C1.72508 12.9558 1.64108 12.8658 1.33408 12.3968H1.33608ZM14.4371 12.5918C14.5111 12.2318 14.4181 11.5718 14.1991 10.9048C13.7261 9.46176 12.1441 6.77676 10.6911 4.95176L10.2341 4.37676L10.7281 3.92276C11.3741 3.32976 11.8231 2.97476 12.3081 2.67276C12.6891 2.43576 13.2351 2.22476 13.4691 2.22476C13.6141 2.22476 14.1231 2.75276 14.5341 3.32876C15.188 4.26069 15.645 5.3162 15.8771 6.43076C16.0301 7.15876 16.0431 8.71676 15.9011 9.44276C15.7678 10.093 15.5667 10.7275 15.3011 11.3358C15.1221 11.7288 14.6771 12.4918 14.4811 12.7398C14.3811 12.8678 14.3811 12.8668 14.4381 12.5918H14.4371ZM7.33508 1.95176C6.66508 1.61176 5.63108 1.24676 5.05908 1.14876C4.80792 1.11135 4.55386 1.09696 4.30008 1.10576C3.82908 1.12976 3.85008 1.10576 4.60608 0.74776C5.19872 0.463147 5.82504 0.254819 6.47008 0.12776C7.27008 -0.0412399 8.77608 -0.0422399 9.56408 0.12276C10.4141 0.30276 11.4171 0.67476 11.9821 1.02276L12.1501 1.12576L11.7651 1.10576C10.9991 1.06776 9.88508 1.37576 8.68708 1.95876C8.32608 2.13476 8.01108 2.27476 7.98808 2.27076C7.76697 2.17093 7.54888 2.06455 7.33408 1.95176H7.33508Z"/> </g> <defs> <clipPath id="clip0_34_5812"> <rect width="16" height="16"/> </clipPath> </defs> </svg>