<svg width="16" height="16" viewBox="0 0 16 16" xmlns="http://www.w3.org/2000/svg"> <g clip-path="url(#clip0_34_5832)"> <path d="M9.167 4.5C9.167 4.80951 9.04405 5.10634 8.82519 5.32519C8.60634 5.54405 8.30951 5.667 8 5.667C7.69049 5.667 7.39366 5.54405 7.17481 5.32519C6.95595 5.10634 6.833 4.80951 6.833 4.5C6.833 4.19049 6.95595 3.89366 7.17481 3.67481C7.39366 3.45595 7.69049 3.333 8 3.333C8.30951 3.333 8.60634 3.45595 8.82519 3.67481C9.04405 3.89366 9.167 4.19049 9.167 4.5Z"/> <path d="M8 0C5.87827 0 3.84344 0.842855 2.34315 2.34315C0.842855 3.84344 0 5.87827 0 8C0 10.1217 0.842855 12.1566 2.34315 13.6569C3.84344 15.1571 5.87827 16 8 16C10.1217 16 12.1566 15.1571 13.6569 13.6569C15.1571 12.1566 16 10.1217 16 8C16 5.87827 15.1571 3.84344 13.6569 2.34315C12.1566 0.842855 10.1217 0 8 0ZM1 8C1 6.14348 1.7375 4.36301 3.05025 3.05025C4.36301 1.7375 6.14348 1 8 1C8.92826 1 9.8185 1.36875 10.4749 2.02513C11.1313 2.6815 11.5 3.57174 11.5 4.5C11.5 5.42826 11.1313 6.3185 10.4749 6.97487C9.8185 7.63125 8.92826 8 8 8C7.07174 8 6.1815 8.36875 5.52513 9.02513C4.86875 9.6815 4.5 10.5717 4.5 11.5C4.5 12.4283 4.86875 13.3185 5.52513 13.9749C6.1815 14.6313 7.07174 15 8 15C6.14348 15 4.36301 14.2625 3.05025 12.9497C1.7375 11.637 1 9.85652 1 8ZM8 12.667C7.69049 12.667 7.39366 12.544 7.17481 12.3252C6.95595 12.1063 6.833 11.8095 6.833 11.5C6.833 11.1905 6.95595 10.8937 7.17481 10.6748C7.39366 10.456 7.69049 10.333 8 10.333C8.30951 10.333 8.60634 10.456 8.82519 10.6748C9.04405 10.8937 9.167 11.1905 9.167 11.5C9.167 11.8095 9.04405 12.1063 8.82519 12.3252C8.60634 12.544 8.30951 12.667 8 12.667Z"/> </g> <defs> <clipPath id="clip0_34_5832"> <rect width="16" height="16"/> </clipPath> </defs> </svg>